<svg xmlns="http://www.w3.org/2000/svg" width="200" height="150" viewBox="0 0 200 150">
  <g id="Grupo_877336" data-name="Grupo 877336" transform="translate(-1014 -1867.434)">
    <g id="Grupo_877172" data-name="Grupo 877172" transform="translate(1014.292 1866.997)">
      <g id="Grupo_874633" data-name="Grupo 874633" transform="translate(0 24.077)">
        <rect id="Rectángulo_291466" data-name="Rectángulo 291466" width="200" height="108" transform="translate(-0.292 0.36)" fill="none"/>
        <g id="Grupo_874624" data-name="Grupo 874624" transform="translate(0 9.63)">
          <g id="Grupo_874620" data-name="Grupo 874620" transform="translate(39.728 39.728) rotate(180)">
            <ellipse id="Elipse_4713" data-name="Elipse 4713" cx="3" cy="3.5" rx="3" ry="3.5" transform="translate(0.02 -0.001)" fill="#f3ab1d"/>
            <ellipse id="Elipse_4717" data-name="Elipse 4717" cx="3" cy="3.5" rx="3" ry="3.5" transform="translate(0.02 16.999)" fill="#f3ab1d"/>
            <circle id="Elipse_4719" data-name="Elipse 4719" cx="3" cy="3" r="3" transform="translate(0.02 33.999)" fill="#f3ab1d"/>
            <circle id="Elipse_4715" data-name="Elipse 4715" cx="3.5" cy="3.5" r="3.5" transform="translate(17.02 -0.001)" fill="#f3ab1d"/>
            <ellipse id="Elipse_4720" data-name="Elipse 4720" cx="4" cy="3.5" rx="4" ry="3.5" transform="translate(32.02 -0.001)" fill="#f3ab1d"/>
            <circle id="Elipse_4716" data-name="Elipse 4716" cx="3.5" cy="3.5" r="3.5" transform="translate(17.02 16.999)" fill="#f3ab1d"/>
            <ellipse id="Elipse_4721" data-name="Elipse 4721" cx="4" cy="3.5" rx="4" ry="3.5" transform="translate(32.02 16.999)" fill="#f3ab1d"/>
            <ellipse id="Elipse_4718" data-name="Elipse 4718" cx="3.5" cy="3" rx="3.5" ry="3" transform="translate(17.02 33.999)" fill="#f3ab1d"/>
            <ellipse id="Elipse_4722" data-name="Elipse 4722" cx="4" cy="3" rx="4" ry="3" transform="translate(32.02 33.999)" fill="#f3ab1d"/>
          </g>
          <g id="Grupo_874621" data-name="Grupo 874621" transform="translate(39.728 91.496) rotate(180)">
            <ellipse id="Elipse_4713-2" data-name="Elipse 4713" cx="3" cy="3.5" rx="3" ry="3.5" transform="translate(0.02 -0.233)" fill="#f3ab1d"/>
            <ellipse id="Elipse_4717-2" data-name="Elipse 4717" cx="3" cy="3.5" rx="3" ry="3.5" transform="translate(0.02 16.767)" fill="#f3ab1d"/>
            <ellipse id="Elipse_4719-2" data-name="Elipse 4719" cx="3" cy="3.5" rx="3" ry="3.5" transform="translate(0.02 33.767)" fill="#f3ab1d"/>
            <circle id="Elipse_4715-2" data-name="Elipse 4715" cx="3.5" cy="3.5" r="3.5" transform="translate(17.02 -0.233)" fill="#f3ab1d"/>
            <ellipse id="Elipse_4720-2" data-name="Elipse 4720" cx="4" cy="3.5" rx="4" ry="3.5" transform="translate(32.02 -0.233)" fill="#f3ab1d"/>
            <circle id="Elipse_4716-2" data-name="Elipse 4716" cx="3.5" cy="3.5" r="3.5" transform="translate(17.02 16.767)" fill="#f3ab1d"/>
            <ellipse id="Elipse_4721-2" data-name="Elipse 4721" cx="4" cy="3.5" rx="4" ry="3.5" transform="translate(32.02 16.767)" fill="#f3ab1d"/>
            <circle id="Elipse_4718-2" data-name="Elipse 4718" cx="3.5" cy="3.5" r="3.5" transform="translate(17.02 33.767)" fill="#f3ab1d"/>
            <ellipse id="Elipse_4722-2" data-name="Elipse 4722" cx="4" cy="3.5" rx="4" ry="3.5" transform="translate(32.02 33.767)" fill="#f3ab1d"/>
          </g>
        </g>
      </g>
      <g id="Grupo_156377" data-name="Grupo 156377" transform="translate(26.485)">
        <circle id="Elipse_4724" data-name="Elipse 4724" cx="75" cy="75" r="75" transform="translate(0.223 0.437)" fill="#fff"/>
        <circle id="Elipse_4738" data-name="Elipse 4738" cx="67" cy="67" r="67" transform="translate(8.223 8.437)" fill="#f2f5d1" opacity="0.7"/>
      </g>
      <g id="Grupo_874634" data-name="Grupo 874634" transform="translate(163.264 96.412)">
        <g id="Grupo_151688" data-name="Grupo 151688" transform="translate(0 7.128)">
          <path id="Trazado_212295" data-name="Trazado 212295" d="M-11425.02-11468v14.257" transform="translate(11432.146 11467.997)" fill="none" stroke="#26779f" stroke-width="4"/>
          <path id="Trazado_212296" data-name="Trazado 212296" d="M0,0V14.255" transform="translate(14.255 7.128) rotate(90)" fill="none" stroke="#26779f" stroke-width="4"/>
        </g>
        <g id="Grupo_151689" data-name="Grupo 151689" transform="translate(18.532 0)">
          <path id="Trazado_212295-2" data-name="Trazado 212295" d="M-11425.02-11468v14.257" transform="translate(11432.146 11467.997)" fill="none" stroke="#26779f" stroke-width="4"/>
          <path id="Trazado_212296-2" data-name="Trazado 212296" d="M0,0V14.255" transform="translate(14.255 7.128) rotate(90)" fill="none" stroke="#26779f" stroke-width="4"/>
        </g>
        <g id="Grupo_151690" data-name="Grupo 151690" transform="translate(21.621 21.383)">
          <path id="Trazado_212295-3" data-name="Trazado 212295" d="M-11425.02-11468v14.257" transform="translate(11432.146 11467.997)" fill="none" stroke="#26779f" stroke-width="4"/>
          <path id="Trazado_212296-3" data-name="Trazado 212296" d="M0,0V14.255" transform="translate(14.255 7.128) rotate(90)" fill="none" stroke="#26779f" stroke-width="4"/>
        </g>
      </g>
    </g>
    <g id="archivo" transform="translate(1078.385 1895.354)">
      <g id="Grupo_877332" data-name="Grupo 877332" transform="translate(-6.754 4.845) rotate(-3)">
        <path id="Trazado_601986" data-name="Trazado 601986" d="M69.73,21.227,48.5,0H1.5V87.941H69.73Z" transform="translate(-1.5)" fill="#b0c0d2"/>
        <g id="Grupo_877330" data-name="Grupo 877330" transform="translate(13.646 19.711)">
          <path id="Trazado_601987" data-name="Trazado 601987" d="M12.016,24.032H49.922a1.516,1.516,0,1,0,0-3.032H12.016a1.516,1.516,0,0,0,0,3.032Z" transform="translate(-10.5 -8.87)" fill="#b0c0d2"/>
          <path id="Trazado_601988" data-name="Trazado 601988" d="M12.016,16.032H27.178a1.516,1.516,0,0,0,0-3.032H12.016a1.516,1.516,0,0,0,0,3.032Z" transform="translate(-10.5 -13)" fill="#b0c0d2"/>
          <path id="Trazado_601989" data-name="Trazado 601989" d="M49.922,29H12.016a1.516,1.516,0,1,0,0,3.032H49.922a1.516,1.516,0,1,0,0-3.032Z" transform="translate(-10.5 -4.74)" fill="#b0c0d2"/>
          <path id="Trazado_601990" data-name="Trazado 601990" d="M49.922,37H12.016a1.516,1.516,0,1,0,0,3.032H49.922a1.516,1.516,0,1,0,0-3.032Z" transform="translate(-10.5 -0.611)" fill="#b0c0d2"/>
          <path id="Trazado_601991" data-name="Trazado 601991" d="M49.922,45H12.016a1.516,1.516,0,1,0,0,3.032H49.922a1.516,1.516,0,1,0,0-3.032Z" transform="translate(-10.5 3.519)" fill="#b0c0d2"/>
        </g>
        <path id="Trazado_601992" data-name="Trazado 601992" d="M32.5,0V21.227H53.727Z" transform="translate(14.503)" fill="#b0c0d2"/>
      </g>
      <g id="Grupo_877331" data-name="Grupo 877331" transform="translate(1.5)">
        <path id="Trazado_601986-2" data-name="Trazado 601986" d="M69.73,21.227,48.5,0H1.5V87.941H69.73Z" transform="translate(-1.5)" fill="#fff"/>
        <g id="Grupo_877330-2" data-name="Grupo 877330" transform="translate(13.646 19.711)">
          <path id="Trazado_601987-2" data-name="Trazado 601987" d="M12.016,24.032H49.922a1.516,1.516,0,1,0,0-3.032H12.016a1.516,1.516,0,0,0,0,3.032Z" transform="translate(-10.5 -8.87)" fill="#afafaf"/>
          <path id="Trazado_601988-2" data-name="Trazado 601988" d="M12.016,16.032H27.178a1.516,1.516,0,0,0,0-3.032H12.016a1.516,1.516,0,0,0,0,3.032Z" transform="translate(-10.5 -13)" fill="#afafaf"/>
          <path id="Trazado_601989-2" data-name="Trazado 601989" d="M49.922,29H12.016a1.516,1.516,0,1,0,0,3.032H49.922a1.516,1.516,0,1,0,0-3.032Z" transform="translate(-10.5 -4.74)" fill="#afafaf"/>
          <path id="Trazado_601990-2" data-name="Trazado 601990" d="M49.922,37H12.016a1.516,1.516,0,1,0,0,3.032H49.922a1.516,1.516,0,1,0,0-3.032Z" transform="translate(-10.5 -0.611)" fill="#afafaf"/>
          <path id="Trazado_601991-2" data-name="Trazado 601991" d="M49.922,45H12.016a1.516,1.516,0,1,0,0,3.032H49.922a1.516,1.516,0,1,0,0-3.032Z" transform="translate(-10.5 3.519)" fill="#afafaf"/>
        </g>
        <path id="Trazado_601992-2" data-name="Trazado 601992" d="M32.5,0V21.227H53.727Z" transform="translate(14.503)" fill="#dee4f0"/>
      </g>
    </g>
    <path id="Trazado_601993" data-name="Trazado 601993" d="M277.038,250.519A26.519,26.519,0,1,1,250.519,224,26.52,26.52,0,0,1,277.038,250.519Zm0,0" transform="translate(893 1710.98)" fill="#5ad1a5"/>
    <text id="NTC" transform="translate(1144 1969)" fill="#fff" font-size="21" font-family="Roboto-Bold, Roboto" font-weight="700" letter-spacing="0.02em"><tspan x="-21.2" y="0">NTC</tspan></text>
  </g>
</svg>
