<svg xmlns="http://www.w3.org/2000/svg" xmlns:xlink="http://www.w3.org/1999/xlink" width="295" height="137" viewBox="0 0 295 137">
  <defs>
    <clipPath id="clip-path">
      <rect id="Rectángulo_43851" data-name="Rectángulo 43851" width="185.605" height="111.614" fill="none"/>
    </clipPath>
    <clipPath id="clip-path-3">
      <rect id="Rectángulo_43823" data-name="Rectángulo 43823" width="53.513" height="37.018" fill="none"/>
    </clipPath>
    <clipPath id="clip-path-4">
      <path id="Trazado_214072" data-name="Trazado 214072" d="M242.4,36.478a8.17,8.17,0,1,0,8.17-8.17,8.17,8.17,0,0,0-8.17,8.17" transform="translate(-242.401 -28.308)" fill="#3185af"/>
    </clipPath>
    <clipPath id="clip-path-6">
      <path id="Trazado_214084" data-name="Trazado 214084" d="M260.094,122.867l-1.426,1.046s-.513.684-.456.912c.037.148.529-.088.871-.272a.4.4,0,0,1,.528.139l.368.589a2.9,2.9,0,0,0,1.682,1.094.4.4,0,0,0,.351-.075l.661-.529a.4.4,0,0,0,.049-.576l-.633-.712-1.469-1.567a.4.4,0,0,0-.526-.049" transform="translate(-258.208 -122.79)" fill="#eea886"/>
    </clipPath>
    <clipPath id="clip-path-8">
      <path id="Trazado_214096" data-name="Trazado 214096" d="M260.627,101.769a3.9,3.9,0,0,1-.615,2.819,1.639,1.639,0,0,0,1.076,2.769c1.436.154,3.846-1.282,3.794-2.871a9.469,9.469,0,0,1-.769-4.615Z" transform="translate(-259.584 -99.872)" fill="#d59576"/>
    </clipPath>
    <clipPath id="clip-path-9">
      <path id="Trazado_214097" data-name="Trazado 214097" d="M257.66,87.565a1.91,1.91,0,0,0-.419.767c-.336,1.186-1.254,5.03.213,7.224a1.772,1.772,0,0,0,.806.682c1.97.773,4.853-1.561,5.351-3.546.54-2.153,0-5.23-1.512-5.948a3.77,3.77,0,0,0-1.606-.343,3.845,3.845,0,0,0-2.833,1.165" transform="translate(-256.648 -86.4)" fill="none"/>
    </clipPath>
    <clipPath id="clip-path-11">
      <rect id="Rectángulo_43841" data-name="Rectángulo 43841" width="16.085" height="27.955" fill="none"/>
    </clipPath>
    <clipPath id="clip-path-12">
      <path id="Trazado_214122" data-name="Trazado 214122" d="M122.828,87.014a14.843,14.843,0,0,1-.6,1.9,2.2,2.2,0,0,1-1.063.9l.322,1.152a2.851,2.851,0,0,1,.791-.24c.4-.047.557.456,1.028.479s.537-.269.854-.6.2-.658.373-.917.315-.407.272-.661c-.021-.119-.3-.11-.618-.1-.351.01-.74.021-.84-.149-.19-.321.277-.443.15-1.129-.111-.6-.536-.635-.645-.635h-.026" transform="translate(-121.166 -87.013)" fill="#eea886"/>
    </clipPath>
    <clipPath id="clip-path-14">
      <path id="Trazado_214123" data-name="Trazado 214123" d="M33.219,128.115l-.491,1.558.262,1.056.394.809a.768.768,0,0,0,.339-.848l-.146-.569s.971-.506,1.1-1.133a.768.768,0,0,0-.45-.863l-.114-.325Z" transform="translate(-32.728 -127.801)" fill="#eea886"/>
    </clipPath>
    <clipPath id="clip-path-16">
      <path id="Trazado_214128" data-name="Trazado 214128" d="M62.737,54.053h6.255l-.82-6.563-4.307-1.435Z" transform="translate(-62.737 -46.055)" fill="#eea886"/>
    </clipPath>
    <clipPath id="clip-path-17">
      <path id="Trazado_214129" data-name="Trazado 214129" d="M65.842,33.115A4.759,4.759,0,0,0,61.55,38.3c.246,2.617,3.634,7.17,6.251,6.924s3.472-5.2,3.226-7.815a4.76,4.76,0,0,0-4.733-4.314c-.149,0-.3.007-.451.021" transform="translate(-61.528 -33.094)" fill="#eea886"/>
    </clipPath>
  </defs>
  <g id="Grupo_877525" data-name="Grupo 877525" transform="translate(-1020 -2464)">
    <g id="Grupo_876885" data-name="Grupo 876885" transform="translate(-105 -10944)">
      <g id="Grupo_876000" data-name="Grupo 876000" transform="translate(1373.849 13501.084)">
        <g id="Grupo_151688" data-name="Grupo 151688" transform="translate(0 7.463)">
          <path id="Trazado_212295" data-name="Trazado 212295" d="M-11425.02-11468v14.928" transform="translate(11432.482 11467.996)" fill="none" stroke="#f3ab1d" stroke-width="4"/>
          <path id="Trazado_212296" data-name="Trazado 212296" d="M0,0V14.927" transform="translate(14.927 7.463) rotate(90)" fill="none" stroke="#f3ab1d" stroke-width="4"/>
        </g>
        <g id="Grupo_151689" data-name="Grupo 151689" transform="translate(19.406 0)">
          <path id="Trazado_212295-2" data-name="Trazado 212295" d="M-11425.02-11468v14.928" transform="translate(11432.482 11467.996)" fill="none" stroke="#f3ab1d" stroke-width="4"/>
          <path id="Trazado_212296-2" data-name="Trazado 212296" d="M0,0V14.927" transform="translate(14.927 7.463) rotate(90)" fill="none" stroke="#f3ab1d" stroke-width="4"/>
        </g>
        <g id="Grupo_151690" data-name="Grupo 151690" transform="translate(22.64 22.39)">
          <path id="Trazado_212295-3" data-name="Trazado 212295" d="M-11425.02-11468v14.928" transform="translate(11432.482 11467.996)" fill="none" stroke="#f3ab1d" stroke-width="4"/>
          <path id="Trazado_212296-3" data-name="Trazado 212296" d="M0,0V14.927" transform="translate(14.927 7.463) rotate(90)" fill="none" stroke="#f3ab1d" stroke-width="4"/>
        </g>
      </g>
      <rect id="Rectángulo_292160" data-name="Rectángulo 292160" width="85" height="53" transform="translate(1335 13492)" fill="none"/>
    </g>
    <g id="Grupo_876884" data-name="Grupo 876884" transform="translate(-1.373 1996.689)">
      <g id="Grupo_153639" data-name="Grupo 153639" transform="translate(1021.373 467.311)">
        <g id="Grupo_153638" data-name="Grupo 153638" clip-path="url(#clip-path)">
          <g id="Grupo_153606" data-name="Grupo 153606">
            <g id="Grupo_153605" data-name="Grupo 153605" clip-path="url(#clip-path)">
              <path id="Trazado_214066" data-name="Trazado 214066" d="M78.446,204.682c0,.765-17.56,1.385-39.223,1.385S0,205.446,0,204.682,17.56,203.3,39.223,203.3s39.223.62,39.223,1.385" transform="translate(0 -94.452)" fill="#afafaf" opacity="0.35"/>
              <path id="Trazado_214067" data-name="Trazado 214067" d="M264.623,204.682c0,.765-21.165,1.385-47.273,1.385s-47.272-.62-47.272-1.385,21.165-1.385,47.272-1.385,47.273.62,47.273,1.385" transform="translate(-79.019 -94.452)" fill="#afafaf" opacity="0.35"/>
              <path id="Trazado_214068" data-name="Trazado 214068" d="M38.953,116.11a.923.923,0,0,1-.392-1.759l18.4-8.615a.923.923,0,0,1,.511-.079l22.949,3.02L97.947,92.361a.913.913,0,0,1,.787-.233l13.594,2.364,29.193-38.924a.929.929,0,0,1,.337-.277L159.7,46.676a.925.925,0,0,1,.509-.086l9.965,1.173,12.6-15a.921.921,0,0,1,.464-.3l6.492-1.771,10.275-12.088a.923.923,0,1,1,1.406,1.2l-10.46,12.305a.921.921,0,0,1-.46.293L184,34.17,171.268,49.331a.925.925,0,0,1-.814.323l-10.193-1.2-17.4,8.4-29.4,39.2a.915.915,0,0,1-.9.355l-13.7-2.382-17.506,16.3a.931.931,0,0,1-.75.24L57.5,107.522l-18.156,8.5a.912.912,0,0,1-.39.087" transform="translate(-17.669 -8.494)" fill="#2c53a0"/>
              <path id="Trazado_214069" data-name="Trazado 214069" d="M170.133,105.034H79.518A6.136,6.136,0,0,1,73.382,98.9V41.792a6.136,6.136,0,0,1,6.136-6.136h90.615a6.136,6.136,0,0,1,6.136,6.136V98.9a6.136,6.136,0,0,1-6.136,6.136" transform="translate(-34.093 -16.566)" fill="#98dfc6"/>
              <path id="Trazado_214070" data-name="Trazado 214070" d="M187.431,102.09H140.795a3.158,3.158,0,0,1-3.158-3.158V69.542a3.158,3.158,0,0,1,3.158-3.158h46.636a3.158,3.158,0,0,1,3.158,3.158v29.39a3.158,3.158,0,0,1-3.158,3.158" transform="translate(-63.947 -30.842)" fill="#fff"/>
              <g id="Grupo_153604" data-name="Grupo 153604" transform="translate(39.289 29.792)" opacity="0.36">
                <g id="Grupo_153603" data-name="Grupo 153603">
                  <g id="Grupo_153602" data-name="Grupo 153602" clip-path="url(#clip-path-3)">
                    <path id="Trazado_214071" data-name="Trazado 214071" d="M124.978,55.645h-51.6V92.663h51.6a1.918,1.918,0,0,0,1.918-1.918V57.563a1.918,1.918,0,0,0-1.918-1.918" transform="translate(-73.383 -55.645)" fill="#7875d0"/>
                  </g>
                </g>
              </g>
            </g>
          </g>
          <g id="Grupo_153608" data-name="Grupo 153608" transform="translate(129.781 15.156)">
            <g id="Grupo_153607" data-name="Grupo 153607" clip-path="url(#clip-path-4)">
              <rect id="Rectángulo_43825" data-name="Rectángulo 43825" width="16.503" height="16.503" transform="translate(-0.163 16.339) rotate(-89.427)" fill="#3185af"/>
            </g>
          </g>
          <g id="Grupo_153610" data-name="Grupo 153610">
            <g id="Grupo_153609" data-name="Grupo 153609" clip-path="url(#clip-path)">
              <path id="Trazado_214073" data-name="Trazado 214073" d="M255.9,43.329v1.053h-.939V43.357a4.448,4.448,0,0,1-2.342-.752l.518-1.146a3.794,3.794,0,0,0,1.824.667V40.557c-1.044-.254-2.21-.6-2.21-1.946,0-1,.724-1.852,2.21-2.021V35.546h.939v1.025a4.244,4.244,0,0,1,1.909.573l-.47,1.155a3.878,3.878,0,0,0-1.439-.488v1.6c1.044.244,2.19.592,2.19,1.917,0,.977-.714,1.824-2.19,2m-.939-4.155V37.839c-.5.113-.7.385-.7.7,0,.329.282.508.7.639m1.616,2.265c0-.329-.271-.506-.677-.648v1.3c.47-.1.677-.348.677-.649" transform="translate(-117.368 -16.515)" fill="#f9fbfc"/>
              <path id="Trazado_214074" data-name="Trazado 214074" d="M208.7,87.947a10.959,10.959,0,0,0-10.2-10.931h-.029l-.116-.007c-.2-.012-.409-.021-.616-.021a10.961,10.961,0,1,0,0,21.923c.208,0,.413-.009.618-.02l.114-.007.031,0h0a10.959,10.959,0,0,0,10.2-10.932m-10.419,7.705-.031,0c-.126.009-.253.014-.381.016-.044,0-.087,0-.131,0a7.727,7.727,0,1,1,0-15.454c.043,0,.087,0,.131,0q.191,0,.38.016l.033,0a7.724,7.724,0,0,1,0,15.411" transform="translate(-86.778 -35.768)" fill="#d8e0e0"/>
              <path id="Trazado_214075" data-name="Trazado 214075" d="M186.779,87.229A10.962,10.962,0,0,0,197.741,98.19c.256,0,.51-.012.762-.029V94.918c-.251.024-.5.037-.762.037a7.727,7.727,0,0,1,0-15.454c.258,0,.511.013.762.037V76.3c-.252-.018-.505-.029-.762-.029a10.962,10.962,0,0,0-10.962,10.962" transform="translate(-86.778 -35.434)" fill="#e8e8e8"/>
              <path id="Trazado_214076" data-name="Trazado 214076" d="M207.5,78.2h0a1.631,1.631,0,0,0,1.341,1.593,7.726,7.726,0,0,1,0,15.169,1.618,1.618,0,1,0,.591,3.181,10.961,10.961,0,0,0,0-21.531A1.622,1.622,0,0,0,207.5,78.2" transform="translate(-96.404 -35.578)" fill="#f3ab1d"/>
              <path id="Trazado_214077" data-name="Trazado 214077" d="M256.448,82.53a3.835,3.835,0,0,0-2.635,2.156c-1.046,1.961-.262,4.313-1.7,6.469s-1.5,4.051.653,5.032,3.332-.2,4.639-.109,5.331,3.808,7.754,1.655c3.965-3.523-1.132-5.4-1.655-7.492s-.63-7.482-3.833-7.928c-2.505-.349-3.224.218-3.224.218" transform="translate(-116.654 -38.19)" fill="#3b2d7a"/>
              <path id="Trazado_214078" data-name="Trazado 214078" d="M252.611,165.4l-2.658,20.379a.692.692,0,0,1-1.375-.155l2.057-21.9Z" transform="translate(-115.488 -76.067)" fill="#afafaf"/>
              <path id="Trazado_214079" data-name="Trazado 214079" d="M251.052,108.689s-3.057-.2-4.083,4.024S243.32,124,243.32,124l3.649-.228L252.1,111.23Z" transform="translate(-113.047 -50.496)" fill="#cfdb4c"/>
              <path id="Trazado_214080" data-name="Trazado 214080" d="M264.113,148.5H252.242V126.376c0-1.721,3.688-3.117,5.41-3.117h6.842a3.117,3.117,0,0,1,3.117,3.117V145a3.5,3.5,0,0,1-3.5,3.5" transform="translate(-117.192 -57.266)" fill="#afafaf"/>
              <path id="Trazado_214081" data-name="Trazado 214081" d="M264.849,137.289s0,.133.019.369a19.514,19.514,0,0,0,1.274,5.789c1.216,2.965.152,7.3-2.053,7.906a12.21,12.21,0,0,1-4.637.19s1.6,7.64,3.307,20.335H261.5s-8.552-18.283-7.412-23.642a14.137,14.137,0,0,1,3.079-2.471l-2.508-6.385" transform="translate(-118.003 -63.785)" fill="#333"/>
              <path id="Trazado_214082" data-name="Trazado 214082" d="M253.672,108.69h10.019s2.439.175,2.614,3.224-2.788,8.189-2.788,13.852H252.1l.261-7.71a6.023,6.023,0,0,1-1.438-2.875c-.131-1.438,2.091-6.447,2.744-6.491" transform="translate(-116.579 -50.498)" fill="#b9c43d"/>
              <path id="Trazado_214083" data-name="Trazado 214083" d="M246.239,139.585l-.94,6.932a4.155,4.155,0,0,0-2.965,4.219c.228,3.307,4.789,22.008,4.789,22.008h1.026l-.228-22.122,5.587-3.763-.456-6.5Z" transform="translate(-112.584 -64.802)" fill="#333"/>
            </g>
          </g>
          <g id="Grupo_153612" data-name="Grupo 153612" transform="translate(138.244 65.741)">
            <g id="Grupo_153611" data-name="Grupo 153611" clip-path="url(#clip-path-6)">
              <rect id="Rectángulo_43827" data-name="Rectángulo 43827" width="5.938" height="5.649" transform="matrix(0.826, -0.564, 0.564, 0.826, -1.738, 1.151)" fill="#eea886"/>
            </g>
          </g>
          <g id="Grupo_153614" data-name="Grupo 153614">
            <g id="Grupo_153613" data-name="Grupo 153613" clip-path="url(#clip-path)">
              <path id="Trazado_214085" data-name="Trazado 214085" d="M276.687,165.4l2.658,20.379a.692.692,0,0,0,1.375-.155l-2.057-21.9Z" transform="translate(-128.55 -76.067)" fill="#afafaf"/>
              <path id="Trazado_214086" data-name="Trazado 214086" d="M257.692,145.954H244.135a.816.816,0,0,1,0-1.632h13.557a.816.816,0,1,1,0,1.632" transform="translate(-113.047 -67.052)" fill="#636363"/>
              <path id="Trazado_214087" data-name="Trazado 214087" d="M237.5,137.355H222.668a1.389,1.389,0,0,1-1.356-1.086l-2.042-9.146a1.39,1.39,0,0,1,1.356-1.692h14.827a1.389,1.389,0,0,1,1.356,1.087l2.041,9.146a1.389,1.389,0,0,1-1.356,1.692" transform="translate(-101.858 -58.276)" fill="#636363"/>
              <path id="Trazado_214088" data-name="Trazado 214088" d="M236.567,137.355H221.74a1.389,1.389,0,0,1-1.356-1.086l-2.042-9.146a1.39,1.39,0,0,1,1.356-1.692h14.827a1.389,1.389,0,0,1,1.356,1.087l2.041,9.146a1.389,1.389,0,0,1-1.356,1.692" transform="translate(-101.427 -58.276)" fill="#afafaf"/>
              <path id="Trazado_214089" data-name="Trazado 214089" d="M273.692,148.864l2.555,2.555h2.236L289.171,179.4a.694.694,0,0,0,1.307-.465L280.4,148.385h-6.068s-.479.639-.639.479" transform="translate(-127.158 -68.94)" fill="#7875d0"/>
              <path id="Trazado_214090" data-name="Trazado 214090" d="M291.587,148.864l2.555,2.555h2.236L307.066,179.4a.694.694,0,0,0,1.307-.465l-10.079-30.548h-6.068s-.479.639-.639.479" transform="translate(-135.472 -68.94)" fill="#7875d0"/>
              <path id="Trazado_214091" data-name="Trazado 214091" d="M212.269,148.864l-2.555,2.555h-2.236L196.789,179.4a.694.694,0,0,1-1.307-.465l10.079-30.548h6.068s.479.639.639.479" transform="translate(-90.805 -68.94)" fill="#7875d0"/>
              <path id="Trazado_214092" data-name="Trazado 214092" d="M198.35,148.864l-2.555,2.555h-2.236L182.871,179.4a.694.694,0,0,1-1.307-.465l10.079-30.548h6.068s.479.639.639.479" transform="translate(-84.338 -68.94)" fill="#7875d0"/>
              <path id="Trazado_214093" data-name="Trazado 214093" d="M253.418,152.21H190.5a1.863,1.863,0,0,1-1.863-1.863V148.7h66.647v1.65a1.863,1.863,0,0,1-1.863,1.863" transform="translate(-87.64 -69.085)" fill="#5751bb"/>
              <path id="Trazado_214094" data-name="Trazado 214094" d="M270.968,147.861H217.629a1.118,1.118,0,1,1,0-2.236h53.339a1.118,1.118,0,1,1,0,2.236" transform="translate(-100.592 -67.658)" fill="#6e66c9"/>
              <path id="Trazado_214095" data-name="Trazado 214095" d="M245.958,147.861h-60.62a1.118,1.118,0,1,1,0-2.236h60.62a1.118,1.118,0,1,1,0,2.236" transform="translate(-85.589 -67.658)" fill="#6e66c9"/>
            </g>
          </g>
          <g id="Grupo_153616" data-name="Grupo 153616" transform="translate(138.981 53.471)">
            <g id="Grupo_153615" data-name="Grupo 153615" clip-path="url(#clip-path-8)">
              <rect id="Rectángulo_43829" data-name="Rectángulo 43829" width="7.826" height="6.043" transform="translate(-0.696 7.631) rotate(-88.112)" fill="#d59576"/>
            </g>
          </g>
          <g id="Grupo_153618" data-name="Grupo 153618" transform="translate(137.408 46.258)">
            <g id="Grupo_153617" data-name="Grupo 153617" clip-path="url(#clip-path-9)">
              <rect id="Rectángulo_43830" data-name="Rectángulo 43830" width="8.164" height="10.609" transform="translate(-0.661)" fill="#eea886"/>
            </g>
          </g>
          <g id="Grupo_153623" data-name="Grupo 153623">
            <g id="Grupo_153622" data-name="Grupo 153622" clip-path="url(#clip-path)">
              <path id="Trazado_214098" data-name="Trazado 214098" d="M257.276,86.669s-.513,1.59,1.795,2.256,3.076.359,3.076.359a1.869,1.869,0,0,0,.872,1.333s.717-.41.769.462a1.725,1.725,0,0,1-.718,1.743.8.8,0,0,0,.359.872c.512.307,1.487-.821,1.743-2.513s.256-3.333-.923-4.717a3.985,3.985,0,0,0-3.948-1.59c-1.487.256-2.41.615-3.025,1.795" transform="translate(-119.508 -39.401)" fill="#3b2d7a"/>
              <path id="Trazado_214099" data-name="Trazado 214099" d="M272.369,126.043c0-5.663,2.962-10.8,2.788-13.852a3.232,3.232,0,0,0-1.62-2.9l-1.469.24a5.671,5.671,0,0,0-1.025,4.1c.41,2.256,1.435,3.435,1.025,5.127s-2.2,2.871-2.051,3.846a8.35,8.35,0,0,1-.043,3.441Z" transform="translate(-125.431 -50.775)" fill="#98a132"/>
              <path id="Trazado_214100" data-name="Trazado 214100" d="M273.793,108.688a3.735,3.735,0,0,1,3.627,2.893c1,3.076,1.307,8.691.539,9.306s-2.615.692-3.384-1.385a40.936,40.936,0,0,1-1.846-7.768c-.308-2.384.59-2.864,1.064-3.047" transform="translate(-126.682 -50.496)" fill="#cfdb4c"/>
              <path id="Trazado_214101" data-name="Trazado 214101" d="M264.692,128.525a6.869,6.869,0,0,1,1.025-1.948c.385-.154,5.2.872,6.358.256a1.605,1.605,0,0,1,2.461,1.615c0,1.692-3.538,2.692-5.23,2.077s-4.615-2-4.615-2" transform="translate(-122.977 -58.801)" fill="#cfdb4c"/>
              <path id="Trazado_214102" data-name="Trazado 214102" d="M250.054,199.563l-1.538.308a1.634,1.634,0,0,1-.1.922,4.092,4.092,0,0,1-2.2,1.487c-.051.41,1.384.666,2.153.205a4.753,4.753,0,0,0,1.179-.974l-.051.872H250a6.789,6.789,0,0,0,.462-1.179,2.181,2.181,0,0,0-.154-1.077Z" transform="translate(-114.389 -92.718)" fill="#7875d0"/>
              <path id="Trazado_214103" data-name="Trazado 214103" d="M266.717,199.563l-1.538.308a1.629,1.629,0,0,1-.1.922,4.092,4.092,0,0,1-2.2,1.487c-.051.41,1.384.666,2.153.205a4.754,4.754,0,0,0,1.179-.974l-.051.872h.512a6.839,6.839,0,0,0,.462-1.179,2.181,2.181,0,0,0-.154-1.077Z" transform="translate(-122.13 -92.718)" fill="#7875d0"/>
              <path id="Trazado_214104" data-name="Trazado 214104" d="M119.406,89.179H60.033a2,2,0,0,1-2-2V53.032a2,2,0,0,1,2-2h59.373a2,2,0,0,1,2,2V87.179a2,2,0,0,1-2,2" transform="translate(-26.962 -23.71)" fill="#f3e6e3"/>
              <path id="Trazado_214105" data-name="Trazado 214105" d="M119.406,51.033H60.033a2,2,0,0,0-2,2v6.2h63.372v-6.2a2,2,0,0,0-2-2" transform="translate(-26.962 -23.71)" fill="#3185af"/>
              <rect id="Rectángulo_43831" data-name="Rectángulo 43831" width="2.871" height="4.204" transform="translate(70.653 55.932)" fill="#3185af"/>
              <rect id="Rectángulo_43832" data-name="Rectángulo 43832" width="2.871" height="7.742" transform="translate(76.19 52.395)" fill="#5ad1a5"/>
              <rect id="Rectángulo_43833" data-name="Rectángulo 43833" width="2.871" height="12.28" transform="translate(81.727 47.857)" fill="#3185af"/>
              <rect id="Rectángulo_43834" data-name="Rectángulo 43834" width="2.871" height="18.048" transform="translate(87.265 42.089)" fill="#5ad1a5"/>
              <path id="Trazado_214106" data-name="Trazado 214106" d="M74.64,182.3a1.026,1.026,0,1,1-1.025-1.025A1.025,1.025,0,0,1,74.64,182.3" transform="translate(-33.725 -84.219)" fill="#fba60b"/>
              <path id="Trazado_214107" data-name="Trazado 214107" d="M117.543,188.043a1.025,1.025,0,1,1-1.025-1.025,1.025,1.025,0,0,1,1.025,1.025" transform="translate(-53.658 -86.889)" fill="#fba60b"/>
              <path id="Trazado_214108" data-name="Trazado 214108" d="M285.13,74.275A1.026,1.026,0,1,1,284.1,73.25a1.025,1.025,0,0,1,1.025,1.025" transform="translate(-131.519 -34.032)" fill="#fba60b"/>
              <path id="Trazado_214109" data-name="Trazado 214109" d="M309.837,45.929a1.026,1.026,0,1,1-1.025-1.025,1.025,1.025,0,0,1,1.025,1.025" transform="translate(-142.998 -20.863)" fill="#fba60b"/>
              <path id="Trazado_214110" data-name="Trazado 214110" d="M322.478,42.1a1.026,1.026,0,1,1-1.025-1.025,1.025,1.025,0,0,1,1.025,1.025" transform="translate(-148.871 -19.083)" fill="#fba60b"/>
              <path id="Trazado_214111" data-name="Trazado 214111" d="M341.548,18.978a1.846,1.846,0,1,1-1.845-1.846,1.846,1.846,0,0,1,1.845,1.846" transform="translate(-156.969 -7.96)" fill="#fba60b"/>
              <rect id="Rectángulo_43835" data-name="Rectángulo 43835" width="15.381" height="9.596" transform="translate(164.686 54.051)" fill="#3185af"/>
              <path id="Trazado_214112" data-name="Trazado 214112" d="M322.16,96.379H308.412a.817.817,0,1,0,0,1.633H322.16a.817.817,0,1,0,0-1.633" transform="translate(-142.91 -44.778)" fill="#3185af"/>
              <path id="Trazado_214113" data-name="Trazado 214113" d="M305.879,119.069H294.521a.525.525,0,0,1-.525-.525v-7.216H306.4v7.216a.525.525,0,0,1-.525.525" transform="translate(-136.591 -51.723)" fill="#f5be05"/>
              <path id="Trazado_214114" data-name="Trazado 214114" d="M299.6,110.579H294v-1.316h4.91a.7.7,0,0,1,.7.7Z" transform="translate(-136.591 -50.764)" fill="#fba60b"/>
              <rect id="Rectángulo_43836" data-name="Rectángulo 43836" width="2" height="2" transform="translate(56.989 38.013)" fill="#fff"/>
              <rect id="Rectángulo_43837" data-name="Rectángulo 43837" width="2" height="2" transform="translate(67.371 38.013)" fill="#fff"/>
              <rect id="Rectángulo_43838" data-name="Rectángulo 43838" width="2" height="2" transform="translate(77.754 38.013)" fill="#fff"/>
              <rect id="Rectángulo_43839" data-name="Rectángulo 43839" width="2" height="2" transform="translate(88.137 38.013)" fill="#fff"/>
              <rect id="Rectángulo_43840" data-name="Rectángulo 43840" width="31.148" height="0.615" transform="translate(57.988 38.705)" fill="#fff"/>
              <path id="Trazado_214115" data-name="Trazado 214115" d="M140.628,58.43a1.077,1.077,0,1,1-1.077-1.077,1.076,1.076,0,0,1,1.077,1.077" transform="translate(-64.336 -26.646)" fill="#fff"/>
              <path id="Trazado_214116" data-name="Trazado 214116" d="M154.131,58.43a1.077,1.077,0,1,1-1.077-1.077,1.076,1.076,0,0,1,1.077,1.077" transform="translate(-70.609 -26.646)" fill="#d3d5ff"/>
              <path id="Trazado_214117" data-name="Trazado 214117" d="M167.634,58.43a1.077,1.077,0,1,1-1.077-1.077,1.076,1.076,0,0,1,1.077,1.077" transform="translate(-76.883 -26.646)" fill="#fba60b"/>
              <g id="Grupo_153621" data-name="Grupo 153621" transform="translate(39.289 19.09)" opacity="0.33" style="mix-blend-mode: multiply;isolation: isolate">
                <g id="Grupo_153620" data-name="Grupo 153620">
                  <g id="Grupo_153619" data-name="Grupo 153619" clip-path="url(#clip-path-11)">
                    <path id="Trazado_214118" data-name="Trazado 214118" d="M73.382,41.792v21.82A26.581,26.581,0,0,0,89.231,35.656H79.518a6.136,6.136,0,0,0-6.136,6.136" transform="translate(-73.382 -35.656)" fill="#7875d0"/>
                  </g>
                </g>
              </g>
              <path id="Trazado_214119" data-name="Trazado 214119" d="M56.723,22.606A22.606,22.606,0,1,1,34.118,0,22.606,22.606,0,0,1,56.723,22.606" transform="translate(-5.349)" fill="#f3ab1d"/>
              <path id="Trazado_214120" data-name="Trazado 214120" d="M45.308,22.606l13-18.487A22.6,22.6,0,0,0,35.6,2.188Z" transform="translate(-16.539)" fill="#5ad1a5"/>
              <path id="Trazado_214121" data-name="Trazado 214121" d="M34.118,0A22.606,22.606,0,0,0,11.512,22.606H34.118Z" transform="translate(-5.349)" fill="#3185af"/>
            </g>
          </g>
          <g id="Grupo_153625" data-name="Grupo 153625" transform="translate(64.872 46.587)">
            <g id="Grupo_153624" data-name="Grupo 153624" clip-path="url(#clip-path-12)">
              <rect id="Rectángulo_43843" data-name="Rectángulo 43843" width="5.372" height="5.536" transform="translate(-1.909 1.213) rotate(-32.428)" fill="#eea886"/>
            </g>
          </g>
          <g id="Grupo_153627" data-name="Grupo 153627">
            <g id="Grupo_153626" data-name="Grupo 153626" clip-path="url(#clip-path)">
              <rect id="Rectángulo_43844" data-name="Rectángulo 43844" width="12.781" height="8.587" transform="translate(11.33 72.629) rotate(-19.077)" fill="#fff"/>
            </g>
          </g>
          <g id="Grupo_153629" data-name="Grupo 153629" transform="translate(17.522 68.424)">
            <g id="Grupo_153628" data-name="Grupo 153628" clip-path="url(#clip-path-14)">
              <rect id="Rectángulo_43846" data-name="Rectángulo 43846" width="2.259" height="3.838" transform="translate(-0.189 0.01) rotate(-2.909)" fill="#eea886"/>
            </g>
          </g>
          <g id="Grupo_153631" data-name="Grupo 153631">
            <g id="Grupo_153630" data-name="Grupo 153630" clip-path="url(#clip-path)">
              <path id="Trazado_214124" data-name="Trazado 214124" d="M91.35,198.128s1.307,1.615,1.538,1.769,3.845,1.923,3.614,2.076-7.383-.615-7.383-.615l.308-2.076-.077-1.077Z" transform="translate(-41.405 -92.051)" fill="#0d1b4a"/>
              <path id="Trazado_214125" data-name="Trazado 214125" d="M41.936,198.416s1.307,1.615,1.538,1.769,3.845,1.923,3.614,2.076-7.383-.615-7.383-.615l.308-2.076-.077-1.077Z" transform="translate(-18.448 -92.185)" fill="#0d1b4a"/>
              <path id="Trazado_214126" data-name="Trazado 214126" d="M73.975,108.11s2.051,15.176,2.871,22.354S78.9,156.305,78.9,156.305s-1.025,1.026-3.486.411c0,0-5.333-22.355-6.153-25.431s-8.819-21.944-8.819-21.944Z" transform="translate(-28.08 -50.228)" fill="#4e5379"/>
              <path id="Trazado_214127" data-name="Trazado 214127" d="M43.856,111.8s.205,13.331.82,19.073c0,0-4.717,23.38-4.922,25.431a4.194,4.194,0,0,0,3.692.41s7.383-20.919,8.819-25.841,4.922-22.354,4.922-22.354-7.178-3.281-12.1-.82c0,0-1.435.82-1.23,4.1" transform="translate(-18.47 -49.612)" fill="#313657"/>
            </g>
          </g>
          <g id="Grupo_153633" data-name="Grupo 153633" transform="translate(33.589 24.658)">
            <g id="Grupo_153632" data-name="Grupo 153632" clip-path="url(#clip-path-16)">
              <rect id="Rectángulo_43848" data-name="Rectángulo 43848" width="9.213" height="7.913" transform="translate(-1.775 7.583) rotate(-76.827)" fill="#eea886"/>
            </g>
          </g>
          <g id="Grupo_153635" data-name="Grupo 153635" transform="translate(32.942 17.718)">
            <g id="Grupo_153634" data-name="Grupo 153634" clip-path="url(#clip-path-17)">
              <rect id="Rectángulo_43849" data-name="Rectángulo 43849" width="15.583" height="14.563" transform="translate(-5.301 9.727) rotate(-62.443)" fill="#eea886"/>
            </g>
          </g>
          <g id="Grupo_153637" data-name="Grupo 153637">
            <g id="Grupo_153636" data-name="Grupo 153636" clip-path="url(#clip-path)">
              <path id="Trazado_214130" data-name="Trazado 214130" d="M60.271,33.616s-.293-2.311,1.335-3.092,5.924.261,7.486-1.692,3.581,1.107,2.6,2.669-1.42,3.333-6.315,2.539c-2.409-.39-2.929,1.237-2.8,2.018s.977,2.083.977,2.409-.521.326-.716.065-.456-1.693-1.367-1.5.195,2.149.977,2.409a.742.742,0,0,1,.065.716c-.2.326-3.255-2.018-3.32-4.231s1.074-2.311,1.074-2.311" transform="translate(-27.502 -13.102)" fill="#0d1b4a"/>
              <path id="Trazado_214131" data-name="Trazado 214131" d="M61.335,58.141l-2,.923-4-1.231-1.154,1.385s-7.768,2.923-7.922,3.692,3.846,22.919,3.846,22.919V87.52H67.8l.923-24.764L62.1,59.525Z" transform="translate(-21.491 -26.869)" fill="#fff"/>
              <path id="Trazado_214132" data-name="Trazado 214132" d="M53.386,60.419s2.384,24.149.846,32.455c0,0-5.23.769-9.075-1.538,0,0,.462-14,.462-15.689S44.542,63.8,44.542,63.8s2.615-1.846,8.844-3.384" transform="translate(-20.694 -28.071)" fill="#0d1b4a"/>
              <path id="Trazado_214133" data-name="Trazado 214133" d="M75.857,60.994l.615,14.766-.154,17.074s4,.307,6.306-1.385l.462-17.535.769-9.537s-4.615-2.769-8-3.384" transform="translate(-35.243 -28.338)" fill="#0d1b4a"/>
              <path id="Trazado_214134" data-name="Trazado 214134" d="M65.968,45.642a4.871,4.871,0,0,1,.872,1.692c.359,1.128,1.179-.462,2.82-.872s2.871.359,2.82,1.282-1.249,3.358-3.034,3.5A3.343,3.343,0,0,1,66.07,48.82a9.131,9.131,0,0,0-.666-2.769c-.051-.615.564-.41.564-.41" transform="translate(-30.386 -21.19)" fill="#0d1b4a"/>
              <path id="Trazado_214135" data-name="Trazado 214135" d="M69.963,64.257,71.3,80.51l-1.282,1.9-1.436-1.9.667-16.355Z" transform="translate(-31.862 -29.806)" fill="#fecd4d"/>
              <path id="Trazado_214136" data-name="Trazado 214136" d="M39.365,66.614s-1.846,1.23-2.871,4.922S32.8,85.585,33.52,87.123s2.666,2.358,4.2-.616a87.731,87.731,0,0,0,5.23-14.561c.718-3.384-2.358-6.152-3.589-5.332" transform="translate(-15.517 -30.881)" fill="#0d1b4a"/>
              <path id="Trazado_214137" data-name="Trazado 214137" d="M86.7,66.332S88.642,67.405,89.97,71s4.842,13.695,4.254,15.287-2.462,2.571-4.241-.266a87.792,87.792,0,0,1-6.417-14.078c-1-3.313,1.841-6.327,3.135-5.611" transform="translate(-38.728 -30.769)" fill="#0d1b4a"/>
              <path id="Trazado_214138" data-name="Trazado 214138" d="M32.834,126.406l.02,1.2,1.712-.11.252-1.2Z" transform="translate(-15.255 -58.675)" fill="#fff"/>
              <path id="Trazado_214139" data-name="Trazado 214139" d="M32.356,101.992s-.786,9.368-.146,12.983l2.246-.11s3.788-12.029,1.076-13.8c-1.833-1.2-2.831-.17-3.175.923" transform="translate(-14.848 -46.707)" fill="#0d1b4a"/>
              <path id="Trazado_214140" data-name="Trazado 214140" d="M119.777,91.937l1-.327.449,1.484-.909.569Z" transform="translate(-55.649 -42.562)" fill="#fff"/>
              <path id="Trazado_214141" data-name="Trazado 214141" d="M96.887,95.835s8.574-3.856,12.2-4.454l.643,2.155s-10.085,7.572-12.654,5.6c-1.743-1.329-1.1-2.613-.185-3.3" transform="translate(-44.59 -42.456)" fill="#0d1b4a"/>
              <path id="Trazado_214142" data-name="Trazado 214142" d="M121.952,16.659H103.136a1.051,1.051,0,0,1-1.052-1.051V4.584a1.051,1.051,0,0,1,1.052-1.051h18.817A1.051,1.051,0,0,1,123,4.584V15.608a1.051,1.051,0,0,1-1.051,1.051" transform="translate(-47.429 -1.641)" fill="#b5c500"/>
              <path id="Trazado_214143" data-name="Trazado 214143" d="M121.878,8.457H105.983a1.026,1.026,0,0,1,0-2.051h15.894a1.026,1.026,0,0,1,0,2.051" transform="translate(-48.764 -2.976)" fill="#fff"/>
              <path id="Trazado_214144" data-name="Trazado 214144" d="M199.863,24.985a5.845,5.845,0,1,0,5.844,5.845,5.845,5.845,0,0,0-5.844-5.845m0,8.819a2.974,2.974,0,1,1,2.973-2.974,2.973,2.973,0,0,1-2.973,2.974" transform="translate(-90.141 -11.608)" fill="#3185af"/>
              <path id="Trazado_214145" data-name="Trazado 214145" d="M328.051,164.992a3.794,3.794,0,1,0,3.794,3.794,3.794,3.794,0,0,0-3.794-3.794m0,5.724a1.93,1.93,0,1,1,1.931-1.93,1.93,1.93,0,0,1-1.931,1.93" transform="translate(-150.651 -76.656)" fill="#fff"/>
              <path id="Trazado_214146" data-name="Trazado 214146" d="M109.628,160.2a2.563,2.563,0,1,0,2.563,2.564,2.563,2.563,0,0,0-2.563-2.564m0,3.868a1.3,1.3,0,1,1,1.3-1.3,1.3,1.3,0,0,1-1.3,1.3" transform="translate(-49.743 -74.431)" fill="#9f321d"/>
            </g>
          </g>
        </g>
      </g>
      <rect id="Rectángulo_43852" data-name="Rectángulo 43852" width="190" height="106.905" transform="translate(1021.373 472.019)" fill="none"/>
    </g>
  </g>
</svg>
