<svg xmlns="http://www.w3.org/2000/svg" width="166" height="125" viewBox="0 0 166 125">
  <g id="Grupo_876944" data-name="Grupo 876944" transform="translate(-454 -3226)">
    <g id="Grupo_876231" data-name="Grupo 876231" transform="translate(-66.403 -4536.061)">
      <rect id="Rectángulo_291466" data-name="Rectángulo 291466" width="166" height="90" transform="translate(520.404 7782.06)" fill="none"/>
      <g id="Grupo_874624" data-name="Grupo 874624" transform="translate(520.404 7789.614)">
        <g id="Grupo_874620" data-name="Grupo 874620" transform="translate(33.466 33.466) rotate(180)">
          <ellipse id="Elipse_4713" data-name="Elipse 4713" cx="2.5" cy="3" rx="2.5" ry="3" transform="translate(0.466 0.021)" fill="#f3ab1d"/>
          <ellipse id="Elipse_4717" data-name="Elipse 4717" cx="2.5" cy="3" rx="2.5" ry="3" transform="translate(0.466 14.021)" fill="#f3ab1d"/>
          <circle id="Elipse_4719" data-name="Elipse 4719" cx="2.5" cy="2.5" r="2.5" transform="translate(0.466 28.021)" fill="#f3ab1d"/>
          <circle id="Elipse_4715" data-name="Elipse 4715" cx="3" cy="3" r="3" transform="translate(14.466 0.021)" fill="#f3ab1d"/>
          <circle id="Elipse_4720" data-name="Elipse 4720" cx="3" cy="3" r="3" transform="translate(27.466 0.021)" fill="#f3ab1d"/>
          <circle id="Elipse_4716" data-name="Elipse 4716" cx="3" cy="3" r="3" transform="translate(14.466 14.021)" fill="#f3ab1d"/>
          <circle id="Elipse_4721" data-name="Elipse 4721" cx="3" cy="3" r="3" transform="translate(27.466 14.021)" fill="#f3ab1d"/>
          <ellipse id="Elipse_4718" data-name="Elipse 4718" cx="3" cy="2.5" rx="3" ry="2.5" transform="translate(14.466 28.021)" fill="#f3ab1d"/>
          <ellipse id="Elipse_4722" data-name="Elipse 4722" cx="3" cy="2.5" rx="3" ry="2.5" transform="translate(27.466 28.021)" fill="#f3ab1d"/>
        </g>
        <g id="Grupo_874621" data-name="Grupo 874621" transform="translate(33.466 76.776) rotate(180)">
          <ellipse id="Elipse_4713-2" data-name="Elipse 4713" cx="2.5" cy="3" rx="2.5" ry="3" transform="translate(0.466 0.329)" fill="#f3ab1d"/>
          <ellipse id="Elipse_4717-2" data-name="Elipse 4717" cx="2.5" cy="3" rx="2.5" ry="3" transform="translate(0.466 14.329)" fill="#f3ab1d"/>
          <ellipse id="Elipse_4719-2" data-name="Elipse 4719" cx="2.5" cy="3" rx="2.5" ry="3" transform="translate(0.466 28.329)" fill="#f3ab1d"/>
          <circle id="Elipse_4715-2" data-name="Elipse 4715" cx="3" cy="3" r="3" transform="translate(14.466 0.329)" fill="#f3ab1d"/>
          <circle id="Elipse_4720-2" data-name="Elipse 4720" cx="3" cy="3" r="3" transform="translate(27.466 0.329)" fill="#f3ab1d"/>
          <circle id="Elipse_4716-2" data-name="Elipse 4716" cx="3" cy="3" r="3" transform="translate(14.466 14.329)" fill="#f3ab1d"/>
          <circle id="Elipse_4721-2" data-name="Elipse 4721" cx="3" cy="3" r="3" transform="translate(27.466 14.329)" fill="#f3ab1d"/>
          <circle id="Elipse_4718-2" data-name="Elipse 4718" cx="3" cy="3" r="3" transform="translate(14.466 28.329)" fill="#f3ab1d"/>
          <circle id="Elipse_4722-2" data-name="Elipse 4722" cx="3" cy="3" r="3" transform="translate(27.466 28.329)" fill="#f3ab1d"/>
        </g>
      </g>
      <g id="Grupo_874623" data-name="Grupo 874623" transform="translate(542.059 7762.052)">
        <circle id="Elipse_4723" data-name="Elipse 4723" cx="62.5" cy="62.5" r="62.5" transform="translate(0.345 0.008)" fill="#fff"/>
        <path id="Trazado_596604" data-name="Trazado 596604" d="M55.613,0A55.613,55.613,0,1,1,0,55.613,55.613,55.613,0,0,1,55.613,0Z" transform="translate(6.434 6.963)" fill="#d9e9f1" opacity="0.7"/>
      </g>
      <g id="Grupo_874622" data-name="Grupo 874622" transform="translate(656.019 7842.145)">
        <g id="Grupo_151688" data-name="Grupo 151688" transform="translate(0 5.921)">
          <path id="Trazado_212295" data-name="Trazado 212295" d="M-11425.02-11468v11.842" transform="translate(11430.939 11467.996)" fill="none" stroke="#26779f" stroke-width="4"/>
          <path id="Trazado_212296" data-name="Trazado 212296" d="M0,0V11.841" transform="translate(11.841 5.921) rotate(90)" fill="none" stroke="#26779f" stroke-width="4"/>
        </g>
        <g id="Grupo_151689" data-name="Grupo 151689" transform="translate(15.394 0)">
          <path id="Trazado_212295-2" data-name="Trazado 212295" d="M-11425.02-11468v11.842" transform="translate(11430.939 11467.996)" fill="none" stroke="#26779f" stroke-width="4"/>
          <path id="Trazado_212296-2" data-name="Trazado 212296" d="M0,0V11.841" transform="translate(11.841 5.921) rotate(90)" fill="none" stroke="#26779f" stroke-width="4"/>
        </g>
        <g id="Grupo_151690" data-name="Grupo 151690" transform="translate(17.959 17.762)">
          <path id="Trazado_212295-3" data-name="Trazado 212295" d="M-11425.02-11468v11.842" transform="translate(11430.939 11467.996)" fill="none" stroke="#26779f" stroke-width="4"/>
          <path id="Trazado_212296-3" data-name="Trazado 212296" d="M0,0V11.841" transform="translate(11.841 5.921) rotate(90)" fill="none" stroke="#26779f" stroke-width="4"/>
        </g>
      </g>
    </g>
    <g id="layer1" transform="translate(500.24 2970.108)">
      <path id="path17032" d="M19.991,281.655a19.461,19.461,0,1,0,19.461,19.461A1.217,1.217,0,0,0,38.24,299.9H21.2V282.867a1.217,1.217,0,0,0-1.212-1.212Z" transform="translate(0 3.812)" fill="#ffbc42"/>
      <path id="path17036" d="M6.651,280.6a1.217,1.217,0,0,0-1.1,1.212v18.249a1.217,1.217,0,0,0,1.221,1.222H25.025a1.217,1.217,0,0,0,1.212-1.221A19.476,19.476,0,0,0,6.777,280.6a1.2,1.2,0,0,0-.126,0Z" transform="translate(18.082 0)" fill="#5ad1a5"/>
      <path id="path9804" d="M4.635,287.471A1.217,1.217,0,0,0,3.44,288.7v17.036a1.217,1.217,0,1,0,2.434,0V288.7a1.216,1.216,0,0,0-1.239-1.23Z" transform="translate(10.471 24.738)" fill="#3185af"/>
      <path id="path9806" d="M8.625,282.182a1.217,1.217,0,1,0,0,2.434h25.55v3.655a1.217,1.217,0,0,0,2.434,0V283.4a1.217,1.217,0,0,0-1.221-1.221Z" transform="translate(24.747 5.708)" fill="#3185af"/>
      <g id="Grupo_876886" data-name="Grupo 876886" transform="translate(2.904 324.642)">
        <path id="path9808" d="M3.334,292.766a1.217,1.217,0,0,0,0,2.434H17.927a1.217,1.217,0,0,0,0-2.434Z" transform="translate(2.805 -280.852)" fill="#33658a"/>
        <path id="path9810" d="M2.318,296.258H14.487a1.217,1.217,0,1,0,0-2.434H2.255A1.217,1.217,0,1,0,2.318,296.258Z" transform="translate(-1.046 -277.043)" fill="#33658a"/>
        <path id="path9812" d="M2.318,297.317H21.779a1.217,1.217,0,0,0,0-2.434H2.255A1.218,1.218,0,1,0,2.318,297.317Z" transform="translate(-1.046 -273.233)" fill="#33658a"/>
        <path id="path9814" d="M6.019,296.258H8.452a1.217,1.217,0,1,0,0-2.434H5.96a1.217,1.217,0,1,0,.058,2.434Z" transform="translate(12.28 -277.043)" fill="#33658a"/>
        <path id="path9816" d="M3.906,298.375h12.16a1.217,1.217,0,0,0,0-2.434H3.843A1.218,1.218,0,1,0,3.906,298.375Z" transform="translate(4.667 -269.426)" fill="#33658a"/>
        <path id="path9818" d="M2.318,298.375H4.752a1.217,1.217,0,0,0,0-2.434h-2.5A1.218,1.218,0,1,0,2.318,298.375Z" transform="translate(-1.046 -269.426)" fill="#33658a"/>
        <path id="path9820" d="M37.5,290.175l-9.268,6.951-9.726-2.434-10.2,7.642,1.464,1.949,9.268-6.951,9.735,2.434,10.193-7.652Z" transform="translate(25.079 -290.175)" fill="#33658a"/>
      </g>
      <path id="path17058" d="M8.894,294.354a1.217,1.217,0,0,0-1.221,1.212v7.3h7.3v-7.3a1.217,1.217,0,0,0-1.221-1.212Z" transform="translate(25.699 49.503)" fill="#33b9ef"/>
      <path id="path17062" d="M11,293.3a1.217,1.217,0,0,0-1.212,1.221v12.16h7.3v-12.16A1.217,1.217,0,0,0,15.87,293.3Z" transform="translate(33.317 45.697)" fill="#33b9ef"/>
      <path id="path17066" d="M13.119,293.825a1.217,1.217,0,0,0-1.212,1.212v9.735H19.2v-9.735a1.217,1.217,0,0,0-1.212-1.212Z" transform="translate(40.935 47.6)" fill="#33b9ef"/>
      <path id="path17070" d="M15.244,292.237a1.217,1.217,0,0,0-1.221,1.221v17.027h7.3V293.458a1.217,1.217,0,0,0-1.212-1.221Z" transform="translate(48.546 41.886)" fill="#33b9ef"/>
      <path id="path17074" d="M11.328,292.237a3.651,3.651,0,1,0,3.646,3.655A3.678,3.678,0,0,0,11.328,292.237Z" transform="translate(25.699 41.886)" fill="#ffbc42"/>
      <path id="path17078" d="M13.436,290.649a3.651,3.651,0,1,0,3.655,3.655A3.67,3.67,0,0,0,13.436,290.649Z" transform="translate(33.317 36.172)" fill="#727997"/>
      <path id="path17082" d="M15.553,291.178a3.651,3.651,0,1,0,3.646,3.655A3.67,3.67,0,0,0,15.553,291.178Z" transform="translate(40.935 38.076)" fill="#ffbc42"/>
      <path id="path17086" d="M17.677,289.593a3.646,3.646,0,1,0,3.646,3.646A3.67,3.67,0,0,0,17.677,289.593Z" transform="translate(48.546 32.373)" fill="#727997"/>
      <path id="path9838" d="M8.136,298.375H49.5a1.217,1.217,0,0,0,0-2.434H8.078A1.217,1.217,0,1,0,8.136,298.375Z" transform="translate(22.802 55.216)" fill="#33658a"/>
      <path id="path9884" d="M13.389,284.829a1.217,1.217,0,1,0,0,2.434H27.982a1.217,1.217,0,1,0,0-2.434Z" transform="translate(41.887 15.232)" fill="#33658a"/>
      <path id="path9886" d="M12.373,288.321h12.16a1.217,1.217,0,0,0,0-2.434H12.31A1.218,1.218,0,1,0,12.373,288.321Z" transform="translate(38.035 19.041)" fill="#33658a"/>
      <path id="path9888" d="M12.373,289.379H31.834a1.217,1.217,0,0,0,0-2.434H12.31A1.218,1.218,0,1,0,12.373,289.379Z" transform="translate(38.035 22.848)" fill="#33658a"/>
      <path id="path9890" d="M16.074,288.321h2.434a1.217,1.217,0,0,0,0-2.434H16.015a1.217,1.217,0,1,0,.058,2.434Z" transform="translate(51.362 19.041)" fill="#33658a"/>
      <path id="path9892" d="M13.956,290.438H26.125a1.217,1.217,0,1,0,0-2.434H13.9A1.217,1.217,0,1,0,13.956,290.438Z" transform="translate(43.744 26.658)" fill="#33658a"/>
      <path id="path9894" d="M12.373,290.438h2.434a1.217,1.217,0,1,0,0-2.434h-2.5A1.217,1.217,0,1,0,12.373,290.438Z" transform="translate(38.035 26.658)" fill="#33658a"/>
    </g>
  </g>
</svg>
