<svg xmlns="http://www.w3.org/2000/svg" xmlns:xlink="http://www.w3.org/1999/xlink" width="503.114" height="231.155" viewBox="0 0 503.114 231.155">
  <defs>
    <clipPath id="clip-path">
      <rect id="Rectángulo_292979" data-name="Rectángulo 292979" width="256" height="215.148" fill="none"/>
    </clipPath>
  </defs>
  <g id="Grupo_877527" data-name="Grupo 877527" transform="translate(-811.887 -5094.344)">
    <rect id="BG" width="503.114" height="231.155" transform="translate(1315 5325.499) rotate(180)" fill="#f2f5d1"/>
    <g id="Grupo_876942" data-name="Grupo 876942" transform="translate(1000 5103.544)">
      <g id="Grupo_876941" data-name="Grupo 876941" transform="translate(0 -0.005)" clip-path="url(#clip-path)">
        <path id="Trazado_600926" data-name="Trazado 600926" d="M55.616,262.126C35.662,257.075,16.4,245.751,6.353,227.784s-8.494-43.048,6.908-56.7C22.712,162.7,35.8,159.453,45.5,151.36c19-15.862,20.594-46.121,39.565-62.022,16.01-13.42,39.2-12.531,60.03-10.933,15.332,1.176,31.02,2.441,45.043,8.749s26.289,18.772,27.972,34.056c1.129,10.255-2.522,20.655-.954,30.853,2.161,14.058,13.5,24.562,23.141,35.02s18.664,24.311,14.782,37.995c-3.406,12-15.49,19.164-26.915,24.179a237.655,237.655,0,0,1-67.787,18.35c-21.83,2.554-41.982-.934-63.528-1.083-13.84-.1-27.769-.989-41.23-4.4" transform="translate(0 -66.999)" fill="#e3e7ba"/>
        <path id="Trazado_600927" data-name="Trazado 600927" d="M330.163,352.476H198.693V474.285H395.569V352.476Zm-65.406.659h64.748v39.725H264.757Zm64.748,80.109H264.757V393.518h64.748ZM199.351,353.135H264.1v39.725H199.351Zm0,40.383H264.1v39.725H199.351ZM264.1,473.626H199.351V433.9H264.1Zm65.406,0H264.757V433.9h64.748Zm65.406,0H330.163V433.9h64.747Zm0-40.383H330.163V393.518h64.747Zm-64.747-80.109h64.747v39.725H330.163Z" transform="translate(-171.717 -304.621)" fill="#dadee7"/>
        <path id="Trazado_600928" data-name="Trazado 600928" d="M332.59,431.532a203.463,203.463,0,0,1-45.845,0,5.237,5.237,0,0,1-4.638-4.925q-.98-18.24-.98-36.481t.98-36.481a5.237,5.237,0,0,1,4.638-4.925,203.463,203.463,0,0,1,45.845,0,5.237,5.237,0,0,1,4.638,4.925q.98,18.24.98,36.481t-.98,36.481a5.237,5.237,0,0,1-4.638,4.925" transform="translate(-242.96 -300.256)" fill="#252f49"/>
        <path id="Trazado_600929" data-name="Trazado 600929" d="M308.005,435.435a203.462,203.462,0,0,1-45.845,0,5.237,5.237,0,0,1-4.638-4.925q-.98-18.24-.98-36.481t.98-36.481a5.237,5.237,0,0,1,4.638-4.925,203.457,203.457,0,0,1,45.845,0,5.237,5.237,0,0,1,4.638,4.925q.98,18.241.98,36.481t-.98,36.481a5.237,5.237,0,0,1-4.638,4.925" transform="translate(-221.713 -303.629)" fill="#363e62"/>
        <path id="Trazado_600930" data-name="Trazado 600930" d="M339.926,433.517q-9.5.378-19.005.378t-19.005-.378a3.543,3.543,0,0,1-3.371-3.086,63.631,63.631,0,0,1,0-16.443,3.543,3.543,0,0,1,3.371-3.086q9.5-.378,19.005-.378t19.005.378a3.543,3.543,0,0,1,3.371,3.086,63.641,63.641,0,0,1,0,16.443,3.543,3.543,0,0,1-3.371,3.086" transform="translate(-257.551 -354.788)" fill="#5c95c4"/>
        <path id="Trazado_600931" data-name="Trazado 600931" d="M319.968,433.093c-6.308,0-12.7-.127-19.011-.378a3.693,3.693,0,0,1-3.514-3.216,63.792,63.792,0,0,1,0-16.482,3.693,3.693,0,0,1,3.514-3.216c6.308-.251,12.7-.378,19.011-.378s12.7.127,19.011.378a3.693,3.693,0,0,1,3.514,3.216,63.786,63.786,0,0,1,0,16.482,3.693,3.693,0,0,1-3.514,3.216c-6.307.251-12.7.378-19.011.378m0-23.371c-6.3,0-12.7.127-19,.378a3.394,3.394,0,0,0-3.229,2.956,63.48,63.48,0,0,0,0,16.4,3.394,3.394,0,0,0,3.229,2.956c6.3.251,12.7.378,19,.378s12.7-.127,19-.378a3.393,3.393,0,0,0,3.229-2.956,63.5,63.5,0,0,0,0-16.4,3.393,3.393,0,0,0-3.229-2.956c-6.3-.251-12.7-.378-19-.378" transform="translate(-256.599 -353.836)" fill="#3e80ad"/>
        <path id="Trazado_600932" data-name="Trazado 600932" d="M320.138,634.5H313.5a2.079,2.079,0,0,1-2.079-2.079v-6.639a2.079,2.079,0,0,1,2.079-2.079h6.639a2.079,2.079,0,0,1,2.079,2.079v6.639a2.079,2.079,0,0,1-2.079,2.079" transform="translate(-269.14 -539.027)" fill="#fff"/>
        <path id="Trazado_600933" data-name="Trazado 600933" d="M432.017,634.5h-6.639a2.079,2.079,0,0,1-2.079-2.079v-6.639a2.079,2.079,0,0,1,2.079-2.079h6.639a2.079,2.079,0,0,1,2.079,2.079v6.639a2.079,2.079,0,0,1-2.079,2.079" transform="translate(-365.829 -539.027)" fill="#fff"/>
        <path id="Trazado_600934" data-name="Trazado 600934" d="M543.9,634.5h-6.639a2.079,2.079,0,0,1-2.079-2.079v-6.639a2.079,2.079,0,0,1,2.079-2.079H543.9a2.079,2.079,0,0,1,2.079,2.079v6.639A2.079,2.079,0,0,1,543.9,634.5" transform="translate(-462.519 -539.027)" fill="#fff"/>
        <path id="Trazado_600935" data-name="Trazado 600935" d="M320.138,747.122H313.5a2.079,2.079,0,0,1-2.079-2.079V738.4a2.079,2.079,0,0,1,2.079-2.079h6.639a2.079,2.079,0,0,1,2.079,2.079v6.639a2.079,2.079,0,0,1-2.079,2.079" transform="translate(-269.14 -636.356)" fill="#fff"/>
        <path id="Trazado_600936" data-name="Trazado 600936" d="M432.017,747.122h-6.639a2.079,2.079,0,0,1-2.079-2.079V738.4a2.079,2.079,0,0,1,2.079-2.079h6.639A2.079,2.079,0,0,1,434.1,738.4v6.639a2.079,2.079,0,0,1-2.079,2.079" transform="translate(-365.829 -636.356)" fill="#fff"/>
        <path id="Trazado_600937" data-name="Trazado 600937" d="M543.9,747.122h-6.639a2.079,2.079,0,0,1-2.079-2.079V738.4a2.079,2.079,0,0,1,2.079-2.079H543.9a2.079,2.079,0,0,1,2.079,2.079v6.639a2.079,2.079,0,0,1-2.079,2.079" transform="translate(-462.519 -636.356)" fill="#fff"/>
        <path id="Trazado_600938" data-name="Trazado 600938" d="M320.138,859.743H313.5a2.079,2.079,0,0,1-2.079-2.079v-6.639a2.079,2.079,0,0,1,2.079-2.079h6.639a2.079,2.079,0,0,1,2.079,2.079v6.639a2.079,2.079,0,0,1-2.079,2.079" transform="translate(-269.14 -733.687)" fill="#fff"/>
        <path id="Trazado_600939" data-name="Trazado 600939" d="M447.206,859.743H425.378a2.079,2.079,0,0,1-2.079-2.079v-6.639a2.079,2.079,0,0,1,2.079-2.079h21.828a2.079,2.079,0,0,1,2.079,2.079v6.639a2.079,2.079,0,0,1-2.079,2.079" transform="translate(-365.829 -733.687)" fill="#bed5e7"/>
        <path id="Trazado_600940" data-name="Trazado 600940" d="M1235.89,1481.238c0,3.105-11.619,5.622-25.952,5.622s-25.952-2.517-25.952-5.622,11.619-5.622,25.952-5.622,25.952,2.517,25.952,5.622" transform="translate(-1023.24 -1275.277)" fill="#ced394"/>
        <path id="Trazado_600941" data-name="Trazado 600941" d="M440.143,1290.135c0,5.385-39.637,9.75-88.533,9.75s-88.533-4.365-88.533-9.75,39.637-9.75,88.533-9.75,88.533,4.365,88.533,9.75" transform="translate(-227.361 -1106.551)" fill="#ced394"/>
        <path id="Trazado_600942" data-name="Trazado 600942" d="M553.028,928.377c0,.483-.006.966-.017,1.447H419.424c-.011-.48-.017-.964-.017-1.447a66.81,66.81,0,0,1,133.621,0" transform="translate(-362.466 -744.597)" fill="#fff"/>
        <path id="Trazado_600943" data-name="Trazado 600943" d="M704.43,1114.309H625.874a39.278,39.278,0,0,1,78.556,0" transform="translate(-540.902 -929.078)" fill="#bed5e7"/>
        <path id="Trazado_600944" data-name="Trazado 600944" d="M1245.438,1120.608h-30.545a45.793,45.793,0,0,0-6.16-23.011l26.457-15.276a76.436,76.436,0,0,1,10.248,38.288" transform="translate(-1044.627 -935.377)" fill="#3a4e93"/>
        <path id="Trazado_600945" data-name="Trazado 600945" d="M1127.9,903.844l-26.457,15.276a46.226,46.226,0,0,0-16.855-16.853l15.267-26.461a76.917,76.917,0,0,1,28.045,28.037" transform="translate(-937.336 -756.901)" fill="#3e80ad"/>
        <path id="Trazado_600946" data-name="Trazado 600946" d="M672.882,800.415V830.96A45.81,45.81,0,0,0,650,837.04l-15.185-26.507a76.437,76.437,0,0,1,38.063-10.118" transform="translate(-548.632 -691.745)" fill="#f8a66e"/>
        <path id="Trazado_600947" data-name="Trazado 600947" d="M470.468,901.45a46.239,46.239,0,0,0-16.95,16.877l-26.439-15.307a76.9,76.9,0,0,1,28.2-28.076Z" transform="translate(-369.096 -756.155)" fill="#e38c55"/>
        <path id="Trazado_600948" data-name="Trazado 600948" d="M387.99,1097.047a45.793,45.793,0,0,0-6.188,23.059H351.257a76.086,76.086,0,0,1,6.03-29.81,76.87,76.87,0,0,1,4.264-8.556Z" transform="translate(-303.568 -934.876)" fill="#c45f27"/>
        <path id="Trazado_600949" data-name="Trazado 600949" d="M953.44,810.65l-15.267,26.461a45.807,45.807,0,0,0-23-6.151V800.415A76.43,76.43,0,0,1,953.44,810.65" transform="translate(-790.924 -691.745)" fill="#5c95c4"/>
        <path id="Trazado_600950" data-name="Trazado 600950" d="M1167.147,846.632l-2.525,12.237s-5.674,6.793-8.446,13.458l-2.842,1.831-1.541,2.515,1.608.386-.347,4.784s2.784-2.968,2.848-3.07,1.519-4.21,1.519-4.21a91.592,91.592,0,0,0,9.787-9.341s2.437-2.66,4.567-9.421l3.213-8.026a12.854,12.854,0,0,1-7.841-1.143" transform="translate(-995.419 -731.687)" fill="#ed836e"/>
        <path id="Trazado_600951" data-name="Trazado 600951" d="M1424.046,1440.72a12.046,12.046,0,0,1-1.534,1.3,12.18,12.18,0,0,1-2.264,1.272,11.908,11.908,0,0,1-1.221.446,11.759,11.759,0,0,0-1.212.3.7.7,0,0,0,.291.669,1.912,1.912,0,0,0,.706.295,18.429,18.429,0,0,0,10.852-.512,1.848,1.848,0,0,0,.979-.634,2.062,2.062,0,0,0-.093-1.77,21.351,21.351,0,0,1-1.086-4.75q-.068-.607-.1-1.217c-.017-.314.081-.64-.283-.7a5.7,5.7,0,0,0-1.212.1l-1.192.1c-.566.048-1.058.035-1.163.681-.121.742-.241,1.484-.416,2.216a3.34,3.34,0,0,1-.643,1.778q-.2.22-.407.43" transform="translate(-1225.313 -1240.523)" fill="#ffa188"/>
        <path id="Trazado_600952" data-name="Trazado 600952" d="M1430.365,1499.081l.51,1.246a.49.49,0,0,1-.306.651,34.524,34.524,0,0,1-6.064,1.37,21.757,21.757,0,0,1-4.143.194c-1.341-.09-3-.162-4.066-.983,1.185.3,2.743-.326,3.958-.467l8-.932a4.727,4.727,0,0,0,1.214-.251,1.609,1.609,0,0,0,.894-.828" transform="translate(-1224.011 -1295.556)" fill="#1d263f"/>
        <path id="Trazado_600953" data-name="Trazado 600953" d="M1419.444,1480.733c.3,1.054.477,1.6.967,3.24-.724.763-2.013.911-3.041,1.139a43.3,43.3,0,0,1-7.046,1.068,9.321,9.321,0,0,1-4.577-.605,2.55,2.55,0,0,1-1.073-.874,1.411,1.411,0,0,1-.14-1.336,1.638,1.638,0,0,1,1.591-.782,9.388,9.388,0,0,1,1.826.431,6.558,6.558,0,0,0,2.857.085Z" transform="translate(-1213.751 -1279.699)" fill="#2d3969"/>
        <path id="Trazado_600954" data-name="Trazado 600954" d="M1252.187,1446.385a9.638,9.638,0,0,0-1.78,7.839,21.989,21.989,0,0,1-8.6,2.388,5.726,5.726,0,0,1-3.983-1.036c1.655-.168,3-1.367,4.16-2.559a53.888,53.888,0,0,0,4.817-5.682,15.3,15.3,0,0,0,5.391-.949" transform="translate(-1069.766 -1250.014)" fill="#ffa188"/>
        <path id="Trazado_600955" data-name="Trazado 600955" d="M1249.878,1510.292l.5,1.251a.489.489,0,0,1-.313.648,34.56,34.56,0,0,1-6.078,1.3,21.8,21.8,0,0,1-4.144.149c-1.341-.1-3-.194-4.055-1.027,1.182.314,2.747-.3,3.963-.425l8.012-.845a4.719,4.719,0,0,0,1.217-.238,1.607,1.607,0,0,0,.9-.818" transform="translate(-1068.006 -1305.245)" fill="#1d263f"/>
        <path id="Trazado_600956" data-name="Trazado 600956" d="M1239.111,1491.894c.289,1.057.459,1.6.932,3.25-.733.755-2.023.89-3.053,1.106a43.325,43.325,0,0,1-7.057.992,9.322,9.322,0,0,1-4.57-.655,2.556,2.556,0,0,1-1.064-.886,1.412,1.412,0,0,1-.125-1.337,1.638,1.638,0,0,1,1.6-.764,9.387,9.387,0,0,1,1.822.45,6.559,6.559,0,0,0,2.856.116Z" transform="translate(-1057.872 -1289.345)" fill="#2d3969"/>
        <path id="Trazado_600957" data-name="Trazado 600957" d="M1315.566,1075.282l-1.709-.045-3.359-.087a1.833,1.833,0,0,1-2.175-2.052q-.134-1.137-.267-2.275-.862-7.339-1.724-14.678c-.268-2.278-.844-4.55-1.261-6.817q-.579-3.149-1.145-6.3c-.7-3.922-1.168-6.585-1.168-6.585-1,4.058-2.644,6.932-3.526,10.843-1.379,6.1-1.948,12.978-3.353,17.362a50.727,50.727,0,0,1-4.57,10.505,2,2,0,0,1-.773.733c-.052.027-.106.052-.161.074s-.112.043-.169.061a11.765,11.765,0,0,1-2.73.541,4.143,4.143,0,0,1-2.13-.334,1.39,1.39,0,0,1-.685-1.583c2.617-10.265,6.336-57.484,6.336-57.484,7.872,4.471,20.906-3.891,20.906-3.891q.468,1.777.852,3.541.094.429.184.857c.042.2.084.407.125.612.038.184.074.368.11.553.008.038.015.077.022.116.024.124.048.246.071.37q.046.238.09.478.059.315.114.632t.111.631c.018.1.036.205.053.307q.045.264.087.528.046.283.091.568.053.338.1.674.031.206.061.411.036.242.069.486c.016.111.032.221.046.331q.085.6.16,1.211c.016.123.031.244.046.367.018.142.035.287.052.43s.031.263.046.393a.018.018,0,0,1,0,.006q.046.393.088.78c.022.2.043.4.063.6.014.127.027.255.039.382.005.046.009.09.014.136q.034.338.064.677t.058.661c.02.223.039.447.056.67.014.171.027.342.04.513,0,.043.007.086.009.129.008.094.015.188.021.281.012.146.022.293.032.438.013.19.026.38.038.57q.039.586.068,1.175l.018.339c.033.64.085,1.281.107,1.922a1.741,1.741,0,0,0,.046.661v.01c0,1.386.029,2.652.024,3.769-.012,3.358-.185,5.387-.185,5.387.015.552.02,1.1.029,1.654.035,2.1.042,4.2.044,6.3,0,2.245-.133,4.531.04,6.766q.569,7.328.456,14.687" transform="translate(-1110.209 -875.704)" fill="#2d3969"/>
        <path id="Trazado_600958" data-name="Trazado 600958" d="M1320.97,1126.794c-1,4.058-2.644,6.933-3.526,10.842-1.378,6.1-1.948,12.978-3.353,17.362a50.646,50.646,0,0,1-4.571,10.505,1.962,1.962,0,0,1-1.1.868,11.763,11.763,0,0,1-2.73.542,58.551,58.551,0,0,0,7.651-20.393c.849-4.881,1.088-9.865,1.748-14.781a37.818,37.818,0,0,1,4.379-13.926c.338,3.667,1.5,8.979,1.5,8.979" transform="translate(-1128.42 -966.053)" fill="#1d263f"/>
        <path id="Trazado_600959" data-name="Trazado 600959" d="M1447.6,1075.282l-1.709-.045q-.315-5.084-.467-10.176-.21-7.095-.1-14.194c.026-1.66.045-3.319.032-4.979a73.947,73.947,0,0,0-.515-8.71c-.693-5.463-2.968-14.052-7.451-18.771,1.606-1.729,4.7-3.613,6.545-5.135.3.94.976,4.112,1.035,4.4.042.2.084.407.125.612.038.184.074.368.11.553.008.038.015.077.022.116.024.124.048.246.071.37q.046.238.09.478c.04.21.077.421.114.632s.075.42.111.631c.018.1.035.205.052.307q.045.264.088.528.046.283.091.568.053.336.1.674c.021.137.041.274.061.411q.036.242.069.486c.016.111.032.221.046.331q.085.6.161,1.211c.015.123.031.244.045.367.018.142.035.287.052.43s.031.263.047.393a.018.018,0,0,1,0,.006q.046.39.087.78c.022.2.043.4.063.6.014.127.027.255.039.382.005.046.01.09.014.136q.034.338.064.677t.058.661c.02.223.039.447.056.67.015.171.027.342.041.513,0,.043.007.086.009.129.008.094.015.188.021.281.012.146.022.293.032.438.013.19.026.38.038.57q.038.586.069,1.175c.007.112.013.226.018.339.033.64.085,1.281.107,1.922a1.752,1.752,0,0,0,.046.661v.01c0,.9.017,1.791.023,2.688a4.05,4.05,0,0,0-.01,1.081c-.012,3.358-.179,5.387-.179,5.387.015.552.023,1.1.032,1.654.035,2.1.044,4.2.046,6.3,0,2.245-.132,4.531.041,6.766q.569,7.328.456,14.687" transform="translate(-1242.241 -875.704)" fill="#1d263f"/>
        <path id="Trazado_600960" data-name="Trazado 600960" d="M1265.411,745.557c-.084,1.776.356,7.45.272,9.226,1.5,2.513,2.144-1.261,3.645,1.252,1.386-1.694,3.7-3.048,4.786-4.95-.179-2.648-.908-3.41-.758-6.059.048-.849.048-1.724.082-2.574-1.552,1.366-7.093,3.113-8.027,3.1" transform="translate(-1093.602 -641.652)" fill="#ffa188"/>
        <path id="Trazado_600961" data-name="Trazado 600961" d="M1231.3,671.335a7.406,7.406,0,0,1-.241,2.755c-.079.2-1.48,2.341-1.63,2.11l-1.331-2.047a3.826,3.826,0,0,0-1.521,1.892l-.8-1.191-1.741,2.047q-.228-1.152-.385-2.318a82.325,82.325,0,0,1,.153-12.851,20.111,20.111,0,0,1,1.845-6.3,11.959,11.959,0,0,1,1.6-2.207,13.713,13.713,0,0,1,2.033-1.7s-1.946,5.364-1.658,5.812c.959,1.49.52,3.671,1.879,4.864a4.564,4.564,0,0,1,1.3,1.349,3.154,3.154,0,0,1,.2,1.28c.006.439.04.877.087,1.313.026.24.055.48.086.718.017.135.035.27.053.405.022.176.045.352.066.529s.044.371.062.556a22.985,22.985,0,0,1-.066,2.985" transform="translate(-1057.349 -563.068)" fill="#643a24"/>
        <path id="Trazado_600962" data-name="Trazado 600962" d="M1245.714,653.727a14.734,14.734,0,0,0-2.334,7.026,14.586,14.586,0,0,0,1.377,7.236,2.556,2.556,0,0,0,.733,1.015,2.635,2.635,0,0,0,2.158.154,18.333,18.333,0,0,0,5.694-2.443,5.242,5.242,0,0,0,1.973-1.955,6.12,6.12,0,0,0,.266-3.355,5.249,5.249,0,0,1-3.252-1c-.978-.619.642-2.08-.088-2.978-.451-.554-1-1.683-1.393-2.277-.819-1.226-3.789-1.283-4.357-2.644-.282.413-.519.829-.778,1.222" transform="translate(-1074.543 -563.916)" fill="#ffa188"/>
        <path id="Trazado_600963" data-name="Trazado 600963" d="M1287.343,751.735c-.01.44-.035.73-.032.961-1.716,1.1-5.728,4.139-5.759,4.146.015-.4.05-1.462.007-1.886-.009-.091-.019-.183-.029-.274a18.348,18.348,0,0,0,4.812-2.207,8.9,8.9,0,0,0,1-.74" transform="translate(-1107.542 -649.674)" fill="#ed836e"/>
        <path id="Trazado_600964" data-name="Trazado 600964" d="M1257.725,645.441a1.165,1.165,0,0,0-.141,1.023,1.746,1.746,0,0,0,1.122.978c.483.173,1,.237,1.483.409a3.43,3.43,0,0,1,.822.428c1.654,1.167,1.563,3.349,1.556,5.169-.008,1.927-.183,4,.544,5.827a10.5,10.5,0,0,0,2.644,3.9c1.2,1.145,2.562,1.915,3.466,3.31a5.766,5.766,0,0,1,.539,4.857,6.957,6.957,0,0,0,2.747-3.391,3.156,3.156,0,0,1,.979-1.629c.3-.223.923-.118,1.314-.123.1,0,1.226-.023,1.226-.016l-1.7-3.012a30.115,30.115,0,0,1-1.854-3.677,14.405,14.405,0,0,1-.857-5.178c-.043-2.566-.432-5.368-2.136-7.287a8.6,8.6,0,0,0-4.933-3,10.112,10.112,0,0,0-4.15.053,8.187,8.187,0,0,0-1.525.583,4.31,4.31,0,0,0-1.15.779" transform="translate(-1086.795 -556.426)" fill="#643a24"/>
        <path id="Trazado_600965" data-name="Trazado 600965" d="M1257.986,832.882a3.916,3.916,0,0,0,.241,2.026,3.731,3.731,0,0,0,.974,1.164,10.139,10.139,0,0,0,5.289,2.363l-3.351-9.024a3.161,3.161,0,0,0-.557-1.063c-.233-.256-.235-1.6-.594-1.544s-.453.517-.571.794a27.793,27.793,0,0,0-1.214,3.768,13.407,13.407,0,0,0-.215,1.516" transform="translate(-1087.169 -714.55)" fill="#97acdb"/>
        <path id="Trazado_600966" data-name="Trazado 600966" d="M1430.355,1036.752h.017v-.018Z" transform="translate(-1236.161 -895.979)" fill="#e38c55"/>
        <path id="Trazado_600967" data-name="Trazado 600967" d="M1422.249,860.032v.018l4.313-.261,22.311-25.8-2.376-2Z" transform="translate(-1229.156 -719.036)" fill="#e38c55"/>
        <path id="Trazado_600968" data-name="Trazado 600968" d="M1673.471,687.4l-.263-31.732-3.84.544.3-.042.263,31.732h0Z" transform="translate(-1442.724 -566.647)" fill="#e38c55"/>
        <path id="Trazado_600969" data-name="Trazado 600969" d="M1421.131,1010l-.276-.224.012.257Z" transform="translate(-1227.951 -872.684)" fill="#f8a66e"/>
        <path id="Trazado_600970" data-name="Trazado 600970" d="M1415.781,689.931l15.147-17.514-10.4-8.749,28.222-4-31.766,4.5,10.4,8.749-13.292,15.369.009.19Z" transform="translate(-1222.106 -570.109)" fill="#f8a66e"/>
        <path id="Trazado_600971" data-name="Trazado 600971" d="M1413.517,870.451l-.09.1.1.086Z" transform="translate(-1221.532 -752.272)" fill="#f8a66e"/>
        <path id="Trazado_600972" data-name="Trazado 600972" d="M1623.45,832.849l-3.139-2.786-1.955,2.26,7.485,6.3-3.5-5.367Z" transform="translate(-1398.639 -717.368)" fill="#f8a66e"/>
        <path id="Trazado_600973" data-name="Trazado 600973" d="M1448.809,659.4l-28.222,4,10.4,8.749-15.147,17.514-1.68-1.452.909,18.725.276.224-.264.032.177,3.644,24.249-28.038,2.376,2,1.955-2.26,3.138,2.786-1.109.4,3.5,5.367-.263-31.732Z" transform="translate(-1222.165 -569.843)" fill="#f8a66e"/>
        <path id="Trazado_600974" data-name="Trazado 600974" d="M1413.416,1015.313l-.177-3.644-1.211.149,1.371,3.514Z" transform="translate(-1220.323 -874.319)" fill="#f8a66e"/>
        <path id="Trazado_600975" data-name="Trazado 600975" d="M1266.578,795.072h-.009c-.575-.058-1.093.98-1.3,1.4a10.068,10.068,0,0,0-.693,2.237,27.673,27.673,0,0,0-.715,4.808,11.342,11.342,0,0,0,.75,4.771,11.7,11.7,0,0,0,2.931,3.99,14.752,14.752,0,0,1,2.774,3.964,24.075,24.075,0,0,1,2.735,9.934,3.918,3.918,0,0,0,.713,2.6,3.12,3.12,0,0,0,1.753.77c3.541.628,7.073-.419,10.563-.9,1.622-.221,3.187-.333,4.789-.661.425-.087,4.689-1.351,4.509-1.83l-2.99-7.972c-1.963-5.234-3.952-10.518-7.036-15.18s-7.407-8.714-12.731-10.416a4.076,4.076,0,0,1-2.359,2.96,3.462,3.462,0,0,1-1.953.194,4.375,4.375,0,0,1-.984-.3,3.263,3.263,0,0,0-.751-.368" transform="translate(-1092.266 -684.982)" fill="#b9caf6"/>
        <path id="Trazado_600976" data-name="Trazado 600976" d="M862.325,1271a6.8,6.8,0,1,1-6.8-6.8,6.8,6.8,0,0,1,6.8,6.8" transform="translate(-733.502 -1092.565)" fill="#363e62"/>
        <path id="Trazado_600977" data-name="Trazado 600977" d="M881.633,1080.851a4.983,4.983,0,1,0,6.047,7.81l34.927-33.3a2.42,2.42,0,0,0-2.937-3.793Z" transform="translate(-759.798 -908.494)" fill="#363e62"/>
        <path id="Trazado_600978" data-name="Trazado 600978" d="M876.634,1287.974a4.13,4.13,0,1,1-4.13-4.13,4.13,4.13,0,0,1,4.13,4.13" transform="translate(-750.478 -1109.541)" fill="#f0f5fd"/>
        <path id="Trazado_600979" data-name="Trazado 600979" d="M1162.851,1069.039a3.021,3.021,0,0,1,.611-.954l3.343-3.876c.256-.3.526-.716.287-1.046a.574.574,0,0,0-.32-.208,2.791,2.791,0,0,0-.848.013,3.439,3.439,0,0,1-1.441-.248.253.253,0,0,1,.037-.471,8.567,8.567,0,0,1,2.9-.166,5.137,5.137,0,0,0,2.312-.179,10.133,10.133,0,0,0,.884-.512h0c.014-.008.133-.017.147-.025.575.686,1.05,1.366,1.638,2.04q.22.251.441.5a10.853,10.853,0,0,0-4.009,4.988,9.294,9.294,0,0,1-.786,1.528,1.66,1.66,0,0,1-.589.673.277.277,0,0,1-.4-.321,20.4,20.4,0,0,1,.832-1.892.159.159,0,0,0-.271-.161,5.936,5.936,0,0,0-.554.961,9.749,9.749,0,0,1-.97,1.46,2.282,2.282,0,0,1-.7.6.3.3,0,0,1-.387-.419q.96-1.5,1.785-3.077a.159.159,0,0,0-.245-.193,2.682,2.682,0,0,0-.62.781c-.253.459-.6.919-.856,1.376a5.277,5.277,0,0,1-.89,1.227.335.335,0,0,1-.544-.361,10.465,10.465,0,0,1,1.293-2.063c.4-.583.642-.968,1.1-1.765.029-.051.062-.116.094-.187a.161.161,0,0,0-.259-.182c-.468.465-1.013,1.206-1.35,1.563a5.187,5.187,0,0,1-1.13,1.033.372.372,0,0,1-.536-.44" transform="translate(-1004.958 -917.27)" fill="#ffa188"/>
        <path id="Trazado_600980" data-name="Trazado 600980" d="M1215.068,910.108a2.774,2.774,0,0,0-.215-.394,2.708,2.708,0,0,0-.879-1.114,2.783,2.783,0,0,0-.807-.494l.611-.839c3.561-6.279,10.4-11.974,10.4-11.974l3.8-12.954a22.069,22.069,0,0,0,7.841,3.2l-4.164,7.576c-2.936,6.452-5.678,8.8-5.678,8.8A91.619,91.619,0,0,1,1215.124,910l-.056.112" transform="translate(-1048.46 -762.547)" fill="#ffa188"/>
        <rect id="Rectángulo_292974" data-name="Rectángulo 292974" width="56.849" height="54.034" transform="translate(117.387 17.041)" fill="#fff"/>
        <path id="Trazado_600981" data-name="Trazado 600981" d="M920.385,178.452H863.128V124.01h57.257Zm-56.849-.407h56.442V124.417H863.535Z" transform="translate(-745.945 -107.173)" fill="#dadee7"/>
        <rect id="Rectángulo_292975" data-name="Rectángulo 292975" width="44.834" height="36.732" transform="translate(123.223 27.889)" fill="#bed5e7"/>
        <rect id="Rectángulo_292976" data-name="Rectángulo 292976" width="10.367" height="54.034" transform="translate(174.236 17.041)" fill="#f0f1f6"/>
        <path id="Trazado_600982" data-name="Trazado 600982" d="M1292.632,178.452h-10.775V124.01h10.775Zm-10.367-.407h9.96V124.417h-9.96Z" transform="translate(-1107.824 -107.173)" fill="#dadee7"/>
        <rect id="Rectángulo_292977" data-name="Rectángulo 292977" width="1.533" height="48.999" transform="translate(177.12 19.49)" fill="#bed5e7"/>
        <rect id="Rectángulo_292978" data-name="Rectángulo 292978" width="1.533" height="48.999" transform="translate(180.828 19.49)" fill="#bed5e7"/>
        <path id="Trazado_600983" data-name="Trazado 600983" d="M986.388,289.445v14.968h-4.136v-9.808a12.577,12.577,0,0,1-1.942,1.235,15.176,15.176,0,0,1-2.354.9V293.39a9.943,9.943,0,0,0,3.243-1.616A6.6,6.6,0,0,0,983,289.445Z" transform="translate(-845.182 -250.147)" fill="#363e62"/>
        <path id="Trazado_600984" data-name="Trazado 600984" d="M1073.4,291.293h9.708v3.263h-6.576l-.351,2.209a7.027,7.027,0,0,1,1.35-.482,5.619,5.619,0,0,1,1.32-.161,4.929,4.929,0,0,1,3.584,1.335,4.491,4.491,0,0,1,1.375,3.363,5.707,5.707,0,0,1-.708,2.741,4.8,4.8,0,0,1-2.008,2.008,7.046,7.046,0,0,1-3.328.693,9.814,9.814,0,0,1-2.495-.276,5.072,5.072,0,0,1-1.767-.823,4.913,4.913,0,0,1-1.179-1.24,6.468,6.468,0,0,1-.753-1.727l4.136-.452a2.515,2.515,0,0,0,.7,1.511,1.858,1.858,0,0,0,1.315.517,1.781,1.781,0,0,0,1.41-.647,2.9,2.9,0,0,0,.557-1.932,2.788,2.788,0,0,0-.562-1.928,1.934,1.934,0,0,0-1.5-.612,2.42,2.42,0,0,0-1.144.291,3.323,3.323,0,0,0-.9.763l-3.484-.5Z" transform="translate(-926.085 -251.745)" fill="#363e62"/>
        <path id="Trazado_600985" data-name="Trazado 600985" d="M933.449,148.172a1.7,1.7,0,1,1-1.7-1.7,1.7,1.7,0,0,1,1.7,1.7" transform="translate(-803.775 -126.583)" fill="#182f59"/>
        <path id="Trazado_600986" data-name="Trazado 600986" d="M1021.954,148.172a1.7,1.7,0,1,1-1.7-1.7,1.7,1.7,0,0,1,1.7,1.7" transform="translate(-880.264 -126.583)" fill="#182f59"/>
        <path id="Trazado_600987" data-name="Trazado 600987" d="M1109.744,148.172a1.7,1.7,0,1,1-1.7-1.7,1.7,1.7,0,0,1,1.7,1.7" transform="translate(-956.134 -126.583)" fill="#182f59"/>
        <path id="Trazado_600988" data-name="Trazado 600988" d="M1197.791,148.172a1.7,1.7,0,1,1-1.7-1.7,1.7,1.7,0,0,1,1.7,1.7" transform="translate(-1032.228 -126.583)" fill="#182f59"/>
        <path id="Trazado_600989" data-name="Trazado 600989" d="M938.029,91.2h-1.875a4.33,4.33,0,1,0-7.432,3.743.931.931,0,0,1-1.366,1.266,6.192,6.192,0,1,1,10.663-5.151.972.972,0,0,1,.01.141" transform="translate(-800.026 -74.158)" fill="#f8a66e"/>
        <path id="Trazado_600990" data-name="Trazado 600990" d="M1026.023,91.2h-1.876a4.33,4.33,0,1,0-7.432,3.743.931.931,0,0,1-1.366,1.266,6.192,6.192,0,1,1,10.663-5.151.947.947,0,0,1,.011.141" transform="translate(-876.074 -74.158)" fill="#f8a66e"/>
        <path id="Trazado_600991" data-name="Trazado 600991" d="M1114.016,91.2h-1.876a4.33,4.33,0,1,0-7.432,3.743.931.931,0,0,1-1.366,1.266,6.192,6.192,0,1,1,10.662-5.151.931.931,0,0,1,.011.141" transform="translate(-952.12 -74.158)" fill="#f8a66e"/>
        <path id="Trazado_600992" data-name="Trazado 600992" d="M1202.01,91.2h-1.876a4.33,4.33,0,1,0-7.432,3.743.931.931,0,0,1-1.366,1.266A6.192,6.192,0,1,1,1202,91.058a.965.965,0,0,1,.011.141" transform="translate(-1028.168 -74.158)" fill="#f8a66e"/>
        <path id="Trazado_600993" data-name="Trazado 600993" d="M86.715,631.843a3.564,3.564,0,1,1,3.564-3.563,3.568,3.568,0,0,1-3.564,3.563m0-6.188a2.625,2.625,0,1,0,2.625,2.625,2.628,2.628,0,0,0-2.625-2.625" transform="translate(-71.862 -539.9)" fill="#bed5e7"/>
        <path id="Trazado_600994" data-name="Trazado 600994" d="M707.8,7.122a3.564,3.564,0,1,1,3.564-3.563A3.568,3.568,0,0,1,707.8,7.122m0-6.188a2.625,2.625,0,1,0,2.625,2.625A2.628,2.628,0,0,0,707.8.934" transform="translate(-608.625 0.005)" fill="#bed5e7"/>
        <path id="Trazado_600995" data-name="Trazado 600995" d="M1722.763,694.085a3.564,3.564,0,1,1,3.563-3.563,3.568,3.568,0,0,1-3.563,3.563m0-6.188a2.625,2.625,0,1,0,2.625,2.625,2.628,2.628,0,0,0-2.625-2.625" transform="translate(-1485.79 -593.692)" fill="#bed5e7"/>
        <path id="Trazado_600996" data-name="Trazado 600996" d="M775.134,1539.322a3.564,3.564,0,1,1,3.564-3.563,3.568,3.568,0,0,1-3.564,3.563m0-6.188a2.625,2.625,0,1,0,2.625,2.625,2.628,2.628,0,0,0-2.625-2.625" transform="translate(-666.817 -1324.174)" fill="#bed5e7"/>
        <path id="Trazado_600997" data-name="Trazado 600997" d="M854.822,560.1l-17.094-12.5a56.354,56.354,0,0,1-26.287,35.992l17.023,12.453A56.356,56.356,0,0,0,854.822,560.1" transform="translate(-701.276 -473.253)" fill="#bed5e7"/>
        <path id="Trazado_600998" data-name="Trazado 600998" d="M837.186,547.038l17.17,12.56a56.356,56.356,0,0,1-26.411,36.014l-17.1-12.509a56.355,56.355,0,0,0,26.34-36.065m17.071,12.6-17.017-12.448a56.354,56.354,0,0,1-26.233,35.918l16.947,12.4a56.356,56.356,0,0,0,26.3-35.867" transform="translate(-700.761 -472.768)" fill="#bed5e7"/>
        <path id="Trazado_600999" data-name="Trazado 600999" d="M959.041,704a7.37,7.37,0,0,0-1.775-10.044c-3.1-2.269-7.085-1.279-9.391,1.87s-2.025,7.258,1.07,9.522a7.355,7.355,0,0,0,10.1-1.348" transform="translate(-817.874 -598.669)" fill="#5c95c4"/>
        <path id="Trazado_601000" data-name="Trazado 601000" d="M975.619,720.274a2.5,2.5,0,0,1,.028,1.213,8.908,8.908,0,0,1-.455,1.354,3.335,3.335,0,0,0-.312,1.031.41.41,0,0,0,.211.362.6.6,0,0,0,.558.1,1.4,1.4,0,0,0,.69-.562c.456-.625.448-1.1-.047-1.539a.318.318,0,0,1-.03-.427q.227-.329.45-.662a.3.3,0,0,1,.193-.152.28.28,0,0,1,.232.056,2.385,2.385,0,0,1,.969,1.7,2.811,2.811,0,0,1-.606,1.92,2.607,2.607,0,0,1-1.6,1.088,2.143,2.143,0,0,1-1.74-.392,1.811,1.811,0,0,1-.792-1.276,3.657,3.657,0,0,1,.391-1.8,5.209,5.209,0,0,0,.443-1.421.574.574,0,0,0-.285-.552.673.673,0,0,0-.649-.113,1.524,1.524,0,0,0-.73.6,1.777,1.777,0,0,0-.377,1.023,1.1,1.1,0,0,0,.448.879.3.3,0,0,1,.027.426q-.243.313-.49.622a.333.333,0,0,1-.216.134.318.318,0,0,1-.242-.062,2.59,2.59,0,0,1-1.035-1.721,3.067,3.067,0,0,1,.722-2.195A2.735,2.735,0,0,1,973,718.752a2.136,2.136,0,0,1,1.788.392,2.076,2.076,0,0,1,.831,1.13" transform="translate(-838.854 -621.122)" fill="#fff"/>
        <path id="Trazado_601001" data-name="Trazado 601001" d="M1019.426,757.918q-.233.325-.47.646a.155.155,0,0,1-.216.035l-.8-.587q.331-.446.653-.9l.8.588a.156.156,0,0,1,.033.217" transform="translate(-879.737 -654.323)" fill="#fff"/>
        <path id="Trazado_601002" data-name="Trazado 601002" d="M969.3,722.316q.237-.321.469-.646a.152.152,0,0,1,.214-.037l.8.588q-.322.452-.653.9l-.8-.587a.154.154,0,0,1-.031-.216" transform="translate(-837.678 -623.635)" fill="#fff"/>
        <path id="Trazado_601003" data-name="Trazado 601003" d="M911.726,851.332c-2.755-2.021-7.474-1.553-10.789.531l5,3.657a56.54,56.54,0,0,0,5.79-4.188" transform="translate(-778.62 -734.629)" fill="#5c95c4"/>
        <path id="Trazado_601004" data-name="Trazado 601004" d="M1081.822,627.433c-2.764-2.02-3.816-6.575-2.89-10.174l5.018,3.671a56.178,56.178,0,0,1-2.127,6.5" transform="translate(-932.166 -533.456)" fill="#5c95c4"/>
        <path id="Trazado_601005" data-name="Trazado 601005" d="M838.164,782.428c2.612,1.908,2.662,5.866-.652,7.95l-5.131-3.754a56.5,56.5,0,0,0,5.782-4.2" transform="translate(-719.373 -676.2)" fill="#5c95c4"/>
        <path id="Trazado_601006" data-name="Trazado 601006" d="M996.613,573.419a4.569,4.569,0,0,0,7.267-2.739l-5.151-3.768a56.163,56.163,0,0,1-2.117,6.507" transform="translate(-861.307 -489.944)" fill="#5c95c4"/>
        <path id="Trazado_601007" data-name="Trazado 601007" d="M992.447,677.907a56.354,56.354,0,0,1-17.242,24.335l.586.429a56.356,56.356,0,0,0,17.244-24.334l-.588-.43" transform="translate(-842.805 -585.87)" fill="#5c95c4"/>
        <path id="Trazado_601008" data-name="Trazado 601008" d="M1022.459,576.189l9.579,7.008q.1-.363.2-.729l-9.579-7.008q-.095.365-.194.729" transform="translate(-883.644 -497.331)" fill="#5c95c4"/>
        <path id="Trazado_601009" data-name="Trazado 601009" d="M844.022,819.25l9.543,6.982q.32-.2.637-.409l-9.544-6.982q-.317.207-.637.409" transform="translate(-729.432 -707.67)" fill="#5c95c4"/>
        <path id="Trazado_601010" data-name="Trazado 601010" d="M891.3,603.714a56.353,56.353,0,0,1-17.2,24.361l.586.429a56.355,56.355,0,0,0,17.206-24.36l-.588-.43" transform="translate(-755.423 -521.749)" fill="#5c95c4"/>
        <path id="Trazado_601011" data-name="Trazado 601011" d="M961.877,789.431q1.338-1.293,2.584-2.67l.426.311q-1.247,1.376-2.585,2.67l-.425-.312" transform="translate(-831.287 -679.945)" fill="#5c95c4"/>
        <path id="Trazado_601012" data-name="Trazado 601012" d="M940.7,782.329q2.055-1.864,3.912-3.914l.425.311q-1.855,2.048-3.912,3.914l-.425-.311" transform="translate(-812.981 -672.732)" fill="#5c95c4"/>
        <path id="Trazado_601013" data-name="Trazado 601013" d="M939.08,772.739q1.337-1.294,2.583-2.671l.426.311q-1.246,1.376-2.584,2.671l-.425-.311" transform="translate(-811.585 -665.518)" fill="#5c95c4"/>
        <path id="Trazado_601014" data-name="Trazado 601014" d="M1034.157,692.208q-.824,1.665-1.755,3.27l.426.312q.931-1.6,1.755-3.269l-.426-.312" transform="translate(-892.237 -598.229)" fill="#5c95c4"/>
        <path id="Trazado_601015" data-name="Trazado 601015" d="M1023.522,671.764q-1.147,2.52-2.534,4.911l.426.312q1.384-2.388,2.534-4.911l-.426-.312" transform="translate(-882.372 -580.561)" fill="#5c95c4"/>
        <path id="Trazado_601016" data-name="Trazado 601016" d="M1011.328,675.493q-.823,1.665-1.754,3.27l.426.312q.93-1.6,1.754-3.27l-.426-.312" transform="translate(-872.508 -583.783)" fill="#5c95c4"/>
      </g>
    </g>
  </g>
</svg>
