<svg xmlns="http://www.w3.org/2000/svg" width="92" height="92" viewBox="0 0 92 92">
  <g id="Grupo_877531" data-name="Grupo 877531" transform="translate(-1227 -7060)">
    <circle id="Elipse_5612" data-name="Elipse 5612" cx="46" cy="46" r="46" transform="translate(1227 7060)" fill="#3185af"/>
    <rect id="Rectángulo_293086" data-name="Rectángulo 293086" width="51" height="60" rx="4" transform="translate(1248 7076)" fill="#ecf0f1"/>
    <g id="trabajo-en-equipo" transform="translate(1251.934 7084.745)">
      <g id="Grupo_877014" data-name="Grupo 877014" transform="translate(15.481 6.733)">
        <path id="Trazado_601059" data-name="Trazado 601059" d="M197.368,82.382H187.1a.641.641,0,0,1,0-1.283h10.264a.641.641,0,0,1,0,1.283Z" transform="translate(-186.463 -81.099)" fill="#4073c8"/>
      </g>
      <g id="Grupo_877015" data-name="Grupo 877015" transform="translate(34.493 15.481)">
        <path id="Trazado_601060" data-name="Trazado 601060" d="M416.09,198.01a.641.641,0,0,1-.641-.641V187.1a.641.641,0,0,1,1.283,0v10.264A.641.641,0,0,1,416.09,198.01Z" transform="translate(-415.449 -186.463)" fill="#4073c8"/>
      </g>
      <g id="Grupo_877016" data-name="Grupo 877016" transform="translate(15.481 34.493)">
        <path id="Trazado_601061" data-name="Trazado 601061" d="M197.368,416.732H187.1a.641.641,0,0,1,0-1.283h10.264a.641.641,0,0,1,0,1.283Z" transform="translate(-186.463 -415.449)" fill="#4073c8"/>
      </g>
      <g id="Grupo_877017" data-name="Grupo 877017" transform="translate(6.733 15.481)">
        <path id="Trazado_601062" data-name="Trazado 601062" d="M81.74,198.01a.641.641,0,0,1-.641-.641V187.1a.641.641,0,0,1,1.283,0v10.264A.641.641,0,0,1,81.74,198.01Z" transform="translate(-81.099 -186.463)" fill="#4073c8"/>
      </g>
      <g id="Grupo_877018" data-name="Grupo 877018" transform="translate(0 0)">
        <circle id="Elipse_5616" data-name="Elipse 5616" cx="4.32" cy="4.32" r="4.32" transform="translate(0 0)" fill="#f1d0a5"/>
        <path id="Trazado_601063" data-name="Trazado 601063" d="M38.419.163a4.319,4.319,0,0,1,0,8.338,4.32,4.32,0,1,0,0-8.338Z" transform="translate(-35.229 -0.012)" fill="#f1b986"/>
        <path id="Trazado_601064" data-name="Trazado 601064" d="M57.612,48.557l-9.054,9.054a.854.854,0,0,1-1.209,0l-2.084-2.083a3.457,3.457,0,0,1,0-4.888l5.377-5.377a3.457,3.457,0,0,1,4.888,0l2.083,2.084A.854.854,0,0,1,57.612,48.557Z" transform="translate(-40.578 -40.578)" fill="#9dc6fb"/>
        <path id="Trazado_601065" data-name="Trazado 601065" d="M105.009,45.268l-1.466,1.466a3.456,3.456,0,0,1,4.888,0l2.688,2.688.861-.861a.855.855,0,0,0,0-1.21L109.9,45.268A3.456,3.456,0,0,0,105.009,45.268Z" transform="translate(-94.946 -40.581)" fill="#80b4fb"/>
      </g>
      <g id="Grupo_877019" data-name="Grupo 877019" transform="translate(25.225 0)">
        <circle id="Elipse_5617" data-name="Elipse 5617" cx="4.32" cy="4.32" r="4.32" transform="translate(8.644 0)" fill="#f1d0a5"/>
        <path id="Trazado_601066" data-name="Trazado 601066" d="M416.436,38.419a4.319,4.319,0,0,1-8.338,0,4.32,4.32,0,1,0,8.338,0Z" transform="translate(-399.302 -35.229)" fill="#f1b986"/>
        <path id="Trazado_601067" data-name="Trazado 601067" d="M306.153,45.268l-2.083,2.083a.855.855,0,0,0,0,1.21l9.054,9.054a.855.855,0,0,0,1.21,0l2.083-2.083a3.456,3.456,0,0,0,0-4.888l-5.376-5.376A3.456,3.456,0,0,0,306.153,45.268Z" transform="translate(-303.819 -40.582)" fill="#dd5790"/>
        <path id="Trazado_601068" data-name="Trazado 601068" d="M409.669,105.009l-1.466-1.466a3.456,3.456,0,0,1,0,4.888l-2.688,2.688.861.861a.855.855,0,0,0,1.21,0l2.083-2.083A3.456,3.456,0,0,0,409.669,105.009Z" transform="translate(-397.072 -94.946)" fill="#da387d"/>
      </g>
      <g id="Grupo_877020" data-name="Grupo 877020" transform="translate(0 25.225)">
        <circle id="Elipse_5618" data-name="Elipse 5618" cx="4.32" cy="4.32" r="4.32" transform="translate(0 8.644)" fill="#f1d0a5"/>
        <path id="Trazado_601069" data-name="Trazado 601069" d="M38.419,416.436a4.319,4.319,0,0,0,0-8.338,4.32,4.32,0,1,1,0,8.338Z" transform="translate(-35.229 -399.302)" fill="#f1b986"/>
        <path id="Trazado_601070" data-name="Trazado 601070" d="M45.268,306.153l2.083-2.083a.855.855,0,0,1,1.21,0l9.054,9.054a.855.855,0,0,1,0,1.21l-2.083,2.083a3.456,3.456,0,0,1-4.888,0l-5.376-5.376A3.456,3.456,0,0,1,45.268,306.153Z" transform="translate(-40.582 -303.819)" fill="#e49542"/>
        <path id="Trazado_601071" data-name="Trazado 601071" d="M105.009,409.669l-1.466-1.466a3.456,3.456,0,0,0,4.888,0l2.688-2.688.861.861a.855.855,0,0,1,0,1.21l-2.083,2.083A3.456,3.456,0,0,1,105.009,409.669Z" transform="translate(-94.946 -397.072)" fill="#e28424"/>
      </g>
      <g id="Grupo_877021" data-name="Grupo 877021" transform="translate(25.225 25.225)">
        <circle id="Elipse_5619" data-name="Elipse 5619" cx="4.32" cy="4.32" r="4.32" transform="translate(8.644 8.644)" fill="#f1d0a5"/>
        <path id="Trazado_601072" data-name="Trazado 601072" d="M416.436,413.385a4.319,4.319,0,0,0-8.338,0,4.32,4.32,0,1,1,8.338,0Z" transform="translate(-399.302 -399.291)" fill="#f1b986"/>
        <path id="Trazado_601073" data-name="Trazado 601073" d="M306.153,316.417l-2.083-2.083a.855.855,0,0,1,0-1.21l9.054-9.054a.855.855,0,0,1,1.21,0l2.083,2.083a3.456,3.456,0,0,1,0,4.888l-5.376,5.376A3.456,3.456,0,0,1,306.153,316.417Z" transform="translate(-303.819 -303.819)" fill="#c8ea73"/>
        <path id="Trazado_601074" data-name="Trazado 601074" d="M409.669,311.04l-1.466,1.466a3.456,3.456,0,0,0,0-4.888l-2.688-2.688.861-.861a.855.855,0,0,1,1.21,0l2.083,2.083A3.456,3.456,0,0,1,409.669,311.04Z" transform="translate(-397.072 -303.819)" fill="#b7e445"/>
      </g>
      <path id="Trazado_601075" data-name="Trazado 601075" d="M161.419,98.694l-.907.907-1.222-1.222a.642.642,0,1,1,.907-.907Z" transform="translate(-145.892 -89.206)" fill="#80b4fb"/>
      <path id="Trazado_601076" data-name="Trazado 601076" d="M99.6,160.511l-.907.907L97.471,160.2a.642.642,0,1,1,.907-.907Z" transform="translate(-89.206 -145.891)" fill="#80b4fb"/>
      <path id="Trazado_601077" data-name="Trazado 601077" d="M388.942,160.2l-1.221,1.222h0l-.907-.907,1.221-1.222a.642.642,0,0,1,.907.907Z" transform="translate(-354.698 -145.892)" fill="#da387d"/>
      <path id="Trazado_601078" data-name="Trazado 601078" d="M327.131,98.382,325.909,99.6h0L325,98.7l1.221-1.222a.642.642,0,0,1,.907.907Z" transform="translate(-298.018 -89.21)" fill="#da387d"/>
      <path id="Trazado_601079" data-name="Trazado 601079" d="M161.419,387.72l-1.222,1.221a.642.642,0,0,1-.907-.907l1.222-1.221Z" transform="translate(-145.892 -354.698)" fill="#e28424"/>
      <path id="Trazado_601080" data-name="Trazado 601080" d="M99.6,325.909l-1.222,1.221a.642.642,0,0,1-.907-.907L98.694,325Z" transform="translate(-89.206 -298.018)" fill="#e28424"/>
      <path id="Trazado_601081" data-name="Trazado 601081" d="M388.942,327.131a.643.643,0,0,1-.907,0l-1.221-1.221.908-.907,1.221,1.221A.642.642,0,0,1,388.942,327.131Z" transform="translate(-354.698 -298.018)" fill="#b7e445"/>
      <path id="Trazado_601082" data-name="Trazado 601082" d="M327.131,388.942a.643.643,0,0,1-.907,0L325,387.72l.907-.908,1.221,1.221A.643.643,0,0,1,327.131,388.942Z" transform="translate(-298.018 -354.698)" fill="#b7e445"/>
      <path id="Trazado_601083" data-name="Trazado 601083" d="M227.752,143.552a.645.645,0,0,0-.08-.81l-1.469-1.469a.642.642,0,0,0-.907.907l.374.374H222.9a.641.641,0,0,0,0,1.283h2.771l-.374.374a.641.641,0,1,0,.907.907l1.469-1.469A.747.747,0,0,0,227.752,143.552Z" transform="translate(-203.804 -129.372)" fill="#9dc6fb"/>
      <path id="Trazado_601084" data-name="Trazado 601084" d="M324.109,225.3a.641.641,0,0,0-.907,0l-.374.374V222.9a.641.641,0,0,0-1.283,0v2.771l-.374-.374a.642.642,0,0,0-.907.907l1.469,1.469a.647.647,0,0,0,.907,0l1.469-1.469A.641.641,0,0,0,324.109,225.3Z" transform="translate(-293.502 -203.804)" fill="#dd5790"/>
      <g id="Grupo_877025" data-name="Grupo 877025" transform="translate(18.453 26.575)">
        <g id="Grupo_877022" data-name="Grupo 877022" transform="translate(0 1.469)">
          <path id="Trazado_601085" data-name="Trazado 601085" d="M227.219,339.053H222.9a.641.641,0,0,1,0-1.283h4.32a.641.641,0,1,1,0,1.283Z" transform="translate(-222.258 -337.77)" fill="#c8ea73"/>
        </g>
        <g id="Grupo_877023" data-name="Grupo 877023" transform="translate(0 1.469)">
          <path id="Trazado_601086" data-name="Trazado 601086" d="M224.368,340.521a.639.639,0,0,1-.454-.188l-1.469-1.469a.642.642,0,0,1,.907-.907l1.469,1.469a.641.641,0,0,1-.454,1.1Z" transform="translate(-222.258 -337.769)" fill="#c8ea73"/>
        </g>
        <g id="Grupo_877024" data-name="Grupo 877024">
          <path id="Trazado_601087" data-name="Trazado 601087" d="M222.9,322.83a.641.641,0,0,1-.454-1.1l1.469-1.469a.642.642,0,1,1,.907.907l-1.469,1.469A.64.64,0,0,1,222.9,322.83Z" transform="translate(-222.258 -320.078)" fill="#c8ea73"/>
        </g>
      </g>
      <path id="Trazado_601088" data-name="Trazado 601088" d="M227.217,321.547h-2.771l.374-.374a.642.642,0,1,0-.907-.907l-1.469,1.469a.641.641,0,0,0,0,.907l1.469,1.469a.641.641,0,1,0,.907-.907l-.374-.374h2.771a.641.641,0,1,0,0-1.283Z" transform="translate(-203.803 -293.503)" fill="#c8ea73"/>
      <path id="Trazado_601089" data-name="Trazado 601089" d="M145.118,223.938l-1.469-1.469a.647.647,0,0,0-.907,0l-1.469,1.469a.641.641,0,1,0,.907.907l.374-.374v2.771a.641.641,0,1,0,1.283,0v-2.771l.374.374a.642.642,0,0,0,.907-.907Z" transform="translate(-129.372 -203.828)" fill="#e49542"/>
    </g>
  </g>
</svg>
