<svg xmlns="http://www.w3.org/2000/svg" width="92" height="92" viewBox="0 0 92 92">
  <g id="Grupo_877529" data-name="Grupo 877529" transform="translate(-597 -7060)">
    <circle id="Elipse_5610" data-name="Elipse 5610" cx="46" cy="46" r="46" transform="translate(597 7060)" fill="#3185af"/>
    <g id="Page-1" transform="translate(618.304 7074.309)">
      <g id="_038---Business-Plan" data-name="038---Business-Plan">
        <path id="Shape" d="M24.415,59.015H2.186A2.192,2.192,0,0,1,0,56.829V2.186A2.192,2.192,0,0,1,2.186,0H41.529a2.192,2.192,0,0,1,2.186,2.186v32.36Z" fill="#ecf0f1"/>
        <path id="Shape-2" data-name="Shape" d="M56.773,35.249,32.686,59.336a1.543,1.543,0,0,1-.437.317l-5.516-3.606L23.2,50.6a1.543,1.543,0,0,1,.317-.437L47.6,26.08l5.6,3.41Z" transform="translate(2.154 2.422)" fill="#f0c419"/>
        <path id="Rectangle-path" d="M0,0H34.6V4.324H0Z" transform="translate(28.341 56.021) rotate(-45)" fill="#f3d55b"/>
        <path id="Shape-3" data-name="Shape" d="M15.191,48.634A6.553,6.553,0,0,1,4,44h6.557Z" transform="translate(0.371 4.086)" fill="#f3d55b"/>
        <path id="Shape-4" data-name="Shape" d="M16.557,44.557a6.5,6.5,0,0,1-1.923,4.634L10,44.557V38A6.557,6.557,0,0,1,16.557,44.557Z" transform="translate(0.929 3.529)" fill="#ff5364"/>
        <path id="Shape-5" data-name="Shape" d="M10.557,38v6.557H4A6.557,6.557,0,0,1,10.557,38Z" transform="translate(0.371 3.529)" fill="#3b97d3"/>
        <path id="Shape-6" data-name="Shape" d="M36.764,4H30.677a1.322,1.322,0,0,0-.94,2.262l2.276,2.276L20.735,19.806a5.472,5.472,0,0,0,0,7.731L22.2,29a3.285,3.285,0,0,1,0,4.64l-8.666,8.666,1.545,1.545,8.666-8.666a5.464,5.464,0,0,0,0-7.731L22.28,25.992a3.287,3.287,0,0,1,0-4.64L33.559,10.084l2.266,2.266a1.322,1.322,0,0,0,2.262-.94V5.322A1.32,1.32,0,0,0,36.764,4Z" transform="translate(1.257 0.371)" fill="#2980ba"/>
        <g id="Grupo_877013" data-name="Grupo 877013" transform="translate(8.729 5.465)">
          <path id="Shape-7" data-name="Shape" d="M31.825,23.277l1.413-1.413a1.093,1.093,0,0,0-1.545-1.545L30.28,21.732l-1.413-1.413a1.093,1.093,0,0,0-1.545,1.545l1.413,1.413-1.413,1.413a1.093,1.093,0,1,0,1.545,1.545l1.413-1.413,1.413,1.413a1.093,1.093,0,0,0,1.545-1.545Z" transform="translate(-6.223 -3.606)" fill="#e64c3c"/>
          <path id="Shape-8" data-name="Shape" d="M33.238,29.32a1.093,1.093,0,0,0-1.545,0L30.28,30.733,28.867,29.32a1.093,1.093,0,0,0-1.545,1.545l1.413,1.413-1.413,1.413a1.093,1.093,0,1,0,1.545,1.545l1.413-1.413,1.413,1.413a1.093,1.093,0,0,0,1.545-1.545l-1.413-1.413,1.413-1.413a1.093,1.093,0,0,0,0-1.545Z" transform="translate(-6.223 -2.771)" fill="#e64c3c"/>
          <path id="Shape-9" data-name="Shape" d="M14.238,27.32a1.093,1.093,0,0,0-1.545,0L11.28,28.733,9.867,27.32a1.093,1.093,0,0,0-1.545,1.545l1.413,1.413L8.321,31.692a1.093,1.093,0,1,0,1.545,1.545l1.413-1.413,1.413,1.413a1.093,1.093,0,0,0,1.545-1.545l-1.413-1.413,1.413-1.413a1.093,1.093,0,0,0,0-1.545Z" transform="translate(-7.988 -2.957)" fill="#e64c3c"/>
          <path id="Shape-10" data-name="Shape" d="M21.238,5.32a1.093,1.093,0,0,0-1.545,0L18.28,6.733,16.867,5.32a1.093,1.093,0,0,0-1.545,1.545l1.413,1.413L15.321,9.692a1.093,1.093,0,1,0,1.545,1.545L18.28,9.824l1.413,1.413a1.093,1.093,0,0,0,1.545-1.545L19.825,8.279l1.413-1.413a1.093,1.093,0,0,0,0-1.545Z" transform="translate(-7.338 -5)" fill="#e64c3c"/>
        </g>
        <ellipse id="Oval" cx="2" cy="2.5" rx="2" ry="2.5" transform="translate(5.696 11.692)" fill="#4fba6f"/>
        <ellipse id="Oval-2" data-name="Oval" cx="2.5" cy="2" rx="2.5" ry="2" transform="translate(10.696 20.692)" fill="#4fba6f"/>
        <path id="Shape-11" data-name="Shape" d="M32.36,57.569a1.58,1.58,0,0,1-.5.153L23.89,58.858a1.639,1.639,0,0,1-1.869-1.869l.35-2.481.787-5.486a1.58,1.58,0,0,1,.153-.5Z" transform="translate(2.043 4.506)" fill="#f9eab0"/>
        <path id="Shape-12" data-name="Shape" d="M26.994,57.955l-3.1.448a1.639,1.639,0,0,1-1.869-1.869l.35-2.481.087-.634Z" transform="translate(2.043 4.961)" fill="#464f5d"/>
        <path id="Shape-13" data-name="Shape" d="M58.513,31.814,54.7,35.628,45.53,26.459l3.814-3.814a2.131,2.131,0,0,1,3.06,0l6.109,6.109a2.131,2.131,0,0,1,0,3.06Z" transform="translate(4.228 2.043)" fill="#ff5364"/>
      </g>
    </g>
  </g>
</svg>
