<svg xmlns="http://www.w3.org/2000/svg" xmlns:xlink="http://www.w3.org/1999/xlink" width="1030" height="412.31" viewBox="0 0 1030 412.31">
  <defs>
    <clipPath id="clip-path">
      <rect id="Rectángulo_293095" data-name="Rectángulo 293095" width="444.678" height="252.522" transform="translate(0 0)" fill="#f4f8e7"/>
    </clipPath>
  </defs>
  <g id="Grupo_877529" data-name="Grupo 877529" transform="translate(-285 -9744.3)">
    <g id="Enmascarar_grupo_877026" data-name="Enmascarar grupo 877026" transform="translate(380 9904.087)" clip-path="url(#clip-path)">
      <path id="Trazado_601090" data-name="Trazado 601090" d="M34.081,251.747S-18.691,188.177,7.1,122.733C23.911,80.075,86.972,56.7,122.561,80.075c15.158,9.955,63.787.336,89.753-40.881C262.77-40.9,438.867,7.742,406.808,130.714c-15.514,59.509,47.216,61.673,15.253,121.158Z" transform="translate(0 0.004)" fill="#eff2f8"/>
      <path id="Trazado_601091" data-name="Trazado 601091" d="M452.91,868.482s-5.322-6.209-.328-10.153c0,0,3.648-2.208,6.622-2.029,0,0-4.215,7.067-2.851,7.771s4.129-8.214,4.129-8.214,8.3-.8,10.972.479c0,0-7.1,5.807-5.6,6.153s9.16-5.354,9.16-5.354,7.726,1.315,7.314,6.028-3.074,6.169-4.244,6.043-8.015-2.738-8.164-1.779,3.971,4.092,6.856,4.239c0,0-5.447,6.007-9.067,4.274s-3.929-4.482-6.186-5.513-4.183-1.028-3.251.023,5.016,2.073,6.306,4.356,2.448,3.822-1.3,3.259-9.834-3.3-10.1-6.443Z" transform="translate(-379.766 -721.355)" fill="#c8dbf4"/>
      <path id="Trazado_601092" data-name="Trazado 601092" d="M466.684,904.37s-20.985-.809-25.619,5.193a15.18,15.18,0,0,1-4.179,5.865l-.492,1.34s3.636-3.834,4.938-4.066c0,0-2.035-7.435,25.352-8.331" transform="translate(-367.92 -762.436)" fill="#c8dbf4"/>
      <path id="Trazado_601093" data-name="Trazado 601093" d="M413.644,972.2a13.177,13.177,0,0,0-4.817,9.283l.817.073s1.439-6.154,4.039-8.561-.039-.8-.039-.8" transform="translate(-344.679 -819.207)" fill="#c8dbf4"/>
      <path id="Trazado_601094" data-name="Trazado 601094" d="M180.7,770.091s8.466-4.741,4.515-11.176c0,0-3.161-3.951-6.547-4.967,0,0,1.806,9.6,0,9.821s-1.242-10.837-1.242-10.837-8.918-4.29-12.417-3.951c0,0,5.531,9.37,3.725,9.143s-8.015-9.708-8.015-9.708-9.144-1.693-10.611,3.725.9,8.128,2.258,8.466,10.047.226,9.821,1.355-6.1,2.935-9.369,1.919c0,0,3.612,8.918,8.354,8.466s6.209-3.386,9.144-3.612,5.08.564,3.612,1.354-6.434.259-8.805,2.274-4.29,3.257.113,4.16,12.3.339,13.885-3.048Z" transform="translate(-126.166 -630.773)" fill="#c8dbf4"/>
      <path id="Trazado_601095" data-name="Trazado 601095" d="M179.217,784.3s23.706,7.676,26.415,16.255a18.012,18.012,0,0,0,2.258,8.241v1.693s-2.483-5.757-3.838-6.547c0,0,5.306-7.45-24.834-19.642" transform="translate(-151.096 -661.233)" fill="#c8dbf4"/>
      <path id="Trazado_601096" data-name="Trazado 601096" d="M355.866,934.751a15.635,15.635,0,0,1,1.572,12.309l-.941-.253s.913-7.444-1-11.187.369-.87.369-.87" transform="translate(-299.073 -787.192)" fill="#c8dbf4"/>
      <path id="Trazado_601097" data-name="Trazado 601097" d="M393.984,690.935s-11.16-6.25-5.952-14.732c0,0,4.166-5.208,8.63-6.547,0,0-2.381,12.648,0,12.946s1.637-14.285,1.637-14.285,11.755-5.655,16.368-5.208c0,0-7.291,12.351-4.91,12.053s10.565-12.8,10.565-12.8,12.053-2.232,13.988,4.91-1.19,10.714-2.976,11.16-13.243.3-12.946,1.786,8.035,3.869,12.351,2.53c0,0-4.762,11.756-11.011,11.16s-8.184-4.464-12.053-4.762-6.7.744-4.762,1.786,8.482.341,11.607,3,5.655,4.293-.149,5.484-16.22.446-18.3-4.018Z" transform="translate(-325.979 -558.155)" fill="#d4e4f8"/>
      <path id="Trazado_601098" data-name="Trazado 601098" d="M452.235,709.66s-31.249,10.119-34.82,21.428a23.74,23.74,0,0,1-2.976,10.863v2.232s3.274-7.589,5.059-8.631c0,0-6.994-9.821,32.737-25.892" transform="translate(-349.41 -598.308)" fill="#d4e4f8"/>
      <path id="Trazado_601099" data-name="Trazado 601099" d="M398.758,907.988a20.61,20.61,0,0,0-2.072,16.226l1.24-.333s-1.2-9.811,1.318-14.746-.486-1.147-.486-1.147" transform="translate(-333.73 -764.345)" fill="#d4e4f8"/>
      <path id="Trazado_601100" data-name="Trazado 601100" d="M313.545,1024.512a21.861,21.861,0,0,0,21.861-21.861H291.684a21.861,21.861,0,0,0,21.861,21.861" transform="translate(-245.916 -845.326)" fill="#d4e4f8"/>
      <path id="Trazado_601101" data-name="Trazado 601101" d="M334.087,1134.574H289.761a2.7,2.7,0,0,1,2.7-2.7H331.39a2.7,2.7,0,0,1,2.7,2.7Z" transform="translate(-244.295 -954.276)" fill="#d4e4f8"/>
      <rect id="Rectángulo_293088" data-name="Rectángulo 293088" width="44.938" height="0.67" transform="translate(45.049 157.325)" fill="#9fc1f4"/>
      <path id="Trazado_601102" data-name="Trazado 601102" d="M1099.182,1276.887l.108,0a1.467,1.467,0,0,0,1.482-1.569l-5.893-58.851-5.142.459,8.462,59.168a.957.957,0,0,0,.983.8" transform="translate(-918.749 -1025.591)" fill="#8cb4f4"/>
      <path id="Trazado_601103" data-name="Trazado 601103" d="M779.721,1276.887l-.108,0a1.467,1.467,0,0,1-1.482-1.569l5.893-58.851,5.142.459-8.462,59.168a.957.957,0,0,1-.983.8" transform="translate(-656.029 -1025.591)" fill="#8cb4f4"/>
      <path id="Trazado_601104" data-name="Trazado 601104" d="M1364.132,1276.887l.108,0a1.467,1.467,0,0,0,1.482-1.569l-5.893-58.851-5.142.459,8.462,59.168a.957.957,0,0,0,.983.8" transform="translate(-1142.126 -1025.591)" fill="#8cb4f4"/>
      <path id="Trazado_601105" data-name="Trazado 601105" d="M742.24,813.322l-10.46-51.655c-1.342-6.994,4.453-13.389,11.978-13.217l20.173.461a15.935,15.935,0,0,1,14.944,11.5l15.3,52.908Z" transform="translate(-616.794 -631.008)" fill="#8cb4f4"/>
      <path id="Trazado_601106" data-name="Trazado 601106" d="M782.571,813.322l-10.46-51.655c-1.343-6.994,4.453-13.389,11.977-13.217l20.173.461a15.935,15.935,0,0,1,14.944,11.5l15.3,52.908Z" transform="translate(-650.796 -631.008)" fill="#8cb4f4"/>
      <path id="Trazado_601107" data-name="Trazado 601107" d="M802.4,1171.327h79.813a2.924,2.924,0,0,0,2.915-2.915v-3.59a2.924,2.924,0,0,0-2.915-2.916H799.487v6.506a2.924,2.924,0,0,0,2.915,2.915" transform="translate(-674.041 -979.593)" fill="#8cb4f4"/>
      <path id="Trazado_601108" data-name="Trazado 601108" d="M1044.147,1171.327h50.879a2.355,2.355,0,0,0,2.348-2.349v-4.724a2.355,2.355,0,0,0-2.348-2.349h-50.879a2.355,2.355,0,0,0-2.349,2.349v4.724a2.356,2.356,0,0,0,2.349,2.349" transform="translate(-878.332 -979.593)" fill="#8cb4f4"/>
      <path id="Trazado_601109" data-name="Trazado 601109" d="M297.4,1151.6v1.762c0,.617-.2,1.121-.444,1.121H232.65c-.244,0-.443-.5-.443-1.121V1151.6c0-.616.2-1.121.443-1.121h64.31c.244,0,.444.505.444,1.121" transform="translate(-195.772 -969.956)" fill="#9abfe2"/>
      <path id="Trazado_601110" data-name="Trazado 601110" d="M369.015,1151.6v1.762c0,.617-.183,1.121-.407,1.121H317.553c-.224,0-.407-.5-.407-1.121V1151.6c0-.616.183-1.121.407-1.121h51.055c.224,0,.407.505.407,1.121" transform="translate(-267.383 -969.956)" fill="#bad4f4"/>
      <rect id="Rectángulo_293089" data-name="Rectángulo 293089" width="45.656" height="66.546" transform="translate(39.699 184.524)" fill="#c8dbf4"/>
      <rect id="Rectángulo_293090" data-name="Rectángulo 293090" width="45.656" height="66.546" transform="translate(52.494 184.524)" fill="#dfebfd"/>
      <path id="Trazado_601111" data-name="Trazado 601111" d="M390.938,1248.968H350.189v-60.992h40.749Zm-40.309-.44H390.5v-60.112H350.629Z" transform="translate(-295.241 -1001.572)" fill="#b7d3f3"/>
      <rect id="Rectángulo_293091" data-name="Rectángulo 293091" width="40.309" height="0.44" transform="translate(55.168 206.58)" fill="#b7d3f3"/>
      <rect id="Rectángulo_293092" data-name="Rectángulo 293092" width="40.309" height="0.44" transform="translate(55.168 227.15)" fill="#b7d3f3"/>
      <path id="Trazado_601112" data-name="Trazado 601112" d="M462.627,1205.953h-7.48a.66.66,0,1,1,0-1.32h7.48a.66.66,0,1,1,0,1.32" transform="translate(-383.174 -1015.616)" fill="#b7d3f3"/>
      <path id="Trazado_601113" data-name="Trazado 601113" d="M462.627,1334.149h-7.48a.66.66,0,0,1,0-1.32h7.48a.66.66,0,0,1,0,1.32" transform="translate(-383.174 -1123.696)" fill="#b7d3f3"/>
      <path id="Trazado_601114" data-name="Trazado 601114" d="M462.627,1467.786h-7.48a.66.66,0,1,1,0-1.32h7.48a.66.66,0,1,1,0,1.32" transform="translate(-383.174 -1236.365)" fill="#b7d3f3"/>
      <path id="Trazado_601115" data-name="Trazado 601115" d="M1633.881,250.332h-40.352a3.378,3.378,0,0,1-3.368-3.368V208.017a3.378,3.378,0,0,1,3.368-3.368h40.352a3.378,3.378,0,0,1,3.368,3.368v38.947a3.378,3.378,0,0,1-3.368,3.368" transform="translate(-1366.558 -162.002)" fill="#c0d8fb"/>
      <path id="Trazado_601116" data-name="Trazado 601116" d="M1639.416,255.42h-36.855a3.085,3.085,0,0,1-3.077-3.076V216.771a3.085,3.085,0,0,1,3.077-3.076h36.855a3.085,3.085,0,0,1,3.076,3.076v35.572a3.085,3.085,0,0,1-3.076,3.076" transform="translate(-1373.841 -169.07)" fill="#dfebfd"/>
      <path id="Trazado_601117" data-name="Trazado 601117" d="M1693.315,229.268a.975.975,0,1,1,.975.975.975.975,0,0,1-.975-.975" transform="translate(-1447.144 -180.474)" fill="#b7d3f3"/>
      <path id="Trazado_601118" data-name="Trazado 601118" d="M1728.849,237.261a.975.975,0,1,1,.379,1.326.975.975,0,0,1-.379-1.326" transform="translate(-1474.807 -187.088)" fill="#b7d3f3"/>
      <path id="Trazado_601119" data-name="Trazado 601119" d="M1758.514,262.981a.975.975,0,1,1-.291,1.348.975.975,0,0,1,.291-1.348" transform="translate(-1497.729 -207.451)" fill="#b7d3f3"/>
      <path id="Trazado_601120" data-name="Trazado 601120" d="M1771.891,301.436a.975.975,0,1,1-.976.975.975.975,0,0,1,.976-.975" transform="translate(-1507.766 -237.614)" fill="#b7d3f3"/>
      <path id="Trazado_601121" data-name="Trazado 601121" d="M1761.634,344.4a.975.975,0,1,1-1.38,0,.976.976,0,0,1,1.38,0" transform="translate(-1499.215 -270.954)" fill="#b7d3f3"/>
      <path id="Trazado_601122" data-name="Trazado 601122" d="M1733.638,372.466a.976.976,0,1,1-1.38,0,.975.975,0,0,1,1.38,0" transform="translate(-1477.344 -292.88)" fill="#b7d3f3"/>
      <path id="Trazado_601123" data-name="Trazado 601123" d="M1693.315,384.471a.975.975,0,1,1,.975.975.975.975,0,0,1-.975-.975" transform="translate(-1447.144 -301.72)" fill="#b7d3f3"/>
      <path id="Trazado_601124" data-name="Trazado 601124" d="M1659.586,237.261a.975.975,0,1,0-.378,1.326.975.975,0,0,0,.378-1.326" transform="translate(-1419.366 -187.088)" fill="#b7d3f3"/>
      <path id="Trazado_601125" data-name="Trazado 601125" d="M1629.924,262.981a.975.975,0,1,0,.291,1.348.975.975,0,0,0-.291-1.348" transform="translate(-1396.446 -207.451)" fill="#b7d3f3"/>
      <path id="Trazado_601126" data-name="Trazado 601126" d="M1616.546,301.436a.975.975,0,1,0,.975.975.975.975,0,0,0-.975-.975" transform="translate(-1386.408 -237.614)" fill="#b7d3f3"/>
      <path id="Trazado_601127" data-name="Trazado 601127" d="M1626.8,344.4a.975.975,0,1,0,1.38,0,.975.975,0,0,0-1.38,0" transform="translate(-1394.959 -270.954)" fill="#b7d3f3"/>
      <path id="Trazado_601128" data-name="Trazado 601128" d="M1654.8,372.466a.975.975,0,1,0,1.379,0,.975.975,0,0,0-1.379,0" transform="translate(-1416.831 -292.88)" fill="#b7d3f3"/>
      <path id="Trazado_601129" data-name="Trazado 601129" d="M1696.571,302.411a.975.975,0,1,1,.975.975.976.976,0,0,1-.975-.975" transform="translate(-1449.687 -237.614)" fill="#b7d3f3"/>
      <rect id="Rectángulo_293093" data-name="Rectángulo 293093" width="0.266" height="12.185" transform="translate(247.726 52.612)" fill="#b7d3f3"/>
      <rect id="Rectángulo_293094" data-name="Rectángulo 293094" width="8.213" height="0.799" transform="translate(247.489 64.466) rotate(-38.129)" fill="#b7d3f3"/>
      <path id="Trazado_601130" data-name="Trazado 601130" d="M1068.831,1086.4c-4.318,7.515-9.749,10.416-9.749,10.416h-22.593s35.636-16.149,32.342-10.416" transform="translate(-873.855 -914.893)" fill="#233862"/>
      <path id="Trazado_601131" data-name="Trazado 601131" d="M1414.131,1478.418c-.244,2.37,3.053,2.983,6.877,3.214s2.659,1,7.892,2.009,7.349-.406,7.737-1.111c.345-.625-2.083-1.634-4.668-2.773-.326-.142-.651-.289-.977-.435-2.91-1.317-4.523-3.957-6.776-6.412-2.135-2.326-4.106-9.721-4.106-9.721l-7.109-1.6s1.929,6.657,2.594,9.5a8.776,8.776,0,0,1-.782,4.939,9.335,9.335,0,0,0-.681,2.39" transform="translate(-1191.29 -1232.255)" fill="#ffb27d"/>
      <path id="Trazado_601132" data-name="Trazado 601132" d="M1427.011,1559.2c3.824.231,2.659,1,7.892,2.008s7.349-.406,7.736-1.111c.345-.625-2.083-1.634-4.668-2.773l-.041.044a14.932,14.932,0,0,1-7.943.01c-3.459-.979-6.79-3.088-9.172-3.783a9.332,9.332,0,0,0-.681,2.39c-.244,2.37,3.053,2.983,6.877,3.214" transform="translate(-1197.293 -1309.826)" fill="#0f2549"/>
      <path id="Trazado_601133" data-name="Trazado 601133" d="M983.193,929.782c-3.825-2.686-29.128-7.474-42.041-8.859l-14.272-12.389s-12.148,17.993-12.245,31.758c-.045,6.419,2.911,7.056,2.912,7.057s45.752.339,47.758.546c3.282.339,7.613,8.516,8.7,15.965s20.161,37.743,20.161,37.743,3.979,1.275,5.819,1.167a5.814,5.814,0,0,0,2.9-.779s-11.056-66.152-19.682-72.209" transform="translate(-771.122 -765.977)" fill="#233862"/>
      <path id="Trazado_601134" data-name="Trazado 601134" d="M1338.71,1478.418c-.244,2.37,3.053,2.983,6.877,3.214s2.659,1,7.892,2.009,7.349-.406,7.737-1.111c.345-.625-2.082-1.634-4.669-2.773-.325-.142-.651-.289-.977-.435-2.91-1.317-4.522-3.957-6.776-6.412-2.135-2.326-4.106-9.721-4.106-9.721l-7.109-1.6s1.929,6.657,2.594,9.5a8.777,8.777,0,0,1-.783,4.939,9.33,9.33,0,0,0-.681,2.39" transform="translate(-1127.703 -1232.255)" fill="#ffb27d"/>
      <path id="Trazado_601135" data-name="Trazado 601135" d="M1351.59,1559.2c3.824.231,2.659,1,7.892,2.008s7.35-.406,7.737-1.111c.345-.625-2.083-1.634-4.668-2.773l-.041.044a14.933,14.933,0,0,1-7.943.01c-3.458-.979-6.789-3.088-9.172-3.783a9.317,9.317,0,0,0-.681,2.39c-.244,2.37,3.053,2.983,6.877,3.214" transform="translate(-1133.706 -1309.826)" fill="#233862"/>
      <path id="Trazado_601136" data-name="Trazado 601136" d="M907.105,929.782c-3.323-2.333-13.318-4.142-24.351-5.485a7.422,7.422,0,0,1-6.3-5.57l-25.662-10.193s-12.148,17.993-12.245,31.758c-.045,6.419,2.911,7.056,2.912,7.057s45.752.339,47.758.546c3.283.339,7.613,8.516,8.7,15.965s20.161,37.743,20.161,37.743,3.979,1.275,5.819,1.167a5.813,5.813,0,0,0,2.895-.779s-11.056-66.152-19.682-72.209" transform="translate(-706.973 -765.977)" fill="#2b478b"/>
      <path id="Trazado_601137" data-name="Trazado 601137" d="M805.907,419.671c-3.527-1.852-8.892-2.1-9.764-2.219-10.431-1.4-16.71,13.756-17.079,18.349-.68,8.466-5.159,9.757-11.463,15.059-12.64,10.631-8.933,22.984-2.022,27.574,4.147,2.754,11.456,0,11.456,0,.1.072,19.99-11.117,29.792-16.514,14.7-2.089,8.065-37.528-.921-42.247" transform="translate(-640.113 -351.872)" fill="#233862"/>
      <path id="Trazado_601138" data-name="Trazado 601138" d="M967.816,590.564c.046.023-4.635,2.152-8.014,1.036-3.179-1.047-5.979-5.833-5.934-5.84,1.38-.2,2.782-1.561,3.174-9.626l.611.154,10.272,2.6s-.406,3.254-.574,6.331c-.142,2.583-.113,5.042.464,5.349" transform="translate(-804.198 -485.733)" fill="#ffb27d"/>
      <path id="Trazado_601139" data-name="Trazado 601139" d="M986.708,583.455s0,.67-.384,3.7c-5.81-1.465-8.372-3.392-10.178-5.6Z" transform="translate(-822.981 -490.304)" fill="#ed975d"/>
      <path id="Trazado_601140" data-name="Trazado 601140" d="M970.438,475.489s-13.584,2.212-14.831-6.269-3.84-13.907,4.78-15.677,10.785,1.217,11.89,3.946,1.662,17.206-1.839,18" transform="translate(-804.52 -381.929)" fill="#ffb27d"/>
      <path id="Trazado_601141" data-name="Trazado 601141" d="M950.645,445.988s-6.169,9.738-11.676,12.044-8.213,1.135-8.213,1.135a23.19,23.19,0,0,0,3.158-8.9,4.176,4.176,0,0,1,2.579-3.356c3.952-1.583,11.6-4.078,14.151-.924" transform="translate(-784.714 -374.729)" fill="#233862"/>
      <path id="Trazado_601142" data-name="Trazado 601142" d="M1022.974,446.144a21.506,21.506,0,0,1,5.1,3.591c1.437,1.676,3.1,6.226,2.978,8.268,0,0,1.784-9.791-1.931-13.156-3.939-3.569-6.152,1.3-6.152,1.3" transform="translate(-862.461 -373.944)" fill="#233862"/>
      <path id="Trazado_601143" data-name="Trazado 601143" d="M915.34,657.4c-.412,27.612-.113,21.842-3.134,24.462-.728.631-2.774,1.007-5.467,1.185-8.467.562-23.35-.833-23.916-2.4-1.953-5.414-.574-7.1-2.2-15.385-.17-.881-.38-1.836-.627-2.875-1.359-5.693-2.681-7.63,2.139-16.776,4.371-8.285,9.511-15.015,9.919-14.772,11.532,6.845,11.927,1.107,11.927,1.107s11.564,11.983,11.362,25.451" transform="translate(-740.855 -531.853)" fill="#5ad1a5"/>
      <path id="Trazado_601144" data-name="Trazado 601144" d="M1039.608,637.935s11.8,2,13.2,7.109,9.593,35.142,9.593,35.142-6.032,1.084-8.819-1.7-9.7-25.854-9.7-25.854Z" transform="translate(-876.485 -537.837)" fill="#5ad1a5"/>
      <path id="Trazado_601145" data-name="Trazado 601145" d="M916.865,806.257c-8.467.562-23.35-.833-23.916-2.4-1.953-5.414-.574-7.1-2.2-15.385l4.084-11.5s-.675,12.805,3.1,16.173,15.462,6.5,17.3,9.316a10.3,10.3,0,0,1,1.638,3.793" transform="translate(-750.98 -655.061)" fill="#39a17b"/>
      <path id="Trazado_601146" data-name="Trazado 601146" d="M995.386,922.32s8.353-1.86,9.7-1.119,4.642,3.441,5.054,4.38-3-.713-4.111-1.011c-.719-.193-2.611.465-3.548.777a11.792,11.792,0,0,1-6.358.638Z" transform="translate(-839.202 -776.509)" fill="#ffb27d"/>
      <path id="Trazado_601147" data-name="Trazado 601147" d="M814.951,630.879s-11.822.691-15.7,6.106c-5.466,7.623-16.308,40.111-10.094,44.443,7,4.88,31.848,1.277,31.848,1.277s.827-3.865-.324-5.735-19.849-4.89-20.711-5.753,10.787-16.828,10.787-19.417,4.2-20.921,4.2-20.921" transform="translate(-663.755 -531.888)" fill="#5ad1a5"/>
      <path id="Trazado_601148" data-name="Trazado 601148" d="M1059.788,936.957a16.155,16.155,0,0,0,2.324,2.527,1.713,1.713,0,0,0,.945.2l-1.179-2.123Z" transform="translate(-893.499 -789.94)" fill="#ffb27d"/>
      <path id="Trazado_601149" data-name="Trazado 601149" d="M1057.211,922.139l5.089,2.471a.907.907,0,0,1-.843.326,12.121,12.121,0,0,1-2.207-.606Z" transform="translate(-891.326 -777.447)" fill="#ffb27d"/>
      <path id="Trazado_601150" data-name="Trazado 601150" d="M1049.691,949.35h-23.633a1.884,1.884,0,0,1,1.884-1.884h21.75Z" transform="translate(-865.061 -798.8)" fill="#636363"/>
      <path id="Trazado_601151" data-name="Trazado 601151" d="M1127.878,795.437h36.539l-8.764,25.739h-36.775Z" transform="translate(-943.316 -670.626)" fill="#636363"/>
      <path id="Trazado_601152" data-name="Trazado 601152" d="M1167.845,795.434l-8.764,25.739h-36.776l9-25.739Z" transform="translate(-946.206 -670.623)" fill="#afafaf"/>
      <path id="Trazado_601153" data-name="Trazado 601153" d="M1267.6,866.37a2.375,2.375,0,0,1-2.192,1.781,1.371,1.371,0,0,1-1.369-1.781,2.375,2.375,0,0,1,2.192-1.781,1.371,1.371,0,0,1,1.37,1.781" transform="translate(-1065.662 -728.927)" fill="#fff"/>
      <path id="Trazado_601154" data-name="Trazado 601154" d="M967.446,965.265h160.123a1.219,1.219,0,0,0,1.219-1.219v-3.352a1.219,1.219,0,0,0-1.219-1.219H967.446a1.219,1.219,0,0,0-1.219,1.219v3.352a1.219,1.219,0,0,0,1.219,1.219" transform="translate(-814.618 -808.924)" fill="#182d4f"/>
      <path id="Trazado_601155" data-name="Trazado 601155" d="M1922.074,1076.481l.069-.008a1.47,1.47,0,0,0,1.3-1.635l-14.269-96.587-5.224.15,16.789,97.109a1.2,1.2,0,0,0,1.338.972" transform="translate(-1605.202 -824.754)" fill="#182d4f"/>
      <path id="Trazado_601156" data-name="Trazado 601156" d="M932.419,1076.481l-.068-.008a1.47,1.47,0,0,1-1.3-1.635l14.269-96.587,5.224.15-16.788,97.109a1.2,1.2,0,0,1-1.338.972" transform="translate(-784.953 -824.754)" fill="#182d4f"/>
      <path id="Trazado_601157" data-name="Trazado 601157" d="M1142.945,1076.481l-.068-.008a1.471,1.471,0,0,1-1.3-1.635l14.269-96.587,5.224.15-16.788,97.109a1.2,1.2,0,0,1-1.338.972" transform="translate(-962.445 -824.754)" fill="#182d4f"/>
      <path id="Trazado_601158" data-name="Trazado 601158" d="M444.071,1600.182H.606a.608.608,0,0,1-.606-.606v-.5a.608.608,0,0,1,.606-.606H444.071a.608.608,0,0,1,.606.606v.5a.608.608,0,0,1-.606.606" transform="translate(0 -1347.66)" fill="#3185af"/>
      <path id="Trazado_601159" data-name="Trazado 601159" d="M1686.85,1525.991h28.315c1.362-1.662.86-7.794.654-9.8-.043-.4-.072-.638-.072-.638s-9.669-7.734-11-1.812c-.04.186-.089.367-.143.546-1.673,5.539-9.179,8.056-13.512,8.758-2.818.457-3.859,1.922-4.244,2.943" transform="translate(-1422.169 -1274.343)" fill="#233862"/>
      <path id="Trazado_601160" data-name="Trazado 601160" d="M1852.224,1017.428c-1.022,0-48.5,8.915-56.355,18.636-3.923,4.856-4.507,60.944-4.507,60.944s4.854,6.018,15.337,2.524c0,0,7.686-38.374,7.118-50.014-.157-3.218,32.441-.466,38.407-2.01s20.544-14.523,17.332-20.846-17.332-9.235-17.332-9.235" transform="translate(-1510.283 -857.785)" fill="#233862"/>
      <path id="Trazado_601161" data-name="Trazado 601161" d="M1726.4,929.9s-9.578.129-11.843,1.1-6.859,3.2-5.63,3.541,7.1-.141,8.364.053a21.366,21.366,0,0,0,3.608-.053h4.4Z" transform="translate(-1440.607 -783.987)" fill="#ffb27d"/>
      <path id="Trazado_601162" data-name="Trazado 601162" d="M1645.638,714.888a17.5,17.5,0,0,0-6.436-2.786,27.881,27.881,0,0,1-4.63-.955c-2.926-1.031-8.78-6.295-8.337-6.912,1.42-1.979,8.254,2.209,9.447,1.759s-2.293-2.928-1.08-3.8c.634-.455,2.115,1.827,3.326,2.056,1.638.31,2.919,2.624,3.412,2.744.96.235,5.165,3.362,5.165,3.362Z" transform="translate(-1371.046 -591.963)" fill="#ffb27d"/>
      <path id="Trazado_601163" data-name="Trazado 601163" d="M1866.885,609.758s-7.29,2.26-14.473,22.039-9.91,20.848-12.522,21.624-25.529,5.339-25.529,5.339v5.87h35.313s13.242-12.6,17.211-21.076,0-33.8,0-33.8" transform="translate(-1529.673 -514.081)" fill="#ed7d2b"/>
      <path id="Trazado_601164" data-name="Trazado 601164" d="M1607.1,1525.991h28.315c1.361-1.662.86-7.794.654-9.8-.042-.4-.071-.638-.071-.638s-9.669-7.734-11-1.812c-.041.186-.09.367-.143.546-1.673,5.539-9.179,8.056-13.513,8.758-2.818.457-3.859,1.922-4.244,2.943" transform="translate(-1354.93 -1274.343)" fill="#1b3051"/>
      <path id="Trazado_601165" data-name="Trazado 601165" d="M1763.054,1017.428c-1.022,0-48.5,8.915-56.355,18.636-3.923,4.856-4.506,60.944-4.506,60.944s4.854,6.018,15.337,2.524c0,0,7.686-38.374,7.118-50.014-.157-3.218,32.441-.466,38.407-2.01s20.544-14.523,17.332-20.846-17.332-9.235-17.332-9.235" transform="translate(-1435.104 -857.785)" fill="#2b478b"/>
      <path id="Trazado_601166" data-name="Trazado 601166" d="M2093.047,513.26a46.081,46.081,0,0,0,10.092-2.2c3.869-1.255,6.988-3.09,4.978-6.627-1.852-3.259-4.85-10.54-4.648-16.571l-7.2,5.8-4.89,3.941a58.635,58.635,0,0,0,.555,6.395c.1.742.212,1.544.347,2.4a1.743,1.743,0,0,1-.8,1.752l-.11.069a2.731,2.731,0,0,0,1.68,5.037" transform="translate(-1762.126 -411.314)" fill="#ffb27d"/>
      <path id="Trazado_601167" data-name="Trazado 601167" d="M2098,527.568a11.9,11.9,0,0,0,.179,3.959c4.36-.711,8.436-4.189,8.436-4.189-2.22-.609-3.028-3.008-4.681-2.784Z" transform="translate(-1768.743 -442.233)" fill="#ed975d"/>
      <path id="Trazado_601168" data-name="Trazado 601168" d="M2055.1,399.29s16.771,2.786,18.345-7.685,4.8-17.163-5.842-19.385-13.327,1.461-14.7,4.828-2.122,21.247,2.2,22.242" transform="translate(-1729.88 -313.245)" fill="#ffb27d"/>
      <path id="Trazado_601169" data-name="Trazado 601169" d="M2042.138,360.446c-.721,2.521,1.207,5.593,4.442,6.6,4.8,1.5,3.741,7.392,5.9,7.312s3.033-3.386,4.963-.745c1.647,2.253-1.37,4.924-1.163,6.16.356,2.121,3.68,6.461,6.674,6.244s8.6-14.448,7.477-18.851-5.6-9.045-9.846-9.685-10.134,1.191-11.495,1.191-6.567.408-6.956,1.77" transform="translate(-1721.583 -301.277)" fill="#2b478b"/>
      <path id="Trazado_601170" data-name="Trazado 601170" d="M2065.906,594.992c-2.424-9.756-9.124-19.994-13.654-19.985-7.719.015-18.816,2.052-23.3,13.1-3.3,8.14-7.7,54.966-2.727,58.3,11.371,7.613,37.73,23.154,42.412,7.306,4.291-14.521,1.471-41.788-2.735-58.721" transform="translate(-1706.41 -484.783)" fill="#f99746"/>
      <path id="Trazado_601171" data-name="Trazado 601171" d="M1785.374,608.958a9.143,9.143,0,0,0-14.149-3.94,86.46,86.46,0,0,0-9.7,9.067c-14.406,15.34-17.333,15.245-20.039,14.928s-25.564-5.168-25.564-5.168a6.906,6.906,0,0,0-1.859,2.259,4.255,4.255,0,0,0-.457,3.135c-.9-.578,8.1,5.624,12.582,8.1,5.915,3.266,14.827,6.328,18.377,7.49a4.744,4.744,0,0,0,3.087-.046c5.269-1.9,22.963-8.819,37.367-20.827,3.8-3.164,2.4-9.684.359-15" transform="translate(-1444.626 -508.458)" fill="#f99746"/>
      <path id="Trazado_601172" data-name="Trazado 601172" d="M2101.488,554.451l-1.748-3.937s-15.644,1.276-18.273,10.179c0,0,12.126-6.051,20.021-6.242" transform="translate(-1754.868 -464.133)" fill="#fff"/>
      <path id="Trazado_601173" data-name="Trazado 601173" d="M2400.37,1276.887l.107,0a1.467,1.467,0,0,0,1.482-1.569l-5.893-58.851-5.142.459,8.462,59.168a.958.958,0,0,0,.983.8" transform="translate(-2015.769 -1025.591)" fill="#8cb4f4"/>
      <path id="Trazado_601174" data-name="Trazado 601174" d="M2207.065,1276.887l.108,0a1.467,1.467,0,0,0,1.482-1.569l-5.893-58.851-5.142.459,8.461,59.168a.957.957,0,0,0,.983.8" transform="translate(-1852.796 -1025.591)" fill="#8cb4f4"/>
      <path id="Trazado_601175" data-name="Trazado 601175" d="M1886.328,1276.887l-.108,0a1.467,1.467,0,0,1-1.482-1.569l5.893-58.851,5.142.459-8.462,59.168a.957.957,0,0,1-.983.8" transform="translate(-1589.001 -1025.591)" fill="#73a2e5"/>
      <path id="Trazado_601176" data-name="Trazado 601176" d="M2162.476,815.04l5.593-49.153c.733-7.083-1.637-14.019-11.859-14.556l-17.983-1.1c-10.658-.44-15.47,8.431-16.82,15.26l-10.676,54.032Z" transform="translate(-1779.541 -632.503)" fill="#8cb4f4"/>
      <path id="Trazado_601177" data-name="Trazado 601177" d="M1976.841,1171.327h-79.813a2.924,2.924,0,0,1-2.915-2.915v-3.59a2.924,2.924,0,0,1,2.915-2.916h82.728v6.506a2.924,2.924,0,0,1-2.916,2.915" transform="translate(-1596.911 -979.593)" fill="#73a2e5"/>
      <path id="Trazado_601178" data-name="Trazado 601178" d="M2160.121,1171.327H2113a2.271,2.271,0,0,1-2.264-2.264v-4.893a2.271,2.271,0,0,1,2.264-2.264h49.39v7.157a2.271,2.271,0,0,1-2.264,2.264" transform="translate(-1779.54 -979.593)" fill="#8cb4f4"/>
    </g>
    <path id="Trazado_602593" data-name="Trazado 602593" d="M0,0H300V45H0Z" transform="translate(650 9757.609)" fill="#3185af"/>
    <path id="Trazado_602594" data-name="Trazado 602594" d="M81.179,13.454H76.117v3.428h5.941V19H73.48V6.2h8.561V8.339H76.117v3.05h5.063Zm4.6-3.964.079,1.1a3.32,3.32,0,0,1,2.733-1.274,2.759,2.759,0,0,1,2.25.888,4.142,4.142,0,0,1,.756,2.654V19h-2.54V12.918a1.648,1.648,0,0,0-.352-1.173,1.574,1.574,0,0,0-1.169-.365,1.747,1.747,0,0,0-1.608.914V19h-2.54V9.49ZM96.56,7.152V9.49h1.626v1.863H96.56V16.1a1.133,1.133,0,0,0,.2.756,1.015,1.015,0,0,0,.773.229,4.051,4.051,0,0,0,.747-.062v1.925a5.229,5.229,0,0,1-1.538.229,2.425,2.425,0,0,1-2.725-2.7V11.354H92.631V9.49H94.02V7.152Zm8.385,4.72a6.9,6.9,0,0,0-.914-.07,1.86,1.86,0,0,0-1.89.976V19H99.6V9.49H102l.07,1.134a2.354,2.354,0,0,1,2.118-1.31,2.662,2.662,0,0,1,.791.114Zm5.6,7.3a4.668,4.668,0,0,1-3.406-1.283,4.561,4.561,0,0,1-1.314-3.419v-.246a5.745,5.745,0,0,1,.554-2.562,4.064,4.064,0,0,1,1.569-1.74,4.4,4.4,0,0,1,2.316-.611,3.947,3.947,0,0,1,3.072,1.23,5,5,0,0,1,1.121,3.489v1.037H108.4a2.36,2.36,0,0,0,.743,1.494,2.245,2.245,0,0,0,1.569.563A2.742,2.742,0,0,0,113,16.064l1.248,1.4a3.813,3.813,0,0,1-1.547,1.261A5.075,5.075,0,0,1,110.543,19.176Zm-.29-7.813a1.587,1.587,0,0,0-1.226.512,2.651,2.651,0,0,0-.6,1.466h3.533v-.2a1.891,1.891,0,0,0-.457-1.311A1.638,1.638,0,0,0,110.253,11.362Zm9.088,4.535,1.767-6.407h2.654L120.554,19h-2.426L114.92,9.49h2.654Zm8.218,3.1H125.01V9.49h2.549Zm-2.7-11.971a1.251,1.251,0,0,1,.382-.94,1.648,1.648,0,0,1,2.079,0,1.244,1.244,0,0,1,.387.94,1.247,1.247,0,0,1-.391.949,1.629,1.629,0,0,1-2.065,0A1.247,1.247,0,0,1,124.861,7.029Zm9.94,9.343a.818.818,0,0,0-.461-.734,5.241,5.241,0,0,0-1.481-.479q-3.393-.712-3.393-2.883a2.613,2.613,0,0,1,1.05-2.114,4.237,4.237,0,0,1,2.747-.848,4.56,4.56,0,0,1,2.9.853,2.687,2.687,0,0,1,1.085,2.215H134.7a1.229,1.229,0,0,0-.352-.9,1.488,1.488,0,0,0-1.1-.356,1.52,1.52,0,0,0-.993.29.916.916,0,0,0-.352.738.783.783,0,0,0,.4.681,4.114,4.114,0,0,0,1.349.448,11.019,11.019,0,0,1,1.6.426,2.628,2.628,0,0,1,2.013,2.558,2.481,2.481,0,0,1-1.116,2.1,4.815,4.815,0,0,1-2.883.8,5.029,5.029,0,0,1-2.123-.426,3.561,3.561,0,0,1-1.455-1.169,2.716,2.716,0,0,1-.527-1.6h2.408a1.326,1.326,0,0,0,.5,1.037,1.987,1.987,0,0,0,1.248.36,1.839,1.839,0,0,0,1.1-.277A.861.861,0,0,0,134.8,16.372Zm7.146-9.22V9.49h1.626v1.863h-1.626V16.1a1.133,1.133,0,0,0,.2.756,1.015,1.015,0,0,0,.773.229,4.051,4.051,0,0,0,.747-.062v1.925a5.229,5.229,0,0,1-1.538.229,2.425,2.425,0,0,1-2.725-2.7V11.354h-1.389V9.49h1.389V7.152ZM150.5,19a2.821,2.821,0,0,1-.255-.853,3.073,3.073,0,0,1-2.4,1.028,3.376,3.376,0,0,1-2.316-.809,2.6,2.6,0,0,1-.918-2.039,2.687,2.687,0,0,1,1.121-2.32,5.529,5.529,0,0,1,3.239-.817h1.169v-.545a1.567,1.567,0,0,0-.338-1.055,1.331,1.331,0,0,0-1.068-.4,1.513,1.513,0,0,0-1.006.308,1.045,1.045,0,0,0-.365.844h-2.54a2.551,2.551,0,0,1,.51-1.529,3.37,3.37,0,0,1,1.441-1.1,5.253,5.253,0,0,1,2.092-.4,4.15,4.15,0,0,1,2.791.883,3.09,3.09,0,0,1,1.033,2.483V16.8a4.546,4.546,0,0,0,.378,2.048V19Zm-2.1-1.767a2.188,2.188,0,0,0,1.037-.25,1.645,1.645,0,0,0,.7-.672V14.676h-.949q-1.907,0-2.03,1.318l-.009.149a1.017,1.017,0,0,0,.334.782A1.3,1.3,0,0,0,148.4,17.233Z" transform="translate(689 9767.609)" fill="#fff"/>
    <path id="Trazado_602595" data-name="Trazado 602595" d="M0,0H38V45H0Z" transform="translate(643 9757.609)" fill="#7ec1ec"/>
    <path id="Trazado_602596" data-name="Trazado 602596" d="M0,0H264V42H0Z" transform="translate(1051 9908.609)" fill="#f2f5d1"/>
    <path id="Trazado_602597" data-name="Trazado 602597" d="M0,0H264V42H0Z" transform="translate(299 9908.609)" fill="#f2f5d1"/>
    <path id="Trazado_602598" data-name="Trazado 602598" d="M71.849,18h-2.49l-4.848-7.952V18h-2.49V5.914h2.49l4.856,7.969V5.914h2.482Zm1.644-4.574a5.326,5.326,0,0,1,.515-2.382,3.768,3.768,0,0,1,1.482-1.619,4.323,4.323,0,0,1,2.245-.573A4.09,4.09,0,0,1,80.7,9.965a4.464,4.464,0,0,1,1.282,3.021L82,13.6a4.694,4.694,0,0,1-1.154,3.316,4.472,4.472,0,0,1-6.2,0,4.777,4.777,0,0,1-1.158-3.387Zm2.4.17a3.357,3.357,0,0,0,.481,1.958,1.73,1.73,0,0,0,2.739.008,3.674,3.674,0,0,0,.49-2.141,3.324,3.324,0,0,0-.49-1.945,1.592,1.592,0,0,0-1.378-.69,1.566,1.566,0,0,0-1.361.686A3.736,3.736,0,0,0,75.891,13.6Zm15.954,4.569a4.409,4.409,0,0,1-3.217-1.212,4.308,4.308,0,0,1-1.241-3.229v-.232a5.426,5.426,0,0,1,.523-2.42,3.838,3.838,0,0,1,1.482-1.644,4.159,4.159,0,0,1,2.187-.577,3.727,3.727,0,0,1,2.9,1.162,4.722,4.722,0,0,1,1.058,3.3v.979H89.82a2.229,2.229,0,0,0,.7,1.411A2.12,2.12,0,0,0,92,16.232a2.589,2.589,0,0,0,2.167-1l1.179,1.32a3.6,3.6,0,0,1-1.461,1.191A4.793,4.793,0,0,1,91.845,18.166Zm-.274-7.379a1.5,1.5,0,0,0-1.158.484,2.5,2.5,0,0,0-.569,1.384h3.337v-.192a1.786,1.786,0,0,0-.432-1.238A1.547,1.547,0,0,0,91.571,10.787Zm10.193,4.731a.773.773,0,0,0-.436-.693,4.95,4.95,0,0,0-1.4-.452q-3.2-.672-3.2-2.723a2.468,2.468,0,0,1,.992-2,4,4,0,0,1,2.594-.8,4.307,4.307,0,0,1,2.735.805,2.538,2.538,0,0,1,1.025,2.092h-2.4a1.161,1.161,0,0,0-.332-.851,1.405,1.405,0,0,0-1.038-.336,1.436,1.436,0,0,0-.938.274.865.865,0,0,0-.332.7.739.739,0,0,0,.378.643,3.885,3.885,0,0,0,1.274.423,10.407,10.407,0,0,1,1.511.4,2.482,2.482,0,0,1,1.9,2.416,2.343,2.343,0,0,1-1.054,1.988,4.548,4.548,0,0,1-2.723.76,4.75,4.75,0,0,1-2-.4,3.363,3.363,0,0,1-1.374-1.1,2.565,2.565,0,0,1-.5-1.515h2.274a1.252,1.252,0,0,0,.473.979,1.877,1.877,0,0,0,1.179.34,1.737,1.737,0,0,0,1.042-.261A.814.814,0,0,0,101.765,15.518Zm6.749-8.708V9.019h1.536v1.76h-1.536v4.482a1.07,1.07,0,0,0,.191.714.959.959,0,0,0,.73.216,3.826,3.826,0,0,0,.706-.058V17.95a4.938,4.938,0,0,1-1.453.216,2.29,2.29,0,0,1-2.573-2.548V10.778H104.8V9.019h1.312V6.811Zm7.919,4.458a6.517,6.517,0,0,0-.863-.066,1.757,1.757,0,0,0-1.785.921V18h-2.4V9.019h2.266l.066,1.071a2.223,2.223,0,0,1,2-1.237,2.514,2.514,0,0,1,.747.108Zm6.533,5.819a3.008,3.008,0,0,1-2.457,1.079,2.837,2.837,0,0,1-2.2-.83,3.543,3.543,0,0,1-.776-2.432V9.019h2.4v5.809q0,1.4,1.278,1.4a1.732,1.732,0,0,0,1.677-.848V9.019h2.407V18h-2.258Zm7.869-.855a1.573,1.573,0,0,0,1.079-.365,1.28,1.28,0,0,0,.432-.971h2.25a3.077,3.077,0,0,1-.5,1.673,3.286,3.286,0,0,1-1.341,1.179,4.2,4.2,0,0,1-1.88.419,3.9,3.9,0,0,1-3.038-1.224,4.845,4.845,0,0,1-1.112-3.383V13.4a4.79,4.79,0,0,1,1.1-3.312,3.854,3.854,0,0,1,3.03-1.237,3.778,3.778,0,0,1,2.7.959,3.4,3.4,0,0,1,1.033,2.552h-2.25a1.648,1.648,0,0,0-.432-1.139,1.6,1.6,0,0,0-2.362.173,3.541,3.541,0,0,0-.427,1.983v.249a3.586,3.586,0,0,0,.423,2A1.463,1.463,0,0,0,130.834,16.232Zm8-9.421V9.019h1.536v1.76h-1.536v4.482a1.07,1.07,0,0,0,.191.714.959.959,0,0,0,.73.216,3.826,3.826,0,0,0,.706-.058V17.95a4.939,4.939,0,0,1-1.453.216,2.29,2.29,0,0,1-2.573-2.548V10.778h-1.312V9.019h1.312V6.811Zm8.251,10.276a3.008,3.008,0,0,1-2.457,1.079,2.837,2.837,0,0,1-2.2-.83,3.543,3.543,0,0,1-.776-2.432V9.019h2.4v5.809q0,1.4,1.278,1.4A1.732,1.732,0,0,0,147,15.384V9.019h2.407V18h-2.258Zm9.181-5.819a6.517,6.517,0,0,0-.863-.066,1.757,1.757,0,0,0-1.785.921V18h-2.4V9.019h2.266l.066,1.071a2.223,2.223,0,0,1,2-1.237,2.514,2.514,0,0,1,.747.108ZM162.377,18a2.664,2.664,0,0,1-.241-.805,2.9,2.9,0,0,1-2.266.971,3.189,3.189,0,0,1-2.187-.764,2.456,2.456,0,0,1-.867-1.926,2.538,2.538,0,0,1,1.058-2.191,5.222,5.222,0,0,1,3.059-.772h1.1V12a1.48,1.48,0,0,0-.32-1,1.257,1.257,0,0,0-1.009-.374,1.429,1.429,0,0,0-.95.291.987.987,0,0,0-.344.8h-2.4a2.41,2.41,0,0,1,.481-1.444,3.182,3.182,0,0,1,1.361-1.042,4.961,4.961,0,0,1,1.976-.378,3.92,3.92,0,0,1,2.635.834,2.918,2.918,0,0,1,.975,2.345v3.893a4.294,4.294,0,0,0,.357,1.934V18Zm-1.984-1.668a2.066,2.066,0,0,0,.979-.237,1.554,1.554,0,0,0,.664-.635V13.916h-.9q-1.8,0-1.917,1.245l-.008.141a.96.96,0,0,0,.315.739A1.225,1.225,0,0,0,160.393,16.332Zm5.52-2.889a5.413,5.413,0,0,1,.942-3.345,3.057,3.057,0,0,1,2.577-1.245,2.751,2.751,0,0,1,2.167.979V5.25h2.407V18H171.84l-.116-.955a2.823,2.823,0,0,1-2.308,1.121,3.049,3.049,0,0,1-2.544-1.249A5.587,5.587,0,0,1,165.913,13.443Zm2.4.179a3.546,3.546,0,0,0,.44,1.937,1.433,1.433,0,0,0,1.278.673,1.605,1.605,0,0,0,1.569-.939v-3.55a1.582,1.582,0,0,0-1.552-.939Q168.312,10.8,168.312,13.621ZM181.07,18a2.664,2.664,0,0,1-.241-.805,2.9,2.9,0,0,1-2.266.971,3.189,3.189,0,0,1-2.187-.764,2.456,2.456,0,0,1-.867-1.926,2.538,2.538,0,0,1,1.058-2.191,5.222,5.222,0,0,1,3.059-.772h1.1V12a1.48,1.48,0,0,0-.32-1,1.257,1.257,0,0,0-1.009-.374,1.429,1.429,0,0,0-.95.291.987.987,0,0,0-.344.8h-2.4a2.41,2.41,0,0,1,.481-1.444,3.182,3.182,0,0,1,1.361-1.042,4.961,4.961,0,0,1,1.976-.378,3.92,3.92,0,0,1,2.635.834,2.918,2.918,0,0,1,.975,2.345v3.893a4.294,4.294,0,0,0,.357,1.934V18Zm-1.984-1.668a2.066,2.066,0,0,0,.979-.237,1.554,1.554,0,0,0,.664-.635V13.916h-.9q-1.8,0-1.917,1.245l-.008.141a.96.96,0,0,0,.315.739A1.225,1.225,0,0,0,179.086,16.332Z" transform="translate(1070 9918.609)" fill="#12263f"/>
    <g id="Grupo_874666" data-name="Grupo 874666" transform="translate(1350 11744.142) rotate(180)">
      <circle id="Elipse_4713" data-name="Elipse 4713" cx="2.5" cy="2.5" r="2.5" transform="translate(285 1799.532)" fill="#b5c500"/>
      <circle id="Elipse_4717" data-name="Elipse 4717" cx="2.5" cy="2.5" r="2.5" transform="translate(285 1811.532)" fill="#b5c500"/>
      <circle id="Elipse_4719" data-name="Elipse 4719" cx="2.5" cy="2.5" r="2.5" transform="translate(285 1823.532)" fill="#b5c500"/>
      <circle id="Elipse_4715" data-name="Elipse 4715" cx="2.5" cy="2.5" r="2.5" transform="translate(297 1799.532)" fill="#b5c500"/>
      <circle id="Elipse_4720" data-name="Elipse 4720" cx="2.5" cy="2.5" r="2.5" transform="translate(308 1799.532)" fill="#b5c500"/>
      <circle id="Elipse_4716" data-name="Elipse 4716" cx="2.5" cy="2.5" r="2.5" transform="translate(297 1811.532)" fill="#b5c500"/>
      <circle id="Elipse_4721" data-name="Elipse 4721" cx="2.5" cy="2.5" r="2.5" transform="translate(308 1811.532)" fill="#b5c500"/>
      <circle id="Elipse_4718" data-name="Elipse 4718" cx="2.5" cy="2.5" r="2.5" transform="translate(297 1823.532)" fill="#b5c500"/>
      <circle id="Elipse_4722" data-name="Elipse 4722" cx="2.5" cy="2.5" r="2.5" transform="translate(308 1823.532)" fill="#b5c500"/>
    </g>
    <g id="Grupo_874667" data-name="Grupo 874667" transform="translate(598 11744.142) rotate(180)">
      <circle id="Elipse_4713-2" data-name="Elipse 4713" cx="2.5" cy="2.5" r="2.5" transform="translate(285 1799.532)" fill="#b5c500"/>
      <circle id="Elipse_4717-2" data-name="Elipse 4717" cx="2.5" cy="2.5" r="2.5" transform="translate(285 1811.532)" fill="#b5c500"/>
      <circle id="Elipse_4719-2" data-name="Elipse 4719" cx="2.5" cy="2.5" r="2.5" transform="translate(285 1823.532)" fill="#b5c500"/>
      <circle id="Elipse_4715-2" data-name="Elipse 4715" cx="2.5" cy="2.5" r="2.5" transform="translate(297 1799.532)" fill="#b5c500"/>
      <circle id="Elipse_4720-2" data-name="Elipse 4720" cx="2.5" cy="2.5" r="2.5" transform="translate(308 1799.532)" fill="#b5c500"/>
      <circle id="Elipse_4716-2" data-name="Elipse 4716" cx="2.5" cy="2.5" r="2.5" transform="translate(297 1811.532)" fill="#b5c500"/>
      <circle id="Elipse_4721-2" data-name="Elipse 4721" cx="2.5" cy="2.5" r="2.5" transform="translate(308 1811.532)" fill="#b5c500"/>
      <circle id="Elipse_4718-2" data-name="Elipse 4718" cx="2.5" cy="2.5" r="2.5" transform="translate(297 1823.532)" fill="#b5c500"/>
      <circle id="Elipse_4722-2" data-name="Elipse 4722" cx="2.5" cy="2.5" r="2.5" transform="translate(308 1823.532)" fill="#b5c500"/>
    </g>
    <g id="Grupo_874669" data-name="Grupo 874669" transform="translate(81 2818.609)">
      <rect id="Rectángulo_291481" data-name="Rectángulo 291481" width="264" height="42" transform="translate(594 7090)" fill="#f2f5d1"/>
      <g id="Grupo_874668" data-name="Grupo 874668" transform="translate(893 8925.532) rotate(180)">
        <circle id="Elipse_4713-3" data-name="Elipse 4713" cx="2.5" cy="2.5" r="2.5" transform="translate(285 1799.532)" fill="#b5c500"/>
        <circle id="Elipse_4717-3" data-name="Elipse 4717" cx="2.5" cy="2.5" r="2.5" transform="translate(285 1811.532)" fill="#b5c500"/>
        <circle id="Elipse_4719-3" data-name="Elipse 4719" cx="2.5" cy="2.5" r="2.5" transform="translate(285 1823.532)" fill="#b5c500"/>
        <circle id="Elipse_4715-3" data-name="Elipse 4715" cx="2.5" cy="2.5" r="2.5" transform="translate(297 1799.532)" fill="#b5c500"/>
        <circle id="Elipse_4720-3" data-name="Elipse 4720" cx="2.5" cy="2.5" r="2.5" transform="translate(308 1799.532)" fill="#b5c500"/>
        <circle id="Elipse_4716-3" data-name="Elipse 4716" cx="2.5" cy="2.5" r="2.5" transform="translate(297 1811.532)" fill="#b5c500"/>
        <circle id="Elipse_4721-3" data-name="Elipse 4721" cx="2.5" cy="2.5" r="2.5" transform="translate(308 1811.532)" fill="#b5c500"/>
        <circle id="Elipse_4718-3" data-name="Elipse 4718" cx="2.5" cy="2.5" r="2.5" transform="translate(297 1823.532)" fill="#b5c500"/>
        <circle id="Elipse_4722-3" data-name="Elipse 4722" cx="2.5" cy="2.5" r="2.5" transform="translate(308 1823.532)" fill="#b5c500"/>
      </g>
    </g>
    <path id="Trazado_602599" data-name="Trazado 602599" d="M83.03,12.762H78.248V16H83.86v2h-8.1V5.914h8.085V7.931H78.248v2.88H83.03Zm7,2.756a.773.773,0,0,0-.436-.693,4.95,4.95,0,0,0-1.4-.452q-3.2-.672-3.2-2.723a2.468,2.468,0,0,1,.992-2,4,4,0,0,1,2.594-.8,4.307,4.307,0,0,1,2.735.805,2.538,2.538,0,0,1,1.025,2.092h-2.4A1.161,1.161,0,0,0,89.6,10.9a1.405,1.405,0,0,0-1.038-.336,1.436,1.436,0,0,0-.938.274.865.865,0,0,0-.332.7.739.739,0,0,0,.378.643,3.885,3.885,0,0,0,1.274.423,10.407,10.407,0,0,1,1.511.4,2.482,2.482,0,0,1,1.9,2.416,2.343,2.343,0,0,1-1.054,1.988,4.548,4.548,0,0,1-2.723.76,4.75,4.75,0,0,1-2-.4,3.363,3.363,0,0,1-1.374-1.1,2.565,2.565,0,0,1-.5-1.515h2.274a1.252,1.252,0,0,0,.473.979,1.877,1.877,0,0,0,1.179.34,1.737,1.737,0,0,0,1.042-.261A.814.814,0,0,0,90.027,15.518Zm6.749-8.708V9.019h1.536v1.76H96.776v4.482a1.07,1.07,0,0,0,.191.714.959.959,0,0,0,.73.216,3.826,3.826,0,0,0,.706-.058V17.95a4.938,4.938,0,0,1-1.453.216,2.29,2.29,0,0,1-2.573-2.548V10.778H93.065V9.019h1.312V6.811Zm7.919,4.458a6.517,6.517,0,0,0-.863-.066,1.757,1.757,0,0,0-1.785.921V18h-2.4V9.019h2.266l.066,1.071a2.223,2.223,0,0,1,2-1.237,2.514,2.514,0,0,1,.747.108Zm6.533,5.819a3.008,3.008,0,0,1-2.457,1.079,2.837,2.837,0,0,1-2.2-.83,3.543,3.543,0,0,1-.776-2.432V9.019h2.4v5.809q0,1.4,1.278,1.4a1.732,1.732,0,0,0,1.677-.848V9.019h2.407V18h-2.258Zm7.869-.855a1.573,1.573,0,0,0,1.079-.365,1.28,1.28,0,0,0,.432-.971h2.25a3.077,3.077,0,0,1-.5,1.673,3.286,3.286,0,0,1-1.341,1.179,4.2,4.2,0,0,1-1.88.419,3.9,3.9,0,0,1-3.038-1.224,4.845,4.845,0,0,1-1.112-3.383V13.4a4.79,4.79,0,0,1,1.1-3.312,3.854,3.854,0,0,1,3.03-1.237,3.778,3.778,0,0,1,2.7.959,3.4,3.4,0,0,1,1.033,2.552h-2.25a1.648,1.648,0,0,0-.432-1.139,1.6,1.6,0,0,0-2.362.173,3.541,3.541,0,0,0-.427,1.983v.249a3.586,3.586,0,0,0,.423,2A1.463,1.463,0,0,0,119.1,16.232Zm8-9.421V9.019h1.536v1.76H127.1v4.482a1.07,1.07,0,0,0,.191.714.959.959,0,0,0,.73.216,3.826,3.826,0,0,0,.706-.058V17.95a4.939,4.939,0,0,1-1.453.216,2.29,2.29,0,0,1-2.573-2.548V10.778h-1.312V9.019H124.7V6.811Zm8.251,10.276a3.008,3.008,0,0,1-2.457,1.079,2.837,2.837,0,0,1-2.2-.83,3.543,3.543,0,0,1-.776-2.432V9.019h2.4v5.809q0,1.4,1.278,1.4a1.732,1.732,0,0,0,1.677-.848V9.019h2.407V18h-2.258Zm9.181-5.819a6.517,6.517,0,0,0-.863-.066,1.757,1.757,0,0,0-1.785.921V18h-2.4V9.019h2.266l.066,1.071a2.223,2.223,0,0,1,2-1.237,2.514,2.514,0,0,1,.747.108ZM150.639,18a2.664,2.664,0,0,1-.241-.805,2.9,2.9,0,0,1-2.266.971,3.189,3.189,0,0,1-2.187-.764,2.456,2.456,0,0,1-.867-1.926,2.538,2.538,0,0,1,1.058-2.191,5.222,5.222,0,0,1,3.059-.772h1.1V12a1.48,1.48,0,0,0-.32-1,1.257,1.257,0,0,0-1.009-.374,1.429,1.429,0,0,0-.95.291.987.987,0,0,0-.344.8h-2.4a2.41,2.41,0,0,1,.481-1.444A3.182,3.182,0,0,1,147.12,9.23a4.961,4.961,0,0,1,1.976-.378,3.92,3.92,0,0,1,2.635.834,2.918,2.918,0,0,1,.975,2.345v3.893a4.294,4.294,0,0,0,.357,1.934V18Zm-1.984-1.668a2.066,2.066,0,0,0,.979-.237,1.554,1.554,0,0,0,.664-.635V13.916h-.9q-1.8,0-1.917,1.245l-.008.141a.96.96,0,0,0,.315.739A1.225,1.225,0,0,0,148.656,16.332Zm5.52-2.889a5.413,5.413,0,0,1,.942-3.345A3.057,3.057,0,0,1,157.7,8.853a2.751,2.751,0,0,1,2.167.979V5.25h2.407V18H160.1l-.116-.955a2.823,2.823,0,0,1-2.308,1.121,3.049,3.049,0,0,1-2.544-1.249A5.587,5.587,0,0,1,154.176,13.443Zm2.4.179a3.546,3.546,0,0,0,.44,1.937,1.433,1.433,0,0,0,1.278.673,1.605,1.605,0,0,0,1.569-.939v-3.55a1.582,1.582,0,0,0-1.552-.939Q156.574,10.8,156.574,13.621ZM169.333,18a2.664,2.664,0,0,1-.241-.805,2.9,2.9,0,0,1-2.266.971,3.189,3.189,0,0,1-2.187-.764,2.456,2.456,0,0,1-.867-1.926,2.538,2.538,0,0,1,1.058-2.191,5.222,5.222,0,0,1,3.059-.772h1.1V12a1.48,1.48,0,0,0-.32-1,1.257,1.257,0,0,0-1.009-.374,1.429,1.429,0,0,0-.95.291.987.987,0,0,0-.344.8h-2.4a2.41,2.41,0,0,1,.481-1.444,3.182,3.182,0,0,1,1.361-1.042,4.961,4.961,0,0,1,1.976-.378,3.92,3.92,0,0,1,2.635.834,2.918,2.918,0,0,1,.975,2.345v3.893a4.294,4.294,0,0,0,.357,1.934V18Zm-1.984-1.668a2.066,2.066,0,0,0,.979-.237,1.554,1.554,0,0,0,.664-.635V13.916h-.9q-1.8,0-1.917,1.245l-.008.141a.96.96,0,0,0,.315.739A1.225,1.225,0,0,0,167.349,16.332Z" transform="translate(316 9918.609)" fill="#12263f"/>
    <path id="Trazado_602600" data-name="Trazado 602600" d="M64.78,14.829a1.278,1.278,0,0,0-.5-1.083,6.533,6.533,0,0,0-1.793-.8,12.71,12.71,0,0,1-2.05-.826,3.35,3.35,0,0,1-2.059-3,2.919,2.919,0,0,1,.552-1.747,3.6,3.6,0,0,1,1.585-1.2,5.967,5.967,0,0,1,2.32-.432,5.432,5.432,0,0,1,2.308.469,3.674,3.674,0,0,1,1.573,1.324,3.464,3.464,0,0,1,.56,1.942h-2.49a1.63,1.63,0,0,0-.523-1.291A2.15,2.15,0,0,0,62.8,7.732a2.3,2.3,0,0,0-1.419.386,1.217,1.217,0,0,0-.506,1.017,1.166,1.166,0,0,0,.594.988,6.705,6.705,0,0,0,1.747.747,7.55,7.55,0,0,1,3.1,1.585,3.157,3.157,0,0,1,.971,2.357,2.909,2.909,0,0,1-1.187,2.461,5.2,5.2,0,0,1-3.2.892,6.171,6.171,0,0,1-2.54-.51,4.019,4.019,0,0,1-1.747-1.4,3.582,3.582,0,0,1-.6-2.059h2.5q0,2,2.391,2a2.326,2.326,0,0,0,1.386-.361A1.175,1.175,0,0,0,64.78,14.829Zm8.16,3.337a4.409,4.409,0,0,1-3.217-1.212,4.308,4.308,0,0,1-1.241-3.229v-.232A5.426,5.426,0,0,1,69,11.073a3.838,3.838,0,0,1,1.482-1.644,4.159,4.159,0,0,1,2.187-.577,3.727,3.727,0,0,1,2.9,1.162,4.722,4.722,0,0,1,1.058,3.3v.979H70.914a2.229,2.229,0,0,0,.7,1.411,2.12,2.12,0,0,0,1.482.531,2.589,2.589,0,0,0,2.167-1l1.179,1.32a3.6,3.6,0,0,1-1.461,1.191A4.793,4.793,0,0,1,72.939,18.166Zm-.274-7.379a1.5,1.5,0,0,0-1.158.484,2.5,2.5,0,0,0-.569,1.384h3.337v-.192a1.786,1.786,0,0,0-.432-1.238A1.547,1.547,0,0,0,72.666,10.787Zm7.579-1.768.075,1A3.156,3.156,0,0,1,82.9,8.853a2.4,2.4,0,0,1,2.382,1.37,3.084,3.084,0,0,1,2.7-1.37,2.679,2.679,0,0,1,2.175.851,3.911,3.911,0,0,1,.714,2.561V18H88.462V12.272a1.71,1.71,0,0,0-.3-1.116,1.324,1.324,0,0,0-1.054-.353,1.5,1.5,0,0,0-1.494,1.029L85.623,18h-2.4V12.281a1.689,1.689,0,0,0-.307-1.129,1.337,1.337,0,0,0-1.046-.349,1.555,1.555,0,0,0-1.478.847V18h-2.4V9.019Zm15,8.981H92.836V9.019h2.407ZM92.7,6.694a1.181,1.181,0,0,1,.361-.888,1.556,1.556,0,0,1,1.963,0,1.175,1.175,0,0,1,.365.888,1.178,1.178,0,0,1-.369.9,1.539,1.539,0,0,1-1.951,0A1.178,1.178,0,0,1,92.7,6.694Zm8.658,11.472a4.409,4.409,0,0,1-3.217-1.212A4.308,4.308,0,0,1,96.9,13.725v-.232a5.426,5.426,0,0,1,.523-2.42A3.838,3.838,0,0,1,98.9,9.429a4.159,4.159,0,0,1,2.187-.577,3.727,3.727,0,0,1,2.9,1.162,4.722,4.722,0,0,1,1.058,3.3v.979H99.328a2.229,2.229,0,0,0,.7,1.411,2.12,2.12,0,0,0,1.482.531,2.589,2.589,0,0,0,2.167-1l1.179,1.32a3.6,3.6,0,0,1-1.461,1.191A4.793,4.793,0,0,1,101.353,18.166Zm-.274-7.379a1.5,1.5,0,0,0-1.158.484,2.5,2.5,0,0,0-.569,1.384h3.337v-.192a1.786,1.786,0,0,0-.432-1.238A1.547,1.547,0,0,0,101.079,10.787Zm10.193,4.731a.773.773,0,0,0-.436-.693,4.95,4.95,0,0,0-1.4-.452q-3.2-.672-3.2-2.723a2.468,2.468,0,0,1,.992-2,4,4,0,0,1,2.594-.8,4.307,4.307,0,0,1,2.735.805,2.538,2.538,0,0,1,1.025,2.092h-2.4a1.161,1.161,0,0,0-.332-.851,1.405,1.405,0,0,0-1.038-.336,1.436,1.436,0,0,0-.938.274.865.865,0,0,0-.332.7.739.739,0,0,0,.378.643,3.885,3.885,0,0,0,1.274.423,10.407,10.407,0,0,1,1.511.4,2.482,2.482,0,0,1,1.9,2.416,2.343,2.343,0,0,1-1.054,1.988,4.548,4.548,0,0,1-2.723.76,4.75,4.75,0,0,1-2-.4,3.363,3.363,0,0,1-1.374-1.1,2.565,2.565,0,0,1-.5-1.515h2.274a1.252,1.252,0,0,0,.473.979,1.877,1.877,0,0,0,1.179.34,1.737,1.737,0,0,0,1.042-.261A.814.814,0,0,0,111.272,15.518Zm6.749-8.708V9.019h1.536v1.76h-1.536v4.482a1.07,1.07,0,0,0,.191.714.959.959,0,0,0,.73.216,3.826,3.826,0,0,0,.706-.058V17.95a4.938,4.938,0,0,1-1.453.216,2.29,2.29,0,0,1-2.573-2.548V10.778h-1.312V9.019h1.312V6.811Zm7.919,4.458a6.517,6.517,0,0,0-.863-.066,1.757,1.757,0,0,0-1.785.921V18h-2.4V9.019h2.266l.066,1.071a2.223,2.223,0,0,1,2-1.237,2.514,2.514,0,0,1,.747.108Zm6.533,5.819a3.008,3.008,0,0,1-2.457,1.079,2.837,2.837,0,0,1-2.2-.83,3.543,3.543,0,0,1-.776-2.432V9.019h2.4v5.809q0,1.4,1.278,1.4a1.732,1.732,0,0,0,1.677-.848V9.019H134.8V18h-2.258Zm7.869-.855a1.573,1.573,0,0,0,1.079-.365,1.28,1.28,0,0,0,.432-.971h2.25a3.077,3.077,0,0,1-.5,1.673,3.286,3.286,0,0,1-1.341,1.179,4.2,4.2,0,0,1-1.88.419,3.9,3.9,0,0,1-3.038-1.224,4.845,4.845,0,0,1-1.112-3.383V13.4a4.79,4.79,0,0,1,1.1-3.312,3.854,3.854,0,0,1,3.03-1.237,3.778,3.778,0,0,1,2.7.959,3.4,3.4,0,0,1,1.033,2.552h-2.25a1.648,1.648,0,0,0-.432-1.139,1.6,1.6,0,0,0-2.362.173,3.541,3.541,0,0,0-.427,1.983v.249a3.586,3.586,0,0,0,.423,2A1.463,1.463,0,0,0,140.342,16.232Zm8-9.421V9.019h1.536v1.76h-1.536v4.482a1.07,1.07,0,0,0,.191.714.959.959,0,0,0,.73.216,3.826,3.826,0,0,0,.706-.058V17.95a4.939,4.939,0,0,1-1.453.216,2.29,2.29,0,0,1-2.573-2.548V10.778h-1.312V9.019h1.312V6.811Zm8.251,10.276a3.008,3.008,0,0,1-2.457,1.079,2.837,2.837,0,0,1-2.2-.83,3.543,3.543,0,0,1-.776-2.432V9.019h2.4v5.809q0,1.4,1.278,1.4a1.732,1.732,0,0,0,1.677-.848V9.019h2.407V18h-2.258Zm9.181-5.819a6.517,6.517,0,0,0-.863-.066,1.757,1.757,0,0,0-1.785.921V18h-2.4V9.019h2.266l.066,1.071a2.223,2.223,0,0,1,2-1.237,2.514,2.514,0,0,1,.747.108ZM171.885,18a2.664,2.664,0,0,1-.241-.805,2.9,2.9,0,0,1-2.266.971,3.189,3.189,0,0,1-2.187-.764,2.456,2.456,0,0,1-.867-1.926,2.538,2.538,0,0,1,1.058-2.191,5.222,5.222,0,0,1,3.059-.772h1.1V12a1.48,1.48,0,0,0-.32-1,1.257,1.257,0,0,0-1.009-.374,1.429,1.429,0,0,0-.95.291.987.987,0,0,0-.344.8h-2.4A2.41,2.41,0,0,1,167,10.272a3.182,3.182,0,0,1,1.361-1.042,4.961,4.961,0,0,1,1.976-.378,3.92,3.92,0,0,1,2.635.834,2.918,2.918,0,0,1,.975,2.345v3.893a4.294,4.294,0,0,0,.357,1.934V18ZM169.9,16.332a2.066,2.066,0,0,0,.979-.237,1.554,1.554,0,0,0,.664-.635V13.916h-.9q-1.8,0-1.917,1.245l-.008.141a.96.96,0,0,0,.315.739A1.225,1.225,0,0,0,169.9,16.332Zm5.52-2.889a5.413,5.413,0,0,1,.942-3.345,3.057,3.057,0,0,1,2.577-1.245,2.751,2.751,0,0,1,2.167.979V5.25h2.407V18h-2.167l-.116-.955a2.823,2.823,0,0,1-2.308,1.121,3.049,3.049,0,0,1-2.544-1.249A5.587,5.587,0,0,1,175.421,13.443Zm2.4.179a3.546,3.546,0,0,0,.44,1.937,1.433,1.433,0,0,0,1.278.673,1.605,1.605,0,0,0,1.569-.939v-3.55a1.582,1.582,0,0,0-1.552-.939Q177.82,10.8,177.82,13.621ZM190.578,18a2.664,2.664,0,0,1-.241-.805,2.9,2.9,0,0,1-2.266.971,3.189,3.189,0,0,1-2.187-.764,2.456,2.456,0,0,1-.867-1.926,2.538,2.538,0,0,1,1.058-2.191,5.222,5.222,0,0,1,3.059-.772h1.1V12a1.48,1.48,0,0,0-.32-1,1.257,1.257,0,0,0-1.009-.374,1.429,1.429,0,0,0-.95.291.987.987,0,0,0-.344.8h-2.4a2.41,2.41,0,0,1,.481-1.444,3.182,3.182,0,0,1,1.361-1.042,4.961,4.961,0,0,1,1.976-.378,3.92,3.92,0,0,1,2.635.834,2.918,2.918,0,0,1,.975,2.345v3.893A4.294,4.294,0,0,0,193,17.859V18Zm-1.984-1.668a2.066,2.066,0,0,0,.979-.237,1.554,1.554,0,0,0,.664-.635V13.916h-.9q-1.8,0-1.917,1.245l-.008.141a.96.96,0,0,0,.315.739A1.225,1.225,0,0,0,188.594,16.332Z" transform="translate(688 9918.609)" fill="#12263f"/>
    <path id="Trazado_602601" data-name="Trazado 602601" d="M0,0H278V58H0Z" transform="translate(1037 9996.609)" fill="#d9e9f1"/>
    <path id="Trazado_602602" data-name="Trazado 602602" d="M0,0H278V58H0Z" transform="translate(1037 10098.609)" fill="#d9e9f1"/>
    <path id="Trazado_602603" data-name="Trazado 602603" d="M106.158,12.663h-5.072V18H99.492V5.914h7.487v1.3h-5.894v4.142h5.072Zm1.909.764a5.3,5.3,0,0,1,.519-2.374,3.87,3.87,0,0,1,1.444-1.627,3.932,3.932,0,0,1,2.113-.573,3.788,3.788,0,0,1,2.968,1.27,4.886,4.886,0,0,1,1.133,3.378v.108a5.351,5.351,0,0,1-.5,2.353,3.813,3.813,0,0,1-1.436,1.623,3.977,3.977,0,0,1-2.146.581A3.778,3.778,0,0,1,109.2,16.9a4.861,4.861,0,0,1-1.133-3.362Zm1.544.183a3.842,3.842,0,0,0,.693,2.4A2.349,2.349,0,0,0,114.019,16a4.2,4.2,0,0,0,.689-2.569,3.836,3.836,0,0,0-.7-2.395,2.23,2.23,0,0,0-1.864-.917,2.205,2.205,0,0,0-1.834.9A4.17,4.17,0,0,0,109.611,13.609Zm12.161,3.3a2.212,2.212,0,0,0,1.436-.5,1.752,1.752,0,0,0,.681-1.245h1.453a2.785,2.785,0,0,1-.531,1.469,3.5,3.5,0,0,1-1.307,1.112,3.772,3.772,0,0,1-1.731.415,3.7,3.7,0,0,1-2.918-1.224,4.877,4.877,0,0,1-1.083-3.349v-.257A5.407,5.407,0,0,1,118.252,11a3.667,3.667,0,0,1,1.382-1.585,3.926,3.926,0,0,1,2.129-.564,3.6,3.6,0,0,1,2.511.9,3.234,3.234,0,0,1,1.067,2.349h-1.453a2.116,2.116,0,0,0-.66-1.432,2.053,2.053,0,0,0-1.465-.56,2.149,2.149,0,0,0-1.814.843,3.957,3.957,0,0,0-.643,2.436v.291a3.878,3.878,0,0,0,.639,2.391A2.16,2.16,0,0,0,121.772,16.913ZM132.613,18a3.226,3.226,0,0,1-.216-.946,3.426,3.426,0,0,1-2.557,1.112,3.17,3.17,0,0,1-2.179-.751,2.43,2.43,0,0,1-.851-1.905,2.539,2.539,0,0,1,1.067-2.179,5.029,5.029,0,0,1,3-.776h1.494v-.706a1.725,1.725,0,0,0-.481-1.282,1.935,1.935,0,0,0-1.419-.477,2.239,2.239,0,0,0-1.378.415,1.223,1.223,0,0,0-.556,1h-1.544a2.119,2.119,0,0,1,.477-1.3,3.258,3.258,0,0,1,1.295-.992,4.356,4.356,0,0,1,1.8-.365,3.551,3.551,0,0,1,2.432.776,2.8,2.8,0,0,1,.913,2.137V15.9a5.054,5.054,0,0,0,.315,1.967V18Zm-2.548-1.17a2.7,2.7,0,0,0,1.37-.374,2.259,2.259,0,0,0,.938-.971V13.642h-1.2q-2.822,0-2.822,1.652a1.4,1.4,0,0,0,.481,1.129A1.85,1.85,0,0,0,130.064,16.83ZM137.983,18h-1.536V5.25h1.536Zm4.125,0h-1.536V9.019h1.536Zm-1.66-11.364a.917.917,0,0,1,.228-.631.857.857,0,0,1,.677-.257.87.87,0,0,1,.681.257.907.907,0,0,1,.232.631.877.877,0,0,1-.232.623.886.886,0,0,1-.681.249.872.872,0,0,1-.677-.249A.886.886,0,0,1,140.448,6.636Zm5.562,10.11h5.254V18h-7.13V16.871l4.956-6.583h-4.881V9.019h6.807v1.087ZM158.536,18a3.226,3.226,0,0,1-.216-.946,3.426,3.426,0,0,1-2.557,1.112,3.17,3.17,0,0,1-2.179-.751,2.43,2.43,0,0,1-.851-1.905,2.539,2.539,0,0,1,1.067-2.179,5.029,5.029,0,0,1,3-.776H158.3v-.706a1.725,1.725,0,0,0-.481-1.282,1.935,1.935,0,0,0-1.419-.477,2.239,2.239,0,0,0-1.378.415,1.223,1.223,0,0,0-.556,1h-1.544a2.119,2.119,0,0,1,.477-1.3,3.258,3.258,0,0,1,1.295-.992,4.356,4.356,0,0,1,1.8-.365,3.551,3.551,0,0,1,2.432.776,2.8,2.8,0,0,1,.913,2.137V15.9a5.054,5.054,0,0,0,.315,1.967V18Zm-2.548-1.17a2.7,2.7,0,0,0,1.37-.374,2.259,2.259,0,0,0,.938-.971V13.642h-1.2q-2.822,0-2.822,1.652a1.4,1.4,0,0,0,.481,1.129A1.85,1.85,0,0,0,155.988,16.83Zm5.877-3.4a5.261,5.261,0,0,1,.979-3.324,3.333,3.333,0,0,1,5.063-.178V5.25h1.536V18h-1.411l-.075-.963a3.127,3.127,0,0,1-2.565,1.129,3.068,3.068,0,0,1-2.544-1.278,5.321,5.321,0,0,1-.984-3.337Zm1.536.174A3.984,3.984,0,0,0,164.031,16a2.039,2.039,0,0,0,1.743.863,2.24,2.24,0,0,0,2.133-1.312V11.426a2.257,2.257,0,0,0-2.117-1.27,2.049,2.049,0,0,0-1.76.872A4.386,4.386,0,0,0,163.4,13.609ZM177.37,18a3.226,3.226,0,0,1-.216-.946,3.426,3.426,0,0,1-2.557,1.112,3.17,3.17,0,0,1-2.179-.751,2.43,2.43,0,0,1-.851-1.905,2.539,2.539,0,0,1,1.067-2.179,5.029,5.029,0,0,1,3-.776h1.494v-.706a1.725,1.725,0,0,0-.481-1.282,1.935,1.935,0,0,0-1.419-.477,2.239,2.239,0,0,0-1.378.415,1.223,1.223,0,0,0-.556,1h-1.544a2.119,2.119,0,0,1,.477-1.3,3.258,3.258,0,0,1,1.295-.992,4.356,4.356,0,0,1,1.8-.365,3.551,3.551,0,0,1,2.432.776,2.8,2.8,0,0,1,.913,2.137V15.9a5.054,5.054,0,0,0,.315,1.967V18Zm-2.548-1.17a2.7,2.7,0,0,0,1.37-.374,2.259,2.259,0,0,0,.938-.971V13.642h-1.2q-2.822,0-2.822,1.652a1.4,1.4,0,0,0,.481,1.129A1.85,1.85,0,0,0,174.822,16.83Z" transform="translate(1037 10014.609)" fill="#12263f"/>
    <path id="Trazado_602604" data-name="Trazado 602604" d="M42.479,18h-1.6L34.792,8.687V18h-1.6V5.914h1.6l6.1,9.355V5.914h1.585Zm2.183-4.574a5.3,5.3,0,0,1,.519-2.374,3.87,3.87,0,0,1,1.444-1.627,3.932,3.932,0,0,1,2.113-.573,3.788,3.788,0,0,1,2.968,1.27A4.886,4.886,0,0,1,52.838,13.5v.108a5.351,5.351,0,0,1-.5,2.353A3.813,3.813,0,0,1,50.9,17.585a3.977,3.977,0,0,1-2.146.581,3.778,3.778,0,0,1-2.959-1.27,4.861,4.861,0,0,1-1.133-3.362Zm1.544.183a3.842,3.842,0,0,0,.693,2.4A2.349,2.349,0,0,0,50.613,16a4.2,4.2,0,0,0,.689-2.569,3.836,3.836,0,0,0-.7-2.395,2.23,2.23,0,0,0-1.864-.917,2.205,2.205,0,0,0-1.834.9A4.17,4.17,0,0,0,46.206,13.609ZM58.6,13.435a5.261,5.261,0,0,1,.979-3.324,3.333,3.333,0,0,1,5.063-.178V5.25h1.536V18H64.766l-.075-.963a3.127,3.127,0,0,1-2.565,1.129,3.068,3.068,0,0,1-2.544-1.278,5.321,5.321,0,0,1-.984-3.337Zm1.536.174A3.984,3.984,0,0,0,60.765,16a2.039,2.039,0,0,0,1.743.863,2.24,2.24,0,0,0,2.133-1.312V11.426a2.257,2.257,0,0,0-2.117-1.27,2.049,2.049,0,0,0-1.76.872A4.386,4.386,0,0,0,60.134,13.609ZM70.228,18H68.692V9.019h1.536ZM68.568,6.636a.917.917,0,0,1,.228-.631.857.857,0,0,1,.677-.257.87.87,0,0,1,.681.257.907.907,0,0,1,.232.631.877.877,0,0,1-.232.623.886.886,0,0,1-.681.249.872.872,0,0,1-.677-.249A.886.886,0,0,1,68.568,6.636Zm8.458,3.76a4.6,4.6,0,0,0-.755-.058,2.024,2.024,0,0,0-2.05,1.287V18H72.685V9.019h1.494l.025,1.038a2.391,2.391,0,0,1,2.142-1.2,1.569,1.569,0,0,1,.681.116Zm3.08,7.6H78.57V9.019h1.536ZM78.446,6.636a.917.917,0,0,1,.228-.631.857.857,0,0,1,.677-.257.87.87,0,0,1,.681.257.907.907,0,0,1,.232.631.877.877,0,0,1-.232.623.886.886,0,0,1-.681.249.872.872,0,0,1-.677-.249A.886.886,0,0,1,78.446,6.636Zm3.752,6.8a5.279,5.279,0,0,1,.971-3.341,3.348,3.348,0,0,1,5.138-.079l.075-1h1.4v8.766a3.654,3.654,0,0,1-1.033,2.748,3.814,3.814,0,0,1-2.777,1,4.619,4.619,0,0,1-1.9-.415,3.272,3.272,0,0,1-1.419-1.137l.8-.921a3,3,0,0,0,2.416,1.22,2.353,2.353,0,0,0,1.747-.631,2.411,2.411,0,0,0,.627-1.776V17.1a3.156,3.156,0,0,1-2.515,1.063,3.068,3.068,0,0,1-2.552-1.27A5.55,5.55,0,0,1,82.2,13.435Zm1.544.174A4.027,4.027,0,0,0,84.364,16a2.023,2.023,0,0,0,1.743.867,2.249,2.249,0,0,0,2.133-1.32v-4.1a2.276,2.276,0,0,0-2.117-1.287,2.041,2.041,0,0,0-1.751.872A4.386,4.386,0,0,0,83.742,13.609ZM93.769,18H92.233V9.019h1.536ZM92.109,6.636a.917.917,0,0,1,.228-.631.857.857,0,0,1,.677-.257.87.87,0,0,1,.681.257.907.907,0,0,1,.232.631.877.877,0,0,1-.232.623.886.886,0,0,1-.681.249.872.872,0,0,1-.677-.249A.886.886,0,0,1,92.109,6.636Zm3.744,6.8a5.261,5.261,0,0,1,.979-3.324,3.333,3.333,0,0,1,5.063-.178V5.25h1.536V18H102.02l-.075-.963a3.127,3.127,0,0,1-2.565,1.129,3.068,3.068,0,0,1-2.544-1.278,5.321,5.321,0,0,1-.984-3.337Zm1.536.174A3.984,3.984,0,0,0,98.019,16a2.039,2.039,0,0,0,1.743.863,2.24,2.24,0,0,0,2.133-1.312V11.426a2.257,2.257,0,0,0-2.117-1.27,2.049,2.049,0,0,0-1.76.872A4.386,4.386,0,0,0,97.388,13.609ZM111.358,18a3.226,3.226,0,0,1-.216-.946,3.426,3.426,0,0,1-2.557,1.112,3.17,3.17,0,0,1-2.179-.751,2.43,2.43,0,0,1-.851-1.905,2.539,2.539,0,0,1,1.067-2.179,5.029,5.029,0,0,1,3-.776h1.494v-.706a1.725,1.725,0,0,0-.481-1.282,1.935,1.935,0,0,0-1.419-.477,2.239,2.239,0,0,0-1.378.415,1.223,1.223,0,0,0-.556,1h-1.544a2.119,2.119,0,0,1,.477-1.3,3.258,3.258,0,0,1,1.295-.992,4.356,4.356,0,0,1,1.8-.365,3.551,3.551,0,0,1,2.432.776,2.8,2.8,0,0,1,.913,2.137V15.9a5.054,5.054,0,0,0,.315,1.967V18Zm-2.548-1.17a2.7,2.7,0,0,0,1.37-.374,2.259,2.259,0,0,0,.938-.971V13.642h-1.2q-2.822,0-2.822,1.652a1.4,1.4,0,0,0,.481,1.129A1.85,1.85,0,0,0,108.81,16.83Zm10.052-3.4a5.3,5.3,0,0,1,.519-2.374,3.87,3.87,0,0,1,1.444-1.627,3.932,3.932,0,0,1,2.113-.573,3.788,3.788,0,0,1,2.968,1.27,4.886,4.886,0,0,1,1.133,3.378v.108a5.351,5.351,0,0,1-.5,2.353,3.813,3.813,0,0,1-1.436,1.623,3.977,3.977,0,0,1-2.146.581A3.778,3.778,0,0,1,120,16.9a4.861,4.861,0,0,1-1.133-3.362Zm1.544.183a3.842,3.842,0,0,0,.693,2.4A2.349,2.349,0,0,0,124.814,16a4.2,4.2,0,0,0,.689-2.569,3.836,3.836,0,0,0-.7-2.395,2.23,2.23,0,0,0-1.864-.917,2.205,2.205,0,0,0-1.834.9A4.17,4.17,0,0,0,120.406,13.609ZM136.9,18.166a3.924,3.924,0,0,1-2.972-1.2,4.452,4.452,0,0,1-1.146-3.208v-.282a5.39,5.39,0,0,1,.51-2.386,3.982,3.982,0,0,1,1.428-1.644,3.59,3.59,0,0,1,1.988-.594,3.364,3.364,0,0,1,2.723,1.154,5,5,0,0,1,.971,3.3v.639h-6.084a3.193,3.193,0,0,0,.776,2.146,2.44,2.44,0,0,0,1.888.818,2.675,2.675,0,0,0,1.378-.332,3.462,3.462,0,0,0,.988-.88l.938.73A3.772,3.772,0,0,1,136.9,18.166Zm-.191-8.052a2.048,2.048,0,0,0-1.561.677,3.288,3.288,0,0,0-.78,1.9h4.5v-.116a2.925,2.925,0,0,0-.631-1.814A1.928,1.928,0,0,0,136.709,10.114Zm6.923-1.1.05,1.129a3.273,3.273,0,0,1,2.689-1.295q2.847,0,2.872,3.212V18h-1.536V12.057a2.068,2.068,0,0,0-.444-1.436,1.78,1.78,0,0,0-1.357-.465,2.216,2.216,0,0,0-1.312.4,2.706,2.706,0,0,0-.88,1.046V18h-1.536V9.019Zm19.723,4.59a5.378,5.378,0,0,1-.938,3.3,3.006,3.006,0,0,1-2.54,1.253,3.294,3.294,0,0,1-2.573-1.038v4.325h-1.536V9.019h1.4l.075,1a3.163,3.163,0,0,1,2.606-1.162,3.063,3.063,0,0,1,2.561,1.22,5.437,5.437,0,0,1,.942,3.4Zm-1.536-.174a3.968,3.968,0,0,0-.647-2.4,2.086,2.086,0,0,0-1.776-.88,2.257,2.257,0,0,0-2.092,1.237v4.292a2.262,2.262,0,0,0,2.108,1.229,2.076,2.076,0,0,0,1.756-.876A4.332,4.332,0,0,0,161.819,13.435Zm7.828-3.038a4.6,4.6,0,0,0-.755-.058,2.024,2.024,0,0,0-2.05,1.287V18h-1.536V9.019H166.8l.025,1.038a2.391,2.391,0,0,1,2.142-1.2,1.569,1.569,0,0,1,.681.116Zm.838,3.03A5.3,5.3,0,0,1,171,11.052a3.87,3.87,0,0,1,1.444-1.627,3.932,3.932,0,0,1,2.113-.573,3.788,3.788,0,0,1,2.968,1.27,4.886,4.886,0,0,1,1.133,3.378v.108a5.351,5.351,0,0,1-.5,2.353,3.813,3.813,0,0,1-1.436,1.623,3.977,3.977,0,0,1-2.146.581,3.778,3.778,0,0,1-2.959-1.27,4.861,4.861,0,0,1-1.133-3.362Zm1.544.183a3.842,3.842,0,0,0,.693,2.4A2.349,2.349,0,0,0,176.437,16a4.2,4.2,0,0,0,.689-2.569,3.836,3.836,0,0,0-.7-2.395,2.23,2.23,0,0,0-1.864-.917,2.205,2.205,0,0,0-1.834.9A4.17,4.17,0,0,0,172.029,13.609ZM181.342,18V10.206h-1.419V9.019h1.419V8.1a3.058,3.058,0,0,1,.772-2.233,2.916,2.916,0,0,1,2.183-.789,4.055,4.055,0,0,1,1.054.14l-.083,1.238a4.41,4.41,0,0,0-.83-.075,1.5,1.5,0,0,0-1.154.437,1.773,1.773,0,0,0-.407,1.253v.949H184.8v1.187h-1.917V18Zm10.691-.888a3.262,3.262,0,0,1-2.631,1.054,2.792,2.792,0,0,1-2.187-.834,3.611,3.611,0,0,1-.76-2.469V9.019h1.536v5.8q0,2.042,1.66,2.042a2.3,2.3,0,0,0,2.341-1.312V9.019h1.536V18h-1.461Zm5.279-8.093.05,1.129a3.273,3.273,0,0,1,2.689-1.295q2.847,0,2.872,3.212V18h-1.536V12.057a2.068,2.068,0,0,0-.444-1.436,1.78,1.78,0,0,0-1.357-.465,2.216,2.216,0,0,0-1.312.4,2.706,2.706,0,0,0-.88,1.046V18H195.86V9.019Zm7.554,4.416a5.261,5.261,0,0,1,.979-3.324,3.333,3.333,0,0,1,5.063-.178V5.25h1.536V18h-1.411l-.075-.963a3.127,3.127,0,0,1-2.565,1.129,3.068,3.068,0,0,1-2.544-1.278,5.321,5.321,0,0,1-.984-3.337Zm1.536.174A3.984,3.984,0,0,0,207.033,16a2.039,2.039,0,0,0,1.743.863,2.24,2.24,0,0,0,2.133-1.312V11.426a2.257,2.257,0,0,0-2.117-1.27,2.049,2.049,0,0,0-1.76.872A4.386,4.386,0,0,0,206.4,13.609ZM216.5,18H214.96V9.019H216.5Zm-1.66-11.364a.917.917,0,0,1,.228-.631.857.857,0,0,1,.677-.257.87.87,0,0,1,.681.257.907.907,0,0,1,.232.631.877.877,0,0,1-.232.623.886.886,0,0,1-.681.249.872.872,0,0,1-.677-.249A.886.886,0,0,1,214.836,6.636Zm3.744,6.8a5.261,5.261,0,0,1,.979-3.324,3.333,3.333,0,0,1,5.063-.178V5.25h1.536V18h-1.411l-.075-.963a3.127,3.127,0,0,1-2.565,1.129,3.068,3.068,0,0,1-2.544-1.278,5.321,5.321,0,0,1-.984-3.337Zm1.536.174A3.984,3.984,0,0,0,220.746,16a2.039,2.039,0,0,0,1.743.863,2.24,2.24,0,0,0,2.133-1.312V11.426a2.257,2.257,0,0,0-2.117-1.27,2.049,2.049,0,0,0-1.76.872A4.386,4.386,0,0,0,220.115,13.609ZM234.085,18a3.226,3.226,0,0,1-.216-.946,3.426,3.426,0,0,1-2.557,1.112,3.17,3.17,0,0,1-2.179-.751,2.43,2.43,0,0,1-.851-1.905,2.539,2.539,0,0,1,1.067-2.179,5.029,5.029,0,0,1,3-.776h1.494v-.706a1.725,1.725,0,0,0-.481-1.282,1.935,1.935,0,0,0-1.419-.477,2.239,2.239,0,0,0-1.378.415,1.223,1.223,0,0,0-.556,1h-1.544a2.119,2.119,0,0,1,.477-1.3,3.258,3.258,0,0,1,1.295-.992,4.356,4.356,0,0,1,1.8-.365,3.551,3.551,0,0,1,2.432.776,2.8,2.8,0,0,1,.913,2.137V15.9a5.054,5.054,0,0,0,.315,1.967V18Zm-2.548-1.17a2.7,2.7,0,0,0,1.37-.374,2.259,2.259,0,0,0,.938-.971V13.642h-1.2q-2.822,0-2.822,1.652a1.4,1.4,0,0,0,.481,1.129A1.85,1.85,0,0,0,231.537,16.83Zm5.877-3.4a5.261,5.261,0,0,1,.979-3.324,3.333,3.333,0,0,1,5.063-.178V5.25h1.536V18h-1.411l-.075-.963a3.127,3.127,0,0,1-2.565,1.129,3.068,3.068,0,0,1-2.544-1.278,5.321,5.321,0,0,1-.984-3.337Zm1.536.174A3.984,3.984,0,0,0,239.581,16a2.039,2.039,0,0,0,1.743.863,2.24,2.24,0,0,0,2.133-1.312V11.426a2.257,2.257,0,0,0-2.117-1.27,2.049,2.049,0,0,0-1.76.872A4.386,4.386,0,0,0,238.95,13.609Z" transform="translate(1037 10116.609)" fill="#12263f"/>
    <path id="Trazado_602605" data-name="Trazado 602605" d="M4,0A4,4,0,1,1,0,4,4,4,0,0,1,4,0Z" transform="translate(795 9897.609)" fill="#f3ab1d"/>
    <path id="Trazado_602606" data-name="Trazado 602606" d="M4,0A4,4,0,1,1,0,4,4,4,0,0,1,4,0Z" transform="translate(420 9897.609)" fill="#f3ab1d"/>
    <path id="Trazado_602607" data-name="Trazado 602607" d="M4,0A4,4,0,1,1,0,4,4,4,0,0,1,4,0Z" transform="translate(1172 9897.609)" fill="#f3ab1d"/>
    <path id="Trazado_596824" data-name="Trazado 596824" d="M-7577-4611v-30.1" transform="translate(8376 14512.609)" fill="none" stroke="#f3ab1d" stroke-width="2"/>
    <g id="Grupo_874670" data-name="Grupo 874670" transform="translate(-7 2806.709)">
      <circle id="Elipse_5441" data-name="Elipse 5441" cx="4" cy="4" r="4" transform="translate(1179 7175.901)" fill="#f3ab1d"/>
      <path id="Trazado_596828" data-name="Trazado 596828" d="M-7577-4605.1v-36" transform="translate(8760 11785)" fill="none" stroke="#f3ab1d" stroke-width="2"/>
    </g>
    <g id="Grupo_874672" data-name="Grupo 874672" transform="translate(-7 2910.709)">
      <circle id="Elipse_5441-2" data-name="Elipse 5441" cx="4" cy="4" r="4" transform="translate(1179 7170)" fill="#f3ab1d"/>
      <path id="Trazado_596828-2" data-name="Trazado 596828" d="M-7577-4611v-30.1" transform="translate(8760 11785)" fill="none" stroke="#f3ab1d" stroke-width="2"/>
    </g>
    <path id="Trazado_596825" data-name="Trazado 596825" d="M-7577-4571.194V-4641.1" transform="translate(8376 14443.709)" fill="none" stroke="#f3ab1d" stroke-width="2"/>
    <path id="Trazado_596826" data-name="Trazado 596826" d="M-7568.558-4611v-30.1h-752v28.139" transform="translate(8744.558 14512.609)" fill="none" stroke="#f3ab1d" stroke-width="2"/>
    <g id="Grupo_874665" data-name="Grupo 874665" transform="translate(643 9744.5)">
      <g id="Grupo_151737" data-name="Grupo 151737" transform="translate(0 0)">
        <path id="Trazado_596477" data-name="Trazado 596477" d="M246.651,277.065a10.21,10.21,0,0,0-14.643-9.194l-44.492,19.453a9.253,9.253,0,0,0-2.868,1.254l-.007,0h0a9.3,9.3,0,0,0,.342,15.765h0l.008,0a9.247,9.247,0,0,0,2.5,1.032l41.322,17.065q.442.207.905.374l.018.007h0a10.386,10.386,0,0,0,13.8-8.667h0l0-.021c.007-.071.012-.142.018-.212l3.024-35.718c.022-.2.04-.395.05-.6l.015-.178-.009-.012C246.646,277.3,246.651,277.185,246.651,277.065Zm-7.116,1.854c-.385,3.792-2.885,34.535-2.885,34.535a2.745,2.745,0,0,1-1.291,2.061,3.955,3.955,0,0,1-3.627.577c-1.483-.412-42.2-17.831-42.2-17.831s-2.2-.806-2.124-2.125.952-1.392,3-2.418,44.947-19.8,44.947-19.8a3.226,3.226,0,0,1,3.3.275C240.031,275.4,239.921,275.128,239.536,278.919Z" transform="translate(-180.449 -263.015)" fill="#acb305"/>
        <path id="Trazado_596478" data-name="Trazado 596478" d="M246.651,270.829a10.21,10.21,0,0,0-14.643-9.194l-44.492,19.453a9.241,9.241,0,0,0-2.868,1.254l-.007,0h0a9.3,9.3,0,0,0,.342,15.764h0l.008,0a9.251,9.251,0,0,0,2.5,1.032l41.322,17.065q.442.207.905.374l.018.007h0a10.387,10.387,0,0,0,13.8-8.667h0l0-.021c.007-.07.012-.142.018-.212l3.024-35.718c.022-.2.04-.4.05-.6l.015-.177-.009-.013C246.646,271.068,246.651,270.949,246.651,270.829Zm-7.116,1.854c-.385,3.792-2.885,34.535-2.885,34.535a2.745,2.745,0,0,1-1.291,2.061,3.955,3.955,0,0,1-3.627.577c-1.483-.412-42.2-17.83-42.2-17.83s-2.2-.806-2.124-2.124.952-1.392,3-2.418,44.947-19.8,44.947-19.8a3.225,3.225,0,0,1,3.3.275C240.031,269.167,239.921,268.892,239.536,272.684Z" transform="translate(-180.449 -260.623)" fill="#c0d400" stroke="#ebf16a" stroke-width="0.4"/>
      </g>
    </g>
  </g>
</svg>
