<svg xmlns="http://www.w3.org/2000/svg" xmlns:xlink="http://www.w3.org/1999/xlink" width="503.114" height="224.209" viewBox="0 0 503.114 224.209">
  <defs>
    <clipPath id="clip-path">
      <rect id="Rectángulo_293130" data-name="Rectángulo 293130" width="259.973" height="198.302" fill="none"/>
    </clipPath>
    <clipPath id="clip-path-2">
      <rect id="Rectángulo_293132" data-name="Rectángulo 293132" width="155.092" height="13.617" fill="#3185af"/>
    </clipPath>
    <clipPath id="clip-path-4">
      <path id="Trazado_601230" data-name="Trazado 601230" d="M1482.814,500.8c-8.975,4.292,8,11.707,2.146,22.048s2.265,9.963,5.634,19.586c2.32,6.625-9.536,12.412-2.122,17.29s14.6,20.643,14.6,20.643c8.165,6.4,1.131-9.174,6.558-22.232s-11.016-6.021-2.284-22.215-10.2-5.561-9.122-21.072c.336-4.858-1.4-4.684-3.768-4.511-1.957.143-4.35.286-6.378-2.395,0,0-2.273-7.272-4.716-7.272a1.269,1.269,0,0,0-.552.129" transform="translate(-1480.138 -500.669)" fill="#5ad1a5"/>
    </clipPath>
    <clipPath id="clip-path-6">
      <path id="Trazado_601232" data-name="Trazado 601232" d="M1641.6,818.994a2.716,2.716,0,0,1-2.222-1.758c-.841-2.4,1.17-6.614,2.947-8.728a13.979,13.979,0,0,0,2.848-9.205c-.055-.867-.144-1.664-.222-2.366-.209-1.863-.36-3.208.332-3.985.632-.71,2.015-1.032,4.484-1.043a10.241,10.241,0,0,0,8.489-3.72,8.01,8.01,0,0,1,1.822-1.583c2.1-1.144,4.344-1.375,5.229-.537.672.637.355,1.729-.029,2.532a11.736,11.736,0,0,1-2.479,3.314c-1.137,1.161-2.036,2.078-1.581,3.858.089.349.193.7.3,1.056.723,2.473,1.406,4.809-2.38,6.51-.889.4-1.7.719-2.423,1-3,1.175-4.974,1.952-7.1,6.429-.395.833-.742,1.62-1.077,2.381-1.6,3.627-2.646,6-5.556,6a7.013,7.013,0,0,1-1.383-.151m18.2-32.9a8.534,8.534,0,0,0-1.965,1.692,9.737,9.737,0,0,1-8.069,3.539c-2.686.013-4.157.383-4.919,1.24-.865.971-.7,2.426-.476,4.439.078.7.167,1.486.22,2.338a13.639,13.639,0,0,1-2.712,8.793c-1.794,2.137-4,6.569-3.051,9.3a3.265,3.265,0,0,0,2.658,2.139,7.527,7.527,0,0,0,1.5.162c3.294,0,4.5-2.732,6.094-6.345.334-.757.68-1.54,1.071-2.366,2.022-4.268,3.813-4.971,6.78-6.135.725-.285,1.547-.607,2.449-1.013,4.25-1.91,3.427-4.725,2.7-7.209-.1-.347-.2-.694-.291-1.036-.374-1.461.344-2.193,1.431-3.3a12.388,12.388,0,0,0,2.589-3.471c.848-1.773.416-2.724-.1-3.21a2.95,2.95,0,0,0-2.056-.656,8.367,8.367,0,0,0-3.856,1.1" transform="translate(-1638.592 -784.986)" fill="none"/>
    </clipPath>
    <linearGradient id="linear-gradient" x1="-8.045" y1="2.505" x2="-8.04" y2="2.505" gradientUnits="objectBoundingBox">
      <stop offset="0" stop-color="#40d5e6"/>
      <stop offset="1" stop-color="#57f"/>
    </linearGradient>
    <clipPath id="clip-path-7">
      <path id="Trazado_601233" data-name="Trazado 601233" d="M1669.608,822.475a20.8,20.8,0,0,1-8.356,11.621c-5.2,3.788-5.935,16.733-5.963,17.282l.584.03c.007-.132.749-13.214,5.724-16.839a21.358,21.358,0,0,0,8.574-11.933c.908-3.18,5.851-4.091,5.9-4.1l-.1-.577c-.218.038-5.353.982-6.362,4.515" transform="translate(-1655.289 -817.96)" fill="none"/>
    </clipPath>
    <linearGradient id="linear-gradient-2" x1="-11.29" y1="2.462" x2="-11.284" y2="2.462" xlink:href="#linear-gradient"/>
    <clipPath id="clip-path-8">
      <path id="Trazado_601234" data-name="Trazado 601234" d="M1617.831,603.956c-1.561,5.268-17.365,2.3-10.731,15.49s-8.39,4.411-3.9,15.923.39,23.823,5.268,20.692,2.74-17.628,7.813-19.35,5.9-3.732.878-8.414,13.161-9.331,8.674-18.787.756-15.211-3.512-16.674a2.472,2.472,0,0,0-.8-.148c-2.789,0-2.252,6.42-3.689,11.27" transform="translate(-1602.346 -592.686)" fill="#3185af"/>
    </clipPath>
    <clipPath id="clip-path-10">
      <path id="Trazado_601236" data-name="Trazado 601236" d="M1563.164,992.288l5.274,20.01h11.787l5.274-20.01Z" transform="translate(-1563.164 -992.288)" fill="none"/>
    </clipPath>
    <linearGradient id="linear-gradient-3" x1="-9.921" y1="2.881" x2="-9.915" y2="2.881" gradientUnits="objectBoundingBox">
      <stop offset="0" stop-color="#ff9340"/>
      <stop offset="1" stop-color="#ffce45"/>
    </linearGradient>
    <clipPath id="clip-path-11">
      <path id="Trazado_601237" data-name="Trazado 601237" d="M1563.164,992.288l5.274,20.01h5.45c0-17.829,11.611-20.01,11.611-20.01Z" transform="translate(-1563.164 -992.288)" fill="none"/>
    </clipPath>
    <linearGradient id="linear-gradient-4" x1="-9.921" y1="2.881" x2="-9.915" y2="2.881" gradientUnits="objectBoundingBox">
      <stop offset="0" stop-color="#c97332"/>
      <stop offset="1" stop-color="#ffce45"/>
    </linearGradient>
  </defs>
  <g id="Grupo_877531" data-name="Grupo 877531" transform="translate(-285 -15710)">
    <rect id="BG" width="503.114" height="224.208" transform="translate(285 15710)" fill="#f2f5d1"/>
    <g id="Grupo_877085" data-name="Grupo 877085">
      <g id="Grupo_877082" data-name="Grupo 877082" transform="translate(320.027 15724.074)">
        <g id="Grupo_877059" data-name="Grupo 877059" transform="translate(0 0.003)">
          <g id="Grupo_877058" data-name="Grupo 877058" transform="translate(0 0)" clip-path="url(#clip-path)">
            <path id="Trazado_601213" data-name="Trazado 601213" d="M105.258,419.206a36.348,36.348,0,0,1-18.449-5.5c-4.323-2.874-9.928-3.88-13.869-4.218a46.078,46.078,0,0,0-7.6-.044l-.027-.272a46.391,46.391,0,0,1,7.648.044c3.973.341,9.626,1.356,14,4.262a36.076,36.076,0,0,0,18.295,5.45Z" transform="translate(-56.056 -351.06)" fill="#ffba55"/>
            <path id="Trazado_601214" data-name="Trazado 601214" d="M106.236,398.084c-2.881,3.254-15.119,5.265-22.383,1.469a66.584,66.584,0,0,1-10.007-6.713c-3.661-2.82-6.823-5.255-10.7-6.13l-.339-.077.3-.175a34.98,34.98,0,0,1,13.852-3.828A33.409,33.409,0,0,1,90.809,384.6a40.428,40.428,0,0,1,15.382,10.557l-.1.094.1-.094a1.934,1.934,0,0,1,.205,2.728c-.049.066-.1.131-.161.2M63.553,386.528c3.778.951,6.882,3.342,10.459,6.1a66.361,66.361,0,0,0,9.967,6.687c3.28,1.714,7.994,2.388,12.932,1.85,4.181-.456,7.787-1.753,9.122-3.26q.078-.088.146-.177a1.668,1.668,0,0,0-.187-2.376c-10.519-11.181-21.579-12.939-29-12.444a35.377,35.377,0,0,0-13.435,3.624" transform="translate(-53.902 -328.324)" fill="#ffba55"/>
            <rect id="Rectángulo_293122" data-name="Rectángulo 293122" width="0.273" height="5.047" transform="translate(19.186 54.977) rotate(-34.219)" fill="#ffba55"/>
            <rect id="Rectángulo_293123" data-name="Rectángulo 293123" width="6.957" height="0.273" transform="translate(20.355 64.631) rotate(-42.708)" fill="#ffba55"/>
            <rect id="Rectángulo_293124" data-name="Rectángulo 293124" width="0.273" height="7.838" transform="translate(30.107 54.732) rotate(-4.286)" fill="#ffba55"/>
            <path id="Trazado_601215" data-name="Trazado 601215" d="M94.25,159.006a36.086,36.086,0,0,1-7.5-4.052,43.029,43.029,0,0,1-13.288-14.585A61,61,0,0,0,60.39,123.683a31.037,31.037,0,0,0-6.352-4.472l.111-.238a31.25,31.25,0,0,1,6.4,4.5,61.249,61.249,0,0,1,13.142,16.766,42.768,42.768,0,0,0,13.207,14.5,35.823,35.823,0,0,0,7.435,4.021Z" transform="translate(-46.378 -102.108)" fill="#ffba55"/>
            <path id="Trazado_601216" data-name="Trazado 601216" d="M103.654,154.774l-.74.135a34.9,34.9,0,0,1-6.183.373,44.649,44.649,0,0,1-14.423-2.661,40.392,40.392,0,0,1-16.516-11.364c-5.713-6.485-9.9-15.134-12.437-25.707l-.029-.119.117-.037a20.479,20.479,0,0,1,9.935.024,23.575,23.575,0,0,1,9.2,4.568A35.863,35.863,0,0,1,81.749,131.6c5.788,11.061,11.245,16.743,14.8,19.562,3.841,3.042,6.335,3.484,6.36,3.488ZM53.64,115.611c5.74,23.745,18.8,33.1,28.748,36.76a44.377,44.377,0,0,0,14.336,2.649,38.173,38.173,0,0,0,5.512-.275,19.029,19.029,0,0,1-5.847-3.376c-3.579-2.834-9.064-8.544-14.873-19.646-5.776-11.038-13.084-14.82-18.2-16.049a20.5,20.5,0,0,0-9.678-.063" transform="translate(-45.767 -98.536)" fill="#ffba55"/>
            <rect id="Rectángulo_293125" data-name="Rectángulo 293125" width="0.263" height="10.503" transform="translate(18.432 40.733) rotate(-87.502)" fill="#ffba55"/>
            <rect id="Rectángulo_293126" data-name="Rectángulo 293126" width="0.262" height="14.738" transform="translate(25.453 20.692) rotate(-0.064)" fill="#ffba55"/>
            <rect id="Rectángulo_293127" data-name="Rectángulo 293127" width="0.262" height="8.509" transform="translate(10.364 25.918) rotate(-87.007)" fill="#ffba55"/>
            <rect id="Rectángulo_293128" data-name="Rectángulo 293128" width="19.487" height="59.189" transform="translate(108.664 102.83)" fill="#8f8f8f"/>
            <path id="Trazado_601217" data-name="Trazado 601217" d="M250.319,207.838H401.474a8.559,8.559,0,0,0,8.559-8.559V97.689a8.559,8.559,0,0,0-8.559-8.559H250.319a8.559,8.559,0,0,0-8.559,8.559v101.59a8.559,8.559,0,0,0,8.559,8.559" transform="translate(-207.489 -76.496)" fill="#f0f0f0"/>
            <rect id="Rectángulo_293129" data-name="Rectángulo 293129" width="155.092" height="112.739" transform="translate(40.862)" fill="#fff"/>
          </g>
        </g>
        <g id="Grupo_877061" data-name="Grupo 877061" transform="translate(40.862 0.003)">
          <g id="Grupo_877060" data-name="Grupo 877060" transform="translate(0 0)" clip-path="url(#clip-path-2)">
            <rect id="Rectángulo_293131" data-name="Rectángulo 293131" width="155.092" height="13.617" fill="#3185af"/>
          </g>
        </g>
        <g id="Grupo_877063" data-name="Grupo 877063" transform="translate(0 0.003)">
          <g id="Grupo_877062" data-name="Grupo 877062" transform="translate(0 0)" clip-path="url(#clip-path)">
            <path id="Trazado_601218" data-name="Trazado 601218" d="M1249.171,822.484c0,3,2.858,5.428,6.382,5.428s6.382-2.43,6.382-5.428-2.857-5.428-6.382-5.428-6.382,2.43-6.382,5.428" transform="translate(-1072.091 -701.232)" fill="#ccc"/>
            <rect id="Rectángulo_293133" data-name="Rectángulo 293133" width="87.67" height="4.468" transform="translate(74.572 159.785)" fill="#ccc"/>
            <rect id="Rectángulo_293134" data-name="Rectángulo 293134" width="64.594" height="2.791" transform="translate(52.224 30.804)" fill="#e6e6e6"/>
            <rect id="Rectángulo_293135" data-name="Rectángulo 293135" width="73.841" height="2.791" transform="translate(52.224 35.831)" fill="#e6e6e6"/>
            <rect id="Rectángulo_293136" data-name="Rectángulo 293136" width="81.2" height="2.791" transform="translate(52.224 45.861)" fill="#e6e6e6"/>
            <rect id="Rectángulo_293137" data-name="Rectángulo 293137" width="68.485" height="2.791" transform="translate(52.224 25.186)" fill="#78c2ff"/>
            <rect id="Rectángulo_293138" data-name="Rectángulo 293138" width="60.226" height="2.791" transform="translate(52.224 50.888)" fill="#e6e6e6"/>
            <rect id="Rectángulo_293139" data-name="Rectángulo 293139" width="38.188" height="2.791" transform="translate(52.224 61.811)" fill="#e6e6e6"/>
            <rect id="Rectángulo_293140" data-name="Rectángulo 293140" width="68.607" height="2.791" transform="translate(52.224 66.838)" fill="#e6e6e6"/>
            <rect id="Rectángulo_293141" data-name="Rectángulo 293141" width="48.818" height="2.791" transform="translate(52.224 78.85)" fill="#e6e6e6"/>
            <rect id="Rectángulo_293142" data-name="Rectángulo 293142" width="59.612" height="2.791" transform="translate(52.224 83.877)" fill="#e6e6e6"/>
            <rect id="Rectángulo_293143" data-name="Rectángulo 293143" width="65.255" height="2.791" transform="translate(52.224 95.888)" fill="#e6e6e6"/>
            <rect id="Rectángulo_293144" data-name="Rectángulo 293144" width="34.304" height="2.791" transform="translate(52.224 100.915)" fill="#e6e6e6"/>
            <rect id="Rectángulo_293145" data-name="Rectángulo 293145" width="2.04" height="7.818" transform="translate(48.262 30.804)" fill="#78c2ff"/>
            <rect id="Rectángulo_293146" data-name="Rectángulo 293146" width="2.04" height="7.818" transform="translate(48.262 45.861)" fill="#78c2ff"/>
            <rect id="Rectángulo_293147" data-name="Rectángulo 293147" width="2.04" height="7.818" transform="translate(48.262 61.811)" fill="#78c2ff"/>
            <rect id="Rectángulo_293148" data-name="Rectángulo 293148" width="2.04" height="7.818" transform="translate(48.262 78.85)" fill="#78c2ff"/>
            <rect id="Rectángulo_293149" data-name="Rectángulo 293149" width="2.04" height="7.818" transform="translate(48.262 95.888)" fill="#78c2ff"/>
            <path id="Trazado_601219" data-name="Trazado 601219" d="M1077.91,675.735h-6.5a2.34,2.34,0,0,1-2.34-2.34v-6.5a2.34,2.34,0,0,1,2.34-2.34h6.5a2.34,2.34,0,0,1,2.34,2.34v6.5a2.34,2.34,0,0,1-2.34,2.34" transform="translate(-917.517 -570.346)" fill="#5ad1a5"/>
            <path id="Trazado_601220" data-name="Trazado 601220" d="M1087.741,691.55l-2.827-2.465a.557.557,0,1,1,.732-.839l2,1.743,2.851-3.18a.557.557,0,1,1,.829.743Z" transform="translate(-930.954 -589.289)" fill="#f3f3f3"/>
            <path id="Trazado_601221" data-name="Trazado 601221" d="M1077.674,555.514h-6.1a2.551,2.551,0,0,1-2.548-2.549v-6.1a2.551,2.551,0,0,1,2.548-2.549h6.1a2.552,2.552,0,0,1,2.549,2.549v6.1a2.552,2.552,0,0,1-2.549,2.549m-6.1-10.485a1.841,1.841,0,0,0-1.839,1.839v6.1a1.841,1.841,0,0,0,1.839,1.839h6.1a1.841,1.841,0,0,0,1.839-1.839v-6.1a1.841,1.841,0,0,0-1.839-1.839Z" transform="translate(-917.485 -467.158)" fill="#78c2ff"/>
            <path id="Trazado_601222" data-name="Trazado 601222" d="M1196.459,435.321h-6.1a2.552,2.552,0,0,1-2.549-2.549v-6.1a2.552,2.552,0,0,1,2.549-2.549h6.1a2.551,2.551,0,0,1,2.548,2.549v6.1a2.551,2.551,0,0,1-2.548,2.549m-6.1-10.485a1.842,1.842,0,0,0-1.839,1.839v6.1a1.842,1.842,0,0,0,1.839,1.839h6.1a1.841,1.841,0,0,0,1.838-1.839v-6.1a1.841,1.841,0,0,0-1.838-1.839Z" transform="translate(-1019.43 -364.003)" fill="#78c2ff"/>
            <path id="Trazado_601223" data-name="Trazado 601223" d="M1196.459,675.708h-6.1a2.552,2.552,0,0,1-2.549-2.549v-6.1a2.552,2.552,0,0,1,2.549-2.549h6.1a2.551,2.551,0,0,1,2.548,2.549v6.1a2.551,2.551,0,0,1-2.548,2.549m-6.1-10.485a1.842,1.842,0,0,0-1.839,1.839v6.1a1.841,1.841,0,0,0,1.839,1.839h6.1a1.841,1.841,0,0,0,1.838-1.839v-6.1a1.841,1.841,0,0,0-1.838-1.839Z" transform="translate(-1019.43 -570.313)" fill="#78c2ff"/>
            <path id="Trazado_601224" data-name="Trazado 601224" d="M1196.7,555.542h-6.5a2.34,2.34,0,0,1-2.34-2.34v-6.5a2.34,2.34,0,0,1,2.34-2.34h6.5a2.34,2.34,0,0,1,2.34,2.34v6.5a2.34,2.34,0,0,1-2.34,2.34" transform="translate(-1019.465 -467.191)" fill="#5ad1a5"/>
            <path id="Trazado_601225" data-name="Trazado 601225" d="M1206.528,571.356l-2.827-2.465a.557.557,0,1,1,.732-.84l2,1.743,2.851-3.18a.557.557,0,1,1,.829.744Z" transform="translate(-1032.902 -486.133)" fill="#f3f3f3"/>
            <path id="Trazado_601226" data-name="Trazado 601226" d="M1077.91,435.348h-6.5a2.34,2.34,0,0,1-2.34-2.34v-6.5a2.34,2.34,0,0,1,2.34-2.34h6.5a2.34,2.34,0,0,1,2.34,2.34v6.5a2.34,2.34,0,0,1-2.34,2.34" transform="translate(-917.517 -364.036)" fill="#5ad1a5"/>
            <path id="Trazado_601227" data-name="Trazado 601227" d="M1087.741,451.161l-2.827-2.465a.557.557,0,1,1,.732-.84l2,1.743,2.851-3.18a.557.557,0,0,1,.829.743Z" transform="translate(-930.954 -382.977)" fill="#f3f3f3"/>
            <path id="Trazado_601228" data-name="Trazado 601228" d="M1084.622,162.845a16.478,16.478,0,1,1-16.478-16.478,16.413,16.413,0,0,1,16.478,16.478" transform="translate(-902.584 -125.619)" fill="#eef0f7"/>
            <path id="Trazado_601229" data-name="Trazado 601229" d="M1100.748,215.447a2.042,2.042,0,0,0-.276-.162l-.015-.01v0a34.923,34.923,0,0,0-7.025-2.653h0c-.759-.231-1.332-.382-1.529-.432l-.355-.564a17.52,17.52,0,0,1-.028-1.983,7.024,7.024,0,0,0,1.419-3.417c.1.072.169-.085.169-.085-.053-.094.8-2.164.642-2.631-.087-.265-.263-.231-.4-.154.021-.121.042-.246.063-.38,0,0,.336-3.174-1.271-4.943a1.776,1.776,0,0,0-.758-.2,7.072,7.072,0,0,0-5.1-.022,5.128,5.128,0,0,0-1.48,4.283c.029.261.058.524.088.78a.06.06,0,0,0,0,.008c.012.1.024.2.036.3-.134-.083-.31-.125-.408.137a7.876,7.876,0,0,0,.534,2.655s.135.212.241.116c0,0,0,0,0,0a7.6,7.6,0,0,0,1.391,3.627c-.041.737-.147,1.6-.222,2.157l-.638.666h0l-.1.034v0c-7.213,1.925-9.251,3.265-9.251,3.265a1.9,1.9,0,0,0-.553.855,16.48,16.48,0,0,0,25.656.526,6.775,6.775,0,0,0-.831-1.766" transform="translate(-923.402 -169.386)" fill="#78c2ff"/>
          </g>
        </g>
        <g id="Grupo_877065" data-name="Grupo 877065" transform="translate(209.821 70.976)">
          <g id="Grupo_877064" data-name="Grupo 877064" clip-path="url(#clip-path-4)">
            <rect id="Rectángulo_293151" data-name="Rectángulo 293151" width="42.243" height="86.096" transform="translate(-6.3 -0.001)" fill="#5ad1a5"/>
          </g>
        </g>
        <g id="Grupo_877067" data-name="Grupo 877067" transform="translate(0 0.003)">
          <g id="Grupo_877066" data-name="Grupo 877066" transform="translate(0 0)" clip-path="url(#clip-path)">
            <path id="Trazado_601231" data-name="Trazado 601231" d="M1570.005,673.993c-3.539-2.489-7.681-19.834-7.928-30.165-.126-5.292-1.691-7.5-3.071-9.442-1.319-1.859-2.459-3.465-1.795-7.152,1.268-7.046-2.066-10.088-2.1-10.118l.386-.44c.148.13,3.621,3.267,2.29,10.662-.62,3.445.4,4.886,1.7,6.71,1.358,1.914,3.048,4.3,3.179,9.767.265,11.087,4.5,27.464,7.68,29.7Z" transform="translate(-1334.662 -529.257)" fill="#fff"/>
          </g>
        </g>
        <g id="Grupo_877069" data-name="Grupo 877069" transform="translate(232.284 111.281)">
          <g id="Grupo_877068" data-name="Grupo 877068" clip-path="url(#clip-path-6)">
            <rect id="Rectángulo_293153" data-name="Rectángulo 293153" width="28.782" height="34.744" transform="translate(-0.724 0)" fill="url(#linear-gradient)"/>
          </g>
        </g>
        <g id="Grupo_877071" data-name="Grupo 877071" transform="translate(234.65 115.955)">
          <g id="Grupo_877070" data-name="Grupo 877070" clip-path="url(#clip-path-7)">
            <rect id="Rectángulo_293154" data-name="Rectángulo 293154" width="20.783" height="33.449" fill="url(#linear-gradient-2)"/>
          </g>
        </g>
        <g id="Grupo_877073" data-name="Grupo 877073" transform="translate(227.145 84.021)">
          <g id="Grupo_877072" data-name="Grupo 877072" clip-path="url(#clip-path-8)">
            <rect id="Rectángulo_293155" data-name="Rectángulo 293155" width="31.608" height="66.506" transform="translate(-3.635 0)" fill="#3185af"/>
          </g>
        </g>
        <g id="Grupo_877075" data-name="Grupo 877075" transform="translate(0 0.003)">
          <g id="Grupo_877074" data-name="Grupo 877074" transform="translate(0 0)" clip-path="url(#clip-path)">
            <path id="Trazado_601235" data-name="Trazado 601235" d="M1647.591,756.38c-.464-1.971-4.432-19.313-.73-21.409,3.262-1.848,3.182-9.034,2.673-15.82-.45-6.007,7.265-8.815,7.593-8.931l.2.552c-.076.027-7.622,2.776-7.205,8.336.523,6.969.579,14.364-2.969,16.373-2.811,1.592-.223,15.53,1.011,20.766Z" transform="translate(-1412.063 -609.54)" fill="#fff"/>
          </g>
        </g>
        <g id="Grupo_877077" data-name="Grupo 877077" transform="translate(221.591 140.667)">
          <g id="Grupo_877076" data-name="Grupo 877076" clip-path="url(#clip-path-10)">
            <rect id="Rectángulo_293157" data-name="Rectángulo 293157" width="22.335" height="20.01" transform="translate(0 0)" fill="url(#linear-gradient-3)"/>
          </g>
        </g>
        <g id="Grupo_877079" data-name="Grupo 877079" transform="translate(221.591 140.667)">
          <g id="Grupo_877078" data-name="Grupo 877078" clip-path="url(#clip-path-11)">
            <rect id="Rectángulo_293158" data-name="Rectángulo 293158" width="22.335" height="20.01" fill="url(#linear-gradient-4)"/>
          </g>
        </g>
        <g id="Grupo_877081" data-name="Grupo 877081" transform="translate(0 0.003)">
          <g id="Grupo_877080" data-name="Grupo 877080" transform="translate(0 0)" clip-path="url(#clip-path)">
            <path id="Trazado_601238" data-name="Trazado 601238" d="M300.649,688.166s.518,9.4-1.206,10.773c-.8.636-2.676.837-4.705.839-.669,0-1.353-.02-2.022-.053h0c-2.668-.133-5.062-.472-5.062-.472s-6.916.351-6.578-3.94a4.067,4.067,0,0,1,1.838-1.595c.954-.273,5.31.478,6.065.511.832.036,6.736,1.348,6.989,1.254a9.5,9.5,0,0,0,.973-3.959c.06-2.241.051-4.3.051-4.3Z" transform="translate(-241.219 -589.801)" fill="#3c4169"/>
            <path id="Trazado_601239" data-name="Trazado 601239" d="M139.827,1323.328a9.6,9.6,0,0,1-1.07,1.955c-.49.555-2.364,1.547-2.374,3.194-.011,1.787,3.16,1.291,4.4,1.226s1.334-1.02,1.856-2.032,1.048-.84,1.146-1.656a10.392,10.392,0,0,0-.4-2.643Z" transform="translate(-117.049 -1135.736)" fill="#252840"/>
            <path id="Trazado_601240" data-name="Trazado 601240" d="M309.8,1323.649a8.471,8.471,0,0,0,3.481,2.194c1.754.38,2.981.865,2.994,1.906s-5.047,1.727-7.054.677c-3-1.566-3.3-1.094-3.632-1.877s.4-2.876.377-3.125c-.027-.308,3.834.225,3.834.225" transform="translate(-262.192 -1135.736)" fill="#252840"/>
            <path id="Trazado_601241" data-name="Trazado 601241" d="M179.96,933.242s1.815,13.18,2.555,17.636c.867,5.21,1.16,9.514,1.4,12.21.3,3.391-2.876,21.636-2.663,22.627s-5.725-.412-5.725-.412,1.866-21.709.961-25.32c-.843-3.363-3.884-18.146-4.653-17.227s-5.6,17.14-6.168,19.793-6.062,23.419-6.062,23.419-4.105.882-5.15.051c0,0,3.583-19.078,3.945-24.051.138-1.9,1.261-22.594,4.466-30.979,1.694-4.431,17.092,2.254,17.092,2.254" transform="translate(-132.561 -797.711)" fill="#292c47"/>
            <path id="Trazado_601242" data-name="Trazado 601242" d="M0,658.378l.333-4.951A1.847,1.847,0,0,1,2.3,651.708l10.62.714a1.847,1.847,0,0,1,1.719,1.967l-.333,4.951a1.847,1.847,0,0,1-1.967,1.719l-10.62-.714A1.847,1.847,0,0,1,0,658.378" transform="translate(0 -559.32)" fill="#c4b4af"/>
            <rect id="Rectángulo_293159" data-name="Rectángulo 293159" width="9.276" height="69.604" transform="translate(7.267 101.708) rotate(-86.154)" fill="#eb4747"/>
            <rect id="Rectángulo_293160" data-name="Rectángulo 293160" width="3.092" height="69.604" transform="translate(7.682 95.538) rotate(-86.154)" fill="#6880eb"/>
            <rect id="Rectángulo_293161" data-name="Rectángulo 293161" width="3.092" height="69.604" transform="translate(7.474 98.623) rotate(-86.154)" fill="#4a64e0"/>
            <rect id="Rectángulo_293162" data-name="Rectángulo 293162" width="3.092" height="69.604" transform="translate(7.267 101.708) rotate(-86.154)" fill="#4860cf"/>
            <path id="Trazado_601243" data-name="Trazado 601243" d="M541.164,694.382l.622-9.255,10.053,4.374,2.585,1.125-2.713.768Z" transform="translate(-464.449 -588.005)" fill="#eddad3"/>
            <path id="Trazado_601244" data-name="Trazado 601244" d="M535.642,688.192a1.547,1.547,0,0,1,.207-3.085Z" transform="translate(-458.513 -587.985)" fill="#deccc6"/>
            <path id="Trazado_601245" data-name="Trazado 601245" d="M534.18,709.953a1.547,1.547,0,0,1,.207-3.085Z" transform="translate(-457.258 -606.661)" fill="#e3d1ca"/>
            <path id="Trazado_601246" data-name="Trazado 601246" d="M532.717,731.715a1.547,1.547,0,0,1,.208-3.085Z" transform="translate(-456.003 -625.338)" fill="#eddad3"/>
            <rect id="Rectángulo_293163" data-name="Rectángulo 293163" width="3.092" height="4.277" transform="matrix(0.067, -0.998, 0.998, 0.067, 5.293, 95.377)" fill="#b39696"/>
            <rect id="Rectángulo_293164" data-name="Rectángulo 293164" width="3.092" height="4.277" transform="translate(5.086 98.462) rotate(-86.154)" fill="#dbb8b8"/>
            <rect id="Rectángulo_293165" data-name="Rectángulo 293165" width="3.092" height="4.277" transform="translate(4.879 101.547) rotate(-86.154)" fill="#f2cbcb"/>
            <path id="Trazado_601247" data-name="Trazado 601247" d="M544.089,688.212l12.846,2.413-12.638-5.5Z" transform="translate(-466.96 -588.005)" fill="#deccc6"/>
            <path id="Trazado_601248" data-name="Trazado 601248" d="M542.627,709.973l13.053-.671-12.846-2.413Z" transform="translate(-465.705 -606.682)" fill="#e3d1ca"/>
            <path id="Trazado_601249" data-name="Trazado 601249" d="M541.37,724.585l13.053-.672-13.261,3.757Z" transform="translate(-464.448 -621.293)" fill="#eddad3"/>
            <path id="Trazado_601250" data-name="Trazado 601250" d="M615.572,717.873l.127-1.893,2.585,1.125Z" transform="translate(-528.31 -614.485)" fill="#323438"/>
            <path id="Trazado_601251" data-name="Trazado 601251" d="M397.424,668.55s-.36,1.6-.014,2.041.508-.125.508-.125-.17.56.267.748.592-.489.592-.489a.474.474,0,0,0,.48.485c.493.025.492-.567.492-.567s.344.664.744.2a2.455,2.455,0,0,0,.407-1.953s-.092-.277-.568-.269a.656.656,0,0,0-.944-.414s-.616-.559-.992,0a.571.571,0,0,0-.971.334" transform="translate(-340.945 -573.276)" fill="#efaa88"/>
            <path id="Trazado_601252" data-name="Trazado 601252" d="M163.224,746.983a10.5,10.5,0,0,0,3.2.511c.945-.173.467-11.748.5-14.157a61.436,61.436,0,0,1,1.1-7.111.04.04,0,0,0,0,.009.009.009,0,0,1,0,.006s0,.006,0,.009a49.309,49.309,0,0,1,1.6,8.311c.053,2.669-.348,12.879-.348,12.879l3.976.387,11.428.28,2.384-.281s-.285-4.366-.391-6.44c-.066-1.318-.322-3.678-.256-5.977a21.161,21.161,0,0,1,.2-3.466c.026-4.606.3-9.167.3-9.167q.232-3.132.323-5.862c-.5-.266-1.109-.578-1.594-.809-1.5-.714-3.589-1.676-4.93-2.291-.786-.361-1.554-.624-1.554-.624s-5.36-.514-5.795-.487a13.606,13.606,0,0,0-1.686.577,61.576,61.576,0,0,0-6.148,2.609c-.856.613-2.665,15.17-2.747,16.189-.147,1.836.434,14.906.434,14.906" transform="translate(-139.693 -611.671)" fill="#5ad1a5"/>
            <path id="Trazado_601253" data-name="Trazado 601253" d="M242.665,947.6a94.942,94.942,0,0,1-14.713,0v2.254s10.317,1.49,15.057-.43Z" transform="translate(-195.638 -813.27)" fill="#1d2033"/>
            <path id="Trazado_601254" data-name="Trazado 601254" d="M284.551,718.452a43.082,43.082,0,0,1,2.233,9.7c.368,2.573,1.049,6.9,1.545,11.326h0c.391,3.485,1.282,7.061,1.566,9.729.294,2.764,1.178,10.905,1.178,10.905l2.146-1.352c.306-.283.735-.651.611-1.049a115.182,115.182,0,0,1-2.386-13.691s0-.007,0-.011c-.032-.265-.063-.527-.093-.787l0-.042c-.126-1.1-.23-2.15-.3-3.113a9.8,9.8,0,0,1,.1-2.166c.3-4.927.447-10.12.447-10.12.158-2.127.548-4.878.608-6.73a11.7,11.7,0,0,1-1.9-.38s-4.228-1.581-5.739-2.218" transform="translate(-244.214 -616.606)" fill="#3c4169"/>
            <path id="Trazado_601255" data-name="Trazado 601255" d="M235.971,618.363s3.98.671,3.3,6.9-4.188,5.681-4.423,5.672-3.533.075-3.707-7.543c0,0-.051-5.632,4.826-5.031" transform="translate(-198.379 -530.667)" fill="#eea987"/>
            <path id="Trazado_601256" data-name="Trazado 601256" d="M245.844,690.231s0,2.567.1,3.122c.113.6-3.2,2.324-5.332.313a22.03,22.03,0,0,0,.3-3.793c-.134-.99,4.929.358,4.929.358" transform="translate(-206.508 -591.767)" fill="#eea987"/>
            <path id="Trazado_601257" data-name="Trazado 601257" d="M287.034,655.867s.442-.462.6.012a8.229,8.229,0,0,1-.652,2.669s-.082.182-.185.08a22.834,22.834,0,0,1,.24-2.762" transform="translate(-246.122 -562.72)" fill="#eea987"/>
            <path id="Trazado_601258" data-name="Trazado 601258" d="M227.674,652.4s-.422-.479-.6-.012a8,8,0,0,0,.541,2.693s.137.215.245.118a23.005,23.005,0,0,0-.19-2.8" transform="translate(-194.861 -559.734)" fill="#eea987"/>
            <path id="Trazado_601259" data-name="Trazado 601259" d="M237.923,616.692c-.137.853-.267,1.486-.267,1.486l-.579.757a15.265,15.265,0,0,0-.054-1.935c-.033-.1-.073-.276-.113-.467-.066-.315-.135-.671-.181-.789a8.521,8.521,0,0,0-6.382.2s.025.257.023.544c0,.334-.038.708-.191.764-.285.1-.166,1.958-.166,1.958l-.463-.535s-.134-.968-.266-2.081a.061.061,0,0,1,0-.008c-.03-.26-.06-.526-.089-.791a5.2,5.2,0,0,1,1.5-4.345,7.174,7.174,0,0,1,5.171.023,1.8,1.8,0,0,1,.768.2c1.63,1.794,1.289,5.014,1.289,5.014" transform="translate(-196.691 -524.385)" fill="#d88a51"/>
            <path id="Trazado_601260" data-name="Trazado 601260" d="M244.643,701.461a2.533,2.533,0,0,0,2.111.848,2.872,2.872,0,0,0,2.116-.8,2.575,2.575,0,0,1-2.123,1.446,2.6,2.6,0,0,1-2.1-1.492" transform="translate(-209.963 -602.024)" fill="#c78d71"/>
            <path id="Trazado_601261" data-name="Trazado 601261" d="M270.325,714.59l-1.485,1.1a15.5,15.5,0,0,0,1.267-3.7Z" transform="translate(-230.73 -611.056)" fill="#a09ea6"/>
            <path id="Trazado_601262" data-name="Trazado 601262" d="M277.777,711.984l1.016.939,1.062,3.169-1.86-1.5Z" transform="translate(-238.4 -611.055)" fill="#eae6f2"/>
            <path id="Trazado_601263" data-name="Trazado 601263" d="M257.242,718.651a17.514,17.514,0,0,1-1.082,2.758s-1.558-1.365-2.049-1.852,3.131-.907,3.131-.907" transform="translate(-218.05 -616.777)" fill="#eea987"/>
            <path id="Trazado_601264" data-name="Trazado 601264" d="M253.36,727.344l1.63,1.526a7.288,7.288,0,0,1-2.288-.449Z" transform="translate(-216.88 -624.238)" fill="#a09ea6"/>
            <path id="Trazado_601265" data-name="Trazado 601265" d="M232.375,707.508a15.433,15.433,0,0,0,2.163,2.812l-1.447,2.4-2.319-4.213Z" transform="translate(-198.058 -607.214)" fill="#eae6f2"/>
            <path id="Trazado_601266" data-name="Trazado 601266" d="M163.589,735.045c-.166,2.235.779,14.6-.164,14.778a21.805,21.805,0,0,1-4.411-.589s-.435-13.338-.3-14.736c.1-1.018,1.722-16.283,2.577-16.9.494-.355,4.155-1.652,5.951-2.36.328-.13,1.368-.566,1.662-.678.381.424,3.7,8.214,4.016,14.289a81.542,81.542,0,0,1-.667,8.945c-.352,3.4-.741,6.06-1.027,8.906-.563,5.608-.956,10.07-.956,10.07l-5.581-2.485c-.9-.452-2.154-2.306-1.814-3.257,1.29-3.614,2.915-9.788,2.917-12.959,0,0-.622-7.765-1.116-9.472a47.852,47.852,0,0,0-1.092,6.443" transform="translate(-136.195 -613.269)" fill="#3c4169"/>
            <path id="Trazado_601267" data-name="Trazado 601267" d="M159.82,970.124a2.267,2.267,0,0,1-.174-.7s.063-.438.088-.752a2.215,2.215,0,0,0,.009-.243,4.149,4.149,0,0,1,.02-1.327c.13-.575.794-2.56.794-2.56l1.792.266,1.557-.211a27.008,27.008,0,0,1,1.1,3.938,1.413,1.413,0,0,1-.025.156,5.294,5.294,0,0,1-.437,1c-.029.086-.375.927-.635,1.008a.888.888,0,0,1-.855-.12,2.124,2.124,0,0,1-1.167-.018,1.319,1.319,0,0,1-1.143-.222s-.685.124-.927-.21" transform="translate(-137.014 -827.807)" fill="#efaa88"/>
            <path id="Trazado_601268" data-name="Trazado 601268" d="M164.556,872.169,164.5,882a17.1,17.1,0,0,1-4.665-1.086l-.188-13.861Z" transform="translate(-137.015 -744.141)" fill="#3c4169"/>
            <rect id="Rectángulo_293166" data-name="Rectángulo 293166" width="3.697" height="2.749" transform="translate(37.748 134.468)" fill="#3a4066"/>
            <path id="Trazado_601269" data-name="Trazado 601269" d="M1521.595,1267.23a4.269,4.269,0,0,1,1.512-1.449c.874-.406,2.667,1.013,2.824,1.8l2.077,3.031-.393.269-1.109-1.618c.755,1.818,1.834,3.992,1.076,5.086-1.017,1.468-3.324,2.952-3.933,2.7s-.487-4.525-.487-4.525c.657-3.768-1.566-5.292-1.566-5.292" transform="translate(-1305.897 -1086.286)" fill="#1d3b54"/>
            <path id="Trazado_601270" data-name="Trazado 601270" d="M1521.595,1267.665a23.55,23.55,0,0,1,1.146,2.587c.389,1.13.462,4.259.707,4.477s2.178-.758,2.436-1.928-.526-3.509-1.272-4.739a7.635,7.635,0,0,0-1.5-1.845,1.942,1.942,0,0,0-1.512,1.449" transform="translate(-1305.897 -1086.72)" fill="#de9673"/>
            <path id="Trazado_601271" data-name="Trazado 601271" d="M1468.969,1082.967s1.184,6.283,1.184,7.786a13.826,13.826,0,0,0,1.366,5.782c.956,1.821,5.152,14.263,5.516,15.713s.676,2.818.676,2.818,2.094-.956,2.094-2.322-1.821-12.657-2.14-14.888-2.959-13.659-2.959-13.659Z" transform="translate(-1260.731 -929.448)" fill="#de9673"/>
            <path id="Trazado_601272" data-name="Trazado 601272" d="M1513.315,1078.541s-.41,5.236-.364,6.6.683,4.462.683,5.281,0,17.8-.679,19.849,1.908.64,1.908.64,4.507-11.169,4.507-15.829-.546-6.982-.228-9.941a36.129,36.129,0,0,1,1.736-6.855Z" transform="translate(-1298.384 -925.432)" fill="#eea886"/>
            <path id="Trazado_601273" data-name="Trazado 601273" d="M1474.566,902.295a16.287,16.287,0,0,1,3.061,6.93c.637,3.961-.754,11.431-1.25,13.592-.435,1.9-1.265,7.965-1.311,8.6,0,0-8.147.923-14.339-1.035,0,0-.567-8.477-.931-12.074s1.413-15.742,1.413-15.742Z" transform="translate(-1252.817 -774.388)" fill="#eb4747"/>
            <path id="Trazado_601274" data-name="Trazado 601274" d="M1483.289,1307.573c2.918-2.548,2.137-5.165,2.137-5.165a4.325,4.325,0,0,1,2.114-.178c.948.236,1.455,2.5,1.077,3.218l-.3,3.711-.481-.039.158-1.981c-.563,1.912-1.1,4.313-2.392,4.691-1.736.508-4.5.207-4.815-.383s2.5-3.874,2.5-3.874" transform="translate(-1270.856 -1117.566)" fill="#1d3b54"/>
            <path id="Trazado_601275" data-name="Trazado 601275" d="M1486.486,706.18s.722,4.3.1,5.741,3.314-1.688,3.314-1.688-1.634-4.735-3.412-4.053" transform="translate(-1275.765 -606.016)" fill="#754836"/>
            <path id="Trazado_601276" data-name="Trazado 601276" d="M1496.754,621.574s6.32-1.447,7.107,5.307-2.056,7.6-.131,12.177-4.7-1.491-4.7-1.491Z" transform="translate(-1284.577 -533.35)" fill="#754836"/>
            <path id="Trazado_601277" data-name="Trazado 601277" d="M1466.538,621.663a5.491,5.491,0,0,0-5.626,5.193,13.385,13.385,0,0,0,.469,2.056c.307.9-.433,3.606-.216,3.732a5.879,5.879,0,0,0,1.1.27s1.028,2.9,2.056,2.849a8.53,8.53,0,0,0,6.63-4.664c1.731-3.7,2.14-9.3-4.412-9.436" transform="translate(-1253.816 -533.537)" fill="#eea886"/>
            <path id="Trazado_601278" data-name="Trazado 601278" d="M1617.766,979.989s-.151-2.6-.84-3-.29.4-.29.4.387,1.886.472,2.65a3.907,3.907,0,0,0,.658-.048" transform="translate(-1387.367 -838.394)" fill="#1d3b54"/>
            <path id="Trazado_601279" data-name="Trazado 601279" d="M1596.079,946.945a19.069,19.069,0,0,1-.545,2.288c-.353,1.123-.678,1.481-.536,2.125.107.486.657.85.8.695s.206-2.045.989-2.036-.234,2.339.232,2.168,2.259-1.153,2.146-2.106-.83-1.64-.784-3.062a3.056,3.056,0,0,0-.36-1.829Z" transform="translate(-1368.865 -811.201)" fill="#eea886"/>
            <path id="Trazado_601280" data-name="Trazado 601280" d="M1601.29,978.627s-1.042.266-.98,3.791l1.18-.2a12.143,12.143,0,0,1,.331-3.01s-.06-.69-.531-.584" transform="translate(-1373.451 -839.89)" fill="#1d3b54"/>
            <path id="Trazado_601281" data-name="Trazado 601281" d="M1576.717,995.266l9.19-2.607-.027,11.318-9.146,5.481Z" transform="translate(-1353.205 -851.942)" fill="#eddad3"/>
            <path id="Trazado_601282" data-name="Trazado 601282" d="M1576.838,1009.458l1.151.213,8.9-5.532-.11-11.428-.764-.052Z" transform="translate(-1353.309 -851.942)" fill="#eddad3"/>
            <path id="Trazado_601283" data-name="Trazado 601283" d="M1455.166,728.1s-2.45,1.006-2.887,1.312-1.312,3.849-1.531,4.156-2.332,2.934-2.04,5.063a5.492,5.492,0,0,0,1.788,3.215c.612.656,1.179,4.188,1.371,4.714s-.418,7.415-.418,7.415,7.188,2.8,13.618-1.97a54.076,54.076,0,0,1-1.284-5.445c0-.831.831-6.693,3.062-10.149s-.394-7.13-2.1-7.568-4.987-1.662-4.987-1.662Z" transform="translate(-1243.318 -624.1)" fill="#eb4747"/>
            <path id="Trazado_601284" data-name="Trazado 601284" d="M1544.294,735.187s3.6-.222,5.4,1.878,1.706,4.593,2.165,5.676,1.509,5.741,1.739,6.5.454,5,.782,8.408.262,9.783.262,9.783l-3.442-.624s-.139-6.074-.226-9.595-2.953-9.744-4.035-12.467-5.393-7.847-2.646-9.555" transform="translate(-1324.605 -630.963)" fill="#eb4747"/>
            <path id="Trazado_601285" data-name="Trazado 601285" d="M1435.959,741.517a2.971,2.971,0,0,0-2.336,1.676c-.755,1.575-1.043,2.885-1.24,3.278s-2.927,5.58-3.09,6.728.1,3.248,1.542,3.806,6.627.623,6.627.623-1.312-2.667-.1-4.045c0,0-3.762-.68-4.652-.77-.939-.095,4.441-10.116,3.249-11.3" transform="translate(-1226.641 -636.401)" fill="#eb4747"/>
            <path id="Trazado_601286" data-name="Trazado 601286" d="M1442.03,751.938l-7.009,16.37-8.739-4.117,6.463-15.721Z" transform="translate(-1224.095 -642.37)" fill="#1d3b54"/>
            <path id="Trazado_601287" data-name="Trazado 601287" d="M1509.008,829.661s.949.252,1.25.3-.071.6-.44.617-.81-.913-.81-.913" transform="translate(-1295.094 -712.05)" fill="#eea886"/>
            <path id="Trazado_601288" data-name="Trazado 601288" d="M1479.11,831.725a2.008,2.008,0,0,1-.628-.125s-.328-.215-.57-.353a1.846,1.846,0,0,0-.191-.1,3.672,3.672,0,0,1-1.055-.515c-.412-.32-1.752-1.6-1.752-1.6l.886-1.335.685-1.063a17.284,17.284,0,0,1,3.3.333,1.263,1.263,0,0,1,.115.079,4.671,4.671,0,0,1,.637.725c.058.056.6.648.569.887a.785.785,0,0,1-.417.64,1.879,1.879,0,0,1-.453.928,1.167,1.167,0,0,1-.607.832s-.158.6-.517.664" transform="translate(-1265.833 -709.455)" fill="#eea886"/>
            <path id="Trazado_601289" data-name="Trazado 601289" d="M1437.354,786.525s-4.268-.763-5.446-.888a14.75,14.75,0,0,1,.135-2.766,10.792,10.792,0,0,1,1.257-2.972l-2.182,2a24.914,24.914,0,0,0-1.835,4.242,4.1,4.1,0,0,0,.808,3.3c1.062,1.258,6.074.682,6.074.682s-.419-1.542,1.189-3.6" transform="translate(-1226.633 -669.343)" fill="#eb4747"/>
            <path id="Trazado_601290" data-name="Trazado 601290" d="M1495.746,695.612s.138.407.3,1.012c.082.309.171.67.249,1.054a7.228,7.228,0,0,1,.108,3.15s2.3.724,4-2.541c0,0-.869-3.441.074-5.568s-4.732,2.893-4.732,2.893" transform="translate(-1283.712 -594.071)" fill="#eea886"/>
            <path id="Trazado_601291" data-name="Trazado 601291" d="M1460.631,622.576a14.571,14.571,0,0,0,5.3,2.007c2.62.288,4.078,4.252,4.078,4.252s4.12-6.415.8-10.358-10.891-.89-10.182,4.1" transform="translate(-1253.535 -529.257)" fill="#754836"/>
            <path id="Trazado_601292" data-name="Trazado 601292" d="M1505.811,666.123a.8.8,0,0,1,1.388-.613c.847.667-.2,3.1-.884,2.885s-.5-1.749-.5-2.272" transform="translate(-1292.332 -570.947)" fill="#eea886"/>
            <path id="Trazado_601293" data-name="Trazado 601293" d="M1492.022,726.551s-1.08,3.188,1.446,3.172,3.626-2,4.347-3.766a9.189,9.189,0,0,0-1.706-.647,25.655,25.655,0,0,0-4.087,1.241" transform="translate(-1280.319 -622.489)" fill="#eea886"/>
            <path id="Trazado_601294" data-name="Trazado 601294" d="M1600.311,1001.939l1.185.153v-.553Z" transform="translate(-1373.454 -859.564)" fill="#1d3b54"/>
            <path id="Trazado_601295" data-name="Trazado 601295" d="M1620.589,997.41l.654.078s0-.2,0-.263-.629.144-.651.185" transform="translate(-1390.857 -855.85)" fill="#1d3b54"/>
            <path id="Trazado_601296" data-name="Trazado 601296" d="M1495.231,1301.483a23.823,23.823,0,0,1-.745,2.767c-.414,1.138-2.349,3.649-2.295,3.976s2.2.791,3.147.033,1.821-3.1,2.017-4.543a10.708,10.708,0,0,0,.092-2.376,2.117,2.117,0,0,0-2.216.142" transform="translate(-1280.66 -1116.641)" fill="#eea886"/>
            <path id="Trazado_601297" data-name="Trazado 601297" d="M1496.415,706.45c.082.309.2.682.3,1.05a10.941,10.941,0,0,0,3.067-3.063,12.926,12.926,0,0,1-3.366,2.013" transform="translate(-1284.286 -604.578)" fill="#a77860"/>
            <path id="Trazado_601298" data-name="Trazado 601298" d="M878.463,998.215s-.5,1.975-.571,2.273-3.166-.522-3.166-.522l0-2.416s3.371.339,3.734.665" transform="translate(-750.727 -856.14)" fill="#5c544d"/>
            <path id="Trazado_601299" data-name="Trazado 601299" d="M870.719,1013.556a8.581,8.581,0,0,0,1.775,1.948c.908.631,4.413,1.448,4.925,2.055.369.438.883,2.1-4.741,1.34-4-.538-5.966-.4-6.326-1.1s1.14-4.73,1.14-4.73a7.672,7.672,0,0,0,3.227.486" transform="translate(-743.492 -869.46)" fill="#3c4145"/>
            <path id="Trazado_601300" data-name="Trazado 601300" d="M897.157,705.647l11.224-114.366-1.415-.137L895.742,705.51Z" transform="translate(-768.764 -507.345)" fill="#f0c141"/>
            <path id="Trazado_601301" data-name="Trazado 601301" d="M735.734,689.981l11.224-114.366-1.415-.137L734.319,689.844Z" transform="translate(-630.224 -493.9)" fill="#f0c141"/>
            <rect id="Rectángulo_293167" data-name="Rectángulo 293167" width="1.421" height="22.991" transform="translate(115.7 84.988) rotate(-84.46)" fill="#f0c141"/>
            <rect id="Rectángulo_293168" data-name="Rectángulo 293168" width="1.421" height="22.991" transform="matrix(0.097, -0.995, 0.995, 0.097, 114.667, 95.629)" fill="#f0c141"/>
            <rect id="Rectángulo_293169" data-name="Rectángulo 293169" width="1.421" height="22.991" transform="translate(113.634 106.268) rotate(-84.454)" fill="#f0c141"/>
            <rect id="Rectángulo_293170" data-name="Rectángulo 293170" width="1.421" height="22.991" transform="translate(112.602 116.909) rotate(-84.454)" fill="#f0c141"/>
            <rect id="Rectángulo_293171" data-name="Rectángulo 293171" width="1.421" height="22.991" transform="translate(111.569 127.55) rotate(-84.454)" fill="#f0c141"/>
            <rect id="Rectángulo_293172" data-name="Rectángulo 293172" width="1.421" height="22.991" transform="translate(110.536 138.19) rotate(-84.454)" fill="#f0c141"/>
            <rect id="Rectángulo_293173" data-name="Rectángulo 293173" width="1.422" height="22.991" transform="translate(109.504 148.831) rotate(-84.455)" fill="#f0c141"/>
            <rect id="Rectángulo_293174" data-name="Rectángulo 293174" width="1.421" height="22.991" transform="translate(108.471 159.472) rotate(-84.454)" fill="#f0c141"/>
            <rect id="Rectángulo_293175" data-name="Rectángulo 293175" width="1.421" height="22.991" transform="matrix(0.097, -0.995, 0.995, 0.097, 107.438, 170.112)" fill="#f0c141"/>
            <rect id="Rectángulo_293176" data-name="Rectángulo 293176" width="1.421" height="22.991" transform="translate(106.406 180.754) rotate(-84.46)" fill="#f0c141"/>
            <rect id="Rectángulo_293177" data-name="Rectángulo 293177" width="1.421" height="22.991" transform="translate(105.373 191.393) rotate(-84.454)" fill="#f0c141"/>
            <path id="Trazado_601302" data-name="Trazado 601302" d="M826.111,699.3s2.254,8.37,2.849,11.362c.518,2.607,1.559,9.55,1.707,11.2s-6.654,17.629-7.362,20.515l-6.2-.995s6.538-16.63,4.833-20.326c-2.536-5.5-2.867-5.33-4.865-9.858s-6.573-4.635-7.8-13.035c0,0,15.173-1.529,16.836,1.136" transform="translate(-694.554 -598.818)" fill="#3c4145"/>
            <path id="Trazado_601303" data-name="Trazado 601303" d="M834.717,419.653s4.115-1.537,6.012,1.6,1.715,9.4-.36,10.174-5.19.368-6.252-1.592a15.7,15.7,0,0,1-1.974-6.687,4.126,4.126,0,0,1,2.574-3.49" transform="translate(-714.179 -359.841)" fill="#eea886"/>
            <path id="Trazado_601304" data-name="Trazado 601304" d="M846.463,480.649a3.453,3.453,0,0,0,.109,1.61c.275.531-5.176.545-5.176.545a35.9,35.9,0,0,0-1.281-5.332c-.839-2.442,6.348,3.177,6.348,3.177" transform="translate(-720.963 -409.26)" fill="#eea886"/>
            <path id="Trazado_601305" data-name="Trazado 601305" d="M831.214,425.4s.376.621,1.912.38,3.409-2.284,4.05-2.508.647-.6.647-.6l.4.586.681.043s-.621-1.828.316-2.573-.973-5.915-5.9-4.194c0,0-3.782,1.043-3.645,3.194s.688,4.6,1.535,5.673" transform="translate(-712.062 -357.19)" fill="#3a3f47"/>
            <path id="Trazado_601306" data-name="Trazado 601306" d="M877.74,451.676c-.086-.361-1-1.392-1.355-.288s.531,2.589,1.023,2.462.551-1.259.332-2.174" transform="translate(-752.081 -386.975)" fill="#eea886"/>
            <path id="Trazado_601307" data-name="Trazado 601307" d="M775.536,540.013a2.424,2.424,0,0,0,1.082,1.412,1.758,1.758,0,0,0,.938.308l.244.008h0l4.276.146s3.179-10.274-2.784-14.192c-.185.018-4.171,7.366-3.757,12.318" transform="translate(-665.572 -452.89)" fill="#ffd255"/>
            <path id="Trazado_601308" data-name="Trazado 601308" d="M866.352,1017.8c.359.7,2.331.56,6.326,1.1a18.292,18.292,0,0,0,2.627.194l.233-2.4a18.118,18.118,0,0,1-3.045-1.185,8.573,8.573,0,0,1-1.775-1.948,7.672,7.672,0,0,1-3.227-.486s-1.5,4.034-1.139,4.731" transform="translate(-743.492 -869.46)" fill="#3c4145"/>
            <path id="Trazado_601309" data-name="Trazado 601309" d="M851.422,510.37s-3.355-.781-5.246-.142l-.286.264s-.575,1.1,1.589,1.2,5.565.252,3.943-1.319" transform="translate(-725.919 -437.684)" fill="#ffd255"/>
            <path id="Trazado_601310" data-name="Trazado 601310" d="M770.208,1063.389s-.5,1.976-.571,2.273-3.166-.521-3.166-.521l0-2.416s3.371.339,3.734.664" transform="translate(-657.818 -912.076)" fill="#5c544d"/>
            <path id="Trazado_601311" data-name="Trazado 601311" d="M766.2,700.8a65.253,65.253,0,0,0-1.464,9.323c-.309,4.31-.872,9.038-1.319,13.546-.5,5.026-1.921,13.15-1.995,15.839s-2.337,14.437-2.337,14.437l5.788.665s3.761-20.763,4.649-22.885,5.293-17.253,5.441-18.951S766.2,700.8,766.2,700.8" transform="translate(-651.48 -601.461)" fill="#3c4145"/>
            <path id="Trazado_601312" data-name="Trazado 601312" d="M762.464,1078.731a8.578,8.578,0,0,0,1.775,1.948c.908.631,4.413,1.448,4.925,2.055.369.438.883,2.1-4.74,1.34-4-.538-5.967-.4-6.326-1.1s1.139-4.73,1.139-4.73a7.673,7.673,0,0,0,3.227.486" transform="translate(-650.583 -925.396)" fill="#3c4145"/>
            <path id="Trazado_601313" data-name="Trazado 601313" d="M814.45,551c.493-.07-1.224-14.766-1.093-15.687.088-.615.074-5.391.038-8.368l.537-3.013a13.692,13.692,0,0,1,1.18-.746c.746-.431,1.682-.923,2.722-1.443-.121-.711-.205-1.272-.237-1.6a6.019,6.019,0,0,0-3.045-4.639,4.982,4.982,0,0,0-.694-.346c-.383-.162-.759-.32-1.124-.47-2.427-1-5.51-1.936-5.51-1.936h-4.953a42,42,0,0,0-6.018,1.673,4.2,4.2,0,0,0-.812.445l.673,14.121V529s0,.011,0,.018c.3,1.986.623,4.33.729,5.973.044.671-.723,4.273-1.124,7.58l-1.4,7.912s.81,3.278,20.127.517" transform="translate(-681.721 -440.065)" fill="#ffd255"/>
            <path id="Trazado_601314" data-name="Trazado 601314" d="M1076.372,437.037a2.12,2.12,0,0,1-.5.458s-.387.146-.655.266a2.035,2.035,0,0,0-.2.1,3.881,3.881,0,0,1-1.1.58c-.529.152-2.921.7-2.921.7l-.557-1.42-.4-1.147a24.3,24.3,0,0,1,2.691-3.068,1.327,1.327,0,0,1,.139-.049,4.945,4.945,0,0,1,1.015-.092c.084-.015.928-.11,1.11.066a.829.829,0,0,1,.286.754,1.983,1.983,0,0,1,.51.964,1.232,1.232,0,0,1,.332,1.036s.41.505.245.854" transform="translate(-918.356 -371.898)" fill="#eea886"/>
            <path id="Trazado_601315" data-name="Trazado 601315" d="M917.736,473.254a32.808,32.808,0,0,1,3.743-2.076c4.608-2.305,10.3-6.485,11.379-7.088,1.663-.928,6.917-7.348,6.917-7.348-.271-.967-2.762-2.907-2.762-2.907s-7.965,7.545-9.706,8.474c-1.5.8-8.891,1.605-10.928,1.815l-.52.053c-2.127,2.9.69,9.843,1.878,9.078" transform="translate(-785.365 -389.501)" fill="#ffd255"/>
          </g>
        </g>
      </g>
      <g id="Grupo_874344" data-name="Grupo 874344" transform="translate(952.557 16003.999)">
        <g id="Grupo_151688" data-name="Grupo 151688" transform="translate(-655 -133.936)">
          <path id="Trazado_212295" data-name="Trazado 212295" d="M-11425.02-11468v14.128" transform="translate(11432.083 11467.998)" fill="none" stroke="#26779f" stroke-width="4"/>
          <path id="Trazado_212296" data-name="Trazado 212296" d="M0,0V14.127" transform="translate(14.127 7.064) rotate(90)" fill="none" stroke="#26779f" stroke-width="4"/>
        </g>
        <g id="Grupo_151689" data-name="Grupo 151689" transform="translate(-636.634 -140.999)">
          <path id="Trazado_212295-2" data-name="Trazado 212295" d="M-11425.02-11468v14.128" transform="translate(11432.083 11467.998)" fill="none" stroke="#26779f" stroke-width="4"/>
          <path id="Trazado_212296-2" data-name="Trazado 212296" d="M0,0V14.127" transform="translate(14.127 7.064) rotate(90)" fill="none" stroke="#26779f" stroke-width="4"/>
        </g>
        <g id="Grupo_151690" data-name="Grupo 151690" transform="translate(-633.573 -119.808)">
          <path id="Trazado_212295-3" data-name="Trazado 212295" d="M-11425.02-11468v14.128" transform="translate(11432.083 11467.998)" fill="none" stroke="#26779f" stroke-width="4"/>
          <path id="Trazado_212296-3" data-name="Trazado 212296" d="M0,0V14.127" transform="translate(14.127 7.064) rotate(90)" fill="none" stroke="#26779f" stroke-width="4"/>
        </g>
      </g>
      <g id="Grupo_874345" data-name="Grupo 874345" transform="translate(536.557 15739.681)">
        <g id="Grupo_151688-2" data-name="Grupo 151688" transform="translate(0 7.064)">
          <path id="Trazado_212295-4" data-name="Trazado 212295" d="M-11425.02-11468v14.128" transform="translate(11432.083 11467.998)" fill="none" stroke="#f3ab1d" stroke-width="4"/>
          <path id="Trazado_212296-4" data-name="Trazado 212296" d="M0,0V14.127" transform="translate(14.127 7.064) rotate(90)" fill="none" stroke="#f3ab1d" stroke-width="4"/>
        </g>
        <g id="Grupo_151689-2" data-name="Grupo 151689" transform="translate(18.366 0)">
          <path id="Trazado_212295-5" data-name="Trazado 212295" d="M-11425.02-11468v14.128" transform="translate(11432.083 11467.998)" fill="none" stroke="#f3ab1d" stroke-width="4"/>
          <path id="Trazado_212296-5" data-name="Trazado 212296" d="M0,0V14.127" transform="translate(14.127 7.064) rotate(90)" fill="none" stroke="#f3ab1d" stroke-width="4"/>
        </g>
        <g id="Grupo_151690-2" data-name="Grupo 151690" transform="translate(21.427 21.192)">
          <path id="Trazado_212295-6" data-name="Trazado 212295" d="M-11425.02-11468v14.128" transform="translate(11432.083 11467.998)" fill="none" stroke="#f3ab1d" stroke-width="4"/>
          <path id="Trazado_212296-6" data-name="Trazado 212296" d="M0,0V14.127" transform="translate(14.127 7.064) rotate(90)" fill="none" stroke="#f3ab1d" stroke-width="4"/>
        </g>
      </g>
    </g>
  </g>
</svg>
