<svg xmlns="http://www.w3.org/2000/svg" width="54.351" height="71.354" viewBox="0 0 54.351 71.354">
  <g id="google-docs" transform="translate(-61)">
    <path id="Trazado_597934" data-name="Trazado 597934" d="M67.271,71.353H109.08a6.278,6.278,0,0,0,6.271-6.271V20.9H100.718a6.278,6.278,0,0,1-6.271-6.271V0H67.271A6.278,6.278,0,0,0,61,6.271V65.082A6.278,6.278,0,0,0,67.271,71.353Zm8.362-41.948h25.085a2.09,2.09,0,1,1,0,4.181H75.633a2.09,2.09,0,1,1,0-4.181Zm0,8.362h25.085a2.09,2.09,0,1,1,0,4.181H75.633a2.09,2.09,0,1,1,0-4.181Zm0,8.362h25.085a2.09,2.09,0,1,1,0,4.181H75.633a2.09,2.09,0,1,1,0-4.181Zm0,8.362H92.356a2.09,2.09,0,0,1,0,4.181H75.633a2.09,2.09,0,1,1,0-4.181Z" transform="translate(0)" fill="#e3f7f0"/>
    <path id="Trazado_597935" data-name="Trazado 597935" d="M333.09,24.288H346.5L331,8.789V22.2A2.092,2.092,0,0,0,333.09,24.288Z" transform="translate(-232.372 -7.564)" fill="#e3f7f0"/>
  </g>
</svg>
