<svg xmlns="http://www.w3.org/2000/svg" xmlns:xlink="http://www.w3.org/1999/xlink" width="505" height="1183" viewBox="0 0 505 1183">
  <defs>
    <linearGradient id="linear-gradient" x1="0.067" y1="0.962" x2="0.863" y2="0.128" gradientUnits="objectBoundingBox">
      <stop offset="0" stop-color="#e3f7f0"/>
      <stop offset="1" stop-color="#fff"/>
    </linearGradient>
    <clipPath id="clip-path">
      <rect id="Rectángulo_293600" data-name="Rectángulo 293600" width="105.906" height="100.998" fill="#0b5e88"/>
    </clipPath>
    <clipPath id="clip-path-2">
      <rect id="Rectángulo_293601" data-name="Rectángulo 293601" width="104" height="104" fill="#0b5e88"/>
    </clipPath>
    <clipPath id="clip-path-3">
      <rect id="Rectángulo_293602" data-name="Rectángulo 293602" width="108.053" height="111.896" transform="translate(0 0)" fill="#0b5e88"/>
    </clipPath>
    <clipPath id="clip-path-4">
      <rect id="Rectángulo_293599" data-name="Rectángulo 293599" width="106.404" height="106.404" transform="translate(0 0)" fill="#0b5e88"/>
    </clipPath>
  </defs>
  <g id="Grupo_877543" data-name="Grupo 877543" transform="translate(-1223 9420.51)">
    <path id="Trazado_602690" data-name="Trazado 602690" d="M0,0H505V1183H0Z" transform="translate(1223 -9420.51)" fill="#fff"/>
    <path id="Trazado_602691" data-name="Trazado 602691" d="M42.177,13.742V18h-2.49V5.914H44.4a5.455,5.455,0,0,1,2.395.5,3.67,3.67,0,0,1,1.59,1.415,3.946,3.946,0,0,1,.556,2.088,3.47,3.47,0,0,1-1.216,2.8,5.065,5.065,0,0,1-3.366,1.025Zm0-2.017H44.4a2.187,2.187,0,0,0,1.507-.465,1.691,1.691,0,0,0,.519-1.328A1.994,1.994,0,0,0,45.9,8.5a1.953,1.953,0,0,0-1.444-.564H42.177Zm7.836,1.7a5.327,5.327,0,0,1,.515-2.382A3.767,3.767,0,0,1,52.01,9.425a4.323,4.323,0,0,1,2.245-.573,4.09,4.09,0,0,1,2.968,1.112,4.464,4.464,0,0,1,1.282,3.021l.017.614a4.694,4.694,0,0,1-1.154,3.316,4.472,4.472,0,0,1-6.2,0,4.777,4.777,0,0,1-1.158-3.387Zm2.4.17a3.357,3.357,0,0,0,.481,1.958,1.73,1.73,0,0,0,2.739.008,3.674,3.674,0,0,0,.49-2.141,3.324,3.324,0,0,0-.49-1.945,1.592,1.592,0,0,0-1.378-.69,1.566,1.566,0,0,0-1.361.686A3.735,3.735,0,0,0,52.412,13.6Zm12.634-2.328a6.517,6.517,0,0,0-.863-.066,1.757,1.757,0,0,0-1.785.921V18H60V9.019h2.266l.066,1.071a2.223,2.223,0,0,1,2-1.237,2.514,2.514,0,0,1,.747.108Zm4.441-4.458V9.019h1.536v1.76H69.487v4.482a1.07,1.07,0,0,0,.191.714.959.959,0,0,0,.73.216,3.826,3.826,0,0,0,.706-.058V17.95a4.938,4.938,0,0,1-1.453.216,2.29,2.29,0,0,1-2.573-2.548V10.778H65.777V9.019h1.312V6.811ZM77.564,18a2.664,2.664,0,0,1-.241-.805,2.9,2.9,0,0,1-2.266.971A3.189,3.189,0,0,1,72.87,17.4,2.456,2.456,0,0,1,72,15.477a2.538,2.538,0,0,1,1.058-2.191,5.222,5.222,0,0,1,3.059-.772h1.1V12a1.48,1.48,0,0,0-.32-1,1.257,1.257,0,0,0-1.009-.374,1.429,1.429,0,0,0-.95.291.987.987,0,0,0-.344.8H72.2a2.41,2.41,0,0,1,.481-1.444A3.182,3.182,0,0,1,74.044,9.23a4.961,4.961,0,0,1,1.976-.378,3.92,3.92,0,0,1,2.635.834,2.918,2.918,0,0,1,.975,2.345v3.893a4.294,4.294,0,0,0,.357,1.934V18ZM75.58,16.332a2.066,2.066,0,0,0,.979-.237,1.554,1.554,0,0,0,.664-.635V13.916h-.9q-1.8,0-1.917,1.245L74.4,15.3a.96.96,0,0,0,.315.739A1.225,1.225,0,0,0,75.58,16.332ZM84.005,18H81.6V5.25h2.407Zm5.835-4.557a5.413,5.413,0,0,1,.942-3.345A3.057,3.057,0,0,1,93.36,8.853a2.751,2.751,0,0,1,2.167.979V5.25h2.407V18H95.767l-.116-.955a2.823,2.823,0,0,1-2.308,1.121A3.049,3.049,0,0,1,90.8,16.917,5.587,5.587,0,0,1,89.841,13.443Zm2.4.179a3.546,3.546,0,0,0,.44,1.937,1.433,1.433,0,0,0,1.278.673,1.605,1.605,0,0,0,1.569-.939v-3.55a1.582,1.582,0,0,0-1.552-.939Q92.239,10.8,92.24,13.621Zm11.688,4.545a4.409,4.409,0,0,1-3.217-1.212,4.308,4.308,0,0,1-1.241-3.229v-.232a5.426,5.426,0,0,1,.523-2.42,3.838,3.838,0,0,1,1.482-1.644,4.159,4.159,0,0,1,2.187-.577,3.727,3.727,0,0,1,2.9,1.162,4.722,4.722,0,0,1,1.058,3.3v.979H101.9a2.229,2.229,0,0,0,.7,1.411,2.12,2.12,0,0,0,1.482.531,2.589,2.589,0,0,0,2.167-1l1.179,1.32a3.6,3.6,0,0,1-1.461,1.191A4.793,4.793,0,0,1,103.927,18.166Zm-.274-7.379a1.5,1.5,0,0,0-1.158.484,2.5,2.5,0,0,0-.569,1.384h3.337v-.192a1.786,1.786,0,0,0-.432-1.238A1.547,1.547,0,0,0,103.653,10.787ZM118.42,18a2.664,2.664,0,0,1-.241-.805,2.9,2.9,0,0,1-2.266.971,3.189,3.189,0,0,1-2.187-.764,2.456,2.456,0,0,1-.867-1.926,2.538,2.538,0,0,1,1.058-2.191,5.222,5.222,0,0,1,3.059-.772h1.1V12a1.48,1.48,0,0,0-.32-1,1.257,1.257,0,0,0-1.009-.374,1.429,1.429,0,0,0-.95.291.987.987,0,0,0-.344.8h-2.4a2.41,2.41,0,0,1,.481-1.444A3.182,3.182,0,0,1,114.9,9.23a4.961,4.961,0,0,1,1.976-.378,3.92,3.92,0,0,1,2.635.834,2.918,2.918,0,0,1,.975,2.345v3.893a4.294,4.294,0,0,0,.357,1.934V18Zm-1.984-1.668a2.066,2.066,0,0,0,.979-.237,1.554,1.554,0,0,0,.664-.635V13.916h-.9q-1.8,0-1.917,1.245l-.008.141a.96.96,0,0,0,.315.739A1.225,1.225,0,0,0,116.436,16.332Zm11.272.755a3.008,3.008,0,0,1-2.457,1.079,2.837,2.837,0,0,1-2.2-.83,3.543,3.543,0,0,1-.776-2.432V9.019h2.4v5.809q0,1.4,1.278,1.4a1.732,1.732,0,0,0,1.677-.848V9.019h2.407V18h-2.258Zm7.006-10.276V9.019h1.536v1.76h-1.536v4.482a1.07,1.07,0,0,0,.191.714.959.959,0,0,0,.73.216,3.826,3.826,0,0,0,.706-.058V17.95a4.939,4.939,0,0,1-1.453.216,2.29,2.29,0,0,1-2.573-2.548V10.778H131V9.019h1.312V6.811Zm2.25,6.616a5.327,5.327,0,0,1,.515-2.382,3.767,3.767,0,0,1,1.482-1.619,4.323,4.323,0,0,1,2.245-.573,4.09,4.09,0,0,1,2.968,1.112,4.464,4.464,0,0,1,1.282,3.021l.017.614a4.694,4.694,0,0,1-1.154,3.316,4.472,4.472,0,0,1-6.2,0,4.777,4.777,0,0,1-1.158-3.387Zm2.4.17a3.357,3.357,0,0,0,.481,1.958,1.73,1.73,0,0,0,2.739.008,3.674,3.674,0,0,0,.49-2.141,3.324,3.324,0,0,0-.49-1.945,1.592,1.592,0,0,0-1.378-.69,1.566,1.566,0,0,0-1.361.686A3.735,3.735,0,0,0,139.363,13.6Zm12.451,1.922a.773.773,0,0,0-.436-.693,4.95,4.95,0,0,0-1.4-.452q-3.2-.672-3.2-2.723a2.468,2.468,0,0,1,.992-2,4,4,0,0,1,2.594-.8,4.307,4.307,0,0,1,2.735.805,2.538,2.538,0,0,1,1.025,2.092h-2.4a1.161,1.161,0,0,0-.332-.851,1.405,1.405,0,0,0-1.038-.336,1.436,1.436,0,0,0-.938.274.865.865,0,0,0-.332.7.739.739,0,0,0,.378.643,3.885,3.885,0,0,0,1.274.423,10.407,10.407,0,0,1,1.511.4,2.482,2.482,0,0,1,1.9,2.416,2.343,2.343,0,0,1-1.054,1.988,4.548,4.548,0,0,1-2.723.76,4.75,4.75,0,0,1-2-.4,3.363,3.363,0,0,1-1.374-1.1,2.565,2.565,0,0,1-.5-1.515h2.274a1.252,1.252,0,0,0,.473.979,1.877,1.877,0,0,0,1.179.34,1.737,1.737,0,0,0,1.042-.261A.814.814,0,0,0,151.814,15.518Zm8.01,2.648a4.409,4.409,0,0,1-3.217-1.212,4.308,4.308,0,0,1-1.241-3.229v-.232a5.426,5.426,0,0,1,.523-2.42,3.838,3.838,0,0,1,1.482-1.644,4.159,4.159,0,0,1,2.187-.577,3.727,3.727,0,0,1,2.9,1.162,4.722,4.722,0,0,1,1.058,3.3v.979H157.8a2.228,2.228,0,0,0,.7,1.411,2.12,2.12,0,0,0,1.482.531,2.589,2.589,0,0,0,2.167-1l1.179,1.32a3.6,3.6,0,0,1-1.461,1.191A4.793,4.793,0,0,1,159.824,18.166Zm-.274-7.379a1.5,1.5,0,0,0-1.158.484,2.5,2.5,0,0,0-.569,1.384h3.337v-.192a1.786,1.786,0,0,0-.432-1.238A1.547,1.547,0,0,0,159.551,10.787Zm10.376.481a6.517,6.517,0,0,0-.863-.066,1.757,1.757,0,0,0-1.785.921V18h-2.4V9.019h2.266l.066,1.071a2.223,2.223,0,0,1,2-1.237,2.514,2.514,0,0,1,.747.108Zm4.665,3.8,1.668-6.051h2.507L175.737,18h-2.291l-3.03-8.981h2.507ZM182.353,18h-2.407V9.019h2.407ZM179.8,6.694a1.181,1.181,0,0,1,.361-.888,1.556,1.556,0,0,1,1.963,0,1.175,1.175,0,0,1,.365.888,1.178,1.178,0,0,1-.369.9,1.539,1.539,0,0,1-1.951,0A1.178,1.178,0,0,1,179.8,6.694Zm8.259,9.538a1.573,1.573,0,0,0,1.079-.365,1.28,1.28,0,0,0,.432-.971h2.25a3.077,3.077,0,0,1-.5,1.673,3.286,3.286,0,0,1-1.341,1.179,4.2,4.2,0,0,1-1.88.419,3.9,3.9,0,0,1-3.038-1.224,4.845,4.845,0,0,1-1.112-3.383V13.4a4.79,4.79,0,0,1,1.1-3.312,3.854,3.854,0,0,1,3.03-1.237,3.778,3.778,0,0,1,2.7.959,3.4,3.4,0,0,1,1.033,2.552h-2.25a1.648,1.648,0,0,0-.432-1.139,1.6,1.6,0,0,0-2.362.173,3.541,3.541,0,0,0-.427,1.983v.249a3.586,3.586,0,0,0,.423,2A1.463,1.463,0,0,0,188.064,16.232ZM195.725,18h-2.407V9.019h2.407ZM193.177,6.694a1.181,1.181,0,0,1,.361-.888,1.556,1.556,0,0,1,1.963,0,1.175,1.175,0,0,1,.365.888,1.178,1.178,0,0,1-.369.9,1.539,1.539,0,0,1-1.951,0A1.178,1.178,0,0,1,193.177,6.694Zm4.15,6.732a5.327,5.327,0,0,1,.515-2.382,3.767,3.767,0,0,1,1.482-1.619,4.323,4.323,0,0,1,2.245-.573,4.09,4.09,0,0,1,2.968,1.112,4.464,4.464,0,0,1,1.282,3.021l.017.614a4.694,4.694,0,0,1-1.154,3.316,4.472,4.472,0,0,1-6.2,0,4.777,4.777,0,0,1-1.158-3.387Zm2.4.17a3.357,3.357,0,0,0,.481,1.958,1.73,1.73,0,0,0,2.739.008,3.674,3.674,0,0,0,.49-2.141,3.324,3.324,0,0,0-.49-1.945,1.592,1.592,0,0,0-1.378-.69,1.566,1.566,0,0,0-1.361.686A3.735,3.735,0,0,0,199.726,13.6Z" transform="translate(1230.612 -9179.109)" fill="#12263f"/>
    <path id="Trazado_602692" data-name="Trazado 602692" d="M37.3,13.576H35.313V18h-2.49V5.914h4.491a5.076,5.076,0,0,1,3.3.955,3.3,3.3,0,0,1,1.162,2.7,3.718,3.718,0,0,1-.535,2.063,3.651,3.651,0,0,1-1.623,1.316l2.615,4.939V18H39.563Zm-1.984-2.017h2.009a2.057,2.057,0,0,0,1.453-.477,1.706,1.706,0,0,0,.515-1.316A1.826,1.826,0,0,0,38.8,8.421a2.018,2.018,0,0,0-1.49-.49h-2Zm12.335,6.607a4.409,4.409,0,0,1-3.217-1.212,4.308,4.308,0,0,1-1.241-3.229v-.232a5.426,5.426,0,0,1,.523-2.42A3.838,3.838,0,0,1,45.2,9.429a4.159,4.159,0,0,1,2.187-.577,3.727,3.727,0,0,1,2.9,1.162,4.722,4.722,0,0,1,1.058,3.3v.979H45.623a2.229,2.229,0,0,0,.7,1.411,2.12,2.12,0,0,0,1.482.531,2.589,2.589,0,0,0,2.167-1l1.179,1.32a3.6,3.6,0,0,1-1.461,1.191A4.793,4.793,0,0,1,47.648,18.166Zm-.274-7.379a1.5,1.5,0,0,0-1.158.484,2.5,2.5,0,0,0-.569,1.384h3.337v-.192a1.786,1.786,0,0,0-.432-1.238A1.547,1.547,0,0,0,47.374,10.787ZM57.908,18a2.664,2.664,0,0,1-.241-.805,2.9,2.9,0,0,1-2.266.971,3.189,3.189,0,0,1-2.187-.764,2.456,2.456,0,0,1-.867-1.926A2.538,2.538,0,0,1,53.4,13.285a5.222,5.222,0,0,1,3.059-.772h1.1V12a1.48,1.48,0,0,0-.32-1,1.257,1.257,0,0,0-1.009-.374,1.429,1.429,0,0,0-.95.291.987.987,0,0,0-.344.8h-2.4a2.41,2.41,0,0,1,.481-1.444A3.182,3.182,0,0,1,54.388,9.23a4.961,4.961,0,0,1,1.976-.378A3.92,3.92,0,0,1,59,9.687a2.918,2.918,0,0,1,.975,2.345v3.893a4.294,4.294,0,0,0,.357,1.934V18Zm-1.984-1.668a2.066,2.066,0,0,0,.979-.237,1.554,1.554,0,0,0,.664-.635V13.916h-.9q-1.8,0-1.917,1.245l-.008.141a.96.96,0,0,0,.315.739A1.225,1.225,0,0,0,55.924,16.332ZM64.349,18H61.942V5.25h2.407Zm4.507,0H66.449V9.019h2.407ZM66.308,6.694a1.181,1.181,0,0,1,.361-.888,1.556,1.556,0,0,1,1.963,0A1.175,1.175,0,0,1,69,6.694a1.178,1.178,0,0,1-.369.9,1.539,1.539,0,0,1-1.951,0A1.178,1.178,0,0,1,66.308,6.694Zm7.28,9.372h4.391V18H70.525V16.539l4.225-5.586h-4.1V9.019h7.2v1.413ZM84.686,18a2.664,2.664,0,0,1-.241-.805,2.9,2.9,0,0,1-2.266.971,3.189,3.189,0,0,1-2.187-.764,2.456,2.456,0,0,1-.867-1.926,2.538,2.538,0,0,1,1.058-2.191,5.222,5.222,0,0,1,3.059-.772h1.1V12a1.48,1.48,0,0,0-.32-1,1.257,1.257,0,0,0-1.009-.374,1.429,1.429,0,0,0-.95.291.987.987,0,0,0-.344.8h-2.4a2.41,2.41,0,0,1,.481-1.444A3.182,3.182,0,0,1,81.167,9.23a4.961,4.961,0,0,1,1.976-.378,3.92,3.92,0,0,1,2.635.834,2.918,2.918,0,0,1,.975,2.345v3.893a4.294,4.294,0,0,0,.357,1.934V18ZM82.7,16.332a2.066,2.066,0,0,0,.979-.237,1.554,1.554,0,0,0,.664-.635V13.916h-.9q-1.8,0-1.917,1.245l-.008.141a.96.96,0,0,0,.315.739A1.225,1.225,0,0,0,82.7,16.332Zm10.94-5.063a6.517,6.517,0,0,0-.863-.066,1.757,1.757,0,0,0-1.785.921V18H88.6V9.019h2.266l.066,1.071a2.223,2.223,0,0,1,2-1.237,2.514,2.514,0,0,1,.747.108Zm10.766,5.819a3.008,3.008,0,0,1-2.457,1.079,2.837,2.837,0,0,1-2.2-.83,3.543,3.543,0,0,1-.776-2.432V9.019h2.4v5.809q0,1.4,1.278,1.4a1.732,1.732,0,0,0,1.677-.848V9.019h2.407V18h-2.258Zm6.342-8.068.075,1.038a3.136,3.136,0,0,1,2.582-1.2,2.606,2.606,0,0,1,2.125.838,3.912,3.912,0,0,1,.714,2.507V18h-2.4V12.256a1.556,1.556,0,0,0-.332-1.108,1.486,1.486,0,0,0-1.1-.344,1.65,1.65,0,0,0-1.519.863V18h-2.4V9.019ZM123.268,18a2.664,2.664,0,0,1-.241-.805,2.9,2.9,0,0,1-2.266.971,3.189,3.189,0,0,1-2.187-.764,2.456,2.456,0,0,1-.867-1.926,2.538,2.538,0,0,1,1.058-2.191,5.222,5.222,0,0,1,3.059-.772h1.1V12a1.48,1.48,0,0,0-.32-1,1.257,1.257,0,0,0-1.009-.374,1.429,1.429,0,0,0-.95.291.987.987,0,0,0-.344.8h-2.4a2.41,2.41,0,0,1,.481-1.444,3.182,3.182,0,0,1,1.361-1.042,4.961,4.961,0,0,1,1.976-.378,3.92,3.92,0,0,1,2.635.834,2.918,2.918,0,0,1,.975,2.345v3.893a4.294,4.294,0,0,0,.357,1.934V18Zm-1.984-1.668a2.066,2.066,0,0,0,.979-.237,1.554,1.554,0,0,0,.664-.635V13.916h-.9q-1.8,0-1.917,1.245l-.008.141a.96.96,0,0,0,.315.739A1.225,1.225,0,0,0,121.284,16.332ZM8.2,39.518a.773.773,0,0,0-.436-.693,4.95,4.95,0,0,0-1.4-.452q-3.2-.672-3.2-2.723a2.468,2.468,0,0,1,.992-2,4,4,0,0,1,2.594-.8,4.307,4.307,0,0,1,2.735.805,2.538,2.538,0,0,1,1.025,2.092h-2.4a1.161,1.161,0,0,0-.332-.851,1.405,1.405,0,0,0-1.038-.336,1.436,1.436,0,0,0-.938.274.865.865,0,0,0-.332.7.739.739,0,0,0,.378.643,3.885,3.885,0,0,0,1.274.423A10.407,10.407,0,0,1,8.63,37a2.482,2.482,0,0,1,1.9,2.416,2.343,2.343,0,0,1-1.054,1.988,4.548,4.548,0,0,1-2.723.76,4.75,4.75,0,0,1-2-.4,3.363,3.363,0,0,1-1.374-1.1,2.565,2.565,0,0,1-.5-1.515H5.152a1.252,1.252,0,0,0,.473.979,1.877,1.877,0,0,0,1.179.34A1.737,1.737,0,0,0,7.846,40.2.814.814,0,0,0,8.2,39.518Zm3.5-2.092a5.327,5.327,0,0,1,.515-2.382A3.768,3.768,0,0,1,13.7,33.425a4.323,4.323,0,0,1,2.245-.573,4.09,4.09,0,0,1,2.968,1.112,4.464,4.464,0,0,1,1.282,3.021l.017.614a4.694,4.694,0,0,1-1.154,3.316,4.011,4.011,0,0,1-3.1,1.249,4.031,4.031,0,0,1-3.1-1.245A4.777,4.777,0,0,1,11.7,37.534Zm2.4.17a3.357,3.357,0,0,0,.481,1.958,1.73,1.73,0,0,0,2.739.008,3.674,3.674,0,0,0,.49-2.141,3.324,3.324,0,0,0-.49-1.945,1.592,1.592,0,0,0-1.378-.69,1.566,1.566,0,0,0-1.361.686A3.735,3.735,0,0,0,14.1,37.6ZM24.219,42H21.812V29.25h2.407Zm4.507,0H26.319V33.019h2.407ZM26.178,30.694a1.181,1.181,0,0,1,.361-.888,1.556,1.556,0,0,1,1.963,0,1.268,1.268,0,0,1,0,1.785,1.539,1.539,0,0,1-1.951,0A1.178,1.178,0,0,1,26.178,30.694Zm8.259,9.538a1.573,1.573,0,0,0,1.079-.365,1.28,1.28,0,0,0,.432-.971H38.2a3.077,3.077,0,0,1-.5,1.673,3.286,3.286,0,0,1-1.341,1.179,4.2,4.2,0,0,1-1.88.419,3.9,3.9,0,0,1-3.038-1.224,4.845,4.845,0,0,1-1.112-3.383V37.4a4.79,4.79,0,0,1,1.1-3.312,3.854,3.854,0,0,1,3.03-1.237,3.778,3.778,0,0,1,2.7.959A3.4,3.4,0,0,1,38.2,36.364h-2.25a1.648,1.648,0,0,0-.432-1.139,1.6,1.6,0,0,0-2.362.173,3.541,3.541,0,0,0-.427,1.983v.249a3.586,3.586,0,0,0,.423,2A1.463,1.463,0,0,0,34.437,40.232ZM42.1,42H39.692V33.019H42.1ZM39.551,30.694a1.181,1.181,0,0,1,.361-.888,1.556,1.556,0,0,1,1.963,0,1.268,1.268,0,0,1,0,1.785,1.539,1.539,0,0,1-1.951,0A1.178,1.178,0,0,1,39.551,30.694Zm7.4.116v2.208h1.536v1.76H46.947v4.482a1.07,1.07,0,0,0,.191.714.959.959,0,0,0,.73.216,3.826,3.826,0,0,0,.706-.058V41.95a4.939,4.939,0,0,1-1.453.216,2.29,2.29,0,0,1-2.573-2.548V34.778H43.236v-1.76h1.312V30.811ZM55.2,41.087a3.008,3.008,0,0,1-2.457,1.079,2.837,2.837,0,0,1-2.2-.83A3.543,3.543,0,0,1,49.76,38.9V33.019h2.4v5.809q0,1.4,1.278,1.4a1.732,1.732,0,0,0,1.677-.848V33.019h2.407V42H55.264Zm3.76-3.644A5.413,5.413,0,0,1,59.9,34.1a3.057,3.057,0,0,1,2.577-1.245,2.751,2.751,0,0,1,2.167.979V29.25h2.407V42H64.885l-.116-.955a2.823,2.823,0,0,1-2.308,1.121,3.049,3.049,0,0,1-2.544-1.249A5.587,5.587,0,0,1,58.958,37.443Zm2.4.179a3.546,3.546,0,0,0,.44,1.937,1.433,1.433,0,0,0,1.278.673,1.605,1.605,0,0,0,1.569-.939v-3.55a1.582,1.582,0,0,0-1.552-.939Q61.357,34.8,61.357,37.621Zm11.414-.179a5.413,5.413,0,0,1,.942-3.345,3.057,3.057,0,0,1,2.577-1.245,2.751,2.751,0,0,1,2.167.979V29.25h2.407V42H78.7l-.116-.955a2.823,2.823,0,0,1-2.308,1.121,3.049,3.049,0,0,1-2.544-1.249A5.587,5.587,0,0,1,72.77,37.443Zm2.4.179a3.546,3.546,0,0,0,.44,1.937,1.433,1.433,0,0,0,1.278.673,1.605,1.605,0,0,0,1.569-.939v-3.55A1.582,1.582,0,0,0,76.9,34.8Q75.169,34.8,75.169,37.621Zm11.688,4.545a4.409,4.409,0,0,1-3.217-1.212A4.308,4.308,0,0,1,82.4,37.725v-.232a5.426,5.426,0,0,1,.523-2.42A3.838,3.838,0,0,1,84.4,33.429a4.159,4.159,0,0,1,2.187-.577,3.727,3.727,0,0,1,2.9,1.162,4.722,4.722,0,0,1,1.058,3.3v.979H84.831a2.229,2.229,0,0,0,.7,1.411,2.12,2.12,0,0,0,1.482.531,2.589,2.589,0,0,0,2.167-1l1.179,1.32A3.6,3.6,0,0,1,88.9,41.739,4.793,4.793,0,0,1,86.857,42.166Zm-.274-7.379a1.5,1.5,0,0,0-1.158.484,2.5,2.5,0,0,0-.569,1.384h3.337v-.192a1.786,1.786,0,0,0-.432-1.238A1.547,1.547,0,0,0,86.583,34.787Zm14.427,4.731a.773.773,0,0,0-.436-.693,4.95,4.95,0,0,0-1.4-.452q-3.2-.672-3.2-2.723a2.468,2.468,0,0,1,.992-2,4,4,0,0,1,2.594-.8,4.307,4.307,0,0,1,2.735.805,2.538,2.538,0,0,1,1.025,2.092h-2.4a1.161,1.161,0,0,0-.332-.851,1.405,1.405,0,0,0-1.038-.336,1.436,1.436,0,0,0-.938.274.865.865,0,0,0-.332.7.739.739,0,0,0,.378.643,3.885,3.885,0,0,0,1.274.423,10.407,10.407,0,0,1,1.511.4,2.482,2.482,0,0,1,1.9,2.416,2.343,2.343,0,0,1-1.054,1.988,4.548,4.548,0,0,1-2.723.76,4.75,4.75,0,0,1-2-.4,3.363,3.363,0,0,1-1.374-1.1,2.565,2.565,0,0,1-.5-1.515h2.274a1.252,1.252,0,0,0,.473.979,1.877,1.877,0,0,0,1.179.34,1.737,1.737,0,0,0,1.042-.261A.814.814,0,0,0,101.01,39.518Zm8.01,2.648a4.409,4.409,0,0,1-3.217-1.212,4.308,4.308,0,0,1-1.241-3.229v-.232a5.426,5.426,0,0,1,.523-2.42,3.838,3.838,0,0,1,1.482-1.644,4.159,4.159,0,0,1,2.187-.577,3.727,3.727,0,0,1,2.9,1.162,4.722,4.722,0,0,1,1.058,3.3v.979h-5.719a2.229,2.229,0,0,0,.7,1.411,2.12,2.12,0,0,0,1.482.531,2.589,2.589,0,0,0,2.167-1l1.179,1.32a3.6,3.6,0,0,1-1.461,1.191A4.793,4.793,0,0,1,109.02,42.166Zm-.274-7.379a1.5,1.5,0,0,0-1.158.484,2.5,2.5,0,0,0-.569,1.384h3.337v-.192a1.786,1.786,0,0,0-.432-1.238A1.547,1.547,0,0,0,108.746,34.787Zm10.376.481a6.517,6.517,0,0,0-.863-.066,1.757,1.757,0,0,0-1.785.921V42h-2.4V33.019h2.266l.066,1.071a2.223,2.223,0,0,1,2-1.237,2.514,2.514,0,0,1,.747.108Zm4.665,3.8,1.668-6.051h2.507L124.932,42h-2.291l-3.03-8.981h2.507ZM131.548,42h-2.407V33.019h2.407ZM129,30.694a1.181,1.181,0,0,1,.361-.888,1.556,1.556,0,0,1,1.963,0,1.268,1.268,0,0,1,0,1.785,1.539,1.539,0,0,1-1.951,0A1.178,1.178,0,0,1,129,30.694Zm8.259,9.538a1.573,1.573,0,0,0,1.079-.365,1.28,1.28,0,0,0,.432-.971h2.25a3.077,3.077,0,0,1-.5,1.673,3.286,3.286,0,0,1-1.341,1.179,4.2,4.2,0,0,1-1.88.419,3.9,3.9,0,0,1-3.038-1.224,4.845,4.845,0,0,1-1.112-3.383V37.4a4.79,4.79,0,0,1,1.1-3.312,3.854,3.854,0,0,1,3.03-1.237,3.778,3.778,0,0,1,2.7.959,3.4,3.4,0,0,1,1.033,2.552h-2.25a1.648,1.648,0,0,0-.432-1.139,1.6,1.6,0,0,0-2.362.173,3.541,3.541,0,0,0-.427,1.983v.249a3.586,3.586,0,0,0,.423,2A1.463,1.463,0,0,0,137.259,40.232ZM144.921,42h-2.407V33.019h2.407Zm-2.548-11.306a1.181,1.181,0,0,1,.361-.888,1.556,1.556,0,0,1,1.963,0,1.268,1.268,0,0,1,0,1.785,1.539,1.539,0,0,1-1.951,0A1.178,1.178,0,0,1,142.372,30.694Zm4.15,6.732a5.327,5.327,0,0,1,.515-2.382,3.767,3.767,0,0,1,1.482-1.619,4.323,4.323,0,0,1,2.245-.573,4.09,4.09,0,0,1,2.968,1.112,4.464,4.464,0,0,1,1.282,3.021l.017.614a4.694,4.694,0,0,1-1.154,3.316,4.472,4.472,0,0,1-6.2,0,4.777,4.777,0,0,1-1.158-3.387Zm2.4.17a3.357,3.357,0,0,0,.481,1.958,1.73,1.73,0,0,0,2.739.008,3.674,3.674,0,0,0,.49-2.141,3.324,3.324,0,0,0-.49-1.945,1.592,1.592,0,0,0-1.378-.69,1.566,1.566,0,0,0-1.361.686A3.735,3.735,0,0,0,148.922,37.6Z" transform="translate(1519.276 -9179.109)" fill="#12263f"/>
    <path id="Trazado_602693" data-name="Trazado 602693" d="M41.15,15.51H36.784L35.954,18H33.306L37.8,5.914h2.308L44.636,18H41.989Zm-3.694-2.017h3.021L38.959,8.969Zm13.016,2.025a.773.773,0,0,0-.436-.693,4.95,4.95,0,0,0-1.4-.452q-3.2-.672-3.2-2.723a2.468,2.468,0,0,1,.992-2,4,4,0,0,1,2.594-.8,4.307,4.307,0,0,1,2.735.805A2.538,2.538,0,0,1,52.78,11.75h-2.4a1.161,1.161,0,0,0-.332-.851,1.405,1.405,0,0,0-1.038-.336,1.436,1.436,0,0,0-.938.274.865.865,0,0,0-.332.7.739.739,0,0,0,.378.643,3.885,3.885,0,0,0,1.274.423A10.407,10.407,0,0,1,50.9,13a2.482,2.482,0,0,1,1.9,2.416,2.343,2.343,0,0,1-1.054,1.988,4.548,4.548,0,0,1-2.723.76,4.75,4.75,0,0,1-2-.4,3.363,3.363,0,0,1-1.374-1.1,2.565,2.565,0,0,1-.5-1.515h2.274a1.252,1.252,0,0,0,.473.979,1.877,1.877,0,0,0,1.179.34,1.737,1.737,0,0,0,1.042-.261A.814.814,0,0,0,50.472,15.518ZM56.88,18H54.473V9.019H56.88ZM54.332,6.694a1.181,1.181,0,0,1,.361-.888,1.556,1.556,0,0,1,1.963,0,1.175,1.175,0,0,1,.365.888,1.178,1.178,0,0,1-.369.9,1.539,1.539,0,0,1-1.951,0A1.178,1.178,0,0,1,54.332,6.694Zm4.175,6.749a5.264,5.264,0,0,1,.984-3.329,3.187,3.187,0,0,1,2.652-1.262,2.8,2.8,0,0,1,2.3,1.013l.1-.847h2.175V17.7a3.839,3.839,0,0,1-.535,2.05,3.439,3.439,0,0,1-1.507,1.328,5.3,5.3,0,0,1-2.274.457,4.925,4.925,0,0,1-1.926-.394,3.418,3.418,0,0,1-1.419-1.017l1.063-1.461a2.81,2.81,0,0,0,2.175,1,2.057,2.057,0,0,0,1.486-.51,1.915,1.915,0,0,0,.531-1.448v-.481a2.775,2.775,0,0,1-2.183.938A3.179,3.179,0,0,1,59.507,16.9a5.262,5.262,0,0,1-1-3.358Zm2.4.179a3.278,3.278,0,0,0,.49,1.916,1.558,1.558,0,0,0,1.345.694,1.666,1.666,0,0,0,1.569-.823V11.626a1.662,1.662,0,0,0-1.552-.823,1.568,1.568,0,0,0-1.357.707A3.694,3.694,0,0,0,60.906,13.621Zm9.861-4.6.075,1.038a3.136,3.136,0,0,1,2.582-1.2,2.606,2.606,0,0,1,2.125.838,3.912,3.912,0,0,1,.714,2.507V18h-2.4V12.256a1.556,1.556,0,0,0-.332-1.108,1.486,1.486,0,0,0-1.1-.344,1.65,1.65,0,0,0-1.519.863V18h-2.4V9.019ZM83.285,18a2.664,2.664,0,0,1-.241-.805,2.9,2.9,0,0,1-2.266.971,3.189,3.189,0,0,1-2.187-.764,2.456,2.456,0,0,1-.867-1.926,2.538,2.538,0,0,1,1.058-2.191,5.222,5.222,0,0,1,3.059-.772h1.1V12a1.48,1.48,0,0,0-.32-1,1.257,1.257,0,0,0-1.009-.374,1.429,1.429,0,0,0-.95.291.987.987,0,0,0-.344.8h-2.4a2.41,2.41,0,0,1,.481-1.444A3.182,3.182,0,0,1,79.765,9.23a4.961,4.961,0,0,1,1.976-.378,3.92,3.92,0,0,1,2.635.834,2.918,2.918,0,0,1,.975,2.345v3.893a4.294,4.294,0,0,0,.357,1.934V18ZM81.3,16.332a2.066,2.066,0,0,0,.979-.237,1.554,1.554,0,0,0,.664-.635V13.916h-.9q-1.8,0-1.917,1.245l-.008.141a.96.96,0,0,0,.315.739A1.225,1.225,0,0,0,81.3,16.332Zm10.94-5.063a6.517,6.517,0,0,0-.863-.066,1.757,1.757,0,0,0-1.785.921V18h-2.4V9.019h2.266l.066,1.071a2.223,2.223,0,0,1,2-1.237,2.514,2.514,0,0,1,.747.108ZM100.5,6.811V9.019h1.536v1.76H100.5v4.482a1.07,1.07,0,0,0,.191.714.959.959,0,0,0,.73.216,3.826,3.826,0,0,0,.706-.058V17.95a4.938,4.938,0,0,1-1.453.216A2.29,2.29,0,0,1,98.1,15.618V10.778H96.79V9.019H98.1V6.811Zm7.006,11.355a4.409,4.409,0,0,1-3.217-1.212,4.308,4.308,0,0,1-1.241-3.229v-.232a5.426,5.426,0,0,1,.523-2.42,3.838,3.838,0,0,1,1.482-1.644,4.159,4.159,0,0,1,2.187-.577,3.727,3.727,0,0,1,2.9,1.162,4.722,4.722,0,0,1,1.058,3.3v.979h-5.719a2.229,2.229,0,0,0,.7,1.411,2.12,2.12,0,0,0,1.482.531,2.589,2.589,0,0,0,2.167-1l1.179,1.32a3.6,3.6,0,0,1-1.461,1.191A4.793,4.793,0,0,1,107.507,18.166Zm-.274-7.379a1.5,1.5,0,0,0-1.158.484,2.5,2.5,0,0,0-.569,1.384h3.337v-.192a1.786,1.786,0,0,0-.432-1.238A1.547,1.547,0,0,0,107.233,10.787Zm.216-5.537h2.615l-2.3,2.573h-1.951ZM116.3,16.232a1.573,1.573,0,0,0,1.079-.365,1.28,1.28,0,0,0,.432-.971h2.25a3.077,3.077,0,0,1-.5,1.673,3.286,3.286,0,0,1-1.341,1.179,4.2,4.2,0,0,1-1.88.419,3.9,3.9,0,0,1-3.038-1.224,4.845,4.845,0,0,1-1.112-3.383V13.4a4.79,4.79,0,0,1,1.1-3.312,3.854,3.854,0,0,1,3.03-1.237,3.778,3.778,0,0,1,2.7.959,3.4,3.4,0,0,1,1.033,2.552h-2.25a1.648,1.648,0,0,0-.432-1.139,1.6,1.6,0,0,0-2.362.173,3.541,3.541,0,0,0-.427,1.983v.249a3.586,3.586,0,0,0,.423,2A1.463,1.463,0,0,0,116.3,16.232Zm7.338-7.213.075,1.038a3.136,3.136,0,0,1,2.582-1.2,2.606,2.606,0,0,1,2.125.838,3.912,3.912,0,0,1,.714,2.507V18h-2.4V12.256a1.556,1.556,0,0,0-.332-1.108,1.486,1.486,0,0,0-1.1-.344,1.65,1.65,0,0,0-1.519.863V18h-2.4V9.019ZM133.48,18h-2.407V9.019h2.407ZM130.931,6.694a1.181,1.181,0,0,1,.361-.888,1.556,1.556,0,0,1,1.963,0,1.175,1.175,0,0,1,.365.888,1.178,1.178,0,0,1-.369.9,1.539,1.539,0,0,1-1.951,0A1.178,1.178,0,0,1,130.931,6.694Zm8.259,9.538a1.573,1.573,0,0,0,1.079-.365,1.28,1.28,0,0,0,.432-.971h2.25a3.077,3.077,0,0,1-.5,1.673,3.286,3.286,0,0,1-1.341,1.179,4.2,4.2,0,0,1-1.88.419,3.9,3.9,0,0,1-3.038-1.224,4.845,4.845,0,0,1-1.112-3.383V13.4a4.79,4.79,0,0,1,1.1-3.312,3.854,3.854,0,0,1,3.03-1.237,3.778,3.778,0,0,1,2.7.959,3.4,3.4,0,0,1,1.033,2.552H140.7a1.648,1.648,0,0,0-.432-1.139,1.6,1.6,0,0,0-2.362.173,3.541,3.541,0,0,0-.427,1.983v.249a3.586,3.586,0,0,0,.423,2A1.463,1.463,0,0,0,139.191,16.232Zm4.756-2.806a5.327,5.327,0,0,1,.515-2.382,3.767,3.767,0,0,1,1.482-1.619,4.323,4.323,0,0,1,2.245-.573,4.09,4.09,0,0,1,2.968,1.112,4.464,4.464,0,0,1,1.282,3.021l.017.614a4.694,4.694,0,0,1-1.154,3.316,4.472,4.472,0,0,1-6.2,0,4.777,4.777,0,0,1-1.158-3.387Zm2.4.17a3.357,3.357,0,0,0,.481,1.958,1.73,1.73,0,0,0,2.739.008,3.674,3.674,0,0,0,.49-2.141,3.324,3.324,0,0,0-.49-1.945,1.592,1.592,0,0,0-1.378-.69,1.566,1.566,0,0,0-1.361.686A3.735,3.735,0,0,0,146.346,13.6ZM158.8,15.518a.773.773,0,0,0-.436-.693,4.95,4.95,0,0,0-1.4-.452q-3.2-.672-3.2-2.723a2.468,2.468,0,0,1,.992-2,4,4,0,0,1,2.594-.8,4.307,4.307,0,0,1,2.735.805A2.538,2.538,0,0,1,161.1,11.75h-2.4a1.161,1.161,0,0,0-.332-.851,1.405,1.405,0,0,0-1.038-.336,1.436,1.436,0,0,0-.938.274.865.865,0,0,0-.332.7.739.739,0,0,0,.378.643,3.885,3.885,0,0,0,1.274.423,10.407,10.407,0,0,1,1.511.4,2.482,2.482,0,0,1,1.9,2.416,2.343,2.343,0,0,1-1.054,1.988,4.548,4.548,0,0,1-2.723.76,4.75,4.75,0,0,1-2-.4,3.363,3.363,0,0,1-1.374-1.1,2.565,2.565,0,0,1-.5-1.515h2.274a1.252,1.252,0,0,0,.473.979,1.877,1.877,0,0,0,1.179.34,1.737,1.737,0,0,0,1.042-.261A.814.814,0,0,0,158.8,15.518Z" transform="translate(1258.138 -8892.164)" fill="#12263f"/>
    <path id="Trazado_602185" data-name="Trazado 602185" d="M2309.3-9451h108.724" transform="translate(-942.388 231)" fill="none" stroke="#f3ab1d" stroke-width="3"/>
    <path id="Trazado_602187" data-name="Trazado 602187" d="M2309.3-9451h91.79v142.945" transform="translate(-690.025 231)" fill="none" stroke="#f3ab1d" stroke-width="3"/>
    <path id="Trazado_602189" data-name="Trazado 602189" d="M2309.3-9451h89.949" transform="translate(-942.025 517.945)" fill="none" stroke="#bf840d" stroke-width="3"/>
    <path id="Trazado_602201" data-name="Trazado 602201" d="M2309.3-9451h89.84" transform="translate(3888.025 -18090) rotate(180)" fill="none" stroke="#bf840d" stroke-width="3"/>
    <path id="Trazado_602203" data-name="Trazado 602203" d="M2309.3-9451h87.231v135.931" transform="translate(3637.715 -18089.877) rotate(180)" fill="none" stroke="#bf840d" stroke-width="3"/>
    <path id="Trazado_602205" data-name="Trazado 602205" d="M2309.3-9451h97.862" transform="translate(3883.163 -17798) rotate(180)" fill="none" stroke="#f3ab1d" stroke-width="3"/>
    <path id="Trazado_602191" data-name="Trazado 602191" d="M0,0H127.886V93.428" transform="translate(1711.066 -9060.94) rotate(90)" fill="none" stroke="#bf840d" stroke-width="3"/>
    <path id="Trazado_602200" data-name="Trazado 602200" d="M0,90.428H148.362V0" transform="translate(1620.638 -8490.638) rotate(-90)" fill="none" stroke="#f3ab1d" stroke-width="3"/>
    <path id="Trazado_602486" data-name="Trazado 602486" d="M0,0H147.417V90.428" transform="translate(1241.183 -8785.638) rotate(-90)" fill="none" stroke="#f3ab1d" stroke-width="3"/>
    <path id="Trazado_602186" data-name="Trazado 602186" d="M2309.3-9451h90.747" transform="translate(-816.747 231)" fill="none" stroke="#bf840d" stroke-width="3"/>
    <path id="Trazado_602190" data-name="Trazado 602190" d="M2309.3-9451h108.724" transform="translate(-833.801 517.946)" fill="none" stroke="#f3ab1d" stroke-width="3"/>
    <path id="Trazado_602202" data-name="Trazado 602202" d="M2309.3-9451h110.318" transform="translate(3781.396 -18089.877) rotate(180)" fill="none" stroke="#f3ab1d" stroke-width="3"/>
    <path id="Trazado_602204" data-name="Trazado 602204" d="M2418.025-9451H2309.3v128.814" transform="translate(4020.163 -17798) rotate(180)" fill="none" stroke="#bf840d" stroke-width="3"/>
    <path id="Trazado_602206" data-name="Trazado 602206" d="M2309.3-9451h102.068" transform="translate(3770.645 -17798) rotate(180)" fill="none" stroke="#bf840d" stroke-width="3"/>
    <path id="Trazado_602694" data-name="Trazado 602694" d="M7,0l7,12H0Z" transform="translate(1482 -9227) rotate(90)" fill="#f3ab1d"/>
    <path id="Trazado_602695" data-name="Trazado 602695" d="M7,0l7,12H0Z" transform="translate(1470 -8926.055) rotate(-90)" fill="#f3ab1d"/>
    <path id="Trazado_602696" data-name="Trazado 602696" d="M7,0l7,12H0Z" transform="translate(1482 -8645.877) rotate(90)" fill="#f3ab1d"/>
    <path id="Trazado_602697" data-name="Trazado 602697" d="M7,0l7,12H0Z" transform="translate(1470 -8340) rotate(-90)" fill="#f3ab1d"/>
    <path id="Trazado_602698" data-name="Trazado 602698" d="M7,0l7,10.725H0Z" transform="translate(1718.066 -9071.275) rotate(180)" fill="#f3ab1d"/>
    <path id="Trazado_602699" data-name="Trazado 602699" d="M7,0l7,10.725H0Z" transform="translate(1248.183 -8780.275) rotate(180)" fill="#f3ab1d"/>
    <path id="Trazado_602700" data-name="Trazado 602700" d="M7,0l7,10.725H0Z" transform="translate(1718.066 -8485.275) rotate(180)" fill="#f3ab1d"/>
    <path id="Trazado_602701" data-name="Trazado 602701" d="M0,0H161V161H0Z" transform="translate(1272.612 -9390)" fill="url(#linear-gradient)"/>
    <path id="Trazado_602702" data-name="Trazado 602702" d="M0,0H161V161H0Z" transform="translate(1273 -8546)" fill="url(#linear-gradient)"/>
    <path id="Trazado_602703" data-name="Trazado 602703" d="M0,0H161V161H0Z" transform="translate(1517.276 -9390)" fill="url(#linear-gradient)"/>
    <path id="Trazado_602704" data-name="Trazado 602704" d="M0,0H161V161H0Z" transform="translate(1515.862 -8546)" fill="url(#linear-gradient)"/>
    <path id="Trazado_602705" data-name="Trazado 602705" d="M0,0H161V161H0Z" transform="translate(1515.862 -8837.877)" fill="url(#linear-gradient)"/>
    <path id="Trazado_602706" data-name="Trazado 602706" d="M0,0H161V161H0Z" transform="translate(1272.612 -9103.055)" fill="url(#linear-gradient)"/>
    <path id="Trazado_602707" data-name="Trazado 602707" d="M0,0H161V161H0Z" transform="translate(1271.414 -8838)" fill="url(#linear-gradient)"/>
    <path id="Trazado_602192" data-name="Trazado 602192" d="M14,60H36.81a2,2,0,0,0,0-4H16V16H56V40.3a2,2,0,0,0,4,0V14a2,2,0,0,0-2-2H14a2,2,0,0,0-2,2V58A2,2,0,0,0,14,60Z" transform="translate(1534.276 -9376)" fill="#0b5e88"/>
    <path id="Trazado_602193" data-name="Trazado 602193" d="M114,12H70a2,2,0,0,0-2,2V58a2,2,0,0,0,2,2h44a2,2,0,0,0,2-2V14A2,2,0,0,0,114,12Zm-2,44H72V16h40Z" transform="translate(1534.276 -9376)" fill="#0b5e88"/>
    <path id="Trazado_602194" data-name="Trazado 602194" d="M99.75,102.3c-.12-1.65,1-9.2-.44-16.8S93.5,72.33,91.72,69.65s-6.9-3.34-8.55-2.48a6.3,6.3,0,0,0-1.1-.78c-2.58-1.38-7.21-.12-7.36-.06a8.59,8.59,0,0,0-2.29-.86,10.19,10.19,0,0,0-6.81.7c-3.5-6.84-6.82-13.27-9.56-17.61-2.3-3.62-5.44-8.59-11.23-5.74-5.53,2.72-3,9.55-1.74,12.83,2.71,7.22,6.69,18.77,8,23.42s1.35,4.84.81,5.51c-.68,0-2.5-.21-7.12-1.4-7.45-1.92-12.24-.7-14.22,3.65-2.05,4.52-.11,9.6,6.92,11.55,8.6,2.37,16,9.27,21.9,15.48,3.73,4,7.95,5.67,12.56,5.13A8.33,8.33,0,0,1,73,120.5a2,2,0,0,0,3.41.12c0-.05,3-4.46,10.11-7.84,8.08-3.84,13-2.9,13.06-2.9a2,2,0,0,0,2.24-2.8c-.66-1.43-1.82-3.93-2.07-4.78Zm-14.93,6.87a33.28,33.28,0,0,0-10,7.09,3.6,3.6,0,0,0-3-1.3c-3.48.54-6.6-.72-9.56-3.84-6.43-6.83-14.38-14-23.73-16.6-3.32-.92-5.78-2.89-4.34-6,.39-.87,1.58-3.5,9.57-1.44,6.87,1.78,9.4,2.09,10.84.5,2.29-2.52,1.74-4.48.55-8.75,0-.1-2.29-8.46-8.31-24.55-1.81-4.84-1.88-7-.24-7.84,2.23-1.09,3.35,0,6.08,4.29,3.26,5.16,9.5,17.46,12.21,22.85a2,2,0,1,0,3.57-1.8l-1-2a6,6,0,0,1,4.12-.37,4.86,4.86,0,0,1,3.26,2.55,2,2,0,1,0,3.7-1.5,6.911,6.911,0,0,0-.33-.66,3,3,0,0,1,2,.14,7.57,7.57,0,0,1,1.93,2.2,2,2,0,0,0,3.7-1.21c2.35.26,2.73,1.18,3,1.61,1.31,1.8,5.31,7.25,6.51,13.72,1.48,7.92-.05,15.25.52,17.14a26.089,26.089,0,0,0,1,2.44,32.45,32.45,0,0,0-12.05,3.33Z" transform="translate(1534.276 -9376)" fill="#0b5e88"/>
    <path id="Trazado_602195" data-name="Trazado 602195" d="M50,112H16V72H42.31a2,2,0,0,0,0-4H14a2,2,0,0,0-2,2v44a2,2,0,0,0,2,2H50a2,2,0,0,0,0-4Z" transform="translate(1534.276 -9376)" fill="#0b5e88"/>
    <path id="Trazado_602196" data-name="Trazado 602196" d="M114,68H100a2,2,0,0,0,0,4h12v40h-3.73a2,2,0,0,0,0,4H114a2,2,0,0,0,2-2V70A2,2,0,0,0,114,68Z" transform="translate(1534.276 -9376)" fill="#0b5e88"/>
    <path id="Trazado_602197" data-name="Trazado 602197" d="M50.21,24.16A22.15,22.15,0,0,0,47.5,24,23.54,23.54,0,0,0,24.16,50.28a2.014,2.014,0,0,0,4-.47A19.759,19.759,0,0,1,28,47.5,19.53,19.53,0,0,1,47.5,28a19,19,0,0,1,2.26.13,2.013,2.013,0,0,0,.45-4Z" transform="translate(1534.276 -9376)" fill="#0b5e88"/>
    <path id="Trazado_602198" data-name="Trazado 602198" d="M47.5,36a12.09,12.09,0,0,1,2,.17,2,2,0,1,0,.69-3.94A16.1,16.1,0,0,0,47.5,32,15.51,15.51,0,0,0,32,47.5a15.21,15.21,0,0,0,.25,2.78,2,2,0,1,0,3.93-.72A11.77,11.77,0,0,1,36,47.5,11.51,11.51,0,0,1,47.5,36Z" transform="translate(1534.276 -9376)" fill="#0b5e88"/>
    <path id="Trazado_602199" data-name="Trazado 602199" d="M80.53,50H94.17a2,2,0,0,0,2-1.78l.43-4c2.59-.78,11.4-3.94,11.4-10.58,0-6.94-5.1-7.88-9.4-8l.15-1.42a2,2,0,0,0-2-2.22H78a2,2,0,0,0-2,2.21l2.53,24A2,2,0,0,0,80.53,50ZM104,33.64c0,2.83-4,5-6.94,6.18l1.1-10.19C102.7,29.74,104,30.44,104,33.64ZM94.53,26,92.37,46h-10L80.22,26Z" transform="translate(1534.276 -9376)" fill="#0b5e88"/>
    <path id="Trazado_602708" data-name="Trazado 602708" d="M23,0A23,23,0,1,1,0,23,23,23,0,0,1,23,0Z" transform="translate(1329.612 -9243)" fill="#f2f5d1"/>
    <path id="Trazado_602709" data-name="Trazado 602709" d="M20.063,15.121a7.2,7.2,0,0,1-1.221,4.512A4.261,4.261,0,0,1,15.268,21.2a4.291,4.291,0,0,1-3.555-1.533,6.992,6.992,0,0,1-1.26-4.395V12.65a7.109,7.109,0,0,1,1.235-4.521,4.293,4.293,0,0,1,3.56-1.543A4.3,4.3,0,0,1,18.8,8.114a6.97,6.97,0,0,1,1.26,4.39ZM17.24,12.244a5.207,5.207,0,0,0-.483-2.576,1.634,1.634,0,0,0-1.509-.806,1.6,1.6,0,0,0-1.47.767,4.873,4.873,0,0,0-.5,2.4v3.46a5.466,5.466,0,0,0,.474,2.586,1.612,1.612,0,0,0,1.519.846,1.585,1.585,0,0,0,1.494-.811,5.335,5.335,0,0,0,.479-2.483ZM28.822,21H26V10.121l-3.369,1.045V8.871L28.52,6.762h.3Z" transform="translate(1331.612 -9231)" fill="#12263f"/>
    <path id="Trazado_602710" data-name="Trazado 602710" d="M23,0A23,23,0,1,1,0,23,23,23,0,0,1,23,0Z" transform="translate(1575 -9243)" fill="#d9e9f1"/>
    <path id="Trazado_602711" data-name="Trazado 602711" d="M20.063,15.121a7.2,7.2,0,0,1-1.221,4.512A4.261,4.261,0,0,1,15.268,21.2a4.291,4.291,0,0,1-3.555-1.533,6.992,6.992,0,0,1-1.26-4.395V12.65a7.109,7.109,0,0,1,1.235-4.521,4.293,4.293,0,0,1,3.56-1.543A4.3,4.3,0,0,1,18.8,8.114a6.97,6.97,0,0,1,1.26,4.39ZM17.24,12.244a5.207,5.207,0,0,0-.483-2.576,1.634,1.634,0,0,0-1.509-.806,1.6,1.6,0,0,0-1.47.767,4.873,4.873,0,0,0-.5,2.4v3.46a5.466,5.466,0,0,0,.474,2.586,1.612,1.612,0,0,0,1.519.846,1.585,1.585,0,0,0,1.494-.811,5.335,5.335,0,0,0,.479-2.483ZM31.713,21H21.967V19.066l4.6-4.9a11.347,11.347,0,0,0,1.4-1.807,2.9,2.9,0,0,0,.454-1.465A2.172,2.172,0,0,0,27.943,9.4a1.727,1.727,0,0,0-1.367-.542,1.863,1.863,0,0,0-1.509.659,2.611,2.611,0,0,0-.552,1.733H21.684a4.661,4.661,0,0,1,.62-2.373A4.371,4.371,0,0,1,24.057,7.2a5.328,5.328,0,0,1,2.568-.61,5.045,5.045,0,0,1,3.413,1.055,3.731,3.731,0,0,1,1.216,2.979,4.781,4.781,0,0,1-.547,2.148,11.939,11.939,0,0,1-1.875,2.549L25.6,18.725h6.113Z" transform="translate(1577.276 -9231)" fill="#12263f"/>
    <path id="Trazado_602712" data-name="Trazado 602712" d="M23,0A23,23,0,1,1,0,23,23,23,0,0,1,23,0Z" transform="translate(1330.612 -8956.055)" fill="#d9e9f1"/>
    <path id="Trazado_602713" data-name="Trazado 602713" d="M20.063,15.121a7.2,7.2,0,0,1-1.221,4.512A4.261,4.261,0,0,1,15.268,21.2a4.291,4.291,0,0,1-3.555-1.533,6.992,6.992,0,0,1-1.26-4.395V12.65a7.109,7.109,0,0,1,1.235-4.521,4.293,4.293,0,0,1,3.56-1.543A4.3,4.3,0,0,1,18.8,8.114a6.97,6.97,0,0,1,1.26,4.39ZM17.24,12.244a5.207,5.207,0,0,0-.483-2.576,1.634,1.634,0,0,0-1.509-.806,1.6,1.6,0,0,0-1.47.767,4.873,4.873,0,0,0-.5,2.4v3.46a5.466,5.466,0,0,0,.474,2.586,1.612,1.612,0,0,0,1.519.846,1.585,1.585,0,0,0,1.494-.811,5.335,5.335,0,0,0,.479-2.483Zm13.076,3.4h1.611v2.275H30.316V21H27.494V17.924h-5.83l-.127-1.777,5.928-9.365h2.852Zm-5.967,0h3.145v-5.02l-.186.322Z" transform="translate(1332.612 -8944.055)" fill="#12263f"/>
    <path id="Trazado_602714" data-name="Trazado 602714" d="M60.557,15.51H56.191L55.361,18H52.713l4.5-12.086H59.52L64.044,18H61.4Zm-3.694-2.017h3.021L58.366,8.969Zm16.236.1a5.387,5.387,0,0,1-.942,3.324,3.021,3.021,0,0,1-2.544,1.249,2.8,2.8,0,0,1-2.2-.946v4.233h-2.4V9.019H67.24l.083.88A2.819,2.819,0,0,1,69.6,8.853a3.041,3.041,0,0,1,2.582,1.229,5.532,5.532,0,0,1,.921,3.387Zm-2.4-.174a3.535,3.535,0,0,0-.444-1.934,1.446,1.446,0,0,0-1.291-.681,1.571,1.571,0,0,0-1.552.863v3.677a1.6,1.6,0,0,0,1.569.888Q70.7,16.232,70.7,13.418ZM77.117,18H74.71V5.25h2.407Zm4.507,0H79.218V9.019h2.407ZM79.076,6.694a1.181,1.181,0,0,1,.361-.888,1.556,1.556,0,0,1,1.963,0,1.175,1.175,0,0,1,.365.888,1.178,1.178,0,0,1-.369.9,1.539,1.539,0,0,1-1.951,0A1.178,1.178,0,0,1,79.076,6.694Zm8.259,9.538a1.573,1.573,0,0,0,1.079-.365,1.28,1.28,0,0,0,.432-.971H91.1a3.077,3.077,0,0,1-.5,1.673,3.286,3.286,0,0,1-1.341,1.179,4.2,4.2,0,0,1-1.88.419,3.9,3.9,0,0,1-3.038-1.224,4.845,4.845,0,0,1-1.112-3.383V13.4a4.79,4.79,0,0,1,1.1-3.312,3.854,3.854,0,0,1,3.03-1.237,3.778,3.778,0,0,1,2.7.959A3.4,3.4,0,0,1,91.1,12.364h-2.25a1.648,1.648,0,0,0-.432-1.139,1.6,1.6,0,0,0-2.362.173,3.541,3.541,0,0,0-.427,1.983v.249a3.586,3.586,0,0,0,.423,2A1.463,1.463,0,0,0,87.336,16.232ZM97.67,18a2.664,2.664,0,0,1-.241-.805,2.9,2.9,0,0,1-2.266.971,3.189,3.189,0,0,1-2.187-.764,2.456,2.456,0,0,1-.867-1.926,2.538,2.538,0,0,1,1.058-2.191,5.222,5.222,0,0,1,3.059-.772h1.1V12a1.48,1.48,0,0,0-.32-1A1.257,1.257,0,0,0,96,10.629a1.429,1.429,0,0,0-.95.291.987.987,0,0,0-.344.8h-2.4a2.41,2.41,0,0,1,.481-1.444A3.182,3.182,0,0,1,94.151,9.23a4.961,4.961,0,0,1,1.976-.378,3.92,3.92,0,0,1,2.635.834,2.918,2.918,0,0,1,.975,2.345v3.893a4.294,4.294,0,0,0,.357,1.934V18Zm-1.984-1.668a2.066,2.066,0,0,0,.979-.237,1.554,1.554,0,0,0,.664-.635V13.916h-.9q-1.8,0-1.917,1.245l-.008.141a.96.96,0,0,0,.315.739A1.225,1.225,0,0,0,95.686,16.332Zm10.94-5.063a6.517,6.517,0,0,0-.863-.066,1.757,1.757,0,0,0-1.785.921V18h-2.4V9.019h2.266l.066,1.071a2.223,2.223,0,0,1,2-1.237,2.514,2.514,0,0,1,.747.108Zm11.812,3.561a1.278,1.278,0,0,0-.5-1.083,6.533,6.533,0,0,0-1.793-.8,12.71,12.71,0,0,1-2.05-.826,3.35,3.35,0,0,1-2.059-3,2.919,2.919,0,0,1,.552-1.747,3.6,3.6,0,0,1,1.585-1.2,5.967,5.967,0,0,1,2.32-.432,5.432,5.432,0,0,1,2.308.469,3.674,3.674,0,0,1,1.573,1.324,3.464,3.464,0,0,1,.56,1.942h-2.49a1.63,1.63,0,0,0-.523-1.291,2.15,2.15,0,0,0-1.469-.461,2.3,2.3,0,0,0-1.419.386,1.217,1.217,0,0,0-.506,1.017,1.166,1.166,0,0,0,.594.988,6.705,6.705,0,0,0,1.747.747,7.55,7.55,0,0,1,3.1,1.585,3.157,3.157,0,0,1,.971,2.357,2.909,2.909,0,0,1-1.187,2.461,5.2,5.2,0,0,1-3.2.892,6.171,6.171,0,0,1-2.54-.51,4.019,4.019,0,0,1-1.747-1.4,3.582,3.582,0,0,1-.6-2.059h2.5q0,2,2.391,2a2.326,2.326,0,0,0,1.386-.361A1.175,1.175,0,0,0,118.439,14.829ZM125.113,16H130.4v2h-7.778V5.914h2.49Zm13.7-.49h-4.366l-.83,2.49h-2.648l4.5-12.086h2.308L142.3,18h-2.648Zm-3.694-2.017h3.021l-1.519-4.524Z" transform="translate(1499.638 -8600)" fill="#12263f"/>
    <path id="Trazado_602715" data-name="Trazado 602715" d="M48.38,12.762H43.6V16H49.21v2h-8.1V5.914h8.085V7.931H43.6v2.88H48.38Zm4.673-3.744V18.49a3.213,3.213,0,0,1-.789,2.312,3,3,0,0,1-2.274.826,4.878,4.878,0,0,1-1.187-.141v-1.9a4.5,4.5,0,0,0,.755.075q1.087,0,1.087-1.154V9.019Zm-2.6-2.324a1.181,1.181,0,0,1,.361-.888,1.562,1.562,0,0,1,1.967,0,1.181,1.181,0,0,1,.361.888,1.178,1.178,0,0,1-.369.9,1.539,1.539,0,0,1-1.951,0A1.178,1.178,0,0,1,50.455,6.694Zm8.608,11.472a4.409,4.409,0,0,1-3.217-1.212,4.308,4.308,0,0,1-1.241-3.229v-.232a5.426,5.426,0,0,1,.523-2.42A3.838,3.838,0,0,1,56.61,9.429,4.159,4.159,0,0,1,58.8,8.853a3.727,3.727,0,0,1,2.9,1.162,4.722,4.722,0,0,1,1.058,3.3v.979H57.038a2.229,2.229,0,0,0,.7,1.411,2.12,2.12,0,0,0,1.482.531,2.589,2.589,0,0,0,2.167-1l1.179,1.32a3.6,3.6,0,0,1-1.461,1.191A4.793,4.793,0,0,1,59.063,18.166Zm-.274-7.379a1.5,1.5,0,0,0-1.158.484,2.5,2.5,0,0,0-.569,1.384H60.4v-.192a1.786,1.786,0,0,0-.432-1.238A1.547,1.547,0,0,0,58.789,10.787Zm9.064,5.445a1.573,1.573,0,0,0,1.079-.365,1.28,1.28,0,0,0,.432-.971h2.25a3.077,3.077,0,0,1-.5,1.673,3.286,3.286,0,0,1-1.341,1.179,4.2,4.2,0,0,1-1.88.419,3.9,3.9,0,0,1-3.038-1.224,4.845,4.845,0,0,1-1.112-3.383V13.4a4.79,4.79,0,0,1,1.1-3.312,3.854,3.854,0,0,1,3.03-1.237,3.778,3.778,0,0,1,2.7.959,3.4,3.4,0,0,1,1.033,2.552h-2.25a1.648,1.648,0,0,0-.432-1.139,1.6,1.6,0,0,0-2.362.173,3.541,3.541,0,0,0-.427,1.983v.249a3.586,3.586,0,0,0,.423,2A1.463,1.463,0,0,0,67.854,16.232Zm10.509.855a3.008,3.008,0,0,1-2.457,1.079,2.837,2.837,0,0,1-2.2-.83,3.543,3.543,0,0,1-.776-2.432V9.019h2.4v5.809q0,1.4,1.278,1.4a1.732,1.732,0,0,0,1.677-.848V9.019h2.407V18H78.429ZM85.368,6.811V9.019H86.9v1.76H85.368v4.482a1.07,1.07,0,0,0,.191.714.959.959,0,0,0,.73.216A3.826,3.826,0,0,0,87,16.132V17.95a4.938,4.938,0,0,1-1.453.216,2.29,2.29,0,0,1-2.573-2.548V10.778H81.658V9.019h1.312V6.811ZM93.445,18a2.664,2.664,0,0,1-.241-.805,2.9,2.9,0,0,1-2.266.971,3.189,3.189,0,0,1-2.187-.764,2.456,2.456,0,0,1-.867-1.926,2.538,2.538,0,0,1,1.058-2.191A5.222,5.222,0,0,1,92,12.513h1.1V12a1.48,1.48,0,0,0-.32-1,1.257,1.257,0,0,0-1.009-.374,1.429,1.429,0,0,0-.95.291.987.987,0,0,0-.344.8h-2.4a2.41,2.41,0,0,1,.481-1.444A3.182,3.182,0,0,1,89.926,9.23,4.961,4.961,0,0,1,91.9,8.853a3.92,3.92,0,0,1,2.635.834,2.918,2.918,0,0,1,.975,2.345v3.893a4.294,4.294,0,0,0,.357,1.934V18Zm-1.984-1.668a2.066,2.066,0,0,0,.979-.237,1.554,1.554,0,0,0,.664-.635V13.916h-.9q-1.8,0-1.917,1.245l-.008.141a.96.96,0,0,0,.315.739A1.225,1.225,0,0,0,91.461,16.332Zm10.94-5.063a6.517,6.517,0,0,0-.863-.066,1.757,1.757,0,0,0-1.785.921V18h-2.4V9.019h2.266l.066,1.071a2.223,2.223,0,0,1,2-1.237,2.514,2.514,0,0,1,.747.108Zm8.259-4.458V9.019H112.2v1.76h-1.536v4.482a1.07,1.07,0,0,0,.191.714.959.959,0,0,0,.73.216,3.826,3.826,0,0,0,.706-.058V17.95a4.938,4.938,0,0,1-1.453.216,2.29,2.29,0,0,1-2.573-2.548V10.778H106.95V9.019h1.312V6.811ZM118.738,18a2.664,2.664,0,0,1-.241-.805,2.9,2.9,0,0,1-2.266.971,3.189,3.189,0,0,1-2.187-.764,2.456,2.456,0,0,1-.867-1.926,2.538,2.538,0,0,1,1.058-2.191,5.222,5.222,0,0,1,3.059-.772h1.1V12a1.48,1.48,0,0,0-.32-1,1.257,1.257,0,0,0-1.009-.374,1.429,1.429,0,0,0-.95.291.987.987,0,0,0-.344.8h-2.4a2.41,2.41,0,0,1,.481-1.444,3.182,3.182,0,0,1,1.361-1.042,4.961,4.961,0,0,1,1.976-.378,3.92,3.92,0,0,1,2.635.834,2.918,2.918,0,0,1,.975,2.345v3.893a4.294,4.294,0,0,0,.357,1.934V18Zm-1.984-1.668a2.066,2.066,0,0,0,.979-.237,1.554,1.554,0,0,0,.664-.635V13.916h-.9q-1.8,0-1.917,1.245l-.008.141a.96.96,0,0,0,.315.739A1.225,1.225,0,0,0,116.754,16.332Zm10.94-5.063a6.517,6.517,0,0,0-.863-.066,1.757,1.757,0,0,0-1.785.921V18h-2.4V9.019h2.266l.066,1.071a2.223,2.223,0,0,1,2-1.237,2.514,2.514,0,0,1,.747.108Zm5.288,6.9a4.409,4.409,0,0,1-3.217-1.212,4.308,4.308,0,0,1-1.241-3.229v-.232a5.426,5.426,0,0,1,.523-2.42,3.838,3.838,0,0,1,1.482-1.644,4.159,4.159,0,0,1,2.187-.577,3.727,3.727,0,0,1,2.9,1.162,4.722,4.722,0,0,1,1.058,3.3v.979h-5.719a2.228,2.228,0,0,0,.7,1.411,2.12,2.12,0,0,0,1.482.531,2.589,2.589,0,0,0,2.167-1l1.179,1.32a3.6,3.6,0,0,1-1.461,1.191A4.793,4.793,0,0,1,132.982,18.166Zm-.274-7.379a1.5,1.5,0,0,0-1.158.484,2.5,2.5,0,0,0-.569,1.384h3.337v-.192a1.786,1.786,0,0,0-.432-1.238A1.547,1.547,0,0,0,132.708,10.787ZM143.241,18a2.664,2.664,0,0,1-.241-.805,2.9,2.9,0,0,1-2.266.971,3.189,3.189,0,0,1-2.187-.764,2.456,2.456,0,0,1-.867-1.926,2.538,2.538,0,0,1,1.058-2.191,5.222,5.222,0,0,1,3.059-.772h1.1V12a1.48,1.48,0,0,0-.32-1,1.257,1.257,0,0,0-1.009-.374,1.429,1.429,0,0,0-.95.291.987.987,0,0,0-.344.8h-2.4a2.41,2.41,0,0,1,.481-1.444,3.182,3.182,0,0,1,1.361-1.042,4.961,4.961,0,0,1,1.976-.378,3.92,3.92,0,0,1,2.635.834,2.918,2.918,0,0,1,.975,2.345v3.893a4.294,4.294,0,0,0,.357,1.934V18Zm-1.984-1.668a2.066,2.066,0,0,0,.979-.237,1.554,1.554,0,0,0,.664-.635V13.916H142q-1.8,0-1.917,1.245l-.008.141a.96.96,0,0,0,.315.739A1.225,1.225,0,0,0,141.258,16.332Zm10.758-.813a.773.773,0,0,0-.436-.693,4.95,4.95,0,0,0-1.4-.452q-3.2-.672-3.2-2.723a2.468,2.468,0,0,1,.992-2,4,4,0,0,1,2.594-.8,4.307,4.307,0,0,1,2.735.805,2.538,2.538,0,0,1,1.025,2.092h-2.4a1.161,1.161,0,0,0-.332-.851,1.405,1.405,0,0,0-1.038-.336,1.436,1.436,0,0,0-.938.274.865.865,0,0,0-.332.7.739.739,0,0,0,.378.643,3.885,3.885,0,0,0,1.274.423,10.407,10.407,0,0,1,1.511.4,2.482,2.482,0,0,1,1.9,2.416,2.343,2.343,0,0,1-1.054,1.988,4.548,4.548,0,0,1-2.723.76,4.75,4.75,0,0,1-2-.4,3.363,3.363,0,0,1-1.374-1.1,2.565,2.565,0,0,1-.5-1.515h2.274a1.252,1.252,0,0,0,.473.979,1.877,1.877,0,0,0,1.179.34,1.737,1.737,0,0,0,1.042-.261A.814.814,0,0,0,152.015,15.518Z" transform="translate(1254.414 -8599.877)" fill="#12263f"/>
    <path id="Trazado_602716" data-name="Trazado 602716" d="M40.934,12.762H36.153V16h5.611v2h-8.1V5.914h8.085V7.931H36.153v2.88h4.781Zm4.341-3.744.075,1.038a3.136,3.136,0,0,1,2.582-1.2,2.606,2.606,0,0,1,2.125.838,3.912,3.912,0,0,1,.714,2.507V18h-2.4V12.256a1.556,1.556,0,0,0-.332-1.108,1.486,1.486,0,0,0-1.1-.344,1.65,1.65,0,0,0-1.519.863V18h-2.4V9.019ZM55.461,6.811V9.019H57v1.76H55.461v4.482a1.07,1.07,0,0,0,.191.714.959.959,0,0,0,.73.216,3.826,3.826,0,0,0,.706-.058V17.95a4.939,4.939,0,0,1-1.453.216,2.29,2.29,0,0,1-2.573-2.548V10.778H51.75V9.019h1.312V6.811Zm7.919,4.458a6.517,6.517,0,0,0-.863-.066,1.757,1.757,0,0,0-1.785.921V18h-2.4V9.019H60.6l.066,1.071a2.223,2.223,0,0,1,2-1.237,2.514,2.514,0,0,1,.747.108Zm5.288,6.9a4.409,4.409,0,0,1-3.217-1.212,4.308,4.308,0,0,1-1.241-3.229v-.232a5.426,5.426,0,0,1,.523-2.42,3.838,3.838,0,0,1,1.482-1.644A4.159,4.159,0,0,1,68.4,8.853a3.727,3.727,0,0,1,2.9,1.162,4.722,4.722,0,0,1,1.058,3.3v.979H66.642a2.229,2.229,0,0,0,.7,1.411,2.12,2.12,0,0,0,1.482.531,2.589,2.589,0,0,0,2.167-1l1.179,1.32a3.6,3.6,0,0,1-1.461,1.191A4.793,4.793,0,0,1,68.667,18.166Zm-.274-7.379a1.5,1.5,0,0,0-1.158.484,2.5,2.5,0,0,0-.569,1.384H70v-.192a1.786,1.786,0,0,0-.432-1.238A1.547,1.547,0,0,0,68.393,10.787Zm4.98,2.656a5.264,5.264,0,0,1,.984-3.329A3.187,3.187,0,0,1,77.01,8.853a2.8,2.8,0,0,1,2.3,1.013l.1-.847h2.175V17.7a3.839,3.839,0,0,1-.535,2.05,3.439,3.439,0,0,1-1.507,1.328,5.3,5.3,0,0,1-2.274.457,4.925,4.925,0,0,1-1.926-.394,3.418,3.418,0,0,1-1.419-1.017l1.063-1.461a2.81,2.81,0,0,0,2.175,1,2.057,2.057,0,0,0,1.486-.51,1.915,1.915,0,0,0,.531-1.448v-.481a2.775,2.775,0,0,1-2.183.938A3.179,3.179,0,0,1,74.374,16.9a5.262,5.262,0,0,1-1-3.358Zm2.4.179a3.278,3.278,0,0,0,.49,1.916,1.558,1.558,0,0,0,1.345.694,1.666,1.666,0,0,0,1.569-.823V11.626a1.662,1.662,0,0,0-1.552-.823,1.568,1.568,0,0,0-1.357.707A3.694,3.694,0,0,0,75.773,13.621ZM88.631,18a2.664,2.664,0,0,1-.241-.805,2.9,2.9,0,0,1-2.266.971,3.189,3.189,0,0,1-2.187-.764,2.456,2.456,0,0,1-.867-1.926,2.538,2.538,0,0,1,1.058-2.191,5.222,5.222,0,0,1,3.059-.772h1.1V12a1.48,1.48,0,0,0-.32-1,1.257,1.257,0,0,0-1.009-.374,1.429,1.429,0,0,0-.95.291.987.987,0,0,0-.344.8h-2.4a2.41,2.41,0,0,1,.481-1.444A3.182,3.182,0,0,1,85.111,9.23a4.961,4.961,0,0,1,1.976-.378,3.92,3.92,0,0,1,2.635.834,2.918,2.918,0,0,1,.975,2.345v3.893a4.294,4.294,0,0,0,.357,1.934V18Zm-1.984-1.668a2.066,2.066,0,0,0,.979-.237,1.554,1.554,0,0,0,.664-.635V13.916h-.9q-1.8,0-1.917,1.245l-.008.141a.96.96,0,0,0,.315.739A1.225,1.225,0,0,0,86.647,16.332Zm10.94-5.063a6.517,6.517,0,0,0-.863-.066,1.757,1.757,0,0,0-1.785.921V18h-2.4V9.019h2.266l.066,1.071a2.223,2.223,0,0,1,2-1.237,2.514,2.514,0,0,1,.747.108Zm10.251,4.25a.773.773,0,0,0-.436-.693,4.95,4.95,0,0,0-1.4-.452q-3.2-.672-3.2-2.723a2.468,2.468,0,0,1,.992-2,4,4,0,0,1,2.594-.8,4.307,4.307,0,0,1,2.735.805,2.538,2.538,0,0,1,1.025,2.092h-2.4a1.161,1.161,0,0,0-.332-.851,1.405,1.405,0,0,0-1.038-.336,1.436,1.436,0,0,0-.938.274.865.865,0,0,0-.332.7.739.739,0,0,0,.378.643,3.885,3.885,0,0,0,1.274.423,10.407,10.407,0,0,1,1.511.4,2.482,2.482,0,0,1,1.9,2.416,2.343,2.343,0,0,1-1.054,1.988,4.548,4.548,0,0,1-2.723.76,4.75,4.75,0,0,1-2-.4,3.363,3.363,0,0,1-1.374-1.1,2.565,2.565,0,0,1-.5-1.515h2.274a1.252,1.252,0,0,0,.473.979,1.877,1.877,0,0,0,1.179.34,1.737,1.737,0,0,0,1.042-.261A.814.814,0,0,0,107.839,15.518Zm8.01,2.648a4.409,4.409,0,0,1-3.217-1.212,4.308,4.308,0,0,1-1.241-3.229v-.232a5.426,5.426,0,0,1,.523-2.42A3.838,3.838,0,0,1,113.4,9.429a4.159,4.159,0,0,1,2.187-.577,3.727,3.727,0,0,1,2.9,1.162,4.722,4.722,0,0,1,1.058,3.3v.979h-5.719a2.229,2.229,0,0,0,.7,1.411,2.12,2.12,0,0,0,1.482.531,2.589,2.589,0,0,0,2.167-1l1.179,1.32a3.6,3.6,0,0,1-1.461,1.191A4.793,4.793,0,0,1,115.849,18.166Zm-.274-7.379a1.5,1.5,0,0,0-1.158.484,2.5,2.5,0,0,0-.569,1.384h3.337v-.192a1.786,1.786,0,0,0-.432-1.238A1.547,1.547,0,0,0,115.575,10.787Zm10.376.481a6.517,6.517,0,0,0-.863-.066,1.757,1.757,0,0,0-1.785.921V18h-2.4V9.019h2.266l.066,1.071a2.223,2.223,0,0,1,2-1.237,2.514,2.514,0,0,1,.747.108Zm4.665,3.8,1.668-6.051h2.507L131.761,18H129.47l-3.03-8.981h2.507ZM138.377,18H135.97V9.019h2.407ZM135.829,6.694a1.181,1.181,0,0,1,.361-.888,1.556,1.556,0,0,1,1.963,0,1.175,1.175,0,0,1,.365.888,1.178,1.178,0,0,1-.369.9,1.539,1.539,0,0,1-1.951,0A1.178,1.178,0,0,1,135.829,6.694Zm8.259,9.538a1.573,1.573,0,0,0,1.079-.365,1.28,1.28,0,0,0,.432-.971h2.25a3.077,3.077,0,0,1-.5,1.673,3.286,3.286,0,0,1-1.341,1.179,4.2,4.2,0,0,1-1.88.419,3.9,3.9,0,0,1-3.038-1.224,4.845,4.845,0,0,1-1.112-3.383V13.4a4.79,4.79,0,0,1,1.1-3.312,3.854,3.854,0,0,1,3.03-1.237,3.778,3.778,0,0,1,2.7.959,3.4,3.4,0,0,1,1.033,2.552H145.6a1.648,1.648,0,0,0-.432-1.139,1.6,1.6,0,0,0-2.362.173,3.541,3.541,0,0,0-.427,1.983v.249a3.586,3.586,0,0,0,.423,2A1.463,1.463,0,0,0,144.088,16.232ZM151.75,18h-2.407V9.019h2.407ZM149.2,6.694a1.181,1.181,0,0,1,.361-.888,1.556,1.556,0,0,1,1.963,0,1.175,1.175,0,0,1,.365.888,1.178,1.178,0,0,1-.369.9,1.539,1.539,0,0,1-1.951,0A1.178,1.178,0,0,1,149.2,6.694Zm4.15,6.732a5.327,5.327,0,0,1,.515-2.382,3.767,3.767,0,0,1,1.482-1.619,4.323,4.323,0,0,1,2.245-.573,4.09,4.09,0,0,1,2.968,1.112,4.464,4.464,0,0,1,1.282,3.021l.017.614a4.694,4.694,0,0,1-1.154,3.316,4.472,4.472,0,0,1-6.2,0,4.777,4.777,0,0,1-1.158-3.387Zm2.4.17a3.357,3.357,0,0,0,.481,1.958,1.73,1.73,0,0,0,2.739.008,3.674,3.674,0,0,0,.49-2.141,3.324,3.324,0,0,0-.49-1.945,1.592,1.592,0,0,0-1.378-.69,1.566,1.566,0,0,0-1.361.686A3.735,3.735,0,0,0,155.751,13.6Z" transform="translate(1499 -8306)" fill="#12263f"/>
    <path id="Trazado_602717" data-name="Trazado 602717" d="M40.677,12.762H35.9V16h5.611v2h-8.1V5.914H41.49V7.931H35.9v2.88h4.781Zm4.341-3.744.075,1.038a3.136,3.136,0,0,1,2.582-1.2,2.606,2.606,0,0,1,2.125.838,3.912,3.912,0,0,1,.714,2.507V18h-2.4V12.256a1.556,1.556,0,0,0-.332-1.108,1.486,1.486,0,0,0-1.1-.344,1.65,1.65,0,0,0-1.519.863V18h-2.4V9.019ZM55.693,15.07l1.668-6.051h2.507L56.839,18H54.548l-3.03-8.981h2.507ZM63.454,18H61.047V9.019h2.407ZM60.906,6.694a1.181,1.181,0,0,1,.361-.888,1.556,1.556,0,0,1,1.963,0,1.175,1.175,0,0,1,.365.888,1.178,1.178,0,0,1-.369.9,1.539,1.539,0,0,1-1.951,0A1.178,1.178,0,0,1,60.906,6.694ZM70.635,18a2.664,2.664,0,0,1-.241-.805,2.9,2.9,0,0,1-2.266.971A3.189,3.189,0,0,1,65.94,17.4a2.456,2.456,0,0,1-.867-1.926,2.538,2.538,0,0,1,1.058-2.191,5.222,5.222,0,0,1,3.059-.772h1.1V12a1.48,1.48,0,0,0-.32-1,1.257,1.257,0,0,0-1.009-.374,1.429,1.429,0,0,0-.95.291.987.987,0,0,0-.344.8h-2.4a2.41,2.41,0,0,1,.481-1.444A3.182,3.182,0,0,1,67.115,9.23a4.961,4.961,0,0,1,1.976-.378,3.92,3.92,0,0,1,2.635.834,2.918,2.918,0,0,1,.975,2.345v3.893a4.294,4.294,0,0,0,.357,1.934V18Zm-1.984-1.668a2.066,2.066,0,0,0,.979-.237,1.554,1.554,0,0,0,.664-.635V13.916h-.9q-1.8,0-1.917,1.245l-.008.141a.96.96,0,0,0,.315.739A1.225,1.225,0,0,0,68.651,16.332Zm10.94-5.063a6.517,6.517,0,0,0-.863-.066,1.757,1.757,0,0,0-1.785.921V18h-2.4V9.019H76.81l.066,1.071a2.223,2.223,0,0,1,2-1.237,2.514,2.514,0,0,1,.747.108Zm9.521,6.9A4.409,4.409,0,0,1,85.9,16.954a4.308,4.308,0,0,1-1.241-3.229v-.232a5.426,5.426,0,0,1,.523-2.42,3.838,3.838,0,0,1,1.482-1.644,4.159,4.159,0,0,1,2.187-.577,3.727,3.727,0,0,1,2.9,1.162,4.722,4.722,0,0,1,1.058,3.3v.979H87.087a2.229,2.229,0,0,0,.7,1.411,2.12,2.12,0,0,0,1.482.531,2.589,2.589,0,0,0,2.167-1l1.179,1.32a3.6,3.6,0,0,1-1.461,1.191A4.793,4.793,0,0,1,89.112,18.166Zm-.274-7.379a1.5,1.5,0,0,0-1.158.484,2.5,2.5,0,0,0-.569,1.384h3.337v-.192a1.786,1.786,0,0,0-.432-1.238A1.547,1.547,0,0,0,88.838,10.787Zm7.537-1.768.075,1.038a3.136,3.136,0,0,1,2.582-1.2,2.606,2.606,0,0,1,2.125.838,3.912,3.912,0,0,1,.714,2.507V18h-2.4V12.256a1.556,1.556,0,0,0-.332-1.108,1.486,1.486,0,0,0-1.1-.344,1.65,1.65,0,0,0-1.519.863V18h-2.4V9.019Zm11.048,7.213a1.573,1.573,0,0,0,1.079-.365,1.28,1.28,0,0,0,.432-.971h2.25a3.077,3.077,0,0,1-.5,1.673,3.286,3.286,0,0,1-1.341,1.179,4.2,4.2,0,0,1-1.88.419,3.9,3.9,0,0,1-3.038-1.224,4.845,4.845,0,0,1-1.112-3.383V13.4a4.79,4.79,0,0,1,1.1-3.312,3.854,3.854,0,0,1,3.03-1.237,3.778,3.778,0,0,1,2.7.959,3.4,3.4,0,0,1,1.033,2.552h-2.25a1.648,1.648,0,0,0-.432-1.139,1.6,1.6,0,0,0-2.362.173,3.541,3.541,0,0,0-.427,1.983v.249a3.586,3.586,0,0,0,.423,2A1.463,1.463,0,0,0,107.424,16.232Zm10.509.855a3.008,3.008,0,0,1-2.457,1.079,2.837,2.837,0,0,1-2.2-.83A3.543,3.543,0,0,1,112.5,14.9V9.019h2.4v5.809q0,1.4,1.278,1.4a1.732,1.732,0,0,0,1.677-.848V9.019h2.407V18H118Zm8.268,1.079a4.409,4.409,0,0,1-3.217-1.212,4.308,4.308,0,0,1-1.241-3.229v-.232a5.426,5.426,0,0,1,.523-2.42,3.838,3.838,0,0,1,1.482-1.644,4.159,4.159,0,0,1,2.187-.577,3.727,3.727,0,0,1,2.9,1.162,4.722,4.722,0,0,1,1.058,3.3v.979h-5.719a2.229,2.229,0,0,0,.7,1.411,2.12,2.12,0,0,0,1.482.531,2.589,2.589,0,0,0,2.167-1l1.179,1.32a3.6,3.6,0,0,1-1.461,1.191A4.793,4.793,0,0,1,126.2,18.166Zm-.274-7.379a1.5,1.5,0,0,0-1.158.484,2.5,2.5,0,0,0-.569,1.384h3.337v-.192a1.786,1.786,0,0,0-.432-1.238A1.547,1.547,0,0,0,125.926,10.787Zm10.193,4.731a.773.773,0,0,0-.436-.693,4.95,4.95,0,0,0-1.4-.452q-3.2-.672-3.2-2.723a2.468,2.468,0,0,1,.992-2,4,4,0,0,1,2.594-.8,4.307,4.307,0,0,1,2.735.805,2.538,2.538,0,0,1,1.025,2.092h-2.4a1.161,1.161,0,0,0-.332-.851,1.405,1.405,0,0,0-1.038-.336,1.436,1.436,0,0,0-.938.274.865.865,0,0,0-.332.7.739.739,0,0,0,.378.643,3.885,3.885,0,0,0,1.274.423,10.407,10.407,0,0,1,1.511.4,2.482,2.482,0,0,1,1.9,2.416,2.343,2.343,0,0,1-1.054,1.988,4.548,4.548,0,0,1-2.723.76,4.75,4.75,0,0,1-2-.4,3.363,3.363,0,0,1-1.374-1.1,2.565,2.565,0,0,1-.5-1.515h2.274a1.252,1.252,0,0,0,.473.979,1.877,1.877,0,0,0,1.179.34,1.737,1.737,0,0,0,1.042-.261A.814.814,0,0,0,136.119,15.518Zm6.749-8.708V9.019H144.4v1.76h-1.536v4.482a1.07,1.07,0,0,0,.191.714.959.959,0,0,0,.73.216,3.826,3.826,0,0,0,.706-.058V17.95a4.939,4.939,0,0,1-1.453.216,2.29,2.29,0,0,1-2.573-2.548V10.778h-1.312V9.019h1.312V6.811ZM150.945,18a2.664,2.664,0,0,1-.241-.805,2.9,2.9,0,0,1-2.266.971,3.189,3.189,0,0,1-2.187-.764,2.456,2.456,0,0,1-.867-1.926,2.538,2.538,0,0,1,1.058-2.191,5.222,5.222,0,0,1,3.059-.772h1.1V12a1.48,1.48,0,0,0-.32-1,1.257,1.257,0,0,0-1.009-.374,1.429,1.429,0,0,0-.95.291.987.987,0,0,0-.344.8h-2.4a2.41,2.41,0,0,1,.481-1.444,3.182,3.182,0,0,1,1.361-1.042,4.961,4.961,0,0,1,1.976-.378,3.92,3.92,0,0,1,2.635.834,2.918,2.918,0,0,1,.975,2.345v3.893a4.294,4.294,0,0,0,.357,1.934V18Zm-1.984-1.668a2.066,2.066,0,0,0,.979-.237,1.554,1.554,0,0,0,.664-.635V13.916h-.9q-1.8,0-1.917,1.245l-.008.141a.96.96,0,0,0,.315.739A1.225,1.225,0,0,0,148.961,16.332Zm10.758-.813a.773.773,0,0,0-.436-.693,4.95,4.95,0,0,0-1.4-.452q-3.2-.672-3.2-2.723a2.468,2.468,0,0,1,.992-2,4,4,0,0,1,2.594-.8A4.307,4.307,0,0,1,161,9.658a2.538,2.538,0,0,1,1.025,2.092h-2.4a1.161,1.161,0,0,0-.332-.851,1.405,1.405,0,0,0-1.038-.336,1.436,1.436,0,0,0-.938.274.865.865,0,0,0-.332.7.739.739,0,0,0,.378.643,3.885,3.885,0,0,0,1.274.423,10.407,10.407,0,0,1,1.511.4,2.482,2.482,0,0,1,1.9,2.416A2.343,2.343,0,0,1,161,17.406a4.548,4.548,0,0,1-2.723.76,4.75,4.75,0,0,1-2-.4,3.363,3.363,0,0,1-1.374-1.1,2.565,2.565,0,0,1-.5-1.515h2.274a1.252,1.252,0,0,0,.473.979,1.877,1.877,0,0,0,1.179.34,1.737,1.737,0,0,0,1.042-.261A.814.814,0,0,0,159.719,15.518Z" transform="translate(1256 -8308)" fill="#12263f"/>
    <path id="Trazado_602718" data-name="Trazado 602718" d="M23,0A23,23,0,1,1,0,23,23,23,0,0,1,23,0Z" transform="translate(1330 -8370)" fill="#d9e9f1"/>
    <path id="Trazado_602719" data-name="Trazado 602719" d="M23,0A23,23,0,1,1,0,23,23,23,0,0,1,23,0Z" transform="translate(1572.862 -8661.877)" fill="#d9e9f1"/>
    <path id="Trazado_602720" data-name="Trazado 602720" d="M23,0A23,23,0,1,1,0,23,23,23,0,0,1,23,0Z" transform="translate(1573.862 -8370)" fill="#f2f5d1"/>
    <path id="Trazado_602721" data-name="Trazado 602721" d="M23,0A23,23,0,1,1,0,23,23,23,0,0,1,23,0Z" transform="translate(1329.414 -8662)" fill="#f2f5d1"/>
    <path id="Trazado_602722" data-name="Trazado 602722" d="M20.063,15.121a7.2,7.2,0,0,1-1.221,4.512A4.261,4.261,0,0,1,15.268,21.2a4.291,4.291,0,0,1-3.555-1.533,6.992,6.992,0,0,1-1.26-4.395V12.65a7.109,7.109,0,0,1,1.235-4.521,4.293,4.293,0,0,1,3.56-1.543A4.3,4.3,0,0,1,18.8,8.114a6.97,6.97,0,0,1,1.26,4.39ZM17.24,12.244a5.207,5.207,0,0,0-.483-2.576,1.634,1.634,0,0,0-1.509-.806,1.6,1.6,0,0,0-1.47.767,4.873,4.873,0,0,0-.5,2.4v3.46a5.466,5.466,0,0,0,.474,2.586,1.612,1.612,0,0,0,1.519.846,1.585,1.585,0,0,0,1.494-.811,5.335,5.335,0,0,0,.479-2.483Zm13.994-1.683a3.307,3.307,0,0,1-.518,1.836,3.725,3.725,0,0,1-1.426,1.279,4.124,4.124,0,0,1,1.641,1.372,3.52,3.52,0,0,1,.605,2.056A3.727,3.727,0,0,1,30.248,20.1a5.229,5.229,0,0,1-3.506,1.1,5.253,5.253,0,0,1-3.516-1.1,3.718,3.718,0,0,1-1.3-2.988,3.542,3.542,0,0,1,.605-2.061,4.049,4.049,0,0,1,1.631-1.367A3.687,3.687,0,0,1,22.743,12.4a3.331,3.331,0,0,1-.513-1.836,3.685,3.685,0,0,1,1.211-2.9,4.768,4.768,0,0,1,3.291-1.079,4.8,4.8,0,0,1,3.286,1.069A3.671,3.671,0,0,1,31.234,10.561ZM28.705,16.9a2.047,2.047,0,0,0-.537-1.484,2.149,2.149,0,0,0-2.881,0A2.044,2.044,0,0,0,24.75,16.9a2.042,2.042,0,0,0,.527,1.465,2.2,2.2,0,0,0,2.905.02A2.039,2.039,0,0,0,28.705,16.9Zm-.293-6.2a1.953,1.953,0,0,0-.439-1.333A1.788,1.788,0,0,0,25.5,9.35a1.942,1.942,0,0,0-.439,1.348,2.041,2.041,0,0,0,.439,1.367,1.739,1.739,0,0,0,2.476,0A2.056,2.056,0,0,0,28.412,10.7Z" transform="translate(1332 -8358)" fill="#12263f"/>
    <path id="Trazado_602723" data-name="Trazado 602723" d="M20.063,15.121a7.2,7.2,0,0,1-1.221,4.512A4.261,4.261,0,0,1,15.268,21.2a4.291,4.291,0,0,1-3.555-1.533,6.992,6.992,0,0,1-1.26-4.395V12.65a7.109,7.109,0,0,1,1.235-4.521,4.293,4.293,0,0,1,3.56-1.543A4.3,4.3,0,0,1,18.8,8.114a6.97,6.97,0,0,1,1.26,4.39ZM17.24,12.244a5.207,5.207,0,0,0-.483-2.576,1.634,1.634,0,0,0-1.509-.806,1.6,1.6,0,0,0-1.47.767,4.873,4.873,0,0,0-.5,2.4v3.46a5.466,5.466,0,0,0,.474,2.586,1.612,1.612,0,0,0,1.519.846,1.585,1.585,0,0,0,1.494-.811,5.335,5.335,0,0,0,.479-2.483ZM29.623,6.635V8.959H29.35a4.8,4.8,0,0,0-3.081,1,4.047,4.047,0,0,0-1.4,2.686,3.844,3.844,0,0,1,2.861-1.152,3.622,3.622,0,0,1,2.949,1.328,5.324,5.324,0,0,1,1.094,3.5,5.237,5.237,0,0,1-.6,2.51,4.307,4.307,0,0,1-1.7,1.748,4.937,4.937,0,0,1-2.485.625,4.611,4.611,0,0,1-3.628-1.562,6.065,6.065,0,0,1-1.382-4.17V14.447a9.128,9.128,0,0,1,.874-4.087,6.409,6.409,0,0,1,2.51-2.744,7.354,7.354,0,0,1,3.794-.981Zm-2.754,7.129a2.255,2.255,0,0,0-1.24.356,2.143,2.143,0,0,0-.82.941v.858a3.8,3.8,0,0,0,.557,2.208,1.8,1.8,0,0,0,1.563.794A1.779,1.779,0,0,0,28.4,18.2a2.922,2.922,0,0,0,.562-1.857,2.916,2.916,0,0,0-.566-1.871A1.846,1.846,0,0,0,26.869,13.764Z" transform="translate(1574.862 -8649.877)" fill="#12263f"/>
    <path id="Trazado_602724" data-name="Trazado 602724" d="M20.063,15.121a7.2,7.2,0,0,1-1.221,4.512A4.261,4.261,0,0,1,15.268,21.2a4.291,4.291,0,0,1-3.555-1.533,6.992,6.992,0,0,1-1.26-4.395V12.65a7.109,7.109,0,0,1,1.235-4.521,4.293,4.293,0,0,1,3.56-1.543A4.3,4.3,0,0,1,18.8,8.114a6.97,6.97,0,0,1,1.26,4.39ZM17.24,12.244a5.207,5.207,0,0,0-.483-2.576,1.634,1.634,0,0,0-1.509-.806,1.6,1.6,0,0,0-1.47.767,4.873,4.873,0,0,0-.5,2.4v3.46a5.466,5.466,0,0,0,.474,2.586,1.612,1.612,0,0,0,1.519.846,1.585,1.585,0,0,0,1.494-.811,5.335,5.335,0,0,0,.479-2.483ZM31.635,8.357,26.137,21H23.158L28.666,9.057H21.6V6.781H31.635Z" transform="translate(1575.862 -8358)" fill="#12263f"/>
    <path id="Trazado_602725" data-name="Trazado 602725" d="M20.063,15.121a7.2,7.2,0,0,1-1.221,4.512A4.261,4.261,0,0,1,15.268,21.2a4.291,4.291,0,0,1-3.555-1.533,6.992,6.992,0,0,1-1.26-4.395V12.65a7.109,7.109,0,0,1,1.235-4.521,4.293,4.293,0,0,1,3.56-1.543A4.3,4.3,0,0,1,18.8,8.114a6.97,6.97,0,0,1,1.26,4.39ZM17.24,12.244a5.207,5.207,0,0,0-.483-2.576,1.634,1.634,0,0,0-1.509-.806,1.6,1.6,0,0,0-1.47.767,4.873,4.873,0,0,0-.5,2.4v3.46a5.466,5.466,0,0,0,.474,2.586,1.612,1.612,0,0,0,1.519.846,1.585,1.585,0,0,0,1.494-.811,5.335,5.335,0,0,0,.479-2.483Zm5.146,1.764.82-7.227h7.969V9.135H25.521l-.352,3.057a4.474,4.474,0,0,1,2.139-.537,4.1,4.1,0,0,1,3.184,1.26,5.032,5.032,0,0,1,1.152,3.525,5.155,5.155,0,0,1-.581,2.466A4.1,4.1,0,0,1,29.4,20.595a5.2,5.2,0,0,1-2.559.6,5.52,5.52,0,0,1-2.393-.522A4.244,4.244,0,0,1,22.7,19.2a4.006,4.006,0,0,1-.679-2.158h2.793a2.086,2.086,0,0,0,.62,1.382,1.966,1.966,0,0,0,1.392.493,1.735,1.735,0,0,0,1.475-.688,3.189,3.189,0,0,0,.518-1.948,2.637,2.637,0,0,0-.6-1.855,2.186,2.186,0,0,0-1.689-.645,2.443,2.443,0,0,0-1.631.527l-.273.254Z" transform="translate(1331.414 -8650)" fill="#12263f"/>
    <path id="equipo" d="M103.97,43.6H100.2l-5.616,2.955a8.337,8.337,0,0,0-2-.822l-7.065-1.768v-.8a11.776,11.776,0,0,0,5.032-9.624V30.607A12.048,12.048,0,0,0,79.176,18.451c-.319-.008-.632,0-.947.019l1.832-4.288L71.18,5.3,65.946,8.711a28.365,28.365,0,0,0-6.277-2.6L58.376,0H45.6L44.3,6.109a28.333,28.333,0,0,0-6.277,2.6L32.791,5.306l-8.873,8.873,1.8,4.291c-.069,0-.134-.016-.2-.017a11.743,11.743,0,0,0-12.1,11.732v3.354a11.772,11.772,0,0,0,5.031,9.622v.8l-4.608,1.152L5.485,40.246H0V74.995l16.5,5.5H19.71l.4-1.405,5.057,3.035A5.221,5.221,0,0,0,30.2,87.182a5.221,5.221,0,0,0,5.031,5.031,5.221,5.221,0,0,0,5.031,5.031,5.215,5.215,0,0,0,8.155,4.141L49.9,102.7a5.106,5.106,0,0,0,3.374,1.274h.31a5.106,5.106,0,0,0,5.1-5.037A5.1,5.1,0,0,0,63.717,93.9a5.1,5.1,0,0,0,5.031-5.036,5.157,5.157,0,0,0,5.037-5.145,4.912,4.912,0,0,0-.025-.5l30.21-15.1ZM87.2,30.607v2.931A8.417,8.417,0,0,1,83,40.795l-.838.485.007,5.307,8.378,2.093L72.108,58.386V53.868a8.344,8.344,0,0,0-2.4-5.844l5.755-1.438V41.276l-.837-.484a8.408,8.408,0,0,1-4.194-7.253V30.185a8.384,8.384,0,0,1,8.644-8.38,8.67,8.67,0,0,1,8.125,8.8ZM54.513,57.067l-7.591-2.426a20.709,20.709,0,0,0-10.745-.49l-.961.213v-.5a5.027,5.027,0,0,1,3.81-4.882l9.606-2.4V41.276l-.837-.484A8.408,8.408,0,0,1,43.6,33.539V30.185a8.384,8.384,0,0,1,8.644-8.38,8.67,8.67,0,0,1,8.125,8.8v2.931a8.417,8.417,0,0,1-4.2,7.256l-.838.485.007,5.307,9.6,2.4a5.027,5.027,0,0,1,3.81,4.882v6.284l-.414.218H67.312L57,57.423a10.571,10.571,0,0,0-2.489-.356ZM35.591,25.1a18.433,18.433,0,0,1,32.718-.135,11.663,11.663,0,0,0-1.232,5.222v3.354a11.772,11.772,0,0,0,5.031,9.622v.8L65.4,45.645l-6.709-1.679v-.8a11.776,11.776,0,0,0,5.032-9.624V30.607A12.048,12.048,0,0,0,52.345,18.451a11.741,11.741,0,0,0-12.1,11.734v3.354a11.772,11.772,0,0,0,5.031,9.622v.8l-6.708,1.679L31.86,43.965v-.8a11.776,11.776,0,0,0,5.032-9.624V30.607a12.36,12.36,0,0,0-1.3-5.509ZM27.879,14.956,33.236,9.6l4.716,3.069.9-.554A25.024,25.024,0,0,1,46.115,9.1l1.032-.247,1.167-5.5h7.343l1.164,5.5,1.032.246a25.048,25.048,0,0,1,7.261,3.012l.9.554L70.731,9.6l5.351,5.353L74.18,19.4a11.721,11.721,0,0,0-3.54,2.353c-.069.067-.128.139-.195.208a21.778,21.778,0,0,0-36.986.1,11.828,11.828,0,0,0-3.7-2.623ZM21.8,46.586V41.276l-.837-.484a8.408,8.408,0,0,1-4.194-7.253V30.185a8.384,8.384,0,0,1,8.644-8.38,8.67,8.67,0,0,1,8.125,8.8v2.931a8.417,8.417,0,0,1-4.2,7.256l-.838.485.007,5.307,5.754,1.438a8.344,8.344,0,0,0-2.4,5.844V55.11l-5.231,1.163.136-.475.064-3.1L17.987,47.54ZM3.354,43.6H4.576l12.06,7.034L10.551,74.976l-7.2-2.4ZM17.041,77.139l-3.3-1.1,5.912-23.645,3.825,2.23V55.1l-6.3,22.035Zm11.467,4.828a1.893,1.893,0,0,1,.55-1.33l2.948-2.948a1.881,1.881,0,0,1,2.66,2.66L31.717,83.3a1.881,1.881,0,0,1-3.21-1.33ZM33.538,87a1.893,1.893,0,0,1,.55-1.33l2.948-2.948a1.881,1.881,0,0,1,2.66,2.66l-2.948,2.948A1.881,1.881,0,0,1,33.538,87Zm5.031,5.031a1.893,1.893,0,0,1,.55-1.33l2.948-2.948a1.881,1.881,0,0,1,2.66,2.66l-2.948,2.948a1.881,1.881,0,0,1-3.21-1.33Zm6.911,6.911a1.881,1.881,0,0,1-1.33-3.21L47.1,92.782a1.881,1.881,0,0,1,2.66,2.66L46.81,98.389A1.893,1.893,0,0,1,45.48,98.939Zm8.11,1.677h-.31a1.738,1.738,0,0,1-1.155-.438l-1.254-1.106,1.259-1.259a5.214,5.214,0,0,0,1.056-1.558l1.525,1.269a1.749,1.749,0,0,1-1.12,3.093ZM68.628,85.524h-.29a1.8,1.8,0,0,1-1.154-.419l-9.094-7.578L55.942,80.1l8.831,7.358a1.75,1.75,0,0,1-1.122,3.093h-.366a1.749,1.749,0,0,1-1.118-.406l-9.108-7.59L50.91,85.136l8.831,7.359a1.748,1.748,0,0,1-1.12,3.09,2.77,2.77,0,0,1-1.765-.639l-3.743-3.12a5.216,5.216,0,0,0-4.5-2.931,5.221,5.221,0,0,0-5.031-5.031,5.221,5.221,0,0,0-5.031-5.031,5.222,5.222,0,0,0-8.914-3.517l-2.948,2.948a5.168,5.168,0,0,0-.47.574l-5.151-3.091,4.516-15.8L36.9,57.427a17.275,17.275,0,0,1,9,.407l2.47.79-8.375,4.187a5.59,5.59,0,0,0-3.1,5.024v.332A5.616,5.616,0,0,0,45.4,72.983l6.244-3.744a3.462,3.462,0,0,1,4.021.387L69.834,82.378a1.8,1.8,0,0,1-1.206,3.146Zm31.988-19.483L72.364,80.168c-.092-.1-.188-.19-.288-.28L57.91,67.136a6.748,6.748,0,0,0-7.992-.773l-6.247,3.746a2.262,2.262,0,0,1-3.424-1.942v-.332A2.25,2.25,0,0,1,41.5,65.811l9.354-4.677a7.288,7.288,0,0,1,5.226-.485l10.538,3.01,2.552.064,31.447-16.552Zm0,0" transform="translate(1301.612 -9077.055)" fill="#0b5e88"/>
    <g id="Grupo_877369" data-name="Grupo 877369" transform="translate(1299.414 -8808.649)" clip-path="url(#clip-path)">
      <path id="Trazado_602283" data-name="Trazado 602283" d="M99.507,67.294a1.686,1.686,0,0,0-.407.078L72.48,76.066a7.6,7.6,0,0,0-1.208-3.389,1.649,1.649,0,0,0-.73-.611L43.78,60.594a8.693,8.693,0,0,0-7.056.02L25.3,65.594v-.965a3.287,3.287,0,0,0-3.283-3.281H3.283A3.287,3.287,0,0,0,0,64.629V96.061a3.286,3.286,0,0,0,3.283,3.283H22.012A3.286,3.286,0,0,0,25.3,96.061V93.3l11.21-2.976a1.344,1.344,0,0,1,1.136.17l14.4,8.961a8.714,8.714,0,0,0,8.738.373l42.683-21.756a1.655,1.655,0,0,0,.318-.211A6,6,0,0,0,99.5,67.293ZM21.986,96.035H3.31V64.655H21.986Zm79.782-20.813L59.276,96.879a5.4,5.4,0,0,1-5.487-.234l-14.4-8.961a4.651,4.651,0,0,0-3.734-.558L25.3,89.875V69.2l12.751-5.555a5.318,5.318,0,0,1,4.431-.013L68.744,74.891a4.3,4.3,0,0,1-4.063,6.268L51.492,75.508a1.655,1.655,0,1,0-1.344,3.024l.041.017,13.435,5.758a1.626,1.626,0,0,0,.474.124,7.607,7.607,0,0,0,7.881-4.722L99.909,70.59a2.691,2.691,0,0,1,1.858,4.633ZM13.9,69.61v-.181a1.655,1.655,0,0,1,3.31,0v.181a1.655,1.655,0,1,1-3.31,0M99.469,42.877a1.656,1.656,0,0,0,1.344-1.629V33.526A1.656,1.656,0,0,0,99.469,31.9l-4.392-.839a22.948,22.948,0,0,0-2.048-4.94l2.512-3.7a1.655,1.655,0,0,0-.2-2.1l-5.462-5.463a1.655,1.655,0,0,0-2.1-.2l-3.7,2.517a22.948,22.948,0,0,0-4.94-2.048L78.3,10.736a1.656,1.656,0,0,0-1.629-1.344H68.95a1.656,1.656,0,0,0-1.629,1.344l-.839,4.392a22.948,22.948,0,0,0-4.94,2.048l-3.7-2.517a1.656,1.656,0,0,0-2.1.2l-5.463,5.463a1.655,1.655,0,0,0-.2,2.1l2.514,3.7a22.948,22.948,0,0,0-2.048,4.94l-4.392.839A1.656,1.656,0,0,0,44.8,33.53v7.726a1.656,1.656,0,0,0,1.344,1.629l4.392.839a22.948,22.948,0,0,0,2.048,4.94l-2.507,3.692a1.655,1.655,0,0,0,.2,2.1l5.459,5.465a1.655,1.655,0,0,0,2.1.2l3.7-2.514a22.949,22.949,0,0,0,5.977,2.311v5.3a1.655,1.655,0,0,0,1.655,1.655h8a1.655,1.655,0,0,0,1.655-1.655V59.739A22.951,22.951,0,0,0,84.079,57.6l3.7,2.519a1.655,1.655,0,0,0,2.1-.2l5.463-5.463a1.655,1.655,0,0,0,.2-2.1l-2.514-3.7a22.948,22.948,0,0,0,2.048-4.94Zm-23.95,5.956V63.557H70.834V49.076a1.654,1.654,0,0,0-1.18-1.585,10.954,10.954,0,0,1-2.13-20.08v8.16a5.654,5.654,0,1,0,11.3.3c0-.1,0-.2,0-.3V27.844A10.956,10.956,0,0,1,76.6,47.277a1.654,1.654,0,0,0-1.082,1.553Zm16.607-6.925a19.671,19.671,0,0,1-2.461,5.936,1.655,1.655,0,0,0,.037,1.8l2.334,3.436-3.526,3.529-3.437-2.334a1.655,1.655,0,0,0-1.8-.037,19.7,19.7,0,0,1-4.439,2.048V49.934a14.267,14.267,0,0,0-1.082-26.32,1.654,1.654,0,0,0-2.227,1.553v10.4a2.342,2.342,0,0,1-4.684,0V24.926a1.655,1.655,0,0,0-1.655-1.655,1.707,1.707,0,0,0-.476.07,14.266,14.266,0,0,0-1.183,26.906v6.259a19.674,19.674,0,0,1-5.165-2.265,1.655,1.655,0,0,0-1.8.037l-3.436,2.334-3.529-3.528,2.334-3.436a1.655,1.655,0,0,0,.037-1.8,19.688,19.688,0,0,1-2.46-5.933,1.654,1.654,0,0,0-1.3-1.25l-4.073-.779v-4.99l4.073-.779a1.654,1.654,0,0,0,1.3-1.249,19.66,19.66,0,0,1,2.459-5.933,1.655,1.655,0,0,0-.037-1.8l-2.334-3.437,3.529-3.522L60.552,20.5a1.655,1.655,0,0,0,1.8.037,19.691,19.691,0,0,1,5.933-2.461,1.654,1.654,0,0,0,1.25-1.3l.779-4.073h4.99l.779,4.073a1.654,1.654,0,0,0,1.249,1.3,19.688,19.688,0,0,1,5.933,2.46,1.655,1.655,0,0,0,1.8-.037l3.437-2.333L92.035,21.7,89.7,25.133a1.655,1.655,0,0,0-.037,1.8,19.691,19.691,0,0,1,2.461,5.933,1.654,1.654,0,0,0,1.3,1.25L97.5,34.9v4.99l-4.073.779a1.654,1.654,0,0,0-1.3,1.25Z" transform="translate(0 0.172)" fill="#0b5e88"/>
      <path id="Trazado_602284" data-name="Trazado 602284" d="M21.324,54.148H1.75V0H21.324ZM4.805,51.093H18.269V3.055H4.805Z" transform="translate(0.032 0)" fill="#0b5e88"/>
      <path id="Trazado_602285" data-name="Trazado 602285" d="M41.658,53.815H26.277V18.141H41.658ZM29.331,50.76H38.6V21.2H29.331Z" transform="translate(0.482 0.333)" fill="#0b5e88"/>
    </g>
    <path id="Trazado_602286" data-name="Trazado 602286" d="M85.4,408a5.4,5.4,0,1,0,5.4,5.4A5.4,5.4,0,0,0,85.4,408Zm0,7.2a1.8,1.8,0,1,1,1.8-1.8,1.8,1.8,0,0,1-1.8,1.8Z" transform="translate(1474.301 -9135.32)" fill="#0b5e88"/>
    <path id="Trazado_602726" data-name="Trazado 602726" d="M1.8,0A1.8,1.8,0,1,1,0,1.8,1.8,1.8,0,0,1,1.8,0Z" transform="translate(1590.286 -8779.499)" fill="#0b5e88"/>
    <path id="Trazado_602287" data-name="Trazado 602287" d="M236.887,210.343l-2.545,2.545a7.89,7.89,0,0,0,5.616,2.326h4.653v-3.6h-4.653A4.314,4.314,0,0,1,236.887,210.343Z" transform="translate(1354.671 -8982.118)" fill="#0b5e88"/>
    <path id="Trazado_602727" data-name="Trazado 602727" d="M1.8,0A1.8,1.8,0,1,1,0,1.8,1.8,1.8,0,0,1,1.8,0Z" transform="translate(1597.483 -8779.499)" fill="#0b5e88"/>
    <path id="Trazado_602288" data-name="Trazado 602288" d="M120.6,162.073l3.217-7.812a1.8,1.8,0,0,0-.972-2.346L108.4,145.9l-6.2-9.3a14.365,14.365,0,0,0-11.977-6.41H80.3a12.521,12.521,0,0,0,2.268-7.2V107.907l.145-.072A6.247,6.247,0,0,0,79.923,96H68.178a10.808,10.808,0,0,0-10.8,10.8v16.193a12.521,12.521,0,0,0,2.268,7.2H49.729a14.365,14.365,0,0,0-11.977,6.41L24.033,157.174H17.8a1.8,1.8,0,0,0-1.694,2.4l9,25.189a1.8,1.8,0,0,0,1.694,1.194H71.777a5.4,5.4,0,0,0,5.4-5.4v-3.6a1.8,1.8,0,0,0-1.8-1.8H52.482l-.5-1.391v-27.4a1.8,1.8,0,0,0-3.263-1.046l-8.458,11.841H28.358l12.389-18.583a10.774,10.774,0,0,1,8.983-4.807h8.234l3.146,7.865a1.8,1.8,0,0,0,2.943.6l1.833-1.833.421.842-3.5,21.014a1.8,1.8,0,0,0,.5,1.568l5.4,5.4a1.8,1.8,0,0,0,2.545,0l5.4-5.4a1.8,1.8,0,0,0,.5-1.568l-3.5-21.014.421-.842,1.833,1.833a1.8,1.8,0,0,0,2.943-.6l3.146-7.865h8.234a10.774,10.774,0,0,1,8.983,4.807l3.207,4.81-1.158-.482a1.8,1.8,0,0,0-2.369,1.009l-3.052,7.849-4.6-6.443a1.8,1.8,0,0,0-3.263,1.046V172l-1.677,4.312a1.8,1.8,0,0,0,1.108,2.359l.569.19v7.1h3.6v-5.9l17.423,5.808a1.8,1.8,0,0,0,2.233-1.022l2.5-6.083h3.029a7.205,7.205,0,0,0,7.2-7.2v-5.4a1.8,1.8,0,0,0-.527-1.272ZM73.576,178.765v1.8a1.8,1.8,0,0,1-1.8,1.8H55.052l-1.285-3.6ZM48.386,151.993V163.7l-1.9-5.331a1.8,1.8,0,0,0-1.694-1.194h-.1Zm-4.867,8.779,7.711,21.591H28.063l-7.711-21.591ZM60.981,106.8a7.205,7.205,0,0,1,7.2-7.2H79.923a2.649,2.649,0,0,1,1.184,5.018l-.76.38H68.178a1.8,1.8,0,0,0-1.272.527l-5.925,5.925Zm2.456,30.984-1.6-4H63.5a12.538,12.538,0,0,0,2.712,1.223Zm6.54,27.646-3.471-3.471,3.2-19.174h.55l3.2,19.174Zm-1.409-27.687,1.409-1.409,1.409,1.409-.722,1.444H69.29Zm7.949.042-2.772-2.773a12.536,12.536,0,0,0,2.712-1.223h1.658Zm2.456-14.791a9,9,0,1,1-17.992,0v-6.452l7.942-7.942h10.05Zm12.595,29,2.708,3.791-2.708,6.964Zm16.968,29.932-18.2-6.068,11.242-28.907,18.236,7.6-2.038,4.949a4.345,4.345,0,0,0-6.412,3.821v1.054h-5.4a1.8,1.8,0,0,0-1.8,1.8v7.2a5.4,5.4,0,0,0,5.4,5.4h.277Zm11.82-10.357a3.6,3.6,0,0,1-3.6,3.6h-7.2a1.8,1.8,0,0,1-1.8-1.8v-5.4h5.4a1.8,1.8,0,0,0,1.8-1.8v-2.853a.745.745,0,0,1,1.272-.527l4.126,4.125Z" transform="translate(1523.907 -8893.491)" fill="#0b5e88"/>
    <path id="Trazado_602289" data-name="Trazado 602289" d="M28.8,78.024l3.175-1.694L26.024,65.177l11.1-5.55,4.291,7.635L44.552,65.5,37.585,53.105V47.168a3.545,3.545,0,0,0-5.4-3.023V37.594a1.8,1.8,0,0,0-1.8-1.8h-1.8v-1.98a9,9,0,1,0-3.6,0v1.98h-1.8a1.8,1.8,0,0,0-1.8,1.8v4.528l-.244.146a10.616,10.616,0,0,0-3.9,14.1ZM21.392,25a5.4,5.4,0,1,1,5.4,5.4,5.4,5.4,0,0,1-5.4-5.4Zm3.6,14.394h3.6V47.52a7.243,7.243,0,0,0-1.476,2.636,1.782,1.782,0,0,1-2.122-1.767Zm-3.6,7.3v1.7a5.4,5.4,0,0,0,5.4,5.4v1.589h3.6v-3.1a3.616,3.616,0,0,1,1.1-2.595l2.494-2.4v6.29a1.8,1.8,0,0,0,.231.882l1.141,2.03L24.329,62l-3.91-7.327A7,7,0,0,1,21.392,46.689Z" transform="translate(1523.912 -8831.486)" fill="#0b5e88"/>
    <path id="Trazado_602290" data-name="Trazado 602290" d="M380.413,106.728l2.131,2.9a11,11,0,0,0,3.073-3.46l10.605-18.715a10.472,10.472,0,0,0-.309-10.838l-.128.083V61.4a5.4,5.4,0,0,0-5.4-5.4h-7.2a5.4,5.4,0,0,0-5.4,5.4V75.086a3.489,3.489,0,0,0-.6.424,3.551,3.551,0,0,0-1.2,2.66v5.937L369.026,96.5l3.137,1.763,4.291-7.635,10.778,5.389-4.747,8.376A7.414,7.414,0,0,1,380.413,106.728ZM383.19,59.6h1.8a1.8,1.8,0,1,0,3.6,0h1.8a1.8,1.8,0,0,1,1.8,1.8V77.591a1.8,1.8,0,0,1-1.8,1.8h-4.744a7.149,7.149,0,0,0-1.065-1.3L382,75.611a3.49,3.49,0,0,0-.609-.465V61.4A1.8,1.8,0,0,1,383.19,59.6Zm-4.97,27.89,1.141-2.029a1.8,1.8,0,0,0,.231-.882v-6.29l2.494,2.4a3.616,3.616,0,0,1,1.1,2.595v3.1h3.6v-3.1c0-.1,0-.193-.007-.289h3.606a5.374,5.374,0,0,0,3.564-1.349c.021.216.035.433.035.651a6.886,6.886,0,0,1-.893,3.389l-4.082,7.2Z" transform="translate(1250.278 -8862.487)" fill="#0b5e88"/>
    <g id="Grupo_877370" data-name="Grupo 877370" transform="translate(1544.862 -8513)" clip-path="url(#clip-path-2)">
      <path id="Trazado_602291" data-name="Trazado 602291" d="M104.451,22.558h0a.088.088,0,0,1-.011-.029,1.289,1.289,0,0,1-.043-.192c0-.008,0-.016,0-.023a2.694,2.694,0,0,0-.112-.548,2.831,2.831,0,0,0-.212-.52,1.133,1.133,0,0,1-.084-.212c0-.011-.006-.022-.01-.033L90.8,1.233A2.789,2.789,0,0,0,88.485,0H15.968a2.782,2.782,0,0,0-2.315,1.242L.475,21.008c0,.011-.007.022-.011.034a1.26,1.26,0,0,1-.076.2,2.827,2.827,0,0,0-.218.532,2.641,2.641,0,0,0-.112.549c0,.009,0,.018,0,.027a1.306,1.306,0,0,1-.043.183A.453.453,0,0,0,0,22.576V98.371a6.084,6.084,0,0,0,6.077,6.077H98.374a6.085,6.085,0,0,0,6.077-6.077ZM62.315,5.744a.515.515,0,0,1,.393-.182h24.01a.515.515,0,0,1,.429.229l8.794,13.185a.515.515,0,0,1-.429.8H64.91a.515.515,0,0,1-.508-.43L62.2,6.161a.515.515,0,0,1,.115-.418m-16.6,13.433,2.2-13.185a.515.515,0,0,1,.508-.431h7.6a.515.515,0,0,1,.508.43l2.2,13.185a.515.515,0,0,1-.508.6h-12a.515.515,0,0,1-.508-.6m-.6,6.677a.515.515,0,0,1,.515-.515H58.819a.515.515,0,0,1,.515.515V37.766a.515.515,0,0,1-.679.488L53.1,36.4a2.9,2.9,0,0,0-1.761,0L45.8,38.255a.515.515,0,0,1-.679-.488ZM8.512,18.976,17.306,5.791a.515.515,0,0,1,.428-.229h24.01a.515.515,0,0,1,.508.6l-2.2,13.185a.515.515,0,0,1-.508.43H8.94a.515.515,0,0,1-.429-.8M98.75,98.73a.516.516,0,0,1-.37.157H6.079a.515.515,0,0,1-.515-.515V25.854a.515.515,0,0,1,.515-.515H39.041a.515.515,0,0,1,.515.515V42.335a2.761,2.761,0,0,0,1.154,2.25,2.816,2.816,0,0,0,2.517.389l8.835-2.95a.517.517,0,0,1,.326,0l8.847,2.947a2.785,2.785,0,0,0,3.66-2.636V25.854a.515.515,0,0,1,.515-.515H98.374a.515.515,0,0,1,.515.515v72.3l.006.2a.516.516,0,0,1-.145.375" transform="translate(0 0.001)" fill="#0b5e88"/>
    </g>
    <path id="Trazado_602292" data-name="Trazado 602292" d="M286.324,249.678H246.008a2.338,2.338,0,0,1,0-4.676h40.316a2.338,2.338,0,1,1,0,4.676" transform="translate(1313.476 -8677.451)" fill="#0b5e88"/>
    <path id="Trazado_602293" data-name="Trazado 602293" d="M286.324,249.678H246.008a2.338,2.338,0,0,1,0-4.676h40.316a2.338,2.338,0,1,1,0,4.676" transform="translate(1313.476 -8688.451)" fill="#0b5e88"/>
    <g id="Grupo_877372" data-name="Grupo 877372" transform="translate(1355.934 -8463.089)">
      <circle id="Elipse_5639" data-name="Elipse 5639" cx="2.456" cy="2.456" r="2.456" transform="translate(0 0)" fill="#0b5e88"/>
    </g>
    <g id="Grupo_877373" data-name="Grupo 877373" transform="translate(1331.38 -8497.467)">
      <path id="Trazado_602294" data-name="Trazado 602294" d="M63.719,142.1l4.911,4.911a2.453,2.453,0,0,0,3.472,0l9.822-9.822a2.455,2.455,0,1,0-3.472-3.472L70.366,141.8l-3.175-3.175a2.455,2.455,0,0,0-3.472,3.472Z" transform="translate(-63 -133)" fill="#0b5e88" fill-rule="evenodd"/>
    </g>
    <g id="Grupo_877374" data-name="Grupo 877374" transform="translate(1331.38 -8472.91)">
      <path id="Trazado_602295" data-name="Trazado 602295" d="M63.719,142.1l4.911,4.911a2.453,2.453,0,0,0,3.472,0l9.822-9.822a2.455,2.455,0,1,0-3.472-3.472L70.366,141.8l-3.175-3.175a2.455,2.455,0,0,0-3.472,3.472Z" transform="translate(-63 -133)" fill="#0b5e88" fill-rule="evenodd"/>
    </g>
    <g id="Grupo_877375" data-name="Grupo 877375" transform="translate(1355.934 -8497.468)">
      <path id="Trazado_602296" data-name="Trazado 602296" d="M75.456,139.911h24.556a2.456,2.456,0,1,0,0-4.911H75.456a2.456,2.456,0,1,0,0,4.911Z" transform="translate(-73 -135)" fill="#0b5e88" fill-rule="evenodd"/>
    </g>
    <g id="Grupo_877376" data-name="Grupo 877376" transform="translate(1355.934 -8472.912)">
      <path id="Trazado_602297" data-name="Trazado 602297" d="M75.456,139.911h9.918a2.456,2.456,0,1,0,0-4.911H75.456a2.456,2.456,0,1,0,0,4.911Z" transform="translate(-73 -135)" fill="#0b5e88" fill-rule="evenodd"/>
    </g>
    <g id="Grupo_877377" data-name="Grupo 877377" transform="translate(1355.934 -8487.646)">
      <path id="Trazado_602298" data-name="Trazado 602298" d="M75.456,143.911H90.189a2.456,2.456,0,0,0,0-4.911H75.456a2.456,2.456,0,0,0,0,4.911Z" transform="translate(-73 -139)" fill="#0b5e88" fill-rule="evenodd"/>
    </g>
    <g id="Grupo_877378" data-name="Grupo 877378" transform="translate(1316.645 -8512.201)">
      <path id="Trazado_602299" data-name="Trazado 602299" d="M61.911,166.745V131.139a1.224,1.224,0,0,1,1.228-1.228h6.235a2.456,2.456,0,1,0,0-4.911H63.139A6.137,6.137,0,0,0,57,131.139v35.606a2.456,2.456,0,1,0,4.911,0Z" transform="translate(-57 -125)" fill="#0b5e88" fill-rule="evenodd"/>
    </g>
    <path id="Trazado_602300" data-name="Trazado 602300" d="M238.371,58.822V56.367a7.367,7.367,0,1,0-14.734,0v2.456H211.456a2.456,2.456,0,0,0,0,4.911H266.61a1.228,1.228,0,0,1,1.228,1.228l.1,11.072a2.456,2.456,0,0,0,4.911-.044l-.1-11.05a6.141,6.141,0,0,0-6.139-6.117Zm-4.911-2.456a2.456,2.456,0,1,0-4.911,0v2.456h4.911Z" transform="translate(1127.385 -8571.023)" fill="#0b5e88" fill-rule="evenodd"/>
    <g id="Grupo_877379" data-name="Grupo 877379" transform="translate(1346.208 -8433.622)">
      <path id="Trazado_602301" data-name="Trazado 602301" d="M118.151,159.441l-.1,15.976a1.224,1.224,0,0,1-1.228,1.228H71.495a2.456,2.456,0,1,0,0,4.911h45.333a6.137,6.137,0,0,0,6.139-6.139c0,.015.1-15.947.1-15.947a2.456,2.456,0,0,0-4.911-.029Z" transform="translate(-69.039 -157)" fill="#0b5e88" fill-rule="evenodd"/>
    </g>
    <path id="Trazado_602302" data-name="Trazado 602302" d="M203.208,102.634a12.28,12.28,0,0,0-10.247,12.111v6.139a6.138,6.138,0,0,0,6.139,6.139h31.923a6.14,6.14,0,0,0,6.139-6.139v-6.139a12.283,12.283,0,0,0-10.25-12.111,17.188,17.188,0,1,0-23.7,0Zm24.131,19.478h3.683a1.228,1.228,0,0,0,1.228-1.228v-6.139a7.366,7.366,0,0,0-7.367-7.367H205.239a7.366,7.366,0,0,0-7.367,7.367v6.139a1.228,1.228,0,0,0,1.228,1.228h3.683v-7.367a2.456,2.456,0,1,1,4.911,0v7.367h14.734v-7.367a2.456,2.456,0,1,1,4.911,0Zm-12.278-44.2a12.278,12.278,0,1,1-12.278,12.278A12.284,12.284,0,0,1,215.061,77.911Z" transform="translate(1104.039 -8536.089)" fill="#0b5e88" fill-rule="evenodd"/>
    <path id="Trazado_602303" data-name="Trazado 602303" d="M261.664,64.8c-2.831,2.831-47.891,48.137-47.891,48.137a2.45,2.45,0,0,0-.712,1.729v9.822a2.453,2.453,0,0,0,2.456,2.456h9.822a2.455,2.455,0,0,0,1.741-.724s22.52-22.668,37.44-37.654l.678.678a1.23,1.23,0,0,1,0,1.736l-9.525,9.525a6.139,6.139,0,0,0,0,8.681c1.176,1.176,2.308,2.306,2.308,2.306a2.455,2.455,0,1,0,3.472-3.472l-2.308-2.306a1.23,1.23,0,0,1,0-1.736l9.525-9.525a6.139,6.139,0,0,0,0-8.68l-.683-.685c2.876-2.888,5.3-5.316,6.971-6.991a6.139,6.139,0,0,0,0-8.68L270.345,64.8A6.139,6.139,0,0,0,261.664,64.8ZM249.9,83.563l6.35,6.35c-12.8,12.862-28.426,28.59-31.93,32.117h-6.345v-6.353C221.462,112.163,237.091,96.433,249.9,83.563Zm9.815,2.868-6.35-6.348c4.97-4.992,9.235-9.275,11.774-11.814a1.229,1.229,0,0,1,1.736,0l4.614,4.614a1.229,1.229,0,0,1,0,1.736C268.945,77.159,264.68,81.441,259.712,86.431Z" transform="translate(1133.296 -8550.646)" fill="#0b5e88" fill-rule="evenodd"/>
    <g id="Grupo_877380" data-name="Grupo 877380" transform="translate(1301.612 -9366.379)" clip-path="url(#clip-path-3)">
      <path id="Trazado_602304" data-name="Trazado 602304" d="M108.462,150.294H63.016a2.149,2.149,0,0,1-2.111-2.185V98.83a2.149,2.149,0,0,1,2.111-2.185h74.678a2.149,2.149,0,0,1,2.11,2.185V138.8a2.109,2.109,0,0,1-4.215.158,2.81,2.81,0,0,0-2.754-2.646,2.664,2.664,0,0,0-2.764,2.862,2.112,2.112,0,1,1-4.221,0V114.9a2.819,2.819,0,0,0-2.766-2.864,2.754,2.754,0,0,0-2.764,2.864V139.95a2.112,2.112,0,1,1-4.221,0,7.889,7.889,0,0,0-5.527-7.6v15.761a2.149,2.149,0,0,1-2.11,2.185m-43.336-4.371h41.226V129.855a2.149,2.149,0,0,1,2.11-2.185,11.567,11.567,0,0,1,7.638,2.893V114.9a7.037,7.037,0,0,1,6.984-7.235,7.122,7.122,0,0,1,6.986,7.235v17.581a7.09,7.09,0,0,1,2.764-.547,6.718,6.718,0,0,1,2.749.588V101.016H65.126Z" transform="translate(-51.265 -80.804)" fill="#0b5e88"/>
      <path id="Trazado_602305" data-name="Trazado 602305" d="M237.321,470.9H208.453a2.149,2.149,0,0,1-2.111-2.185v-10.8a2.149,2.149,0,0,1,2.111-2.185h23.1a2.129,2.129,0,0,1,2.065,1.733c.637,3.119,1.733,4.68,3.548,7.267.355.506.723,1.03,1.116,1.607l.761,1.117a2.251,2.251,0,0,1,.15,2.266,2.1,2.1,0,0,1-1.874,1.18m-26.757-4.371h22.651a20.872,20.872,0,0,1-3.3-6.428H210.564Z" transform="translate(-173.683 -381.028)" fill="#0b5e88"/>
      <path id="Trazado_602306" data-name="Trazado 602306" d="M57.873,111.011H9.315A9.531,9.531,0,0,1,0,101.3V47.918A9.531,9.531,0,0,1,9.315,38.2H39.835a2.187,2.187,0,0,1,0,4.371H9.315a5.229,5.229,0,0,0-5.094,5.343V101.3a5.229,5.229,0,0,0,5.094,5.343H55.371a35.546,35.546,0,0,1-.284-4.482V80.993a2.149,2.149,0,0,1,2.11-2.185A11.566,11.566,0,0,1,64.835,81.7V66.039A7.037,7.037,0,0,1,71.819,58.8a7.122,7.122,0,0,1,6.987,7.235V83.621a7.086,7.086,0,0,1,2.764-.547,6.954,6.954,0,0,1,5.9,3.375,6.81,6.81,0,0,1,6.608-.619V47.918a5.23,5.23,0,0,0-5.1-5.343H58.489a2.187,2.187,0,0,1,0-4.371H88.984A9.532,9.532,0,0,1,98.3,47.918V92.311A2.15,2.15,0,0,1,96.225,94.5h-.036a2.146,2.146,0,0,1-2.109-2.113,2.764,2.764,0,1,0-5.527.1,2.112,2.112,0,1,1-4.221,0V90.307c0-.07,0-.13-.006-.18,0-.012,0-.024,0-.036a2.81,2.81,0,0,0-2.754-2.646,2.664,2.664,0,0,0-2.764,2.862,2.112,2.112,0,1,1-4.221,0V66.039a2.82,2.82,0,0,0-2.766-2.864,2.754,2.754,0,0,0-2.764,2.864V91.088a2.112,2.112,0,1,1-4.221,0,7.889,7.889,0,0,0-5.527-7.6v18.672a30.973,30.973,0,0,0,.63,6.213,2.244,2.244,0,0,1-.424,1.83,2.083,2.083,0,0,1-1.64.81" transform="translate(0 -31.942)" fill="#0b5e88"/>
      <path id="Trazado_602307" data-name="Trazado 602307" d="M150,535.425H99.02a2.149,2.149,0,0,1-2.111-2.185v-4.286A7.231,7.231,0,0,1,104,521.609h41.2a2.089,2.089,0,0,1,1.724.925l2.748,4.033a14.691,14.691,0,0,1,2.416,6.385,2.238,2.238,0,0,1-.5,1.727,2.08,2.08,0,0,1-1.587.745m-48.874-4.371h46.143a10.105,10.105,0,0,0-1.042-1.966l-2.117-3.108H104a2.929,2.929,0,0,0-2.874,2.974Z" transform="translate(-81.57 -436.112)" fill="#0b5e88"/>
      <path id="Trazado_602308" data-name="Trazado 602308" d="M390.442,242.661a2.149,2.149,0,0,1-2.11-2.185v-4.753a14.86,14.86,0,0,1,1.447-6.386l3.978-8.3c2.145-4.474,3.019-6.734,3.019-11.139V202.41a2.766,2.766,0,1,0-5.528,0,2.112,2.112,0,1,1-4.221,0v-4.841a2.766,2.766,0,1,0-5.529,0,2.112,2.112,0,1,1-4.221,0v-2.177a2.818,2.818,0,0,0-2.764-2.862,2.665,2.665,0,0,0-2.764,2.862,2.112,2.112,0,1,1-4.221,0V171.123a2.818,2.818,0,0,0-2.764-2.862A2.754,2.754,0,0,0,362,171.123v25.05a2.112,2.112,0,1,1-4.221,0,7.89,7.89,0,0,0-5.529-7.6v18.673c0,6.155,1.86,10.052,5.293,15.09l3.51,5.15a14.64,14.64,0,0,1,2.537,8.28v4.713a2.112,2.112,0,1,1-4.221,0v-4.713A10.184,10.184,0,0,0,357.6,230l-3.509-5.15c-3.842-5.637-6.066-10.326-6.066-17.61V186.077a2.149,2.149,0,0,1,2.11-2.186,11.57,11.57,0,0,1,7.639,2.894V171.123a7.037,7.037,0,0,1,6.985-7.233,7.121,7.121,0,0,1,6.985,7.233v17.582a7.088,7.088,0,0,1,2.764-.547,6.935,6.935,0,0,1,5.9,3.373,6.776,6.776,0,0,1,3.844-1.2,7.051,7.051,0,0,1,6.788,5.524,6.746,6.746,0,0,1,2.961-.683A7.12,7.12,0,0,1,401,202.41V209.9c0,5.474-1.307,8.594-3.459,13.083l-3.978,8.3a10.338,10.338,0,0,0-1.006,4.443v4.753a2.149,2.149,0,0,1-2.11,2.185" transform="translate(-292.943 -137.027)" fill="#0b5e88"/>
      <path id="Trazado_602309" data-name="Trazado 602309" d="M411.733,359.44a2.149,2.149,0,0,1-2.11-2.185V349.7a2.112,2.112,0,1,1,4.221,0v7.556a2.149,2.149,0,0,1-2.11,2.185" transform="translate(-344.788 -290.552)" fill="#0b5e88"/>
      <path id="Trazado_602310" data-name="Trazado 602310" d="M411.733,359.44a2.149,2.149,0,0,1-2.11-2.185V349.7a2.112,2.112,0,1,1,4.221,0v7.556a2.149,2.149,0,0,1-2.11,2.185" transform="translate(-344.788 -290.552)" fill="#0b5e88"/>
      <path id="Trazado_602311" data-name="Trazado 602311" d="M411.733,359.44a2.149,2.149,0,0,1-2.11-2.185V349.7a2.112,2.112,0,1,1,4.221,0v7.556a2.149,2.149,0,0,1-2.11,2.185" transform="translate(-344.788 -290.552)" fill="#0b5e88"/>
      <path id="Trazado_602312" data-name="Trazado 602312" d="M411.733,359.44a2.149,2.149,0,0,1-2.11-2.185V349.7a2.112,2.112,0,1,1,4.221,0v7.556a2.149,2.149,0,0,1-2.11,2.185" transform="translate(-344.788 -290.552)" fill="#0b5e88"/>
      <path id="Trazado_602313" data-name="Trazado 602313" d="M411.733,359.44a2.149,2.149,0,0,1-2.11-2.185V349.7a2.112,2.112,0,1,1,4.221,0v7.556a2.149,2.149,0,0,1-2.11,2.185" transform="translate(-344.788 -290.552)" fill="#0b5e88"/>
      <path id="Trazado_602314" data-name="Trazado 602314" d="M411.733,359.44a2.149,2.149,0,0,1-2.11-2.185V349.7a2.112,2.112,0,1,1,4.221,0v7.556a2.149,2.149,0,0,1-2.11,2.185" transform="translate(-344.788 -290.552)" fill="#0b5e88"/>
      <path id="Trazado_602315" data-name="Trazado 602315" d="M411.733,359.44a2.149,2.149,0,0,1-2.11-2.185V349.7a2.112,2.112,0,1,1,4.221,0v7.556a2.149,2.149,0,0,1-2.11,2.185" transform="translate(-344.788 -290.552)" fill="#0b5e88"/>
      <path id="Trazado_602316" data-name="Trazado 602316" d="M411.733,359.44a2.149,2.149,0,0,1-2.11-2.185V349.7a2.112,2.112,0,1,1,4.221,0v7.556a2.149,2.149,0,0,1-2.11,2.185" transform="translate(-344.788 -290.552)" fill="#0b5e88"/>
      <path id="Trazado_602317" data-name="Trazado 602317" d="M411.733,359.44a2.149,2.149,0,0,1-2.11-2.185V349.7a2.112,2.112,0,1,1,4.221,0v7.556a2.149,2.149,0,0,1-2.11,2.185" transform="translate(-344.788 -290.552)" fill="#0b5e88"/>
      <path id="Trazado_602318" data-name="Trazado 602318" d="M411.733,359.44a2.149,2.149,0,0,1-2.11-2.185V349.7a2.112,2.112,0,1,1,4.221,0v7.556a2.149,2.149,0,0,1-2.11,2.185" transform="translate(-344.788 -290.552)" fill="#0b5e88"/>
      <path id="Trazado_602319" data-name="Trazado 602319" d="M137.79,177.415h-4.9a2.187,2.187,0,0,1,0-4.371h4.9a2.187,2.187,0,0,1,0,4.371" transform="translate(-110.08 -144.681)" fill="#0b5e88"/>
      <path id="Trazado_602320" data-name="Trazado 602320" d="M244.242,177.415h-20.28a2.187,2.187,0,0,1,0-4.371h20.28a2.187,2.187,0,0,1,0,4.371" transform="translate(-186.737 -144.681)" fill="#0b5e88"/>
      <path id="Trazado_602321" data-name="Trazado 602321" d="M137.79,251.238h-4.9a2.187,2.187,0,0,1,0-4.371h4.9a2.187,2.187,0,0,1,0,4.371" transform="translate(-110.08 -206.403)" fill="#0b5e88"/>
      <path id="Trazado_602322" data-name="Trazado 602322" d="M234.983,251.238h-11.02a2.187,2.187,0,0,1,0-4.371h11.02a2.187,2.187,0,0,1,0,4.371" transform="translate(-186.737 -206.403)" fill="#0b5e88"/>
      <path id="Trazado_602323" data-name="Trazado 602323" d="M137.79,325.062h-4.9a2.187,2.187,0,0,1,0-4.371h4.9a2.187,2.187,0,0,1,0,4.371" transform="translate(-110.08 -268.127)" fill="#0b5e88"/>
      <path id="Trazado_602324" data-name="Trazado 602324" d="M234.983,325.062h-11.02a2.187,2.187,0,0,1,0-4.371h11.02a2.187,2.187,0,0,1,0,4.371" transform="translate(-186.737 -268.127)" fill="#0b5e88"/>
      <path id="Trazado_602325" data-name="Trazado 602325" d="M300.24,42.574a1.779,1.779,0,0,1-.207-.011c-.068-.007-.136-.018-.2-.031a2.084,2.084,0,0,1-.394-.125,2.106,2.106,0,0,1-.366-.2c-.057-.039-.112-.082-.166-.126s-.106-.1-.154-.144a1.892,1.892,0,0,1-.139-.161,1.872,1.872,0,0,1-.123-.172,2.231,2.231,0,0,1-.315-.787c-.013-.07-.024-.141-.03-.211a1.982,1.982,0,0,1-.011-.215,1.94,1.94,0,0,1,.011-.215c.006-.072.017-.143.03-.213a2.239,2.239,0,0,1,.315-.785A1.9,1.9,0,0,1,298.61,39a2.167,2.167,0,0,1,.293-.3,2.056,2.056,0,0,1,.166-.128,2.149,2.149,0,0,1,.76-.326c.068-.013.136-.025.2-.031a1.963,1.963,0,0,1,.416,0c.068.007.136.018.2.031a2.182,2.182,0,0,1,.76.326,2.051,2.051,0,0,1,.166.128c.054.046.1.093.154.144a1.864,1.864,0,0,1,.139.159,1.9,1.9,0,0,1,.123.174,2.239,2.239,0,0,1,.315.785c.013.07.024.141.03.213a1.94,1.94,0,0,1,.011.215,1.982,1.982,0,0,1-.011.215c-.006.07-.017.141-.03.211A2.231,2.231,0,0,1,302,41.6a2.309,2.309,0,0,1-.263.333c-.049.049-.1.1-.154.144s-.109.087-.166.126a2.107,2.107,0,0,1-.366.2,2.084,2.084,0,0,1-.394.125c-.068.013-.136.025-.2.031a1.786,1.786,0,0,1-.209.011" transform="translate(-250.942 -31.941)" fill="#0b5e88"/>
    </g>
    <path id="Trazado_602728" data-name="Trazado 602728" d="M18.3,12.762H13.517V16h5.611v2h-8.1V5.914h8.085V7.931H13.517v2.88H18.3Zm4.341-3.744.075,1.038a3.136,3.136,0,0,1,2.582-1.2,2.606,2.606,0,0,1,2.125.838,3.912,3.912,0,0,1,.714,2.507V18h-2.4V12.256a1.556,1.556,0,0,0-.332-1.108,1.486,1.486,0,0,0-1.1-.344,1.65,1.65,0,0,0-1.519.863V18h-2.4V9.019ZM33.314,15.07l1.668-6.051H37.49L34.46,18H32.169l-3.03-8.981h2.507ZM41.075,18H38.668V9.019h2.407ZM38.527,6.694a1.181,1.181,0,0,1,.361-.888,1.556,1.556,0,0,1,1.963,0,1.175,1.175,0,0,1,.365.888,1.178,1.178,0,0,1-.369.9,1.539,1.539,0,0,1-1.951,0A1.178,1.178,0,0,1,38.527,6.694ZM48.256,18a2.664,2.664,0,0,1-.241-.805,2.9,2.9,0,0,1-2.266.971,3.189,3.189,0,0,1-2.187-.764,2.456,2.456,0,0,1-.867-1.926,2.538,2.538,0,0,1,1.058-2.191,5.222,5.222,0,0,1,3.059-.772h1.1V12a1.48,1.48,0,0,0-.32-1,1.257,1.257,0,0,0-1.009-.374,1.429,1.429,0,0,0-.95.291.987.987,0,0,0-.344.8h-2.4a2.41,2.41,0,0,1,.481-1.444A3.182,3.182,0,0,1,44.736,9.23a4.961,4.961,0,0,1,1.976-.378,3.92,3.92,0,0,1,2.635.834,2.918,2.918,0,0,1,.975,2.345v3.893a4.294,4.294,0,0,0,.357,1.934V18Zm-1.984-1.668a2.066,2.066,0,0,0,.979-.237,1.554,1.554,0,0,0,.664-.635V13.916h-.9q-1.8,0-1.917,1.245l-.008.141a.96.96,0,0,0,.315.739A1.225,1.225,0,0,0,46.272,16.332Zm10.94-5.063a6.517,6.517,0,0,0-.863-.066,1.757,1.757,0,0,0-1.785.921V18h-2.4V9.019h2.266l.066,1.071a2.223,2.223,0,0,1,2-1.237,2.514,2.514,0,0,1,.747.108Zm13.472,2.324a5.387,5.387,0,0,1-.942,3.324A3.021,3.021,0,0,1,67.2,18.166,2.8,2.8,0,0,1,65,17.22v4.233H62.6V9.019h2.225l.083.88a2.819,2.819,0,0,1,2.274-1.046,3.041,3.041,0,0,1,2.582,1.229,5.532,5.532,0,0,1,.921,3.387Zm-2.4-.174a3.535,3.535,0,0,0-.444-1.934,1.446,1.446,0,0,0-1.291-.681A1.571,1.571,0,0,0,65,11.667v3.677a1.6,1.6,0,0,0,1.569.888Q68.285,16.232,68.285,13.418ZM77.375,18a2.664,2.664,0,0,1-.241-.805,2.9,2.9,0,0,1-2.266.971,3.189,3.189,0,0,1-2.187-.764,2.456,2.456,0,0,1-.867-1.926,2.538,2.538,0,0,1,1.058-2.191,5.222,5.222,0,0,1,3.059-.772h1.1V12a1.48,1.48,0,0,0-.32-1,1.257,1.257,0,0,0-1.009-.374,1.429,1.429,0,0,0-.95.291.987.987,0,0,0-.344.8h-2.4a2.41,2.41,0,0,1,.481-1.444A3.182,3.182,0,0,1,73.855,9.23a4.961,4.961,0,0,1,1.976-.378,3.92,3.92,0,0,1,2.635.834,2.918,2.918,0,0,1,.975,2.345v3.893a4.294,4.294,0,0,0,.357,1.934V18Zm-1.984-1.668a2.066,2.066,0,0,0,.979-.237,1.554,1.554,0,0,0,.664-.635V13.916h-.9q-1.8,0-1.917,1.245l-.008.141a.96.96,0,0,0,.315.739A1.225,1.225,0,0,0,75.391,16.332Zm10.94-5.063a6.517,6.517,0,0,0-.863-.066,1.757,1.757,0,0,0-1.785.921V18h-2.4V9.019h2.266l.066,1.071a2.223,2.223,0,0,1,2-1.237,2.514,2.514,0,0,1,.747.108ZM92.441,18a2.664,2.664,0,0,1-.241-.805,2.9,2.9,0,0,1-2.266.971,3.189,3.189,0,0,1-2.187-.764,2.456,2.456,0,0,1-.867-1.926,2.538,2.538,0,0,1,1.058-2.191A5.222,5.222,0,0,1,91,12.513h1.1V12a1.48,1.48,0,0,0-.32-1,1.257,1.257,0,0,0-1.009-.374,1.429,1.429,0,0,0-.95.291.987.987,0,0,0-.344.8h-2.4a2.41,2.41,0,0,1,.481-1.444A3.182,3.182,0,0,1,88.921,9.23,4.961,4.961,0,0,1,90.9,8.853a3.92,3.92,0,0,1,2.635.834,2.918,2.918,0,0,1,.975,2.345v3.893a4.294,4.294,0,0,0,.357,1.934V18Zm-1.984-1.668a2.066,2.066,0,0,0,.979-.237,1.554,1.554,0,0,0,.664-.635V13.916h-.9q-1.8,0-1.917,1.245l-.008.141a.96.96,0,0,0,.315.739A1.225,1.225,0,0,0,90.457,16.332ZM105.788,18a2.664,2.664,0,0,1-.241-.805,2.9,2.9,0,0,1-2.266.971,3.189,3.189,0,0,1-2.187-.764,2.456,2.456,0,0,1-.867-1.926,2.538,2.538,0,0,1,1.058-2.191,5.222,5.222,0,0,1,3.059-.772h1.1V12a1.48,1.48,0,0,0-.32-1,1.257,1.257,0,0,0-1.009-.374,1.429,1.429,0,0,0-.95.291.987.987,0,0,0-.344.8h-2.4a2.41,2.41,0,0,1,.481-1.444,3.182,3.182,0,0,1,1.361-1.042,4.961,4.961,0,0,1,1.976-.378,3.92,3.92,0,0,1,2.635.834,2.918,2.918,0,0,1,.975,2.345v3.893a4.294,4.294,0,0,0,.357,1.934V18ZM103.8,16.332a2.066,2.066,0,0,0,.979-.237,1.554,1.554,0,0,0,.664-.635V13.916h-.9q-1.8,0-1.917,1.245l-.008.141a.96.96,0,0,0,.315.739A1.225,1.225,0,0,0,103.8,16.332Zm13.979-2.739a5.387,5.387,0,0,1-.942,3.324,3.021,3.021,0,0,1-2.544,1.249,2.8,2.8,0,0,1-2.2-.946v4.233h-2.4V9.019h2.225l.083.88a2.819,2.819,0,0,1,2.274-1.046,3.041,3.041,0,0,1,2.582,1.229,5.532,5.532,0,0,1,.921,3.387Zm-2.4-.174a3.535,3.535,0,0,0-.444-1.934,1.446,1.446,0,0,0-1.291-.681,1.571,1.571,0,0,0-1.552.863v3.677a1.6,1.6,0,0,0,1.569.888Q115.384,16.232,115.384,13.418Zm8.932-2.15a6.517,6.517,0,0,0-.863-.066,1.757,1.757,0,0,0-1.785.921V18h-2.4V9.019h2.266l.066,1.071a2.223,2.223,0,0,1,2-1.237,2.514,2.514,0,0,1,.747.108Zm.481,2.158a5.326,5.326,0,0,1,.515-2.382,3.768,3.768,0,0,1,1.482-1.619,4.323,4.323,0,0,1,2.245-.573,4.09,4.09,0,0,1,2.968,1.112,4.464,4.464,0,0,1,1.282,3.021l.017.614a4.694,4.694,0,0,1-1.154,3.316,4.472,4.472,0,0,1-6.2,0,4.777,4.777,0,0,1-1.158-3.387Zm2.4.17a3.357,3.357,0,0,0,.481,1.958,1.73,1.73,0,0,0,2.739.008,3.674,3.674,0,0,0,.49-2.141,3.324,3.324,0,0,0-.49-1.945,1.592,1.592,0,0,0-1.378-.69,1.566,1.566,0,0,0-1.361.686A3.736,3.736,0,0,0,127.2,13.6Zm15.68,0a5.439,5.439,0,0,1-.921,3.366,3.052,3.052,0,0,1-2.573,1.208,2.8,2.8,0,0,1-2.333-1.121l-.108.955h-2.158V5.25h2.4V9.824a2.732,2.732,0,0,1,2.183-.971,3.077,3.077,0,0,1,2.577,1.208,5.446,5.446,0,0,1,.934,3.4Zm-2.4-.174a3.573,3.573,0,0,0-.432-1.988,1.46,1.46,0,0,0-1.287-.627,1.582,1.582,0,0,0-1.577.938v3.544a1.6,1.6,0,0,0,1.594.946,1.481,1.481,0,0,0,1.527-1.146A5.909,5.909,0,0,0,140.477,13.418ZM149.558,18a2.664,2.664,0,0,1-.241-.805,2.9,2.9,0,0,1-2.266.971,3.189,3.189,0,0,1-2.187-.764A2.456,2.456,0,0,1,144,15.477a2.538,2.538,0,0,1,1.058-2.191,5.222,5.222,0,0,1,3.059-.772h1.1V12a1.48,1.48,0,0,0-.32-1,1.257,1.257,0,0,0-1.009-.374,1.429,1.429,0,0,0-.95.291.987.987,0,0,0-.344.8h-2.4a2.41,2.41,0,0,1,.481-1.444,3.182,3.182,0,0,1,1.361-1.042,4.961,4.961,0,0,1,1.976-.378,3.92,3.92,0,0,1,2.635.834,2.918,2.918,0,0,1,.975,2.345v3.893a4.294,4.294,0,0,0,.357,1.934V18Zm-1.984-1.668a2.066,2.066,0,0,0,.979-.237,1.554,1.554,0,0,0,.664-.635V13.916h-.9q-1.8,0-1.917,1.245l-.008.141a.96.96,0,0,0,.315.739A1.225,1.225,0,0,0,147.574,16.332Zm9.629-.1a1.573,1.573,0,0,0,1.079-.365,1.28,1.28,0,0,0,.432-.971h2.25a3.077,3.077,0,0,1-.5,1.673,3.286,3.286,0,0,1-1.341,1.179,4.2,4.2,0,0,1-1.88.419,3.9,3.9,0,0,1-3.038-1.224,4.845,4.845,0,0,1-1.112-3.383V13.4a4.79,4.79,0,0,1,1.1-3.312,3.854,3.854,0,0,1,3.03-1.237,3.778,3.778,0,0,1,2.7.959,3.4,3.4,0,0,1,1.033,2.552h-2.25a1.648,1.648,0,0,0-.432-1.139,1.6,1.6,0,0,0-2.362.173,3.541,3.541,0,0,0-.427,1.983v.249a3.586,3.586,0,0,0,.423,2A1.463,1.463,0,0,0,157.2,16.232ZM164.865,18h-2.407V9.019h2.407ZM162.317,6.694a1.181,1.181,0,0,1,.361-.888,1.556,1.556,0,0,1,1.963,0,1.175,1.175,0,0,1,.365.888,1.178,1.178,0,0,1-.369.9,1.539,1.539,0,0,1-1.951,0A1.178,1.178,0,0,1,162.317,6.694Zm4.15,6.732a5.327,5.327,0,0,1,.515-2.382,3.767,3.767,0,0,1,1.482-1.619,4.323,4.323,0,0,1,2.245-.573,4.09,4.09,0,0,1,2.968,1.112,4.464,4.464,0,0,1,1.282,3.021l.017.614a4.694,4.694,0,0,1-1.154,3.316,4.472,4.472,0,0,1-6.2,0,4.777,4.777,0,0,1-1.158-3.387Zm2.4.17a3.357,3.357,0,0,0,.481,1.958,1.73,1.73,0,0,0,2.739.008,3.674,3.674,0,0,0,.49-2.141,3.324,3.324,0,0,0-.49-1.945,1.592,1.592,0,0,0-1.378-.69,1.566,1.566,0,0,0-1.361.686A3.735,3.735,0,0,0,168.866,13.6Zm2.316-8.347H173.8l-2.3,2.573h-1.951Zm7.479,3.769.075,1.038a3.136,3.136,0,0,1,2.582-1.2,2.606,2.606,0,0,1,2.125.838,3.912,3.912,0,0,1,.714,2.507V18h-2.4V12.256a1.556,1.556,0,0,0-.332-1.108,1.486,1.486,0,0,0-1.1-.344,1.65,1.65,0,0,0-1.519.863V18h-2.4V9.019Z" transform="translate(1500.776 -8892.164)" fill="#12263f"/>
    <path id="Trazado_602729" data-name="Trazado 602729" d="M0,0H161V161H0Z" transform="translate(1516.638 -9103.055)" fill="url(#linear-gradient)"/>
    <path id="Trazado_602730" data-name="Trazado 602730" d="M23,0A23,23,0,1,1,0,23,23,23,0,0,1,23,0Z" transform="translate(1574.776 -8956.055)" fill="#f2f5d1"/>
    <path id="Trazado_602731" data-name="Trazado 602731" d="M20.063,15.121a7.2,7.2,0,0,1-1.221,4.512A4.261,4.261,0,0,1,15.268,21.2a4.291,4.291,0,0,1-3.555-1.533,6.992,6.992,0,0,1-1.26-4.395V12.65a7.109,7.109,0,0,1,1.235-4.521,4.293,4.293,0,0,1,3.56-1.543A4.3,4.3,0,0,1,18.8,8.114a6.97,6.97,0,0,1,1.26,4.39ZM17.24,12.244a5.207,5.207,0,0,0-.483-2.576,1.634,1.634,0,0,0-1.509-.806,1.6,1.6,0,0,0-1.47.767,4.873,4.873,0,0,0-.5,2.4v3.46a5.466,5.466,0,0,0,.474,2.586,1.612,1.612,0,0,0,1.519.846,1.585,1.585,0,0,0,1.494-.811,5.335,5.335,0,0,0,.479-2.483Zm7.6.4h1.5a2.119,2.119,0,0,0,1.592-.537,1.968,1.968,0,0,0,.518-1.426,1.74,1.74,0,0,0-.513-1.338,1.987,1.987,0,0,0-1.411-.479,2.083,2.083,0,0,0-1.357.444,1.421,1.421,0,0,0-.547,1.157H21.8a3.471,3.471,0,0,1,.6-2,4,4,0,0,1,1.68-1.382,5.606,5.606,0,0,1,2.378-.5,5.316,5.316,0,0,1,3.535,1.079,3.682,3.682,0,0,1,1.279,2.974,2.992,2.992,0,0,1-.6,1.8,3.87,3.87,0,0,1-1.562,1.26,3.533,3.533,0,0,1,1.792,1.289,3.5,3.5,0,0,1,.591,2.031,3.743,3.743,0,0,1-1.382,3.037A5.556,5.556,0,0,1,26.459,21.2a5.268,5.268,0,0,1-3.481-1.123A3.668,3.668,0,0,1,21.625,17.1h2.822a1.635,1.635,0,0,0,.6,1.309,2.505,2.505,0,0,0,3.057-.024,1.837,1.837,0,0,0,.571-1.411q0-2.129-2.344-2.129H24.838Z" transform="translate(1575.638 -8944.055)" fill="#12263f"/>
    <g id="Grupo_877367" data-name="Grupo 877367" transform="translate(1543.638 -9077.691)" clip-path="url(#clip-path-4)">
      <path id="Trazado_602273" data-name="Trazado 602273" d="M192.19,90.936H166.005a2.338,2.338,0,0,1-2.338-2.338V7.339A2.338,2.338,0,0,1,166.005,5h65.256A2.338,2.338,0,0,1,233.6,7.339V62.2a2.338,2.338,0,1,1-4.676,0V9.677h-60.58V86.26H192.19a2.338,2.338,0,1,1,0,4.676" transform="translate(-138.157 -4.222)" fill="#0b5e88"/>
      <path id="Trazado_602274" data-name="Trazado 602274" d="M354.944,382.22a27.277,27.277,0,1,1,27.277-27.277,27.307,27.307,0,0,1-27.277,27.277m0-49.877a22.6,22.6,0,1,0,22.6,22.6,22.626,22.626,0,0,0-22.6-22.6" transform="translate(-276.595 -276.595)" fill="#0b5e88"/>
      <path id="Trazado_602275" data-name="Trazado 602275" d="M19.807,196.817H7.338A2.338,2.338,0,0,1,5,194.479V150.005a2.338,2.338,0,0,1,2.338-2.338H19.807a2.338,2.338,0,0,1,2.338,2.338v44.474a2.338,2.338,0,0,1-2.338,2.338M9.676,192.141h7.793v-39.8H9.676Z" transform="translate(-4.221 -124.651)" fill="#0b5e88"/>
      <path id="Trazado_602276" data-name="Trazado 602276" d="M13.573,452.64a2.338,2.338,0,0,1-2.158-1.439L5.18,436.238A2.338,2.338,0,0,1,7.338,433H19.807a2.338,2.338,0,0,1,2.158,3.237L15.731,451.2a2.338,2.338,0,0,1-2.158,1.439m-2.728-14.963,2.728,6.546,2.728-6.546Z" transform="translate(-4.221 -365.511)" fill="#0b5e88"/>
      <path id="Trazado_602277" data-name="Trazado 602277" d="M19.807,88.31a2.338,2.338,0,0,1-2.338-2.338V78.907a3.9,3.9,0,1,0-7.793,0v7.066a2.338,2.338,0,1,1-4.676,0V78.907a8.573,8.573,0,0,1,17.145,0v7.066a2.338,2.338,0,0,1-2.338,2.338" transform="translate(-4.221 -59.371)" fill="#0b5e88"/>
      <path id="Trazado_602278" data-name="Trazado 602278" d="M286.324,89.678H246.008a2.338,2.338,0,0,1,0-4.676h40.316a2.338,2.338,0,1,1,0,4.676" transform="translate(-205.69 -71.753)" fill="#0b5e88"/>
      <path id="Trazado_602279" data-name="Trazado 602279" d="M286.324,169.678H246.008a2.338,2.338,0,0,1,0-4.676h40.316a2.338,2.338,0,1,1,0,4.676" transform="translate(-205.69 -139.284)" fill="#0b5e88"/>
      <path id="Trazado_602280" data-name="Trazado 602280" d="M286.324,249.678H246.008a2.338,2.338,0,0,1,0-4.676h40.316a2.338,2.338,0,1,1,0,4.676" transform="translate(-205.69 -206.815)" fill="#0b5e88"/>
      <path id="Trazado_602281" data-name="Trazado 602281" d="M255.927,329.678h-9.919a2.338,2.338,0,1,1,0-4.676h9.919a2.338,2.338,0,1,1,0,4.676" transform="translate(-205.69 -274.345)" fill="#0b5e88"/>
      <path id="Trazado_602282" data-name="Trazado 602282" d="M442.367,459.468a2.338,2.338,0,0,1-1.769-.809l-6.363-7.362a2.338,2.338,0,1,1,3.538-3.058l4.5,5.212,10.086-12.887a2.338,2.338,0,1,1,3.682,2.882l-11.838,15.125a2.338,2.338,0,0,1-1.784.9h-.057" transform="translate(-366.073 -371.138)" fill="#0b5e88"/>
    </g>
  </g>
</svg>
