<svg xmlns="http://www.w3.org/2000/svg" width="105" height="105" viewBox="0 0 105 105">
  <g id="Grupo_877550" data-name="Grupo 877550" transform="translate(-1161 -4186.249)">
    <g id="Grupo_877363" data-name="Grupo 877363">
      <g id="Grupo_877195" data-name="Grupo 877195" transform="translate(0 -877.751)">
        <g id="Grupo_874603" data-name="Grupo 874603" transform="translate(686.142 2711.142)">
          <circle id="Elipse_4723" data-name="Elipse 4723" cx="52.5" cy="52.5" r="52.5" transform="translate(474.858 2352.858)" fill="#fff"/>
          <path id="Trazado_596604" data-name="Trazado 596604" d="M46.492,0A46.492,46.492,0,1,1,0,46.492,46.492,46.492,0,0,1,46.492,0Z" transform="translate(480.867 2358.867)" fill="#e3f7f0" opacity="0.7"/>
        </g>
      </g>
      <g id="presupuesto" transform="translate(1099 4087.451)">
        <path id="Trazado_602218" data-name="Trazado 602218" d="M141.2,270.735v-48.8a2.139,2.139,0,0,1,2.138-2.138h38.652a2.143,2.143,0,0,1,2.143,2.138v48.8a2.144,2.144,0,0,1-2.143,2.143H143.338A2.146,2.146,0,0,1,141.2,270.735Z" transform="translate(-56.563 -98.495)" fill="#fff"/>
        <g id="Grupo_877358" data-name="Grupo 877358" transform="translate(89.4 126.856)">
          <g id="Grupo_877349" data-name="Grupo 877349" transform="translate(16.849 0.276)">
            <g id="Grupo_877346" data-name="Grupo 877346">
              <path id="Trazado_602219" data-name="Trazado 602219" d="M641.755,352.81H627.4a1.1,1.1,0,1,1,0-2.21h14.35a1.1,1.1,0,1,1,0,2.21Z" transform="translate(-626.3 -350.6)" fill="#b0ccdd"/>
            </g>
            <g id="Grupo_877347" data-name="Grupo 877347" transform="translate(0 6.678)">
              <path id="Trazado_602220" data-name="Trazado 602220" d="M641.755,502.71H627.4a1.1,1.1,0,1,1,0-2.21h14.35a1.1,1.1,0,1,1,0,2.21Z" transform="translate(-626.3 -500.5)" fill="#b0ccdd"/>
            </g>
            <g id="Grupo_877348" data-name="Grupo 877348" transform="translate(0 13.361)">
              <path id="Trazado_602221" data-name="Trazado 602221" d="M633.156,652.71H627.4a1.1,1.1,0,0,1,0-2.21h5.751a1.1,1.1,0,1,1,0,2.21Z" transform="translate(-626.3 -650.5)" fill="#b0ccdd"/>
            </g>
          </g>
          <g id="Grupo_877352" data-name="Grupo 877352" transform="translate(0 20.315)">
            <g id="Grupo_877351" data-name="Grupo 877351">
              <g id="Grupo_877350" data-name="Grupo 877350">
                <path id="Trazado_602222" data-name="Trazado 602222" d="M266.588,802.61H249.2a1.1,1.1,0,1,1,0-2.21h17.384a1.1,1.1,0,1,1,0,2.21Z" transform="translate(-248.1 -800.4)" fill="#b0ccdd"/>
              </g>
            </g>
          </g>
          <g id="Grupo_877357" data-name="Grupo 877357" transform="translate(3.237 0)">
            <g id="Grupo_877353" data-name="Grupo 877353" transform="translate(0 1.697)">
              <path id="Trazado_602223" data-name="Trazado 602223" d="M330.037,389.619l-.009-.013a3.879,3.879,0,0,0-1.622-1.283,15.582,15.582,0,0,0-2.664-.771,5.713,5.713,0,0,1-2.25-.789,1.1,1.1,0,0,1-.379-.864,1.311,1.311,0,0,1,.557-1.06,3.114,3.114,0,0,1,1.916-.468,2.956,2.956,0,0,1,1.9.517,1.973,1.973,0,0,1,.624.976,1,1,0,0,0,.958.726.408.408,0,0,0,.076,0h.022a1,1,0,0,0,.9-1.274,3.742,3.742,0,0,0-.472-1.034,3.6,3.6,0,0,0-1.657-1.336,6.207,6.207,0,0,0-2.415-.441,5.886,5.886,0,0,0-2.263.423,3.376,3.376,0,0,0-1.595,1.274,3.252,3.252,0,0,0-.548,1.809,2.938,2.938,0,0,0,.454,1.6,3.5,3.5,0,0,0,1.354,1.189,11.166,11.166,0,0,0,2.339.762,19.7,19.7,0,0,1,2.076.57,2.149,2.149,0,0,1,.958.619,1.315,1.315,0,0,1,.272.82,1.464,1.464,0,0,1-.29.869,1.969,1.969,0,0,1-.909.646,4.14,4.14,0,0,1-1.492.249,4.282,4.282,0,0,1-1.715-.33,2.436,2.436,0,0,1-1.083-.833,2.62,2.62,0,0,1-.334-.757,1.024,1.024,0,0,0-.98-.753.593.593,0,0,0-.089,0,1.014,1.014,0,0,0-.9,1.247,4.082,4.082,0,0,0,2.383,2.833,7.057,7.057,0,0,0,2.789.49,5.711,5.711,0,0,0,2.383-.486,3.788,3.788,0,0,0,1.657-1.39,3.482,3.482,0,0,0,.579-1.911,3.218,3.218,0,0,0-.535-1.831Z" transform="translate(-320.75 -382.5)" fill="#5ad1a5"/>
            </g>
            <g id="Grupo_877356" data-name="Grupo 877356" transform="translate(3.807)">
              <g id="Grupo_877354" data-name="Grupo 877354" transform="translate(0 13.169)">
                <path id="Trazado_602224" data-name="Trazado 602224" d="M407.3,642.958a1.1,1.1,0,0,1-1.1-1.1V641.1a1.1,1.1,0,1,1,2.21,0v.748A1.11,1.11,0,0,1,407.3,642.958Z" transform="translate(-406.2 -640)" fill="#5ad1a5"/>
              </g>
              <g id="Grupo_877355" data-name="Grupo 877355">
                <path id="Trazado_602225" data-name="Trazado 602225" d="M407.3,347.354a1.1,1.1,0,0,1-1.1-1.1V345.5a1.1,1.1,0,0,1,2.21,0v.744A1.11,1.11,0,0,1,407.3,347.354Z" transform="translate(-406.2 -344.4)" fill="#5ad1a5"/>
              </g>
            </g>
          </g>
        </g>
        <path id="Trazado_602226" data-name="Trazado 602226" d="M779.5,665.962V628.673A2.675,2.675,0,0,1,782.173,626h28.713a2.675,2.675,0,0,1,2.673,2.673v37.289a2.675,2.675,0,0,1-2.673,2.673H782.173A2.672,2.672,0,0,1,779.5,665.962Z" transform="translate(-666.426 -486.598)" fill="#004281"/>
        <g id="Grupo_877360" data-name="Grupo 877360" transform="translate(117.574 143.723)">
          <path id="Trazado_602227" data-name="Trazado 602227" d="M880.5,723h25.06v6.415H880.5Z" transform="translate(-880.5 -723)" fill="#bbecff"/>
          <g id="Grupo_877359" data-name="Grupo 877359" transform="translate(0 10.158)">
            <path id="Trazado_602228" data-name="Trazado 602228" d="M880.5,951h5.578v5.72H880.5Z" transform="translate(-880.5 -951)" fill="#cfd8dd"/>
            <path id="Trazado_602229" data-name="Trazado 602229" d="M1099.2,951h5.578v5.72H1099.2Z" transform="translate(-1089.457 -951)" fill="#cfd8dd"/>
            <path id="Trazado_602230" data-name="Trazado 602230" d="M1317.8,951h5.578v5.72H1317.8Z" transform="translate(-1298.318 -951)" fill="#cfd8dd"/>
            <path id="Trazado_602231" data-name="Trazado 602231" d="M880.5,1154.3h5.578v5.72H880.5Z" transform="translate(-880.5 -1145.243)" fill="#cfd8dd"/>
            <path id="Trazado_602232" data-name="Trazado 602232" d="M1099.2,1154.3h5.578v5.72H1099.2Z" transform="translate(-1089.457 -1145.243)" fill="#cfd8dd"/>
            <path id="Trazado_602233" data-name="Trazado 602233" d="M880.5,1357.6h5.578v5.72H880.5Z" transform="translate(-880.5 -1339.486)" fill="#cfd8dd"/>
            <path id="Trazado_602234" data-name="Trazado 602234" d="M1099.2,1357.6h5.578v5.72H1099.2Z" transform="translate(-1089.457 -1339.486)" fill="#cfd8dd"/>
            <path id="Trazado_602235" data-name="Trazado 602235" d="M1317.8,1154.3h5.578v14.777H1317.8Z" transform="translate(-1298.318 -1145.243)" fill="#cfd8dd"/>
          </g>
        </g>
        <path id="Trazado_602239" data-name="Trazado 602239" d="M104.672,1462.327H84.682A2.682,2.682,0,0,1,82,1459.645v-.263a2.682,2.682,0,0,1,2.682-2.682h19.985a2.682,2.682,0,0,1,2.682,2.682v.263a2.675,2.675,0,0,1-2.677,2.682Z" transform="translate(0 -1280.29)" fill="#f7e07f"/>
        <path id="Trazado_602240" data-name="Trazado 602240" d="M104.672,1335.927H84.682A2.682,2.682,0,0,1,82,1333.245v-.263a2.682,2.682,0,0,1,2.682-2.682h19.985a2.682,2.682,0,0,1,2.682,2.682v.263a2.675,2.675,0,0,1-2.677,2.682Z" transform="translate(0 -1159.521)" fill="#ebcd6d"/>
        <path id="Trazado_602241" data-name="Trazado 602241" d="M104.672,1209.527H84.682A2.682,2.682,0,0,1,82,1206.845v-.263a2.682,2.682,0,0,1,2.682-2.682h19.985a2.682,2.682,0,0,1,2.682,2.682v.263a2.675,2.675,0,0,1-2.677,2.682Z" transform="translate(0 -1038.752)" fill="#f7e07f"/>
        <path id="Trazado_602242" data-name="Trazado 602242" d="M104.672,1083.127H84.682A2.682,2.682,0,0,1,82,1080.445v-.263a2.682,2.682,0,0,1,2.682-2.682h19.985a2.682,2.682,0,0,1,2.682,2.682v.263a2.678,2.678,0,0,1-2.677,2.682Z" transform="translate(0 -917.984)" fill="#ebcd6d"/>
        <path id="Trazado_602243" data-name="Trazado 602243" d="M104.672,956.727H84.682A2.682,2.682,0,0,1,82,954.045v-.263a2.682,2.682,0,0,1,2.682-2.682h19.985a2.682,2.682,0,0,1,2.682,2.682v.263a2.678,2.678,0,0,1-2.677,2.682Z" transform="translate(0 -797.215)" fill="#f7e07f"/>
      </g>
    </g>
  </g>
</svg>
