<svg xmlns="http://www.w3.org/2000/svg" width="105" height="105" viewBox="0 0 105 105">
  <g id="Grupo_877548" data-name="Grupo 877548" transform="translate(-334 -4186.249)">
    <g id="Grupo_877364" data-name="Grupo 877364">
      <g id="Grupo_877193" data-name="Grupo 877193" transform="translate(0 -877.751)">
        <g id="Grupo_874601" data-name="Grupo 874601" transform="translate(-140.858 2711.142)">
          <circle id="Elipse_4723" data-name="Elipse 4723" cx="52.5" cy="52.5" r="52.5" transform="translate(474.858 2352.858)" fill="#fff"/>
          <path id="Trazado_596604" data-name="Trazado 596604" d="M46.492,0A46.492,46.492,0,1,1,0,46.492,46.492,46.492,0,0,1,46.492,0Z" transform="translate(480.867 2358.867)" fill="#f2f5d1" opacity="0.7"/>
        </g>
      </g>
      <g id="chateando" transform="translate(349.189 4158.399)">
        <path id="Trazado_602207" data-name="Trazado 602207" d="M229.657,164.991H199.224A7.224,7.224,0,0,0,192,172.215v21.457a7.224,7.224,0,0,0,7.224,7.224h19.237a1.4,1.4,0,0,1,.842.281l6.358,4.769a1.4,1.4,0,0,0,2.244-1.122V201.6a.7.7,0,0,1,.7-.7h1.051a7.224,7.224,0,0,0,7.224-7.224V172.215A7.224,7.224,0,0,0,229.657,164.991Z" transform="translate(-165.071 -96.291)" fill="#0055a3"/>
        <path id="Trazado_602208" data-name="Trazado 602208" d="M199.224,164.991A7.224,7.224,0,0,0,192,172.215v15.862h10.728a7.224,7.224,0,0,0,7.224-7.224V164.991Z" transform="translate(-165.071 -96.291)" fill="#004281"/>
        <path id="Trazado_602209" data-name="Trazado 602209" d="M269.173,217.479H242.244a2.244,2.244,0,0,1,0-4.488h26.929a2.244,2.244,0,0,1,0,4.488Z" transform="translate(-206.339 -137.559)" fill="#fff"/>
        <path id="Trazado_602210" data-name="Trazado 602210" d="M269.173,281.479H242.244a2.244,2.244,0,0,1,0-4.488h26.929a2.244,2.244,0,0,1,0,4.488Z" transform="translate(-206.339 -192.583)" fill="#fff"/>
        <path id="Trazado_602211" data-name="Trazado 602211" d="M242.244,276.991a2.244,2.244,0,0,0,0,4.488h7.532a7.193,7.193,0,0,0,1.444-4.335v-.154Z" transform="translate(-206.339 -192.583)" fill="#eaf6ff"/>
        <path id="Trazado_602212" data-name="Trazado 602212" d="M255.709,345.479H242.244a2.244,2.244,0,0,1,0-4.488h13.465a2.244,2.244,0,1,1,0,4.488Z" transform="translate(-206.339 -247.606)" fill="#fff"/>
        <path id="Trazado_602213" data-name="Trazado 602213" d="M37.657,52.991H7.224A7.224,7.224,0,0,0,0,60.215V81.672A7.224,7.224,0,0,0,7.224,88.9H8.275a.7.7,0,0,1,.7.7v3.226a1.4,1.4,0,0,0,2.244,1.122l6.358-4.769a1.4,1.4,0,0,1,.842-.281H37.657a7.224,7.224,0,0,0,7.224-7.224V60.215a7.224,7.224,0,0,0-7.224-7.224Z" transform="translate(0)" fill="#46cc8d"/>
        <path id="Trazado_602214" data-name="Trazado 602214" d="M238.512,164.991a7.192,7.192,0,0,1,1.445,4.335V187.17a10.837,10.837,0,0,1-10.837,10.837H202.3a7.213,7.213,0,0,0,5.78,2.89h19.237a1.4,1.4,0,0,1,.842.281l6.358,4.769a1.4,1.4,0,0,0,2.244-1.122V201.6a.7.7,0,0,1,.7-.7h1.051a7.224,7.224,0,0,0,7.224-7.224V172.215A7.224,7.224,0,0,0,238.512,164.991Z" transform="translate(-173.925 -96.291)" fill="#004281"/>
        <path id="Trazado_602215" data-name="Trazado 602215" d="M46.512,52.991a7.193,7.193,0,0,1,1.444,4.335V75.17A10.837,10.837,0,0,1,37.12,86.007H10.3a7.213,7.213,0,0,0,5.78,2.89H17.13a.7.7,0,0,1,.7.7v3.226a1.4,1.4,0,0,0,2.244,1.122l6.358-4.769a1.4,1.4,0,0,1,.842-.281H46.512a7.224,7.224,0,0,0,7.224-7.224V60.215a7.224,7.224,0,0,0-7.224-7.224Z" transform="translate(-8.855)" fill="#00c27a"/>
        <path id="Trazado_602216" data-name="Trazado 602216" d="M269.173,217.479H242.244a2.244,2.244,0,0,1,0-4.488h26.929a2.244,2.244,0,0,1,0,4.488Z" transform="translate(-234.339 -152.845)" fill="#fff"/>
        <path id="Trazado_602217" data-name="Trazado 602217" d="M269.173,281.479H242.244a2.244,2.244,0,0,1,0-4.488h26.929a2.244,2.244,0,0,1,0,4.488Z" transform="translate(-234.339 -207.869)" fill="#fff"/>
      </g>
    </g>
  </g>
</svg>
