<svg xmlns="http://www.w3.org/2000/svg" width="102.987" height="112.798" viewBox="0 0 102.987 112.798">
  <g id="Grupo_876939" data-name="Grupo 876939" transform="translate(-926 -155.5)">
    <g id="informe-seo" transform="translate(862.785 155.5)">
      <path id="Trazado_599866" data-name="Trazado 599866" d="M260.332,111.427h21.362a1.537,1.537,0,0,0,0-3.074H260.332a1.537,1.537,0,1,0,0,3.074Z" transform="translate(-152.492 -84.482)" fill="#e3f7f0"/>
      <path id="Trazado_599867" data-name="Trazado 599867" d="M258.8,142.525a1.537,1.537,0,0,0,1.537,1.537h21.362a1.537,1.537,0,1,0,0-3.074H260.332A1.537,1.537,0,0,0,258.8,142.525Z" transform="translate(-152.492 -109.927)" fill="#e3f7f0"/>
      <path id="Trazado_599868" data-name="Trazado 599868" d="M260.332,176.7h21.362a1.537,1.537,0,0,0,0-3.074H260.332a1.537,1.537,0,1,0,0,3.074Z" transform="translate(-152.492 -135.372)" fill="#e3f7f0"/>
      <path id="Trazado_599869" data-name="Trazado 599869" d="M288.554,357.29a1.537,1.537,0,0,0-1.537-1.537H267.158a1.537,1.537,0,1,0,0,3.074h19.859A1.537,1.537,0,0,0,288.554,357.29Z" transform="translate(-157.814 -277.378)" fill="#e3f7f0"/>
      <path id="Trazado_599870" data-name="Trazado 599870" d="M132.014,289.216a1.537,1.537,0,0,0-1.537-1.537H109.115a1.537,1.537,0,1,0,0,3.074h21.362A1.537,1.537,0,0,0,132.014,289.216Z" transform="translate(-34.589 -224.301)" fill="#e3f7f0"/>
      <path id="Trazado_599871" data-name="Trazado 599871" d="M109.115,258.119h21.362a1.537,1.537,0,1,0,0-3.074H109.115a1.537,1.537,0,1,0,0,3.074Z" transform="translate(-34.589 -198.856)" fill="#e3f7f0"/>
      <path id="Trazado_599872" data-name="Trazado 599872" d="M116.01,72.694a15.929,15.929,0,1,0,15.929,15.928A15.947,15.947,0,0,0,116.01,72.694Zm0,28.553a12.624,12.624,0,0,1-1.652-25.14V88.623a1.652,1.652,0,0,0,1.652,1.652h12.516A12.643,12.643,0,0,1,116.01,101.247Zm1.652-14.276V76.106A12.652,12.652,0,0,1,128.526,86.97Z" transform="translate(-28.744 -56.679)" fill="#e3f7f0"/>
      <path id="Trazado_599873" data-name="Trazado 599873" d="M236.417,235.379v14.754a2.68,2.68,0,0,0,2.677,2.677h25.665a2.68,2.68,0,0,0,2.677-2.677V235.379a2.68,2.68,0,0,0-2.677-2.677H239.094A2.68,2.68,0,0,0,236.417,235.379Zm3.3.628h24.409v13.5H239.722Z" transform="translate(-135.044 -181.436)" fill="#e3f7f0"/>
      <path id="Trazado_599874" data-name="Trazado 599874" d="M100.078,361.172a2.68,2.68,0,0,0,2.677,2.677h4.49a2.68,2.68,0,0,0,2.677-2.677V338.759a2.68,2.68,0,0,0-2.677-2.677h-4.49a2.68,2.68,0,0,0-2.677,2.677Zm3.3-21.785h3.234v21.158h-3.234Z" transform="translate(-28.742 -262.04)" fill="#e3f7f0"/>
      <path id="Trazado_599875" data-name="Trazado 599875" d="M158.125,362.775a2.68,2.68,0,0,0-2.677,2.677v16.532a2.68,2.68,0,0,0,2.677,2.677h4.489a2.68,2.68,0,0,0,2.677-2.677V365.452a2.68,2.68,0,0,0-2.677-2.677Zm3.862,18.581h-3.234V366.08h3.234Z" transform="translate(-71.913 -282.853)" fill="#e3f7f0"/>
      <path id="Trazado_599876" data-name="Trazado 599876" d="M213.495,410.591h4.49a2.68,2.68,0,0,0,2.677-2.677v-9.206a2.68,2.68,0,0,0-2.677-2.677h-4.49a2.68,2.68,0,0,0-2.677,2.677v9.206A2.68,2.68,0,0,0,213.495,410.591Zm.628-11.255h3.234v7.95h-3.234Z" transform="translate(-115.085 -308.782)" fill="#e3f7f0"/>
      <path id="Trazado_599877" data-name="Trazado 599877" d="M287.016,390.03H267.157a1.537,1.537,0,1,0,0,3.074h19.859a1.537,1.537,0,0,0,0-3.074Z" transform="translate(-157.814 -304.103)" fill="#e3f7f0"/>
      <path id="Trazado_599878" data-name="Trazado 599878" d="M287.016,424.307H267.157a1.537,1.537,0,0,0,0,3.074h19.859a1.537,1.537,0,0,0,0-3.074Z" transform="translate(-157.814 -330.829)" fill="#e3f7f0"/>
      <path id="Trazado_599879" data-name="Trazado 599879" d="M146.507,20.486a1.652,1.652,0,0,0,1.652-1.652V5.538A5.544,5.544,0,0,0,142.621,0H76.4a5.544,5.544,0,0,0-5.538,5.538V7.647H68.753a5.544,5.544,0,0,0-5.538,5.538V83.974a1.652,1.652,0,1,0,3.3,0V13.185a2.236,2.236,0,0,1,2.233-2.233h66.221a2.236,2.236,0,0,1,2.233,2.233V107.26a2.236,2.236,0,0,1-2.233,2.233H68.753a2.236,2.236,0,0,1-2.233-2.233V91.684a1.652,1.652,0,0,0-3.3,0V107.26a5.544,5.544,0,0,0,5.538,5.538h66.221a5.544,5.544,0,0,0,5.538-5.538v-2.109h2.109a5.544,5.544,0,0,0,5.538-5.538V26.545a1.652,1.652,0,0,0-3.3,0V99.613a2.236,2.236,0,0,1-2.233,2.233h-2.109V13.185a5.544,5.544,0,0,0-5.538-5.538H74.166V5.538A2.236,2.236,0,0,1,76.4,3.3h66.221a2.236,2.236,0,0,1,2.233,2.233v13.3a1.652,1.652,0,0,0,1.652,1.652Z" transform="translate(0)" fill="#e3f7f0"/>
    </g>
    <g id="Grupo_876938" data-name="Grupo 876938" transform="translate(995 186.61)">
      <g id="Grupo_151688" data-name="Grupo 151688" transform="translate(0 7.064)">
        <path id="Trazado_212295" data-name="Trazado 212295" d="M-11425.02-11468v14.128" transform="translate(11431.771 11467.998)" fill="none" stroke="#e3f7f0" stroke-width="3"/>
        <path id="Trazado_212296" data-name="Trazado 212296" d="M0,0V13.5" transform="translate(13.505 7.064) rotate(90)" fill="none" stroke="#e3f7f0" stroke-width="3"/>
      </g>
      <g id="Grupo_151689" data-name="Grupo 151689" transform="translate(17.557 0)">
        <path id="Trazado_212295-2" data-name="Trazado 212295" d="M-11425.02-11468v14.128" transform="translate(11431.771 11467.998)" fill="none" stroke="#e3f7f0" stroke-width="3"/>
        <path id="Trazado_212296-2" data-name="Trazado 212296" d="M0,0V13.5" transform="translate(13.505 7.064) rotate(90)" fill="none" stroke="#e3f7f0" stroke-width="3"/>
      </g>
      <g id="Grupo_151690" data-name="Grupo 151690" transform="translate(20.483 21.192)">
        <path id="Trazado_212295-3" data-name="Trazado 212295" d="M-11425.02-11468v14.128" transform="translate(11431.771 11467.998)" fill="none" stroke="#e3f7f0" stroke-width="3"/>
        <path id="Trazado_212296-3" data-name="Trazado 212296" d="M0,0V13.5" transform="translate(13.505 7.064) rotate(90)" fill="none" stroke="#e3f7f0" stroke-width="3"/>
      </g>
    </g>
  </g>
</svg>
