<svg id="Grupo_876868" data-name="Grupo 876868" xmlns="http://www.w3.org/2000/svg" xmlns:xlink="http://www.w3.org/1999/xlink" width="164.277" height="137.623" viewBox="0 0 164.277 137.623">
  <defs>
    <clipPath id="clip-path">
      <rect id="Rectángulo_292488" data-name="Rectángulo 292488" width="164.277" height="137.623" fill="none"/>
    </clipPath>
    <clipPath id="clip-path-3">
      <rect id="Rectángulo_292445" data-name="Rectángulo 292445" width="153.217" height="9.193" fill="#636363"/>
    </clipPath>
    <clipPath id="clip-path-4">
      <rect id="Rectángulo_292447" data-name="Rectángulo 292447" width="22.908" height="70.893" fill="none"/>
    </clipPath>
    <clipPath id="clip-path-5">
      <rect id="Rectángulo_292483" data-name="Rectángulo 292483" width="61.727" height="61.727" fill="none"/>
    </clipPath>
    <clipPath id="clip-path-6">
      <rect id="Rectángulo_292486" data-name="Rectángulo 292486" width="38.513" height="56.824" fill="none"/>
    </clipPath>
  </defs>
  <g id="Grupo_876867" data-name="Grupo 876867" clip-path="url(#clip-path)">
    <g id="Grupo_876866" data-name="Grupo 876866">
      <g id="Grupo_876865" data-name="Grupo 876865" clip-path="url(#clip-path)">
        <g id="Grupo_876855" data-name="Grupo 876855" transform="translate(0 128.43)" opacity="0.46">
          <g id="Grupo_876854" data-name="Grupo 876854" opacity="0.33">
            <g id="Grupo_876853" data-name="Grupo 876853" clip-path="url(#clip-path-3)">
              <path id="Trazado_600157" data-name="Trazado 600157" d="M153.217,268.825c0,2.539-34.3,4.6-76.609,4.6S0,271.363,0,268.825s34.3-4.6,76.608-4.6,76.609,2.058,76.609,4.6" transform="translate(0 -264.228)" fill="#636363"/>
            </g>
          </g>
        </g>
        <path id="Trazado_600158" data-name="Trazado 600158" d="M75.561,64.263l-30.946.363a4.6,4.6,0,0,0-4.5,5.23l8.429,61.026a4.6,4.6,0,0,0,4.612,3.972l95.457-1.12a4.6,4.6,0,0,0,4.517-4.079L158.96,76.9a3.072,3.072,0,0,0-3.088-3.42l-72.748.854-2.613-7.216a5.6,5.6,0,0,0-4.95-2.855" transform="translate(-20.592 -33.027)" fill="#ffcb00"/>
        <path id="Trazado_600159" data-name="Trazado 600159" d="M75.6,67.3l-30.946.363a4.6,4.6,0,0,0-4.5,5.23l6.71,61.046,108.025-1.268L159,79.934a3.072,3.072,0,0,0-3.088-3.42l-72.748.854-2.613-7.216A5.6,5.6,0,0,0,75.6,67.3" transform="translate(-20.611 -34.586)" fill="#ffba00"/>
        <path id="Trazado_600160" data-name="Trazado 600160" d="M42.776,100.842l5.455,49.627L156.255,149.2l3.88-49.737Z" transform="translate(-21.984 -51.119)" fill="#e79a15"/>
        <rect id="Rectángulo_292446" data-name="Rectángulo 292446" width="56.301" height="70.615" transform="translate(20.673 11.294) rotate(-10.858)" fill="#efeeee"/>
        <g id="Grupo_876858" data-name="Grupo 876858" transform="translate(66.361 0.687)" opacity="0.42" style="mix-blend-mode: multiply;isolation: isolate">
          <g id="Grupo_876857" data-name="Grupo 876857">
            <g id="Grupo_876856" data-name="Grupo 876856" clip-path="url(#clip-path-4)">
              <path id="Trazado_600161" data-name="Trazado 600161" d="M146.135,1.414l-.846.162L136.53,70.416,151.4,72.307l8.041-1.543Z" transform="translate(-136.53 -1.414)" fill="#d3e2ec"/>
            </g>
          </g>
        </g>
        <rect id="Rectángulo_292448" data-name="Rectángulo 292448" width="35.961" height="3.09" transform="translate(31.65 14.529) rotate(-10.858)" fill="#d1d2d3"/>
        <rect id="Rectángulo_292449" data-name="Rectángulo 292449" width="35.961" height="3.09" transform="translate(39.49 55.405) rotate(-10.858)" fill="#d1d2d3"/>
        <rect id="Rectángulo_292450" data-name="Rectángulo 292450" width="35.961" height="3.09" transform="translate(40.661 61.508) rotate(-10.858)" fill="#d1d2d3"/>
        <rect id="Rectángulo_292451" data-name="Rectángulo 292451" width="35.961" height="3.09" transform="translate(41.831 67.611) rotate(-10.859)" fill="#d1d2d3"/>
        <rect id="Rectángulo_292452" data-name="Rectángulo 292452" width="17.974" height="1.544" transform="translate(41.359 17.408) rotate(-10.858)" fill="#d1d2d3"/>
        <rect id="Rectángulo_292453" data-name="Rectángulo 292453" width="19.894" height="1.545" transform="matrix(0.982, -0.188, 0.188, 0.982, 30.681, 27.445)" fill="#d1d2d3"/>
        <rect id="Rectángulo_292454" data-name="Rectángulo 292454" width="19.894" height="1.544" transform="matrix(0.982, -0.188, 0.188, 0.982, 31.545, 31.945)" fill="#d1d2d3"/>
        <rect id="Rectángulo_292455" data-name="Rectángulo 292455" width="19.894" height="1.544" transform="matrix(0.982, -0.188, 0.188, 0.982, 32.408, 36.446)" fill="#d1d2d3"/>
        <rect id="Rectángulo_292456" data-name="Rectángulo 292456" width="19.894" height="1.544" transform="matrix(0.982, -0.188, 0.188, 0.982, 33.271, 40.946)" fill="#d1d2d3"/>
        <rect id="Rectángulo_292457" data-name="Rectángulo 292457" width="19.894" height="1.544" transform="matrix(0.982, -0.188, 0.188, 0.982, 34.134, 45.446)" fill="#d1d2d3"/>
        <rect id="Rectángulo_292458" data-name="Rectángulo 292458" width="19.894" height="1.544" transform="matrix(0.982, -0.188, 0.188, 0.982, 34.998, 49.947)" fill="#d1d2d3"/>
        <rect id="Rectángulo_292459" data-name="Rectángulo 292459" width="19.894" height="1.544" transform="matrix(0.982, -0.188, 0.188, 0.982, 54.259, 22.922)" fill="#d1d2d3"/>
        <rect id="Rectángulo_292460" data-name="Rectángulo 292460" width="19.894" height="1.544" transform="matrix(0.982, -0.188, 0.188, 0.982, 55.123, 27.423)" fill="#d1d2d3"/>
        <rect id="Rectángulo_292461" data-name="Rectángulo 292461" width="19.894" height="1.544" transform="matrix(0.982, -0.188, 0.188, 0.982, 55.986, 31.923)" fill="#d1d2d3"/>
        <rect id="Rectángulo_292462" data-name="Rectángulo 292462" width="19.894" height="1.545" transform="matrix(0.982, -0.188, 0.188, 0.982, 56.849, 36.423)" fill="#d1d2d3"/>
        <rect id="Rectángulo_292463" data-name="Rectángulo 292463" width="19.894" height="1.544" transform="matrix(0.982, -0.188, 0.188, 0.982, 57.712, 40.924)" fill="#d1d2d3"/>
        <rect id="Rectángulo_292464" data-name="Rectángulo 292464" width="19.894" height="1.545" transform="matrix(0.982, -0.188, 0.188, 0.982, 58.576, 45.424)" fill="#d1d2d3"/>
        <rect id="Rectángulo_292465" data-name="Rectángulo 292465" width="70.615" height="56.301" transform="matrix(0.126, -0.992, 0.992, 0.126, 69.123, 70.051)" fill="#efeeee"/>
        <rect id="Rectángulo_292466" data-name="Rectángulo 292466" width="3.09" height="35.961" transform="translate(87.073 9.553) rotate(-82.748)" fill="#d1d2d3"/>
        <rect id="Rectángulo_292467" data-name="Rectángulo 292467" width="3.09" height="35.961" transform="translate(81.819 50.841) rotate(-82.748)" fill="#d1d2d3"/>
        <rect id="Rectángulo_292468" data-name="Rectángulo 292468" width="3.09" height="35.961" transform="translate(81.035 57.005) rotate(-82.748)" fill="#d1d2d3"/>
        <rect id="Rectángulo_292469" data-name="Rectángulo 292469" width="3.09" height="35.961" transform="translate(80.25 63.169) rotate(-82.748)" fill="#d1d2d3"/>
        <rect id="Rectángulo_292470" data-name="Rectángulo 292470" width="1.544" height="17.975" transform="translate(95.601 13.774) rotate(-82.748)" fill="#d1d2d3"/>
        <rect id="Rectángulo_292471" data-name="Rectángulo 292471" width="1.544" height="19.894" transform="translate(82.333 19.994) rotate(-82.748)" fill="#d1d2d3"/>
        <rect id="Rectángulo_292472" data-name="Rectángulo 292472" width="1.544" height="19.894" transform="translate(81.754 24.54) rotate(-82.748)" fill="#d1d2d3"/>
        <rect id="Rectángulo_292473" data-name="Rectángulo 292473" width="1.545" height="19.894" transform="translate(81.176 29.086) rotate(-82.749)" fill="#d1d2d3"/>
        <rect id="Rectángulo_292474" data-name="Rectángulo 292474" width="1.545" height="19.894" transform="translate(80.597 33.632) rotate(-82.749)" fill="#d1d2d3"/>
        <rect id="Rectángulo_292475" data-name="Rectángulo 292475" width="1.545" height="19.894" transform="translate(80.019 38.178) rotate(-82.749)" fill="#d1d2d3"/>
        <rect id="Rectángulo_292476" data-name="Rectángulo 292476" width="1.545" height="19.894" transform="translate(79.44 42.724) rotate(-82.749)" fill="#d1d2d3"/>
        <rect id="Rectángulo_292477" data-name="Rectángulo 292477" width="1.545" height="19.894" transform="translate(106.148 23.025) rotate(-82.749)" fill="#d1d2d3"/>
        <rect id="Rectángulo_292478" data-name="Rectángulo 292478" width="1.545" height="19.894" transform="translate(105.57 27.571) rotate(-82.749)" fill="#d1d2d3"/>
        <rect id="Rectángulo_292479" data-name="Rectángulo 292479" width="1.545" height="19.894" transform="translate(104.991 32.117) rotate(-82.749)" fill="#d1d2d3"/>
        <rect id="Rectángulo_292480" data-name="Rectángulo 292480" width="1.545" height="19.894" transform="translate(104.413 36.663) rotate(-82.749)" fill="#d1d2d3"/>
        <rect id="Rectángulo_292481" data-name="Rectángulo 292481" width="1.545" height="19.894" transform="translate(103.835 41.208) rotate(-82.749)" fill="#d1d2d3"/>
        <rect id="Rectángulo_292482" data-name="Rectángulo 292482" width="1.544" height="19.894" transform="translate(103.256 45.754) rotate(-82.748)" fill="#d1d2d3"/>
        <path id="Trazado_600162" data-name="Trazado 600162" d="M147.55,183.507,43.341,184.73a5.023,5.023,0,0,1-5.035-4.335l-9.2-66.621a5.023,5.023,0,0,1,4.916-5.71l121.046-1.42a5.022,5.022,0,0,1,5.049,5.593l-7.635,66.819a5.023,5.023,0,0,1-4.932,4.452" transform="translate(-14.934 -54.808)" fill="#ffff5f"/>
        <path id="Trazado_600163" data-name="Trazado 600163" d="M147.586,186.541,43.377,187.764a5.023,5.023,0,0,1-5.035-4.335l-9.2-66.621a5.023,5.023,0,0,1,4.916-5.71l121.046-1.42a5.023,5.023,0,0,1,5.049,5.593l-7.635,66.819a5.023,5.023,0,0,1-4.932,4.452" transform="translate(-14.952 -56.367)" fill="#ffd600"/>
        <g id="Grupo_876861" data-name="Grupo 876861" transform="translate(46.914 24.428)" opacity="0.34">
          <g id="Grupo_876860" data-name="Grupo 876860">
            <g id="Grupo_876859" data-name="Grupo 876859" clip-path="url(#clip-path-5)">
              <path id="Trazado_600164" data-name="Trazado 600164" d="M128.969,111.943A30.863,30.863,0,1,0,96.561,82.707a30.863,30.863,0,0,0,32.408,29.236" transform="translate(-96.52 -50.257)" fill="#fffad2"/>
            </g>
          </g>
        </g>
        <rect id="Rectángulo_292484" data-name="Rectángulo 292484" width="7.429" height="17.335" transform="translate(102.46 81.801) rotate(-47.946)" fill="#00628d"/>
        <rect id="Rectángulo_292485" data-name="Rectángulo 292485" width="7.429" height="7.324" transform="matrix(0.67, -0.743, 0.743, 0.67, 106.177, 85.154)" fill="#2190c7"/>
        <path id="Trazado_600165" data-name="Trazado 600165" d="M230.48,187.034a3.817,3.817,0,0,1-.278-5.392l8.582-9.513a3.817,3.817,0,0,1,5.391-.278l31.411,28.577-13.9,15Z" transform="translate(-117.806 -87.817)" fill="#2190c7"/>
        <path id="Trazado_600166" data-name="Trazado 600166" d="M301.462,251.59l-5.437-4.9,13.9-15,5.236,4.723a3.817,3.817,0,0,1,.278,5.392l-8.582,9.513a3.817,3.817,0,0,1-5.391.278" transform="translate(-152.14 -119.073)" fill="#00628d"/>
        <path id="Trazado_600167" data-name="Trazado 600167" d="M244.825,172.13l-3.851,4.269,34.186,31.013,6.468-6.983-31.411-28.577a3.817,3.817,0,0,0-5.391.278" transform="translate(-123.847 -87.817)" fill="#5ec4e8"/>
        <path id="Trazado_600168" data-name="Trazado 600168" d="M319.45,246.055l3.838-4.255a3.817,3.817,0,0,0-.278-5.392l-5.236-4.723-6.468,6.983Z" transform="translate(-159.994 -119.073)" fill="#2190c7"/>
        <path id="Trazado_600169" data-name="Trazado 600169" d="M80.884,75.037a38.488,38.488,0,1,0,36.46-40.415,38.488,38.488,0,0,0-36.46,40.415m69.259-3.564a30.863,30.863,0,1,1-32.408-29.236,30.863,30.863,0,0,1,32.408,29.236" transform="translate(-41.543 -17.767)" fill="#2190c7"/>
        <path id="Trazado_600170" data-name="Trazado 600170" d="M110.542,85.252c-.7-9.743,10.8-25.784,27.928-23.536" transform="translate(-56.797 -31.609)" fill="none" stroke="#c4ffff" stroke-linecap="round" stroke-miterlimit="10" stroke-width="12.352"/>
        <g id="Grupo_876864" data-name="Grupo 876864" transform="translate(70.128 29.331)" opacity="0.12">
          <g id="Grupo_876863" data-name="Grupo 876863">
            <g id="Grupo_876862" data-name="Grupo 876862" clip-path="url(#clip-path-6)">
              <path id="Trazado_600171" data-name="Trazado 600171" d="M168.608,60.345c7.688,23.2-5.082,45.473-24.33,55.869a30.863,30.863,0,0,0,24.33-55.869" transform="translate(-144.278 -60.345)" fill="#00a3ff"/>
            </g>
          </g>
        </g>
        <path id="Trazado_600172" data-name="Trazado 600172" d="M171.966,73.369a30.886,30.886,0,0,1-38.473,31.494,51.783,51.783,0,0,1-10.2,4.188,38.489,38.489,0,1,0,29.477-70.79,51.047,51.047,0,0,1,5.053,10.734,30.815,30.815,0,0,1,14.143,24.375" transform="translate(-63.366 -19.664)" fill="#00628d"/>
        <path id="Trazado_600173" data-name="Trazado 600173" d="M91.232,80.037a33.453,33.453,0,1,0,31.69-35.128,33.453,33.453,0,0,0-31.69,35.128m64.231-3.305A30.863,30.863,0,1,1,123.056,47.5a30.863,30.863,0,0,1,32.408,29.236" transform="translate(-46.865 -23.057)" fill="#5ec4e8"/>
      </g>
    </g>
  </g>
</svg>
