<svg xmlns="http://www.w3.org/2000/svg" width="200" height="150" viewBox="0 0 200 150">
  <g id="Grupo_877541" data-name="Grupo 877541" transform="translate(-383 -1867.434)">
    <g id="Grupo_877337" data-name="Grupo 877337">
      <g id="Grupo_877171" data-name="Grupo 877171" transform="translate(383.457 1866.996)">
        <rect id="Rectángulo_291466" data-name="Rectángulo 291466" width="200" height="108" transform="translate(-0.457 24.437)" fill="none"/>
        <g id="Grupo_874624" data-name="Grupo 874624" transform="translate(0 33.708)">
          <g id="Grupo_874620" data-name="Grupo 874620" transform="translate(39.728 39.728) rotate(180)">
            <ellipse id="Elipse_4713" data-name="Elipse 4713" cx="3" cy="3.5" rx="3" ry="3.5" transform="translate(0.185 -0.001)" fill="#f3ab1d"/>
            <ellipse id="Elipse_4717" data-name="Elipse 4717" cx="3" cy="3.5" rx="3" ry="3.5" transform="translate(0.185 16.999)" fill="#f3ab1d"/>
            <circle id="Elipse_4719" data-name="Elipse 4719" cx="3" cy="3" r="3" transform="translate(0.185 33.999)" fill="#f3ab1d"/>
            <circle id="Elipse_4715" data-name="Elipse 4715" cx="3.5" cy="3.5" r="3.5" transform="translate(17.185 -0.001)" fill="#f3ab1d"/>
            <ellipse id="Elipse_4720" data-name="Elipse 4720" cx="4" cy="3.5" rx="4" ry="3.5" transform="translate(32.185 -0.001)" fill="#f3ab1d"/>
            <circle id="Elipse_4716" data-name="Elipse 4716" cx="3.5" cy="3.5" r="3.5" transform="translate(17.185 16.999)" fill="#f3ab1d"/>
            <ellipse id="Elipse_4721" data-name="Elipse 4721" cx="4" cy="3.5" rx="4" ry="3.5" transform="translate(32.185 16.999)" fill="#f3ab1d"/>
            <ellipse id="Elipse_4718" data-name="Elipse 4718" cx="3.5" cy="3" rx="3.5" ry="3" transform="translate(17.185 33.999)" fill="#f3ab1d"/>
            <ellipse id="Elipse_4722" data-name="Elipse 4722" cx="4" cy="3" rx="4" ry="3" transform="translate(32.185 33.999)" fill="#f3ab1d"/>
          </g>
          <g id="Grupo_874621" data-name="Grupo 874621" transform="translate(39.728 91.496) rotate(180)">
            <ellipse id="Elipse_4713-2" data-name="Elipse 4713" cx="3" cy="3.5" rx="3" ry="3.5" transform="translate(0.185 -0.233)" fill="#f3ab1d"/>
            <ellipse id="Elipse_4717-2" data-name="Elipse 4717" cx="3" cy="3.5" rx="3" ry="3.5" transform="translate(0.185 16.767)" fill="#f3ab1d"/>
            <ellipse id="Elipse_4719-2" data-name="Elipse 4719" cx="3" cy="3.5" rx="3" ry="3.5" transform="translate(0.185 33.767)" fill="#f3ab1d"/>
            <circle id="Elipse_4715-2" data-name="Elipse 4715" cx="3.5" cy="3.5" r="3.5" transform="translate(17.185 -0.233)" fill="#f3ab1d"/>
            <ellipse id="Elipse_4720-2" data-name="Elipse 4720" cx="4" cy="3.5" rx="4" ry="3.5" transform="translate(32.185 -0.233)" fill="#f3ab1d"/>
            <circle id="Elipse_4716-2" data-name="Elipse 4716" cx="3.5" cy="3.5" r="3.5" transform="translate(17.185 16.767)" fill="#f3ab1d"/>
            <ellipse id="Elipse_4721-2" data-name="Elipse 4721" cx="4" cy="3.5" rx="4" ry="3.5" transform="translate(32.185 16.767)" fill="#f3ab1d"/>
            <circle id="Elipse_4718-2" data-name="Elipse 4718" cx="3.5" cy="3.5" r="3.5" transform="translate(17.185 33.767)" fill="#f3ab1d"/>
            <ellipse id="Elipse_4722-2" data-name="Elipse 4722" cx="4" cy="3.5" rx="4" ry="3.5" transform="translate(32.185 33.767)" fill="#f3ab1d"/>
          </g>
        </g>
        <g id="Grupo_874623" data-name="Grupo 874623" transform="translate(26.486 0)">
          <circle id="Elipse_4723" data-name="Elipse 4723" cx="75" cy="75" r="75" transform="translate(0.057 0.438)" fill="#fff"/>
          <path id="Trazado_596604" data-name="Trazado 596604" d="M66.951,0A66.951,66.951,0,1,1,0,66.951,66.951,66.951,0,0,1,66.951,0Z" transform="translate(7.33 8.373)" fill="#d9e9f1" opacity="0.7"/>
        </g>
        <g id="Grupo_874622" data-name="Grupo 874622" transform="translate(163.264 96.412)">
          <g id="Grupo_151688" data-name="Grupo 151688" transform="translate(0 7.128)">
            <path id="Trazado_212295" data-name="Trazado 212295" d="M-11425.02-11468v14.257" transform="translate(11432.146 11467.997)" fill="none" stroke="#26779f" stroke-width="4"/>
            <path id="Trazado_212296" data-name="Trazado 212296" d="M0,0V14.255" transform="translate(14.255 7.128) rotate(90)" fill="none" stroke="#26779f" stroke-width="4"/>
          </g>
          <g id="Grupo_151689" data-name="Grupo 151689" transform="translate(18.532 0)">
            <path id="Trazado_212295-2" data-name="Trazado 212295" d="M-11425.02-11468v14.257" transform="translate(11432.146 11467.997)" fill="none" stroke="#26779f" stroke-width="4"/>
            <path id="Trazado_212296-2" data-name="Trazado 212296" d="M0,0V14.255" transform="translate(14.255 7.128) rotate(90)" fill="none" stroke="#26779f" stroke-width="4"/>
          </g>
          <g id="Grupo_151690" data-name="Grupo 151690" transform="translate(21.621 21.383)">
            <path id="Trazado_212295-3" data-name="Trazado 212295" d="M-11425.02-11468v14.257" transform="translate(11432.146 11467.997)" fill="none" stroke="#26779f" stroke-width="4"/>
            <path id="Trazado_212296-3" data-name="Trazado 212296" d="M0,0V14.255" transform="translate(14.255 7.128) rotate(90)" fill="none" stroke="#26779f" stroke-width="4"/>
          </g>
        </g>
      </g>
      <g id="tarea-completada" transform="translate(441.262 1894.196)">
        <path id="Trazado_601973" data-name="Trazado 601973" d="M5.893,16H70.718a5.893,5.893,0,0,1,5.893,5.893v79.558a5.893,5.893,0,0,1-5.893,5.893H5.893A5.893,5.893,0,0,1,0,101.451V21.893A5.893,5.893,0,0,1,5.893,16Zm0,0" transform="translate(0 -13.054)" fill="#ecce93"/>
        <path id="Trazado_601974" data-name="Trazado 601974" d="M32,108.152V48H96.824v79.558H51.406Zm0,0" transform="translate(-26.107 -39.16)" fill="#efefef"/>
        <path id="Trazado_601975" data-name="Trazado 601975" d="M51.406,374.625v19.406L32,374.625Zm0,0" transform="translate(-26.107 -305.634)" fill="#e76e54"/>
        <path id="Trazado_601976" data-name="Trazado 601976" d="M128,11.786V0h29.466V11.786a5.893,5.893,0,0,1-5.893,5.893H133.893A5.893,5.893,0,0,1,128,11.786Zm0,0" transform="translate(-104.427 0)" fill="#e76e54"/>
        <path id="Trazado_601977" data-name="Trazado 601977" d="M277.038,250.519A26.519,26.519,0,1,1,250.519,224,26.52,26.52,0,0,1,277.038,250.519Zm0,0" transform="translate(-182.748 -182.748)" fill="#5ad1a5"/>
        <g id="Grupo_877329" data-name="Grupo 877329" transform="translate(17.679 23.572)">
          <path id="Trazado_601979" data-name="Trazado 601979" d="M162.947,128h23.573a2.947,2.947,0,0,1,0,5.893H162.947a2.947,2.947,0,1,1,0-5.893Zm0,0" transform="translate(-148.214 -128)" fill="#77959e"/>
          <path id="Trazado_601980" data-name="Trazado 601980" d="M96,128h5.893v5.893H96Zm0,0" transform="translate(-96 -128)" fill="#77959e"/>
          <path id="Trazado_601981" data-name="Trazado 601981" d="M96,192h5.893v5.893H96Zm0,0" transform="translate(-96 -180.214)" fill="#77959e"/>
          <path id="Trazado_601982" data-name="Trazado 601982" d="M96,256h5.893v5.893H96Zm0,0" transform="translate(-96 -232.427)" fill="#77959e"/>
          <path id="Trazado_601983" data-name="Trazado 601983" d="M96,320h5.893v5.893H96Zm0,0" transform="translate(-96 -284.641)" fill="#77959e"/>
          <path id="Trazado_601984" data-name="Trazado 601984" d="M162.947,192h17.679a2.947,2.947,0,0,1,0,5.893H162.947a2.947,2.947,0,1,1,0-5.893Zm0,0" transform="translate(-148.214 -180.214)" fill="#77959e"/>
          <path id="Trazado_601985" data-name="Trazado 601985" d="M162.947,256h5.893a2.947,2.947,0,0,1,0,5.893h-5.893a2.947,2.947,0,0,1,0-5.893Zm0,0" transform="translate(-148.214 -232.427)" fill="#77959e"/>
        </g>
      </g>
      <text id="APA" transform="translate(509 1969)" fill="#fff" font-size="21" font-family="Roboto-Bold, Roboto" font-weight="700" letter-spacing="0.02em"><tspan x="-20.41" y="0">APA</tspan></text>
    </g>
  </g>
</svg>
