<svg xmlns="http://www.w3.org/2000/svg" xmlns:xlink="http://www.w3.org/1999/xlink" width="295" height="254.003" viewBox="0 0 295 254.003">
  <defs>
    <clipPath id="clip-path">
      <rect id="Rectángulo_293581" data-name="Rectángulo 293581" width="155.604" height="243.088" fill="none"/>
    </clipPath>
    <clipPath id="clip-path-2">
      <rect id="Rectángulo_293584" data-name="Rectángulo 293584" width="83.551" height="83.551" transform="translate(0 0)" fill="#1b5b7b"/>
    </clipPath>
  </defs>
  <g id="Grupo_877345" data-name="Grupo 877345" transform="translate(-285 -961)">
    <path id="Trazado_602002" data-name="Trazado 602002" d="M89.305,230.214S48.984,167.166,77.257,108.353c10.55-21.946,37.484-34.269,62.243-24.271,14.624,5.905,36.8,5.034,58.475-47.018C227.53-33.92,350.213-1.643,326.266,122.725c-10.087,52.387,27.51,54.771,8.887,107.6Z" transform="translate(229.786 984.324)" fill="#d9e9f1"/>
    <path id="Trazado_602003" data-name="Trazado 602003" d="M336.613,345.624,248.786,419.1l-46.21-39.366c-8.649,7.616-22.006,19.371-35.444,31.168-9.183,8.062-50.987,51.939-57.013,57.21H84.231V451.59s85.407-79.577,108.36-99.81l9.653-8.509,46.712,39.794,68.563-57.36Z" transform="translate(200.769 746.243)" fill="#f3ab1d"/>
    <path id="Trazado_602004" data-name="Trazado 602004" d="M1245.534,247.535l41.829,41.957,11.816-47.929Z" transform="translate(-738.363 815.378)" fill="#f3ab1d"/>
    <path id="Trazado_602005" data-name="Trazado 602005" d="M437.1,692.368a77.594,77.594,0,0,0-.9-9.514c-.642-3.715-1.221-5.852-1.228-5.875-.085-.327-1.307-1.649-4.026-1.608s-2.461,1.774-2.461,1.774a.561.561,0,0,0,.019.154,83.2,83.2,0,0,1,2.414,20.819c0,.164-.02.448-.008.636,0,0,6.3.163,6.3,0a31.378,31.378,0,0,0-.116-6.386" transform="translate(-67.057 495.816)" fill="#7398e6"/>
    <path id="Trazado_602006" data-name="Trazado 602006" d="M441.135,698.06c0,.163-.088.293-.193.293h0c-.1,0-.188-.133-.189-.293h-5.4c0,.163-.088.293-.193.293h0c-.107,0-.191-.137-.19-.3a81.553,81.553,0,0,0-.448-9.222,72.462,72.462,0,0,0-2.063-11.53.571.571,0,0,1-.02-.154s-.258-1.734,2.46-1.774,3.942,1.281,4.026,1.608c.005.017.333,1.228.768,3.4.144.721.3,1.547.46,2.471a77.688,77.688,0,0,1,.9,9.514,24.546,24.546,0,0,1,.089,5.692" transform="translate(-70.295 495.816)" fill="#80b4ff"/>
    <path id="Trazado_602007" data-name="Trazado 602007" d="M444.412,796.262h21.165s-.493-1.995-12.751-1.7c-8.674.21-8.415,1.7-8.415,1.7" transform="translate(-80.14 397.908)" fill="#80b4ff"/>
    <path id="Trazado_602008" data-name="Trazado 602008" d="M434.758,826.477c2.454-12.423,1.823-20.047,1.82-20.143-.006-.191.346-.365.536-.371s1.039-.056,1.137.107a55,55,0,0,1-3.035,20.406Z" transform="translate(-72.209 388.525)" fill="#80b4ff"/>
    <path id="Trazado_602009" data-name="Trazado 602009" d="M529.018,826.477c-2.454-12.423-1.823-20.047-1.82-20.143.006-.191-.346-.365-.536-.371s-1.039-.056-1.137.107a55,55,0,0,0,3.035,20.406Z" transform="translate(-146.707 388.525)" fill="#80b4ff"/>
    <path id="Trazado_602010" data-name="Trazado 602010" d="M550.974,826.477c-2.454-12.423-1.823-20.047-1.82-20.143.006-.191-.346-.365-.536-.371s-1.039-.056-1.137.107a55,55,0,0,0,3.035,20.406Z" transform="translate(-164.747 388.525)" fill="#7398e6"/>
    <path id="Trazado_602011" data-name="Trazado 602011" d="M456.861,826.477c2.454-12.423,1.823-20.047,1.82-20.143-.006-.191.346-.365.536-.371s1.039-.056,1.137.107a55,55,0,0,1-3.035,20.406Z" transform="translate(-90.369 388.525)" fill="#7398e6"/>
    <path id="Trazado_602012" data-name="Trazado 602012" d="M463.569,802.482h-21a.52.52,0,0,1-.518-.519v-.115a.52.52,0,0,1,.519-.519h21a.52.52,0,0,1,.518.519v.115a.52.52,0,0,1-.518.519" transform="translate(-78.204 392.324)" fill="#7398e6"/>
    <path id="Trazado_602013" data-name="Trazado 602013" d="M553.373,693.612l7.035-1.524.414,1.01s-7.763,4.619-8.49,4.393,1.04-3.879,1.04-3.879" transform="translate(-168.667 482.08)" fill="#ffb27d"/>
    <path id="Trazado_602014" data-name="Trazado 602014" d="M522.373,853.18a.625.625,0,0,0-.111.669,0,0,0,0,0,0,0,4.156,4.156,0,0,0,1.313,1.44c.079.064.149.122.211.175l.047.042.036.033c.577.532.36.654,1.4,1.733,1.182,1.23,2,1.252,2.228,1.14.2-.1-.2-.748-.643-1.481l-.064-.107-.175-.294c-.517-.883-.384-1.3-.262-2.61.1-1.067,1.66-5.963,1.66-5.963l-2.266-.39s-.682,3.9-1.434,4.5c-.4.32-.852.324-1.238.561l-.081.051a2.985,2.985,0,0,0-.62.5" transform="translate(-144.063 354.33)" fill="#e98c94"/>
    <path id="Trazado_602015" data-name="Trazado 602015" d="M522.373,876.485a.625.625,0,0,0-.111.669,0,0,0,0,0,0,0,4.81,4.81,0,0,0,1.315,1.435c.078.065.147.125.209.18l.047.042.036.033c.577.532.36.654,1.4,1.733,1.182,1.23,2,1.252,2.228,1.14.2-.1-.2-.748-.643-1.481a5.038,5.038,0,0,1-2.107-1.553c-.712-.908-1.187-2.076-1.671-2.752-.027.017-.054.033-.081.051a2.977,2.977,0,0,0-.62.5" transform="translate(-144.063 331.025)" fill="#2c2c2c"/>
    <path id="Trazado_602016" data-name="Trazado 602016" d="M617.186,848.59c.14.7,1.137.583,2.25.31s.849.051,2.434-.124,2.065-.767,2.113-1c.043-.209-.74-.283-1.58-.38l-.318-.038a6.861,6.861,0,0,1-2.5-1.234,10.061,10.061,0,0,1-2.034-2.416l-2.174.172s1.141,1.733,1.582,2.486a2.629,2.629,0,0,1,.213,1.482,2.791,2.791,0,0,0,.017.744" transform="translate(-220.607 357.506)" fill="#ffccbe"/>
    <path id="Trazado_602017" data-name="Trazado 602017" d="M627.629,865.886c1.114-.272.849.051,2.434-.124s2.065-.766,2.114-1c.043-.209-.74-.283-1.58-.38l-.008.016a4.468,4.468,0,0,1-2.27.706c-1.075.026-2.214-.282-2.957-.27a2.785,2.785,0,0,0,.017.744c.14.7,1.137.583,2.25.31" transform="translate(-228.8 340.521)" fill="#2c2c2c"/>
    <path id="Trazado_602018" data-name="Trazado 602018" d="M598.416,685.153s.518-1.269,1.088-1.321,2.383-.337,2.512-.078a1.792,1.792,0,0,1-.388,1.528,13.854,13.854,0,0,1-2.8.88Z" transform="translate(-206.674 489.016)" fill="#ffb27d"/>
    <path id="Trazado_602019" data-name="Trazado 602019" d="M544.48,777.106,539.8,789.714a4.29,4.29,0,0,1-1.41-.129,6.063,6.063,0,0,1-1.363-.663s1.162-12.106,3.293-14.624,4.164,2.809,4.164,2.809" transform="translate(-156.232 415.091)" fill="#5dd782"/>
    <path id="Trazado_602020" data-name="Trazado 602020" d="M463,747.433s13.462-4.552,16.464-3.583,12.016,18.9,12.016,18.9a1.741,1.741,0,0,1-.758.479,7.162,7.162,0,0,1-1.767.181s-8.135-6.973-9.1-9.007-1.356-3.971-2.324-3.777-12.493,4.746-15.108,2.034a7.547,7.547,0,0,1-1.931-6.235Z" transform="translate(-93.285 439.662)" fill="#81e3a5"/>
    <path id="Trazado_602021" data-name="Trazado 602021" d="M466.5,582.186a3.264,3.264,0,0,0-1.767-.338.828.828,0,0,1,.373-.177,2.739,2.739,0,0,0-.978.255c-4.207-1.621-4.869,4.574-4.78,6.013s.1,3.1-2,4.386c-4.132,2.54-.646,6.973-.646,6.973.033.019,1.923,3.225,1.923,3.225-.106-1.163,5.26-7.3,8.06-9.139a8.093,8.093,0,0,0,.942-2.916,7.657,7.657,0,0,1-.573,2.638c2.371-2.182.991-10.045-.552-10.921" transform="translate(-89.11 572.813)" fill="#9b5265"/>
    <path id="Trazado_602022" data-name="Trazado 602022" d="M499.811,628.824a3.879,3.879,0,0,1-2.379.435,3.087,3.087,0,0,1-1.584-1.519c.409-.081.527-.644.519-3.06l.185.036,3.111.616s-.071.979-.073,1.9c0,.774.045,1.509.222,1.591" transform="translate(-122.401 537.465)" fill="#ffccbe"/>
    <path id="Trazado_602023" data-name="Trazado 602023" d="M502.9,625.5s-.071.979-.073,1.9c-1.741-.049-2.661-1.637-3.038-2.517Z" transform="translate(-125.642 537.297)" fill="#e98c94"/>
    <path id="Trazado_602024" data-name="Trazado 602024" d="M492.658,593.545a9.149,9.149,0,0,1-1.131-2.674c-.156-.88.292-4.141,3.569-3.672a4.45,4.45,0,0,1,1.847.7c.712.481,1.739,1.518.59,4.364l-.3.961Z" transform="translate(-118.83 568.297)" fill="#9b5265"/>
    <path id="Trazado_602025" data-name="Trazado 602025" d="M501.294,601.221s-4.119.068-4.121-2.5-.536-4.285,2.093-4.436,3.141.826,3.351,1.683-.251,5.167-1.322,5.251" transform="translate(-123.452 562.448)" fill="#ffccbe"/>
    <path id="Trazado_602026" data-name="Trazado 602026" d="M495.042,591.606s-1.128,3.01-2.858,3.455a3.409,3.409,0,0,1-2.481-.018,4.9,4.9,0,0,0,1.6-2.9s2.886-1.973,3.736-.541" transform="translate(-117.353 565.066)" fill="#9b5265"/>
    <path id="Trazado_602027" data-name="Trazado 602027" d="M518.069,593.117a3.637,3.637,0,0,1,1.047,1.325c.205.653.3,2,.69,1.952,0,0,.849-2.046-.105-3.2-1.012-1.227-1.632-.075-1.632-.075" transform="translate(-140.659 563.801)" fill="#9b5265"/>
    <path id="Trazado_602028" data-name="Trazado 602028" d="M458.511,653.992c-.406-1.7.976-5.008,2.418-7.745a21.381,21.381,0,0,1,2.789-4.419c3.452,2.049,3.764.345,3.764.345h0s3.136.416,4.023,1.944c1.1,1.9,2.291,7.195,3.473,8.2a2.225,2.225,0,0,0,.089,1.539q.062.221.137.421a8.105,8.105,0,0,0,.593,1.218c-.6.365-1.761,1.059-2.615.56-1.3-.763-2.32-3.084-2.892-4.009l-.006-.01c-1.244,7.039.447,8.643-.409,9.385-.9.784-2.2-.373-5.036.858a27.167,27.167,0,0,1-6.19,2.18c-.913.107-1.594-.052-1.816-.668-.646-1.792,2.454-6.551,1.679-9.8" transform="translate(-90.272 523.377)" fill="#4c4b73"/>
    <path id="Trazado_602029" data-name="Trazado 602029" d="M515.358,623.554s.077.326.888.276c0,0,.681-.042.66-.4a2.19,2.19,0,0,0-1.547.124" transform="translate(-138.432 538.561)" fill="#ecf1f9"/>
    <path id="Trazado_602030" data-name="Trazado 602030" d="M456.832,698.784c.222.617.9.775,1.816.668,1.2-.525,6.41-2.541,6.351-3.908-.086-2.023-1-2.087-.355-4.584.518-2-4.291-5.733-5.058-6.543-1.442,2.736-1.482,2.866-1.076,4.569.775,3.247-2.325,8.006-1.679,9.8" transform="translate(-90.272 488.383)" fill="#3a3a5b"/>
    <path id="Trazado_602031" data-name="Trazado 602031" d="M452.035,656.5a7.631,7.631,0,0,1,2.517-2.326c-.146-.375,3.883-5.313,3.883-6.079s1.075-6.262,1.075-6.262-3.356.207-4.518,1.828c-1.453,2.027-4.472,9.827-2.956,12.839" transform="translate(-86.063 523.371)" fill="#4c4b73"/>
    <path id="Trazado_602032" data-name="Trazado 602032" d="M456.262,711.015l6.707,1.75-.63,1.13s-8.162-.057-8.595-.554,2.517-2.326,2.517-2.326" transform="translate(-87.773 466.529)" fill="#ffccbe"/>
    <path id="Trazado_602033" data-name="Trazado 602033" d="M532.69,699.116c.572.924,1.589,3.246,2.892,4.009.855.5,2.015-.2,2.616-.56a8.088,8.088,0,0,1-.593-1.218c-.479.11-1.065.25-1.442.364-.734.222-3.472-2.594-3.472-2.594" transform="translate(-152.672 476.306)" fill="#163560"/>
    <path id="Trazado_602034" data-name="Trazado 602034" d="M502.758,718.626a10.3,10.3,0,0,1,2.608-.457c.5.139,2.221,1.278,1.979,1.587s-1.756-.185-2.453-.092-1.236.437-1.737.363a5.844,5.844,0,0,1-1.026-.271Z" transform="translate(-127.562 460.668)" fill="#ffccbe"/>
    <path id="Trazado_602035" data-name="Trazado 602035" d="M505.658,716.888a7.9,7.9,0,0,0,1.324-.831.082.082,0,0,1,.128.015c.078.124.152.363-.209.6a1.944,1.944,0,0,1-1.242.215" transform="translate(-130.462 462.405)" fill="#ffccbe"/>
    <path id="Trazado_602036" data-name="Trazado 602036" d="M514.964,733.831h-9.827a.783.783,0,0,1,.783-.783h9.043Z" transform="translate(-130.034 448.426)" fill="#fcba64"/>
    <path id="Trazado_602037" data-name="Trazado 602037" d="M542.83,677.441h15.193l-3.644,10.7H539.087Z" transform="translate(-157.928 494.114)" fill="#fcba64"/>
    <path id="Trazado_602038" data-name="Trazado 602038" d="M559.278,677.442l-3.645,10.7H540.343l3.742-10.7Z" transform="translate(-158.96 494.113)" fill="#ffd186"/>
    <path id="Trazado_602039" data-name="Trazado 602039" d="M593.665,703.475a.987.987,0,0,1-.911.74.57.57,0,0,1-.569-.74.988.988,0,0,1,.911-.74.57.57,0,0,1,.569.74" transform="translate(-201.538 473.332)" fill="#ecf1f9"/>
    <path id="Trazado_602040" data-name="Trazado 602040" d="M583.066,677.442l-3.644,10.7H569.295c6.708-2.29,8.494-9.271,8.793-10.7Z" transform="translate(-182.748 494.113)" fill="#fcba64"/>
    <path id="Trazado_602041" data-name="Trazado 602041" d="M397.937,777.785a.393.393,0,0,0,.389-.319l1.908-10.816,2.745-15.555.768-4.35-1.955-.056-.339,2.525-2.382,17.745-1.412,10.518a.275.275,0,0,0,.278.308" transform="translate(-41.725 437.219)" fill="#ecf1f9"/>
    <path id="Trazado_602042" data-name="Trazado 602042" d="M418.937,749.214a2.805,2.805,0,0,1,1.527,1.881l.767-4.35-1.955-.056Z" transform="translate(-59.21 437.219)" fill="#ced1ec"/>
    <path id="Trazado_602043" data-name="Trazado 602043" d="M645.066,777.785a.393.393,0,0,1-.389-.319l-1.908-10.816-2.745-15.555-.767-4.35,1.955-.056.339,2.525,2.382,17.745,1.412,10.518a.275.275,0,0,1-.278.308" transform="translate(-240.229 437.219)" fill="#ecf1f9"/>
    <path id="Trazado_602044" data-name="Trazado 602044" d="M641.55,749.214a2.8,2.8,0,0,0-1.527,1.881l-.767-4.35,1.955-.056Z" transform="translate(-240.229 437.219)" fill="#ced1ec"/>
    <path id="Trazado_602045" data-name="Trazado 602045" d="M386.768,740.843H436.14a1.542,1.542,0,0,0,1.537-1.537v-.341a1.542,1.542,0,0,0-1.538-1.537H386.768a1.542,1.542,0,0,0-1.537,1.537v.341a1.542,1.542,0,0,0,1.537,1.537" transform="translate(-31.516 444.827)" fill="#ecf1f9"/>
    <path id="Trazado_602046" data-name="Trazado 602046" d="M294.647,916.835H.352A.353.353,0,0,1,0,916.482V916.4a.353.353,0,0,1,.352-.352h294.3a.353.353,0,0,1,.352.352v.078a.353.353,0,0,1-.352.352" transform="translate(285 298.065)" fill="#2e3552"/>
    <path id="Trazado_602047" data-name="Trazado 602047" d="M1084.7,727.223s-1.494,1.853-1.027,2.106,1.7.725,1.992.427a8.63,8.63,0,0,0,.382-2.481Z" transform="translate(-585.697 448.128)" fill="#ffccbe"/>
    <path id="Trazado_602048" data-name="Trazado 602048" d="M1083.468,727.373a2.195,2.195,0,0,0-.851.53c-.24.317-.772.8-.641.936s.893-.459.893-.459Z" transform="translate(-584.401 448.009)" fill="#ffccbe"/>
    <path id="Trazado_602049" data-name="Trazado 602049" d="M1094.571,606.647s-1.684,15.672-1.833,16.119c-.033.1-.165.593-.351,1.307-.265,1.019-.639,2.484-.995,3.877-.536,2.1-1.027,4.046-1.027,4.046l-1.462-.482s-.075-7.616.3-9.37,1.579-12.529,2.187-13.98,3.181-1.518,3.181-1.518" transform="translate(-589.918 543.967)" fill="#80b4ff"/>
    <path id="Trazado_602050" data-name="Trazado 602050" d="M1057.422,747.97l-9.182-2.408a2.253,2.253,0,0,1-1.6-2.742l1.044-3.979a2.253,2.253,0,0,1,2.743-1.6l9.182,2.408a2.253,2.253,0,0,1,1.6,2.743l-1.043,3.979a2.253,2.253,0,0,1-2.743,1.6" transform="translate(-556.27 440.228)" fill="#5dd782"/>
    <path id="Trazado_602051" data-name="Trazado 602051" d="M1053.536,737.016l-1.055,4.025a2.26,2.26,0,0,0,.547,2.123,2.225,2.225,0,0,0,.6.454h0a2.193,2.193,0,0,0,.457.176l9.165,2.4a2.261,2.261,0,0,0,2.753-1.609l1.056-4.025a2.261,2.261,0,0,0-1.609-2.753l-3.156-.828.225-.859a.745.745,0,0,0-.531-.908l-.346-.091-1.92-.5-.477-.125a.744.744,0,0,0-.908.531l-.225.859-1.828-.48c-.073-.019-.144-.034-.216-.046h0a2.263,2.263,0,0,0-1.962.65h0a2.237,2.237,0,0,0-.572,1m8.312-.151-3.28-.86.225-.859a.278.278,0,0,1,.339-.2l.823.216,1.511.4.408.107a.279.279,0,0,1,.2.339Z" transform="translate(-560.915 442.366)" fill="#81e3a5"/>
    <path id="Trazado_602052" data-name="Trazado 602052" d="M1086.036,735.185s.408-.687.255-.927-.7.712-.7.712.376-.817.236-.952-.716.8-.716.8.358-.794.233-.821-.553.667-.553.667.222-.594.019-.566-.642.571-.642.571Z" transform="translate(-586.157 442.739)" fill="#ffccbe"/>
    <path id="Trazado_602053" data-name="Trazado 602053" d="M1099.064,663.24c-.265,1.019-.64,2.484-.995,3.877a15.068,15.068,0,0,1-.7-3.074c-.338-2.594.7-8.119.7-8.119Z" transform="translate(-596.596 504.799)" fill="#7398e6"/>
    <path id="Trazado_602054" data-name="Trazado 602054" d="M1196.065,724.082a12.942,12.942,0,0,1,1.829,1.735,8.876,8.876,0,0,1,.68,2.435c-.027.493-1.247-1.128-1.606-1.259s.375.665.292.836-.846-.386-1.137-.569-.5-1.419-.93-2.092.872-1.087.872-1.087" transform="translate(-674.338 450.625)" fill="#ffccbe"/>
    <path id="Trazado_602055" data-name="Trazado 602055" d="M1095.67,899.809h8.116c.581-.395-.157-4.25-.157-4.25s-2.215-.841-2.6.869-2.821,2.251-4.111,2.459a1.387,1.387,0,0,0-1.25.922" transform="translate(-595.302 314.491)" fill="#2c2c2c"/>
    <path id="Trazado_602056" data-name="Trazado 602056" d="M1154.339,899.809h8.116c.582-.395-.157-4.25-.157-4.25s-2.215-.841-2.6.869-2.821,2.251-4.111,2.459a1.389,1.389,0,0,0-1.25.922" transform="translate(-641.935 314.491)" fill="#2c2c2c"/>
    <path id="Trazado_602057" data-name="Trazado 602057" d="M1106.313,722.92s.365,4.551.794,10.022c.583,7.432,2.154,25.857,2.154,25.857s1.03.879,3.313.4a72.137,72.137,0,0,0,2.524-13.612c.009-.119.018-.239.027-.359.54-7.386,1.381-22.938,1.381-22.938Z" transform="translate(-603.762 452.049)" fill="#b66479"/>
    <path id="Trazado_602058" data-name="Trazado 602058" d="M1105.706,717.7s.489,6.124.918,11.595l7.991,12.644.027-.359c.54-7.386,1.381-22.938,1.381-22.938Z" transform="translate(-603.279 455.7)" fill="#9b5265"/>
    <path id="Trazado_602059" data-name="Trazado 602059" d="M1117.059,706.9s5.8,14.426,7.648,19.895c1.319,3.9,5.042,17.56,5.042,17.56a3.741,3.741,0,0,0,2.979-.459s1.385-13.961-1.412-17.9c-1.484-2.089-.369-21.71-6.385-21.878s-7.871,2.781-7.871,2.781" transform="translate(-612.303 466.499)" fill="#b66479"/>
    <path id="Trazado_602060" data-name="Trazado 602060" d="M1115.374,629.973c-2.416,1.364-12.769,1.333-13.249.263-1.071-2.39-1.34-14.532-.835-18.257,0,0,.262-5.724.835-5.471,3.824-1.757,10.014-.161,10.014-.161,1.669.492,1.526,4.305,1.991,9.661.059.69.126,1.409.2,2.153.329,3.307.809,7.107,1.537,11.114.048.264-.135.5-.494.7" transform="translate(-599.574 544.734)" fill="#80b4ff"/>
    <path id="Trazado_602061" data-name="Trazado 602061" d="M1125.176,589.423c-.064,1.024-1.4.908-3.005.541s-1.024-1.313-1.024-1.313.024-.727.125-1.6c.037-.317.083-.654.144-.981.028-.16.06-.318.1-.47.21-.9,3.207-.032,3.185.211-.059.654.415,2.807.478,3.611" transform="translate(-615.471 561.013)" fill="#ffccbe"/>
    <path id="Trazado_602062" data-name="Trazado 602062" d="M1123.918,609.008l-.127-1.414,1.777.335-.684,1.263Z" transform="translate(-617.654 543.215)" fill="#233862"/>
    <path id="Trazado_602063" data-name="Trazado 602063" d="M1117.614,598.773l-1.062,1.615a2.35,2.35,0,0,0,.922,1.715l1.452-1.352a2.611,2.611,0,0,1-1.312-1.977" transform="translate(-611.9 550.226)" fill="#7398e6"/>
    <path id="Trazado_602064" data-name="Trazado 602064" d="M1128.123,601.746a3.8,3.8,0,0,0,.882,1.576s2.267-.61,2.808-1.771l-1.181-1.525s-.057,1.153-2.509,1.72" transform="translate(-621.098 549.23)" fill="#7398e6"/>
    <path id="Trazado_602065" data-name="Trazado 602065" d="M1125.6,589.089a5.562,5.562,0,0,1-3.443.732c.037-.317.084-.654.145-.981.394-.1.725-.156.725-.156Z" transform="translate(-616.353 558.244)" fill="#e98c94"/>
    <path id="Trazado_602066" data-name="Trazado 602066" d="M1122.889,563.773c-.705,1.942-3.28,1.446-4.376,1.134-.308-.087-.5-.16-.5-.16-.339-.154-.443-.745-.414-1.491a11.556,11.556,0,0,1,.977-4.067c.5-.756,1.344-1.525,3.841-.454s1.376,2.552.471,5.039" transform="translate(-612.729 582.471)" fill="#ffccbe"/>
    <path id="Trazado_602067" data-name="Trazado 602067" d="M1126.089,557.412c-.788.643-2.481,1.833-2.481,1.833a3.074,3.074,0,0,0,.419-.864.845.845,0,0,0,.031-.293,1.611,1.611,0,0,1,.232-.9c.1-.167.14-.341.01-.464-.214-.2-.579-.017-.819.148a.484.484,0,0,1-.528.013l0,0c-.673-.422.069-1.165-.477-1.782s-2.916-.7-2.822-1.088c-.808-.457-.3-2.143-.284-2.232a8.738,8.738,0,0,0,2.609-.259,3.861,3.861,0,0,1,2.883.771.665.665,0,0,0-.065-.288.611.611,0,0,1,.175.381c.018.018.026.03.02.034a.78.78,0,0,1,.371.086s-.1-.032-.148.028a.072.072,0,0,1-.021.016c1.574,1.112,1.551,4.325.9,4.859" transform="translate(-614 587.835)" fill="#2c2c2c"/>
    <path id="Trazado_602068" data-name="Trazado 602068" d="M1120.53,582.372s-.126.245-.763.042c0,0-.534-.17-.446-.452a1.8,1.8,0,0,1,1.209.41" transform="translate(-614.093 563.591)" fill="#ecf1f9"/>
    <path id="Trazado_602069" data-name="Trazado 602069" d="M1118.992,614.487s-1.418,17.919-1.4,19.412a5.631,5.631,0,0,0,1.571,3.072,6.563,6.563,0,0,0,1.477-2.782c.242-1.428-.684-19.518-.684-19.518Z" transform="translate(-612.729 537.735)" fill="#2a4e96"/>
    <path id="Trazado_602070" data-name="Trazado 602070" d="M1155.125,608.919s2.289.548,4.1,4.024,3.239,10.488,4.1,12.339,1.456,7.679,1.456,7.679l-1.368.671s-3.3-5.973-3.791-7.932c-.264-1.06-4.3-9.543-4.3-9.543Z" transform="translate(-642.56 542.162)" fill="#80b4ff"/>
    <path id="Trazado_602071" data-name="Trazado 602071" d="M1158.637,666.19h0c-4.309-.62-3.075-14.885-2.737-14.942s1.577,2.55,1.577,2.55l.119.578c.33,3.307.809,7.107,1.537,11.114.048.264-.135.5-.494.7" transform="translate(-642.837 508.517)" fill="#7398e6"/>
    <path id="Trazado_602072" data-name="Trazado 602072" d="M1407.827,872.968s1.795,1.638,1.445,2.8-1.97,1.939-2.189,3.362-1.094,2.2-1.882,2.2h-3.756s-.58-1,.821-1.3,1.929-1.973,1.841-3.525a27.284,27.284,0,0,1,.131-3.62l2.976-.69Z" transform="translate(-838.251 332.899)" fill="#2c2c2c"/>
    <path id="Trazado_602073" data-name="Trazado 602073" d="M1284.831,891.033s.322,3.727-.466,4.115l-10.083-.021s0-1.164,1.62-1.422,4.464-1.207,4.946-3.318,3.983.646,3.983.646" transform="translate(-737.271 319.071)" fill="#2c2c2c"/>
    <path id="Trazado_602074" data-name="Trazado 602074" d="M1284.206,636.481s.532,6.534,1.157,14.387c.849,10.668,1.871,23.772,1.972,26.255.175,4.31.876,11.206.876,11.206s1.663,1.638,4.99.948a111.3,111.3,0,0,0,3.812-20.258q.019-.256.04-.515c.788-10.6,2.013-32.928,2.013-32.928Z" transform="translate(-745.159 520.973)" fill="#4c4b73"/>
    <path id="Trazado_602075" data-name="Trazado 602075" d="M1284.206,636.481s.532,6.534,1.157,14.387l11.65,18.151q.019-.256.04-.515c.788-10.6,2.013-32.928,2.013-32.928Z" transform="translate(-745.159 520.973)" fill="#3a3a5b"/>
    <path id="Trazado_602076" data-name="Trazado 602076" d="M1296.043,627.238s9.586,23.661,15.889,34.781,8.272,14.223,8.272,14.223,3.611-1.422,3.94-2.392c0,0-2.411-21.467-6.632-26.7-2.385-2.957-4.442-9.517-4.339-12.621a40.133,40.133,0,0,0-1.833-11.557Z" transform="translate(-754.568 530.992)" fill="#4c4b73"/>
    <path id="Trazado_602077" data-name="Trazado 602077" d="M1250.6,645.463a18.639,18.639,0,0,0-1.922,3.07,12.768,12.768,0,0,0-.072,3.632c.214.676,1.33-2.017,1.782-2.327s-.282,1.06-.106,1.268,1.038-.842,1.378-1.2.18-2.152.543-3.244-1.6-1.2-1.6-1.2" transform="translate(-716.775 513.114)" fill="#ffccbe"/>
    <path id="Trazado_602078" data-name="Trazado 602078" d="M1264.9,473.8s-2.419,22.515-2.634,23.156c-.047.139-.237.852-.5,1.877-.38,1.465-.918,3.569-1.429,5.57-.77,3.023-1.6,5.637-1.6,5.637a2.12,2.12,0,0,1-1.246.161,1.317,1.317,0,0,1-.925-.564s.089-11.054.628-13.573,2.268-18,3.141-20.083,4.57-2.18,4.57-2.18" transform="translate(-723.184 649.562)" fill="#ecf1f9"/>
    <path id="Trazado_602079" data-name="Trazado 602079" d="M1272.082,555.1c-.381,1.465-.919,3.569-1.429,5.57a21.62,21.62,0,0,1-1.011-4.416c-.486-3.726,1.007-11.664,1.007-11.664Z" transform="translate(-733.506 593.292)" fill="#ced1ec"/>
    <path id="Trazado_602080" data-name="Trazado 602080" d="M1295.512,507.307c-3.472,1.959-18.345,1.915-19.033.378-1.539-3.433-1.925-20.877-1.2-26.228,0,0,.376-8.223,1.2-7.86,5.493-2.524,14.386-.232,14.386-.232,2.4.706,2.192,6.185,2.861,13.879.086.992.181,2.025.288,3.093.473,4.751,1.161,10.209,2.208,15.967.07.379-.194.715-.709,1" transform="translate(-737.783 650.664)" fill="#ecf1f9"/>
    <path id="Trazado_602081" data-name="Trazado 602081" d="M1309.595,449.054c-.092,1.471-2.01,1.3-4.317.778s-1.471-1.886-1.471-1.886.034-1.045.18-2.3c.053-.455.12-.94.207-1.409.041-.23.086-.457.138-.676.3-1.294,4.607-.045,4.576.3-.084.94.6,4.032.687,5.187" transform="translate(-760.622 674.049)" fill="#ffccbe"/>
    <path id="Trazado_602082" data-name="Trazado 602082" d="M1307.787,477.19l-.182-2.032,2.553.482-.983,1.814Z" transform="translate(-763.758 648.479)" fill="#5dd782"/>
    <path id="Trazado_602083" data-name="Trazado 602083" d="M1298.733,462.487l-1.526,2.32a3.376,3.376,0,0,0,1.324,2.463l2.086-1.943s-1.349-.515-1.884-2.841" transform="translate(-755.493 658.553)" fill="#ced1ec"/>
    <path id="Trazado_602084" data-name="Trazado 602084" d="M1313.828,466.758a5.459,5.459,0,0,0,1.268,2.264s3.257-.876,4.033-2.545l-1.7-2.19s-.082,1.656-3.6,2.471" transform="translate(-768.704 657.121)" fill="#ced1ec"/>
    <path id="Trazado_602085" data-name="Trazado 602085" d="M1310.2,448.575a7.993,7.993,0,0,1-4.946,1.051c.053-.455.12-.94.207-1.409.567-.138,1.042-.224,1.042-.224Z" transform="translate(-761.889 670.072)" fill="#e98c94"/>
    <path id="Trazado_602086" data-name="Trazado 602086" d="M1306.309,412.206c-1.013,2.789-4.712,2.077-6.286,1.629-.443-.125-.718-.23-.718-.23-.487-.221-.637-1.07-.595-2.143a16.591,16.591,0,0,1,1.4-5.842c.724-1.087,1.932-2.192,5.519-.653s1.976,3.666.677,7.24" transform="translate(-756.682 704.874)" fill="#ffccbe"/>
    <path id="Trazado_602087" data-name="Trazado 602087" d="M1310.906,403.068c-1.133.923-3.565,2.633-3.565,2.633a4.413,4.413,0,0,0,.6-1.242,1.231,1.231,0,0,0,.044-.42,2.315,2.315,0,0,1,.333-1.288c.148-.241.2-.49.014-.667-.308-.291-.832-.024-1.176.212a.7.7,0,0,1-.759.02l0,0c-.967-.606.1-1.673-.685-2.56s-4.189-1.008-4.053-1.563c-1.162-.656-.43-3.078-.409-3.206a12.555,12.555,0,0,0,3.749-.372,5.544,5.544,0,0,1,4.142,1.108.946.946,0,0,0-.094-.413.876.876,0,0,1,.251.548c.026.026.037.044.029.049a1.122,1.122,0,0,1,.533.123s-.144-.045-.212.04a.092.092,0,0,1-.029.023c2.262,1.6,2.229,6.213,1.289,6.981" transform="translate(-758.509 712.58)" fill="#9b5265"/>
    <path id="Trazado_602088" data-name="Trazado 602088" d="M1302.921,438.925s-.182.351-1.1.06c0,0-.768-.245-.641-.649a2.588,2.588,0,0,1,1.737.589" transform="translate(-758.643 677.753)" fill="#ecf1f9"/>
    <path id="Trazado_602089" data-name="Trazado 602089" d="M1300.71,485.062s-2.037,25.743-2.008,27.888,2.257,4.413,2.257,4.413a9.43,9.43,0,0,0,2.123-4c.347-2.052-.983-28.04-.983-28.04Z" transform="translate(-756.681 640.608)" fill="#81e3a5"/>
    <path id="Trazado_602090" data-name="Trazado 602090" d="M1357.664,559.338h0c-6.192-.891-4.418-21.384-3.932-21.465s2.266,3.663,2.266,3.663l.17.831c.472,4.751,1.161,10.209,2.208,15.967.07.379-.194.715-.709,1" transform="translate(-799.935 598.633)" fill="#ced1ec"/>
    <path id="Trazado_602091" data-name="Trazado 602091" d="M1390.874,670.428l-13.094,3.81a3.236,3.236,0,0,1-4-2.2l-1.652-5.674a3.237,3.237,0,0,1,2.2-4l13.094-3.81a3.236,3.236,0,0,1,4,2.2l1.651,5.674a3.237,3.237,0,0,1-2.2,4" transform="translate(-814.943 502.808)" fill="#636363"/>
    <path id="Trazado_602092" data-name="Trazado 602092" d="M1380.536,661.712l1.67,5.74a3.245,3.245,0,0,0,2.242,2.213,3.183,3.183,0,0,0,1.079.114h0a3.164,3.164,0,0,0,.693-.121l13.07-3.8a3.248,3.248,0,0,0,2.2-4.014l-1.67-5.741a3.25,3.25,0,0,0-4.015-2.2l-4.5,1.31-.356-1.225a1.07,1.07,0,0,0-1.325-.728l-.493.143-2.738.8-.68.2a1.069,1.069,0,0,0-.727,1.325l.356,1.225-2.607.758c-.1.03-.2.065-.3.1h0a3.25,3.25,0,0,0-1.938,2.25h0a3.209,3.209,0,0,0,.037,1.659m10.132-6.322-4.677,1.362-.356-1.225a.4.4,0,0,1,.272-.494l1.174-.342,2.155-.628.581-.169a.4.4,0,0,1,.495.271Z" transform="translate(-821.625 506.958)" fill="#727997"/>
    <path id="Trazado_602093" data-name="Trazado 602093" d="M1410.881,642.242s-.406,3.4.355,3.346,2.624-.414,2.751-1-1.426-3.312-1.426-3.312Z" transform="translate(-845.76 516.44)" fill="#ffccbe"/>
    <path id="Trazado_602094" data-name="Trazado 602094" d="M1408.639,645.935a3.155,3.155,0,0,0-.632,1.293c-.05.57-.328,1.565-.067,1.629s.738-1.24.738-1.24Z" transform="translate(-843.42 512.738)" fill="#ffccbe"/>
    <path id="Trazado_602095" data-name="Trazado 602095" d="M1352.62,477.063s3.289.787,5.888,5.781,4.653,15.067,5.895,17.726,2.186,10.636,2.186,10.636a1.221,1.221,0,0,1-.863.541,4.08,4.08,0,0,1-1.052.069s-4.89-7.831-5.591-10.645c-.38-1.523-6.181-13.71-6.181-13.71Z" transform="translate(-799.538 646.966)" fill="#ecf1f9"/>
    <path id="Trazado_602096" data-name="Trazado 602096" d="M294.963,879.749l-.428-3.086,1.8-1.5.567,4.085Z" transform="translate(43.003 331.664)" fill="#f4b3a4"/>
    <path id="Trazado_602097" data-name="Trazado 602097" d="M296.46,898.346h-7.337a4.028,4.028,0,0,1,.207-1.966c.367-.814.939-1.317.991-1.94a2.2,2.2,0,0,0,2.1.646,8.047,8.047,0,0,0,1.273,1.65c.479.344,2.617.222,2.765,1.61" transform="translate(47.482 315.822)" fill="#2c2c2c"/>
    <path id="Trazado_602098" data-name="Trazado 602098" d="M280.284,648.787c-.48,3.86-.872,7.5-1.192,10.89a259.418,259.418,0,0,0-1.372,29.114s-.123.327-1.182.332a6.071,6.071,0,0,1-1.184-.127s-3.823-11.8-3.528-18.514a10.3,10.3,0,0,1,.3-2.173c.917-3.436-3.394-16.574,1.292-21.467s7.088.175,6.868,1.946" transform="translate(62.184 520.96)" fill="#3185af"/>
    <path id="Trazado_602099" data-name="Trazado 602099" d="M280.284,648.787c-.48,3.86-.872,7.5-1.192,10.89l-7.267,10.8a10.3,10.3,0,0,1,.3-2.173c.917-3.436-3.394-16.574,1.292-21.467s7.088.175,6.868,1.946" transform="translate(62.184 520.96)" fill="#287094"/>
    <path id="Trazado_602100" data-name="Trazado 602100" d="M352.776,442.124s-.177-.882-.376-1.555a4.84,4.84,0,0,1,.951-2.494c.425-.241,1.532,1.077,1.219,2.088-.161.52-.425,2.21-.425,2.21Z" transform="translate(-4.534 690.807)" fill="#ffccbe"/>
    <path id="Trazado_602101" data-name="Trazado 602101" d="M349.824,452.041s-.231-.511-.44-.594-.432-.919-.586-1.25c0,0,.148-.217.407.062.158.17.51.669.51.669Z" transform="translate(-1.582 680.891)" fill="#ffccbe"/>
    <path id="Trazado_602102" data-name="Trazado 602102" d="M172.808,469.14c-.045.093-.108.259-.163.415,0-.043,0-.085,0-.126A4.838,4.838,0,0,0,171,467.322c-.477-.106-1.15,1.478-.554,2.353.306.45,1.054,1.989,1.054,1.989l1.236-.638s.071-.557.247-.7.144-1.005.194-1.367c0,0-.2-.164-.371.178" transform="translate(145.147 666.758)" fill="#ffccbe"/>
    <path id="Trazado_602103" data-name="Trazado 602103" d="M227.361,877c-.1-.989-.129-3.591-.129-3.591s2.652-.848,2.554-.266a18.73,18.73,0,0,0-.35,4.277l-1.072.641Z" transform="translate(98.301 333.489)" fill="#f4b3a4"/>
    <path id="Trazado_602104" data-name="Trazado 602104" d="M239.185,663.761s-10.243,28.077-12.259,40.256a2.042,2.042,0,0,1-1.338.214,1.5,1.5,0,0,1-1.259-.807s-1.85-14.6,1.827-19.665c2.527-3.482-1.09-18.772,4.8-20s8.234,0,8.234,0" transform="translate(101.068 505.802)" fill="#3185af"/>
    <path id="Trazado_602105" data-name="Trazado 602105" d="M222.534,489.353h0a.232.232,0,0,0-.008-.037c-.06-.247-.125-.49-.2-.732h0a16.478,16.478,0,0,0-.745-2.062c-.158-.356-.323-.686-.49-.979-.026-.045-.051-.088-.075-.131h0a2.944,2.944,0,0,0-1.17-1.267,3.511,3.511,0,0,0-1.927-.08.888.888,0,0,1,.368-.246,2.932,2.932,0,0,0-1,.424c-4.717-1.055-4.442,5.618-4.12,7.131s-1.2,2.247-3.341,3.8c-4.088,2.953-4.019,6.083-4.019,6.083.037.016.077.033.119.054.164-.4.514-1.171.879-1.333a15.8,15.8,0,0,0-.392,1.585c.623.343,1.484.874,2.42,1.474h0c1.252.8,2.634,1.723,3.741,2.472a2.535,2.535,0,0,1-.027-.985l.353,1.093.046.143c.707.479,1.264.862,1.547,1.058l.078.053.127.088a5.962,5.962,0,0,1,1.01-2.663c.047-.089.1-.179.149-.27.224-.4.473-.824.742-1.26.1-.157.195-.315.3-.476,0,0,0,0,0,0,.081-.129.163-.257.248-.388h0c.2-.31.408-.622.62-.935.548-.81,1.129-1.614,1.7-2.352a20.639,20.639,0,0,1,2.335-2.618c.022-.046.044-.093.063-.141a4.682,4.682,0,0,0,.253-.807c.02-.084.038-.169.053-.254a11.046,11.046,0,0,0,.172-2,11.336,11.336,0,0,1-.025,2.016c-.013.109-.027.209-.044.3h0a4.123,4.123,0,0,1-.124.53,2.741,2.741,0,0,0,.3-.458,3.247,3.247,0,0,0,.155-.343,9.937,9.937,0,0,0-.075-5.484" transform="translate(115.901 653.201)" fill="#2c2c2c"/>
    <path id="Trazado_602106" data-name="Trazado 602106" d="M274.444,535.011a4.159,4.159,0,0,1-2.454.836,3.308,3.308,0,0,1-1.92-1.361c.421-.151.458-.766.067-3.327l.2.01,3.4.162s.079,1.049.223,2.028c.12.821.286,1.593.487,1.653" transform="translate(63.104 614.304)" fill="#ffccbe"/>
    <path id="Trazado_602107" data-name="Trazado 602107" d="M274.975,531.375s.079,1.049.223,2.028c-1.854.223-3.08-1.316-3.619-2.19Z" transform="translate(61.864 614.26)" fill="#e98c94"/>
    <path id="Trazado_602108" data-name="Trazado 602108" d="M261.313,496.708a9.808,9.808,0,0,1-1.621-2.657c-.3-.908-.344-4.438,3.206-4.457a4.772,4.772,0,0,1,2.069.449c.831.4,2.083,1.336,1.314,4.535l-.165,1.066Z" transform="translate(71.735 648.455)" fill="#2c2c2c"/>
    <path id="Trazado_602109" data-name="Trazado 602109" d="M257.617,567.462a14.383,14.383,0,0,1-9.968,1.276c-.065-.016-4.569-.735-4.569-.735.077-.211.659-3.69.735-3.885.984-2.54,2.783-16.327,4.286-17.007a3.4,3.4,0,0,0,2.419.621c1.081-.1,1.443-.562,1.353-1.065,1.2.566,2.115,1.091,2.115,1.091,1.093,1.638,3.626,19.7,3.626,19.7" transform="translate(85.278 601.562)" fill="#ecf1f9"/>
    <path id="Trazado_602110" data-name="Trazado 602110" d="M270.854,503.6s-4.357.722-4.765-2-1.245-4.459,1.52-5.035,3.462.381,3.819,1.256.549,5.519-.574,5.777" transform="translate(66.739 642.869)" fill="#ffccbe"/>
    <path id="Trazado_602111" data-name="Trazado 602111" d="M264.167,493.44s-.721,3.37-2.486,4.115a3.653,3.653,0,0,1-2.634.372,5.254,5.254,0,0,0,1.243-3.323s2.749-2.548,3.877-1.163" transform="translate(72.16 645.633)" fill="#2c2c2c"/>
    <path id="Trazado_602112" data-name="Trazado 602112" d="M286.307,494.077a3.9,3.9,0,0,1,1.32,1.24c.321.66.631,2.072,1.039,1.962,0,0,.578-2.3-.617-3.38-1.267-1.142-1.742.178-1.742.178" transform="translate(49.763 645.299)" fill="#2c2c2c"/>
    <path id="Trazado_602113" data-name="Trazado 602113" d="M304.872,460.129a2.785,2.785,0,0,0-.779-.241,2.411,2.411,0,0,0-.684.071s-1.229,7.641-1.32,8.046-5.273,6.241-6.669,6.218a6.328,6.328,0,0,0-3.033,1.14s2.937,6.212,3.084,7.379c.159,1.269,1.68,20.821,1.68,20.821s-.09.91,1.609.421a5.8,5.8,0,0,0,2.124-.894s-1.561-15.392-1.889-20.179a9.165,9.165,0,0,0-.3-1.786,1.81,1.81,0,0,1,.292-1.538c2.149-2.949,5.542-7.728,5.731-8.744.278-1.492.152-10.715.152-10.715" transform="translate(44.768 672.864)" fill="#9b5265"/>
    <path id="Trazado_602114" data-name="Trazado 602114" d="M228.247,898.346H220.91a4.028,4.028,0,0,1,.207-1.966c.367-.814.939-1.317.991-1.94a2.2,2.2,0,0,0,2.1.646,8.048,8.048,0,0,0,1.273,1.65c.479.344,2.617.222,2.765,1.61" transform="translate(103.527 315.822)" fill="#2c2c2c"/>
    <path id="Trazado_602115" data-name="Trazado 602115" d="M197.6,505.455c-.247-1.522-3.4-7.631-3.4-7.631a6.5,6.5,0,0,0-3.309-.121c-1.314.476-8.109-3.362-8.327-3.714s-3.858-7.136-3.858-7.136a.844.844,0,0,0-.786.077.885.885,0,0,0-.481.736s2.809,8.54,3.557,9.861c.451.8,4.24,3.57,7.178,5.647a1.843,1.843,0,0,1,.763,1.752c-.4,2.92-.5,4.565-.95,9.576-.377,4.157-.521,12.2-.521,12.2A27.175,27.175,0,0,0,193.017,528a2.754,2.754,0,0,0,2.763-2.241s2.072-18.736,1.818-20.3" transform="translate(139.216 650.756)" fill="#9b5265"/>
    <path id="Trazado_602116" data-name="Trazado 602116" d="M286.842,527.437a1.945,1.945,0,0,0,1.154.217c.428-.064.525-.572.525-.572a1.685,1.685,0,0,0-.772,0,3.292,3.292,0,0,0-.907.353" transform="translate(49.323 617.687)" fill="#ecf1f9"/>
    <g id="Grupo_877340" data-name="Grupo 877340" transform="translate(385.535 971.205)" opacity="0.4">
      <g id="Grupo_877339" data-name="Grupo 877339" opacity="0.57">
        <g id="Grupo_877338" data-name="Grupo 877338" clip-path="url(#clip-path)">
          <path id="Trazado_602132" data-name="Trazado 602132" d="M1033.932,237.269l-29.1.4-.332-7.02,29.018-2.159Z" transform="translate(-899.61 -217.141)" fill="#3a3a5b"/>
          <path id="Trazado_602133" data-name="Trazado 602133" d="M1101.085,233.363l-24.541.029-.448-9.476,24.441-2.135Z" transform="translate(-947.14 -212.684)" fill="#3a3a5b"/>
          <path id="Trazado_602117" data-name="Trazado 602117" d="M1033.633,248.91s-3.842-6.556,0-7.889,5.58-.1,5.764,1.389-1.464,7.378-1.464,7.378Z" transform="translate(-917.818 -225.078)" fill="#3a3a5b"/>
          <path id="Trazado_602118" data-name="Trazado 602118" d="M937.508,304.267a129.189,129.189,0,0,1-19.258,1.9,111.725,111.725,0,0,1-14.8-.639q-1.745-.192-3.355-.429c-11.342-1.651-17.6-4.58-17.6-4.58s10.363-20.828,18.733-20.028c9.821.94,26.463,9.4,28.117,7.028,1.863-2.673,3.422-25.6,3.422-25.6,4.354-2.863,6.954.155,6.954.155s8.506,40.343-2.2,42.2" transform="translate(-818.613 -238.508)" fill="#3a3a5b"/>
          <path id="Trazado_602119" data-name="Trazado 602119" d="M973.8,367.741a129.177,129.177,0,0,1-19.258,1.9,111.693,111.693,0,0,1-14.8-.639c-2.613-7.979-4.492-16.128.763-11.215,9.271,8.666,33.3,9.955,33.3,9.955" transform="translate(-854.903 -301.981)" fill="#3a3a5b"/>
          <path id="Trazado_602120" data-name="Trazado 602120" d="M879.848,884.276s-.745,8.279,1.078,9.141l23.329-.046s0-2.585-3.747-3.16-10.329-2.681-11.443-7.372-9.215,1.436-9.215,1.436" transform="translate(-816.762 -650.351)" fill="#3a3a5b"/>
          <path id="Trazado_602121" data-name="Trazado 602121" d="M872.522,541.274c-.115,5.414-.386,11-.917,16.017-2.519,23.816-3.4,52.591-3.767,58.139-.628,9.63-2.609,25.016-2.609,25.016s-3.93,3.582-11.591,1.872a241.388,241.388,0,0,1-7.765-45.492q-.033-.574-.064-1.152c-.165-3.085-.337-6.612-.512-10.415-1.168-25.476-2.435-63.321-2.435-63.321l29.273-6.6s.673,12.439.386,25.936" transform="translate(-792.309 -407.561)" fill="#3a3a5b"/>
          <path id="Trazado_602122" data-name="Trazado 602122" d="M872.522,541.274c-7.419,12.29-21.56,34.932-27.224,43.985-1.168-25.476-2.435-63.321-2.435-63.321l29.273-6.6s.673,12.439.386,25.936" transform="translate(-792.309 -407.561)" fill="#3a3a5b"/>
          <path id="Trazado_602123" data-name="Trazado 602123" d="M698.567,521.671s-4.763,5.379-5.192,6.87-1.192,6.865-.783,8.479,3.576-4.5,4.728-5.155-.865,2.433-.471,2.948,2.669-1.8,3.555-2.585.8-5,1.864-7.5-3.7-3.06-3.7-3.06" transform="translate(-692.476 -411.765)" fill="#3a3a5b"/>
          <path id="Trazado_602124" data-name="Trazado 602124" d="M700.465,859.208s-4.152,3.638-3.342,6.223,4.557,4.308,5.063,7.468,2.532,4.883,4.355,4.883h8.69s1.342-2.223-1.9-2.894-4.462-4.383-4.26-7.829a58.3,58.3,0,0,0-.3-8.042l-6.886-1.532Z" transform="translate(-695.491 -634.693)" fill="#3a3a5b"/>
          <path id="Trazado_602125" data-name="Trazado 602125" d="M777.512,519.793s-27.4,56.3-41.986,81-19.14,31.6-19.14,31.6-8.355-3.16-9.114-5.314c0,0,5.577-47.688,15.342-59.312,5.518-6.569,12-26.281,12.3-33.175s6.706-23.346,6.706-23.346Z" transform="translate(-702.298 -404.84)" fill="#3a3a5b"/>
          <path id="Trazado_602126" data-name="Trazado 602126" d="M843.455,383.317a48.932,48.932,0,0,1-26.321,6.346c-6.769-.284-20.2-2.127-22.363-7.3-.509-1.214-.135-2.754.628-5.118,1.981-6.144,6.6-17.843,5.2-43.783a40.81,40.81,0,0,1,.181-6.807c1.452-12.777,9.079-20.344,16.45-22.816,17.977-6.033,23.969,2.325,23.969,2.325s7.946,6.045,9.144,18.659c2.393,25.233-6.892,58.49-6.892,58.49" transform="translate(-760.23 -265.709)" fill="#3a3a5b"/>
          <path id="Trazado_602127" data-name="Trazado 602127" d="M877.725,272.275s8.248,4.817,17.195,3.455c0,0,1.769-.432.9-2.426a24.663,24.663,0,0,0,.794-2.66,38.782,38.782,0,0,0,1.025-4.339l-5.077-5.124-4.809-4.9c-1.328,11.7-10.027,15.99-10.027,15.99" transform="translate(-815.453 -235.59)" fill="#3a3a5b"/>
          <path id="Trazado_602128" data-name="Trazado 602128" d="M905.261,269.488s2.763,7.091,9.631,9.921c.785-2.752,1.3-5.631,1.3-5.631l-5.347-3.833Z" transform="translate(-833.732 -244.354)" fill="#3a3a5b"/>
          <path id="Trazado_602129" data-name="Trazado 602129" d="M918.247,236.547s-15.745,1.889-16.85-7.4-3.882-15.3,6.124-16.9,12.384,1.74,13.551,4.757,1.242,18.814-2.825,19.545" transform="translate(-830.366 -206.079)" fill="#3a3a5b"/>
          <path id="Trazado_602130" data-name="Trazado 602130" d="M886.651,199.376c-.136-.161-.459-.3-1.186-.364a3.055,3.055,0,0,1,1.377-.319,3.554,3.554,0,0,1,2.56-3.027,2.122,2.122,0,0,0-1.12,1.477c2.1-1.92,6.488-3.213,18.444-1.869,15.758,1.772,10.166,11.3,8.074,12.382s-7.117-2.278-10.94-2.126-4.757,5.415-6.079,6.094-.763-.586-2.483-1.409-2,1.955-1.562,3.784-2.064,4.129-2.064,4.129l-2.33-2.6c-2.331-2.6-4.2-13.325-3.008-15.554.106-.2.21-.4.318-.6" transform="translate(-820.591 -194.72)" fill="#3a3a5b"/>
          <path id="Trazado_602131" data-name="Trazado 602131" d="M978.89,241.591l-26.729.229-.183-3.861,26.646-1.983Z" transform="translate(-864.746 -222.107)" fill="#3a3a5b"/>
          <path id="Trazado_602134" data-name="Trazado 602134" d="M1147.505,231.754h0a1.34,1.34,0,0,0,1.309-1.376l-.576-12.173a1.373,1.373,0,0,0-2.741.12l.576,12.173a1.352,1.352,0,0,0,1.433,1.257" transform="translate(-993.21 -209.475)" fill="#3a3a5b"/>
          <path id="Trazado_602135" data-name="Trazado 602135" d="M949.462,244.95h0a1.2,1.2,0,0,1-1.274-1.117l-.149-3.159a1.221,1.221,0,0,1,2.437-.106l.15,3.159a1.191,1.191,0,0,1-1.163,1.223" transform="translate(-862.129 -224.414)" fill="#3a3a5b"/>
          <path id="Trazado_602136" data-name="Trazado 602136" d="M797.1,426.575c1.981-6.144,6.6-17.843,5.2-43.783a40.811,40.811,0,0,1,.182-6.807h0c5.916-.489,14.959,5.652,14.959,5.652s-5.569,32.6-20.346,44.938" transform="translate(-761.93 -315.033)" fill="#3a3a5b"/>
          <path id="Trazado_602137" data-name="Trazado 602137" d="M763,303.853s-15.169,2.5-23.081,11.778-20.639,22.351-23.648,26.93S704.913,378.3,704.913,378.3s.551,1,2.855,1.585a5.631,5.631,0,0,0,3.8-.307s11.068-18.186,15.233-27.272c1.73-3.775,31.66-18.723,42.912-17.174,4.419.608-6.713-31.282-6.713-31.282" transform="translate(-700.732 -267.167)" fill="#3a3a5b"/>
          <path id="Trazado_602138" data-name="Trazado 602138" d="M1031.562,230.653s3.263,1.916,5.214,1.106,1.78-1.553,1.78-1.553-5.9-1.571-6.994.447" transform="translate(-917.577 -217.891)" fill="#3a3a5b"/>
          <path id="Trazado_602139" data-name="Trazado 602139" d="M804.928,332.667s-6.657,40.356-53.891,52.105l-5.145,9.747,9.039,1.469s53.774-14.958,53.05-64.035Z" transform="translate(-727.936 -285.822)" fill="#3a3a5b"/>
          <path id="Trazado_602140" data-name="Trazado 602140" d="M914.138,314.914l-2.18.205v3.03l3.212,3.206,3.054-.714v-4.205l-2.2-1.523Z" transform="translate(-838.178 -274.51)" fill="#3a3a5b"/>
          <path id="Trazado_602141" data-name="Trazado 602141" d="M879.3,291.04s-2.11.457-6.935,4.307c0,0,4.8,9.779,14.922,10.951a31.2,31.2,0,0,1,.568-7.232s-8.024-2.758-8.555-8.025" transform="translate(-811.892 -258.662)" fill="#3a3a5b"/>
          <path id="Trazado_602142" data-name="Trazado 602142" d="M918.444,309.6s4.94,2.518,5.306,6.441c0,0,1.889-2.872,1.34-4.862a15.982,15.982,0,0,0-2.241-4.269s.168,2.4-4.406,2.689" transform="translate(-842.484 -269.2)" fill="#3a3a5b"/>
        </g>
      </g>
    </g>
    <path id="Trazado_602144" data-name="Trazado 602144" d="M967.508,278.812a124.223,124.223,0,0,1-19.258,1.978,107.373,107.373,0,0,1-14.8-.666q-1.745-.2-3.356-.446c-11.341-1.72-17.6-4.77-17.6-4.77s10.362-21.692,18.733-20.859c9.821.979,26.463,9.792,28.117,7.32,1.863-2.785,3.421-26.666,3.421-26.666,4.354-2.982,6.954.161,6.954.161s8.506,42.017-2.2,43.949" transform="translate(-452.993 750.797)" fill="#3185af"/>
    <path id="Trazado_602145" data-name="Trazado 602145" d="M1003.8,344.919a124.219,124.219,0,0,1-19.258,1.978,107.372,107.372,0,0,1-14.8-.666c-2.613-8.31-4.491-16.8.763-11.68,9.271,9.025,33.3,10.368,33.3,10.368" transform="translate(-489.283 684.69)" fill="#1a6184"/>
    <path id="Trazado_602146" data-name="Trazado 602146" d="M909.848,882.882s-.745,8.623,1.077,9.521l23.329-.048s0-2.693-3.747-3.291-10.329-2.792-11.443-7.678-9.215,1.5-9.215,1.5" transform="translate(-451.142 321.868)" fill="#2c2c2c"/>
    <path id="Trazado_602147" data-name="Trazado 602147" d="M902.522,525.652c-.115,5.638-.386,11.455-.917,16.682-2.519,24.8-3.4,54.773-3.767,60.551-.628,10.03-2.609,26.053-2.609,26.053s-3.93,3.731-11.591,1.95a260.811,260.811,0,0,1-7.765-47.38c-.022-.4-.044-.8-.064-1.2-.165-3.213-.337-6.886-.512-10.848-1.168-26.532-2.436-65.948-2.436-65.948l29.274-6.874s.673,12.955.386,27.013" transform="translate(-426.689 574.73)" fill="#4c4b73"/>
    <path id="Trazado_602148" data-name="Trazado 602148" d="M902.522,525.652c-7.419,12.8-21.56,36.381-27.224,45.809-1.168-26.532-2.436-65.948-2.436-65.948l29.274-6.874s.673,12.955.386,27.013" transform="translate(-426.689 574.73)" fill="#3a3a5b"/>
    <path id="Trazado_602149" data-name="Trazado 602149" d="M728.567,505.234s-4.763,5.6-5.192,7.155-1.192,7.15-.783,8.831,3.576-4.689,4.728-5.37-.865,2.534-.471,3.07,2.668-1.876,3.555-2.692.8-5.21,1.864-7.808-3.7-3.187-3.7-3.187" transform="translate(-326.856 570.352)" fill="#f4b3a4"/>
    <path id="Trazado_602150" data-name="Trazado 602150" d="M730.465,856.774s-4.152,3.789-3.342,6.481,4.557,4.487,5.063,7.777,2.532,5.086,4.355,5.086h8.691s1.342-2.316-1.9-3.014-4.463-4.565-4.26-8.154a63.218,63.218,0,0,0-.3-8.376l-6.886-1.6Z" transform="translate(-329.871 338.176)" fill="#2c2c2c"/>
    <path id="Trazado_602151" data-name="Trazado 602151" d="M807.512,503.279s-27.4,58.632-41.986,84.358-19.14,32.906-19.14,32.906-8.355-3.291-9.114-5.535c0,0,5.576-49.666,15.342-61.773,5.518-6.841,12-27.371,12.3-34.551s6.706-24.315,6.706-24.315Z" transform="translate(-336.678 577.564)" fill="#4c4b73"/>
    <path id="Trazado_602152" data-name="Trazado 602152" d="M873.455,361.142a47.488,47.488,0,0,1-26.321,6.609c-6.769-.3-20.2-2.215-22.363-7.6-.509-1.264-.135-2.868.628-5.33,1.981-6.4,6.6-18.583,5.2-45.6a44.307,44.307,0,0,1,.181-7.09c1.453-13.307,9.079-21.188,16.45-23.763,17.977-6.283,23.97,2.421,23.97,2.421s7.946,6.3,9.144,19.434c2.393,26.28-6.892,60.916-6.892,60.916" transform="translate(-394.609 722.467)" fill="#3185af"/>
    <path id="Trazado_602153" data-name="Trazado 602153" d="M907.725,245.493s8.249,5.017,17.195,3.6c0,0,1.769-.45.9-2.526a26.427,26.427,0,0,0,.794-2.77,41.878,41.878,0,0,0,1.025-4.52l-5.077-5.336-4.809-5.1c-1.329,12.188-10.027,16.654-10.027,16.654" transform="translate(-449.832 753.836)" fill="#f4b3a4"/>
    <path id="Trazado_602154" data-name="Trazado 602154" d="M935.261,242.59s2.763,7.385,9.632,10.333c.785-2.866,1.295-5.864,1.295-5.864l-5.347-3.992Z" transform="translate(-468.112 744.708)" fill="#e98c94"/>
    <path id="Trazado_602155" data-name="Trazado 602155" d="M948.247,208.282s-15.745,1.968-16.85-7.707-3.882-15.937,6.124-17.6,12.384,1.812,13.551,4.954,1.242,19.6-2.825,20.356" transform="translate(-464.746 784.57)" fill="#f4b3a4"/>
    <path id="Trazado_602156" data-name="Trazado 602156" d="M916.651,169.568c-.136-.168-.458-.312-1.187-.379a2.962,2.962,0,0,1,1.377-.332c.191-1.008.8-2.782,2.56-3.152a2.19,2.19,0,0,0-1.12,1.538c2.1-2,6.488-3.346,18.444-1.947,15.758,1.845,10.166,11.767,8.075,12.9s-7.117-2.373-10.94-2.215-4.757,5.64-6.079,6.347-.763-.61-2.483-1.467-2,2.036-1.562,3.94-2.064,4.3-2.064,4.3l-2.33-2.708c-2.331-2.709-4.2-13.878-3.008-16.2.106-.205.21-.413.318-.622" transform="translate(-454.971 796.402)" fill="#2c2c2c"/>
    <path id="Trazado_602162" data-name="Trazado 602162" d="M827.1,406.193c1.981-6.4,6.6-18.583,5.2-45.6a44.293,44.293,0,0,1,.181-7.09h0c5.916-.508,14.959,5.887,14.959,5.887s-5.569,33.954-20.346,46.8" transform="translate(-396.31 671.098)" fill="#1a6184"/>
    <path id="Trazado_602163" data-name="Trazado 602163" d="M793,278.38s-15.169,2.608-23.081,12.266-20.639,23.278-23.648,28.047-11.362,37.225-11.362,37.225.551,1.043,2.855,1.651a5.433,5.433,0,0,0,3.8-.32s11.067-18.941,15.232-28.4c1.731-3.931,31.661-19.5,42.912-17.887,4.419.634-6.713-32.579-6.713-32.579" transform="translate(-335.112 720.949)" fill="#3185af"/>
    <path id="Trazado_602165" data-name="Trazado 602165" d="M834.928,308.389s-6.657,42.03-53.891,54.267l-5.145,10.151,9.039,1.53s53.774-15.578,53.05-66.691Z" transform="translate(-362.316 701.521)" fill="#5ad1a5"/>
    <path id="Trazado_602166" data-name="Trazado 602166" d="M944.138,289.9l-2.18.213v3.156l3.213,3.339,3.054-.743v-4.38l-2.2-1.586Z" transform="translate(-472.558 713.301)" fill="#5ad1a5"/>
    <path id="Trazado_602167" data-name="Trazado 602167" d="M909.3,265.036s-2.11.476-6.935,4.486c0,0,4.8,10.185,14.922,11.405a33.837,33.837,0,0,1,.569-7.532s-8.024-2.872-8.556-8.358" transform="translate(-446.272 729.808)" fill="#1a6184"/>
    <path id="Trazado_602168" data-name="Trazado 602168" d="M948.444,284.369s4.94,2.622,5.306,6.709c0,0,1.889-2.992,1.341-5.063a16.873,16.873,0,0,0-2.241-4.446s.168,2.5-4.406,2.8" transform="translate(-476.864 718.832)" fill="#1a6184"/>
    <rect id="Rectángulo_293582" data-name="Rectángulo 293582" width="295" height="254" transform="translate(285 961)" fill="none"/>
    <rect id="Rectángulo_293583" data-name="Rectángulo 293583" width="295" height="254" transform="translate(285 961)" fill="none"/>
    <path id="Trazado_602169" data-name="Trazado 602169" d="M1063.633,221.158s-3.842-6.828,0-8.216,5.58-.108,5.763,1.447-1.464,7.684-1.464,7.684Z" transform="translate(-552.198 764.785)" fill="#f4b3a4"/>
    <path id="Trazado_602157" data-name="Trazado 602157" d="M1008.89,213.535l-26.729.238-.182-4.021,26.646-2.065Z" transform="translate(-499.126 767.877)" fill="#4c4b73"/>
    <path id="Trazado_602161" data-name="Trazado 602161" d="M979.462,217.034h0a1.22,1.22,0,0,1-1.274-1.163l-.149-3.29a1.22,1.22,0,0,1,2.437-.111l.15,3.29a1.22,1.22,0,0,1-1.163,1.274" transform="translate(-496.509 765.475)" fill="#4c4b73"/>
    <path id="Trazado_602158" data-name="Trazado 602158" d="M1063.932,209.034l-29.1.42-.332-7.311,29.018-2.249Z" transform="translate(-533.99 773.051)" fill="#3a3a5b"/>
    <path id="Trazado_602159" data-name="Trazado 602159" d="M1131.085,204.966l-24.541.03-.448-9.869,24.441-2.224Z" transform="translate(-581.52 777.691)" fill="#2c2c2c"/>
    <path id="Trazado_602160" data-name="Trazado 602160" d="M1177.505,203.291h0a1.372,1.372,0,0,0,1.308-1.433l-.576-12.678a1.372,1.372,0,1,0-2.741.125l.576,12.678a1.373,1.373,0,0,0,1.433,1.308" transform="translate(-627.59 781.033)" fill="#2c2c2c"/>
    <path id="Trazado_602164" data-name="Trazado 602164" d="M1061.562,202.144s3.263,2,5.215,1.151,1.78-1.618,1.78-1.618-5.9-1.636-6.994.466" transform="translate(-551.957 772.27)" fill="#f4b3a4"/>
    <g id="Grupo_877341" data-name="Grupo 877341" transform="translate(318.393 1072.457)">
      <g id="Grupo_151688" data-name="Grupo 151688" transform="translate(0 7.128)">
        <path id="Trazado_212295" data-name="Trazado 212295" d="M-11425.02-11468v14.257" transform="translate(11432.146 11467.997)" fill="none" stroke="#5ad1a5" stroke-width="4"/>
        <path id="Trazado_212296" data-name="Trazado 212296" d="M0,0V14.255" transform="translate(14.255 7.128) rotate(90)" fill="none" stroke="#5ad1a5" stroke-width="4"/>
      </g>
      <g id="Grupo_151689" data-name="Grupo 151689" transform="translate(18.532 0)">
        <path id="Trazado_212295-2" data-name="Trazado 212295" d="M-11425.02-11468v14.257" transform="translate(11432.146 11467.997)" fill="none" stroke="#5ad1a5" stroke-width="4"/>
        <path id="Trazado_212296-2" data-name="Trazado 212296" d="M0,0V14.255" transform="translate(14.255 7.128) rotate(90)" fill="none" stroke="#5ad1a5" stroke-width="4"/>
      </g>
      <g id="Grupo_151690" data-name="Grupo 151690" transform="translate(21.621 21.383)">
        <path id="Trazado_212295-3" data-name="Trazado 212295" d="M-11425.02-11468v14.257" transform="translate(11432.146 11467.997)" fill="none" stroke="#5ad1a5" stroke-width="4"/>
        <path id="Trazado_212296-3" data-name="Trazado 212296" d="M0,0V14.255" transform="translate(14.255 7.128) rotate(90)" fill="none" stroke="#5ad1a5" stroke-width="4"/>
      </g>
    </g>
    <g id="Grupo_877342" data-name="Grupo 877342" transform="translate(544.124 1006.873)">
      <g id="Grupo_151688-2" data-name="Grupo 151688" transform="translate(0 7.128)">
        <path id="Trazado_212295-4" data-name="Trazado 212295" d="M-11425.02-11468v14.257" transform="translate(11432.146 11467.997)" fill="none" stroke="#26779f" stroke-width="4"/>
        <path id="Trazado_212296-4" data-name="Trazado 212296" d="M0,0V14.255" transform="translate(14.255 7.128) rotate(90)" fill="none" stroke="#26779f" stroke-width="4"/>
      </g>
      <g id="Grupo_151689-2" data-name="Grupo 151689" transform="translate(18.532 0)">
        <path id="Trazado_212295-5" data-name="Trazado 212295" d="M-11425.02-11468v14.257" transform="translate(11432.146 11467.997)" fill="none" stroke="#26779f" stroke-width="4"/>
        <path id="Trazado_212296-5" data-name="Trazado 212296" d="M0,0V14.255" transform="translate(14.255 7.128) rotate(90)" fill="none" stroke="#26779f" stroke-width="4"/>
      </g>
      <g id="Grupo_151690-2" data-name="Grupo 151690" transform="translate(21.621 21.383)">
        <path id="Trazado_212295-6" data-name="Trazado 212295" d="M-11425.02-11468v14.257" transform="translate(11432.146 11467.997)" fill="none" stroke="#26779f" stroke-width="4"/>
        <path id="Trazado_212296-6" data-name="Trazado 212296" d="M0,0V14.255" transform="translate(14.255 7.128) rotate(90)" fill="none" stroke="#26779f" stroke-width="4"/>
      </g>
    </g>
    <g id="Grupo_877344" data-name="Grupo 877344" transform="translate(311.296 968.196)">
      <g id="Grupo_877343" data-name="Grupo 877343" transform="translate(0 0.001)" clip-path="url(#clip-path-2)">
        <path id="Trazado_602170" data-name="Trazado 602170" d="M542.966,274.667a1.632,1.632,0,1,1-1.632,1.632,1.632,1.632,0,0,1,1.632-1.632" transform="translate(-475.08 -241.051)" fill="#1b5b7b"/>
        <path id="Trazado_602171" data-name="Trazado 602171" d="M245.255,97.235a1.632,1.632,0,0,1-1.632-1.632V64.6H197.931V89.076a1.632,1.632,0,1,1-3.264,0V62.966a1.632,1.632,0,0,1,1.632-1.632h48.956a1.632,1.632,0,0,1,1.632,1.632V95.6a1.632,1.632,0,0,1-1.632,1.632" transform="translate(-170.842 -53.827)" fill="#1b5b7b"/>
        <path id="Trazado_602172" data-name="Trazado 602172" d="M89.633,43.408A1.632,1.632,0,0,1,88,41.776V1.632A1.632,1.632,0,0,1,89.633,0h48.956a1.632,1.632,0,0,1,1.632,1.632V9.138a1.632,1.632,0,1,1-3.264,0V3.264H91.265V41.776a1.632,1.632,0,0,1-1.632,1.632" transform="translate(-77.231 0)" fill="#1b5b7b"/>
        <path id="Trazado_602173" data-name="Trazado 602173" d="M279.563,124.458a4.9,4.9,0,1,1,4.9-4.9,4.9,4.9,0,0,1-4.9,4.9m0-6.527a1.632,1.632,0,1,0,1.632,1.632,1.634,1.634,0,0,0-1.632-1.632" transform="translate(-241.051 -100.633)" fill="#1b5b7b"/>
        <path id="Trazado_602174" data-name="Trazado 602174" d="M262.687,177.792H249.632A1.632,1.632,0,0,1,248,176.16a8.159,8.159,0,0,1,16.319,0,1.632,1.632,0,0,1-1.632,1.632m-11.143-3.264h9.232a4.9,4.9,0,0,0-9.232,0" transform="translate(-217.647 -147.44)" fill="#1b5b7b"/>
        <path id="Trazado_602175" data-name="Trazado 602175" d="M425.95,117.931H409.632a1.632,1.632,0,0,1,0-3.264H425.95a1.632,1.632,0,0,1,0,3.264" transform="translate(-358.065 -100.633)" fill="#1b5b7b"/>
        <path id="Trazado_602176" data-name="Trazado 602176" d="M425.95,171.264H409.632a1.632,1.632,0,0,1,0-3.264H425.95a1.632,1.632,0,0,1,0,3.264" transform="translate(-358.065 -147.439)" fill="#1b5b7b"/>
        <path id="Trazado_602177" data-name="Trazado 602177" d="M425.95,224.6H409.632a1.632,1.632,0,0,1,0-3.264H425.95a1.632,1.632,0,0,1,0,3.264" transform="translate(-358.065 -194.245)" fill="#1b5b7b"/>
        <path id="Trazado_602178" data-name="Trazado 602178" d="M325.811,277.931H302.965a1.632,1.632,0,0,1,0-3.264h22.846a1.632,1.632,0,0,1,0,3.264" transform="translate(-264.453 -241.051)" fill="#1b5b7b"/>
        <path id="Trazado_602179" data-name="Trazado 602179" d="M249.075,458.493h-26.11a1.632,1.632,0,0,1-1.632-1.632V436.3a1.632,1.632,0,0,1,1.632-1.632h26.11a1.632,1.632,0,0,1,1.632,1.632v20.561a1.632,1.632,0,0,1-1.632,1.632M224.6,455.229h22.846v-17.3H224.6Z" transform="translate(-194.244 -381.469)" fill="#1b5b7b"/>
        <path id="Trazado_602180" data-name="Trazado 602180" d="M289.354,391.125a1.632,1.632,0,0,1-1.632-1.632v-4.9h-9.791v4.9a1.632,1.632,0,0,1-3.264,0v-6.527a1.632,1.632,0,0,1,1.632-1.632h13.055a1.632,1.632,0,0,1,1.632,1.632v6.527a1.632,1.632,0,0,1-1.632,1.632" transform="translate(-241.051 -334.663)" fill="#1b5b7b"/>
        <path id="Trazado_602181" data-name="Trazado 602181" d="M236.018,497.789a1.632,1.632,0,0,1-.73-.172l-13.055-6.527a1.632,1.632,0,0,1,1.46-2.919l12.325,6.163,12.325-6.163a1.632,1.632,0,0,1,1.46,2.919l-13.055,6.527a1.632,1.632,0,0,1-.73.172" transform="translate(-194.242 -428.271)" fill="#1b5b7b"/>
        <path id="Trazado_602182" data-name="Trazado 602182" d="M1.632,277.8A1.632,1.632,0,0,1,0,276.165v-53.2a1.632,1.632,0,0,1,1.632-1.632H12.4a1.632,1.632,0,0,1,0,3.264H3.264v51.567A1.632,1.632,0,0,1,1.632,277.8" transform="translate(0 -194.245)" fill="#1b5b7b"/>
        <path id="Trazado_602183" data-name="Trazado 602183" d="M331.264,657.633A1.632,1.632,0,1,1,329.632,656a1.632,1.632,0,0,1,1.632,1.632" transform="translate(-287.856 -575.713)" fill="#1b5b7b"/>
        <path id="Trazado_602184" data-name="Trazado 602184" d="M75.392,324.6H49.119a1.632,1.632,0,1,1,0-3.264H74l6-36.88H41.776a1.632,1.632,0,0,1-1.46-.9L37.5,277.931H19.938l-2.813,5.625a1.632,1.632,0,0,1-1.46.9H9.547l-6,36.88H34.432a1.632,1.632,0,0,1,0,3.264H1.632a1.632,1.632,0,0,1-1.611-1.894l6.527-40.144a1.632,1.632,0,0,1,1.611-1.37h6.5l2.813-5.625a1.632,1.632,0,0,1,1.46-.9H38.512a1.632,1.632,0,0,1,1.46.9l2.813,5.625H81.919a1.632,1.632,0,0,1,1.611,1.894L77,323.232a1.632,1.632,0,0,1-1.611,1.37" transform="translate(0 -241.051)" fill="#1b5b7b"/>
      </g>
    </g>
  </g>
</svg>
