<svg xmlns="http://www.w3.org/2000/svg" xmlns:xlink="http://www.w3.org/1999/xlink" width="503.114" height="228.29" viewBox="0 0 503.114 228.29">
  <defs>
    <clipPath id="clip-path">
      <rect id="Rectángulo_293276" data-name="Rectángulo 293276" width="297" height="185.505" fill="none"/>
    </clipPath>
    <clipPath id="clip-path-2">
      <rect id="Rectángulo_293278" data-name="Rectángulo 293278" width="50.587" height="5.369" fill="none"/>
    </clipPath>
    <linearGradient id="linear-gradient" x1="-2.039" y1="28.89" x2="-2.037" y2="28.89" gradientUnits="objectBoundingBox">
      <stop offset="0" stop-color="#ff9f55"/>
      <stop offset="1" stop-color="#ffd255"/>
    </linearGradient>
    <clipPath id="clip-path-4">
      <path id="Trazado_601501" data-name="Trazado 601501" d="M498.527,1100.743l1.723,43.266h30.027l-1.723-43.266Z" transform="translate(-498.527 -1100.743)" fill="none"/>
    </clipPath>
    <linearGradient id="linear-gradient-2" x1="-0.848" y1="1.273" x2="-0.846" y2="1.273" xlink:href="#linear-gradient"/>
  </defs>
  <g id="Grupo_877532" data-name="Grupo 877532" transform="translate(-285 -620)">
    <rect id="BG" width="503.114" height="228.29" transform="translate(285 620)" fill="#f2f5d1"/>
    <g id="Grupo_877152" data-name="Grupo 877152" transform="translate(4)">
      <g id="Grupo_874345" data-name="Grupo 874345" transform="translate(544.445 649.681)">
        <g id="Grupo_151688" data-name="Grupo 151688" transform="translate(0 7.064)">
          <path id="Trazado_212295" data-name="Trazado 212295" d="M-11425.02-11468v14.128" transform="translate(11432.083 11467.998)" fill="none" stroke="#f3ab1d" stroke-width="4"/>
          <path id="Trazado_212296" data-name="Trazado 212296" d="M0,0V14.127" transform="translate(14.127 7.064) rotate(90)" fill="none" stroke="#f3ab1d" stroke-width="4"/>
        </g>
        <g id="Grupo_151689" data-name="Grupo 151689" transform="translate(18.366 0)">
          <path id="Trazado_212295-2" data-name="Trazado 212295" d="M-11425.02-11468v14.128" transform="translate(11432.083 11467.998)" fill="none" stroke="#f3ab1d" stroke-width="4"/>
          <path id="Trazado_212296-2" data-name="Trazado 212296" d="M0,0V14.127" transform="translate(14.127 7.064) rotate(90)" fill="none" stroke="#f3ab1d" stroke-width="4"/>
        </g>
        <g id="Grupo_151690" data-name="Grupo 151690" transform="translate(21.427 21.192)">
          <path id="Trazado_212295-3" data-name="Trazado 212295" d="M-11425.02-11468v14.128" transform="translate(11432.083 11467.998)" fill="none" stroke="#f3ab1d" stroke-width="4"/>
          <path id="Trazado_212296-3" data-name="Trazado 212296" d="M0,0V14.127" transform="translate(14.127 7.064) rotate(90)" fill="none" stroke="#f3ab1d" stroke-width="4"/>
        </g>
      </g>
      <g id="Grupo_877137" data-name="Grupo 877137" transform="translate(312 644.863)">
        <g id="Grupo_877128" data-name="Grupo 877128">
          <g id="Grupo_877127" data-name="Grupo 877127" clip-path="url(#clip-path)">
            <path id="Trazado_601428" data-name="Trazado 601428" d="M50.907,382.13S69.824,374,77.13,385.019,74.2,395.351,74.2,395.351s-.569,5.094-10.231-6.962c-4.554-5.682-13.063-6.259-13.063-6.259" transform="translate(-45.224 -336.904)" fill="#bbd070"/>
            <path id="Trazado_601429" data-name="Trazado 601429" d="M21.353,119.3s16.793-5.208,27.849,16.092,21,22.984,21,22.984S32.216,165.19,21.353,119.3" transform="translate(-18.969 -105.482)" fill="#97a43c"/>
            <path id="Trazado_601430" data-name="Trazado 601430" d="M229.89,103.6c-1.471,7.082-17.68-6.574-19.276-18.819s1.582-21.23-1.64-29.086c0,0,28.157,13.034,20.916,47.9" transform="translate(-185.645 -49.474)" fill="#48753a"/>
            <path id="Trazado_601431" data-name="Trazado 601431" d="M298.589,143.665a6.485,6.485,0,0,0-1.9.279,5.416,5.416,0,0,0-10.14.65,3.954,3.954,0,0,0-1.4-.254,3.692,3.692,0,0,0-3.782,3.595h22.547c0-2.358-2.385-4.269-5.328-4.269" transform="translate(-249.959 -125.016)" fill="#fff"/>
            <path id="Trazado_601432" data-name="Trazado 601432" d="M31.878,276.426a4.951,4.951,0,0,0-1.446.212,4.13,4.13,0,0,0-7.732.5,3.017,3.017,0,0,0-1.068-.194,2.815,2.815,0,0,0-2.883,2.741H35.94c0-1.8-1.819-3.255-4.062-3.255" transform="translate(-16.655 -243.576)" fill="#fff"/>
            <path id="Trazado_601433" data-name="Trazado 601433" d="M374.423,428.356H170.572A9.354,9.354,0,0,1,161.218,419V305.616a9.354,9.354,0,0,1,9.354-9.354H374.423a9.354,9.354,0,0,1,9.354,9.354V419a9.354,9.354,0,0,1-9.354,9.354" transform="translate(-143.22 -263.188)" fill="#004e8c"/>
            <path id="Trazado_601434" data-name="Trazado 601434" d="M2121.834,352.585a11.364,11.364,0,0,0-1.218-2.935l1.24-1.864-1.719-1.72-1.719-1.72-1.864,1.239a11.387,11.387,0,0,0-2.935-1.218l-.441-2.193h-4.864l-.441,2.193a11.389,11.389,0,0,0-2.936,1.218l-1.864-1.239-1.72,1.72-1.719,1.72,1.24,1.864a11.39,11.39,0,0,0-1.218,2.935l-2.193.441v4.864l2.193.441a11.391,11.391,0,0,0,1.218,2.935l-1.24,1.864,1.719,1.72,1.72,1.72,1.864-1.24a11.384,11.384,0,0,0,2.936,1.218l.441,2.193h4.864l.441-2.193a11.382,11.382,0,0,0,2.935-1.218l1.864,1.24,1.719-1.72,1.719-1.72-1.24-1.864a11.366,11.366,0,0,0,1.218-2.935l2.193-.441v-4.864Zm-11.09,11.394a8.521,8.521,0,1,1,8.521-8.521,8.521,8.521,0,0,1-8.521,8.521" transform="translate(-1863.306 -303.976)" fill="#5ad1a5"/>
            <path id="Trazado_601435" data-name="Trazado 601435" d="M2271.387,572.291a5.207,5.207,0,0,0-.558-1.346l.568-.855-.788-.788-.789-.788-.854.568a5.217,5.217,0,0,0-1.346-.558l-.2-1.005h-2.23l-.2,1.005a5.219,5.219,0,0,0-1.346.558l-.854-.568-.789.788-.788.788.568.855a5.216,5.216,0,0,0-.558,1.346l-1.005.2v2.23l1.005.2a5.216,5.216,0,0,0,.558,1.346l-.568.855.788.788.789.788.854-.568a5.225,5.225,0,0,0,1.346.558l.2,1.005h2.23l.2-1.005a5.224,5.224,0,0,0,1.346-.558l.854.568.789-.788.788-.788-.568-.855a5.207,5.207,0,0,0,.558-1.346l1.005-.2v-2.23Zm-5.084,5.224a3.906,3.906,0,1,1,3.906-3.906,3.907,3.907,0,0,1-3.906,3.906" transform="translate(-2007.889 -504.163)" fill="#3185af"/>
            <path id="Trazado_601436" data-name="Trazado 601436" d="M57.45,654.727l-3.211-2.8a.632.632,0,1,1,.831-.953l2.271,1.98,3.238-3.612a.632.632,0,1,1,.942.844Z" transform="translate(-47.991 -576.664)" fill="#afafaf"/>
            <path id="Trazado_601437" data-name="Trazado 601437" d="M1388.25,201.6h4.157l-1.272-2.639h-4.157Z" transform="translate(-1232.139 -176.752)" fill="#ffdc7d"/>
            <path id="Trazado_601438" data-name="Trazado 601438" d="M1370.827,201.6h.991l-1.272-2.639h-.99Z" transform="translate(-1216.661 -176.752)" fill="#ffdc7d"/>
            <path id="Trazado_601439" data-name="Trazado 601439" d="M1247.859,183.951h16.832l-.559-1.319H1247.3Z" transform="translate(-1108.055 -162.243)" fill="#afafaf"/>
            <path id="Trazado_601440" data-name="Trazado 601440" d="M24.368,468.092h5.418l-1.658-3.44H22.709Z" transform="translate(-20.174 -412.78)" fill="#ffd179"/>
            <path id="Trazado_601441" data-name="Trazado 601441" d="M1.658,468.092H2.949l-1.658-3.44H0Z" transform="translate(0 -412.78)" fill="#ffd179"/>
            <rect id="Rectángulo_293253" data-name="Rectángulo 293253" width="27.46" height="27.46" transform="translate(26.109 71.953)" fill="#ffdf69"/>
            <rect id="Rectángulo_293254" data-name="Rectángulo 293254" width="27.46" height="27.46" transform="translate(26.109 42.386)" fill="#f0f0f0"/>
            <rect id="Rectángulo_293255" data-name="Rectángulo 293255" width="27.46" height="27.46" transform="translate(55.656 42.386)" fill="#f0f0f0"/>
            <rect id="Rectángulo_293256" data-name="Rectángulo 293256" width="27.46" height="27.46" transform="translate(102.099 71.822)" fill="#f0f0f0"/>
            <rect id="Rectángulo_293257" data-name="Rectángulo 293257" width="27.46" height="27.46" transform="translate(131.647 71.822)" fill="#ffdf69"/>
            <rect id="Rectángulo_293258" data-name="Rectángulo 293258" width="27.46" height="27.46" transform="translate(55.656 101.37)" fill="#f0f0f0"/>
            <rect id="Rectángulo_293259" data-name="Rectángulo 293259" width="27.46" height="27.46" transform="translate(55.656 130.919)" fill="#ffdf69"/>
            <rect id="Rectángulo_293260" data-name="Rectángulo 293260" width="27.46" height="27.46" transform="translate(102.099 130.919)" fill="#f0f0f0"/>
            <rect id="Rectángulo_293261" data-name="Rectángulo 293261" width="27.46" height="27.46" transform="translate(26.109 101.436)" fill="#f0f0f0"/>
            <path id="Trazado_601442" data-name="Trazado 601442" d="M1172.628,1172.712s-.019,12.711-3,23.486l-6.351,3.975h-22.391c4.254-11.321,4.28-27.46,4.28-27.46Z" transform="translate(-1013.522 -1041.793)" fill="#ffdf69"/>
            <path id="Trazado_601443" data-name="Trazado 601443" d="M1341.456,1386.329v-4.067h6.351Z" transform="translate(-1191.699 -1227.95)" fill="#deba35"/>
            <path id="Trazado_601444" data-name="Trazado 601444" d="M907.954,908.027s-.019,12.711-3,23.486l-6.351,3.975H876.214c4.254-11.321,4.28-27.46,4.28-27.46Z" transform="translate(-778.396 -806.657)" fill="#4ba2f4"/>
            <path id="Trazado_601445" data-name="Trazado 601445" d="M1076.782,1121.644v-4.067h6.351Z" transform="translate(-956.573 -992.814)" fill="#375eab"/>
            <rect id="Rectángulo_293262" data-name="Rectángulo 293262" width="27.46" height="27.46" transform="translate(131.647 42.405)" fill="#f0f0f0"/>
            <path id="Trazado_601446" data-name="Trazado 601446" d="M907.954,379.849s-.019,12.711-3,23.486l-2.154,1.348-4.2,2.626H876.214c4.254-11.321,4.28-27.461,4.28-27.461Z" transform="translate(-778.396 -337.444)" fill="#f3ab1d"/>
            <path id="Trazado_601447" data-name="Trazado 601447" d="M1076.782,593.466V589.4h6.351Z" transform="translate(-956.573 -523.6)" fill="#a17317"/>
            <path id="Trazado_601448" data-name="Trazado 601448" d="M227.267,1172.712s-.019,12.711-3,23.486l-6.351,3.975H195.527c4.254-11.321,4.28-27.46,4.28-27.46Z" transform="translate(-173.699 -1041.793)" fill="#f0f0f0"/>
            <path id="Trazado_601449" data-name="Trazado 601449" d="M396.095,1386.329v-4.067h6.351Z" transform="translate(-351.876 -1227.95)" fill="#c9c9c9"/>
            <rect id="Rectángulo_293263" data-name="Rectángulo 293263" width="27.46" height="27.46" transform="translate(176.37 71.953)" fill="#ffdf69"/>
            <rect id="Rectángulo_293264" data-name="Rectángulo 293264" width="27.46" height="27.46" transform="translate(176.37 42.386)" fill="#5ad1a5"/>
            <rect id="Rectángulo_293265" data-name="Rectángulo 293265" width="27.46" height="27.46" transform="translate(205.918 42.386)" fill="#f0f0f0"/>
            <rect id="Rectángulo_293266" data-name="Rectángulo 293266" width="27.46" height="27.46" transform="translate(205.918 101.37)" fill="#f0f0f0"/>
            <rect id="Rectángulo_293267" data-name="Rectángulo 293267" width="27.46" height="27.46" transform="translate(205.918 130.919)" fill="#ffdf69"/>
            <rect id="Rectángulo_293268" data-name="Rectángulo 293268" width="27.46" height="27.46" transform="translate(176.37 101.436)" fill="#f0f0f0"/>
            <path id="Trazado_601450" data-name="Trazado 601450" d="M1573.24,1172.712s-.019,12.711-3,23.486l-6.351,3.975H1541.5c4.254-11.321,4.28-27.46,4.28-27.46Z" transform="translate(-1369.411 -1041.793)" fill="#f0f0f0"/>
            <path id="Trazado_601451" data-name="Trazado 601451" d="M1742.067,1386.329v-4.067h6.351Z" transform="translate(-1547.587 -1227.95)" fill="#c9c9c9"/>
            <path id="Trazado_601452" data-name="Trazado 601452" d="M1172.628,908.027s-.019,12.711-3,23.486l-6.351,3.975h-22.391c4.254-11.321,4.28-27.46,4.28-27.46Z" transform="translate(-1013.522 -806.657)" fill="#f0f0f0"/>
            <path id="Trazado_601453" data-name="Trazado 601453" d="M1341.456,1121.644v-4.067h6.351Z" transform="translate(-1191.699 -992.814)" fill="#c9c9c9"/>
            <rect id="Rectángulo_293269" data-name="Rectángulo 293269" width="19.351" height="1.357" transform="translate(248.21 92.645)" fill="#3185af"/>
            <rect id="Rectángulo_293270" data-name="Rectángulo 293270" width="19.351" height="5.703" transform="translate(248.21 95.202)" fill="#3185af"/>
            <rect id="Rectángulo_293271" data-name="Rectángulo 293271" width="6.702" height="0.5" transform="translate(96.878 24.113)" fill="#ffdc7d"/>
            <rect id="Rectángulo_293272" data-name="Rectángulo 293272" width="6.702" height="1.355" transform="translate(96.878 24.832)" fill="#ffdc7d"/>
            <rect id="Rectángulo_293273" data-name="Rectángulo 293273" width="0.852" height="15.979" transform="translate(270.738 85.334)" fill="#ffd989"/>
            <rect id="Rectángulo_293274" data-name="Rectángulo 293274" width="1.727" height="141.916" transform="translate(91.074 31.828)" fill="#fff"/>
            <rect id="Rectángulo_293275" data-name="Rectángulo 293275" width="1.727" height="141.916" transform="translate(166.875 27.448)" fill="#fff"/>
          </g>
        </g>
        <g id="Grupo_877130" data-name="Grupo 877130" transform="translate(103.169 30.405)">
          <g id="Grupo_877129" data-name="Grupo 877129" clip-path="url(#clip-path-2)">
            <rect id="Rectángulo_293277" data-name="Rectángulo 293277" width="50.587" height="5.369" fill="url(#linear-gradient)"/>
          </g>
        </g>
        <g id="Grupo_877132" data-name="Grupo 877132">
          <g id="Grupo_877131" data-name="Grupo 877131" clip-path="url(#clip-path)">
            <path id="Trazado_601454" data-name="Trazado 601454" d="M1011.663,50.232l-4.333-1.883a.7.7,0,0,1,.559-1.287l3.064,1.332,2.212-4.9a.7.7,0,0,1,1.279.577Z" transform="translate(-894.5 -38.269)" fill="#3185af"/>
            <path id="Trazado_601455" data-name="Trazado 601455" d="M982.663,16.1a8.855,8.855,0,1,1,2.154-12.337A8.865,8.865,0,0,1,982.663,16.1M973.208,2.642a7.59,7.59,0,1,0,10.575,1.846,7.6,7.6,0,0,0-10.575-1.846" transform="translate(-860.574 0)" fill="#3185af"/>
            <path id="Trazado_601456" data-name="Trazado 601456" d="M1753.986,1049.205s-.855-.34-.916-.879a3.277,3.277,0,0,0-.55-1.2c-.156-.234-.39-1.13-.664-.939s.318,1.493.392,1.789-1.094-.335-1.385-.278-1.087,2.1-.243,2.442a7.733,7.733,0,0,0,2.071.213,5.593,5.593,0,0,0,.606.271Z" transform="translate(-1554.849 -929.367)" fill="#eea886"/>
            <path id="Trazado_601457" data-name="Trazado 601457" d="M1958.683,1562.985a11.383,11.383,0,0,0,.983,1.535c.388.436,1.875,1.216,1.883,2.511.009,1.4-2.506,1.015-3.49.963s-1.058-.8-1.472-1.6-.832-.66-.909-1.3a7.523,7.523,0,0,1,.4-2.11Z" transform="translate(-1737.343 -1388.497)" fill="#202338"/>
            <path id="Trazado_601458" data-name="Trazado 601458" d="M1812.411,1559.952a5.93,5.93,0,0,1-2.443,1.622c-1.23.281-2.091.639-2.1,1.409s3.541,1.277,4.949.5c2.1-1.158,2.315-.809,2.548-1.387s-.28-2.126-.265-2.31c.019-.227-2.689.166-2.689.166" transform="translate(-1606.042 -1385.592)" fill="#202338"/>
            <path id="Trazado_601459" data-name="Trazado 601459" d="M1848.676,1553.083a5.49,5.49,0,0,0-.136.642c.024.013,2.772.338,2.689-.166-.067-.409-.164-.853-.164-.853Z" transform="translate(-1642.171 -1379.365)" fill="#81807e"/>
            <path id="Trazado_601460" data-name="Trazado 601460" d="M1958.882,1557.308a5.329,5.329,0,0,0-.093.614c.022.014,2.787.5,2.772.006a2.384,2.384,0,0,0-.255-.856Z" transform="translate(-1740.113 -1383.244)" fill="#81807e"/>
            <path id="Trazado_601461" data-name="Trazado 601461" d="M1849,1196.2s-1,9.622-1.52,12.916c-.608,3.851-.814,7.033-.984,9.027-.213,2.507-.254,14.84-.4,15.573s3.311.2,3.311.2,1.7-16.115,2.338-18.785c.591-2.486,2.786-13.191,3.326-12.512s1.209,12.492,1.608,14.453,1.615,17.312,1.615,17.312,2.754.544,3.487-.071c0,0,.333-13.23.079-16.906-.1-1.4,1.656-16.8-.592-23-1.188-3.276-12.264,1.788-12.264,1.788" transform="translate(-1639.995 -1060.09)" fill="#292c47"/>
            <path id="Trazado_601462" data-name="Trazado 601462" d="M1892.006,1026.378c.58,1.587-4.748,5.563-4.086,5.684s.634,1.379.634,1.379,5.019-4.371,4.915-5.658c-.057-.714-3.986-11.109-4.586-11.538a43.136,43.136,0,0,0-4.312-1.83,9.537,9.537,0,0,0-1.182-.4c-.305-.019-4.064.341-4.064.341s-.539.185-1.09.438c-.94.432-2.406,1.106-3.458,1.607-.34.162-.765.38-1.118.567q.065,1.916.227,4.111s.2,3.2.214,6.429a14.824,14.824,0,0,1,.14,2.431c.046,1.612-.133,3.267-.18,4.191-.074,1.454-.274,3.524-.274,3.524l1.828.746,8.008-.075,2.507-.672s-.149-6.439-.112-8.311c.035-1.8.414-6.488.489-6.759,0,0,2.685-3.9,5.5,3.8" transform="translate(-1664.488 -900.808)" fill="#dbd8e3"/>
            <path id="Trazado_601463" data-name="Trazado 601463" d="M1875.033,1219.646a66.593,66.593,0,0,0,10.318,0v1.581s-7.174.685-10.56-.3Z" transform="translate(-1665.495 -1083.488)" fill="#1d2033"/>
            <path id="Trazado_601464" data-name="Trazado 601464" d="M1861.931,1021.488c.042,1.3.105,2.692.216,4.184,0,0,.1,3.642.314,7.1a6.875,6.875,0,0,1,.067,1.519c-.052.676-.126,1.413-.214,2.183,0,.01,0,.02,0,.029-.021.183-.043.366-.065.552,0,0,0,.005,0,.008a80.747,80.747,0,0,1-1.673,9.6c-.087.279.214.537.429.736l1.5.948s.62-5.71.826-7.648c.2-1.871.824-4.379,1.1-6.823h0c.347-3.1.826-6.138,1.083-7.943a30.224,30.224,0,0,1,1.566-6.8c-.428.128-5.147,2.358-5.147,2.358" transform="translate(-1652.848 -905.357)" fill="#323657"/>
            <path id="Trazado_601465" data-name="Trazado 601465" d="M1951.709,1027.628c.652,1.43-4.135,5.8-4.079,5.948a13.768,13.768,0,0,0,1.572,2.434s7.413-7.963,7.315-8.943c-.071-.714-6.286-8.65-6.886-9.08-.346-.249-2.914-1.159-4.174-1.655-.23-.091-.981-.374-1.187-.452-.267.3-2.145,2.317-2.8,10a48.319,48.319,0,0,0,.468,6.273c.247,2.387.52,4.25.72,6.246.395,3.933.671,7.062.671,7.062l3.914-1.743c.633-.317,1.729-1.144,1.49-1.811-.9-2.534-2.262-7.338-2.264-9.561,0,0,1.034-7.429,1.38-8.626,0,0,3.125,2.311,3.854,3.91" transform="translate(-1724.715 -902.47)" fill="#323657"/>
            <path id="Trazado_601466" data-name="Trazado 601466" d="M1928.375,985.586a26.389,26.389,0,0,1,.523-3.9c.133-.7-4.057,1.839-4.057,1.839s.013.245.021.575c0,.174.007.372.006.571,0,.07,0,.14,0,.209,0,.185-.012.361-.028.512a2.4,2.4,0,0,1-.14.5c-.173.4,2.266.7,3.677-.309" transform="translate(-1709.821 -871.984)" fill="#eea987"/>
            <path id="Trazado_601467" data-name="Trazado 601467" d="M1928.751,1029.707l-.695.933a.842.842,0,0,0,1.13.143Z" transform="translate(-1712.813 -914.753)" fill="#5ad1a5"/>
            <path id="Trazado_601468" data-name="Trazado 601468" d="M1912.494,1038.207s-2.634,10.142-2.091,18.036l.886,1.562.83-1.636s.227-14.121.949-17.987Z" transform="translate(-1697.064 -922.282)" fill="#5ad1a5"/>
            <path id="Trazado_601469" data-name="Trazado 601469" d="M1927.616,1019.8l.744.87s1.194-.231,1.544-.855-2.288-.015-2.288-.015" transform="translate(-1712.422 -905.715)" fill="#eea987"/>
            <path id="Trazado_601470" data-name="Trazado 601470" d="M1922.281,1015.094a3.587,3.587,0,0,0,.914,1.631l-.9,1.214-.489-2.518Z" transform="translate(-1707.258 -901.771)" fill="#c4c1cc"/>
            <path id="Trazado_601471" data-name="Trazado 601471" d="M1936.962,1009.442a9.349,9.349,0,0,1-2.684,2.262l.561,1.388,2.809-3.02Z" transform="translate(-1718.34 -896.75)" fill="#c4c1cc"/>
            <path id="Trazado_601472" data-name="Trazado 601472" d="M1763.892,1042.937s6.366,6.917,7.868,6.547c.695-.171,1.747-1.37,2.616-2.5.287-.371.568-.761.835-1.146h0c1.067-1.54,1.9-3.016,1.9-3.016s3.152-3.694.623-5.341a2.853,2.853,0,0,0-1.673.34,17.309,17.309,0,0,0-2.143,3.5c-.221.481-1.942,3.881-2.1,3.981a11.985,11.985,0,0,1-2.753-1.521,33.362,33.362,0,0,1-3.293-2.694Z" transform="translate(-1566.976 -921.65)" fill="#323657"/>
            <rect id="Rectángulo_293279" data-name="Rectángulo 293279" width="2.573" height="1.952" transform="translate(213.595 136.242)" fill="#3a4066"/>
            <path id="Trazado_601473" data-name="Trazado 601473" d="M1926.247,995.022c0,.07,0,.14,0,.209,2.4-.8,2.861-2.015,2.861-2.015a16.352,16.352,0,0,1-2.864,1.235c0,.174.007.373.006.571" transform="translate(-1711.2 -882.336)" fill="#a77860"/>
            <path id="Trazado_601474" data-name="Trazado 601474" d="M1989.381,1173.928a.841.841,0,0,1-.467.188c-.415,0-.887-.455-1.321-.045s.479,2.152.808,2.356,1.076-.163,1.876-1.129-.9-1.37-.9-1.37" transform="translate(-1765.601 -1042.848)" fill="#eea886"/>
            <path id="Trazado_601475" data-name="Trazado 601475" d="M1963.317,1174.4a17.245,17.245,0,0,0-1.733.725c-.785.383-1.706.968-1.612,1.166.143.3.843-.264,1.646-.591.74-.3.645-.116.645-.116s.024-.054-.718.432c-.8.523-1.633,1.118-1.559,1.283.092.2.12.221.441.079-.167.122-.157.185-.113.26.229.389,1.522-.194,2.035-.426-.393.181-.662.356-.368.5.337.169,2.127-.74,2.8-1,.734-.287-1.463-2.312-1.463-2.312" transform="translate(-1741.16 -1043.288)" fill="#eea886"/>
            <path id="Trazado_601476" data-name="Trazado 601476" d="M1996.773,1149.074a5.1,5.1,0,0,0,1.572,2.434s3.184-3.513,3.752-4.17l-2.491-1.445Z" transform="translate(-1773.858 -1017.967)" fill="#323657"/>
            <path id="Trazado_601477" data-name="Trazado 601477" d="M1901.3,928.923s-1.292,1.446-.91,1.81c.316.3-.87,1.74-1.037,1.981s.554.618.677.828.1,2.434.72,2.648a9.735,9.735,0,0,0,4.675-.718c.969-.622,2.477-4.116,2.326-5.778s-4.178-3.295-6.451-.772" transform="translate(-1687.292 -824.063)" fill="#eea886"/>
            <path id="Trazado_601478" data-name="Trazado 601478" d="M1914.2,917.292a2.622,2.622,0,0,1,1.492-2.944c1.978-.933,4.481,2.132,4.805,2.3s2.249.773.44,3.974a23.03,23.03,0,0,1-1.7,2.844,8.09,8.09,0,0,0-.522-2.207,3.523,3.523,0,0,0-1.716-.737s.957-1.415.094-1.854-1.884-1.5-2.892-1.38" transform="translate(-1700.46 -812.115)" fill="#323657"/>
            <path id="Trazado_601479" data-name="Trazado 601479" d="M1946.348,960.35c.132-.194.611-1.048,1.269-.322s-1.031,2.149-1.174,2.138-1.2-.184-.1-1.816" transform="translate(-1728.619 -852.597)" fill="#eea886"/>
            <path id="Trazado_601480" data-name="Trazado 601480" d="M1707.951,1133.7s-.385,1.512-.437,1.739-2.423-.4-2.423-.4l0-1.849a14.229,14.229,0,0,1,2.858.509" transform="translate(-1514.739 -1006.681)" fill="#666fb3"/>
            <path id="Trazado_601481" data-name="Trazado 601481" d="M1700.284,1148.643a6.57,6.57,0,0,0,1.359,1.491c.7.483,3.377,1.108,3.769,1.573.283.335.676,1.6-3.628,1.025-3.058-.412-4.566-.308-4.841-.841s.872-3.62.872-3.62a5.878,5.878,0,0,0,2.469.372" transform="translate(-1507.463 -1020.081)" fill="#2d314f"/>
            <rect id="Rectángulo_293280" data-name="Rectángulo 293280" width="103.468" height="1.088" transform="translate(191.204 185.4) rotate(-84.444)" fill="#b8b8b8"/>
            <rect id="Rectángulo_293281" data-name="Rectángulo 293281" width="103.468" height="1.088" transform="matrix(0.097, -0.995, 0.995, 0.097, 173.692, 183.7)" fill="#b8b8b8"/>
            <rect id="Rectángulo_293282" data-name="Rectángulo 293282" width="1.088" height="17.594" transform="translate(184.001 83.329) rotate(-84.464)" fill="#b8b8b8"/>
            <rect id="Rectángulo_293283" data-name="Rectángulo 293283" width="1.088" height="17.594" transform="matrix(0.097, -0.995, 0.995, 0.097, 183.21, 91.471)" fill="#b8b8b8"/>
            <rect id="Rectángulo_293284" data-name="Rectángulo 293284" width="1.088" height="17.594" transform="matrix(0.097, -0.995, 0.995, 0.097, 182.42, 99.614)" fill="#b8b8b8"/>
            <rect id="Rectángulo_293285" data-name="Rectángulo 293285" width="1.088" height="17.594" transform="matrix(0.097, -0.995, 0.995, 0.097, 181.63, 107.757)" fill="#b8b8b8"/>
            <rect id="Rectángulo_293286" data-name="Rectángulo 293286" width="1.088" height="17.594" transform="matrix(0.097, -0.995, 0.995, 0.097, 180.84, 115.9)" fill="#b8b8b8"/>
            <rect id="Rectángulo_293287" data-name="Rectángulo 293287" width="1.088" height="17.594" transform="translate(180.049 124.044) rotate(-84.464)" fill="#b8b8b8"/>
            <rect id="Rectángulo_293288" data-name="Rectángulo 293288" width="1.088" height="17.594" transform="translate(179.259 132.186) rotate(-84.458)" fill="#b8b8b8"/>
            <rect id="Rectángulo_293289" data-name="Rectángulo 293289" width="1.088" height="17.594" transform="matrix(0.097, -0.995, 0.995, 0.097, 178.469, 140.329)" fill="#b8b8b8"/>
            <rect id="Rectángulo_293290" data-name="Rectángulo 293290" width="1.088" height="17.594" transform="matrix(0.097, -0.995, 0.995, 0.097, 177.678, 148.472)" fill="#b8b8b8"/>
            <rect id="Rectángulo_293291" data-name="Rectángulo 293291" width="1.088" height="17.594" transform="matrix(0.097, -0.995, 0.995, 0.097, 176.888, 156.615)" fill="#b8b8b8"/>
            <rect id="Rectángulo_293292" data-name="Rectángulo 293292" width="1.088" height="17.594" transform="matrix(0.097, -0.995, 0.995, 0.097, 176.098, 164.758)" fill="#b8b8b8"/>
            <rect id="Rectángulo_293293" data-name="Rectángulo 293293" width="1.088" height="17.594" transform="translate(175.308 172.901) rotate(-84.464)" fill="#b8b8b8"/>
            <rect id="Rectángulo_293294" data-name="Rectángulo 293294" width="1.088" height="17.594" transform="translate(174.517 181.043) rotate(-84.458)" fill="#b8b8b8"/>
            <path id="Trazado_601482" data-name="Trazado 601482" d="M1899.732,587.746a1.623,1.623,0,0,1-.381.351s-.3.112-.5.2a1.506,1.506,0,0,0-.156.078,2.974,2.974,0,0,1-.838.443c-.4.117-2.236.534-2.236.534l-.426-1.087-.305-.877a18.6,18.6,0,0,1,2.06-2.348.986.986,0,0,1,.106-.038,3.777,3.777,0,0,1,.776-.07c.064-.012.71-.084.85.05a.635.635,0,0,1,.219.577,1.518,1.518,0,0,1,.39.737.944.944,0,0,1,.254.793s.313.387.187.653" transform="translate(-1683.348 -519.608)" fill="#eea886"/>
            <path id="Trazado_601483" data-name="Trazado 601483" d="M1746.339,619.7a25.112,25.112,0,0,1,2.864-1.589c3.526-1.764,7.88-4.962,8.708-5.424,1.273-.71,5.294-5.623,5.294-5.623-.207-.74-2.114-2.225-2.114-2.225s-6.1,5.774-7.428,6.484c-1.146.611-6.8,1.229-8.363,1.389l-.4.04c-1.628,2.22.528,7.533,1.437,6.947" transform="translate(-1549.58 -537.314)" fill="#4ba2f4"/>
            <path id="Trazado_601484" data-name="Trazado 601484" d="M1654.374,843.037s1.725,6.406,2.18,8.7c.4,1.995,1.193,7.309,1.307,8.572s-5.092,13.491-5.633,15.7l-4.743-.762s5-12.726,3.7-15.555c-1.941-4.206-2.194-4.079-3.723-7.544s-5.03-3.547-5.97-9.976c0,0,11.612-1.17,12.885.869" transform="translate(-1458.237 -747.854)" fill="#2d314f"/>
            <path id="Trazado_601485" data-name="Trazado 601485" d="M1665.681,571.543s3.149-1.176,4.6,1.221,1.312,7.2-.275,7.786-3.972.281-4.784-1.218a12.013,12.013,0,0,1-1.511-5.118,3.157,3.157,0,0,1,1.97-2.671" transform="translate(-1477.977 -507.481)" fill="#eea886"/>
            <path id="Trazado_601486" data-name="Trazado 601486" d="M1676.3,630.11a2.643,2.643,0,0,0,.083,1.232c.21.407-3.961.417-3.961.417a27.5,27.5,0,0,0-.981-4.08c-.642-1.869,4.858,2.431,4.858,2.431" transform="translate(-1484.801 -557.189)" fill="#eea886"/>
            <path id="Trazado_601487" data-name="Trazado 601487" d="M1662.49,575.3s.288.475,1.463.291,2.609-1.748,3.1-1.919.5-.46.5-.46l.307.449.521.033s-.475-1.4.242-1.969-.744-4.527-4.513-3.209c0,0-2.895.8-2.789,2.444a9.15,9.15,0,0,0,1.174,4.341" transform="translate(-1475.848 -504.814)" fill="#d88a51"/>
            <path id="Trazado_601488" data-name="Trazado 601488" d="M1707.724,602.577c-.066-.276-.768-1.065-1.037-.22s.406,1.981.783,1.884.421-.964.254-1.664" transform="translate(-1516.103 -534.774)" fill="#eea886"/>
            <path id="Trazado_601489" data-name="Trazado 601489" d="M1608.7,686.036a1.855,1.855,0,0,0,.828,1.081,1.347,1.347,0,0,0,.718.236l.187.006h0l3.272.111s2.433-7.863-2.13-10.861c-.141.014-3.192,5.637-2.875,9.427" transform="translate(-1429.087 -601.075)" fill="#4ba2f4"/>
            <path id="Trazado_601490" data-name="Trazado 601490" d="M1696.942,1151.888c.275.533,1.784.429,4.841.84a13.986,13.986,0,0,0,2.01.149l.178-1.839a13.862,13.862,0,0,1-2.33-.907,6.562,6.562,0,0,1-1.359-1.491,5.868,5.868,0,0,1-2.469-.372s-1.147,3.087-.872,3.62" transform="translate(-1507.462 -1020.078)" fill="#2d314f"/>
            <path id="Trazado_601491" data-name="Trazado 601491" d="M1681.289,659.694a9.575,9.575,0,0,0-4.015-.109l-.219.2s-.44.843,1.216.916,4.259.193,3.018-1.009" transform="translate(-1489.786 -585.78)" fill="#4ba2f4"/>
            <path id="Trazado_601492" data-name="Trazado 601492" d="M1602.755,1197.029s-.385,1.511-.437,1.739-2.423-.4-2.423-.4l0-1.849a14.219,14.219,0,0,1,2.858.509" transform="translate(-1421.287 -1062.943)" fill="#666fb3"/>
            <path id="Trazado_601493" data-name="Trazado 601493" d="M1598.165,844.827a49.965,49.965,0,0,0-1.12,7.135c-.237,3.3-.667,6.916-1.009,10.366-.381,3.846-1.47,10.063-1.526,12.121s-1.789,11.049-1.789,11.049l4.43.509s2.878-15.889,3.557-17.513,4.051-13.2,4.164-14.5-6.706-9.164-6.706-9.164" transform="translate(-1414.913 -750.513)" fill="#2d314f"/>
            <path id="Trazado_601494" data-name="Trazado 601494" d="M1595.087,1211.975a6.569,6.569,0,0,0,1.359,1.491c.7.483,3.377,1.108,3.769,1.572.283.335.676,1.605-3.628,1.026-3.058-.412-4.566-.308-4.841-.841s.872-3.62.872-3.62a5.876,5.876,0,0,0,2.469.372" transform="translate(-1414.009 -1076.343)" fill="#2d314f"/>
            <path id="Trazado_601495" data-name="Trazado 601495" d="M1642.362,691.358c.377-.054-.937-11.3-.836-12.005.067-.471.057-4.125.029-6.4l.411-2.306a10.548,10.548,0,0,1,.9-.571c.571-.33,1.287-.706,2.083-1.1-.093-.545-.157-.974-.182-1.224a4.606,4.606,0,0,0-2.33-3.55,3.83,3.83,0,0,0-.531-.265c-.293-.124-.581-.245-.86-.36-1.858-.764-4.216-1.482-4.216-1.482h-3.791a32.116,32.116,0,0,0-4.6,1.28,3.212,3.212,0,0,0-.621.341l.515,10.806v.007l0,.014c.232,1.52.476,3.313.558,4.571.033.513-.554,3.27-.86,5.8l-1.072,6.055s.62,2.509,15.4.4" transform="translate(-1445.329 -588.174)" fill="#4ba2f4"/>
            <path id="Trazado_601496" data-name="Trazado 601496" d="M1599.348,84.6a2.644,2.644,0,0,1-1.577-.476,1.981,1.981,0,0,1-.859-1.442,12.02,12.02,0,0,0-.993-3.011,5.313,5.313,0,1,1,6.359-.383,11.445,11.445,0,0,0-.442,2.985,2.322,2.322,0,0,1-2.286,2.317c-.068.006-.135.009-.2.01m-.572-14.241a4.878,4.878,0,0,0-2.569,8.981l.052.034.027.056a12.535,12.535,0,0,1,1.057,3.191l0,.016a1.552,1.552,0,0,0,.679,1.133,2.237,2.237,0,0,0,1.489.386A1.89,1.89,0,0,0,1601.4,82.3v-.017a11.949,11.949,0,0,1,.475-3.176l.018-.066.053-.044a4.877,4.877,0,0,0-3.171-8.639" transform="translate(-1415.633 -62.12)" fill="#ffdc7d"/>
            <path id="Trazado_601497" data-name="Trazado 601497" d="M1625.762,137.9l-1.211-5.7,1.292.887.671-.894.714.718,1.038-1.053-.165,5.837-.435-.012.134-4.733-.571.579-.669-.673-.62.826-.738-.507.985,4.64Z" transform="translate(-1443.19 -117.137)" fill="#ffdc7d"/>
            <rect id="Rectángulo_293295" data-name="Rectángulo 293295" width="3.768" height="1.518" transform="translate(181.991 22.101) rotate(-4.747)" fill="#ffdc7d"/>
            <rect id="Rectángulo_293296" data-name="Rectángulo 293296" width="4.98" height="2.444" transform="translate(181.259 20.605) rotate(-4.746)" fill="#ffdc7d"/>
            <path id="Trazado_601498" data-name="Trazado 601498" d="M491.422,1268.158l-1.716-43.089h29.686l1.717,43.1.341-.014-1.73-43.43H489.35l1.73,43.444Z" transform="translate(-434.72 -1088.002)" fill="#004e8c"/>
            <path id="Trazado_601499" data-name="Trazado 601499" d="M478.949,1225.068h29.686l-1.716,43.089.341.014,1.731-43.444H478.621l-1.73,43.43.341.014Z" transform="translate(-423.652 -1088.002)" fill="#004e8c"/>
            <path id="Trazado_601500" data-name="Trazado 601500" d="M508.445,1144.01H478.418l1.723-43.266h30.027Z" transform="translate(-425.008 -977.859)" fill="#c26c23"/>
          </g>
        </g>
        <g id="Grupo_877134" data-name="Grupo 877134" transform="translate(55.654 122.884)">
          <g id="Grupo_877133" data-name="Grupo 877133" clip-path="url(#clip-path-4)">
            <rect id="Rectángulo_293298" data-name="Rectángulo 293298" width="53.045" height="53.045" transform="translate(-21.633 21.633) rotate(-45)" fill="url(#linear-gradient-2)"/>
          </g>
        </g>
        <g id="Grupo_877136" data-name="Grupo 877136">
          <g id="Grupo_877135" data-name="Grupo 877135" clip-path="url(#clip-path)">
            <rect id="Rectángulo_293299" data-name="Rectángulo 293299" width="1.509" height="11.486" transform="translate(81.061 149.405)" fill="#e3f2ff"/>
            <rect id="Rectángulo_293300" data-name="Rectángulo 293300" width="1.509" height="10.199" transform="translate(78.079 150.692)" fill="#e3f2ff"/>
            <rect id="Rectángulo_293301" data-name="Rectángulo 293301" width="1.509" height="8.524" transform="translate(74.84 152.366)" fill="#e3f2ff"/>
            <rect id="Rectángulo_293302" data-name="Rectángulo 293302" width="1.509" height="6.413" transform="translate(71.513 154.477)" fill="#e3f2ff"/>
            <path id="Trazado_601502" data-name="Trazado 601502" d="M557.308,1153.417l-.327-.117,2.846-7.984,6.172-1.633,2.218-8.763,4.763-2.1,1.067-6.814.343.054-1.1,7-4.781,2.11-2.227,8.8-6.193,1.638Z" transform="translate(-494.801 -1000.3)" fill="#e3f2ff"/>
            <path id="Trazado_601503" data-name="Trazado 601503" d="M632.39,1277.678a.926.926,0,1,1-1.3-.131.926.926,0,0,1,1.3.131" transform="translate(-560.331 -1134.739)" fill="#ffb255"/>
            <path id="Trazado_601504" data-name="Trazado 601504" d="M630.99,1277.737a1.1,1.1,0,1,1,.156-1.548,1.1,1.1,0,0,1-.156,1.548m-1.172-1.434a.753.753,0,1,0,1.059.106.754.754,0,0,0-1.059-.106" transform="translate(-558.953 -1133.36)" fill="#e3f2ff"/>
            <path id="Trazado_601505" data-name="Trazado 601505" d="M652.52,1199.5a.926.926,0,1,1-1.3-.131.926.926,0,0,1,1.3.131" transform="translate(-578.214 -1065.293)" fill="#ffb555"/>
            <path id="Trazado_601506" data-name="Trazado 601506" d="M651.12,1199.564a1.1,1.1,0,1,1,.156-1.548,1.1,1.1,0,0,1-.156,1.548m-1.172-1.434a.753.753,0,1,0,1.059.106.753.753,0,0,0-1.059-.106" transform="translate(-576.835 -1063.914)" fill="#e3f2ff"/>
            <path id="Trazado_601507" data-name="Trazado 601507" d="M694.525,1180.139a.926.926,0,1,1-1.3-.131.926.926,0,0,1,1.3.131" transform="translate(-615.53 -1048.089)" fill="#ffb555"/>
            <path id="Trazado_601508" data-name="Trazado 601508" d="M693.127,1180.2a1.1,1.1,0,1,1,.155-1.548,1.1,1.1,0,0,1-.155,1.548m-1.172-1.434a.753.753,0,1,0,1.059.106.753.753,0,0,0-1.059-.106" transform="translate(-614.153 -1046.71)" fill="#e3f2ff"/>
            <path id="Trazado_601509" data-name="Trazado 601509" d="M577.321,1293.03a.926.926,0,1,1-1.3-.131.926.926,0,0,1,1.3.131" transform="translate(-511.41 -1148.377)" fill="#ffb455"/>
            <path id="Trazado_601510" data-name="Trazado 601510" d="M575.922,1293.09a1.1,1.1,0,1,1,.156-1.548,1.1,1.1,0,0,1-.156,1.548m-1.172-1.434a.753.753,0,1,0,1.059.106.753.753,0,0,0-1.059-.106" transform="translate(-510.032 -1147)" fill="#e3f2ff"/>
            <path id="Trazado_601511" data-name="Trazado 601511" d="M542.756,1202.589h-7.943a.665.665,0,0,1-.665-.665v-.591a.665.665,0,0,1,.665-.665h7.943a.665.665,0,0,1,.665.665v.591a.665.665,0,0,1-.665.665" transform="translate(-474.518 -1066.628)" fill="#ebebeb"/>
            <path id="Trazado_601512" data-name="Trazado 601512" d="M542.756,1172.508h-7.943a.665.665,0,0,1-.665-.665v-.591a.665.665,0,0,1,.665-.665h7.943a.665.665,0,0,1,.665.665v.591a.665.665,0,0,1-.665.665" transform="translate(-474.518 -1039.906)" fill="#ebebeb"/>
            <path id="Trazado_601513" data-name="Trazado 601513" d="M321.085,897.993a4.124,4.124,0,0,1,1.915,4.63c-.629,3.385-.907,3.842-.2,5.164s1.534,6.966.9,8.035-7.838-4.7-8.837-9.541.633-6.994,1.21-7.8,2.769-1.632,5.015-.492" transform="translate(-279.428 -797.247)" fill="#0e2d3d"/>
            <path id="Trazado_601514" data-name="Trazado 601514" d="M422.635,865.445H414.5v7.142l1.243-1.243h6.9Z" transform="translate(-368.222 -768.829)" fill="#ffcb55"/>
            <path id="Trazado_601515" data-name="Trazado 601515" d="M359.8,1550.2h.576v-2.719a7.723,7.723,0,0,1,1.841,1.8c.71,1.042,1.685.954,3.171.887s1.419-.665,1.286-1.508-1.641-1.109-2.129-1.242-1.6-2.041-1.952-2.506a6.368,6.368,0,0,1-.743-1.242s-.277-1.131-1.652,0a3.42,3.42,0,0,0-.82,3.5,24.669,24.669,0,0,1,.421,3.03" transform="translate(-319.102 -1370.892)" fill="#163342"/>
            <path id="Trazado_601516" data-name="Trazado 601516" d="M368.139,1549.039c.51.333,1.841,0,1.841,0-.377-.488-2.694-3.748-2.694-3.748-1.408-.821-1.965.309-1.965.309.574.176,2.308,3.106,2.818,3.439" transform="translate(-324.537 -1372.513)" fill="#eea886"/>
            <path id="Trazado_601517" data-name="Trazado 601517" d="M522.8,1119.711s.923.177,1.238-.257a3.014,3.014,0,0,1,1.07-.74c.252-.117.893-.765,1.043-.448s-1,1.119-1.213,1.335,1.133.312,1.364.523-.053,2.423-.966,2.251a8.411,8.411,0,0,1-1.941-.957,5.7,5.7,0,0,1-.669-.1Z" transform="translate(-464.368 -993.349)" fill="#eea886"/>
            <path id="Trazado_601518" data-name="Trazado 601518" d="M547.216,1134.785a20.741,20.741,0,0,1,2.9.914c.144.2.1.349-.164.293s-2.686-.612-2.686-.612,3.125,1.393,3.279,1.532c.09.081.015.372-.127.355s-3.318-1.22-3.318-1.22,2.915,1.306,3.01,1.461a.22.22,0,0,1-.276.3c-.223-.082-3-1.141-3-1.141a12.97,12.97,0,0,1,2.064,1.262c0,.109-.051.363-.575.067s-1.831-.865-1.831-.865Z" transform="translate(-485.487 -1008.1)" fill="#eea886"/>
            <path id="Trazado_601519" data-name="Trazado 601519" d="M296.334,1567.993h.355v-2a4.342,4.342,0,0,1,.919,1.6c.288.954,1.32,1.236,2.895,1.192s1.6-.666,1.464-1.6-1.464-1.419-1.464-1.419a24.9,24.9,0,0,1-2.085-2.739,2.076,2.076,0,0,0-1.7.349c-.748.6-.516,1.968-.494,2.323s.111,2.284.111,2.284" transform="translate(-263.108 -1388.496)" fill="#163342"/>
            <path id="Trazado_601520" data-name="Trazado 601520" d="M281.668,1175.711a13.923,13.923,0,0,0-2.385,5.333c-.509,2.894.3,12.607.278,14.037s-1.353,4.989-1.086,7.684,1.316,16.1,1.316,16.1l2.875-.57s-.166-13.671,0-14.8.5-5.253.567-5.719,4.223-12.694,4.223-14.78-1.264-10.691-5.788-7.287" transform="translate(-247.356 -1043.758)" fill="#1d3b54"/>
            <path id="Trazado_601521" data-name="Trazado 601521" d="M340.446,1185.661s3.082,11.764,3.448,13.394a34.375,34.375,0,0,1,.9,3.666,24.228,24.228,0,0,1-.6,4.184l-3.914,18.72h-3.728s2.077-11.231,2.133-13.427,1.75-5.326,1.418-6.258-5.355-11.675-5.355-11.675-3.8-12.019,5.7-8.6" transform="translate(-296.709 -1052.754)" fill="#1d3b54"/>
            <path id="Trazado_601522" data-name="Trazado 601522" d="M304.839,1566.2l-2.085-2.739-1.7.349a7.718,7.718,0,0,0,1.285,2.148,2.124,2.124,0,0,0,2.5.242" transform="translate(-267.444 -1388.921)" fill="#eea886"/>
            <path id="Trazado_601523" data-name="Trazado 601523" d="M371.469,1011.445a3.846,3.846,0,0,1,2.231,1.149,14.73,14.73,0,0,1,2.113,3.218c.252.549,3.777,5.634,3.96,5.748s1.955.707,3.129,1.1c1.812.61,5.444,1.93,5.444,1.93l-.721,2.284s-6.83-2.235-8.54-2.656c-2.091-.515-6.906-6.692-6.906-6.692s-3.59-4.207-.709-6.082" transform="translate(-329.005 -898.53)" fill="#285173"/>
            <path id="Trazado_601524" data-name="Trazado 601524" d="M290.3,1002.773a17.23,17.23,0,0,0,2.218.892c.571.114,2.789,2.995,3.178,4.047s0,2.629-.8,4.481-.046,2.469-.411,4.321a76.291,76.291,0,0,0-.18,9.809c.069,1.029-10.7,2.588-12.828.714,0,0,1.439-6.244,3.144-8.026.369-.385.33-2.954.078-3.594s-3.086-5.419-3.086-5.419-.208-4.846,1.029-5.807c1.074-.834,4-1.132,4.529-1.315a8.978,8.978,0,0,1,3.13-.1" transform="translate(-250.054 -890.749)" fill="#5ad1a5"/>
            <path id="Trazado_601525" data-name="Trazado 601525" d="M336.392,968.516s-.049.453-.106,1.066c-.022.242-.046.51-.068.784a18.5,18.5,0,0,0-.086,2.153s-1.711,1.714-3.656-2a5.1,5.1,0,0,0,.2-3.618c-.616-2.087,3.714,1.615,3.714,1.615" transform="translate(-295.359 -858.392)" fill="#eea886"/>
            <path id="Trazado_601526" data-name="Trazado 601526" d="M403.98,1058.9a13.985,13.985,0,0,0-.026-4.4,10.634,10.634,0,0,1-.785,3.466Z" transform="translate(-358.16 -936.779)" fill="#183c59"/>
            <path id="Trazado_601527" data-name="Trazado 601527" d="M320.7,1004.305s1.177,3.475,4.407,3.22,1.531-2.935,1.531-2.935a7.145,7.145,0,0,0-1.032-.505c-.227-.043-3.572-.086-3.572-.086Z" transform="translate(-284.899 -891.915)" fill="#eea886"/>
            <path id="Trazado_601528" data-name="Trazado 601528" d="M373.9,1009.295a31.84,31.84,0,0,1,1.692,9.451c0,4.771.136,12.541.727,15s2.272,10.043,2.272,10.043l1.318-.682s-3.169-12.112-3.408-12.985a84.054,84.054,0,0,1,.409-10.872c.227-.773,1.194-4.211,1.043-5.165a8.733,8.733,0,0,0-3.133-4.512Z" transform="translate(-332.156 -896.62)" fill="#285173"/>
            <path id="Trazado_601529" data-name="Trazado 601529" d="M269.6,1005.43a48.665,48.665,0,0,1,1.585,7.68c.533,4.313-1.636,24.332-3.09,28.876l-5.635-.909s1.213-14.15,2.859-16.726,2.171-4.853.393-10.228.779-8.037.779-8.037,2.615-.6,3.109-.657" transform="translate(-233.158 -893.186)" fill="#285173"/>
            <path id="Trazado_601530" data-name="Trazado 601530" d="M266.065,1097.089l-6.832,11.834-7.6-4.385,6.536-12.005Z" transform="translate(-223.545 -970.564)" fill="#616161"/>
            <path id="Trazado_601531" data-name="Trazado 601531" d="M271.531,1104.79l-6.068,10.51-6.746-3.895,5.8-10.662Z" transform="translate(-229.834 -977.859)" fill="#e0cec7"/>
            <path id="Trazado_601532" data-name="Trazado 601532" d="M330.895,1110.136l.426-.738-2.727-1.575-.533.676Z" transform="translate(-291.437 -984.149)" fill="#616161"/>
            <path id="Trazado_601533" data-name="Trazado 601533" d="M325.6,1174.474a1.412,1.412,0,0,1-.447-.064s-.239-.138-.414-.227a1.3,1.3,0,0,0-.138-.062,2.586,2.586,0,0,1-.762-.322,17.315,17.315,0,0,1-1.372-1.448l.505-.768.371-.787a17.449,17.449,0,0,1,2.55.308.836.836,0,0,1,.084.051,3.3,3.3,0,0,1,.476.486c.043.037.448.433.434.6a.553.553,0,0,1-.269.466,1.323,1.323,0,0,1-.283.67.823.823,0,0,1-.4.609s-.089.425-.338.486" transform="translate(-286.466 -1040.091)" fill="#eea886"/>
            <path id="Trazado_601534" data-name="Trazado 601534" d="M256.657,1010.891a2.866,2.866,0,0,0-3.264,1.692,10.434,10.434,0,0,0-1.342,4.378c-.15,1.054-.827,3.932-.9,4.23s-1.6,3.841-.9,5.08,7.888,4.91,7.843,5.185,1.244-2.771,1.244-2.771a30.765,30.765,0,0,1-3.382-2.118c-.773-.81-2.4-1.683-2.069-2.688.394-1.181,1.576-5.163,1.85-5.746s2.664-6.5.915-7.241" transform="translate(-222.155 -897.976)" fill="#285173"/>
            <path id="Trazado_601535" data-name="Trazado 601535" d="M331.07,904.941s3.694,1.161,1.689,7.535-7.05-.739-6.522-4.622,4.834-2.913,4.834-2.913" transform="translate(-289.782 -803.819)" fill="#eea987"/>
            <path id="Trazado_601536" data-name="Trazado 601536" d="M330.818,904.586a8.332,8.332,0,0,1-4.907,2.026,7.789,7.789,0,0,0-1.271,1.927s-2.741-4.671.628-7.472,6.788,2.364,5.55,3.518" transform="translate(-287.464 -799.745)" fill="#0e2d3d"/>
            <path id="Trazado_601537" data-name="Trazado 601537" d="M334.523,948.253c-.024-.464-.31-1.52-1-1.224s.042,2.445.5,2.313c0,0,.556.008.5-1.089" transform="translate(-296.039 -841.26)" fill="#eea987"/>
            <path id="Trazado_601538" data-name="Trazado 601538" d="M344.418,982.155c-.022.242-.046.51-.068.784,0,0-1.63-.1-2.72-2.522.071.106,1.266,1.861,2.788,1.738" transform="translate(-303.491 -870.966)" fill="#a77860"/>
            <rect id="Rectángulo_293303" data-name="Rectángulo 293303" width="12.724" height="0.755" transform="translate(263.611 140.872)" fill="#e2d2ca"/>
            <rect id="Rectángulo_293304" data-name="Rectángulo 293304" width="1.115" height="34.349" transform="translate(273.514 143.593)" fill="#706865"/>
            <rect id="Rectángulo_293305" data-name="Rectángulo 293305" width="8.844" height="1.079" transform="translate(256.758 140.658)" fill="#ccbdb7"/>
            <rect id="Rectángulo_293306" data-name="Rectángulo 293306" width="3.349" height="10.172" transform="translate(259.505 131.455)" fill="#ccbdb7"/>
            <rect id="Rectángulo_293307" data-name="Rectángulo 293307" width="49.002" height="1.953" transform="translate(231.897 141.64)" fill="#b59074"/>
            <path id="Trazado_601539" data-name="Trazado 601539" d="M2557.324,1136.755s.536,7.516-.933,8.415c-.92.563-4.588,2.464-4.479,2.821s2.071,3.171,2.071,3.171,7.046-4.64,7.273-6.1c.222-1.429-.347-11-1.315-11.446-.725-.33-1.108-.057-2.022.621a2.139,2.139,0,0,0-.594,2.519" transform="translate(-2267.021 -1006.937)" fill="#323657"/>
            <path id="Trazado_601540" data-name="Trazado 601540" d="M2480.445,1166.135l-.621-.23s.774-1.818,1.112-1.773a8.411,8.411,0,0,1,.875.179Z" transform="translate(-2202.982 -1034.17)" fill="#ead8cf"/>
            <path id="Trazado_601541" data-name="Trazado 601541" d="M2484.115,1165.481c.08-.059,1.32-2.439,1.32-2.439l2.651.36-1.432,2.819Z" transform="translate(-2206.794 -1033.203)" fill="#da9b5b"/>
            <path id="Trazado_601542" data-name="Trazado 601542" d="M2522.759,1550.354s.219,1.521.247,1.749,2.438-.134,2.438-.134l.195-1.811a14.281,14.281,0,0,0-2.879.2" transform="translate(-2241.124 -1377.102)" fill="#424773"/>
            <path id="Trazado_601543" data-name="Trazado 601543" d="M2491.459,1565.033a6.508,6.508,0,0,1-1.5,1.316c-.739.4-1.9.558-2.336.971-.315.3-1.148,1.583,1.919,1.557s4.546.182,4.875-.311-.476-3.636-.476-3.636a6.5,6.5,0,0,1-2.48.1" transform="translate(-2209.603 -1390.225)" fill="#292c47"/>
            <path id="Trazado_601544" data-name="Trazado 601544" d="M2384.458,1550.484s.219,1.521.246,1.749,2.437-.135,2.437-.135l.2-1.81a14.271,14.271,0,0,0-2.879.2" transform="translate(-2118.263 -1377.217)" fill="#424773"/>
            <path id="Trazado_601545" data-name="Trazado 601545" d="M2341.884,1565.162a6.508,6.508,0,0,1-1.5,1.316c-.739.4-3.456.728-3.893,1.141-.315.3-.84,1.5,3.476,1.387,3.066-.08,4.546.182,4.874-.311s-.476-3.636-.476-3.636a5.894,5.894,0,0,1-2.48.1" transform="translate(-2075.469 -1390.34)" fill="#292c47"/>
            <path id="Trazado_601546" data-name="Trazado 601546" d="M2392.269,1316.611s-8.761,1.482-10.74,1.793-12.708,2.981-14.05,3.794c-1.068.648.56,16.2.94,22.134h4.226l.306-17.8c5.072.127,8.69-1.186,12.383-.625s6.772,1.358,9.118-1.79c0,0,.087-6.819-2.184-7.507" transform="translate(-2102.861 -1169.628)" fill="#292c47"/>
            <path id="Trazado_601547" data-name="Trazado 601547" d="M2504.615,1359.424l4.118-.255.4-17.56a25.027,25.027,0,0,0,4.7-.3l3.325-7.729c-2.914.583-12.251,2.938-13.5,3.693-1.068.648.573,16.215.953,22.149" transform="translate(-2223.844 -1184.705)" fill="#292c47"/>
            <path id="Trazado_601548" data-name="Trazado 601548" d="M2515.656,1021.219s-3.212-.888-4.437,1.606-.67,7.22.949,7.664,3.946-.067,4.618-1.619a11.9,11.9,0,0,0,1.047-5.185,3.13,3.13,0,0,0-2.177-2.466" transform="translate(-2230.281 -907.076)" fill="#eea886"/>
            <path id="Trazado_601549" data-name="Trazado 601549" d="M2531.091,1083.633a9.808,9.808,0,0,1-.174,2.3c-.209.4,4.472.3,4.472.3a9.5,9.5,0,0,1-.319-4.217c.414-1.92-3.979,1.614-3.979,1.614" transform="translate(-2248.365 -960.718)" fill="#eea886"/>
            <path id="Trazado_601550" data-name="Trazado 601550" d="M2516.444,1025.133s-.25.509-1.462.427-2.81-1.544-3.324-1.675-.545-.423-.545-.423l-.272.484-.527.08s.358-1.465-.422-1.981.351-4.671,4.3-3.669c0,0,3.016.552,3.056,2.236a9.344,9.344,0,0,1-.805,4.521" transform="translate(-2229.487 -904.549)" fill="#3a3f47"/>
            <path id="Trazado_601551" data-name="Trazado 601551" d="M2528.767,1111.271s.013-.772.364-.846a22.827,22.827,0,0,1,4.109-.363l.184,1.02s-.828.51-4.657.19" transform="translate(-2246.462 -986.104)" fill="#e2d2ca"/>
            <path id="Trazado_601552" data-name="Trazado 601552" d="M2519.8,1055.248c.09-.633.81-1.36,1.222-.374s-.278,2.422-.74,2.345-.6-1.112-.481-1.971" transform="translate(-2238.463 -936.681)" fill="#eea886"/>
            <path id="Trazado_601553" data-name="Trazado 601553" d="M2403.725,1202.926h.006c-.024.01-.028.011-.006,0" transform="translate(-2135.366 -1068.633)" fill="#323657"/>
            <path id="Trazado_601554" data-name="Trazado 601554" d="M2564.647,1026.485s3.916-.184.684,5.929Z" transform="translate(-2278.336 -911.89)" fill="#3a3f47"/>
            <path id="Trazado_601555" data-name="Trazado 601555" d="M2542.54,1546.685l-.291.819-12.308-3.814.59-1.659Z" transform="translate(-2247.504 -1369.882)" fill="#918783"/>
            <rect id="Rectángulo_293308" data-name="Rectángulo 293308" width="1.399" height="13.382" transform="translate(282.014 159.842)" fill="#918783"/>
            <rect id="Rectángulo_293309" data-name="Rectángulo 293309" width="8.251" height="0.789" transform="translate(278.588 159.131)" fill="#5e5854"/>
            <path id="Trazado_601556" data-name="Trazado 601556" d="M2421.076,1545.856l.291.819,12.308-3.814-.541-1.764Z" transform="translate(-2150.793 -1369.053)" fill="#918783"/>
            <path id="Trazado_601557" data-name="Trazado 601557" d="M2498.757,1546.587v.953l3.928-4.679-.541-1.763Z" transform="translate(-2219.802 -1369.053)" fill="#918783"/>
            <path id="Trazado_601558" data-name="Trazado 601558" d="M2410.772,1584.772a1.15,1.15,0,1,0,1.15-1.15,1.15,1.15,0,0,0-1.15,1.15" transform="translate(-2141.639 -1406.83)" fill="#bfb2ac"/>
            <path id="Trazado_601559" data-name="Trazado 601559" d="M2497.882,1584.772a1.15,1.15,0,1,0,1.15-1.15,1.15,1.15,0,0,0-1.15,1.15" transform="translate(-2219.025 -1406.83)" fill="#bfb2ac"/>
            <path id="Trazado_601560" data-name="Trazado 601560" d="M2632.5,1584.772a1.15,1.15,0,1,0,1.15-1.15,1.15,1.15,0,0,0-1.15,1.15" transform="translate(-2338.613 -1406.83)" fill="#bfb2ac"/>
            <path id="Trazado_601561" data-name="Trazado 601561" d="M2445.864,1401.661h16.6a1.474,1.474,0,0,0,1.474-1.474v-.038a1.474,1.474,0,0,0-1.474-1.474h-16.6a1.474,1.474,0,0,0-1.474,1.474v.038a1.474,1.474,0,0,0,1.474,1.474" transform="translate(-2171.504 -1242.529)" fill="#e2d2ca"/>
            <rect id="Rectángulo_293310" data-name="Rectángulo 293310" width="1.115" height="34.349" transform="translate(238.166 143.593)" fill="#706865"/>
            <path id="Trazado_601562" data-name="Trazado 601562" d="M2211.483,1059.068h25.977a1.471,1.471,0,0,0,1.471-1.471v-17.459a1.471,1.471,0,0,0-1.471-1.471h-25.977a1.471,1.471,0,0,0-1.471,1.471V1057.6a1.471,1.471,0,0,0,1.471,1.471" transform="translate(-1963.292 -922.713)" fill="#f2e2d9"/>
            <rect id="Rectángulo_293311" data-name="Rectángulo 293311" width="26.654" height="16.101" transform="translate(247.853 117.057)" fill="#f5f7ff"/>
            <path id="Trazado_601563" data-name="Trazado 601563" d="M2331.179,1196.888a.933.933,0,1,0,.933-.933.933.933,0,0,0-.933.933" transform="translate(-2070.932 -1062.442)" fill="#918681"/>
            <path id="Trazado_601564" data-name="Trazado 601564" d="M2285.908,1248.125v-.363s.51-2.258,4.12-2.258,3.537,2.621,3.537,2.621Z" transform="translate(-2030.715 -1106.459)" fill="#e2d2ca"/>
            <path id="Trazado_601565" data-name="Trazado 601565" d="M2303.314,1237.378a3.555,3.555,0,0,1-1.072-.234c-.287-.173-2.006-1.329-2.41-1.144s-3.091,1.008-3,1.4.342.355.531.286a13.8,13.8,0,0,1,2.313-.41s-1.917.7-1.924,1.209.4.635.583.827.4.672.894.709,2.9-.8,3.4-.84a12.08,12.08,0,0,0,1.477-.05,13.692,13.692,0,0,0-.794-1.753" transform="translate(-2040.419 -1097.997)" fill="#eea886"/>
            <path id="Trazado_601566" data-name="Trazado 601566" d="M2362.72,1120.75c2.5-.439,5.133-1.07,5.133-1.07l4.657-.19a45.3,45.3,0,0,1,5.958,1.7c.159.072.16,3.813.6,4.794l-1.4,2.944s-.806,5.832-.973,8.426c-.077,1.191.217,11.508.217,11.508a17.93,17.93,0,0,1-3.6.557c-3.178.35-11.12-.127-11.17-.5s1.538-13.979,1.608-14.683c.108-1.081-.312-6.077-.312-6.077-.6.8-2.126,4.437-3.717,6.166-.936,1.017-5.571,1.64-6.445,1.669-1.9.063-5.371.442-5.472.257a11.187,11.187,0,0,1-.085-3.152c.19-.064,6.633-.434,8.283-1.31.6-.32,2.409-4.256,2.409-4.256s2.925-6.161,4.3-6.781" transform="translate(-2085.548 -994.513)" fill="#323657"/>
            <path id="Trazado_601567" data-name="Trazado 601567" d="M2542.473,1231.365h7.818a2.831,2.831,0,0,0,2.831-2.831v-13.008a2.831,2.831,0,0,0-2.831-2.831h-7.818a2.831,2.831,0,0,0-2.831,2.831v13.008a2.831,2.831,0,0,0,2.831,2.831" transform="translate(-2256.123 -1077.312)" fill="#e2d2ca"/>
            <path id="Trazado_601568" data-name="Trazado 601568" d="M2555.071,1330.548a6.176,6.176,0,0,0,4.792-1.984c2.695-2.975,2.211-8.205,2.189-8.426a.75.75,0,0,0-1.493.147c.006.06.435,4.8-1.811,7.275a4.677,4.677,0,0,1-3.677,1.488.75.75,0,0,0,0,1.5" transform="translate(-2269.163 -1172.161)" fill="#e2d2ca"/>
            <path id="Trazado_601569" data-name="Trazado 601569" d="M2372.258,1060.883h7.386a.211.211,0,0,0,.211-.211v-.429a.211.211,0,0,0-.211-.211h-7.386a.211.211,0,0,0-.211.211v.429a.211.211,0,0,0,.211.211" transform="translate(-2107.238 -941.693)" fill="#dfe1e8"/>
            <path id="Trazado_601570" data-name="Trazado 601570" d="M2372.258,1077.228h7.386a.211.211,0,0,0,.211-.211v-.429a.211.211,0,0,0-.211-.211h-7.386a.211.211,0,0,0-.211.211v.429a.211.211,0,0,0,.211.211" transform="translate(-2107.238 -956.213)" fill="#dfe1e8"/>
            <path id="Trazado_601571" data-name="Trazado 601571" d="M2372.756,1104.74h6.39a.709.709,0,0,0,.709-.709v-8.2a.709.709,0,0,0-.709-.709h-6.39a.709.709,0,0,0-.709.709v8.2a.709.709,0,0,0,.709.709" transform="translate(-2107.238 -972.864)" fill="#dfe1e8"/>
            <path id="Trazado_601572" data-name="Trazado 601572" d="M2234.506,1073.568h11.659a1.122,1.122,0,0,0,1.122-1.122v-11.291a1.122,1.122,0,0,0-1.122-1.123h-11.659a1.122,1.122,0,0,0-1.123,1.123v11.291a1.122,1.122,0,0,0,1.123,1.122" transform="translate(-1984.054 -941.693)" fill="#dfe1e8"/>
            <path id="Trazado_601573" data-name="Trazado 601573" d="M762.3,996.276l-7.331,4.03-7.362-11.586,8.9-3.093Z" transform="translate(-664.145 -875.594)" fill="#292c47"/>
            <path id="Trazado_601574" data-name="Trazado 601574" d="M765.714,998.651l-6.856,3.769-6.885-10.835,8.327-2.893Z" transform="translate(-668.025 -878.317)" fill="#e2d2ca"/>
            <path id="Trazado_601575" data-name="Trazado 601575" d="M828.377,1040.587s-1.276-.61-1.836-.929-2-.757-2.117-.861-4.271-.36-4.523-.578-.5.51.58.745,2.575.813,2.657,1.233-1.106.521-1.226.867.034.269.2.343,1.413-.614,1.959-.419,1.382-.075,1.8.068,2.455.829,2.455.829Z" transform="translate(-728.176 -922.279)" fill="#eea886"/>
            <path id="Trazado_601576" data-name="Trazado 601576" d="M765.681,1045.632s-1.072-.965-1.591-1.369-1.492-1.591-1.636-1.66-2-3.884-2.305-4.037.287-.667.928.256,1.769,2.11,2.2,2.024.06-1.245.34-1.493.267-.073.4.058-.028,1.571.369,2.01.467,1.332.765,1.67,1.737,1.991,1.737,1.991Z" transform="translate(-675.215 -922.374)" fill="#eea886"/>
            <path id="Trazado_601577" data-name="Trazado 601577" d="M1017.151,1564.372s.232,1.609.261,1.851,2.58-.142,2.58-.142l.207-1.916a15.109,15.109,0,0,0-3.047.207" transform="translate(-903.599 -1389.545)" fill="#424773"/>
            <path id="Trazado_601578" data-name="Trazado 601578" d="M984.023,1579.906a6.887,6.887,0,0,1-1.59,1.393c-.782.423-2.01.59-2.472,1.028-.334.316-1.215,1.676,2.031,1.648s4.811.192,5.159-.329-.5-3.849-.5-3.849a6.869,6.869,0,0,1-2.625.109" transform="translate(-870.237 -1403.432)" fill="#292c47"/>
            <path id="Trazado_601579" data-name="Trazado 601579" d="M853.449,1564.372s.232,1.609.261,1.851,2.579-.142,2.579-.142l.207-1.916a15.109,15.109,0,0,0-3.047.207" transform="translate(-758.172 -1389.545)" fill="#424773"/>
            <path id="Trazado_601580" data-name="Trazado 601580" d="M808.389,1579.906a6.886,6.886,0,0,1-1.59,1.393c-.782.423-3.658.77-4.12,1.208-.334.316-.888,1.587,3.679,1.468,3.245-.085,4.811.192,5.159-.329s-.5-3.849-.5-3.849a6.238,6.238,0,0,1-2.625.109" transform="translate(-712.878 -1403.432)" fill="#292c47"/>
            <path id="Trazado_601581" data-name="Trazado 601581" d="M951.664,1195.556s2.4,3.808,2.218,7.25.869,7.2,1.229,10.8c.4,4.008,2.044,13.5,2.1,15.642s-.255,8.991-.255,8.991l-3.288.075s-2.761-16.59-3.477-18.282-4.262-13.761-4.381-15.115,5.85-9.355,5.85-9.355" transform="translate(-840.224 -1062.087)" fill="#292c47"/>
            <path id="Trazado_601582" data-name="Trazado 601582" d="M853.461,1190.852s-1.806,9.434-2.044,11.54-.4,10.195-.517,11.511-.795,17.229-1.43,19.185h4.2s3.227-11.568,3.227-17.041,2.493-11.9,4.1-15.51,5.292-3.7,6.282-10.4c0,0-12.483-1.414-13.822.711" transform="translate(-754.637 -1056.867)" fill="#292c47"/>
            <path id="Trazado_601583" data-name="Trazado 601583" d="M916.818,906.453s-3.217-1.2-4.7,1.247-1.34,7.351.281,7.954,4.057.288,4.887-1.245a12.267,12.267,0,0,0,1.544-5.228,3.225,3.225,0,0,0-2.012-2.729" transform="translate(-809.378 -804.997)" fill="#eea886"/>
            <path id="Trazado_601584" data-name="Trazado 601584" d="M925.194,967.925a2.782,2.782,0,0,1-.087,1.3c-.221.428,4.168.439,4.168.439a28.926,28.926,0,0,1,1.032-4.293c.675-1.966-5.112,2.558-5.112,2.558" transform="translate(-821.823 -857.156)" fill="#eea886"/>
            <path id="Trazado_601585" data-name="Trazado 601585" d="M918.959,910.259s-.3.5-1.539.306-2.745-1.839-3.261-2.02-.521-.484-.521-.484l-.323.472-.548.035s.5-1.471-.254-2.072.783-4.763,4.749-3.377c0,0,3.046.839,2.935,2.572a9.628,9.628,0,0,1-1.236,4.568" transform="translate(-810.476 -802.048)" fill="#3a3f47"/>
            <path id="Trazado_601586" data-name="Trazado 601586" d="M922.838,993.8s.014-.818.384-.9a26.441,26.441,0,0,1,4.545-.257v.952s-.876.539-4.929.2" transform="translate(-819.815 -881.788)" fill="#e2d2ca"/>
            <path id="Trazado_601587" data-name="Trazado 601587" d="M924.034,938.955c.069-.29.808-1.121,1.091-.232s-.427,2.085-.824,1.982-.443-1.014-.267-1.751" transform="translate(-820.791 -833.571)" fill="#eea886"/>
            <path id="Trazado_601588" data-name="Trazado 601588" d="M790.492,1089.88h.006c-.026.011-.029.012-.006,0" transform="translate(-702.23 -968.208)" fill="#323657"/>
            <path id="Trazado_601589" data-name="Trazado 601589" d="M816.546,1032.3a34.025,34.025,0,0,1-5.337.952c-3.364.371-11.769-.134-11.822-.531s1.808-14.8,1.7-15.541-.163-3.384-.163-3.384a18.62,18.62,0,0,1-1.67,5.294c-.322.583-1.4,2.408-1.921,1.993-2.518-2.011-6.418-9.587-6.665-9.651.208-.09,1.848-.846,2.078-.922a21.758,21.758,0,0,1,3.119,3.048c.491.532.839.918.839.918.318-.715,1.476-5.22,1.835-6.78.812-3.516.687-3.663.687-3.663,2.461-.744,6.2-2.26,6.2-2.26l4.929-.2a47.96,47.96,0,0,1,6.305,1.8c.169.076.17,4.036.634,5.074l-1.477,3.116s-.853,6.173-1.03,8.918c-.081,1.26,1.76,11.818,1.76,11.818" transform="translate(-702.402 -889.759)" fill="#f3ab1d"/>
            <path id="Trazado_601590" data-name="Trazado 601590" d="M987.313,1027.914a1.946,1.946,0,0,1-1.093.92,1.412,1.412,0,0,1-.789.079l-.193-.036h0l-3.378-.626s-.739-8.512,4.615-10.552c.142.047,2.021,6.4.838,10.215" transform="translate(-872.217 -904.086)" fill="#f3ab1d"/>
            <path id="Trazado_601591" data-name="Trazado 601591" d="M1013.376,1083.171h0a1.415,1.415,0,0,1-.789.079l-.193-.036h0l.333-4.35Z" transform="translate(-899.373 -958.423)" fill="#ab9546"/>
            <path id="Trazado_601592" data-name="Trazado 601592" d="M838.056,1109.845l-.413,1.748a13.817,13.817,0,0,1-.426-2.666c.491.532.839.918.839.918" transform="translate(-743.751 -985.129)" fill="#ab9546"/>
            <path id="Trazado_601593" data-name="Trazado 601593" d="M970.615,911.316s4.216-.528.072,6.514Z" transform="translate(-862.258 -809.571)" fill="#3a3f47"/>
            <path id="Trazado_601594" data-name="Trazado 601594" d="M774.554,992.639l-.428-.736,3.375-1.164.428.732Z" transform="translate(-687.704 -880.134)" fill="#292c47"/>
          </g>
        </g>
      </g>
    </g>
  </g>
</svg>
