<svg xmlns="http://www.w3.org/2000/svg" width="62.965" height="42.565" viewBox="0 0 62.965 42.565">
  <g id="Grupo_877526" data-name="Grupo 877526" transform="translate(-180 -3054.288)">
    <g id="Grupo_876239" data-name="Grupo 876239" transform="translate(0 1590.488)">
      <g id="Grupo_156372" data-name="Grupo 156372">
        <path id="Trazado_596476" data-name="Trazado 596476" d="M0,0H41.75L39.437,27.413H0Z" transform="translate(180 1472.521)" fill="#3185af"/>
        <g id="Grupo_151738" data-name="Grupo 151738" transform="translate(189.99 1464)">
          <g id="Grupo_151737" data-name="Grupo 151737" transform="translate(0 0)">
            <path id="Trazado_596477" data-name="Trazado 596477" d="M226.875,274.016a7.16,7.16,0,0,0-10.269-6.447l-31.2,13.642a6.489,6.489,0,0,0-2.011.879l0,0h0a6.524,6.524,0,0,0,.24,11.055h0l.006,0a6.485,6.485,0,0,0,1.752.724l28.978,11.967q.31.145.635.262l.012.005h0a7.284,7.284,0,0,0,9.678-6.078h0v-.015c.005-.049.008-.1.013-.149l2.121-25.048c.016-.138.028-.277.035-.418l.011-.125-.006-.009C226.871,274.184,226.875,274.1,226.875,274.016Zm-4.99,1.3c-.27,2.659-2.023,24.218-2.023,24.218a1.925,1.925,0,0,1-.905,1.445,2.773,2.773,0,0,1-2.543.4c-1.04-.289-29.593-12.5-29.593-12.5s-1.541-.565-1.49-1.49.668-.976,2.106-1.7,31.52-13.885,31.52-13.885a2.262,2.262,0,0,1,2.312.193C222.232,272.851,222.155,272.658,221.885,275.317Z" transform="translate(-180.449 -264.164)" fill="#acb305"/>
            <path id="Trazado_596478" data-name="Trazado 596478" d="M226.875,267.78a7.16,7.16,0,0,0-10.269-6.447l-31.2,13.642a6.483,6.483,0,0,0-2.011.88l0,0h0a6.524,6.524,0,0,0,.24,11.055h0l.006,0a6.485,6.485,0,0,0,1.752.724l28.978,11.967q.31.146.635.262l.012.005h0a7.284,7.284,0,0,0,9.678-6.078h0v-.015c.005-.049.008-.1.013-.149l2.121-25.048c.016-.138.028-.277.035-.418l.011-.125-.006-.009C226.871,267.948,226.875,267.865,226.875,267.78Zm-4.99,1.3c-.27,2.659-2.023,24.218-2.023,24.218a1.925,1.925,0,0,1-.905,1.445,2.773,2.773,0,0,1-2.543.4c-1.04-.289-29.593-12.5-29.593-12.5s-1.541-.565-1.49-1.49.668-.976,2.106-1.7,31.52-13.885,31.52-13.885a2.262,2.262,0,0,1,2.312.193C222.232,266.615,222.155,266.422,221.885,269.081Z" transform="translate(-180.449 -260.623)" fill="#c0d400" stroke="#ebf16a" stroke-width="0.4"/>
          </g>
        </g>
        <path id="Trazado_599815" data-name="Trazado 599815" d="M225.97,1473.2l-2.51,24.11" transform="translate(16)" fill="none" stroke="#3185af" stroke-width="2"/>
      </g>
    </g>
  </g>
</svg>
