<svg xmlns="http://www.w3.org/2000/svg" width="166" height="125" viewBox="0 0 166 125">
  <g id="Grupo_876943" data-name="Grupo 876943" transform="translate(-978 -3226)">
    <g id="Grupo_876230" data-name="Grupo 876230" transform="translate(0 873)">
      <g id="Grupo_874633" data-name="Grupo 874633" transform="translate(457.597 -5409.061)">
        <rect id="Rectángulo_291466" data-name="Rectángulo 291466" width="166" height="90" transform="translate(520.404 7782.06)" fill="none"/>
        <g id="Grupo_874624" data-name="Grupo 874624" transform="translate(520.404 7789.614)">
          <g id="Grupo_874620" data-name="Grupo 874620" transform="translate(33.466 33.466) rotate(180)">
            <ellipse id="Elipse_4713" data-name="Elipse 4713" cx="2.5" cy="3" rx="2.5" ry="3" transform="translate(0.466 0.021)" fill="#f3ab1d"/>
            <ellipse id="Elipse_4717" data-name="Elipse 4717" cx="2.5" cy="3" rx="2.5" ry="3" transform="translate(0.466 14.021)" fill="#f3ab1d"/>
            <circle id="Elipse_4719" data-name="Elipse 4719" cx="2.5" cy="2.5" r="2.5" transform="translate(0.466 28.021)" fill="#f3ab1d"/>
            <circle id="Elipse_4715" data-name="Elipse 4715" cx="3" cy="3" r="3" transform="translate(14.466 0.021)" fill="#f3ab1d"/>
            <circle id="Elipse_4720" data-name="Elipse 4720" cx="3" cy="3" r="3" transform="translate(27.466 0.021)" fill="#f3ab1d"/>
            <circle id="Elipse_4716" data-name="Elipse 4716" cx="3" cy="3" r="3" transform="translate(14.466 14.021)" fill="#f3ab1d"/>
            <circle id="Elipse_4721" data-name="Elipse 4721" cx="3" cy="3" r="3" transform="translate(27.466 14.021)" fill="#f3ab1d"/>
            <ellipse id="Elipse_4718" data-name="Elipse 4718" cx="3" cy="2.5" rx="3" ry="2.5" transform="translate(14.466 28.021)" fill="#f3ab1d"/>
            <ellipse id="Elipse_4722" data-name="Elipse 4722" cx="3" cy="2.5" rx="3" ry="2.5" transform="translate(27.466 28.021)" fill="#f3ab1d"/>
          </g>
          <g id="Grupo_874621" data-name="Grupo 874621" transform="translate(33.466 76.776) rotate(180)">
            <ellipse id="Elipse_4713-2" data-name="Elipse 4713" cx="2.5" cy="3" rx="2.5" ry="3" transform="translate(0.466 0.329)" fill="#f3ab1d"/>
            <ellipse id="Elipse_4717-2" data-name="Elipse 4717" cx="2.5" cy="3" rx="2.5" ry="3" transform="translate(0.466 14.329)" fill="#f3ab1d"/>
            <ellipse id="Elipse_4719-2" data-name="Elipse 4719" cx="2.5" cy="3" rx="2.5" ry="3" transform="translate(0.466 28.329)" fill="#f3ab1d"/>
            <circle id="Elipse_4715-2" data-name="Elipse 4715" cx="3" cy="3" r="3" transform="translate(14.466 0.329)" fill="#f3ab1d"/>
            <circle id="Elipse_4720-2" data-name="Elipse 4720" cx="3" cy="3" r="3" transform="translate(27.466 0.329)" fill="#f3ab1d"/>
            <circle id="Elipse_4716-2" data-name="Elipse 4716" cx="3" cy="3" r="3" transform="translate(14.466 14.329)" fill="#f3ab1d"/>
            <circle id="Elipse_4721-2" data-name="Elipse 4721" cx="3" cy="3" r="3" transform="translate(27.466 14.329)" fill="#f3ab1d"/>
            <circle id="Elipse_4718-2" data-name="Elipse 4718" cx="3" cy="3" r="3" transform="translate(14.466 28.329)" fill="#f3ab1d"/>
            <circle id="Elipse_4722-2" data-name="Elipse 4722" cx="3" cy="3" r="3" transform="translate(27.466 28.329)" fill="#f3ab1d"/>
          </g>
        </g>
      </g>
      <g id="Grupo_156377" data-name="Grupo 156377">
        <circle id="Elipse_4724" data-name="Elipse 4724" cx="62.5" cy="62.5" r="62.5" transform="translate(1000 2353)" fill="#fff"/>
        <circle id="Elipse_4738" data-name="Elipse 4738" cx="55.5" cy="55.5" r="55.5" transform="translate(1007 2360)" fill="#e3f7f0" opacity="0.7"/>
      </g>
      <g id="Grupo_874634" data-name="Grupo 874634" transform="translate(1113.615 2433.084)">
        <g id="Grupo_151688" data-name="Grupo 151688" transform="translate(0 5.921)">
          <path id="Trazado_212295" data-name="Trazado 212295" d="M-11425.02-11468v11.842" transform="translate(11430.939 11467.996)" fill="none" stroke="#26779f" stroke-width="4"/>
          <path id="Trazado_212296" data-name="Trazado 212296" d="M0,0V11.841" transform="translate(11.841 5.921) rotate(90)" fill="none" stroke="#26779f" stroke-width="4"/>
        </g>
        <g id="Grupo_151689" data-name="Grupo 151689" transform="translate(15.394 0)">
          <path id="Trazado_212295-2" data-name="Trazado 212295" d="M-11425.02-11468v11.842" transform="translate(11430.939 11467.996)" fill="none" stroke="#26779f" stroke-width="4"/>
          <path id="Trazado_212296-2" data-name="Trazado 212296" d="M0,0V11.841" transform="translate(11.841 5.921) rotate(90)" fill="none" stroke="#26779f" stroke-width="4"/>
        </g>
        <g id="Grupo_151690" data-name="Grupo 151690" transform="translate(17.959 17.762)">
          <path id="Trazado_212295-3" data-name="Trazado 212295" d="M-11425.02-11468v11.842" transform="translate(11430.939 11467.996)" fill="none" stroke="#26779f" stroke-width="4"/>
          <path id="Trazado_212296-3" data-name="Trazado 212296" d="M0,0V11.841" transform="translate(11.841 5.921) rotate(90)" fill="none" stroke="#26779f" stroke-width="4"/>
        </g>
      </g>
    </g>
    <g id="servicio-al-cliente" transform="translate(1002.049 3249.702)">
      <path id="Trazado_600175" data-name="Trazado 600175" d="M61.1,0a33.67,33.67,0,0,0-33.67,33.67V51.178a2.694,2.694,0,0,0,2.694,2.694h2.693V40.4H30.122V33.67a30.976,30.976,0,1,1,61.953,0V40.4H89.382V53.872h1.347A17.529,17.529,0,0,1,73.22,71.38H70.527v2.694H73.22a20.224,20.224,0,0,0,20.2-20.2v-.363a2.69,2.69,0,0,0,1.347-2.33V33.67A33.67,33.67,0,0,0,61.1,0Z" transform="translate(0 0)" fill="#5b5d6e"/>
      <path id="Trazado_600176" data-name="Trazado 600176" d="M69.387,268.406H66.694A2.694,2.694,0,0,1,64,265.712V249.551a2.694,2.694,0,0,1,2.694-2.694h2.694a2.694,2.694,0,0,1,2.694,2.694v16.162A2.694,2.694,0,0,1,69.387,268.406Z" transform="translate(-31.184 -210.493)" fill="#959cb3"/>
      <path id="Trazado_600177" data-name="Trazado 600177" d="M95.468,265.712V249.551a2.694,2.694,0,0,0-2.694-2.694H91.428v21.549h1.347A2.694,2.694,0,0,0,95.468,265.712Z" transform="translate(-54.572 -210.493)" fill="#707487"/>
      <path id="Trazado_600178" data-name="Trazado 600178" d="M395.837,246.857h2.694a2.694,2.694,0,0,1,2.694,2.694v16.162a2.694,2.694,0,0,1-2.694,2.694h-2.694a2.694,2.694,0,0,1-2.694-2.694V249.551A2.694,2.694,0,0,1,395.837,246.857Z" transform="translate(-311.842 -210.493)" fill="#959cb3"/>
      <g id="Grupo_876887" data-name="Grupo 876887" transform="translate(65.139 36.364)">
        <path id="Trazado_600179" data-name="Trazado 600179" d="M393.143,249.551v16.162a2.694,2.694,0,0,0,2.694,2.694h1.347V246.857h-1.347A2.694,2.694,0,0,0,393.143,249.551Z" transform="translate(-376.981 -246.857)" fill="#707487"/>
        <path id="Trazado_600180" data-name="Trazado 600180" d="M288.815,480.815h-4.04a1.347,1.347,0,0,1-1.347-1.347v-2.694a1.347,1.347,0,0,1,1.347-1.347h4.04a2.694,2.694,0,0,1,2.694,2.694h0A2.694,2.694,0,0,1,288.815,480.815Z" transform="translate(-283.428 -441.758)" fill="#707487"/>
      </g>
      <path id="Trazado_600181" data-name="Trazado 600181" d="M181.017,237.714H159.468a4.04,4.04,0,0,0-4.04,4.04v16.162a4.04,4.04,0,0,0,4.04,4.04h13.468v4.436a.949.949,0,0,0,1.621.671l5.107-5.107h1.353a4.04,4.04,0,0,0,4.04-4.04V241.754A4.041,4.041,0,0,0,181.017,237.714Zm-18.855,14.815a2.694,2.694,0,1,1,2.694-2.694A2.694,2.694,0,0,1,162.162,252.529Zm8.081,0a2.694,2.694,0,1,1,2.694-2.694A2.694,2.694,0,0,1,170.243,252.529Zm8.081,0a2.694,2.694,0,1,1,2.694-2.694A2.694,2.694,0,0,1,178.324,252.529Z" transform="translate(-109.144 -202.697)" fill="#00d2f6"/>
    </g>
  </g>
</svg>
