<svg xmlns="http://www.w3.org/2000/svg" xmlns:xlink="http://www.w3.org/1999/xlink" width="350" height="151" viewBox="0 0 350 151">
  <defs>
    <clipPath id="clip-path">
      <rect id="Rectángulo_293394" data-name="Rectángulo 293394" width="237.333" height="150.736" fill="none"/>
    </clipPath>
    <clipPath id="clip-path-3">
      <rect id="Rectángulo_293313" data-name="Rectángulo 293313" width="26.455" height="34.735" fill="#bf8718"/>
    </clipPath>
    <clipPath id="clip-path-4">
      <rect id="Rectángulo_293314" data-name="Rectángulo 293314" width="80.689" height="60.937" fill="none"/>
    </clipPath>
    <clipPath id="clip-path-5">
      <path id="Trazado_601672" data-name="Trazado 601672" d="M221.364,88.388l27.161,120.573h116V145.145l21.856-44.319-51.7-33.274Z" transform="translate(-221.364 -67.552)" fill="none"/>
    </clipPath>
  </defs>
  <g id="Grupo_877153" data-name="Grupo 877153" transform="translate(-335 -3988)">
    <g id="Grupo_877151" data-name="Grupo 877151" transform="translate(400.458 3988.264)">
      <g id="Grupo_877150" data-name="Grupo 877150" clip-path="url(#clip-path)">
        <g id="Grupo_877145" data-name="Grupo 877145" transform="translate(0 0)">
          <g id="Grupo_877144" data-name="Grupo 877144" clip-path="url(#clip-path)">
            <path id="Trazado_601595" data-name="Trazado 601595" d="M77.063,127.758c34.454,2.131,30.2-88.317,89.862-44.77,12.954,9.456,41.785-10.4,53.3,30.972,2.739,9.839,23.309,10.524,36.6,18.414,20.853,12.376,14.964,65.189-4.736,65.4s-164.431-.414-164.431-.414-22.347-.632-31.9-16.738c-17.3-29.178-9.5-54.765,21.3-52.861" transform="translate(-40.284 -61.299)" fill="#eaeaea"/>
            <path id="Trazado_601596" data-name="Trazado 601596" d="M721.916,47.018l19.87-1.033-14.542-6.228-.1,2.931-4.534,1.773Z" transform="translate(-622.237 -34.268)" fill="#016eb9"/>
            <path id="Trazado_601597" data-name="Trazado 601597" d="M655.877,52.78l-17.712-5.139-15.921,2.3Z" transform="translate(-536.328 -41.063)" fill="#00a3fe"/>
            <path id="Trazado_601598" data-name="Trazado 601598" d="M760.508,5.49l14.542,6.228L762.44,0Z" transform="translate(-655.501 -0.001)" fill="#00a3fe"/>
            <path id="Trazado_601599" data-name="Trazado 601599" d="M18.563,600.486A28.2,28.2,0,1,1,34.32,637.124a28.2,28.2,0,0,1-15.756-36.638" transform="translate(-14.266 -502.259)" fill="#e2810e"/>
            <path id="Trazado_601600" data-name="Trazado 601600" d="M2.011,593.889a28.2,28.2,0,1,1,15.756,36.638A28.2,28.2,0,0,1,2.011,593.889" transform="translate(0 -496.573)" fill="#f3ab1d"/>
            <path id="Trazado_601601" data-name="Trazado 601601" d="M33.456,646.095A25.617,25.617,0,1,1,43.5,647.922a25.535,25.535,0,0,1-10.039-1.827m18.458-46.313a24.162,24.162,0,1,0,13.251,12.9,24,24,0,0,0-13.251-12.9" transform="translate(-14.884 -514.16)" fill="#bf8718"/>
            <g id="Grupo_877140" data-name="Grupo 877140" transform="translate(14.847 90.926)" opacity="0.7">
              <g id="Grupo_877139" data-name="Grupo 877139">
                <g id="Grupo_877138" data-name="Grupo 877138" clip-path="url(#clip-path-3)">
                  <path id="Trazado_601602" data-name="Trazado 601602" d="M121.293,683.9a4.241,4.241,0,0,0,.5-1.409,3.1,3.1,0,0,0-.127-1.384,5.849,5.849,0,0,0-.76-1.5,15.43,15.43,0,0,0-1.411-1.741,40.455,40.455,0,0,1-2.619-3.179,12.789,12.789,0,0,1-1.694-3.04,7.522,7.522,0,0,1-.49-3.078,8.49,8.49,0,0,1,3.015-5.711,7.141,7.141,0,0,1,2.668-1.318,8.913,8.913,0,0,1,3.151-.206,11.888,11.888,0,0,1,3.459.937l2.035-3.748,3.017,1.638-2.063,3.8a10.662,10.662,0,0,1,2.475,2.455,8.06,8.06,0,0,1,1.428,6.116,10.731,10.731,0,0,1-1.217,3.433l-5.449-2.958a5.225,5.225,0,0,0,.773-3.651,3.63,3.63,0,0,0-1.933-2.4,4.615,4.615,0,0,0-1.59-.557,3.128,3.128,0,0,0-1.36.1,2.913,2.913,0,0,0-1.112.655,4.283,4.283,0,0,0-.845,1.106,3.926,3.926,0,0,0-.448,1.276,2.9,2.9,0,0,0,.123,1.325,5.863,5.863,0,0,0,.769,1.506,19.813,19.813,0,0,0,1.453,1.843q1.458,1.675,2.567,3.208a12.949,12.949,0,0,1,1.675,3.052,7.264,7.264,0,0,1-.519,6.351,7.763,7.763,0,0,1-2.039,2.475,7.054,7.054,0,0,1-2.668,1.3,8.615,8.615,0,0,1-3.146.152,12.837,12.837,0,0,1-3.463-.973l-1.892,3.485-3-1.628,1.883-3.468a14.4,14.4,0,0,1-2.655-2.326,9.128,9.128,0,0,1-1.77-2.923,8.166,8.166,0,0,1-.455-3.479,9.938,9.938,0,0,1,1.28-3.976l5.449,2.958a6.123,6.123,0,0,0-.778,2.265,3.96,3.96,0,0,0,.21,1.838,3.843,3.843,0,0,0,.949,1.422,6.593,6.593,0,0,0,1.409,1.026,5.494,5.494,0,0,0,1.679.617,3.667,3.667,0,0,0,1.464-.022,2.918,2.918,0,0,0,1.2-.586,3.555,3.555,0,0,0,.878-1.077" transform="translate(-107.53 -658.527)" fill="#bf8718"/>
                </g>
              </g>
            </g>
            <path id="Trazado_601603" data-name="Trazado 601603" d="M155.465,161.084l-3.052,2.109a1.331,1.331,0,0,0-.542,1.386l24.634,109.912a1.328,1.328,0,0,0,1.3,1.038h3.287Z" transform="translate(-130.874 -138.843)" fill="#364154"/>
            <path id="Trazado_601604" data-name="Trazado 601604" d="M1214.551,590.957c-8.9,1.174-4.663,11.489-18.237,25.881-9.815,10.406-31.345-8.6-42.37,2.084-9.582,9.288,3.526,27.3,3.526,27.3h57.8c27.138-19.655,6.695-56.248-.722-55.269" transform="translate(-991.592 -509.344)" fill="#657285"/>
            <path id="Trazado_601605" data-name="Trazado 601605" d="M1059.081,830.088a1.013,1.013,0,0,1-.986.486h-.006a6.738,6.738,0,0,1-2.849-1.365c-.136-.093-.259-.175-.371-.245l-.088-.054-.068-.041c-1.1-.647-1.183-.253-3.344-1.358-2.462-1.26-2.877-2.513-2.811-2.925.057-.349,1.255-.036,2.6.306l.2.05c.178.046.36.09.539.135,1.612.39,2.192-.01,4.174-.814,1.61-.653,8.479-5.365,8.479-5.365l1.665,3.335s-5.732,2.881-6.312,4.329a14.5,14.5,0,0,0-.292,2.184c-.013.05-.026.1-.041.148a4.818,4.818,0,0,1-.484,1.2" transform="translate(-903.773 -705.828)" fill="#eea886"/>
            <path id="Trazado_601606" data-name="Trazado 601606" d="M1059.081,864.645a1.013,1.013,0,0,1-.986.486h-.006a7.81,7.81,0,0,1-2.844-1.37c-.137-.091-.262-.17-.377-.24l-.088-.054-.068-.041c-1.1-.647-1.183-.253-3.344-1.358-2.462-1.26-2.877-2.513-2.811-2.925.057-.349,1.255-.036,2.6.306a8.164,8.164,0,0,0,3.4,2.545c1.743.681,3.777.872,5.052,1.308-.013.05-.026.1-.041.148a4.819,4.819,0,0,1-.484,1.2" transform="translate(-903.773 -740.385)" fill="#131f2d"/>
            <path id="Trazado_601607" data-name="Trazado 601607" d="M1097.574,935.142c-.166,1.144-1.79,1.042-3.616.7s-1.37.157-3.951.011-3.41-1.061-3.509-1.439c-.088-.335,1.173-.522,2.525-.752.17-.028.341-.059.511-.089,1.525-.275,2.6-1.326,3.947-2.215,1.28-.841,3.082-4.088,3.082-4.088l3.534.09s-1.7,2.9-2.345,4.162a4.255,4.255,0,0,0-.217,2.417,4.525,4.525,0,0,1,.037,1.205" transform="translate(-936.476 -799.237)" fill="#eea886"/>
            <path id="Trazado_601608" data-name="Trazado 601608" d="M1093.833,975.177c-1.837-.284-1.364.2-3.949.139s-3.448-1.38-3.559-1.753c-.1-.332.637-.422,1.98-.7l.534-.112a5.855,5.855,0,0,0,3.77,1.253c1.741-.108,3.537-.764,4.739-.848a4.523,4.523,0,0,1,.077,1.2c-.128,1.149-1.755,1.1-3.591.815" transform="translate(-936.323 -838.441)" fill="#131f2d"/>
            <path id="Trazado_601609" data-name="Trazado 601609" d="M1179.441,587.253s-.839-2.057-1.763-2.141-3.862-.546-4.072-.126a2.906,2.906,0,0,0,.63,2.477c.63.546,4.534,1.427,4.534,1.427Z" transform="translate(-1011.492 -504.065)" fill="#eea886"/>
            <path id="Trazado_601610" data-name="Trazado 601610" d="M1154.84,736.376l-17.382,13.166a6.955,6.955,0,0,0,.859,2.128,9.841,9.841,0,0,0,1.667,1.8s18.249-7.463,21.161-11.947-6.306-5.152-6.306-5.152" transform="translate(-980.404 -634.701)" fill="#131f2d"/>
            <path id="Trazado_601611" data-name="Trazado 601611" d="M1190.208,715.241s-22.187-6.2-26.964-4.371-17.811,31.644-17.811,31.644a2.821,2.821,0,0,0,1.27.709,11.608,11.608,0,0,0,2.876.14s12.564-11.994,13.955-15.371,1.85-6.546,3.435-6.316,20.637,6.6,24.634,1.98a12.237,12.237,0,0,0,2.585-10.261Z" transform="translate(-987.278 -612.426)" fill="#364154"/>
            <path id="Trazado_601612" data-name="Trazado 601612" d="M1365.448,389.778a12.408,12.408,0,0,1-.929-4.276,13.112,13.112,0,0,0,1.527,4.726c4.538,2.98,13.238,12.929,13.066,14.815,0,0,3.064-5.2,3.117-5.228,0,0,5.652-7.188-1.047-11.3-3.405-2.093-3.388-4.778-3.245-7.111s-.929-12.376-7.749-9.748a4.441,4.441,0,0,0-1.585-.414,1.34,1.34,0,0,1,.6.287,5.293,5.293,0,0,0-2.865.548c-2.5,1.421-4.738,14.168-.895,17.705" transform="translate(-1175.132 -319.961)" fill="#131f2d"/>
            <path id="Trazado_601613" data-name="Trazado 601613" d="M1384.629,468.035a6.285,6.285,0,0,0,3.856.7,5,5,0,0,0,2.569-2.463c-.664-.132-.855-1.043-.841-4.961l-.3.059-5.043,1s.115,1.587.118,3.082c0,1.255-.073,2.446-.36,2.58" transform="translate(-1193.447 -397.619)" fill="#eea886"/>
            <path id="Trazado_601614" data-name="Trazado 601614" d="M1386.381,462.742s.115,1.587.118,3.082c2.822-.08,4.314-2.654,4.925-4.081Z" transform="translate(-1194.956 -397.988)" fill="#d48f6e"/>
            <path id="Trazado_601615" data-name="Trazado 601615" d="M1372.12,393.086a14.838,14.838,0,0,0,1.834-4.335c.253-1.426-.473-6.714-5.786-5.952a7.218,7.218,0,0,0-2.994,1.132c-1.154.779-2.818,2.461-.957,7.075l.483,1.559Z" transform="translate(-1175.132 -329.88)" fill="#131f2d"/>
            <path id="Trazado_601616" data-name="Trazado 601616" d="M1365.676,408.9s6.676.11,6.681-4.049.869-6.945-3.393-7.192-5.093,1.34-5.432,2.728.407,8.377,2.144,8.513" transform="translate(-1175.193 -342.732)" fill="#eea886"/>
            <path id="Trazado_601617" data-name="Trazado 601617" d="M1369.129,392.685s-4.56-3.118-6-.962c-.437-.375-1.217-.647-2.247.6-1.548,1.876-.171,5.192-.171,5.192.635.074.785-2.106,1.118-3.165a5.3,5.3,0,0,1,1.486-1.967c.582,1.313,2.185,4.456,4.392,5.023,2.805.721,4.022-.03,4.022-.03a7.944,7.944,0,0,1-2.6-4.693" transform="translate(-1172.342 -336.982)" fill="#131f2d"/>
            <path id="Trazado_601618" data-name="Trazado 601618" d="M1372.873,532.848c-.36,1-1.464,1.257-2.945,1.084-2.822-.33-7.014-2.224-10.035-3.535-4.606-2-6.7-.12-8.165-1.391s1.675-4.1-1.047-17.215c-.923-4.449,4.922-13.994,4.922-13.994s.4,2.586,6.105-.553a52.4,52.4,0,0,1,4.522,7.165c2.339,4.436,4.578,9.794,3.92,12.556-1.256,5.264,3.768,12.979,2.721,15.883" transform="translate(-1164.102 -428.588)" fill="#5ad1a5"/>
            <path id="Trazado_601619" data-name="Trazado 601619" d="M1230.953,501.249l-3.447,14.159s-.429.764-1.1,1.852c-1.58,2.554-4.5,6.893-6.375,7.334-.924.218-2.887-.551-5.06-1.649a102.788,102.788,0,0,1-8.967-5.329,4.312,4.312,0,0,1,1.326-3.42s9.839,3.7,10.817,3.768c2.13.152,4.3-10.129,6.288-13.555,1.439-2.478,6.519-3.16,6.519-3.16" transform="translate(-1039.45 -432.039)" fill="#5ad1a5"/>
            <path id="Trazado_601620" data-name="Trazado 601620" d="M1374.642,458.861s-.124.528-1.439.447c0,0-1.1-.068-1.07-.649a3.55,3.55,0,0,1,2.508.2" transform="translate(-1182.675 -395.212)" fill="#fff"/>
            <path id="Trazado_601621" data-name="Trazado 601621" d="M1429.352,609.715c-.36,1-1.464,1.257-2.944,1.083-1.953-.851-10.391-4.12-10.3-6.335.14-3.279,1.623-3.384.576-7.432-.84-3.25,6.956-9.293,8.2-10.607,2.339,4.436,2.4,4.646,1.745,7.407-1.256,5.264,3.768,12.979,2.721,15.883" transform="translate(-1220.581 -505.455)" fill="#4abf94"/>
            <path id="Trazado_601622" data-name="Trazado 601622" d="M1282.626,613.684c-1.58,2.554-4.5,6.893-6.375,7.334-.923.218-2.887-.551-5.06-1.649a13.142,13.142,0,0,0,4.624.253c1.622-.157,2.093-2.146,4.658-5.129,1.663-1.935,2.072-1.448,2.153-.809" transform="translate(-1095.671 -528.463)" fill="#4abf94"/>
            <path id="Trazado_601623" data-name="Trazado 601623" d="M1381.361,657.2a4.023,4.023,0,0,0-2.748-.837c-1.334.262-1.989,1.177-1.936,1.6a2.38,2.38,0,0,0,1.779,1.7,19.284,19.284,0,0,0,3.925-.628Z" transform="translate(-1186.59 -565.699)" fill="#eea886"/>
            <path id="Trazado_601624" data-name="Trazado 601624" d="M1410.135,497.245s5.442.335,7.325,2.963c2.652,3.7,9.016,20.15,6,22.252-3.4,2.367-16.556-.07-16.556-.07a4.9,4.9,0,0,1,.157-2.783c.558-.907,9.63-2.373,10.049-2.791s-5.234-8.164-5.234-9.421-1.743-10.15-1.743-10.15" transform="translate(-1212.527 -428.588)" fill="#5ad1a5"/>
            <path id="Trazado_601625" data-name="Trazado 601625" d="M1252.657,637.557h-20.043l-3.614-12.6h20.013Z" transform="translate(-1059.306 -538.666)" fill="#131f2d"/>
            <path id="Trazado_601626" data-name="Trazado 601626" d="M1254.214,712.659h26.4v.491h-26.272Z" transform="translate(-1081.039 -614.259)" fill="#131f2d"/>
            <path id="Trazado_601627" data-name="Trazado 601627" d="M1301.062,664.1a.584.584,0,0,1,.572-.8,1.15,1.15,0,0,1,1.032.8.584.584,0,0,1-.572.8,1.149,1.149,0,0,1-1.032-.8" transform="translate(-1121.39 -571.711)" fill="#fff"/>
            <path id="Trazado_601628" data-name="Trazado 601628" d="M173.572,160.542h64.8a1.214,1.214,0,0,1,1.184.947l25.2,112.093a1.214,1.214,0,0,1-1.184,1.48h-64.8a1.214,1.214,0,0,1-1.184-.948l-25.2-112.093a1.214,1.214,0,0,1,1.184-1.48" transform="translate(-148.559 -138.375)" fill="#657285"/>
            <g id="Grupo_877143" data-name="Grupo 877143" transform="translate(35.543 75.75)" opacity="0.2">
              <g id="Grupo_877142" data-name="Grupo 877142">
                <g id="Grupo_877141" data-name="Grupo 877141" clip-path="url(#clip-path-4)">
                  <path id="Trazado_601629" data-name="Trazado 601629" d="M336.929,602.976l-79.513-54.362L270.9,608.6a1.214,1.214,0,0,0,1.184.948h64.8a1.214,1.214,0,0,0,1.184-1.48Z" transform="translate(-257.416 -548.614)" fill="#699dee"/>
                </g>
              </g>
            </g>
            <path id="Trazado_601630" data-name="Trazado 601630" d="M222.132,206.441H277.5a1.037,1.037,0,0,1,1.012.81l21.533,95.771a1.037,1.037,0,0,1-1.012,1.264H243.665a1.037,1.037,0,0,1-1.012-.81l-21.532-95.771a1.037,1.037,0,0,1,1.012-1.264" transform="translate(-190.567 -177.937)" fill="#eaeaea"/>
            <path id="Trazado_601631" data-name="Trazado 601631" d="M369.5,180.828H345.941a.99.99,0,0,1-.99-.99v-.02a.99.99,0,0,1,.99-.99H369.5a.99.99,0,0,1,.99.99v.02a.99.99,0,0,1-.99.99" transform="translate(-297.322 -154.137)" fill="#364154"/>
            <path id="Trazado_601632" data-name="Trazado 601632" d="M326.918,429.057c-12.648,2.944-30.152-1.963-44.469-13.084-6.618-5.141-12.419-6.587-17.324-6.043L280.6,478.777a1.037,1.037,0,0,0,1.012.81h55.367a1.037,1.037,0,0,0,1.012-1.264Z" transform="translate(-228.518 -353.237)" fill="#d5d6da"/>
          </g>
        </g>
        <g id="Grupo_877147" data-name="Grupo 877147" transform="translate(30.565 9.327)">
          <g id="Grupo_877146" data-name="Grupo 877146" clip-path="url(#clip-path-5)">
            <path id="Trazado_601633" data-name="Trazado 601633" d="M530.545,458.166a10.21,10.21,0,0,0,3.884-1.992,3.8,3.8,0,0,1,3.962-.584c.713.307,1.094,1.585.229,1.548-1.306-.057-1.832,1.727-3.892,2.048a15.557,15.557,0,0,0-4.29,1.549Z" transform="translate(-487.763 -401.749)" fill="#ff7955"/>
            <path id="Trazado_601634" data-name="Trazado 601634" d="M416.585,330.422s3.049,17.839,8.055,19.623c2.806,1,8.415-1.592,11.534-3.211l-1-1.694s-5.97.819-6.711.359c-1.289-.8-.222-15.885-3.6-18.647s-6.4-1.306-8.28,3.57" transform="translate(-389.63 -289.855)" fill="#016eb9"/>
            <path id="Trazado_601635" data-name="Trazado 601635" d="M459.981,952.437h10.763a1.786,1.786,0,0,0-1.727-1.468c-1.71-.253-4.725-1.248-5.277-3.594s-4.179.808-4.179.808-.377,3.758.42,4.254" transform="translate(-426.595 -825.146)" fill="#131f2d"/>
            <path id="Trazado_601636" data-name="Trazado 601636" d="M311.162,563.131c1.794,3.662,6.049,8.761,7.618,12.713a7.265,7.265,0,0,1,.6,2.576c.037,8.868,9.663,26.355,9.663,26.355.918.594,4.836-.595,4.836-.595s-.454-3.886-2.7-17.313c-1.24-7.407-3.331-18.435-4.957-26.836-.419-2.164-.807-4.153-1.141-5.862-.722-3.685-1.2-6.062-1.2-6.062l-3.733.062-10.082.167s-4.185,4.013,1.1,14.8" transform="translate(-296.461 -481.754)" fill="#364154"/>
            <path id="Trazado_601637" data-name="Trazado 601637" d="M311.162,563.131c1.794,3.662,6.049,8.761,7.618,12.713,2.224-4.706,5.6-11.86,7.435-15.813-.419-2.164-.807-4.153-1.141-5.862-.53-2.547-.688-3.687-1.2-6.062l-13.815.229s-4.185,4.013,1.1,14.8" transform="translate(-296.461 -481.754)" fill="#131f2d"/>
            <path id="Trazado_601638" data-name="Trazado 601638" d="M177.16,924.7c.42,1.228,2.157,1.986,2.45,3.5a2.911,2.911,0,0,0,1.313,2.074h4.729c.078-.176.406-1.091-.935-1.326-1.487-.261-2.116-2.023-2.092-3.685,0-.04,0-.081,0-.122a30.2,30.2,0,0,0-.3-3.74l-3.16-.608-.528.739-.083.117s-1.815,1.827-1.4,3.055" transform="translate(-183.209 -802.981)" fill="#131f2d"/>
            <path id="Trazado_601639" data-name="Trazado 601639" d="M209.173,581.966c-1.894,3.44-15.869,19.413-15.869,19.413s-4.405-1.487-5.189-4.163c0,0,8.266-13.581,12.025-19.37,1.075-1.655,1.672-26.954,5.5-31.565,4.8-5.78,13.5,5.186,13.5,5.186s-2.72,8.847-3.566,11.634c-1.875,6.181-5.093,16.494-6.4,18.865" transform="translate(-192.705 -478.731)" fill="#364154"/>
            <path id="Trazado_601640" data-name="Trazado 601640" d="M535.36,459.313a10.209,10.209,0,0,0,3.884-1.992,3.8,3.8,0,0,1,3.962-.584c.713.307,1.094,1.585.229,1.548-1.306-.057-1.831,1.727-3.892,2.048a15.555,15.555,0,0,0-4.291,1.549Z" transform="translate(-491.913 -402.737)" fill="#ff7955"/>
            <path id="Trazado_601641" data-name="Trazado 601641" d="M427.983,268.495a29.62,29.62,0,0,0,1.973-3.758l-3.257-5.713a10.268,10.268,0,0,1-6.279,6.561s5.123,5.621,9.248,5.9a9.444,9.444,0,0,0-1.686-2.995" transform="translate(-392.935 -232.587)" fill="#ef6343"/>
            <path id="Trazado_601642" data-name="Trazado 601642" d="M462.718,230.121s-6.458-1.374-5.54-5.383.7-6.886,4.865-6.178,4.61,2.42,4.63,3.833-2.25,7.982-3.954,7.728" transform="translate(-424.541 -197.617)" fill="#ff7955"/>
            <path id="Trazado_601643" data-name="Trazado 601643" d="M453.733,211.92a6.742,6.742,0,0,1,7.958-3.666c4,.929,2.953-3.133,2.717-3.8,0,0-3.109-.584-6.325-1.1-6.749-1.077-4.711,7.555-4.35,8.567" transform="translate(-421.158 -184.522)" fill="#131f2d"/>
            <path id="Trazado_601644" data-name="Trazado 601644" d="M337.878,311.813a55.267,55.267,0,0,1-1.553,8.412c-.319,1.305-.67,2.66-1.038,4.024-.6,2.214-1.22,4.441-1.862,6.537l-.024.075c-.047.213-.119.439-.184.647-.557,1.851-1.091,3.565-1.556,5.019-.891,2.782-.9,4.332-1.608,4.646-1.429.631-7.053-.046-10.423-1.507-2.847-1.212-7.186-4.868-7.164-6.708.026-2.133,2.888-8.555,4.786-16.054,2.341-9.16,7.534-16.474,11.864-17.982.323-.1.669.574,1.924,1.78a7.083,7.083,0,0,0,4.023,1.954l.8,1.377a13.6,13.6,0,0,1,2.01,7.782" transform="translate(-299.888 -266.965)" fill="#3185af"/>
            <path id="Trazado_601645" data-name="Trazado 601645" d="M421.767,402.124c-.319,1.305.368-1.364,0,0-.6,2.214-1.22,4.441-1.862,6.537l-.024.075c-.046.213-.119.439-.184.647-.557,1.851-1.091,3.564-1.556,5.019-9.007-11.44-3.9-25.141-3.9-25.141Z" transform="translate(-386.367 -344.84)" fill="#016eb9"/>
            <path id="Trazado_601646" data-name="Trazado 601646" d="M386.386,339.073s5.635,20.748,10.794,22.019c2.546.627,9.533-2.611,12.652-4.23,0,0,.784-.637-.948-2.894,0,0-9.232,1.734-9.973,1.274-1.29-.8,1.31-14.807-2.068-17.568s-8.572-3.477-10.457,1.4" transform="translate(-363.601 -298.505)" fill="#00a3fe"/>
            <path id="Trazado_601647" data-name="Trazado 601647" d="M460.848,239.163a3.506,3.506,0,0,1,2.663-1.4s-5.693.12-5.93,1.869-.3,2.026-.3,2.026,3.008.123,3.567-2.5" transform="translate(-424.707 -214.265)" fill="#131f2d"/>
            <path id="Trazado_601648" data-name="Trazado 601648" d="M982.178,483.921l7.286-.627a38.27,38.27,0,0,1,.861-10.484,36.876,36.876,0,0,1,6.48-14.526c6.24-8.282,24.775-12.915,24.775-12.915V444.3l-.666-.072a2.653,2.653,0,0,1,.666-.316v-2.534a8.953,8.953,0,0,0-2.106.206,14.391,14.391,0,0,1,2.106-.378V439.87c-26.849.718-35.606,16.936-38.35,29.487a50.254,50.254,0,0,0-1.052,14.564" transform="translate(-877.008 -388.462)" fill="#c6d372"/>
            <path id="Trazado_601649" data-name="Trazado 601649" d="M752.1,411.376l31.889,2.357a52.836,52.836,0,0,1,2.687-13.842,65.367,65.367,0,0,1,2.439-6.474c9.54-20.9,34.276-23.736,34.276-23.736l-27.455-11.244A40.2,40.2,0,0,0,766.861,373.8c-12.746,15.664-14.759,37.571-14.759,37.571" transform="translate(-678.82 -318.275)" fill="#e6ff48"/>
            <path id="Trazado_601650" data-name="Trazado 601650" d="M768.254,423.975l28.419-.55-.1-.547A38.326,38.326,0,0,1,798.5,404.99a35.669,35.669,0,0,1,9.672-14.431c5.54-5.043,12.943-8.8,22-11.157l1.4-.364L809.4,370.21l-.085,0a32.221,32.221,0,0,0-13.3,3.381,41.232,41.232,0,0,0-11.778,8.454,55.028,55.028,0,0,0-10.953,16.684c-.228.508-5.626,12.627-5.341,19.9v.009Zm27.3-1.474-26.413.511-.258-4.422c-.113-2.907.758-7.192,2.52-12.392,1.338-3.951,2.727-7.057,2.741-7.087a54.122,54.122,0,0,1,10.738-16.378,40.308,40.308,0,0,1,11.486-8.266,34.771,34.771,0,0,1,10.82-3.175,7.36,7.36,0,0,1,3.556.474l15.372,6.118a.919.919,0,0,1-.06,1.73,49.842,49.842,0,0,0-18.541,10.265,36.6,36.6,0,0,0-9.919,14.832,40.4,40.4,0,0,0-2.3,12.836,34.07,34.07,0,0,0,.258,4.954" transform="translate(-692.465 -328.418)" fill="#c6d372"/>
            <path id="Trazado_601651" data-name="Trazado 601651" d="M729.151,734.911l.186,2.138a.819.819,0,0,0,.181.448.833.833,0,0,0,.413.274.719.719,0,0,0,.155.029.752.752,0,0,0,.146,0l.242-.021.212-.019.387-.033.408-.035.387-.033.437-.038.388-.034.86-.075.387-.034.923-.08.387-.034,1.185-.1.387-.033,2.021-.176.387-.033,2.16-.188.387-.033,3.518-.305.387-.034.451-.039,2.817-.244.387-.034,2.877-.25.388-.034,2.134-.185,3.678-.319,5.88-.51a.831.831,0,0,0,.748-.732.471.471,0,0,0,0-.052.8.8,0,0,0,0-.111l-.185-2.138c0-.014,0-.027,0-.041a.832.832,0,0,0-.588-.683.813.813,0,0,0-.3-.03l-8.826.766-.031,0-.387.034-.311.027-2.522.219-.045,0-.387.034-2.445.212-.305.026h0l-.081.007-.437.038-.139.012-.248.021-2.445.212-.387.034-.685.059-.388.034-2.159.188-.285.025-.1.009-.286.025-1.736.15-.387.034-.037,0-.387.034-.761.065-.387.034-.923.08-.387.034-.86.075-.275.024-.113.009-.274.024-.162.014-.387.034-.374.033-.034,0-.353.031-.034,0-.211.019-.387.034-.151.013h0l-.073.007-.388.033-.437.038-.387.034-.8.07-.211.018-.242.021a.82.82,0,0,0-.292.082.83.83,0,0,0-.359.342.818.818,0,0,0-.1.472" transform="translate(-659.035 -639.444)" fill="#00a3fe"/>
            <path id="Trazado_601652" data-name="Trazado 601652" d="M852.151,736.38l2.817-.244.387-.034,2.877-.25.388-.033,2.134-.185,3.678-.319,5.88-.51.086-.008a.764.764,0,0,0,.662-.725.446.446,0,0,0,0-.052.809.809,0,0,0,0-.111l-.185-2.138c0-.014,0-.027,0-.04a.831.831,0,0,0-.534-.688.675.675,0,0,0-.269-.033l-.089.008-8.826.766-.031,0-.387.034-.311.027-2.134.186-.388.034-.045,0-.387.034-2.445.212-.305.027h0l-.081.007-.437.038-.139.012-.008.057h0a6.789,6.789,0,0,1-1.9,3.924" transform="translate(-765.055 -639.402)" fill="#016eb9"/>
            <rect id="Rectángulo_293316" data-name="Rectángulo 293316" width="0.388" height="3.8" transform="translate(74.188 94.283) rotate(-4.954)" fill="#016eb9"/>
            <rect id="Rectángulo_293317" data-name="Rectángulo 293317" width="0.389" height="3.8" transform="translate(75.498 94.17) rotate(-4.953)" fill="#016eb9"/>
            <rect id="Rectángulo_293318" data-name="Rectángulo 293318" width="0.389" height="3.8" transform="matrix(0.996, -0.087, 0.087, 0.996, 77.069, 94.033)" fill="#016eb9"/>
            <rect id="Rectángulo_293319" data-name="Rectángulo 293319" width="0.389" height="3.8" transform="translate(79.478 93.824) rotate(-4.953)" fill="#016eb9"/>
            <rect id="Rectángulo_293320" data-name="Rectángulo 293320" width="0.389" height="3.801" transform="translate(82.025 93.603) rotate(-4.953)" fill="#016eb9"/>
            <rect id="Rectángulo_293321" data-name="Rectángulo 293321" width="0.389" height="3.8" transform="translate(85.929 93.265) rotate(-4.954)" fill="#016eb9"/>
            <rect id="Rectángulo_293322" data-name="Rectángulo 293322" width="0.388" height="3.8" transform="translate(89.584 92.948) rotate(-4.975)" fill="#016eb9"/>
            <rect id="Rectángulo_293323" data-name="Rectángulo 293323" width="0.389" height="3.801" transform="translate(92.849 92.664) rotate(-4.953)" fill="#016eb9"/>
            <rect id="Rectángulo_293324" data-name="Rectángulo 293324" width="0.389" height="3.8" transform="translate(72.941 94.391) rotate(-4.954)" fill="#016eb9"/>
            <rect id="Rectángulo_293325" data-name="Rectángulo 293325" width="0.389" height="3.8" transform="translate(72.117 94.463) rotate(-4.954)" fill="#016eb9"/>
            <rect id="Rectángulo_293326" data-name="Rectángulo 293326" width="0.388" height="3.8" transform="translate(71.321 94.532) rotate(-4.954)" fill="#016eb9"/>
            <path id="Trazado_601653" data-name="Trazado 601653" d="M733.575,752.373l.326,3.76a.809.809,0,0,0,.146,0l.242-.021-.328-3.786-.242.021a.813.813,0,0,0-.144.026" transform="translate(-662.852 -657.776)" fill="#016eb9"/>
            <path id="Trazado_601654" data-name="Trazado 601654" d="M729.9,753.408l.265,3.058a.832.832,0,0,0,.414.275l-.319-3.675a.834.834,0,0,0-.36.342" transform="translate(-659.686 -658.414)" fill="#016eb9"/>
            <path id="Trazado_601655" data-name="Trazado 601655" d="M747.32,706.113l.186,2.138a.821.821,0,0,0,.181.448c.013.016.027.031.041.046a.835.835,0,0,0,.2.154.8.8,0,0,0,.173.074h0a.816.816,0,0,0,.3.029l.242-.021.212-.019.034,0,.353-.031.034,0,.374-.033.387-.034.163-.014.274-.024.112-.01.275-.024.86-.075.05,0,.337-.029.05,0,.873-.076.387-.033.761-.066.387-.034.037,0,.387-.034,1.736-.15.286-.025.1-.009.285-.025,2.16-.187.388-.034.685-.059.387-.034,2.445-.212.234-.02h0l.152-.014.437-.038h.015l.372-.032,2.445-.212.387-.034.045,0,.388-.034,2.134-.185.311-.028.387-.034.11-.009,9.045-.784.054-.005,2.482-.215a.829.829,0,0,0,.748-.732c0-.017,0-.033,0-.051a.815.815,0,0,0,0-.112l-.185-2.138c0-.014,0-.026,0-.04s0-.026-.006-.039a.831.831,0,0,0-.885-.674l-.579.05h0l-.056,0-2.757.239-7.343.637-.953.083-.387.034-.311.027-.234.02-.387.034-1.945.169-.387.034-.543.047h0l-.032,0-.355.031-2.752.238-.517.045-.388.034-3.517.305-.387.033-2.16.188-.387.034-2.021.175-.388.034-.253.022-.387.034-.543.047-.387.033-.924.08-.315.027-.072.006-.316.027-.437.038-.107.01-.387.033-.437.038-.387.034-.076.007-.242.02a.643.643,0,0,0-.089.014l-.054.012a.7.7,0,0,0-.143.054h-.005a.832.832,0,0,0-.359.342.816.816,0,0,0-.1.472" transform="translate(-674.696 -614.623)" fill="#00a3fe"/>
            <path id="Trazado_601656" data-name="Trazado 601656" d="M870.32,707.581l.372-.033,2.445-.212.387-.034.045,0,.388-.034,2.134-.185.311-.028.387-.033.11-.01,9.045-.784.054-.005,2.482-.215.086-.008a.764.764,0,0,0,.662-.725c0-.017,0-.033,0-.051a.826.826,0,0,0,0-.112l-.185-2.138c0-.014,0-.026,0-.04s0-.026-.006-.039a.781.781,0,0,0-.8-.682l-.089.008-.579.05h0l-.056,0-2.757.239-7.342.638-.953.083-.387.034-.311.027-.234.02-.387.034-1.945.169-.387.034-.544.047h0l-.032,0c0,.018-.005.036-.008.055h0a6.822,6.822,0,0,1-1.843,3.863h0c-.02.021-.04.041-.061.061" transform="translate(-780.716 -614.579)" fill="#016eb9"/>
            <rect id="Rectángulo_293327" data-name="Rectángulo 293327" width="0.389" height="3.8" transform="translate(76.696 90.307) rotate(-4.975)" fill="#016eb9"/>
            <rect id="Rectángulo_293328" data-name="Rectángulo 293328" width="0.389" height="3.8" transform="translate(78.007 90.193) rotate(-4.954)" fill="#016eb9"/>
            <rect id="Rectángulo_293329" data-name="Rectángulo 293329" width="0.388" height="3.8" transform="translate(79.578 90.057) rotate(-4.975)" fill="#016eb9"/>
            <rect id="Rectángulo_293330" data-name="Rectángulo 293330" width="0.388" height="3.8" transform="translate(81.986 89.848) rotate(-4.975)" fill="#016eb9"/>
            <rect id="Rectángulo_293331" data-name="Rectángulo 293331" width="0.388" height="3.8" transform="translate(84.533 89.627) rotate(-4.975)" fill="#016eb9"/>
            <rect id="Rectángulo_293332" data-name="Rectángulo 293332" width="0.389" height="3.8" transform="translate(88.438 89.288) rotate(-4.953)" fill="#016eb9"/>
            <rect id="Rectángulo_293333" data-name="Rectángulo 293333" width="0.389" height="3.8" transform="translate(92.093 88.971) rotate(-4.953)" fill="#016eb9"/>
            <rect id="Rectángulo_293334" data-name="Rectángulo 293334" width="0.388" height="3.8" transform="translate(95.357 88.688) rotate(-4.975)" fill="#016eb9"/>
            <rect id="Rectángulo_293335" data-name="Rectángulo 293335" width="0.388" height="3.8" transform="translate(75.45 90.415) rotate(-4.954)" fill="#016eb9"/>
            <rect id="Rectángulo_293336" data-name="Rectángulo 293336" width="0.389" height="3.8" transform="matrix(0.996, -0.087, 0.087, 0.996, 74.625, 90.487)" fill="#016eb9"/>
            <rect id="Rectángulo_293337" data-name="Rectángulo 293337" width="0.389" height="3.8" transform="translate(73.829 90.556) rotate(-4.975)" fill="#016eb9"/>
            <path id="Trazado_601657" data-name="Trazado 601657" d="M751.745,723.575l.326,3.76a.819.819,0,0,0,.146,0l.242-.021-.328-3.786-.242.021a.793.793,0,0,0-.144.026" transform="translate(-678.513 -632.954)" fill="#016eb9"/>
            <path id="Trazado_601658" data-name="Trazado 601658" d="M748.072,724.61l.265,3.058a.831.831,0,0,0,.413.275l-.319-3.675a.833.833,0,0,0-.36.342" transform="translate(-675.347 -633.592)" fill="#016eb9"/>
            <path id="Trazado_601659" data-name="Trazado 601659" d="M738.235,679.669l.185,2.138a.828.828,0,0,0,.75.752.8.8,0,0,0,.146,0l.242-.021.211-.019.184-.015h0l.146-.013.055-.005.332-.028.076-.007.135-.012.252-.022.135-.012.3-.026.107-.009.28-.024.107-.01.437-.038.317-.027.07-.006.316-.028.543-.047.38-.033h.007l.38-.033.543-.047.387-.034.254-.022.388-.034.543-.047.387-.034,1.091-.095.387-.034.543-.047.387-.034,1.229-.107.387-.034.543-.046.388-.034,2.586-.224.388-.034.451-.039.092-.008.387-.034,2.338-.2.343-.03.045,0,.543-.047.387-.034,1.946-.169.387-.034.233-.02.311-.027h0l.387-.034,1.033-.089,9.725-.843a.827.827,0,0,0,.755-.783.816.816,0,0,0,0-.112l-.186-2.138c0-.027-.006-.053-.01-.08a.829.829,0,0,0-.844-.676h-.005l-.035,0-11.457.994-.233.021-.387.033-2.877.249-.388.033-.576.05-2.692.234-.388.034-3.517.305-.387.034-2.159.187-.387.033-2.021.175-.388.033-1.184.1-.387.034-.923.08-.387.034-.861.075-.387.034-.437.038-.387.033-.408.035-.388.034-.212.019-.242.021a.789.789,0,0,0-.144.026.736.736,0,0,0-.147.055.831.831,0,0,0-.359.342.817.817,0,0,0-.1.472" transform="translate(-666.865 -591.83)" fill="#00a3fe"/>
            <path id="Trazado_601660" data-name="Trazado 601660" d="M861.235,681.142l.092-.008.387-.033,2.338-.2.343-.03.045,0,.544-.047.387-.034,1.946-.169.387-.033.233-.021.311-.027.387-.034,1.034-.089,9.813-.851a.663.663,0,0,0,.257-.077h0a.862.862,0,0,0,.406-.81l-.186-2.138q0-.04-.01-.08a.823.823,0,0,0-.536-.651.665.665,0,0,0-.261-.029l-.048,0H879.1l-11.492,1-.233.021-.387.033-2.877.249-.388.034-.576.05a6.82,6.82,0,0,1-1.852,3.92l-.06.06" transform="translate(-772.885 -591.792)" fill="#016eb9"/>
            <rect id="Rectángulo_293338" data-name="Rectángulo 293338" width="0.389" height="3.8" transform="translate(75.441 86.656) rotate(-4.975)" fill="#016eb9"/>
            <rect id="Rectángulo_293339" data-name="Rectángulo 293339" width="0.389" height="3.8" transform="translate(76.752 86.542) rotate(-4.953)" fill="#016eb9"/>
            <rect id="Rectángulo_293340" data-name="Rectángulo 293340" width="0.389" height="3.8" transform="matrix(0.996, -0.087, 0.087, 0.996, 78.323, 86.406)" fill="#016eb9"/>
            <rect id="Rectángulo_293341" data-name="Rectángulo 293341" width="0.389" height="3.8" transform="translate(80.732 86.197) rotate(-4.953)" fill="#016eb9"/>
            <rect id="Rectángulo_293342" data-name="Rectángulo 293342" width="0.389" height="3.8" transform="translate(83.279 85.976) rotate(-4.953)" fill="#016eb9"/>
            <rect id="Rectángulo_293343" data-name="Rectángulo 293343" width="0.389" height="3.8" transform="translate(87.183 85.637) rotate(-4.954)" fill="#016eb9"/>
            <rect id="Rectángulo_293344" data-name="Rectángulo 293344" width="0.388" height="3.8" transform="translate(90.839 85.32) rotate(-4.954)" fill="#016eb9"/>
            <rect id="Rectángulo_293345" data-name="Rectángulo 293345" width="0.389" height="3.8" transform="matrix(0.996, -0.087, 0.087, 0.996, 94.102, 85.037)" fill="#016eb9"/>
            <rect id="Rectángulo_293346" data-name="Rectángulo 293346" width="0.389" height="3.8" transform="matrix(0.996, -0.087, 0.087, 0.996, 74.194, 86.764)" fill="#016eb9"/>
            <rect id="Rectángulo_293347" data-name="Rectángulo 293347" width="0.389" height="3.8" transform="translate(73.37 86.836) rotate(-4.975)" fill="#016eb9"/>
            <rect id="Rectángulo_293348" data-name="Rectángulo 293348" width="0.388" height="3.8" transform="translate(72.575 86.905) rotate(-4.954)" fill="#016eb9"/>
            <path id="Trazado_601661" data-name="Trazado 601661" d="M742.659,697.132l.326,3.76a.8.8,0,0,0,.146,0l.242-.021-.328-3.786-.242.021a.808.808,0,0,0-.144.026" transform="translate(-670.681 -610.162)" fill="#016eb9"/>
            <path id="Trazado_601662" data-name="Trazado 601662" d="M738.986,698.167l.265,3.058a.833.833,0,0,0,.413.275l-.319-3.675a.834.834,0,0,0-.36.342" transform="translate(-667.515 -610.8)" fill="#016eb9"/>
            <path id="Trazado_601664" data-name="Trazado 601664" d="M635.4,913.564a5.648,5.648,0,1,1,5.648,5.648,5.648,5.648,0,0,1-5.648-5.648" transform="translate(-578.229 -791.883)" fill="#131f2d"/>
            <path id="Trazado_601665" data-name="Trazado 601665" d="M657.482,932.6a2.6,2.6,0,1,1,2.6,2.6,2.6,2.6,0,0,1-2.6-2.6" transform="translate(-597.265 -810.919)" fill="#b8c1c9"/>
            <path id="Trazado_601666" data-name="Trazado 601666" d="M961.606,913.564a5.648,5.648,0,1,1,5.648,5.648,5.648,5.648,0,0,1-5.648-5.648" transform="translate(-859.397 -791.883)" fill="#131f2d"/>
            <path id="Trazado_601667" data-name="Trazado 601667" d="M983.692,932.6a2.6,2.6,0,1,1,2.6,2.6,2.6,2.6,0,0,1-2.6-2.6" transform="translate(-878.434 -810.919)" fill="#b8c1c9"/>
            <path id="Trazado_601668" data-name="Trazado 601668" d="M593.421,470.824a.847.847,0,0,1,1.2-.045l7.229,6.709a.844.844,0,0,1,.231.364l.918,2.885,60.667,2.877a.847.847,0,0,1,.806.887l-1.243,25.528a.847.847,0,0,1-.785.8l-49.814,3.615-.062,0a.847.847,0,0,1-.807-.59l-10.193-32.028c0-.013-.009-.026-.012-.039l-1.023-3.215-7.066-6.557a.847.847,0,0,1-.045-1.2m16.953,33.095,5.571-.213-2.331-9.4-6.318-.053Zm7.07-.271,6.271-.24-2.12-9.037-6.464-.055Zm8.239,8.154-1.627-6.938-6.252.239,1.77,7.142Zm7.243-.526-1.246-6.7-6.13.235,1.615,6.888Zm7.983-.579-.974-6.441-6.771.259,1.236,6.654Zm6.66-.483-.47-6.233-5.687.218.967,6.391Zm8.078-.586-.387-5.959-6.693.257.466,6.183Zm6.629-14.913-6.129-.052.486,7.483,5.291-.2Zm-7.6-.065-6.811-.058.593,7.867,6.708-.257Zm-7.57-10.125.648,8.6,6.826.058-.541-8.327Zm-8.731-.414,1.353,8.944,6.553.055-.653-8.656Zm-9.081-.431,1.728,9.3,7.219.061-1.362-9Zm-8.793-.417,2.263,9.648,6.763.057-1.739-9.36Zm17.962,11.25-7.168-.061,1.6,8.6,6.821-.261Zm2.729,8.225,5.8-.222-.6-7.936-6.442-.055Zm-11.393-8.3-6.691-.057,2.1,8.967,6.2-.237ZM621.25,492.9l-2.277-9.708-6.679-.317,2.471,9.969Zm34.264-7.975.537,8.27,6.3.053.388-7.981Zm6.338,18.492-5.125.2.384,5.909,4.459-.323Zm-48.681,9.294,4.917-.357-1.783-7.192-5.47.21Zm-6.344-19.933,6.422.054L610.764,482.8l-7.219-.342Z" transform="translate(-541.854 -414.909)" fill="#364154"/>
            <path id="Trazado_601669" data-name="Trazado 601669" d="M587.681,467.49a1.017,1.017,0,0,0,.673-1.779l-3.7-3.262a1.017,1.017,0,1,0-1.345,1.525l3.7,3.262a1.013,1.013,0,0,0,.672.254" transform="translate(-533.04 -407.704)" fill="#364154"/>
            <path id="Trazado_601670" data-name="Trazado 601670" d="M1087.927,591.472a1.017,1.017,0,0,0,1.015-.967l1.242-25.528a1.017,1.017,0,1,0-2.031-.1l-1.242,25.528a1.016,1.016,0,0,0,.966,1.065h.05" transform="translate(-967.4 -495.375)" fill="#364154"/>
            <path id="Trazado_601671" data-name="Trazado 601671" d="M675.033,799.646l1.136-6.84a.847.847,0,0,1-.806-.845V782.7a.847.847,0,0,1,.31-.655l6.891-5.648a.847.847,0,0,1,1.074,1.31l-6.58,5.394v8.029l48.6.878,1.507-4.244a.847.847,0,1,1,1.6.567l-1.437,4.044,6.464,2.525a.847.847,0,1,1-.617,1.578l-7.088-2.769-.9-.016-4.678,6.717c-.235.338-.675.109-.655-.341l.279-6.467-38.842-.7-5.746,7.031c-.2.246-.564.043-.509-.285" transform="translate(-612.388 -678.357)" fill="#364154"/>
          </g>
        </g>
        <g id="Grupo_877149" data-name="Grupo 877149" transform="translate(0 0)">
          <g id="Grupo_877148" data-name="Grupo 877148" clip-path="url(#clip-path)">
            <path id="Trazado_601673" data-name="Trazado 601673" d="M212.7,951v3.128a1.2,1.2,0,0,1-.207.673,1.213,1.213,0,0,1-.566.451,1.125,1.125,0,0,1-.221.062,1.186,1.186,0,0,1-.212.019h-49.83a1.21,1.21,0,0,1-1.2-1.143c0-.021,0-.042,0-.062V951c0-.021,0-.041,0-.062a1.21,1.21,0,0,1,1.062-1.135,1.107,1.107,0,0,1,.143-.009H211.5a1.2,1.2,0,0,1,.212.019,1.146,1.146,0,0,1,.221.062,1.215,1.215,0,0,1,.566.451,1.2,1.2,0,0,1,.207.673" transform="translate(-138.307 -818.649)" fill="#00a3fe"/>
            <path id="Trazado_601674" data-name="Trazado 601674" d="M188.236,955.331h-26.7a1.143,1.143,0,0,1-1.075-1.144c0-.021,0-.041,0-.062V951c0-.021,0-.041,0-.062a1.163,1.163,0,0,1,.948-1.135.9.9,0,0,1,.127-.009h23.417l0,.009a9.924,9.924,0,0,0,3.276,5.531" transform="translate(-138.308 -818.649)" fill="#016eb9"/>
            <rect id="Rectángulo_293349" data-name="Rectángulo 293349" width="0.566" height="5.54" transform="translate(67.767 131.142)" fill="#016eb9"/>
            <rect id="Rectángulo_293350" data-name="Rectángulo 293350" width="0.566" height="5.54" transform="translate(65.85 131.142)" fill="#016eb9"/>
            <rect id="Rectángulo_293351" data-name="Rectángulo 293351" width="0.566" height="5.54" transform="translate(63.551 131.142)" fill="#016eb9"/>
            <rect id="Rectángulo_293352" data-name="Rectángulo 293352" width="0.566" height="5.54" transform="translate(60.028 131.142)" fill="#016eb9"/>
            <rect id="Rectángulo_293353" data-name="Rectángulo 293353" width="0.566" height="5.54" transform="translate(56.301 131.142)" fill="#016eb9"/>
            <rect id="Rectángulo_293354" data-name="Rectángulo 293354" width="0.566" height="5.54" transform="translate(50.589 131.142)" fill="#016eb9"/>
            <rect id="Rectángulo_293355" data-name="Rectángulo 293355" width="0.566" height="5.54" transform="translate(45.24 131.142)" fill="#016eb9"/>
            <rect id="Rectángulo_293356" data-name="Rectángulo 293356" width="0.566" height="5.54" transform="translate(40.464 131.142)" fill="#016eb9"/>
            <rect id="Rectángulo_293357" data-name="Rectángulo 293357" width="0.566" height="5.54" transform="translate(69.592 131.142)" fill="#016eb9"/>
            <rect id="Rectángulo_293358" data-name="Rectángulo 293358" width="0.566" height="5.54" transform="translate(70.798 131.142)" fill="#016eb9"/>
            <rect id="Rectángulo_293359" data-name="Rectángulo 293359" width="0.566" height="5.54" transform="translate(71.962 131.142)" fill="#016eb9"/>
            <path id="Trazado_601675" data-name="Trazado 601675" d="M528.088,949.808v5.5a1.2,1.2,0,0,1-.213.019h-.354v-5.54h.354a1.175,1.175,0,0,1,.213.019" transform="translate(-454.684 -818.647)" fill="#016eb9"/>
            <path id="Trazado_601676" data-name="Trazado 601676" d="M533.788,950.829V955.3a1.215,1.215,0,0,1-.566.451v-5.377a1.216,1.216,0,0,1,.566.451" transform="translate(-459.597 -819.155)" fill="#016eb9"/>
            <path id="Trazado_601677" data-name="Trazado 601677" d="M186.172,910.939v3.128a1.2,1.2,0,0,1-.207.673,1.215,1.215,0,0,1-.566.451,1.144,1.144,0,0,1-.221.062l-.07.011-.039,0-.039,0-.064,0h-49.83a1.21,1.21,0,0,1-1.2-1.144c0-.021,0-.041,0-.062v-3.128c0-.021,0-.041,0-.062s0-.034,0-.051a1.212,1.212,0,0,1,.9-1.056l.037-.009a1.208,1.208,0,0,1,.261-.029h49.83c.036,0,.073,0,.108,0l.048.005h0l.056.009a1.135,1.135,0,0,1,.221.062,1.215,1.215,0,0,1,.566.451,1.2,1.2,0,0,1,.207.673" transform="translate(-115.438 -784.122)" fill="#00a3fe"/>
            <path id="Trazado_601678" data-name="Trazado 601678" d="M161.7,915.273h-26.7a1.143,1.143,0,0,1-1.075-1.144c0-.021,0-.041,0-.062v-3.128c0-.021,0-.041,0-.062s0-.034,0-.051a1.174,1.174,0,0,1,.835-1.063.4.4,0,0,1,.046-.011.956.956,0,0,1,.191-.019h23.417c0,.013.006.026.009.039a9.914,9.914,0,0,0,3.258,5.492l.011.009" transform="translate(-115.438 -784.122)" fill="#016eb9"/>
            <rect id="Rectángulo_293360" data-name="Rectángulo 293360" width="0.566" height="5.54" transform="translate(64.104 125.611)" fill="#016eb9"/>
            <rect id="Rectángulo_293361" data-name="Rectángulo 293361" width="0.566" height="5.54" transform="translate(62.187 125.611)" fill="#016eb9"/>
            <rect id="Rectángulo_293362" data-name="Rectángulo 293362" width="0.566" height="5.54" transform="translate(59.888 125.611)" fill="#016eb9"/>
            <rect id="Rectángulo_293363" data-name="Rectángulo 293363" width="0.566" height="5.54" transform="translate(56.364 125.611)" fill="#016eb9"/>
            <rect id="Rectángulo_293364" data-name="Rectángulo 293364" width="0.566" height="5.54" transform="translate(52.638 125.611)" fill="#016eb9"/>
            <rect id="Rectángulo_293365" data-name="Rectángulo 293365" width="0.566" height="5.54" transform="translate(46.925 125.611)" fill="#016eb9"/>
            <rect id="Rectángulo_293366" data-name="Rectángulo 293366" width="0.566" height="5.54" transform="translate(41.577 125.611)" fill="#016eb9"/>
            <rect id="Rectángulo_293367" data-name="Rectángulo 293367" width="0.566" height="5.54" transform="translate(36.801 125.611)" fill="#016eb9"/>
            <rect id="Rectángulo_293368" data-name="Rectángulo 293368" width="0.566" height="5.54" transform="translate(65.929 125.611)" fill="#016eb9"/>
            <rect id="Rectángulo_293369" data-name="Rectángulo 293369" width="0.566" height="5.54" transform="translate(67.134 125.611)" fill="#016eb9"/>
            <rect id="Rectángulo_293370" data-name="Rectángulo 293370" width="0.566" height="5.54" transform="translate(68.298 125.611)" fill="#016eb9"/>
            <path id="Trazado_601679" data-name="Trazado 601679" d="M501.555,909.751v5.5a1.175,1.175,0,0,1-.213.019h-.354v-5.54h.354a1.186,1.186,0,0,1,.213.02" transform="translate(-431.814 -784.121)" fill="#016eb9"/>
            <path id="Trazado_601680" data-name="Trazado 601680" d="M507.255,910.772v4.475a1.214,1.214,0,0,1-.566.451v-5.377a1.214,1.214,0,0,1,.566.451" transform="translate(-436.728 -784.629)" fill="#016eb9"/>
            <path id="Trazado_601681" data-name="Trazado 601681" d="M185.414,871.1v3.128a1.2,1.2,0,0,1-.207.673,1.215,1.215,0,0,1-.566.451,1.077,1.077,0,0,1-.172.052h0l-.047.01a1.175,1.175,0,0,1-.213.019h-49.83a1.123,1.123,0,0,1-.156-.011.59.59,0,0,1-.059-.01,1.209,1.209,0,0,1-.989-1.123c0-.021,0-.042,0-.062V871.1c0-.021,0-.041,0-.062a1.21,1.21,0,0,1,1.2-1.144h49.83c.032,0,.064,0,.1,0l.041,0,.045.006.032.005a1.114,1.114,0,0,1,.221.062l.031.013.031.013.061.029c.022.012.044.024.065.037l.057.036c.021.015.042.03.062.046s.031.025.047.038l0,0,.031.027a1.125,1.125,0,0,1,.087.09l.024.028.023.029c.015.02.031.041.045.061a1.2,1.2,0,0,1,.207.673" transform="translate(-114.785 -749.787)" fill="#00a3fe"/>
            <path id="Trazado_601682" data-name="Trazado 601682" d="M160.945,875.437h-26.7l-.063,0c-.023,0-.046,0-.069-.007a1.162,1.162,0,0,1-.943-1.134c0-.021,0-.041,0-.062V871.1c0-.021,0-.041,0-.062a1.143,1.143,0,0,1,1.075-1.144h23.417c.011.045.021.091.033.137a9.893,9.893,0,0,0,3.2,5.364l.048.039" transform="translate(-114.785 -749.786)" fill="#016eb9"/>
            <rect id="Rectángulo_293371" data-name="Rectángulo 293371" width="0.566" height="5.54" transform="translate(63.999 120.111)" fill="#016eb9"/>
            <rect id="Rectángulo_293372" data-name="Rectángulo 293372" width="0.566" height="5.54" transform="translate(62.082 120.111)" fill="#016eb9"/>
            <rect id="Rectángulo_293373" data-name="Rectángulo 293373" width="0.566" height="5.54" transform="translate(59.783 120.111)" fill="#016eb9"/>
            <rect id="Rectángulo_293374" data-name="Rectángulo 293374" width="0.566" height="5.54" transform="translate(56.259 120.111)" fill="#016eb9"/>
            <rect id="Rectángulo_293375" data-name="Rectángulo 293375" width="0.566" height="5.54" transform="translate(52.533 120.111)" fill="#016eb9"/>
            <rect id="Rectángulo_293376" data-name="Rectángulo 293376" width="0.566" height="5.54" transform="translate(46.821 120.111)" fill="#016eb9"/>
            <rect id="Rectángulo_293377" data-name="Rectángulo 293377" width="0.566" height="5.54" transform="translate(41.472 120.111)" fill="#016eb9"/>
            <rect id="Rectángulo_293378" data-name="Rectángulo 293378" width="0.566" height="5.54" transform="translate(36.696 120.111)" fill="#016eb9"/>
            <rect id="Rectángulo_293379" data-name="Rectángulo 293379" width="0.566" height="5.54" transform="translate(65.824 120.111)" fill="#016eb9"/>
            <rect id="Rectángulo_293380" data-name="Rectángulo 293380" width="0.566" height="5.54" transform="translate(67.029 120.111)" fill="#016eb9"/>
            <rect id="Rectángulo_293381" data-name="Rectángulo 293381" width="0.566" height="5.54" transform="translate(68.194 120.111)" fill="#016eb9"/>
            <path id="Trazado_601683" data-name="Trazado 601683" d="M500.8,869.917v5.5a1.177,1.177,0,0,1-.213.019h-.354V869.9h.354a1.188,1.188,0,0,1,.213.019" transform="translate(-431.161 -749.787)" fill="#016eb9"/>
            <path id="Trazado_601684" data-name="Trazado 601684" d="M506.5,870.938v4.475a1.213,1.213,0,0,1-.566.451v-5.377a1.215,1.215,0,0,1,.566.451" transform="translate(-436.075 -750.295)" fill="#016eb9"/>
            <path id="Trazado_601685" data-name="Trazado 601685" d="M204.06,831.973V835.1a1.194,1.194,0,0,1-.207.673,1.214,1.214,0,0,1-.566.451,1.117,1.117,0,0,1-.221.062,1.17,1.17,0,0,1-.212.019h-49.83a1.2,1.2,0,0,1-.556-.137,1.212,1.212,0,0,1-.645-.953c0-.018,0-.036,0-.054s0-.041,0-.062v-3.128c0-.021,0-.042,0-.062a1.21,1.21,0,0,1,1.2-1.144h49.83a1.181,1.181,0,0,1,.212.019,1.139,1.139,0,0,1,.221.062,1.214,1.214,0,0,1,.566.451,1.2,1.2,0,0,1,.207.673" transform="translate(-130.857 -716.059)" fill="#00a3fe"/>
            <path id="Trazado_601686" data-name="Trazado 601686" d="M179.591,836.307H152.9a.973.973,0,0,1-.5-.137,1.219,1.219,0,0,1-.575-.953c0-.018,0-.036,0-.054s0-.041,0-.062v-3.128c0-.021,0-.042,0-.062a1.143,1.143,0,0,1,1.075-1.144h23.417a9.991,9.991,0,0,0,3.114,5.4c.054.046.109.091.164.137" transform="translate(-130.857 -716.059)" fill="#016eb9"/>
            <rect id="Rectángulo_293382" data-name="Rectángulo 293382" width="0.566" height="5.54" transform="translate(66.574 114.708)" fill="#016eb9"/>
            <rect id="Rectángulo_293383" data-name="Rectángulo 293383" width="0.566" height="5.54" transform="translate(64.657 114.708)" fill="#016eb9"/>
            <rect id="Rectángulo_293384" data-name="Rectángulo 293384" width="0.566" height="5.54" transform="translate(62.358 114.708)" fill="#016eb9"/>
            <rect id="Rectángulo_293385" data-name="Rectángulo 293385" width="0.566" height="5.54" transform="translate(58.834 114.708)" fill="#016eb9"/>
            <rect id="Rectángulo_293386" data-name="Rectángulo 293386" width="0.566" height="5.54" transform="translate(55.108 114.708)" fill="#016eb9"/>
            <rect id="Rectángulo_293387" data-name="Rectángulo 293387" width="0.566" height="5.54" transform="translate(49.395 114.708)" fill="#016eb9"/>
            <rect id="Rectángulo_293388" data-name="Rectángulo 293388" width="0.566" height="5.54" transform="translate(44.047 114.708)" fill="#016eb9"/>
            <rect id="Rectángulo_293389" data-name="Rectángulo 293389" width="0.566" height="5.54" transform="translate(39.271 114.708)" fill="#016eb9"/>
            <rect id="Rectángulo_293390" data-name="Rectángulo 293390" width="0.566" height="5.54" transform="translate(68.398 114.708)" fill="#016eb9"/>
            <rect id="Rectángulo_293391" data-name="Rectángulo 293391" width="0.566" height="5.54" transform="translate(69.604 114.708)" fill="#016eb9"/>
            <rect id="Rectángulo_293392" data-name="Rectángulo 293392" width="0.566" height="5.54" transform="translate(70.768 114.708)" fill="#016eb9"/>
            <path id="Trazado_601687" data-name="Trazado 601687" d="M519.444,830.787v5.5a1.16,1.16,0,0,1-.213.02h-.354v-5.54h.354a1.182,1.182,0,0,1,.213.019" transform="translate(-447.233 -716.06)" fill="#016eb9"/>
            <path id="Trazado_601688" data-name="Trazado 601688" d="M525.144,831.808v4.475a1.215,1.215,0,0,1-.566.451v-5.377a1.214,1.214,0,0,1,.566.451" transform="translate(-452.147 -716.568)" fill="#016eb9"/>
            <path id="Trazado_601689" data-name="Trazado 601689" d="M1418.451,164.775V151.307a3.836,3.836,0,0,1,3.836-3.836h14.067a3.836,3.836,0,0,1,3.836,3.836v14.067a3.836,3.836,0,0,1-3.836,3.836h-12.348l-6.373,1.415a.6.6,0,0,1-.7-.734Z" transform="translate(-1221.278 -127.109)" fill="#3185af"/>
            <path id="Trazado_601690" data-name="Trazado 601690" d="M1482.188,183.906a8.453,8.453,0,0,1-.851-.04,7.216,7.216,0,0,1-.764-.119,6.072,6.072,0,0,1-.74-.207q-.366-.127-.8-.3a8.374,8.374,0,0,1,.215-1.161q.151-.588.374-1.257a9.177,9.177,0,0,0,1.352.469,4.767,4.767,0,0,0,1.161.151,2.363,2.363,0,0,0,1.225-.263.891.891,0,0,0,.429-.819.866.866,0,0,0-.374-.755,4.728,4.728,0,0,0-.915-.485l-.843-.35a8.027,8.027,0,0,1-.907-.461,2.984,2.984,0,0,1-.74-.612,2.759,2.759,0,0,1-.493-.843,3.27,3.27,0,0,1-.183-1.153,3.2,3.2,0,0,1,.755-2.235,3.563,3.563,0,0,1,2.092-1.074v-1.432a2.481,2.481,0,0,1,.509-.1q.254-.024.43-.024c.116,0,.262.008.437.024a2.22,2.22,0,0,1,.5.1v1.384a8.45,8.45,0,0,1,1.121.207q.565.143,1.2.366a7.36,7.36,0,0,1-.652,2.259,9.408,9.408,0,0,0-1.066-.4,4.771,4.771,0,0,0-1.352-.159,3.4,3.4,0,0,0-.406.024,1.057,1.057,0,0,0-.366.111.74.74,0,0,0-.27.239.708.708,0,0,0-.1.406.791.791,0,0,0,.326.692,3.107,3.107,0,0,0,.708.374l.891.334a8.992,8.992,0,0,1,1.018.461,3.327,3.327,0,0,1,.843.636,2.785,2.785,0,0,1,.581.938,3.819,3.819,0,0,1,.215,1.368,3.581,3.581,0,0,1-.692,2.211,3.623,3.623,0,0,1-2,1.288v1.877a2.229,2.229,0,0,1-.5.1c-.175.016-.321.024-.437.024s-.26-.008-.43-.024a2.491,2.491,0,0,1-.509-.1Z" transform="translate(-1274.82 -147.244)" fill="#fff"/>
            <path id="Trazado_601691" data-name="Trazado 601691" d="M268.658,986.772H37.382a.37.37,0,0,1,0-.735H268.658a.37.37,0,0,1,0,.735" transform="translate(-31.934 -849.89)" fill="#131f2d"/>
            <path id="Trazado_601692" data-name="Trazado 601692" d="M1092.459,219.783l-14.3,2.551,9.309-6.833.558,2.067,3.517.511Z" transform="translate(-929.293 -185.746)" fill="#016eb9"/>
            <path id="Trazado_601693" data-name="Trazado 601693" d="M1078.161,217.66l11.743-6.583,11.7-1Z" transform="translate(-929.294 -181.072)" fill="#00a3fe"/>
            <path id="Trazado_601694" data-name="Trazado 601694" d="M1087.47,193.133l-9.309,6.833,7.028-10.416Z" transform="translate(-929.294 -163.377)" fill="#00a3fe"/>
          </g>
        </g>
      </g>
    </g>
    <g id="Grupo_874344" data-name="Grupo 874344" transform="translate(627.557 4042)">
      <g id="Grupo_151688" data-name="Grupo 151688" transform="translate(0 7.064)">
        <path id="Trazado_212295" data-name="Trazado 212295" d="M-11425.02-11468v14.128" transform="translate(11432.083 11467.998)" fill="none" stroke="#26779f" stroke-width="4"/>
        <path id="Trazado_212296" data-name="Trazado 212296" d="M0,0V14.127" transform="translate(14.127 7.064) rotate(90)" fill="none" stroke="#26779f" stroke-width="4"/>
      </g>
      <g id="Grupo_151689" data-name="Grupo 151689" transform="translate(18.366)">
        <path id="Trazado_212295-2" data-name="Trazado 212295" d="M-11425.02-11468v14.128" transform="translate(11432.083 11467.998)" fill="none" stroke="#26779f" stroke-width="4"/>
        <path id="Trazado_212296-2" data-name="Trazado 212296" d="M0,0V14.127" transform="translate(14.127 7.064) rotate(90)" fill="none" stroke="#26779f" stroke-width="4"/>
      </g>
      <g id="Grupo_151690" data-name="Grupo 151690" transform="translate(21.427 21.191)">
        <path id="Trazado_212295-3" data-name="Trazado 212295" d="M-11425.02-11468v14.128" transform="translate(11432.083 11467.998)" fill="none" stroke="#26779f" stroke-width="4"/>
        <path id="Trazado_212296-3" data-name="Trazado 212296" d="M0,0V14.127" transform="translate(14.127 7.064) rotate(90)" fill="none" stroke="#26779f" stroke-width="4"/>
      </g>
    </g>
    <g id="Grupo_874345" data-name="Grupo 874345" transform="translate(374 4017)">
      <g id="Grupo_151688-2" data-name="Grupo 151688" transform="translate(0 7.064)">
        <path id="Trazado_212295-4" data-name="Trazado 212295" d="M-11425.02-11468v14.128" transform="translate(11432.083 11467.998)" fill="none" stroke="#f3ab1d" stroke-width="4"/>
        <path id="Trazado_212296-4" data-name="Trazado 212296" d="M0,0V14.127" transform="translate(14.127 7.064) rotate(90)" fill="none" stroke="#f3ab1d" stroke-width="4"/>
      </g>
      <g id="Grupo_151689-2" data-name="Grupo 151689" transform="translate(18.366)">
        <path id="Trazado_212295-5" data-name="Trazado 212295" d="M-11425.02-11468v14.128" transform="translate(11432.083 11467.998)" fill="none" stroke="#f3ab1d" stroke-width="4"/>
        <path id="Trazado_212296-5" data-name="Trazado 212296" d="M0,0V14.127" transform="translate(14.127 7.064) rotate(90)" fill="none" stroke="#f3ab1d" stroke-width="4"/>
      </g>
      <g id="Grupo_151690-2" data-name="Grupo 151690" transform="translate(21.427 21.191)">
        <path id="Trazado_212295-6" data-name="Trazado 212295" d="M-11425.02-11468v14.128" transform="translate(11432.083 11467.998)" fill="none" stroke="#f3ab1d" stroke-width="4"/>
        <path id="Trazado_212296-6" data-name="Trazado 212296" d="M0,0V14.127" transform="translate(14.127 7.064) rotate(90)" fill="none" stroke="#f3ab1d" stroke-width="4"/>
      </g>
    </g>
    <rect id="Rectángulo_293395" data-name="Rectángulo 293395" width="350" height="151" transform="translate(335 3988)" fill="none"/>
  </g>
</svg>
