<svg xmlns="http://www.w3.org/2000/svg" xmlns:xlink="http://www.w3.org/1999/xlink" width="230" height="69" viewBox="0 0 230 69">
  <defs>
    <clipPath id="clip-path">
      <rect id="Rectángulo_293579" data-name="Rectángulo 293579" width="71" height="46.414" transform="translate(0 0)" fill="none"/>
    </clipPath>
  </defs>
  <g id="Grupo_877537" data-name="Grupo 877537" transform="translate(2737 7608)">
    <path id="Trazado_602647" data-name="Trazado 602647" d="M0,0H230V69H0Z" transform="translate(-2737 -7608)" fill="#fff"/>
    <g id="Grupo_877155" data-name="Grupo 877155" transform="translate(-2531.044 -7604)">
      <g id="Grupo_151688" data-name="Grupo 151688" transform="translate(0 3.783)">
        <path id="Trazado_212295" data-name="Trazado 212295" d="M-11425.02-11468v7.567" transform="translate(11428.803 11467.998)" fill="none" stroke="#f3ab1d" stroke-width="2"/>
        <path id="Trazado_212296" data-name="Trazado 212296" d="M0,0V7.567" transform="translate(7.567 3.783) rotate(90)" fill="none" stroke="#f3ab1d" stroke-width="2"/>
      </g>
      <g id="Grupo_151689" data-name="Grupo 151689" transform="translate(9.837)">
        <path id="Trazado_212295-2" data-name="Trazado 212295" d="M-11425.02-11468v7.567" transform="translate(11428.803 11467.998)" fill="none" stroke="#f3ab1d" stroke-width="2"/>
        <path id="Trazado_212296-2" data-name="Trazado 212296" d="M0,0V7.567" transform="translate(7.567 3.783) rotate(90)" fill="none" stroke="#f3ab1d" stroke-width="2"/>
      </g>
      <g id="Grupo_151690" data-name="Grupo 151690" transform="translate(11.477 11.35)">
        <path id="Trazado_212295-3" data-name="Trazado 212295" d="M-11425.02-11468v7.567" transform="translate(11428.803 11467.998)" fill="none" stroke="#f3ab1d" stroke-width="2"/>
        <path id="Trazado_212296-3" data-name="Trazado 212296" d="M0,0V7.567" transform="translate(7.567 3.783) rotate(90)" fill="none" stroke="#f3ab1d" stroke-width="2"/>
      </g>
    </g>
    <g id="Grupo_877156" data-name="Grupo 877156" transform="translate(-2713.957 -7542.802) rotate(180)">
      <g id="Grupo_151688-2" data-name="Grupo 151688" transform="translate(0 3.783)">
        <path id="Trazado_212295-4" data-name="Trazado 212295" d="M-11425.02-11468v7.567" transform="translate(11428.803 11467.998)" fill="none" stroke="#5ad1a5" stroke-width="2"/>
        <path id="Trazado_212296-4" data-name="Trazado 212296" d="M0,0V7.567" transform="translate(7.567 3.783) rotate(90)" fill="none" stroke="#5ad1a5" stroke-width="2"/>
      </g>
      <g id="Grupo_151689-2" data-name="Grupo 151689" transform="translate(9.837)">
        <path id="Trazado_212295-5" data-name="Trazado 212295" d="M-11425.02-11468v7.567" transform="translate(11428.803 11467.998)" fill="none" stroke="#5ad1a5" stroke-width="2"/>
        <path id="Trazado_212296-5" data-name="Trazado 212296" d="M0,0V7.567" transform="translate(7.567 3.783) rotate(90)" fill="none" stroke="#5ad1a5" stroke-width="2"/>
      </g>
      <g id="Grupo_151690-2" data-name="Grupo 151690" transform="translate(11.477 11.35)">
        <path id="Trazado_212295-6" data-name="Trazado 212295" d="M-11425.02-11468v7.567" transform="translate(11428.803 11467.998)" fill="none" stroke="#5ad1a5" stroke-width="2"/>
        <path id="Trazado_212296-6" data-name="Trazado 212296" d="M0,0V7.567" transform="translate(7.567 3.783) rotate(90)" fill="none" stroke="#5ad1a5" stroke-width="2"/>
      </g>
    </g>
    <g id="Grupo_877333" data-name="Grupo 877333" transform="translate(-2657 -7597)">
      <g id="Grupo_877334" data-name="Grupo 877334">
        <g id="Grupo_877333-2" data-name="Grupo 877333" clip-path="url(#clip-path)">
          <path id="Trazado_601994" data-name="Trazado 601994" d="M6.669,9.209H4.335v5.2H1.4V.195H6.689a5.969,5.969,0,0,1,3.886,1.123,3.875,3.875,0,0,1,1.367,3.174,4.381,4.381,0,0,1-.629,2.427A4.3,4.3,0,0,1,9.4,8.467l3.077,5.81v.137H9.335ZM4.335,6.836H6.7a2.417,2.417,0,0,0,1.709-.562,2,2,0,0,0,.606-1.547,2.146,2.146,0,0,0-.572-1.582,2.372,2.372,0,0,0-1.752-.577H4.335Z" fill="#3185af"/>
          <path id="Trazado_601995" data-name="Trazado 601995" d="M21.21,5.015l-3.066-.868.576-1.766L21.757,3.6,21.562.2h1.914l-.2,3.472,2.959-1.2.576,1.785-3.125.868,2.051,2.6-1.552,1.1L22.411,5.972,20.653,8.726,19.1,7.671Z" fill="#3185af"/>
          <rect id="Rectángulo_293578" data-name="Rectángulo 293578" width="2.93" height="14.219" transform="translate(33.378 0.195)" fill="#3185af"/>
          <path id="Trazado_601996" data-name="Trazado 601996" d="M46.064,5.015,43,4.147l.576-1.766L46.611,3.6,46.416.2H48.33l-.2,3.472,2.959-1.2.576,1.785-3.125.868,2.051,2.6-1.552,1.1L47.265,5.972,45.507,8.726,43.955,7.671Z" fill="#3185af"/>
          <path id="Trazado_601997" data-name="Trazado 601997" d="M69.208,9.678a5.031,5.031,0,0,1-1.694,3.613,5.952,5.952,0,0,1-4.029,1.319,5.351,5.351,0,0,1-4.3-1.841,7.55,7.55,0,0,1-1.568-5.054V6.846a8.52,8.52,0,0,1,.723-3.613A5.419,5.419,0,0,1,60.4.835a6.453,6.453,0,0,1,7.085.484,5.408,5.408,0,0,1,1.739,3.7H66.3a2.968,2.968,0,0,0-.767-2,2.839,2.839,0,0,0-2.007-.62,2.488,2.488,0,0,0-2.192,1.049,5.888,5.888,0,0,0-.747,3.257V7.783a6.3,6.3,0,0,0,.7,3.37,2.443,2.443,0,0,0,2.2,1.064,2.9,2.9,0,0,0,2.027-.62,2.8,2.8,0,0,0,.766-1.919Z" fill="#3185af"/>
        </g>
      </g>
      <path id="Trazado_601998" data-name="Trazado 601998" d="M32.644,32.2V46.414h9.531V44.061h-6.6V40.233H41.2V37.957H35.573V34.568h6.582V32.2Z" fill="#3185af"/>
      <rect id="Rectángulo_293580" data-name="Rectángulo 293580" width="71" height="2" transform="translate(0 21.415)" fill="#3185af"/>
    </g>
  </g>
</svg>
