<svg xmlns="http://www.w3.org/2000/svg" xmlns:xlink="http://www.w3.org/1999/xlink" width="505" height="753" viewBox="0 0 505 753">
  <defs>
    <clipPath id="clip-path">
      <rect id="Rectángulo_293095" data-name="Rectángulo 293095" width="344.96" height="195.895" fill="#f4f8e7"/>
    </clipPath>
  </defs>
  <g id="Grupo_877530" data-name="Grupo 877530" transform="translate(8948 1744)">
    <path id="Trazado_602608" data-name="Trazado 602608" d="M0,0H505V753H0Z" transform="translate(-8948 -1744)" fill="#fff"/>
    <g id="Enmascarar_grupo_877026" data-name="Enmascarar grupo 877026" transform="translate(-8918.625 -1222.381)" clip-path="url(#clip-path)">
      <path id="Trazado_601090" data-name="Trazado 601090" d="M308.122,195.292s40.938-49.314,20.931-100.083c-13.041-33.092-61.961-51.225-89.569-33.092C227.725,69.84,190,62.378,169.858,30.4c-39.142-62.133-175.75-24.4-150.88,71C31.013,147.566-17.65,149.244,7.146,195.39Z" transform="translate(10.4 0.004)" fill="#eff2f8"/>
      <path id="Trazado_601091" data-name="Trazado 601091" d="M473.276,865.6s4.129-4.817.255-7.876c0,0-2.83-1.713-5.137-1.574,0,0,3.27,5.483,2.212,6.028s-3.2-6.372-3.2-6.372-6.44-.624-8.511.372c0,0,5.505,4.505,4.346,4.773s-7.106-4.154-7.106-4.154-5.994,1.02-5.674,4.676,2.385,4.785,3.293,4.688,6.217-2.124,6.333-1.38-3.081,3.174-5.319,3.288c0,0,4.226,4.66,7.034,3.315s3.048-3.477,4.8-4.277,3.245-.8,2.522.018-3.891,1.608-4.892,3.379-1.9,2.965,1.006,2.528,7.629-2.563,7.836-5Z" transform="translate(-185.057 -751.461)" fill="#c8dbf4"/>
      <path id="Trazado_601092" data-name="Trazado 601092" d="M436.394,904.362s16.279-.627,19.874,4.029a11.776,11.776,0,0,0,3.242,4.549l.381,1.039s-2.821-2.974-3.83-3.154c0,0,1.579-5.768-19.667-6.463" transform="translate(-168.05 -794.256)" fill="#c8dbf4"/>
      <path id="Trazado_601093" data-name="Trazado 601093" d="M409.746,972.081a10.223,10.223,0,0,1,3.737,7.2l-.634.057s-1.116-4.774-3.133-6.641.03-.617.03-.617" transform="translate(-118.286 -853.397)" fill="#c8dbf4"/>
      <path id="Trazado_601094" data-name="Trazado 601094" d="M153.965,765.175s-6.568-3.678-3.5-8.669c0,0,2.452-3.065,5.079-3.853,0,0-1.4,7.443,0,7.619s.963-8.407.963-8.407,6.918-3.328,9.633-3.065c0,0-4.291,7.268-2.89,7.093s6.217-7.531,6.217-7.531,7.093-1.313,8.232,2.89-.7,6.305-1.751,6.568-7.794.175-7.619,1.051,4.729,2.277,7.268,1.489c0,0-2.8,6.918-6.48,6.568s-4.816-2.627-7.093-2.8-3.941.438-2.8,1.051,4.991.2,6.831,1.764,3.328,2.527-.088,3.227-9.545.263-10.771-2.364Z" transform="translate(148.689 -657.098)" fill="#c8dbf4"/>
      <path id="Trazado_601095" data-name="Trazado 601095" d="M201.46,784.3s-18.39,5.955-20.492,12.61a13.972,13.972,0,0,1-1.751,6.393v1.314s1.926-4.466,2.977-5.079c0,0-4.116-5.78,19.265-15.237" transform="translate(121.685 -688.829)" fill="#c8dbf4"/>
      <path id="Trazado_601096" data-name="Trazado 601096" d="M356.451,934.515a12.129,12.129,0,0,0-1.219,9.549l.73-.2s-.708-5.774.775-8.678-.286-.675-.286-.675" transform="translate(-55.549 -820.046)" fill="#c8dbf4"/>
      <path id="Trazado_601097" data-name="Trazado 601097" d="M418.4,684.455s8.658-4.848,4.617-11.428c0,0-3.232-4.04-6.7-5.079,0,0,1.847,9.812,0,10.043s-1.27-11.082-1.27-11.082-9.119-4.387-12.7-4.04c0,0,5.656,9.581,3.809,9.35s-8.2-9.927-8.2-9.927-9.35-1.732-10.851,3.809.923,8.311,2.309,8.658,10.274.231,10.043,1.385-6.233,3-9.581,1.962c0,0,3.694,9.12,8.542,8.658s6.349-3.463,9.35-3.694,5.195.577,3.694,1.385-6.58.265-9,2.326-4.387,3.331.115,4.254,12.582.346,14.2-3.117Z" transform="translate(-126.198 -581.45)" fill="#d4e4f8"/>
      <path id="Trazado_601098" data-name="Trazado 601098" d="M414.439,709.66s24.241,7.85,27.012,16.623a18.417,18.417,0,0,0,2.309,8.427v1.732s-2.54-5.887-3.925-6.7c0,0,5.425-7.619-25.4-20.086" transform="translate(-149.246 -623.278)" fill="#d4e4f8"/>
      <path id="Trazado_601099" data-name="Trazado 601099" d="M397,907.676a15.988,15.988,0,0,1,1.607,12.587l-.962-.258s.934-7.611-1.022-11.439.377-.889.377-.889" transform="translate(-102.485 -796.245)" fill="#d4e4f8"/>
      <path id="Trazado_601100" data-name="Trazado 601100" d="M308.643,1019.61a16.959,16.959,0,0,1-16.959-16.959H325.6a16.959,16.959,0,0,1-16.959,16.959" transform="translate(-16.146 -880.606)" fill="#d4e4f8"/>
      <path id="Trazado_601101" data-name="Trazado 601101" d="M289.761,1133.969h34.386a2.092,2.092,0,0,0-2.092-2.092h-30.2a2.092,2.092,0,0,0-2.092,2.092Z" transform="translate(-14.457 -994.102)" fill="#d4e4f8"/>
      <rect id="Rectángulo_293088" data-name="Rectángulo 293088" width="34.861" height="0.52" transform="translate(275.152 122.045)" fill="#9fc1f4"/>
      <path id="Trazado_601102" data-name="Trazado 601102" d="M1090.977,1263.338h-.084a1.138,1.138,0,0,1-1.15-1.217l4.571-45.654,3.989.356-6.564,45.9a.742.742,0,0,1-.762.617" transform="translate(-885.989 -1068.394)" fill="#8cb4f4"/>
      <path id="Trazado_601103" data-name="Trazado 601103" d="M785.45,1263.338h.084a1.138,1.138,0,0,0,1.15-1.217l-4.571-45.654-3.989.356,6.564,45.9a.742.742,0,0,0,.762.617" transform="translate(-536.444 -1068.394)" fill="#8cb4f4"/>
      <path id="Trazado_601104" data-name="Trazado 601104" d="M1355.927,1263.338h-.084a1.138,1.138,0,0,1-1.15-1.217l4.572-45.654,3.989.356-6.564,45.9a.742.742,0,0,1-.762.617" transform="translate(-1183.189 -1068.394)" fill="#8cb4f4"/>
      <path id="Trazado_601105" data-name="Trazado 601105" d="M771.877,798.774l8.115-40.071c1.041-5.425-3.454-10.387-9.292-10.253l-15.649.357a12.362,12.362,0,0,0-11.593,8.924l-11.872,41.043Z" transform="translate(-524.232 -657.344)" fill="#8cb4f4"/>
      <path id="Trazado_601106" data-name="Trazado 601106" d="M812.208,798.774l8.114-40.071c1.042-5.425-3.454-10.387-9.291-10.253l-15.649.357a12.362,12.362,0,0,0-11.593,8.924l-11.872,41.043Z" transform="translate(-569.472 -657.344)" fill="#8cb4f4"/>
      <path id="Trazado_601107" data-name="Trazado 601107" d="M863.664,1169.214H801.749a2.268,2.268,0,0,1-2.262-2.261v-2.785a2.268,2.268,0,0,1,2.262-2.262h64.176v5.047a2.268,2.268,0,0,1-2.261,2.261" transform="translate(-618.28 -1020.476)" fill="#8cb4f4"/>
      <path id="Trazado_601108" data-name="Trazado 601108" d="M1083.09,1169.214h-39.469a1.827,1.827,0,0,1-1.822-1.822v-3.665a1.827,1.827,0,0,1,1.822-1.822h39.469a1.827,1.827,0,0,1,1.822,1.822v3.665a1.827,1.827,0,0,1-1.822,1.822" transform="translate(-866.762 -1020.476)" fill="#8cb4f4"/>
      <path id="Trazado_601109" data-name="Trazado 601109" d="M232.207,1151.345v1.367c0,.479.155.87.344.87H282.44c.189,0,.344-.391.344-.87v-1.367c0-.478-.155-.87-.344-.87H232.551c-.189,0-.344.392-.344.87" transform="translate(33.912 -1010.437)" fill="#9abfe2"/>
      <path id="Trazado_601110" data-name="Trazado 601110" d="M317.146,1151.345v1.367c0,.479.142.87.316.87h39.606c.173,0,.316-.391.316-.87v-1.367c0-.478-.142-.87-.316-.87H317.462c-.173,0-.316.392-.316.87" transform="translate(-51.027 -1010.437)" fill="#bad4f4"/>
      <rect id="Rectángulo_293089" data-name="Rectángulo 293089" width="35.418" height="51.623" transform="translate(278.745 143.145)" fill="#c8dbf4"/>
      <rect id="Rectángulo_293090" data-name="Rectángulo 293090" width="35.418" height="51.623" transform="translate(268.82 143.145)" fill="#dfebfd"/>
      <path id="Trazado_601111" data-name="Trazado 601111" d="M350.189,1235.291H381.8v-47.315H350.189Zm31.27-.342H350.53v-46.632h30.929Z" transform="translate(-79.466 -1043.373)" fill="#b7d3f3"/>
      <rect id="Rectángulo_293091" data-name="Rectángulo 293091" width="31.27" height="0.341" transform="translate(270.893 160.255)" fill="#b7d3f3"/>
      <rect id="Rectángulo_293092" data-name="Rectángulo 293092" width="31.27" height="0.341" transform="translate(270.893 176.212)" fill="#b7d3f3"/>
      <path id="Trazado_601112" data-name="Trazado 601112" d="M455,1205.657h5.8a.512.512,0,0,0,0-1.024H455a.512.512,0,0,0,0,1.024" transform="translate(-171.675 -1058.002)" fill="#b7d3f3"/>
      <path id="Trazado_601113" data-name="Trazado 601113" d="M455,1333.853h5.8a.512.512,0,0,0,0-1.024H455a.512.512,0,0,0,0,1.024" transform="translate(-171.675 -1170.594)" fill="#b7d3f3"/>
      <path id="Trazado_601114" data-name="Trazado 601114" d="M455,1467.49h5.8a.512.512,0,0,0,0-1.024H455a.512.512,0,0,0,0,1.024" transform="translate(-171.675 -1287.964)" fill="#b7d3f3"/>
      <path id="Trazado_601115" data-name="Trazado 601115" d="M1592.774,240.088h31.3a2.62,2.62,0,0,0,2.612-2.613V207.262a2.62,2.62,0,0,0-2.612-2.613h-31.3a2.621,2.621,0,0,0-2.613,2.613v30.213a2.621,2.621,0,0,0,2.613,2.613" transform="translate(-1455.191 -171.566)" fill="#c0d8fb"/>
      <path id="Trazado_601116" data-name="Trazado 601116" d="M1601.87,246.063h28.591a2.394,2.394,0,0,0,2.387-2.386v-27.6a2.394,2.394,0,0,0-2.387-2.386H1601.87a2.394,2.394,0,0,0-2.386,2.386v27.6a2.394,2.394,0,0,0,2.386,2.386" transform="translate(-1462.931 -179.077)" fill="#dfebfd"/>
      <path id="Trazado_601117" data-name="Trazado 601117" d="M1694.828,229.05a.757.757,0,1,0-.756.757.756.756,0,0,0,.756-.757" transform="translate(-1540.837 -191.197)" fill="#b7d3f3"/>
      <path id="Trazado_601118" data-name="Trazado 601118" d="M1730.144,237.148a.757.757,0,1,0-.294,1.029.757.757,0,0,0,.294-1.029" transform="translate(-1582.258 -198.226)" fill="#b7d3f3"/>
      <path id="Trazado_601119" data-name="Trazado 601119" d="M1759.234,262.946a.757.757,0,1,0,.226,1.046.757.757,0,0,0-.226-1.046" transform="translate(-1616.578 -219.869)" fill="#b7d3f3"/>
      <path id="Trazado_601120" data-name="Trazado 601120" d="M1771.672,301.436a.757.757,0,1,0,.757.757.756.756,0,0,0-.757-.757" transform="translate(-1631.607 -251.926)" fill="#b7d3f3"/>
      <path id="Trazado_601121" data-name="Trazado 601121" d="M1760.19,344.334a.757.757,0,1,0,1.07,0,.757.757,0,0,0-1.07,0" transform="translate(-1618.802 -287.359)" fill="#b7d3f3"/>
      <path id="Trazado_601122" data-name="Trazado 601122" d="M1732.194,372.4a.757.757,0,1,0,1.071,0,.756.756,0,0,0-1.071,0" transform="translate(-1586.055 -310.663)" fill="#b7d3f3"/>
      <path id="Trazado_601123" data-name="Trazado 601123" d="M1694.828,384.252a.757.757,0,1,0-.756.757.757.757,0,0,0,.756-.757" transform="translate(-1540.837 -320.058)" fill="#b7d3f3"/>
      <path id="Trazado_601124" data-name="Trazado 601124" d="M1657.854,237.148a.757.757,0,1,1,.294,1.029.757.757,0,0,1-.294-1.029" transform="translate(-1499.245 -198.226)" fill="#b7d3f3"/>
      <path id="Trazado_601125" data-name="Trazado 601125" d="M1628.766,262.946a.757.757,0,1,1-.226,1.046.756.756,0,0,1,.226-1.046" transform="translate(-1464.926 -219.869)" fill="#b7d3f3"/>
      <path id="Trazado_601126" data-name="Trazado 601126" d="M1616.326,301.436a.757.757,0,1,1-.756.757.757.757,0,0,1,.756-.757" transform="translate(-1449.896 -251.926)" fill="#b7d3f3"/>
      <path id="Trazado_601127" data-name="Trazado 601127" d="M1627.809,344.334a.757.757,0,1,1-1.07,0,.757.757,0,0,1,1.07,0" transform="translate(-1462.702 -287.359)" fill="#b7d3f3"/>
      <path id="Trazado_601128" data-name="Trazado 601128" d="M1655.8,372.4a.757.757,0,1,1-1.07,0,.757.757,0,0,1,1.07,0" transform="translate(-1495.45 -310.663)" fill="#b7d3f3"/>
      <path id="Trazado_601129" data-name="Trazado 601129" d="M1698.084,302.193a.757.757,0,1,0-.757.757.757.757,0,0,0,.757-.757" transform="translate(-1544.645 -251.926)" fill="#b7d3f3"/>
      <rect id="Rectángulo_293093" data-name="Rectángulo 293093" width="0.207" height="9.453" transform="translate(152.579 40.814)" fill="#b7d3f3"/>
      <rect id="Rectángulo_293094" data-name="Rectángulo 293094" width="6.371" height="0.62" transform="translate(152.587 50.497) rotate(-141.871)" fill="#b7d3f3"/>
      <path id="Trazado_601130" data-name="Trazado 601130" d="M1036.656,1086.12a21.749,21.749,0,0,0,7.563,8.08h17.527s-27.645-12.527-25.089-8.08" transform="translate(-842.949 -953.076)" fill="#233862"/>
      <path id="Trazado_601131" data-name="Trazado 601131" d="M1430.485,1474.645c.19,1.839-2.368,2.314-5.334,2.493s-2.063.778-6.123,1.558-5.7-.315-6-.862c-.267-.485,1.616-1.267,3.622-2.151.252-.11.505-.224.758-.338,2.258-1.021,3.509-3.069,5.256-4.974,1.656-1.8,3.185-7.541,3.185-7.541l5.514-1.24s-1.5,5.164-2.012,7.368a6.808,6.808,0,0,0,.607,3.832,7.238,7.238,0,0,1,.528,1.854" transform="translate(-1258.395 -1283.683)" fill="#ffb27d"/>
      <path id="Trazado_601132" data-name="Trazado 601132" d="M1432.271,1557.947c-2.967.18-2.063.778-6.123,1.558s-5.7-.315-6-.862c-.267-.485,1.616-1.267,3.621-2.151l.032.034a11.584,11.584,0,0,0,6.161.007c2.683-.759,5.267-2.4,7.115-2.935a7.238,7.238,0,0,1,.529,1.854c.19,1.839-2.368,2.314-5.335,2.494" transform="translate(-1265.516 -1364.492)" fill="#0f2549"/>
      <path id="Trazado_601133" data-name="Trazado 601133" d="M929.9,925.018c2.968-2.084,22.6-5.8,32.613-6.872l11.072-9.611s9.424,13.958,9.5,24.637c.035,4.979-2.259,5.474-2.259,5.475s-35.492.263-37.048.424c-2.547.263-5.906,6.607-6.745,12.385s-15.64,29.279-15.64,29.279a18.546,18.546,0,0,1-4.514.905,4.511,4.511,0,0,1-2.246-.6s8.577-51.317,15.268-56.016" transform="translate(-749.459 -797.945)" fill="#233862"/>
      <path id="Trazado_601134" data-name="Trazado 601134" d="M1355.064,1474.645c.189,1.839-2.368,2.314-5.335,2.493s-2.063.778-6.122,1.558-5.7-.315-6-.862c-.267-.485,1.615-1.267,3.622-2.151.252-.11.505-.224.758-.338,2.258-1.021,3.508-3.069,5.257-4.974,1.656-1.8,3.185-7.541,3.185-7.541l5.515-1.24s-1.5,5.164-2.012,7.368a6.806,6.806,0,0,0,.607,3.832,7.248,7.248,0,0,1,.528,1.854" transform="translate(-1173.794 -1283.683)" fill="#ffb27d"/>
      <path id="Trazado_601135" data-name="Trazado 601135" d="M1356.85,1557.947c-2.967.18-2.063.778-6.122,1.558s-5.7-.315-6-.862c-.267-.485,1.615-1.267,3.622-2.151l.032.034a11.584,11.584,0,0,0,6.162.007c2.683-.759,5.267-2.4,7.115-2.935a7.232,7.232,0,0,1,.528,1.854c.189,1.839-2.368,2.314-5.335,2.494" transform="translate(-1180.914 -1364.492)" fill="#233862"/>
      <path id="Trazado_601136" data-name="Trazado 601136" d="M853.816,925.018c2.578-1.81,10.331-3.214,18.89-4.255a5.757,5.757,0,0,0,4.887-4.321l19.907-7.907s9.424,13.958,9.5,24.637c.035,4.979-2.258,5.474-2.259,5.475s-35.492.263-37.048.424c-2.546.263-5.906,6.607-6.745,12.385s-15.64,29.279-15.64,29.279a18.544,18.544,0,0,1-4.514.905,4.51,4.51,0,0,1-2.246-.6s8.576-51.317,15.268-56.016" transform="translate(-664.109 -797.945)" fill="#2b478b"/>
      <path id="Trazado_601137" data-name="Trazado 601137" d="M766.66,419.152c2.736-1.437,6.9-1.631,7.574-1.722,8.092-1.087,12.963,10.671,13.249,14.234.528,6.567,4,7.569,8.892,11.682,9.805,8.247,6.93,17.83,1.568,21.391-3.217,2.136-8.887,0-8.887,0-.08.056-15.507-8.624-23.111-12.811-11.4-1.621-6.257-29.113.714-32.773" transform="translate(-550.315 -366.558)" fill="#233862"/>
      <path id="Trazado_601138" data-name="Trazado 601138" d="M953.952,587.328c-.036.018,3.6,1.67,6.217.8,2.466-.812,4.638-4.525,4.6-4.53-1.07-.155-2.158-1.211-2.462-7.468l-.474.119-7.969,2.014s.315,2.525.445,4.912c.11,2,.088,3.911-.36,4.149" transform="translate(-735.919 -506.005)" fill="#ffb27d"/>
      <path id="Trazado_601139" data-name="Trazado 601139" d="M976.146,583.029s0,.519.3,2.868c4.507-1.137,6.494-2.631,7.9-4.342Z" transform="translate(-758.198 -510.767)" fill="#ed975d"/>
      <path id="Trazado_601140" data-name="Trazado 601140" d="M956.329,470.449s10.538,1.716,11.505-4.863,2.979-10.788-3.708-12.162-8.366.944-9.224,3.061-1.29,13.348,1.427,13.963" transform="translate(-740.081 -397.869)" fill="#ffb27d"/>
      <path id="Trazado_601141" data-name="Trazado 601141" d="M930.757,445.647s4.785,7.554,9.057,9.343,6.371.881,6.371.881a17.988,17.988,0,0,1-2.45-6.9,3.24,3.24,0,0,0-2-2.6c-3.066-1.228-9-3.164-10.978-.717" transform="translate(-714.519 -390.368)" fill="#233862"/>
      <path id="Trazado_601142" data-name="Trazado 601142" d="M1029.576,445.56a16.686,16.686,0,0,0-3.96,2.786,12.809,12.809,0,0,0-2.31,6.414s-1.384-7.6,1.5-10.206c3.056-2.768,4.772,1.006,4.772,1.006" transform="translate(-809.135 -389.55)" fill="#233862"/>
      <path id="Trazado_601143" data-name="Trazado 601143" d="M878.738,651.445c.32,21.42.088,16.944,2.431,18.977.565.489,2.152.781,4.241.919,6.568.436,18.114-.646,18.553-1.86,1.515-4.2.445-5.5,1.709-11.935.132-.684.295-1.424.486-2.23,1.054-4.416,2.08-5.919-1.659-13.014-3.391-6.427-7.378-11.648-7.695-11.46-8.946,5.31-9.252.859-9.252.859s-8.971,9.3-8.815,19.744" transform="translate(-669.135 -554.05)" fill="#5ad1a5"/>
      <path id="Trazado_601144" data-name="Trazado 601144" d="M1057.286,637.935s-9.156,1.552-10.236,5.515-7.442,27.262-7.442,27.262,4.68.841,6.841-1.321,7.522-20.056,7.522-20.056Z" transform="translate(-838.869 -560.284)" fill="#5ad1a5"/>
      <path id="Trazado_601145" data-name="Trazado 601145" d="M890.745,799.69c6.568.436,18.114-.646,18.553-1.86,1.515-4.2.445-5.5,1.709-11.935l-3.168-8.921s.524,9.934-2.406,12.547-11.994,5.044-13.418,7.227a7.993,7.993,0,0,0-1.27,2.942" transform="translate(-674.471 -682.4)" fill="#39a17b"/>
      <path id="Trazado_601146" data-name="Trazado 601146" d="M1006.859,922.03s-6.48-1.443-7.526-.868a15.23,15.23,0,0,0-3.921,3.4c-.32.729,2.328-.553,3.189-.784a7.663,7.663,0,0,1,2.752.6,9.148,9.148,0,0,0,4.932.495Z" transform="translate(-783.059 -808.917)" fill="#ffb27d"/>
      <path id="Trazado_601147" data-name="Trazado 601147" d="M792.2,630.879s9.171.536,12.183,4.737c4.24,5.914,12.651,31.116,7.83,34.477-5.428,3.785-24.706.99-24.706.99s-.642-3,.251-4.449,15.4-3.794,16.067-4.463-8.368-13.054-8.368-15.063-3.257-16.229-3.257-16.229" transform="translate(-564.534 -554.087)" fill="#5ad1a5"/>
      <path id="Trazado_601148" data-name="Trazado 601148" d="M1062.324,936.957a12.531,12.531,0,0,1-1.8,1.96,1.329,1.329,0,0,1-.733.157l.915-1.647Z" transform="translate(-846.363 -822.909)" fill="#ffb27d"/>
      <path id="Trazado_601149" data-name="Trazado 601149" d="M1061.159,922.139l-3.948,1.917a.7.7,0,0,0,.654.253,9.4,9.4,0,0,0,1.712-.471Z" transform="translate(-844.885 -809.894)" fill="#ffb27d"/>
      <path id="Trazado_601150" data-name="Trazado 601150" d="M1026.058,948.928h18.333a1.461,1.461,0,0,0-1.461-1.461h-16.872Z" transform="translate(-824.325 -832.138)" fill="#636363"/>
      <path id="Trazado_601151" data-name="Trazado 601151" d="M1147.222,795.437h-28.345l6.8,19.967H1154.2Z" transform="translate(-945.437 -698.614)" fill="#636363"/>
      <path id="Trazado_601152" data-name="Trazado 601152" d="M1122.305,795.434l6.8,19.967h28.529l-6.983-19.967Z" transform="translate(-949.282 -698.612)" fill="#afafaf"/>
      <path id="Trazado_601153" data-name="Trazado 601153" d="M1264.03,865.97a1.843,1.843,0,0,0,1.7,1.381,1.064,1.064,0,0,0,1.062-1.381,1.843,1.843,0,0,0-1.7-1.381,1.064,1.064,0,0,0-1.062,1.381" transform="translate(-1075.725 -759.349)" fill="#fff"/>
      <path id="Trazado_601154" data-name="Trazado 601154" d="M1091.389,963.966H967.173a.946.946,0,0,1-.946-.946v-2.6a.946.946,0,0,1,.946-.946h124.216a.946.946,0,0,1,.946.946v2.6a.946.946,0,0,1-.946.946" transform="translate(-864.986 -842.684)" fill="#182d4f"/>
      <path id="Trazado_601155" data-name="Trazado 601155" d="M1905.016,1054.453l-.053-.007a1.141,1.141,0,0,1-1.006-1.269l11.069-74.928,4.052.116-13.024,75.333a.931.931,0,0,1-1.038.754" transform="translate(-1805.87 -859.175)" fill="#182d4f"/>
      <path id="Trazado_601156" data-name="Trazado 601156" d="M945.1,1054.453l.053-.007a1.141,1.141,0,0,0,1.007-1.269L935.093,978.25l-4.052.116,13.024,75.333a.931.931,0,0,0,1.038.754" transform="translate(-714.54 -859.175)" fill="#182d4f"/>
      <path id="Trazado_601157" data-name="Trazado 601157" d="M1155.628,1054.453l.053-.007a1.141,1.141,0,0,0,1.007-1.269l-11.069-74.928-4.052.116,13.023,75.333a.932.932,0,0,0,1.038.754" transform="translate(-950.691 -859.175)" fill="#182d4f"/>
      <path id="Trazado_601158" data-name="Trazado 601158" d="M.47,1599.8H344.49a.472.472,0,0,0,.47-.47v-.384a.472.472,0,0,0-.47-.47H.47a.472.472,0,0,0-.47.47v.384a.472.472,0,0,0,.47.47" transform="translate(0 -1403.904)" fill="#3185af"/>
      <path id="Trazado_601159" data-name="Trazado 601159" d="M1709.526,1522.744h-21.965c-1.057-1.289-.667-6.046-.507-7.6.033-.313.056-.5.056-.5s7.5-6,8.531-1.406c.031.144.069.285.111.424,1.3,4.3,7.12,6.25,10.482,6.794,2.186.354,2.994,1.491,3.293,2.283" transform="translate(-1569.893 -1327.527)" fill="#233862"/>
      <path id="Trazado_601160" data-name="Trazado 601160" d="M1805.161,1017.428c.793,0,37.625,6.916,43.718,14.457,3.043,3.767,3.5,47.278,3.5,47.278s-3.765,4.668-11.9,1.958c0,0-5.963-29.769-5.522-38.8.122-2.5-25.166-.361-29.794-1.559s-15.937-11.266-13.445-16.171,13.445-7.164,13.445-7.164" transform="translate(-1725.463 -893.584)" fill="#233862"/>
      <path id="Trazado_601161" data-name="Trazado 601161" d="M1708.719,929.9s7.43.1,9.187.853,5.321,2.482,4.367,2.747-5.5-.109-6.489.041a16.582,16.582,0,0,1-2.8-.041h-3.412Z" transform="translate(-1585.462 -816.707)" fill="#ffb27d"/>
      <path id="Trazado_601162" data-name="Trazado 601162" d="M1626.885,712.028a13.577,13.577,0,0,1,4.993-2.161,21.632,21.632,0,0,0,3.591-.741c2.27-.8,6.811-4.883,6.467-5.362-1.1-1.535-6.4,1.714-7.328,1.365s1.779-2.271.838-2.948c-.491-.353-1.641,1.417-2.58,1.595-1.271.241-2.265,2.035-2.647,2.129a29.72,29.72,0,0,0-4.007,2.608Z" transform="translate(-1494.94 -616.669)" fill="#ffb27d"/>
      <path id="Trazado_601163" data-name="Trazado 601163" d="M1815.73,609.758s5.656,1.753,11.228,17.1,7.688,16.173,9.714,16.775,19.8,4.142,19.8,4.142v4.554h-27.394s-10.272-9.771-13.352-16.349,0-26.218,0-26.218" transform="translate(-1732.363 -535.537)" fill="#ed7d2b"/>
      <path id="Trazado_601164" data-name="Trazado 601164" d="M1629.773,1522.744h-21.965c-1.056-1.289-.667-6.046-.507-7.6.033-.313.055-.5.055-.5s7.5-6,8.531-1.406c.031.144.07.285.111.424,1.3,4.3,7.121,6.25,10.483,6.794,2.186.354,2.994,1.491,3.292,2.283" transform="translate(-1480.432 -1327.527)" fill="#1b3051"/>
      <path id="Trazado_601165" data-name="Trazado 601165" d="M1715.992,1017.428c.793,0,37.625,6.916,43.718,14.457,3.044,3.767,3.5,47.278,3.5,47.278s-3.766,4.668-11.9,1.958c0,0-5.963-29.769-5.522-38.8.122-2.5-25.166-.361-29.794-1.559s-15.937-11.266-13.445-16.171,13.445-7.164,13.445-7.164" transform="translate(-1625.44 -893.584)" fill="#2b478b"/>
      <path id="Trazado_601166" data-name="Trazado 601166" d="M2102.254,507.565a35.749,35.749,0,0,1-7.829-1.7c-3-.974-5.421-2.4-3.861-5.141,1.437-2.528,3.762-8.176,3.605-12.855l5.585,4.5,3.793,3.057a45.47,45.47,0,0,1-.43,4.961c-.076.576-.165,1.2-.269,1.862a1.352,1.352,0,0,0,.624,1.359l.085.053a2.119,2.119,0,0,1-1.3,3.908" transform="translate(-2014.007 -428.481)" fill="#ffb27d"/>
      <path id="Trazado_601167" data-name="Trazado 601167" d="M2104.608,526.888a9.218,9.218,0,0,1-.139,3.071,15.861,15.861,0,0,1-6.544-3.25c1.722-.473,2.349-2.333,3.631-2.16Z" transform="translate(-2015.068 -460.69)" fill="#ed975d"/>
      <path id="Trazado_601168" data-name="Trazado 601168" d="M2067.391,393.068s-13.01,2.161-14.231-5.961-3.723-13.314,4.532-15.038,10.339,1.133,11.406,3.745,1.646,16.483-1.706,17.254" transform="translate(-1974.723 -326.318)" fill="#ffb27d"/>
      <path id="Trazado_601169" data-name="Trazado 601169" d="M2064.052,359.751c.559,1.956-.936,4.339-3.446,5.123-3.726,1.164-2.9,5.734-4.579,5.672s-2.353-2.627-3.85-.578c-1.278,1.748,1.063,3.82.9,4.779-.277,1.645-2.854,5.012-5.177,4.843s-6.669-11.208-5.8-14.623,4.347-7.017,7.638-7.514,7.862.924,8.917.924,5.094.317,5.4,1.373" transform="translate(-1967.763 -313.85)" fill="#2b478b"/>
      <path id="Trazado_601170" data-name="Trazado 601170" d="M2027.771,590.51c1.88-7.569,7.078-15.51,10.592-15.5,5.988.011,14.6,1.592,18.072,10.166,2.56,6.315,5.975,42.64,2.115,45.224-8.821,5.906-29.269,17.962-32.9,5.667-3.328-11.265-1.141-32.417,2.122-45.553" transform="translate(-1961.691 -505.016)" fill="#f99746"/>
      <path id="Trazado_601171" data-name="Trazado 601171" d="M1715.058,607.642a7.092,7.092,0,0,1,10.976-3.057,67.059,67.059,0,0,1,7.527,7.034c11.175,11.9,13.446,11.826,15.545,11.581s19.831-4.009,19.831-4.009a5.357,5.357,0,0,1,1.442,1.752,3.3,3.3,0,0,1,.354,2.432c.695-.449-6.285,4.363-9.76,6.281a95.485,95.485,0,0,1-14.256,5.811,3.68,3.68,0,0,1-2.395-.036c-4.087-1.473-17.814-6.842-28.987-16.157-2.944-2.454-1.862-7.512-.278-11.633" transform="translate(-1634.435 -529.678)" fill="#f99746"/>
      <path id="Trazado_601172" data-name="Trazado 601172" d="M2081.467,553.568l1.356-3.054s12.136.99,14.175,7.9c0,0-9.407-4.694-15.531-4.842" transform="translate(-2005.398 -483.504)" fill="#fff"/>
      <path id="Trazado_601173" data-name="Trazado 601173" d="M2392.164,1263.338h-.083a1.138,1.138,0,0,1-1.15-1.217l4.571-45.654,3.989.356-6.564,45.9a.743.743,0,0,1-.763.617" transform="translate(-2345.558 -1068.394)" fill="#8cb4f4"/>
      <path id="Trazado_601174" data-name="Trazado 601174" d="M2198.861,1263.338h-.084a1.138,1.138,0,0,1-1.15-1.217l4.571-45.654,3.989.356-6.564,45.9a.743.743,0,0,1-.763.617" transform="translate(-2128.726 -1068.394)" fill="#8cb4f4"/>
      <path id="Trazado_601175" data-name="Trazado 601175" d="M1892.057,1263.338h.084a1.138,1.138,0,0,0,1.15-1.217l-4.571-45.654-3.989.356,6.564,45.9a.742.742,0,0,0,.762.617" transform="translate(-1777.749 -1068.394)" fill="#73a2e5"/>
      <path id="Trazado_601176" data-name="Trazado 601176" d="M2115.166,800.5l-4.338-38.131c-.569-5.5,1.27-10.876,9.2-11.292l13.95-.85c8.268-.341,12,6.54,13.048,11.838l8.282,41.915Z" transform="translate(-2067.268 -658.901)" fill="#8cb4f4"/>
      <path id="Trazado_601177" data-name="Trazado 601177" d="M1896.375,1169.214h61.915a2.268,2.268,0,0,0,2.262-2.261v-2.785a2.268,2.268,0,0,0-2.262-2.262h-64.177v5.047a2.268,2.268,0,0,0,2.262,2.261" transform="translate(-1846.146 -1020.476)" fill="#73a2e5"/>
      <path id="Trazado_601178" data-name="Trazado 601178" d="M2112.488,1169.214h36.558a1.762,1.762,0,0,0,1.757-1.756v-3.8a1.762,1.762,0,0,0-1.757-1.756h-38.314v5.552a1.762,1.762,0,0,0,1.757,1.756" transform="translate(-2062.764 -1020.476)" fill="#8cb4f4"/>
    </g>
    <path id="Trazado_602609" data-name="Trazado 602609" d="M0,0H300V45H0Z" transform="translate(-8840.5 -1684.694)" fill="#3185af"/>
    <path id="Trazado_602610" data-name="Trazado 602610" d="M81.179,13.454H76.117v3.428h5.941V19H73.48V6.2h8.561V8.339H76.117v3.05h5.063Zm4.6-3.964.079,1.1a3.32,3.32,0,0,1,2.733-1.274,2.759,2.759,0,0,1,2.25.888,4.142,4.142,0,0,1,.756,2.654V19h-2.54V12.918a1.648,1.648,0,0,0-.352-1.173,1.574,1.574,0,0,0-1.169-.365,1.747,1.747,0,0,0-1.608.914V19h-2.54V9.49ZM96.56,7.152V9.49h1.626v1.863H96.56V16.1a1.133,1.133,0,0,0,.2.756,1.015,1.015,0,0,0,.773.229,4.051,4.051,0,0,0,.747-.062v1.925a5.229,5.229,0,0,1-1.538.229,2.425,2.425,0,0,1-2.725-2.7V11.354H92.631V9.49H94.02V7.152Zm8.385,4.72a6.9,6.9,0,0,0-.914-.07,1.86,1.86,0,0,0-1.89.976V19H99.6V9.49H102l.07,1.134a2.354,2.354,0,0,1,2.118-1.31,2.662,2.662,0,0,1,.791.114Zm5.6,7.3a4.668,4.668,0,0,1-3.406-1.283,4.561,4.561,0,0,1-1.314-3.419v-.246a5.745,5.745,0,0,1,.554-2.562,4.064,4.064,0,0,1,1.569-1.74,4.4,4.4,0,0,1,2.316-.611,3.947,3.947,0,0,1,3.072,1.23,5,5,0,0,1,1.121,3.489v1.037H108.4a2.36,2.36,0,0,0,.743,1.494,2.245,2.245,0,0,0,1.569.563A2.742,2.742,0,0,0,113,16.064l1.248,1.4a3.813,3.813,0,0,1-1.547,1.261A5.075,5.075,0,0,1,110.543,19.176Zm-.29-7.813a1.587,1.587,0,0,0-1.226.512,2.651,2.651,0,0,0-.6,1.466h3.533v-.2a1.891,1.891,0,0,0-.457-1.311A1.638,1.638,0,0,0,110.253,11.362Zm9.088,4.535,1.767-6.407h2.654L120.554,19h-2.426L114.92,9.49h2.654Zm8.218,3.1H125.01V9.49h2.549Zm-2.7-11.971a1.251,1.251,0,0,1,.382-.94,1.648,1.648,0,0,1,2.079,0,1.244,1.244,0,0,1,.387.94,1.247,1.247,0,0,1-.391.949,1.629,1.629,0,0,1-2.065,0A1.247,1.247,0,0,1,124.861,7.029Zm9.94,9.343a.818.818,0,0,0-.461-.734,5.241,5.241,0,0,0-1.481-.479q-3.393-.712-3.393-2.883a2.613,2.613,0,0,1,1.05-2.114,4.237,4.237,0,0,1,2.747-.848,4.56,4.56,0,0,1,2.9.853,2.687,2.687,0,0,1,1.085,2.215H134.7a1.229,1.229,0,0,0-.352-.9,1.488,1.488,0,0,0-1.1-.356,1.52,1.52,0,0,0-.993.29.916.916,0,0,0-.352.738.783.783,0,0,0,.4.681,4.114,4.114,0,0,0,1.349.448,11.019,11.019,0,0,1,1.6.426,2.628,2.628,0,0,1,2.013,2.558,2.481,2.481,0,0,1-1.116,2.1,4.815,4.815,0,0,1-2.883.8,5.029,5.029,0,0,1-2.123-.426,3.561,3.561,0,0,1-1.455-1.169,2.716,2.716,0,0,1-.527-1.6h2.408a1.326,1.326,0,0,0,.5,1.037,1.987,1.987,0,0,0,1.248.36,1.839,1.839,0,0,0,1.1-.277A.861.861,0,0,0,134.8,16.372Zm7.146-9.22V9.49h1.626v1.863h-1.626V16.1a1.133,1.133,0,0,0,.2.756,1.015,1.015,0,0,0,.773.229,4.051,4.051,0,0,0,.747-.062v1.925a5.229,5.229,0,0,1-1.538.229,2.425,2.425,0,0,1-2.725-2.7V11.354h-1.389V9.49h1.389V7.152ZM150.5,19a2.821,2.821,0,0,1-.255-.853,3.073,3.073,0,0,1-2.4,1.028,3.376,3.376,0,0,1-2.316-.809,2.6,2.6,0,0,1-.918-2.039,2.687,2.687,0,0,1,1.121-2.32,5.529,5.529,0,0,1,3.239-.817h1.169v-.545a1.567,1.567,0,0,0-.338-1.055,1.331,1.331,0,0,0-1.068-.4,1.513,1.513,0,0,0-1.006.308,1.045,1.045,0,0,0-.365.844h-2.54a2.551,2.551,0,0,1,.51-1.529,3.37,3.37,0,0,1,1.441-1.1,5.253,5.253,0,0,1,2.092-.4,4.15,4.15,0,0,1,2.791.883,3.09,3.09,0,0,1,1.033,2.483V16.8a4.546,4.546,0,0,0,.378,2.048V19Zm-2.1-1.767a2.188,2.188,0,0,0,1.037-.25,1.645,1.645,0,0,0,.7-.672V14.676h-.949q-1.907,0-2.03,1.318l-.009.149a1.017,1.017,0,0,0,.334.782A1.3,1.3,0,0,0,148.4,17.233Z" transform="translate(-8801.5 -1674.694)" fill="#fff"/>
    <path id="Trazado_602611" data-name="Trazado 602611" d="M0,0H38V45H0Z" transform="translate(-8847.5 -1684.694)" fill="#7ec1ec"/>
    <path id="Trazado_602612" data-name="Trazado 602612" d="M0,0H247.335V42H0Z" transform="translate(-8574 -1536.391) rotate(180)" fill="#f2f5d1"/>
    <path id="Trazado_602613" data-name="Trazado 602613" d="M2.5,0A2.5,2.5,0,1,1,0,2.5,2.5,2.5,0,0,1,2.5,0Z" transform="translate(-8588 -1572.39)" fill="#b5c500"/>
    <path id="Trazado_602614" data-name="Trazado 602614" d="M2.5,0A2.5,2.5,0,1,1,0,2.5,2.5,2.5,0,0,1,2.5,0Z" transform="translate(-8588 -1560.39)" fill="#b5c500"/>
    <path id="Trazado_602615" data-name="Trazado 602615" d="M2.5,0A2.5,2.5,0,1,1,0,2.5,2.5,2.5,0,0,1,2.5,0Z" transform="translate(-8588 -1548.39)" fill="#b5c500"/>
    <path id="Trazado_602616" data-name="Trazado 602616" d="M2.5,0A2.5,2.5,0,1,1,0,2.5,2.5,2.5,0,0,1,2.5,0Z" transform="translate(-8576 -1572.39)" fill="#b5c500"/>
    <path id="Trazado_602617" data-name="Trazado 602617" d="M2.5,0A2.5,2.5,0,1,1,0,2.5,2.5,2.5,0,0,1,2.5,0Z" transform="translate(-8565 -1572.39)" fill="#b5c500"/>
    <path id="Trazado_602618" data-name="Trazado 602618" d="M2.5,0A2.5,2.5,0,1,1,0,2.5,2.5,2.5,0,0,1,2.5,0Z" transform="translate(-8576 -1560.39)" fill="#b5c500"/>
    <path id="Trazado_602619" data-name="Trazado 602619" d="M2.5,0A2.5,2.5,0,1,1,0,2.5,2.5,2.5,0,0,1,2.5,0Z" transform="translate(-8565 -1560.39)" fill="#b5c500"/>
    <path id="Trazado_602620" data-name="Trazado 602620" d="M2.5,0A2.5,2.5,0,1,1,0,2.5,2.5,2.5,0,0,1,2.5,0Z" transform="translate(-8576 -1548.39)" fill="#b5c500"/>
    <path id="Trazado_602621" data-name="Trazado 602621" d="M2.5,0A2.5,2.5,0,1,1,0,2.5,2.5,2.5,0,0,1,2.5,0Z" transform="translate(-8565 -1548.39)" fill="#b5c500"/>
    <path id="Trazado_602622" data-name="Trazado 602622" d="M0,0H247.335V42H0Z" transform="translate(-8573.665 -1461.341) rotate(180)" fill="#f2f5d1"/>
    <g id="Grupo_874668" data-name="Grupo 874668" transform="translate(-8587.665 -1497.341)">
      <circle id="Elipse_4713" data-name="Elipse 4713" cx="2.5" cy="2.5" r="2.5" fill="#b5c500"/>
      <circle id="Elipse_4717" data-name="Elipse 4717" cx="2.5" cy="2.5" r="2.5" transform="translate(0 12)" fill="#b5c500"/>
      <circle id="Elipse_4719" data-name="Elipse 4719" cx="2.5" cy="2.5" r="2.5" transform="translate(0 24)" fill="#b5c500"/>
      <circle id="Elipse_4715" data-name="Elipse 4715" cx="2.5" cy="2.5" r="2.5" transform="translate(12)" fill="#b5c500"/>
      <circle id="Elipse_4720" data-name="Elipse 4720" cx="2.5" cy="2.5" r="2.5" transform="translate(23)" fill="#b5c500"/>
      <circle id="Elipse_4716" data-name="Elipse 4716" cx="2.5" cy="2.5" r="2.5" transform="translate(12 12)" fill="#b5c500"/>
      <circle id="Elipse_4721" data-name="Elipse 4721" cx="2.5" cy="2.5" r="2.5" transform="translate(23 12)" fill="#b5c500"/>
      <circle id="Elipse_4718" data-name="Elipse 4718" cx="2.5" cy="2.5" r="2.5" transform="translate(12 24)" fill="#b5c500"/>
      <circle id="Elipse_4722" data-name="Elipse 4722" cx="2.5" cy="2.5" r="2.5" transform="translate(23 24)" fill="#b5c500"/>
    </g>
    <path id="Trazado_602623" data-name="Trazado 602623" d="M74.7,12.762H69.916V16h5.611v2h-8.1V5.914H75.51V7.931H69.916v2.88H74.7Zm7,2.756a.773.773,0,0,0-.436-.693,4.95,4.95,0,0,0-1.4-.452q-3.2-.672-3.2-2.723a2.468,2.468,0,0,1,.992-2,4,4,0,0,1,2.594-.8,4.307,4.307,0,0,1,2.735.805A2.538,2.538,0,0,1,84,11.75H81.6a1.161,1.161,0,0,0-.332-.851,1.405,1.405,0,0,0-1.038-.336,1.436,1.436,0,0,0-.938.274.865.865,0,0,0-.332.7.739.739,0,0,0,.378.643,3.885,3.885,0,0,0,1.274.423,10.407,10.407,0,0,1,1.511.4,2.482,2.482,0,0,1,1.9,2.416,2.343,2.343,0,0,1-1.054,1.988,4.548,4.548,0,0,1-2.723.76,4.75,4.75,0,0,1-2-.4,3.363,3.363,0,0,1-1.374-1.1,2.565,2.565,0,0,1-.5-1.515h2.274a1.252,1.252,0,0,0,.473.979,1.877,1.877,0,0,0,1.179.34,1.737,1.737,0,0,0,1.042-.261A.814.814,0,0,0,81.695,15.518Zm6.749-8.708V9.019h1.536v1.76H88.443v4.482a1.07,1.07,0,0,0,.191.714.959.959,0,0,0,.73.216,3.826,3.826,0,0,0,.706-.058V17.95a4.938,4.938,0,0,1-1.453.216,2.29,2.29,0,0,1-2.573-2.548V10.778H84.733V9.019h1.312V6.811Zm7.919,4.458A6.517,6.517,0,0,0,95.5,11.2a1.757,1.757,0,0,0-1.785.921V18h-2.4V9.019h2.266l.066,1.071a2.223,2.223,0,0,1,2-1.237,2.514,2.514,0,0,1,.747.108Zm6.533,5.819a3.008,3.008,0,0,1-2.457,1.079,2.837,2.837,0,0,1-2.2-.83,3.543,3.543,0,0,1-.776-2.432V9.019h2.4v5.809q0,1.4,1.278,1.4a1.732,1.732,0,0,0,1.677-.848V9.019h2.407V18h-2.258Zm7.869-.855a1.573,1.573,0,0,0,1.079-.365,1.28,1.28,0,0,0,.432-.971h2.25a3.077,3.077,0,0,1-.5,1.673,3.286,3.286,0,0,1-1.341,1.179,4.2,4.2,0,0,1-1.88.419,3.9,3.9,0,0,1-3.038-1.224,4.845,4.845,0,0,1-1.112-3.383V13.4a4.79,4.79,0,0,1,1.1-3.312,3.854,3.854,0,0,1,3.03-1.237,3.778,3.778,0,0,1,2.7.959,3.4,3.4,0,0,1,1.033,2.552h-2.25a1.648,1.648,0,0,0-.432-1.139,1.6,1.6,0,0,0-2.362.173,3.541,3.541,0,0,0-.427,1.983v.249a3.586,3.586,0,0,0,.423,2A1.463,1.463,0,0,0,110.764,16.232Zm8-9.421V9.019H120.3v1.76h-1.536v4.482a1.07,1.07,0,0,0,.191.714.959.959,0,0,0,.73.216,3.826,3.826,0,0,0,.706-.058V17.95a4.938,4.938,0,0,1-1.453.216,2.29,2.29,0,0,1-2.573-2.548V10.778h-1.312V9.019h1.312V6.811Zm8.251,10.276a3.008,3.008,0,0,1-2.457,1.079,2.837,2.837,0,0,1-2.2-.83,3.543,3.543,0,0,1-.776-2.432V9.019h2.4v5.809q0,1.4,1.278,1.4a1.732,1.732,0,0,0,1.677-.848V9.019h2.407V18h-2.258Zm9.181-5.819a6.517,6.517,0,0,0-.863-.066,1.757,1.757,0,0,0-1.785.921V18h-2.4V9.019h2.266l.066,1.071a2.223,2.223,0,0,1,2-1.237,2.514,2.514,0,0,1,.747.108ZM142.307,18a2.664,2.664,0,0,1-.241-.805,2.9,2.9,0,0,1-2.266.971,3.189,3.189,0,0,1-2.187-.764,2.456,2.456,0,0,1-.867-1.926,2.538,2.538,0,0,1,1.058-2.191,5.222,5.222,0,0,1,3.059-.772h1.1V12a1.48,1.48,0,0,0-.32-1,1.257,1.257,0,0,0-1.009-.374,1.429,1.429,0,0,0-.95.291.987.987,0,0,0-.344.8h-2.4a2.41,2.41,0,0,1,.481-1.444,3.182,3.182,0,0,1,1.361-1.042,4.961,4.961,0,0,1,1.976-.378,3.92,3.92,0,0,1,2.635.834,2.918,2.918,0,0,1,.975,2.345v3.893a4.294,4.294,0,0,0,.357,1.934V18Zm-1.984-1.668a2.066,2.066,0,0,0,.979-.237,1.554,1.554,0,0,0,.664-.635V13.916h-.9q-1.8,0-1.917,1.245l-.008.141a.96.96,0,0,0,.315.739A1.225,1.225,0,0,0,140.323,16.332Zm5.52-2.889a5.413,5.413,0,0,1,.942-3.345,3.057,3.057,0,0,1,2.577-1.245,2.751,2.751,0,0,1,2.167.979V5.25h2.407V18H151.77l-.116-.955a2.823,2.823,0,0,1-2.308,1.121,3.049,3.049,0,0,1-2.544-1.249A5.587,5.587,0,0,1,145.843,13.443Zm2.4.179a3.546,3.546,0,0,0,.44,1.937,1.433,1.433,0,0,0,1.278.673,1.605,1.605,0,0,0,1.569-.939v-3.55a1.582,1.582,0,0,0-1.552-.939Q148.242,10.8,148.242,13.621ZM161,18a2.664,2.664,0,0,1-.241-.805,2.9,2.9,0,0,1-2.266.971,3.189,3.189,0,0,1-2.187-.764,2.456,2.456,0,0,1-.867-1.926,2.538,2.538,0,0,1,1.058-2.191,5.222,5.222,0,0,1,3.059-.772h1.1V12a1.48,1.48,0,0,0-.32-1,1.257,1.257,0,0,0-1.009-.374,1.429,1.429,0,0,0-.95.291.987.987,0,0,0-.344.8h-2.4a2.41,2.41,0,0,1,.481-1.444,3.182,3.182,0,0,1,1.361-1.042,4.961,4.961,0,0,1,1.976-.378,3.92,3.92,0,0,1,2.635.834,2.918,2.918,0,0,1,.975,2.345v3.893a4.294,4.294,0,0,0,.357,1.934V18Zm-1.984-1.668a2.066,2.066,0,0,0,.979-.237,1.554,1.554,0,0,0,.664-.635V13.916h-.9q-1.8,0-1.917,1.245l-.008.141a.96.96,0,0,0,.315.739A1.225,1.225,0,0,0,159.016,16.332Z" transform="translate(-8821 -1568.391)" fill="#12263f"/>
    <path id="Trazado_602624" data-name="Trazado 602624" d="M56.447,14.829a1.278,1.278,0,0,0-.5-1.083,6.533,6.533,0,0,0-1.793-.8,12.71,12.71,0,0,1-2.05-.826,3.35,3.35,0,0,1-2.059-3A2.919,2.919,0,0,1,50.6,7.379a3.6,3.6,0,0,1,1.585-1.2,5.967,5.967,0,0,1,2.32-.432,5.432,5.432,0,0,1,2.308.469,3.674,3.674,0,0,1,1.573,1.324,3.464,3.464,0,0,1,.56,1.942h-2.49a1.63,1.63,0,0,0-.523-1.291,2.15,2.15,0,0,0-1.469-.461,2.3,2.3,0,0,0-1.419.386,1.217,1.217,0,0,0-.506,1.017,1.166,1.166,0,0,0,.594.988,6.705,6.705,0,0,0,1.747.747,7.55,7.55,0,0,1,3.1,1.585,3.157,3.157,0,0,1,.971,2.357,2.909,2.909,0,0,1-1.187,2.461,5.2,5.2,0,0,1-3.2.892,6.171,6.171,0,0,1-2.54-.51,4.019,4.019,0,0,1-1.747-1.4,3.582,3.582,0,0,1-.6-2.059h2.5q0,2,2.391,2a2.326,2.326,0,0,0,1.386-.361A1.175,1.175,0,0,0,56.447,14.829Zm8.16,3.337a4.409,4.409,0,0,1-3.217-1.212,4.308,4.308,0,0,1-1.241-3.229v-.232a5.426,5.426,0,0,1,.523-2.42,3.838,3.838,0,0,1,1.482-1.644,4.159,4.159,0,0,1,2.187-.577,3.727,3.727,0,0,1,2.9,1.162,4.722,4.722,0,0,1,1.058,3.3v.979H62.582a2.229,2.229,0,0,0,.7,1.411,2.12,2.12,0,0,0,1.482.531,2.589,2.589,0,0,0,2.167-1l1.179,1.32a3.6,3.6,0,0,1-1.461,1.191A4.793,4.793,0,0,1,64.607,18.166Zm-.274-7.379a1.5,1.5,0,0,0-1.158.484,2.5,2.5,0,0,0-.569,1.384h3.337v-.192a1.786,1.786,0,0,0-.432-1.238A1.547,1.547,0,0,0,64.333,10.787Zm7.579-1.768.075,1a3.156,3.156,0,0,1,2.582-1.17,2.4,2.4,0,0,1,2.382,1.37,3.084,3.084,0,0,1,2.7-1.37,2.679,2.679,0,0,1,2.175.851,3.911,3.911,0,0,1,.714,2.561V18H80.129V12.272a1.71,1.71,0,0,0-.3-1.116,1.324,1.324,0,0,0-1.054-.353,1.5,1.5,0,0,0-1.494,1.029L77.291,18h-2.4V12.281a1.689,1.689,0,0,0-.307-1.129,1.337,1.337,0,0,0-1.046-.349,1.555,1.555,0,0,0-1.478.847V18h-2.4V9.019Zm15,8.981H84.5V9.019h2.407ZM84.363,6.694a1.181,1.181,0,0,1,.361-.888,1.556,1.556,0,0,1,1.963,0,1.175,1.175,0,0,1,.365.888,1.178,1.178,0,0,1-.369.9,1.539,1.539,0,0,1-1.951,0A1.178,1.178,0,0,1,84.363,6.694Zm8.658,11.472A4.409,4.409,0,0,1,89.8,16.954a4.308,4.308,0,0,1-1.241-3.229v-.232a5.426,5.426,0,0,1,.523-2.42,3.838,3.838,0,0,1,1.482-1.644,4.159,4.159,0,0,1,2.187-.577,3.727,3.727,0,0,1,2.9,1.162,4.722,4.722,0,0,1,1.058,3.3v.979H91a2.229,2.229,0,0,0,.7,1.411,2.12,2.12,0,0,0,1.482.531,2.589,2.589,0,0,0,2.167-1l1.179,1.32a3.6,3.6,0,0,1-1.461,1.191A4.793,4.793,0,0,1,93.021,18.166Zm-.274-7.379a1.5,1.5,0,0,0-1.158.484,2.5,2.5,0,0,0-.569,1.384h3.337v-.192a1.786,1.786,0,0,0-.432-1.238A1.547,1.547,0,0,0,92.747,10.787Zm10.193,4.731a.773.773,0,0,0-.436-.693,4.95,4.95,0,0,0-1.4-.452q-3.2-.672-3.2-2.723a2.468,2.468,0,0,1,.992-2,4,4,0,0,1,2.594-.8,4.307,4.307,0,0,1,2.735.805,2.538,2.538,0,0,1,1.025,2.092h-2.4a1.161,1.161,0,0,0-.332-.851,1.405,1.405,0,0,0-1.038-.336,1.436,1.436,0,0,0-.938.274.865.865,0,0,0-.332.7.739.739,0,0,0,.378.643,3.885,3.885,0,0,0,1.274.423,10.407,10.407,0,0,1,1.511.4,2.482,2.482,0,0,1,1.9,2.416,2.343,2.343,0,0,1-1.054,1.988,4.548,4.548,0,0,1-2.723.76,4.75,4.75,0,0,1-2-.4,3.363,3.363,0,0,1-1.374-1.1,2.565,2.565,0,0,1-.5-1.515h2.274a1.252,1.252,0,0,0,.473.979,1.877,1.877,0,0,0,1.179.34,1.737,1.737,0,0,0,1.042-.261A.814.814,0,0,0,102.94,15.518Zm6.749-8.708V9.019h1.536v1.76h-1.536v4.482a1.07,1.07,0,0,0,.191.714.959.959,0,0,0,.73.216,3.826,3.826,0,0,0,.706-.058V17.95a4.938,4.938,0,0,1-1.453.216,2.29,2.29,0,0,1-2.573-2.548V10.778h-1.312V9.019h1.312V6.811Zm7.919,4.458a6.517,6.517,0,0,0-.863-.066,1.757,1.757,0,0,0-1.785.921V18h-2.4V9.019h2.266l.066,1.071a2.223,2.223,0,0,1,2-1.237,2.514,2.514,0,0,1,.747.108Zm6.533,5.819a3.008,3.008,0,0,1-2.457,1.079,2.837,2.837,0,0,1-2.2-.83A3.543,3.543,0,0,1,118.7,14.9V9.019h2.4v5.809q0,1.4,1.278,1.4a1.732,1.732,0,0,0,1.677-.848V9.019h2.407V18h-2.258Zm7.869-.855a1.573,1.573,0,0,0,1.079-.365,1.28,1.28,0,0,0,.432-.971h2.25a3.077,3.077,0,0,1-.5,1.673,3.286,3.286,0,0,1-1.341,1.179,4.2,4.2,0,0,1-1.88.419,3.9,3.9,0,0,1-3.038-1.224,4.845,4.845,0,0,1-1.112-3.383V13.4a4.79,4.79,0,0,1,1.1-3.312,3.854,3.854,0,0,1,3.03-1.237,3.778,3.778,0,0,1,2.7.959,3.4,3.4,0,0,1,1.033,2.552h-2.25a1.648,1.648,0,0,0-.432-1.139,1.6,1.6,0,0,0-2.362.173,3.541,3.541,0,0,0-.427,1.983v.249a3.586,3.586,0,0,0,.423,2A1.463,1.463,0,0,0,132.009,16.232Zm8-9.421V9.019h1.536v1.76h-1.536v4.482a1.07,1.07,0,0,0,.191.714.959.959,0,0,0,.73.216,3.826,3.826,0,0,0,.706-.058V17.95a4.939,4.939,0,0,1-1.453.216,2.29,2.29,0,0,1-2.573-2.548V10.778H136.3V9.019h1.312V6.811Zm8.251,10.276a3.008,3.008,0,0,1-2.457,1.079,2.837,2.837,0,0,1-2.2-.83,3.543,3.543,0,0,1-.776-2.432V9.019h2.4v5.809q0,1.4,1.278,1.4a1.732,1.732,0,0,0,1.677-.848V9.019h2.407V18h-2.258Zm9.181-5.819a6.517,6.517,0,0,0-.863-.066,1.757,1.757,0,0,0-1.785.921V18h-2.4V9.019h2.266l.066,1.071a2.223,2.223,0,0,1,2-1.237,2.514,2.514,0,0,1,.747.108ZM163.552,18a2.664,2.664,0,0,1-.241-.805,2.9,2.9,0,0,1-2.266.971,3.189,3.189,0,0,1-2.187-.764,2.456,2.456,0,0,1-.867-1.926,2.538,2.538,0,0,1,1.058-2.191,5.222,5.222,0,0,1,3.059-.772h1.1V12a1.48,1.48,0,0,0-.32-1,1.257,1.257,0,0,0-1.009-.374,1.429,1.429,0,0,0-.95.291.987.987,0,0,0-.344.8h-2.4a2.41,2.41,0,0,1,.481-1.444,3.182,3.182,0,0,1,1.361-1.042,4.961,4.961,0,0,1,1.976-.378,3.92,3.92,0,0,1,2.635.834,2.918,2.918,0,0,1,.975,2.345v3.893a4.294,4.294,0,0,0,.357,1.934V18Zm-1.984-1.668a2.066,2.066,0,0,0,.979-.237,1.554,1.554,0,0,0,.664-.635V13.916h-.9q-1.8,0-1.917,1.245l-.008.141a.96.96,0,0,0,.315.739A1.225,1.225,0,0,0,161.568,16.332Zm5.52-2.889a5.413,5.413,0,0,1,.942-3.345,3.057,3.057,0,0,1,2.577-1.245,2.751,2.751,0,0,1,2.167.979V5.25h2.407V18h-2.167l-.116-.955a2.823,2.823,0,0,1-2.308,1.121,3.049,3.049,0,0,1-2.544-1.249A5.587,5.587,0,0,1,167.088,13.443Zm2.4.179a3.546,3.546,0,0,0,.44,1.937,1.433,1.433,0,0,0,1.278.673,1.605,1.605,0,0,0,1.569-.939v-3.55a1.582,1.582,0,0,0-1.552-.939Q169.487,10.8,169.487,13.621ZM182.246,18a2.664,2.664,0,0,1-.241-.805,2.9,2.9,0,0,1-2.266.971,3.189,3.189,0,0,1-2.187-.764,2.456,2.456,0,0,1-.867-1.926,2.538,2.538,0,0,1,1.058-2.191,5.222,5.222,0,0,1,3.059-.772h1.1V12a1.48,1.48,0,0,0-.32-1,1.257,1.257,0,0,0-1.009-.374,1.429,1.429,0,0,0-.95.291.987.987,0,0,0-.344.8h-2.4a2.41,2.41,0,0,1,.481-1.444,3.182,3.182,0,0,1,1.361-1.042,4.961,4.961,0,0,1,1.976-.378,3.92,3.92,0,0,1,2.635.834,2.918,2.918,0,0,1,.975,2.345v3.893a4.294,4.294,0,0,0,.357,1.934V18Zm-1.984-1.668a2.066,2.066,0,0,0,.979-.237,1.554,1.554,0,0,0,.664-.635V13.916h-.9q-1.8,0-1.917,1.245l-.008.141a.96.96,0,0,0,.315.739A1.225,1.225,0,0,0,180.262,16.332Z" transform="translate(-8822 -1493.341)" fill="#12263f"/>
    <path id="Trazado_602625" data-name="Trazado 602625" d="M0,0H261.335V48.706H0Z" transform="translate(-8726 -1329.39)" fill="#d9e9f1"/>
    <path id="Trazado_602626" data-name="Trazado 602626" d="M0,0H261.335V48.706H0Z" transform="translate(-8726 -1246.734)" fill="#d9e9f1"/>
    <path id="Trazado_602627" data-name="Trazado 602627" d="M97.658,12.663H92.586V18H90.992V5.914H98.48v1.3H92.586v4.142h5.072Zm1.909.764a5.3,5.3,0,0,1,.519-2.374,3.87,3.87,0,0,1,1.444-1.627,3.932,3.932,0,0,1,2.113-.573,3.788,3.788,0,0,1,2.968,1.27,4.886,4.886,0,0,1,1.133,3.378v.108a5.351,5.351,0,0,1-.5,2.353,3.813,3.813,0,0,1-1.436,1.623,3.977,3.977,0,0,1-2.146.581A3.778,3.778,0,0,1,100.7,16.9a4.861,4.861,0,0,1-1.133-3.362Zm1.544.183a3.842,3.842,0,0,0,.693,2.4A2.349,2.349,0,0,0,105.519,16a4.2,4.2,0,0,0,.689-2.569,3.836,3.836,0,0,0-.7-2.395,2.23,2.23,0,0,0-1.864-.917,2.205,2.205,0,0,0-1.834.9A4.17,4.17,0,0,0,101.111,13.609Zm12.161,3.3a2.212,2.212,0,0,0,1.436-.5,1.752,1.752,0,0,0,.681-1.245h1.453a2.785,2.785,0,0,1-.531,1.469A3.5,3.5,0,0,1,115,17.751a3.772,3.772,0,0,1-1.731.415,3.7,3.7,0,0,1-2.918-1.224,4.877,4.877,0,0,1-1.083-3.349v-.257A5.407,5.407,0,0,1,109.752,11a3.667,3.667,0,0,1,1.382-1.585,3.926,3.926,0,0,1,2.129-.564,3.6,3.6,0,0,1,2.511.9,3.234,3.234,0,0,1,1.067,2.349h-1.453a2.116,2.116,0,0,0-.66-1.432,2.053,2.053,0,0,0-1.465-.56,2.149,2.149,0,0,0-1.814.843,3.957,3.957,0,0,0-.643,2.436v.291a3.878,3.878,0,0,0,.639,2.391A2.16,2.16,0,0,0,113.272,16.913ZM124.113,18a3.226,3.226,0,0,1-.216-.946,3.426,3.426,0,0,1-2.557,1.112,3.17,3.17,0,0,1-2.179-.751,2.43,2.43,0,0,1-.851-1.905,2.539,2.539,0,0,1,1.067-2.179,5.029,5.029,0,0,1,3-.776h1.494v-.706a1.725,1.725,0,0,0-.481-1.282,1.935,1.935,0,0,0-1.419-.477,2.239,2.239,0,0,0-1.378.415,1.223,1.223,0,0,0-.556,1h-1.544a2.119,2.119,0,0,1,.477-1.3,3.258,3.258,0,0,1,1.295-.992,4.356,4.356,0,0,1,1.8-.365,3.551,3.551,0,0,1,2.432.776,2.8,2.8,0,0,1,.913,2.137V15.9a5.054,5.054,0,0,0,.315,1.967V18Zm-2.548-1.17a2.7,2.7,0,0,0,1.37-.374,2.259,2.259,0,0,0,.938-.971V13.642h-1.2q-2.822,0-2.822,1.652a1.4,1.4,0,0,0,.481,1.129A1.85,1.85,0,0,0,121.564,16.83ZM129.483,18h-1.536V5.25h1.536Zm4.125,0h-1.536V9.019h1.536Zm-1.66-11.364a.917.917,0,0,1,.228-.631.857.857,0,0,1,.677-.257.87.87,0,0,1,.681.257.907.907,0,0,1,.232.631.877.877,0,0,1-.232.623.886.886,0,0,1-.681.249.872.872,0,0,1-.677-.249A.886.886,0,0,1,131.948,6.636Zm5.562,10.11h5.254V18h-7.13V16.871l4.956-6.583h-4.881V9.019h6.807v1.087ZM150.036,18a3.226,3.226,0,0,1-.216-.946,3.426,3.426,0,0,1-2.557,1.112,3.17,3.17,0,0,1-2.179-.751,2.43,2.43,0,0,1-.851-1.905,2.539,2.539,0,0,1,1.067-2.179,5.029,5.029,0,0,1,3-.776H149.8v-.706a1.725,1.725,0,0,0-.481-1.282,1.935,1.935,0,0,0-1.419-.477,2.239,2.239,0,0,0-1.378.415,1.223,1.223,0,0,0-.556,1h-1.544a2.119,2.119,0,0,1,.477-1.3,3.258,3.258,0,0,1,1.295-.992,4.356,4.356,0,0,1,1.8-.365,3.551,3.551,0,0,1,2.432.776,2.8,2.8,0,0,1,.913,2.137V15.9a5.054,5.054,0,0,0,.315,1.967V18Zm-2.548-1.17a2.7,2.7,0,0,0,1.37-.374,2.259,2.259,0,0,0,.938-.971V13.642h-1.2q-2.822,0-2.822,1.652a1.4,1.4,0,0,0,.481,1.129A1.85,1.85,0,0,0,147.488,16.83Zm5.877-3.4a5.261,5.261,0,0,1,.979-3.324,3.333,3.333,0,0,1,5.063-.178V5.25h1.536V18h-1.411l-.075-.963a3.127,3.127,0,0,1-2.565,1.129,3.068,3.068,0,0,1-2.544-1.278,5.321,5.321,0,0,1-.984-3.337Zm1.536.174A3.984,3.984,0,0,0,155.531,16a2.039,2.039,0,0,0,1.743.863,2.24,2.24,0,0,0,2.133-1.312V11.426a2.257,2.257,0,0,0-2.117-1.27,2.049,2.049,0,0,0-1.76.872A4.386,4.386,0,0,0,154.9,13.609ZM168.87,18a3.226,3.226,0,0,1-.216-.946,3.426,3.426,0,0,1-2.557,1.112,3.17,3.17,0,0,1-2.179-.751,2.43,2.43,0,0,1-.851-1.905,2.539,2.539,0,0,1,1.067-2.179,5.029,5.029,0,0,1,3-.776h1.494v-.706a1.725,1.725,0,0,0-.481-1.282,1.935,1.935,0,0,0-1.419-.477,2.239,2.239,0,0,0-1.378.415,1.223,1.223,0,0,0-.556,1h-1.544a2.119,2.119,0,0,1,.477-1.3,3.258,3.258,0,0,1,1.295-.992,4.356,4.356,0,0,1,1.8-.365,3.551,3.551,0,0,1,2.432.776,2.8,2.8,0,0,1,.913,2.137V15.9a5.054,5.054,0,0,0,.315,1.967V18Zm-2.548-1.17a2.7,2.7,0,0,0,1.37-.374,2.259,2.259,0,0,0,.938-.971V13.642h-1.2q-2.822,0-2.822,1.652a1.4,1.4,0,0,0,.481,1.129A1.85,1.85,0,0,0,166.322,16.83Z" transform="translate(-8726 -1314.274)" fill="#12263f"/>
    <path id="Trazado_602628" data-name="Trazado 602628" d="M33.979,18h-1.6L26.292,8.687V18h-1.6V5.914h1.6l6.1,9.355V5.914h1.585Zm2.183-4.574a5.3,5.3,0,0,1,.519-2.374,3.87,3.87,0,0,1,1.444-1.627,3.932,3.932,0,0,1,2.113-.573,3.788,3.788,0,0,1,2.968,1.27A4.886,4.886,0,0,1,44.338,13.5v.108a5.351,5.351,0,0,1-.5,2.353A3.813,3.813,0,0,1,42.4,17.585a3.977,3.977,0,0,1-2.146.581,3.778,3.778,0,0,1-2.959-1.27,4.861,4.861,0,0,1-1.133-3.362Zm1.544.183a3.842,3.842,0,0,0,.693,2.4A2.349,2.349,0,0,0,42.113,16a4.2,4.2,0,0,0,.689-2.569,3.836,3.836,0,0,0-.7-2.395,2.23,2.23,0,0,0-1.864-.917,2.205,2.205,0,0,0-1.834.9A4.17,4.17,0,0,0,37.706,13.609ZM50.1,13.435a5.261,5.261,0,0,1,.979-3.324,3.333,3.333,0,0,1,5.063-.178V5.25h1.536V18H56.266l-.075-.963a3.127,3.127,0,0,1-2.565,1.129,3.068,3.068,0,0,1-2.544-1.278,5.321,5.321,0,0,1-.984-3.337Zm1.536.174A3.984,3.984,0,0,0,52.265,16a2.039,2.039,0,0,0,1.743.863,2.24,2.24,0,0,0,2.133-1.312V11.426a2.257,2.257,0,0,0-2.117-1.27,2.049,2.049,0,0,0-1.76.872A4.386,4.386,0,0,0,51.634,13.609ZM61.728,18H60.192V9.019h1.536ZM60.068,6.636a.917.917,0,0,1,.228-.631.857.857,0,0,1,.677-.257.87.87,0,0,1,.681.257.907.907,0,0,1,.232.631.877.877,0,0,1-.232.623.886.886,0,0,1-.681.249.872.872,0,0,1-.677-.249A.886.886,0,0,1,60.068,6.636Zm8.458,3.76a4.6,4.6,0,0,0-.755-.058,2.024,2.024,0,0,0-2.05,1.287V18H64.185V9.019h1.494l.025,1.038a2.391,2.391,0,0,1,2.142-1.2,1.569,1.569,0,0,1,.681.116Zm3.08,7.6H70.07V9.019h1.536ZM69.946,6.636a.917.917,0,0,1,.228-.631.857.857,0,0,1,.677-.257.87.87,0,0,1,.681.257.907.907,0,0,1,.232.631.877.877,0,0,1-.232.623.886.886,0,0,1-.681.249.872.872,0,0,1-.677-.249A.886.886,0,0,1,69.946,6.636Zm3.752,6.8a5.279,5.279,0,0,1,.971-3.341,3.348,3.348,0,0,1,5.138-.079l.075-1h1.4v8.766a3.654,3.654,0,0,1-1.033,2.748,3.814,3.814,0,0,1-2.777,1,4.619,4.619,0,0,1-1.9-.415,3.272,3.272,0,0,1-1.419-1.137l.8-.921a3,3,0,0,0,2.416,1.22,2.353,2.353,0,0,0,1.747-.631,2.411,2.411,0,0,0,.627-1.776V17.1a3.156,3.156,0,0,1-2.515,1.063,3.068,3.068,0,0,1-2.552-1.27A5.55,5.55,0,0,1,73.7,13.435Zm1.544.174A4.027,4.027,0,0,0,75.864,16a2.023,2.023,0,0,0,1.743.867,2.249,2.249,0,0,0,2.133-1.32v-4.1a2.276,2.276,0,0,0-2.117-1.287,2.041,2.041,0,0,0-1.751.872A4.386,4.386,0,0,0,75.242,13.609ZM85.269,18H83.733V9.019h1.536ZM83.609,6.636a.917.917,0,0,1,.228-.631.857.857,0,0,1,.677-.257.87.87,0,0,1,.681.257.907.907,0,0,1,.232.631.877.877,0,0,1-.232.623.886.886,0,0,1-.681.249.872.872,0,0,1-.677-.249A.886.886,0,0,1,83.609,6.636Zm3.744,6.8a5.261,5.261,0,0,1,.979-3.324A3.333,3.333,0,0,1,93.4,9.932V5.25h1.536V18H93.52l-.075-.963a3.127,3.127,0,0,1-2.565,1.129,3.068,3.068,0,0,1-2.544-1.278,5.321,5.321,0,0,1-.984-3.337Zm1.536.174A3.984,3.984,0,0,0,89.519,16a2.039,2.039,0,0,0,1.743.863A2.24,2.24,0,0,0,93.4,15.551V11.426a2.257,2.257,0,0,0-2.117-1.27,2.049,2.049,0,0,0-1.76.872A4.386,4.386,0,0,0,88.888,13.609ZM102.858,18a3.226,3.226,0,0,1-.216-.946,3.426,3.426,0,0,1-2.557,1.112,3.17,3.17,0,0,1-2.179-.751,2.43,2.43,0,0,1-.851-1.905,2.539,2.539,0,0,1,1.067-2.179,5.029,5.029,0,0,1,3-.776h1.494v-.706a1.725,1.725,0,0,0-.481-1.282,1.935,1.935,0,0,0-1.419-.477,2.239,2.239,0,0,0-1.378.415,1.223,1.223,0,0,0-.556,1H97.239a2.119,2.119,0,0,1,.477-1.3,3.258,3.258,0,0,1,1.295-.992,4.356,4.356,0,0,1,1.8-.365,3.551,3.551,0,0,1,2.432.776,2.8,2.8,0,0,1,.913,2.137V15.9a5.054,5.054,0,0,0,.315,1.967V18Zm-2.548-1.17a2.7,2.7,0,0,0,1.37-.374,2.259,2.259,0,0,0,.938-.971V13.642h-1.2q-2.822,0-2.822,1.652a1.4,1.4,0,0,0,.481,1.129A1.85,1.85,0,0,0,100.31,16.83Zm10.052-3.4a5.3,5.3,0,0,1,.519-2.374,3.87,3.87,0,0,1,1.444-1.627,3.932,3.932,0,0,1,2.113-.573,3.788,3.788,0,0,1,2.968,1.27,4.886,4.886,0,0,1,1.133,3.378v.108a5.351,5.351,0,0,1-.5,2.353,3.813,3.813,0,0,1-1.436,1.623,3.977,3.977,0,0,1-2.146.581A3.778,3.778,0,0,1,111.5,16.9a4.861,4.861,0,0,1-1.133-3.362Zm1.544.183a3.842,3.842,0,0,0,.693,2.4A2.349,2.349,0,0,0,116.314,16,4.2,4.2,0,0,0,117,13.426a3.836,3.836,0,0,0-.7-2.395,2.23,2.23,0,0,0-1.864-.917,2.205,2.205,0,0,0-1.834.9A4.17,4.17,0,0,0,111.906,13.609ZM128.4,18.166a3.924,3.924,0,0,1-2.972-1.2,4.452,4.452,0,0,1-1.146-3.208v-.282a5.39,5.39,0,0,1,.51-2.386,3.982,3.982,0,0,1,1.428-1.644,3.59,3.59,0,0,1,1.988-.594,3.364,3.364,0,0,1,2.723,1.154,5,5,0,0,1,.971,3.3v.639h-6.084a3.193,3.193,0,0,0,.776,2.146,2.44,2.44,0,0,0,1.888.818,2.675,2.675,0,0,0,1.378-.332,3.462,3.462,0,0,0,.988-.88l.938.73A3.772,3.772,0,0,1,128.4,18.166Zm-.191-8.052a2.048,2.048,0,0,0-1.561.677,3.288,3.288,0,0,0-.78,1.9h4.5v-.116a2.925,2.925,0,0,0-.631-1.814A1.928,1.928,0,0,0,128.209,10.114Zm6.923-1.1.05,1.129a3.273,3.273,0,0,1,2.689-1.295q2.847,0,2.872,3.212V18h-1.536V12.057a2.068,2.068,0,0,0-.444-1.436,1.78,1.78,0,0,0-1.357-.465,2.216,2.216,0,0,0-1.312.4,2.706,2.706,0,0,0-.88,1.046V18h-1.536V9.019Zm19.723,4.59a5.378,5.378,0,0,1-.938,3.3,3.006,3.006,0,0,1-2.54,1.253,3.294,3.294,0,0,1-2.573-1.038v4.325h-1.536V9.019h1.4l.075,1a3.163,3.163,0,0,1,2.606-1.162,3.063,3.063,0,0,1,2.561,1.22,5.437,5.437,0,0,1,.942,3.4Zm-1.536-.174a3.968,3.968,0,0,0-.647-2.4,2.086,2.086,0,0,0-1.776-.88,2.257,2.257,0,0,0-2.092,1.237v4.292a2.262,2.262,0,0,0,2.108,1.229,2.076,2.076,0,0,0,1.756-.876A4.332,4.332,0,0,0,153.319,13.435Zm7.828-3.038a4.6,4.6,0,0,0-.755-.058,2.024,2.024,0,0,0-2.05,1.287V18h-1.536V9.019H158.3l.025,1.038a2.391,2.391,0,0,1,2.142-1.2,1.569,1.569,0,0,1,.681.116Zm.838,3.03a5.3,5.3,0,0,1,.519-2.374,3.87,3.87,0,0,1,1.444-1.627,3.932,3.932,0,0,1,2.113-.573,3.788,3.788,0,0,1,2.968,1.27,4.886,4.886,0,0,1,1.133,3.378v.108a5.351,5.351,0,0,1-.5,2.353,3.813,3.813,0,0,1-1.436,1.623,3.977,3.977,0,0,1-2.146.581,3.778,3.778,0,0,1-2.959-1.27,4.861,4.861,0,0,1-1.133-3.362Zm1.544.183a3.842,3.842,0,0,0,.693,2.4A2.349,2.349,0,0,0,167.937,16a4.2,4.2,0,0,0,.689-2.569,3.836,3.836,0,0,0-.7-2.395,2.23,2.23,0,0,0-1.864-.917,2.205,2.205,0,0,0-1.834.9A4.17,4.17,0,0,0,163.529,13.609ZM172.842,18V10.206h-1.419V9.019h1.419V8.1a3.058,3.058,0,0,1,.772-2.233,2.916,2.916,0,0,1,2.183-.789,4.055,4.055,0,0,1,1.054.14l-.083,1.238a4.41,4.41,0,0,0-.83-.075,1.5,1.5,0,0,0-1.154.437,1.773,1.773,0,0,0-.407,1.253v.949H176.3v1.187h-1.917V18Zm10.691-.888a3.262,3.262,0,0,1-2.631,1.054,2.792,2.792,0,0,1-2.187-.834,3.611,3.611,0,0,1-.76-2.469V9.019h1.536v5.8q0,2.042,1.66,2.042a2.3,2.3,0,0,0,2.341-1.312V9.019h1.536V18h-1.461Zm5.279-8.093.05,1.129a3.273,3.273,0,0,1,2.689-1.295q2.847,0,2.872,3.212V18h-1.536V12.057a2.068,2.068,0,0,0-.444-1.436,1.78,1.78,0,0,0-1.357-.465,2.216,2.216,0,0,0-1.312.4,2.706,2.706,0,0,0-.88,1.046V18H187.36V9.019Zm7.554,4.416a5.261,5.261,0,0,1,.979-3.324,3.333,3.333,0,0,1,5.063-.178V5.25h1.536V18h-1.411l-.075-.963a3.127,3.127,0,0,1-2.565,1.129,3.068,3.068,0,0,1-2.544-1.278,5.321,5.321,0,0,1-.984-3.337Zm1.536.174A3.984,3.984,0,0,0,198.533,16a2.039,2.039,0,0,0,1.743.863,2.24,2.24,0,0,0,2.133-1.312V11.426a2.257,2.257,0,0,0-2.117-1.27,2.049,2.049,0,0,0-1.76.872A4.386,4.386,0,0,0,197.9,13.609ZM208,18H206.46V9.019H208Zm-1.66-11.364a.917.917,0,0,1,.228-.631.857.857,0,0,1,.677-.257.87.87,0,0,1,.681.257.907.907,0,0,1,.232.631.877.877,0,0,1-.232.623.886.886,0,0,1-.681.249.872.872,0,0,1-.677-.249A.886.886,0,0,1,206.336,6.636Zm3.744,6.8a5.261,5.261,0,0,1,.979-3.324,3.333,3.333,0,0,1,5.063-.178V5.25h1.536V18h-1.411l-.075-.963a3.127,3.127,0,0,1-2.565,1.129,3.068,3.068,0,0,1-2.544-1.278,5.321,5.321,0,0,1-.984-3.337Zm1.536.174A3.984,3.984,0,0,0,212.246,16a2.039,2.039,0,0,0,1.743.863,2.24,2.24,0,0,0,2.133-1.312V11.426a2.257,2.257,0,0,0-2.117-1.27,2.049,2.049,0,0,0-1.76.872A4.386,4.386,0,0,0,211.615,13.609ZM225.585,18a3.226,3.226,0,0,1-.216-.946,3.426,3.426,0,0,1-2.557,1.112,3.17,3.17,0,0,1-2.179-.751,2.43,2.43,0,0,1-.851-1.905,2.539,2.539,0,0,1,1.067-2.179,5.029,5.029,0,0,1,3-.776h1.494v-.706a1.725,1.725,0,0,0-.481-1.282,1.935,1.935,0,0,0-1.419-.477,2.239,2.239,0,0,0-1.378.415,1.223,1.223,0,0,0-.556,1h-1.544a2.119,2.119,0,0,1,.477-1.3,3.258,3.258,0,0,1,1.295-.992,4.356,4.356,0,0,1,1.8-.365,3.551,3.551,0,0,1,2.432.776,2.8,2.8,0,0,1,.913,2.137V15.9a5.054,5.054,0,0,0,.315,1.967V18Zm-2.548-1.17a2.7,2.7,0,0,0,1.37-.374,2.259,2.259,0,0,0,.938-.971V13.642h-1.2q-2.822,0-2.822,1.652a1.4,1.4,0,0,0,.481,1.129A1.85,1.85,0,0,0,223.037,16.83Zm5.877-3.4a5.261,5.261,0,0,1,.979-3.324,3.333,3.333,0,0,1,5.063-.178V5.25h1.536V18h-1.411l-.075-.963a3.127,3.127,0,0,1-2.565,1.129,3.068,3.068,0,0,1-2.544-1.278,5.321,5.321,0,0,1-.984-3.337Zm1.536.174A3.984,3.984,0,0,0,231.081,16a2.039,2.039,0,0,0,1.743.863,2.24,2.24,0,0,0,2.133-1.312V11.426a2.257,2.257,0,0,0-2.117-1.27,2.049,2.049,0,0,0-1.76.872A4.386,4.386,0,0,0,230.45,13.609Z" transform="translate(-8726 -1231.618)" fill="#12263f"/>
    <path id="Trazado_602629" data-name="Trazado 602629" d="M4,0A4,4,0,1,1,0,4,4,4,0,0,1,4,0Z" transform="translate(-8834.5 -1414.391)" fill="#f3ab1d"/>
    <path id="Trazado_602630" data-name="Trazado 602630" d="M4,0A4,4,0,1,1,0,4,4,4,0,0,1,4,0Z" transform="translate(-8834.5 -1486.341)" fill="#f3ab1d"/>
    <path id="Trazado_602631" data-name="Trazado 602631" d="M4,0A4,4,0,1,1,0,4,4,4,0,0,1,4,0Z" transform="translate(-8834.5 -1564.341)" fill="#f3ab1d"/>
    <path id="Trazado_602632" data-name="Trazado 602632" d="M4,0A4,4,0,1,1,0,4,4,4,0,0,1,4,0Z" transform="translate(-8591 -1260.954) rotate(90)" fill="#f3ab1d"/>
    <path id="Trazado_602633" data-name="Trazado 602633" d="M4,0A4,4,0,1,1,0,4,4,4,0,0,1,4,0Z" transform="translate(-8591 -1343.609) rotate(90)" fill="#f3ab1d"/>
    <path id="Trazado_596828" data-name="Trazado 596828" d="M0,47.558V0" transform="translate(-8879.93 -1482.341) rotate(-90)" fill="none" stroke="#f3ab1d" stroke-width="2"/>
    <path id="Trazado_596828-2" data-name="Trazado 596828" d="M0,47.558V0" transform="translate(-8879.93 -1560.341) rotate(-90)" fill="none" stroke="#f3ab1d" stroke-width="2"/>
    <path id="Trazado_596828-3" data-name="Trazado 596828" d="M0,21.858V0" transform="translate(-8595 -1280.683)" fill="none" stroke="#f3ab1d" stroke-width="2"/>
    <path id="Trazado_596828-4" data-name="Trazado 596828" d="M0,21.858V0H-107.226V-31.191" transform="translate(-8595 -1363.339)" fill="none" stroke="#f3ab1d" stroke-width="2"/>
    <g id="Grupo_151737" data-name="Grupo 151737" transform="translate(-8847.5 -1697.803)">
      <path id="Trazado_596477" data-name="Trazado 596477" d="M246.651,277.065a10.21,10.21,0,0,0-14.643-9.194l-44.492,19.453a9.253,9.253,0,0,0-2.868,1.254l-.007,0h0a9.3,9.3,0,0,0,.342,15.765h0l.008,0a9.247,9.247,0,0,0,2.5,1.032l41.322,17.065q.442.207.905.374l.018.007h0a10.386,10.386,0,0,0,13.8-8.667h0l0-.021c.007-.071.012-.142.018-.212l3.024-35.718c.022-.2.04-.395.05-.6l.015-.178-.009-.012C246.646,277.3,246.651,277.185,246.651,277.065Zm-7.116,1.854c-.385,3.792-2.885,34.535-2.885,34.535a2.745,2.745,0,0,1-1.291,2.061,3.955,3.955,0,0,1-3.627.577c-1.483-.412-42.2-17.831-42.2-17.831s-2.2-.806-2.124-2.125.952-1.392,3-2.418,44.947-19.8,44.947-19.8a3.226,3.226,0,0,1,3.3.275C240.031,275.4,239.921,275.128,239.536,278.919Z" transform="translate(-180.449 -263.015)" fill="#acb305"/>
      <path id="Trazado_596478" data-name="Trazado 596478" d="M246.651,270.829a10.21,10.21,0,0,0-14.643-9.194l-44.492,19.453a9.241,9.241,0,0,0-2.868,1.254l-.007,0h0a9.3,9.3,0,0,0,.342,15.764h0l.008,0a9.251,9.251,0,0,0,2.5,1.032l41.322,17.065q.442.207.905.374l.018.007h0a10.387,10.387,0,0,0,13.8-8.667h0l0-.021c.007-.07.012-.142.018-.212l3.024-35.718c.022-.2.04-.4.05-.6l.015-.177-.009-.013C246.646,271.068,246.651,270.949,246.651,270.829Zm-7.116,1.854c-.385,3.792-2.885,34.535-2.885,34.535a2.745,2.745,0,0,1-1.291,2.061,3.955,3.955,0,0,1-3.627.577c-1.483-.412-42.2-17.83-42.2-17.83s-2.2-.806-2.124-2.124.952-1.392,3-2.418,44.947-19.8,44.947-19.8a3.225,3.225,0,0,1,3.3.275C240.031,269.167,239.921,268.892,239.536,272.684Z" transform="translate(-180.449 -260.623)" fill="#c0d400" stroke="#ebf16a" stroke-width="0.4"/>
    </g>
    <path id="Trazado_602485" data-name="Trazado 602485" d="M-8717.937-1944.694v26.252H-8922.93v202.369h46.612" transform="translate(43 305)" fill="none" stroke="#f3ab1d" stroke-width="2"/>
    <path id="Trazado_602634" data-name="Trazado 602634" d="M0,0H247.335V42H0Z" transform="translate(-8573.665 -1393.391) rotate(180)" fill="#f2f5d1"/>
    <path id="Trazado_602635" data-name="Trazado 602635" d="M63.516,18h-2.49l-4.848-7.952V18h-2.49V5.914h2.49l4.856,7.969V5.914h2.482Zm1.644-4.574a5.326,5.326,0,0,1,.515-2.382,3.768,3.768,0,0,1,1.482-1.619A4.323,4.323,0,0,1,69.4,8.853a4.09,4.09,0,0,1,2.968,1.112,4.464,4.464,0,0,1,1.282,3.021l.017.614a4.694,4.694,0,0,1-1.154,3.316,4.472,4.472,0,0,1-6.2,0,4.777,4.777,0,0,1-1.158-3.387Zm2.4.17a3.357,3.357,0,0,0,.481,1.958,1.73,1.73,0,0,0,2.739.008,3.674,3.674,0,0,0,.49-2.141,3.324,3.324,0,0,0-.49-1.945,1.592,1.592,0,0,0-1.378-.69,1.566,1.566,0,0,0-1.361.686A3.736,3.736,0,0,0,67.559,13.6Zm15.954,4.569A4.409,4.409,0,0,1,80.3,16.954a4.308,4.308,0,0,1-1.241-3.229v-.232a5.426,5.426,0,0,1,.523-2.42A3.838,3.838,0,0,1,81.06,9.429a4.159,4.159,0,0,1,2.187-.577,3.727,3.727,0,0,1,2.9,1.162,4.722,4.722,0,0,1,1.058,3.3v.979H81.487a2.229,2.229,0,0,0,.7,1.411,2.12,2.12,0,0,0,1.482.531,2.589,2.589,0,0,0,2.167-1l1.179,1.32a3.6,3.6,0,0,1-1.461,1.191A4.793,4.793,0,0,1,83.513,18.166Zm-.274-7.379a1.5,1.5,0,0,0-1.158.484,2.5,2.5,0,0,0-.569,1.384h3.337v-.192a1.786,1.786,0,0,0-.432-1.238A1.547,1.547,0,0,0,83.239,10.787Zm10.193,4.731A.773.773,0,0,0,93,14.825a4.95,4.95,0,0,0-1.4-.452q-3.2-.672-3.2-2.723a2.468,2.468,0,0,1,.992-2,4,4,0,0,1,2.594-.8,4.307,4.307,0,0,1,2.735.805A2.538,2.538,0,0,1,95.74,11.75h-2.4a1.161,1.161,0,0,0-.332-.851,1.405,1.405,0,0,0-1.038-.336,1.436,1.436,0,0,0-.938.274.865.865,0,0,0-.332.7.739.739,0,0,0,.378.643,3.885,3.885,0,0,0,1.274.423,10.407,10.407,0,0,1,1.511.4,2.482,2.482,0,0,1,1.9,2.416,2.343,2.343,0,0,1-1.054,1.988,4.548,4.548,0,0,1-2.723.76,4.75,4.75,0,0,1-2-.4,3.363,3.363,0,0,1-1.374-1.1,2.565,2.565,0,0,1-.5-1.515h2.274a1.252,1.252,0,0,0,.473.979,1.877,1.877,0,0,0,1.179.34,1.737,1.737,0,0,0,1.042-.261A.814.814,0,0,0,93.432,15.518Zm6.749-8.708V9.019h1.536v1.76h-1.536v4.482a1.07,1.07,0,0,0,.191.714.959.959,0,0,0,.73.216,3.826,3.826,0,0,0,.706-.058V17.95a4.938,4.938,0,0,1-1.453.216,2.29,2.29,0,0,1-2.573-2.548V10.778H96.47V9.019h1.312V6.811Zm7.919,4.458a6.517,6.517,0,0,0-.863-.066,1.757,1.757,0,0,0-1.785.921V18h-2.4V9.019h2.266l.066,1.071a2.223,2.223,0,0,1,2-1.237,2.514,2.514,0,0,1,.747.108Zm6.533,5.819a3.008,3.008,0,0,1-2.457,1.079,2.837,2.837,0,0,1-2.2-.83A3.543,3.543,0,0,1,109.2,14.9V9.019h2.4v5.809q0,1.4,1.278,1.4a1.732,1.732,0,0,0,1.677-.848V9.019h2.407V18H114.7Zm7.869-.855a1.573,1.573,0,0,0,1.079-.365,1.28,1.28,0,0,0,.432-.971h2.25a3.077,3.077,0,0,1-.5,1.673,3.286,3.286,0,0,1-1.341,1.179,4.2,4.2,0,0,1-1.88.419,3.9,3.9,0,0,1-3.038-1.224,4.845,4.845,0,0,1-1.112-3.383V13.4a4.79,4.79,0,0,1,1.1-3.312,3.854,3.854,0,0,1,3.03-1.237,3.778,3.778,0,0,1,2.7.959,3.4,3.4,0,0,1,1.033,2.552h-2.25a1.648,1.648,0,0,0-.432-1.139,1.6,1.6,0,0,0-2.362.173,3.541,3.541,0,0,0-.427,1.983v.249a3.586,3.586,0,0,0,.423,2A1.463,1.463,0,0,0,122.5,16.232Zm8-9.421V9.019h1.536v1.76H130.5v4.482a1.07,1.07,0,0,0,.191.714.959.959,0,0,0,.73.216,3.826,3.826,0,0,0,.706-.058V17.95a4.939,4.939,0,0,1-1.453.216,2.29,2.29,0,0,1-2.573-2.548V10.778h-1.312V9.019H128.1V6.811Zm8.251,10.276a3.008,3.008,0,0,1-2.457,1.079,2.837,2.837,0,0,1-2.2-.83,3.543,3.543,0,0,1-.776-2.432V9.019h2.4v5.809q0,1.4,1.278,1.4a1.732,1.732,0,0,0,1.677-.848V9.019h2.407V18h-2.258Zm9.181-5.819a6.517,6.517,0,0,0-.863-.066,1.757,1.757,0,0,0-1.785.921V18h-2.4V9.019h2.266l.066,1.071a2.223,2.223,0,0,1,2-1.237,2.514,2.514,0,0,1,.747.108ZM154.044,18a2.664,2.664,0,0,1-.241-.805,2.9,2.9,0,0,1-2.266.971,3.189,3.189,0,0,1-2.187-.764,2.456,2.456,0,0,1-.867-1.926,2.538,2.538,0,0,1,1.058-2.191,5.222,5.222,0,0,1,3.059-.772h1.1V12a1.48,1.48,0,0,0-.32-1,1.257,1.257,0,0,0-1.009-.374,1.429,1.429,0,0,0-.95.291.987.987,0,0,0-.344.8h-2.4a2.41,2.41,0,0,1,.481-1.444,3.182,3.182,0,0,1,1.361-1.042,4.961,4.961,0,0,1,1.976-.378,3.92,3.92,0,0,1,2.635.834,2.918,2.918,0,0,1,.975,2.345v3.893a4.294,4.294,0,0,0,.357,1.934V18Zm-1.984-1.668a2.066,2.066,0,0,0,.979-.237,1.554,1.554,0,0,0,.664-.635V13.916h-.9q-1.8,0-1.917,1.245l-.008.141a.96.96,0,0,0,.315.739A1.225,1.225,0,0,0,152.061,16.332Zm5.52-2.889a5.413,5.413,0,0,1,.942-3.345A3.057,3.057,0,0,1,161.1,8.853a2.751,2.751,0,0,1,2.167.979V5.25h2.407V18h-2.167l-.116-.955a2.823,2.823,0,0,1-2.308,1.121,3.049,3.049,0,0,1-2.544-1.249A5.587,5.587,0,0,1,157.581,13.443Zm2.4.179a3.546,3.546,0,0,0,.44,1.937,1.433,1.433,0,0,0,1.278.673,1.605,1.605,0,0,0,1.569-.939v-3.55a1.582,1.582,0,0,0-1.552-.939Q159.979,10.8,159.979,13.621ZM172.738,18a2.664,2.664,0,0,1-.241-.805,2.9,2.9,0,0,1-2.266.971,3.189,3.189,0,0,1-2.187-.764,2.456,2.456,0,0,1-.867-1.926,2.538,2.538,0,0,1,1.058-2.191,5.222,5.222,0,0,1,3.059-.772h1.1V12a1.48,1.48,0,0,0-.32-1,1.257,1.257,0,0,0-1.009-.374,1.429,1.429,0,0,0-.95.291.987.987,0,0,0-.344.8h-2.4a2.41,2.41,0,0,1,.481-1.444,3.182,3.182,0,0,1,1.361-1.042,4.961,4.961,0,0,1,1.976-.378,3.92,3.92,0,0,1,2.635.834,2.918,2.918,0,0,1,.975,2.345v3.893a4.294,4.294,0,0,0,.357,1.934V18Zm-1.984-1.668a2.066,2.066,0,0,0,.979-.237,1.554,1.554,0,0,0,.664-.635V13.916h-.9q-1.8,0-1.917,1.245l-.008.141a.96.96,0,0,0,.315.739A1.225,1.225,0,0,0,170.754,16.332Z" transform="translate(-8819 -1423.704)" fill="#12263f"/>
    <path id="Trazado_602636" data-name="Trazado 602636" d="M2.5,0A2.5,2.5,0,1,1,0,2.5,2.5,2.5,0,0,1,2.5,0Z" transform="translate(-8587.665 -1429.39)" fill="#b5c500"/>
    <path id="Trazado_602637" data-name="Trazado 602637" d="M2.5,0A2.5,2.5,0,1,1,0,2.5,2.5,2.5,0,0,1,2.5,0Z" transform="translate(-8587.665 -1417.39)" fill="#b5c500"/>
    <path id="Trazado_602638" data-name="Trazado 602638" d="M2.5,0A2.5,2.5,0,1,1,0,2.5,2.5,2.5,0,0,1,2.5,0Z" transform="translate(-8587.665 -1405.39)" fill="#b5c500"/>
    <path id="Trazado_602639" data-name="Trazado 602639" d="M2.5,0A2.5,2.5,0,1,1,0,2.5,2.5,2.5,0,0,1,2.5,0Z" transform="translate(-8575.665 -1429.39)" fill="#b5c500"/>
    <path id="Trazado_602640" data-name="Trazado 602640" d="M2.5,0A2.5,2.5,0,1,1,0,2.5,2.5,2.5,0,0,1,2.5,0Z" transform="translate(-8564.665 -1429.39)" fill="#b5c500"/>
    <path id="Trazado_602641" data-name="Trazado 602641" d="M2.5,0A2.5,2.5,0,1,1,0,2.5,2.5,2.5,0,0,1,2.5,0Z" transform="translate(-8575.665 -1417.39)" fill="#b5c500"/>
    <path id="Trazado_602642" data-name="Trazado 602642" d="M2.5,0A2.5,2.5,0,1,1,0,2.5,2.5,2.5,0,0,1,2.5,0Z" transform="translate(-8564.665 -1417.39)" fill="#b5c500"/>
    <path id="Trazado_602643" data-name="Trazado 602643" d="M2.5,0A2.5,2.5,0,1,1,0,2.5,2.5,2.5,0,0,1,2.5,0Z" transform="translate(-8575.665 -1405.39)" fill="#b5c500"/>
    <path id="Trazado_602644" data-name="Trazado 602644" d="M2.5,0A2.5,2.5,0,1,1,0,2.5,2.5,2.5,0,0,1,2.5,0Z" transform="translate(-8564.665 -1405.39)" fill="#b5c500"/>
  </g>
</svg>
