<svg xmlns="http://www.w3.org/2000/svg" xmlns:xlink="http://www.w3.org/1999/xlink" width="258" height="244.934" viewBox="0 0 258 244.934">
  <defs>
    <clipPath id="clip-path">
      <rect id="Rectángulo_293205" data-name="Rectángulo 293205" width="243.412" height="244.934" fill="none"/>
    </clipPath>
    <clipPath id="clip-path-2">
      <rect id="Rectángulo_293204" data-name="Rectángulo 293204" width="243.413" height="244.934" fill="none"/>
    </clipPath>
    <clipPath id="clip-path-3">
      <rect id="Rectángulo_293199" data-name="Rectángulo 293199" width="77.232" height="89.561" fill="none"/>
    </clipPath>
    <clipPath id="clip-path-4">
      <rect id="Rectángulo_293202" data-name="Rectángulo 293202" width="77.032" height="37.955" fill="none"/>
    </clipPath>
  </defs>
  <g id="Grupo_877532" data-name="Grupo 877532" transform="translate(-322 -17582.289)">
    <g id="Grupo_877095" data-name="Grupo 877095" transform="translate(336.587 17582.289)">
      <g id="Grupo_877094" data-name="Grupo 877094" clip-path="url(#clip-path)">
        <g id="Grupo_877093" data-name="Grupo 877093" transform="translate(0 0)">
          <g id="Grupo_877092" data-name="Grupo 877092" clip-path="url(#clip-path-2)">
            <path id="Trazado_601316" data-name="Trazado 601316" d="M744.138,353.46H651.5c-23.761,1.581-23.656,27.756-23.656,27.756V506.295H720.6V381.216s.439-26.263,23.54-27.756" transform="translate(-542.101 -305.189)" fill="#3185af"/>
            <rect id="Rectángulo_293179" data-name="Rectángulo 293179" width="1.093" height="96.268" transform="translate(79.267 77.608)" fill="#3185af"/>
            <path id="Trazado_601317" data-name="Trazado 601317" d="M1005.787,47.761h-56.6V16.394h56.6Zm-55.512-1.093h54.42V17.487h-54.42Z" transform="translate(-819.555 -14.155)" fill="#5ad1a5"/>
            <path id="Trazado_601318" data-name="Trazado 601318" d="M230.55,236.045h-56.6V196.6h56.6Zm-55.512-1.093h54.42V197.69h-54.42Z" transform="translate(-150.19 -169.749)" fill="#5ad1a5"/>
            <path id="Trazado_601319" data-name="Trazado 601319" d="M1404.555,746.695h-56.6V715.211h56.6Zm-55.512-1.093h54.42V716.3h-54.42Z" transform="translate(-1163.865 -617.537)" fill="#5ad1a5"/>
            <path id="Trazado_601320" data-name="Trazado 601320" d="M717.018,341.025c-23.1,1.493-23.54,27.756-23.54,27.756V493.86H600.723V368.781s-.105-26.175,23.656-27.756Z" transform="translate(-518.684 -294.453)" fill="#fff9f5"/>
            <rect id="Rectángulo_293180" data-name="Rectángulo 293180" width="63.71" height="5.621" transform="translate(94.219 79.247)" fill="#afafaf"/>
            <rect id="Rectángulo_293181" data-name="Rectángulo 293181" width="54.4" height="3.982" transform="translate(94.219 92.247)" fill="#afafaf"/>
            <rect id="Rectángulo_293182" data-name="Rectángulo 293182" width="27.346" height="5.914" transform="translate(94.219 102.758)" fill="#afafaf"/>
            <rect id="Rectángulo_293183" data-name="Rectángulo 293183" width="28.283" height="5.914" transform="translate(129.646 102.758)" fill="#afafaf"/>
            <rect id="Rectángulo_293184" data-name="Rectángulo 293184" width="43.567" height="4.216" transform="translate(94.219 114.148)" fill="#ffdc94"/>
            <rect id="Rectángulo_293185" data-name="Rectángulo 293185" width="49.086" height="2.342" transform="translate(94.219 124.688)" fill="#ffdc94"/>
            <rect id="Rectángulo_293186" data-name="Rectángulo 293186" width="59.026" height="2.342" transform="translate(94.219 135.228)" fill="#afafaf"/>
            <path id="Trazado_601321" data-name="Trazado 601321" d="M716.166,1079.173H688.41v-13.292h27.756Zm-27.346-.41h26.937v-12.473H688.82Z" transform="translate(-594.396 -920.317)" fill="#ffdc94"/>
            <rect id="Rectángulo_293187" data-name="Rectángulo 293187" width="24.828" height="3.045" transform="translate(128.416 145.769)" fill="#ffdc94"/>
            <rect id="Rectángulo_293188" data-name="Rectángulo 293188" width="17.598" height="3.045" transform="translate(128.416 152.21)" fill="#afafaf"/>
            <rect id="Rectángulo_293189" data-name="Rectángulo 293189" width="53.082" height="2.342" transform="translate(94.219 166.849)" fill="#afafaf"/>
            <rect id="Rectángulo_293190" data-name="Rectángulo 293190" width="27.961" height="2.342" transform="translate(94.219 177.389)" fill="#afafaf"/>
            <path id="Trazado_601322" data-name="Trazado 601322" d="M1436.831,821.508l-2.735-4.479a.779.779,0,1,1,1.33-.812l1.934,3.167,5.143-3.044a.779.779,0,1,1,.794,1.341Z" transform="translate(-1238.147 -704.427)" fill="#3185af"/>
            <path id="Trazado_601323" data-name="Trazado 601323" d="M1406.1,783.479a9.838,9.838,0,1,1,9.838-9.838,9.849,9.849,0,0,1-9.838,9.838m0-18.27a8.432,8.432,0,1,0,8.432,8.432,8.442,8.442,0,0,0-8.432-8.432" transform="translate(-1205.579 -659.494)" fill="#3185af"/>
            <path id="Trazado_601324" data-name="Trazado 601324" d="M1010.933,89.027l.193,4.135,1.641-.076-.323-6.936-7.083.33.076,1.641,4.281-.2-7.548,8.285-7.853-7.155-1.106,1.214,9.068,8.261Z" transform="translate(-857.571 -74.384)" fill="#3185af"/>
            <rect id="Rectángulo_293191" data-name="Rectángulo 293191" width="41.512" height="3.162" transform="translate(33.413 38.084)" fill="#3185af"/>
            <rect id="Rectángulo_293192" data-name="Rectángulo 293192" width="17.466" height="3.162" transform="translate(33.413 44.992)" fill="#3185af"/>
            <rect id="Rectángulo_293193" data-name="Rectángulo 293193" width="38.888" height="3.162" transform="translate(33.413 51.9)" fill="#3185af"/>
            <rect id="Rectángulo_293194" data-name="Rectángulo 293194" width="15.879" height="3.162" transform="translate(214.437 108.381)" fill="#3185af"/>
            <rect id="Rectángulo_293195" data-name="Rectángulo 293195" width="17.817" height="3.162" transform="translate(214.437 115.289)" fill="#3185af"/>
            <rect id="Rectángulo_293196" data-name="Rectángulo 293196" width="20.202" height="3.162" transform="translate(159.979 9.433)" fill="#3185af"/>
            <rect id="Rectángulo_293197" data-name="Rectángulo 293197" width="15.879" height="3.162" transform="translate(159.979 16.341)" fill="#3185af"/>
            <rect id="Rectángulo_293198" data-name="Rectángulo 293198" width="17.817" height="3.162" transform="translate(159.979 23.249)" fill="#3185af"/>
            <path id="Trazado_601326" data-name="Trazado 601326" d="M1347.687,970.974H1330.51v-1.093h16.084V950.753h1.093Z" transform="translate(-1148.807 -820.912)" fill="#3185af"/>
            <path id="Trazado_601327" data-name="Trazado 601327" d="M846.509,267.325h-1.093v-5.579h37.242V257.84h1.093v5H846.509Z" transform="translate(-729.96 -222.628)" fill="#3185af"/>
            <path id="Trazado_601328" data-name="Trazado 601328" d="M425.034,541.827H405.486V499.674h1.093v41.06h18.456Z" transform="translate(-350.11 -431.436)" fill="#3185af"/>
            <path id="Trazado_601329" data-name="Trazado 601329" d="M1323.622,424.121h-1.093V411.385c-.015-.211-1.374-24.651,19.25-28.207l.186,1.077c-19.666,3.391-18.36,26.858-18.345,27.094Z" transform="translate(-1141.896 -330.849)" fill="#3185af"/>
            <path id="Trazado_601330" data-name="Trazado 601330" d="M1628.979,718.8h-1.093V697.216h-23.169v-1.093h24.262Z" transform="translate(-1385.566 -601.057)" fill="#5ad1a5"/>
            <path id="Trazado_601331" data-name="Trazado 601331" d="M173.883,377.807H151.861V357.059h1.093v19.656h20.929Z" transform="translate(-131.122 -308.297)" fill="#5ad1a5"/>
            <path id="Trazado_601332" data-name="Trazado 601332" d="M931.555,16.344h-1.093V0h27.326V1.1H931.555Z" transform="translate(-803.392 -0.002)" fill="#5ad1a5"/>
            <path id="Trazado_601333" data-name="Trazado 601333" d="M1207.772,1300.689h-20.046V1299.6h18.953v-30.372h1.093Z" transform="translate(-1025.523 -1095.891)" fill="#ffc155"/>
            <path id="Trazado_601334" data-name="Trazado 601334" d="M1111.733,1233.741h-17.479v-17.479h17.479Zm-15.84-1.639h14.2v-14.2h-14.2Z" transform="translate(-944.815 -1050.161)" fill="#ffdc94"/>
            <path id="Trazado_601335" data-name="Trazado 601335" d="M1121.407,1234.126l-6.145-5.793,1.874-1.988,4.4,4.144,9.611-7.9,1.734,2.11Z" transform="translate(-962.954 -1055.627)" fill="#ffdc94"/>
            <g id="Grupo_877088" data-name="Grupo 877088" transform="translate(82.039 109.846)" opacity="0.24" style="mix-blend-mode: hard-light;isolation: isolate">
              <g id="Grupo_877087" data-name="Grupo 877087">
                <g id="Grupo_877086" data-name="Grupo 877086" clip-path="url(#clip-path-3)">
                  <path id="Trazado_601336" data-name="Trazado 601336" d="M671.565,827.841a47.229,47.229,0,0,0-70.841-12.715v10.825a39.46,39.46,0,0,1,69.454,24.1c.018.489.028.973.028,1.462a39.454,39.454,0,0,1-69.482,25.62v10.835a46.668,46.668,0,0,0,9.216,5.938H651.57c.973-.478,1.932-.995,2.885-1.546a47.2,47.2,0,0,0,17.11-64.514" transform="translate(-600.723 -804.34)" fill="#3f444f"/>
                </g>
              </g>
            </g>
            <rect id="Rectángulo_293200" data-name="Rectángulo 293200" width="76.274" height="12.967" transform="translate(0 234.972) rotate(-39.808)" fill="#3185af"/>
            <rect id="Rectángulo_293201" data-name="Rectángulo 293201" width="4.074" height="9.843" transform="translate(59.593 187.341) rotate(-39.807)" fill="#71c6f0"/>
            <path id="Trazado_601337" data-name="Trazado 601337" d="M391.935,875.242a47.2,47.2,0,1,0,17.112-64.514,47.2,47.2,0,0,0-17.112,64.514m6.7-3.892a39.445,39.445,0,1,1,73.536-21.306h0a39.451,39.451,0,0,1-73.535,21.305" transform="translate(-332.892 -694.492)" fill="#494f5c"/>
            <g id="Grupo_877091" data-name="Grupo 877091" transform="translate(62.248 117.597)" opacity="0.3">
              <g id="Grupo_877090" data-name="Grupo 877090">
                <g id="Grupo_877089" data-name="Grupo 877089" clip-path="url(#clip-path-4)">
                  <path id="Trazado_601338" data-name="Trazado 601338" d="M455.807,888.647s41.081-31.193,77.032,10.4h0a39.45,39.45,0,0,0-77.032-10.4" transform="translate(-455.807 -861.095)" fill="#c2c2c2"/>
                </g>
              </g>
            </g>
            <path id="Trazado_601339" data-name="Trazado 601339" d="M705.668,1055.424c-1.312.526-.563,3.229-.693,8.158s-3.76,5.821-3.76,5.821a9.761,9.761,0,0,0,1.924-3.614c.325-1.728-3.263-6.093-1.7-9.52,1.211-2.647,4.388-.944,4.388-.944Z" transform="translate(-605.306 -910.737)" fill="#754836"/>
            <path id="Trazado_601340" data-name="Trazado 601340" d="M880.81,1239.663a2.679,2.679,0,0,0-1.026-.153c-.38.071.719-1.89.719-1.89Z" transform="translate(-759.566 -1068.602)" fill="#eea886"/>
            <path id="Trazado_601341" data-name="Trazado 601341" d="M883.968,1229.9s1.017-.894,1.176-1.026a3.258,3.258,0,0,1,1.4-.2,3.781,3.781,0,0,1,1.632.375.58.58,0,0,1,.17.455,1.118,1.118,0,0,1-.168.541.681.681,0,0,1-.06.654.592.592,0,0,1-.17.637.5.5,0,0,1-.115.535,4.482,4.482,0,0,0-.783.14,9.448,9.448,0,0,1-2.575-.021s-1.289-.106-.508-2.1" transform="translate(-763.031 -1060.882)" fill="#eea886"/>
            <path id="Trazado_601342" data-name="Trazado 601342" d="M897.179,1239.617a3.33,3.33,0,0,1-.422.768c-.162.14,1.03.926,1.03.926s.148-1.359-.608-1.695" transform="translate(-774.277 -1070.327)" fill="#cf8c6c"/>
            <path id="Trazado_601343" data-name="Trazado 601343" d="M900.263,1231.388s-1.686.06-1.71.333a.429.429,0,0,0,.133.388l-.683.339s-.325.48.293.694c0,0-.35.417.271.552,0,0-.108.378.168.492a5.628,5.628,0,0,0,1.36.03s.221-.12.115-.535a.582.582,0,0,0,.17-.637.64.64,0,0,0,.06-.654s.446-.584,0-1c0,0-.1-.008-.174,0" transform="translate(-775.292 -1063.221)" fill="#db9c7c"/>
            <path id="Trazado_601344" data-name="Trazado 601344" d="M895.205,1217.848a11.25,11.25,0,0,0,.191-2.253c-.019-.155-.014-.213-.165-.254s-.4.5-.57.971a4.878,4.878,0,0,1-.614,1.058s-.015.488,1.158.477" transform="translate(-771.95 -1049.365)" fill="#eea886"/>
            <path id="Trazado_601345" data-name="Trazado 601345" d="M696.592,1605.432a32.709,32.709,0,0,0,2.453,3.223s1.268.659,1.308,1.184c.074.994.163,1.922-1.505,1.969s-2.749-.347-3.055-1.357a6.143,6.143,0,0,0-1.034-1.88v2.115h-.376s-.094-2.045-.117-2.421-.27-1.822.523-2.462a2.2,2.2,0,0,1,1.8-.37" transform="translate(-599.404 -1386.135)" fill="#162d40"/>
            <path id="Trazado_601346" data-name="Trazado 601346" d="M701.854,1604.431a4.213,4.213,0,0,1-1.975-.016c-1.073-.27-2.1-2.839-2.417-3.053l-.278-1.037h2.092a3.713,3.713,0,0,0,.355,1.423,24.873,24.873,0,0,0,2.223,2.682" transform="translate(-601.972 -1381.774)" fill="#eea886"/>
            <path id="Trazado_601347" data-name="Trazado 601347" d="M780.341,1595.15a6.744,6.744,0,0,0,.787,1.316c.377.492,1.551,2.515,2.068,2.656s2.115.423,2.256,1.316.212,1.528-1.363,1.6-2.609.165-3.361-.94a8.189,8.189,0,0,0-1.951-1.9v2.882h-.611a26.108,26.108,0,0,0-.447-3.212,3.625,3.625,0,0,1,.87-3.714c1.457-1.2,1.751,0,1.751,0" transform="translate(-671.349 -1376.846)" fill="#162d40"/>
            <path id="Trazado_601348" data-name="Trazado 601348" d="M787.774,1600.488s-1.41.352-1.951,0-2.378-3.459-2.987-3.645c0,0,.59-1.2,2.083-.327,0,0,2.456,3.455,2.856,3.973" transform="translate(-675.927 -1378.211)" fill="#eea886"/>
            <path id="Trazado_601349" data-name="Trazado 601349" d="M684.334,1277.152a14.756,14.756,0,0,0-2.528,5.653c-.539,3.067.318,13.363.3,14.879s-1.4,6.352-1.122,9.208,1.826,14.658,1.826,14.658l3.445-.062s-.69-12.863-.514-14.061.737-6.3.808-6.793,3.925-13.546,3.925-15.758-1.34-11.332-6.135-7.724" transform="translate(-587.947 -1102.015)" fill="#1d3b54"/>
            <path id="Trazado_601350" data-name="Trazado 601350" d="M735.707,1285.738s3.267,12.469,3.655,14.2,1.163,3.984,1.128,4.3-.411,5.641-.411,5.641L739.151,1328h-3.443s-1.105-11.529-1.281-13.856,1.269-5.923.917-6.911-5.676-12.375-5.676-12.375-4.031-12.74,6.041-9.12" transform="translate(-629.33 -1109.59)" fill="#1d3b54"/>
            <path id="Trazado_601351" data-name="Trazado 601351" d="M763.72,1152.944a4.753,4.753,0,0,1,2.872,1.408,11.172,11.172,0,0,1,1.323,3.546c.189.591,2.805,6.164,2.978,6.3s2.561.046,4,.086c2.017.057,4.42.008,4.42.008l-.294,2.886s-9.592.225-10.255-.527a74.821,74.821,0,0,1-4.768-7.455s-3.445-4.7-.273-6.254" transform="translate(-658.263 -995.49)" fill="#285173"/>
            <path id="Trazado_601352" data-name="Trazado 601352" d="M699.266,1145.9a17.7,17.7,0,0,0,2.28.917c.588.117,2.868,3.079,3.267,4.161s0,2.7-.823,4.607-.047,2.539-.423,4.443a44.28,44.28,0,0,0-.634,6.993c.07,1.058-9.507,1.257-11.693-.67,0,0,2.2-3.29,2.479-3.761a8.7,8.7,0,0,0-.212-3.69c-.259-.658-2.964-5.953-2.964-5.953s-.423-4.6.849-5.588c1.1-.858,4.115-1.164,4.656-1.352a9.236,9.236,0,0,1,3.218-.105" transform="translate(-596.179 -989.332)" fill="#eddad3"/>
            <path id="Trazado_601353" data-name="Trazado 601353" d="M758.488,1146.427l1.028-1.2-.893-3.17a20.932,20.932,0,0,0-.135,4.374" transform="translate(-654.861 -986.086)" fill="#d6c5be"/>
            <path id="Trazado_601354" data-name="Trazado 601354" d="M735.3,1117.515a40.357,40.357,0,0,0-.267,4.115s-1.758,1.762-3.759-2.057a5.243,5.243,0,0,0,.208-3.719c-.634-2.145,3.818,1.661,3.818,1.661" transform="translate(-631.41 -962.899)" fill="#eea886"/>
            <path id="Trazado_601355" data-name="Trazado 601355" d="M746,1162.294v1.61l-2.024-1.512Z" transform="translate(-642.378 -1003.564)" fill="#eea886"/>
            <path id="Trazado_601356" data-name="Trazado 601356" d="M729.8,1149.673l-.84-1.04-2.831-2.821-.916.882Z" transform="translate(-626.175 -989.333)" fill="#d6c5be"/>
            <path id="Trazado_601357" data-name="Trazado 601357" d="M689.321,1170.25c-.8,3.815-6.562-.43-6.562-.43s3.74-6.281,2.254-11.3l-.036-.119q-.143-.477-.284-.906c-1.365-4.152-2.59-5.122-2.59-5.122s1.733-3.811,3.341-4.058,3.07-.524,3.07-.524,2.375,3.6,2.489,5.191a143.9,143.9,0,0,1-1.68,17.27" transform="translate(-588.95 -991.039)" fill="#285173"/>
            <path id="Trazado_601358" data-name="Trazado 601358" d="M768.687,1155.5a26.764,26.764,0,0,1-1.112,5.386s-.306,3.808-.258,5.148.364,6.405.364,6.405l-1.651.967a.466.466,0,0,1-.7-.458c.467-3.855,1.988-18.481-1.3-22.412l1.318.389s2.713,2.53,3.333,4.575" transform="translate(-659.694 -993.41)" fill="#285173"/>
            <path id="Trazado_601359" data-name="Trazado 601359" d="M760.684,1145.222l1.3.358-2.189-3.528Z" transform="translate(-656.029 -986.086)" fill="#fae6de"/>
            <path id="Trazado_601360" data-name="Trazado 601360" d="M729.868,1148.633l-1.183,1.551-2.419-4.032.772-.34Z" transform="translate(-627.082 -989.332)" fill="#fae6de"/>
            <path id="Trazado_601361" data-name="Trazado 601361" d="M790.954,1203.392a9.121,9.121,0,0,0,.316-4.136,8.5,8.5,0,0,1-.844,3.506Z" transform="translate(-682.481 -1035.478)" fill="#1d3b54"/>
            <path id="Trazado_601362" data-name="Trazado 601362" d="M726.907,1058.682a4.21,4.21,0,0,1,4.6,3.645,10.228,10.228,0,0,1-.24,1.6c-.182.707.539,2.732.381,2.841a4.515,4.515,0,0,1-.825.27s-.618,2.279-1.407,2.3a6.54,6.54,0,0,1-5.338-3.182c-1.537-2.726-2.174-6.989,2.827-7.469" transform="translate(-624.236 -914.088)" fill="#eea886"/>
            <path id="Trazado_601363" data-name="Trazado 601363" d="M729.608,1059.142a11.171,11.171,0,0,1-3.937,1.841c-1.987.372-3.065,3.835-3.065,3.835s-3.335-5.02-1.019-8.221,8.274-1.307,8.021,2.545" transform="translate(-622.336 -910.903)" fill="#754836"/>
            <path id="Trazado_601364" data-name="Trazado 601364" d="M742.354,1094.622a.616.616,0,0,0-1.1-.388c-.609.559.331,2.359.842,2.155s.285-1.367.255-1.766" transform="translate(-639.854 -944.595)" fill="#eea886"/>
            <path id="Trazado_601365" data-name="Trazado 601365" d="M743.911,1126.976c-.045.241-.091.524-.129.822a8.642,8.642,0,0,1-2.54-2.161,9.832,9.832,0,0,0,2.669,1.339" transform="translate(-640.013 -971.913)" fill="#a77860"/>
            <path id="Trazado_601366" data-name="Trazado 601366" d="M678.356,1226.2l-7.015,12.15-7.8-4.5,6.71-12.326Z" transform="translate(-572.925 -1054.703)" fill="#e8734d"/>
            <path id="Trazado_601367" data-name="Trazado 601367" d="M726.206,1290.989a1.448,1.448,0,0,1-.459-.066s-.245-.142-.425-.233a1.345,1.345,0,0,0-.142-.064,2.658,2.658,0,0,1-.782-.331,17.772,17.772,0,0,1-1.409-1.487l.519-.789.38-.808a17.918,17.918,0,0,1,2.618.316.863.863,0,0,1,.086.052,3.393,3.393,0,0,1,.488.5c.044.038.46.445.446.618a.569.569,0,0,1-.276.479,1.358,1.358,0,0,1-.291.688.844.844,0,0,1-.406.625s-.091.436-.348.5" transform="translate(-624.253 -1111.422)" fill="#eea886"/>
            <path id="Trazado_601368" data-name="Trazado 601368" d="M669.187,1151.088a3.646,3.646,0,0,0-3.548,2.052,10.711,10.711,0,0,0-1.378,4.5c-.154,1.082-.849,4.037-.92,4.342s-1.645,3.944-.923,5.216,8.1,5.042,8.052,5.323,1.277-2.845,1.277-2.845a31.585,31.585,0,0,1-3.472-2.175c-.794-.832-2.468-1.728-2.124-2.759.4-1.212,1.618-5.3,1.9-5.9s2.931-6.987,1.135-7.75" transform="translate(-571.791 -993.878)" fill="#285173"/>
            <path id="Trazado_601369" data-name="Trazado 601369" d="M702.523,1189.955a16.736,16.736,0,0,1-1.169,4.852q-.142-.476-.284-.906c.61-1.7,1.453-3.946,1.453-3.946" transform="translate(-605.327 -1027.447)" fill="#1d3b54"/>
            <path id="Trazado_601370" data-name="Trazado 601370" d="M886.984,720.446s.923.357,1.362-.108a10.161,10.161,0,0,0,1.011-1.2c.085-.175.586-.87.683-.509a4.55,4.55,0,0,1-.728,2.158c-.255.2,1.109.517,1.309.778s-.5,2.559-1.413,2.227a5.783,5.783,0,0,1-1.729-1.349c-.263-.129-1.286-.557-1.286-.557Z" transform="translate(-765.168 -620.4)" fill="#eea886"/>
            <path id="Trazado_601371" data-name="Trazado 601371" d="M909.77,739.825a20.9,20.9,0,0,1,2.824,1.446c.111.237.035.385-.224.283s-2.656-1.089-2.656-1.089,2.963,1.989,3.1,2.162c.078.1-.053.4-.2.355s-3.194-1.838-3.194-1.838,2.763,1.862,2.831,2.042a.237.237,0,0,1-.341.276c-.215-.124-2.878-1.7-2.878-1.7a15.039,15.039,0,0,1,1.894,1.676c.005.17-.12.376-.605-.024s-1.727-1.218-1.727-1.218Z" transform="translate(-784.51 -638.79)" fill="#eea886"/>
            <path id="Trazado_601372" data-name="Trazado 601372" d="M750.952,617.761c.233.309,2.254,2.989,3.74,4.823v.006c.21.262.414.5.594.716a10.214,10.214,0,0,0,.81.9,40.807,40.807,0,0,0,3.181,3.181c.973.74,9.594,4.1,9.711,4.1.07-.023.926-1.94.926-1.94s-7.509-4.206-8.278-4.526a5.536,5.536,0,0,1-2.062-1.672c-.419-.4-5.761-7.934-6.029-8.359,0,0-1.59-2.889-3.151-1.328s.227,3.658.559,4.1" transform="translate(-647.368 -529.456)" fill="#eddad3"/>
            <path id="Trazado_601373" data-name="Trazado 601373" d="M785.875,647.639v4.689c.21.262.414.5.594.716a3.945,3.945,0,0,0,.279-2.959c-.507-1.6-.874-2.446-.874-2.446" transform="translate(-678.551 -559.193)" fill="#c2b2ad"/>
            <path id="Trazado_601374" data-name="Trazado 601374" d="M828.8,940.618a17.935,17.935,0,0,0,2.379,3.3c.959.629.358,1.265-.1,1.265s-2.781.167-3.293-.414-.767-2.324-1.243-2.78-.969-2.267.232-2.708c1.062-.389,2.022,1.338,2.022,1.338" transform="translate(-713.219 -810.956)" fill="#e55353"/>
            <path id="Trazado_601375" data-name="Trazado 601375" d="M832.3,939.732s1.916,3.321,2.246,3.812-.622.49-1.212.257-2.074-2.615-2.287-3.049a1.6,1.6,0,0,1-.045-1.111Z" transform="translate(-717.443 -811.318)" fill="#eea886"/>
            <path id="Trazado_601376" data-name="Trazado 601376" d="M826.8,953.391l.442,3.4.234.01-.073-2.449Z" transform="translate(-713.886 -823.19)" fill="#e55353"/>
            <path id="Trazado_601377" data-name="Trazado 601377" d="M707.28,940.685a17.934,17.934,0,0,0,2.379,3.3c.959.629.358,1.265-.1,1.265s-2.781.167-3.293-.414-.767-2.324-1.243-2.78-.985-2.314.232-2.708c1.067-.345,2.022,1.338,2.022,1.338" transform="translate(-608.291 -811.023)" fill="#e55353"/>
            <path id="Trazado_601378" data-name="Trazado 601378" d="M710.92,939.739s1.815,3.314,2.146,3.8-.622.49-1.212.257-2.074-2.615-2.287-3.049a1.6,1.6,0,0,1-.045-1.111Z" transform="translate(-612.555 -811.318)" fill="#eea886"/>
            <path id="Trazado_601379" data-name="Trazado 601379" d="M705.322,953.391l.442,3.4.234.01-.073-2.449Z" transform="translate(-608.999 -823.19)" fill="#e55353"/>
            <path id="Trazado_601380" data-name="Trazado 601380" d="M670.49,745.52l15.139,6.9a2.911,2.911,0,0,1,1.879,2.426c.591,5.857,4.972,15.148,4.972,15.148,1.406.687,1.3.091,1.3.091-.886-2.843-1.964-14.563-2.349-19.274-.081-1-.132-1.681-.143-1.9-.007-.149-.17-.344-.451-.571-2.077-1.684-10.625-5.172-10.625-5.172-6.418-.163-9.72,2.354-9.72,2.354" transform="translate(-578.923 -641.668)" fill="#eea886"/>
            <path id="Trazado_601381" data-name="Trazado 601381" d="M660.26,744.592c.469,4.092,4.809,4.217,4.809,4.217h7.08a44.17,44.17,0,0,0-2.577,7.628c-.762,3.7-2.558,10.258-2.558,10.258s.118.223,1.4.1c0,0,5.557-11.076,7.684-13.86a18.792,18.792,0,0,0,2-5.792c.076-.653.029-1.157-.214-1.362a17.681,17.681,0,0,0-1.563-1.068c-2.217-1.4-6.068-3.551-8.214-4.033-2.873-.646-5.444-1.337-5.444-1.337s-2.863,1.159-2.395,5.251" transform="translate(-570.046 -638.372)" fill="#eea886"/>
            <path id="Trazado_601382" data-name="Trazado 601382" d="M668.246,747.081H661.9s-4.829.321-5.3-3.77,1.842-5.972,1.842-5.972,2.153.576,4.847,1.227a20.866,20.866,0,0,1,4.873-.425s8.046,1.62,11.023,5.589c0,0-4.724-2.383-10.947,3.351" transform="translate(-566.882 -636.643)" fill="#5ad1a5"/>
            <path id="Trazado_601383" data-name="Trazado 601383" d="M771.281,564.759c.044.458.1.915.162,1.357q.028.205.075.407a4.267,4.267,0,0,0,1.134,2.059h0a2.654,2.654,0,0,0,2.927.665c2.019-.807,2.406-7.806,2.406-7.806-.966-2.573-4.533-2.2-5.813-1.041-1.01.917-1.057,2.642-.892,4.359" transform="translate(-665.887 -483.098)" fill="#eea886"/>
            <path id="Trazado_601384" data-name="Trazado 601384" d="M685.243,613.04a13.58,13.58,0,0,1,1.269,4.174c.1,1.146.771,2.484-.2,3.626s-2.213,1-2.455,1.542a6.357,6.357,0,0,1-1.256,1.756c-.371.3-.814,3.059-.942,3.348s.7,1.8-5.375,1.863-5.8-1.389-5.8-1.389a29.775,29.775,0,0,0,3.509-5.106c.58-1.029,1.983-7.959,2.69-8.923s4.572-6.283,8.565-.891" transform="translate(-578.912 -527.264)" fill="#eddad3"/>
            <path id="Trazado_601385" data-name="Trazado 601385" d="M752.481,610.24s1.308,5.632,2.764,6.074c1.5.455.177-5.079.177-5.079s-1.5-2.183-2.941-1" transform="translate(-649.717 -526.596)" fill="#eea886"/>
            <path id="Trazado_601386" data-name="Trazado 601386" d="M804.774,553.942a12.364,12.364,0,0,1,1.077,3.189,6.865,6.865,0,0,0,.77-2.594c.015-1.181.293-3.128-1.651-4.3s-.2,3.7-.2,3.7" transform="translate(-694.246 -474.941)" fill="#754836"/>
            <path id="Trazado_601387" data-name="Trazado 601387" d="M800.281,756.755s.89.5,1.523.8a4.936,4.936,0,0,1,1.707,1.618c.164.45.239,2.806.359,3.034s-.254.281-.495-.058a.767.767,0,0,1-1.178-.227c-.542-.772-.655-1.741-.958-2.106s-2.159-2.384-2.159-2.384.757-1.249,1.2-.68" transform="translate(-689.952 -653.279)" fill="#eea886"/>
            <path id="Trazado_601388" data-name="Trazado 601388" d="M827.618,773.512s.43.611.522.812.485.976.581,1.161-.366.176-1.2-.937.1-1.035.1-1.035" transform="translate(-714.21 -667.875)" fill="#eea886"/>
            <path id="Trazado_601389" data-name="Trazado 601389" d="M788.1,749.73l-.954,1.739-2.8-1.105,1.257-1.822Z" transform="translate(-677.232 -646.316)" fill="#f5e1da"/>
            <path id="Trazado_601390" data-name="Trazado 601390" d="M719.369,633.829s.321-3.062-1.713-2.7-1.775,2.934-1.755,3.448.256,6.574.513,7.688.6,3.3,1.563,3.919,10.05,3.755,10.114,3.776a17.36,17.36,0,0,0,.9-1.633s-6.193-2.956-6.921-3.235-2.42-1.092-2.527-1.627-.19-9.165-.171-9.636" transform="translate(-618.115 -544.914)" fill="#f5e1da"/>
            <path id="Trazado_601391" data-name="Trazado 601391" d="M763.01,595.729c.214,1.406,1.828,1.976,1.842,1.29a1.545,1.545,0,0,1,.259-.439h0c.044-.061.082-.113.1-.144a1.893,1.893,0,0,1,.345-.371,6.827,6.827,0,0,1,1.291-.808l-2.127-3.919s-.237.367-.536.9c-.553.995-1.317,2.573-1.178,3.486" transform="translate(-658.794 -510.582)" fill="#eea886"/>
            <path id="Trazado_601392" data-name="Trazado 601392" d="M723.331,549.417s-.729,1.885-2.325,1.7-2.665.385-2.755,1.06-.892,4.339-2.3,4.433-2.736-1.87-3.458-1.341-1.23,3-2.344,2.517-1.234-2.665.808-3.921,3.593-1.487,4.049-2.8,1.547-4.859,2.962-5.739a4.3,4.3,0,0,1,4.631-.163,3.333,3.333,0,0,1,1.981,3.386Z" transform="translate(-612.481 -470.211)" fill="#754836"/>
            <path id="Trazado_601393" data-name="Trazado 601393" d="M774.041,613.44c.044-.06.082-.113.1-.144a1.889,1.889,0,0,1,.345-.371,4.739,4.739,0,0,1-1.135-2.06,4.186,4.186,0,0,0,.687,2.575" transform="translate(-667.724 -527.441)" fill="#a77860"/>
            <path id="Trazado_601394" data-name="Trazado 601394" d="M1422.082,1613.717s.245,1.715.275,1.972,2.722-.152,2.722-.152l.218-2.041a15.81,15.81,0,0,0-3.215.221" transform="translate(-1227.873 -1393.146)" fill="#5c544d"/>
            <path id="Trazado_601395" data-name="Trazado 601395" d="M1394.359,1627.226a7.3,7.3,0,0,1-1.678,1.484c-.825.45-2.121.629-2.609,1.095-.352.337-1.282,1.785,2.143,1.756s5.077.2,5.444-.351-.531-4.1-.531-4.1a7.182,7.182,0,0,1-2.77.116" transform="translate(-1199.903 -1404.901)" fill="#3c4145"/>
            <path id="Trazado_601396" data-name="Trazado 601396" d="M1280.873,1613.717s.245,1.715.275,1.972,2.722-.152,2.722-.152l.218-2.041a15.809,15.809,0,0,0-3.215.221" transform="translate(-1105.948 -1393.146)" fill="#5c544d"/>
            <path id="Trazado_601397" data-name="Trazado 601397" d="M1243.146,1627.226a7.293,7.293,0,0,1-1.678,1.484c-.825.45-3.86.82-4.348,1.286-.352.337-.937,1.691,3.882,1.565,3.424-.09,5.077.2,5.444-.351s-.531-4.1-.531-4.1a6.521,6.521,0,0,1-2.77.116" transform="translate(-1067.975 -1404.901)" fill="#3c4145"/>
            <path id="Trazado_601398" data-name="Trazado 601398" d="M1368,1290.966a25.352,25.352,0,0,1,1.244,7.922c-.188,3.667.741,7.679,1.121,11.51.424,4.27,2.157,14.38,2.219,16.664s-.269,9.578-.269,9.578l-3.469.08s-2.914-17.674-3.669-19.477-4.5-14.66-4.623-16.1,7.446-10.174,7.446-10.174" transform="translate(-1174.742 -1114.663)" fill="#33373b"/>
            <path id="Trazado_601399" data-name="Trazado 601399" d="M1281.651,1288.618s-1.906,10.05-2.157,12.294-.419,10.861-.545,12.263-.839,18.355-1.51,20.439h4.436s3.4-12.324,3.4-18.155,2.63-12.676,4.328-16.523,5.584-3.938,6.628-11.076c0,0-13.172-1.507-14.586.757" transform="translate(-1102.983 -1111.558)" fill="#3c4145"/>
            <path id="Trazado_601400" data-name="Trazado 601400" d="M1334.917,1042.984s-3.5-1.306-5.108,1.355-1.457,7.99.306,8.645,4.41.313,5.312-1.353a13.34,13.34,0,0,0,1.678-5.682,3.506,3.506,0,0,0-2.187-2.966" transform="translate(-1147.235 -900.27)" fill="#eea886"/>
            <path id="Trazado_601401" data-name="Trazado 601401" d="M1342.778,1096.67a2.936,2.936,0,0,1-.092,1.368c-.233.451,4.4.463,4.4.463a30.526,30.526,0,0,1,1.089-4.53c.713-2.075-5.394,2.7-5.394,2.7" transform="translate(-1159.312 -944.12)" fill="#eea886"/>
            <path id="Trazado_601402" data-name="Trazado 601402" d="M1338.66,1047.77s-.32.527-1.625.323-2.9-1.94-3.441-2.131-.55-.511-.55-.511l-.341.5-.579.037s.528-1.553-.268-2.186.826-5.026,5.011-3.564c0,0,3.214.886,3.1,2.714a10.158,10.158,0,0,1-1.3,4.82" transform="translate(-1149.8 -897.919)" fill="#fccca2"/>
            <path id="Trazado_601403" data-name="Trazado 601403" d="M1340.728,1118.636s.015-.863.406-.945a27.94,27.94,0,0,1,4.8-.271v1.005s-.925.569-5.2.212" transform="translate(-1157.629 -964.772)" fill="#e2d2ca"/>
            <path id="Trazado_601404" data-name="Trazado 601404" d="M1341.779,1071.215c.073-.306.853-1.183,1.151-.245s-.451,2.2-.869,2.092-.468-1.07-.282-1.847" transform="translate(-1158.448 -924.348)" fill="#eea886"/>
            <path id="Trazado_601405" data-name="Trazado 601405" d="M1248.688,1125.319s-2.152.773-4.644,1.832a5.232,5.232,0,0,0-3.177,4.237c-.165,1.68-1.954,10.6-2.289,11.354s-4.3,12.878-4.443,13.13,3.238,1.654,3.462,1.542,3.842-11.057,4.205-11.868c0,0,2.083-6.563,2.139-7.541,0,0,.06,2.788.172,3.571s-1.852,15.98-1.8,16.4,8.925.952,12.475.561a43.474,43.474,0,0,0,6.414-1.208s-2.793-11.993-2.708-13.323c.187-2.9,1.155-8.354,1.155-8.354l2.894,5.457-3.705,9.532.849,2.9s6.885-10.4,7.108-11.354a5.117,5.117,0,0,0-.7-2.944c-.363-.783-2.75-6.74-3.309-7.578s-1.5-4.2-3.787-5.131a35.683,35.683,0,0,0-5.113-1.422Z" transform="translate(-1065.589 -971.455)" fill="#495054"/>
            <rect id="Rectángulo_293203" data-name="Rectángulo 293203" width="11.681" height="16.744" transform="translate(162.146 185.752) rotate(-75.618)" fill="#d6d6d6"/>
            <path id="Trazado_601406" data-name="Trazado 601406" d="M1219.628,1368.5s-.464.749-.633.963.416.348.667.131-.034-1.094-.034-1.094" transform="translate(-1052.495 -1181.605)" fill="#c98462"/>
            <path id="Trazado_601407" data-name="Trazado 601407" d="M1226.964,1353.819a1.8,1.8,0,0,0,.333-.469s.081-.342.154-.581a1.685,1.685,0,0,1,.064-.182,3.281,3.281,0,0,0,.371-.985c.071-.462.274-2.537.274-2.537l-1.256-.317-1.01-.213a20.638,20.638,0,0,0-2.3,2.6,1.107,1.107,0,0,0-.027.122,4.183,4.183,0,0,0,.032.865c0,.072.007.794.175.929a.7.7,0,0,0,.666.161,1.685,1.685,0,0,0,.867.326,1.047,1.047,0,0,0,.909.169s.47.291.746.114" transform="translate(-1056.453 -1164.37)" fill="#de9d7d"/>
            <path id="Trazado_601408" data-name="Trazado 601408" d="M1241.031,1282.8s-2.879,8.718-3.408,9.633a9.5,9.5,0,0,1-3.462-1.542l3.161-9.408Z" transform="translate(-1065.616 -1106.477)" fill="#495054"/>
          </g>
        </g>
      </g>
    </g>
    <g id="Grupo_877096" data-name="Grupo 877096" transform="translate(1742 31236) rotate(180)">
      <g id="Grupo_876000" data-name="Grupo 876000" transform="translate(1373.849 13501.084)">
        <g id="Grupo_151688" data-name="Grupo 151688" transform="translate(0 7.463)">
          <path id="Trazado_212295" data-name="Trazado 212295" d="M-11425.02-11468v14.928" transform="translate(11432.482 11467.996)" fill="none" stroke="#f3ab1d" stroke-width="4"/>
          <path id="Trazado_212296" data-name="Trazado 212296" d="M0,0V14.927" transform="translate(14.927 7.463) rotate(90)" fill="none" stroke="#f3ab1d" stroke-width="4"/>
        </g>
        <g id="Grupo_151689" data-name="Grupo 151689" transform="translate(19.406 0)">
          <path id="Trazado_212295-2" data-name="Trazado 212295" d="M-11425.02-11468v14.928" transform="translate(11432.482 11467.996)" fill="none" stroke="#f3ab1d" stroke-width="4"/>
          <path id="Trazado_212296-2" data-name="Trazado 212296" d="M0,0V14.927" transform="translate(14.927 7.463) rotate(90)" fill="none" stroke="#f3ab1d" stroke-width="4"/>
        </g>
        <g id="Grupo_151690" data-name="Grupo 151690" transform="translate(22.64 22.39)">
          <path id="Trazado_212295-3" data-name="Trazado 212295" d="M-11425.02-11468v14.928" transform="translate(11432.482 11467.996)" fill="none" stroke="#f3ab1d" stroke-width="4"/>
          <path id="Trazado_212296-3" data-name="Trazado 212296" d="M0,0V14.927" transform="translate(14.927 7.463) rotate(90)" fill="none" stroke="#f3ab1d" stroke-width="4"/>
        </g>
      </g>
      <rect id="Rectángulo_292160" data-name="Rectángulo 292160" width="85" height="53" transform="translate(1335 13492)" fill="none"/>
    </g>
  </g>
</svg>
